<?xml version="1.0" encoding="UTF-8" standalone="no"?>
<!-- Generator: Adobe Illustrator 19.0.0, SVG Export Plug-In . SVG Version: 6.00 Build 0)  -->

<svg
   xmlns:dc="http://purl.org/dc/elements/1.1/"
   xmlns:cc="http://creativecommons.org/ns#"
   xmlns:rdf="http://www.w3.org/1999/02/22-rdf-syntax-ns#"
   xmlns:svg="http://www.w3.org/2000/svg"
   xmlns="http://www.w3.org/2000/svg"
   xmlns:sodipodi="http://sodipodi.sourceforge.net/DTD/sodipodi-0.dtd"
   xmlns:inkscape="http://www.inkscape.org/namespaces/inkscape"
   version="1.1"
   id="Capa_1"
   x="0px"
   y="0px"
   viewBox="0 0 167.71414 246.47889"
   xml:space="preserve"
   sodipodi:docname="official-logo-purple.svg"
   inkscape:version="0.92.3 (2405546, 2018-03-11)"
   width="167.71414"
   height="246.4789"><metadata
   id="metadata103"><rdf:RDF><cc:Work
       rdf:about=""><dc:format>image/svg+xml</dc:format><dc:type
         rdf:resource="http://purl.org/dc/dcmitype/StillImage" /><dc:title></dc:title></cc:Work></rdf:RDF></metadata><defs
   id="defs101">

	
</defs><sodipodi:namedview
   pagecolor="#ffffff"
   bordercolor="#666666"
   borderopacity="1"
   objecttolerance="10"
   gridtolerance="10"
   guidetolerance="10"
   inkscape:pageopacity="0"
   inkscape:pageshadow="2"
   inkscape:window-width="1440"
   inkscape:window-height="858"
   id="namedview99"
   showgrid="false"
   inkscape:zoom="1.21"
   inkscape:cx="-223.27704"
   inkscape:cy="25.764618"
   inkscape:window-x="-11"
   inkscape:window-y="-11"
   inkscape:window-maximized="1"
   inkscape:current-layer="Capa_1" />


<g
   id="g18"
   transform="translate(-146.28989,-124.37183)">
	<g
   id="g16">
		
	</g>
</g>

<g
   id="g30"
   transform="translate(-146.28989,-124.37183)">
	<g
   id="g28">
		
	</g>
</g>


<g
   id="g48"
   transform="translate(-146.28989,-124.37183)">
	<g
   id="g46">
		
	</g>
</g>



<g
   id="g68"
   transform="translate(-146.28989,-124.37183)">
</g>
<g
   id="g70"
   transform="translate(-146.28989,-124.37183)">
</g>
<g
   id="g72"
   transform="translate(-146.28989,-124.37183)">
</g>
<g
   id="g74"
   transform="translate(-146.28989,-124.37183)">
</g>
<g
   id="g76"
   transform="translate(-146.28989,-124.37183)">
</g>
<g
   id="g78"
   transform="translate(-146.28989,-124.37183)">
</g>
<g
   id="g80"
   transform="translate(-146.28989,-124.37183)">
</g>
<g
   id="g82"
   transform="translate(-146.28989,-124.37183)">
</g>
<g
   id="g84"
   transform="translate(-146.28989,-124.37183)">
</g>
<g
   id="g86"
   transform="translate(-146.28989,-124.37183)">
</g>
<g
   id="g88"
   transform="translate(-146.28989,-124.37183)">
</g>
<g
   id="g90"
   transform="translate(-146.28989,-124.37183)">
</g>
<g
   id="g92"
   transform="translate(-146.28989,-124.37183)">
</g>
<g
   id="g94"
   transform="translate(-146.28989,-124.37183)">
</g>
<g
   id="g96"
   transform="translate(-146.28989,-124.37183)">
</g>
<g
   id="g877"
   style="fill:#4a148c;fill-opacity:1"
   inkscape:export-xdpi="187"
   inkscape:export-ydpi="187"
   inkscape:export-filename="C:\_github-projects\systems\fiddelize\client\public\img\official-logo-purple.png"><g
   transform="matrix(0.43794827,0.11431967,-0.07225161,0.36303213,-30.506157,119.13858)"
   id="g34"
   style="fill:#4a148c;fill-opacity:1">
		<path
   d="M 470.92658,111.6977 447.3251,40.115066 c -1.45419,-4.421383 -5.97943,-7.299518 -10.10957,-6.42899 l -0.006,0.0013 -66.85897,14.154149 c -4.13039,0.872495 -6.29904,5.164864 -4.84288,9.586788 1.45616,4.421924 5.98545,7.300157 10.11584,6.427663 L 424.0439,53.620592 407.17144,85.706748 C 333.05921,226.34624 304.57354,277.68543 138.41702,246.71104 l 0.38728,14.69811 C 311.22112,293.5523 344.50495,240.94143 421.38161,94.98555 l 17.22835,-32.785619 17.35791,52.656889 c 1.45616,4.42193 5.98545,7.30016 10.11583,6.42767 4.13137,-0.87223 6.29892,-5.16388 4.84288,-9.58679 z"
   id="path32"
   inkscape:connector-curvature="0"
   sodipodi:nodetypes="cccccscccccccccc"
   style="fill:#4a148c;fill-opacity:1" />
	</g><path
   inkscape:connector-curvature="0"
   d="m 13.243125,212.31469 c -0.79358,0.15599 -1.551847,0.57357 -2.314715,0.94596 -1.2529049,0.4905 -2.4566141,1.21005 -3.6540866,1.97056 -0.93693,0.51459 -1.8001397,1.22129 -2.545787,2.25232 -0.6947664,1.01312 -0.9265458,1.96964 -0.9640475,3.39253 0.121024,1.66828 0.7774906,2.98776 1.3758655,4.30318 0.7446482,1.76014 1.6185217,3.38487 2.5078644,4.97237 0.7010571,1.14793 1.4397815,2.24027 2.2193218,3.26131 0.6979334,0.87979 1.4827834,1.57743 2.2724444,2.24776 0.687257,0.57334 1.382245,1.12527 2.077547,1.6762 0.315983,0.24619 0.630152,0.49723 0.94297,0.75237 0,0 -3.764785,0.90822 -3.764785,0.90822 v 0 c -0.315363,-0.24696 -0.629453,-0.49733 -0.942025,-0.75216 C 9.7602853,237.6877 9.0634849,237.13838 8.3826025,236.54668 7.5936715,235.84074 6.811853,235.10237 6.1197041,234.18577 5.3441938,233.1401 4.6163602,232.01486 3.9277778,230.83366 3.0477213,229.22158 2.2135378,227.54222 1.4327094,225.81182 0.76781721,224.4049 0.09760575,222.96498 -2.9718676e-6,221.14856 0.01943224,219.67701 0.23765088,218.36999 0.95786888,217.29185 c 0.73800682,-1.14255 1.61983962,-1.9546 2.60512062,-2.46981 1.1964688,-0.75749 2.3877144,-1.53695 3.6407401,-2.02405 0.7420726,-0.35225 1.4606606,-0.82863 2.2262396,-1.03749 0,0 3.8130588,0.55444 3.8130588,0.55444 z"
   id="path131"
   style="fill:#4a148c;stroke-width:0.38865164;fill-opacity:1" /><ellipse
   ry="11.258654"
   rx="10.64141"
   cy="204.59648"
   cx="119.88216"
   id="path133-2"
   style="fill:#4a148c;stroke-width:0.99974579;fill-opacity:1"
   transform="matrix(0.97540663,0.22041302,-0.22406009,0.97457533,0,0)" /><ellipse
   transform="matrix(0.96757825,0.25257145,-0.19519435,0.98076458,0,0)"
   ry="14.735038"
   rx="11.953144"
   cy="165.94823"
   cx="151.81032"
   id="path133-2-1"
   style="fill:#4a148c;stroke-width:1.21217;fill-opacity:1" /><ellipse
   ry="8.3279619"
   rx="7.375803"
   cy="207.53418"
   cx="74.428497"
   id="path133-2-5"
   style="fill:#4a148c;stroke-width:0.71584797;fill-opacity:1"
   transform="matrix(0.97174809,0.23602045,-0.20916565,0.97788022,0,0)" /><text
   id="text125"
   y="204.39453"
   x="11.561336"
   style="font-style:normal;font-weight:normal;font-size:40px;line-height:1.25;font-family:sans-serif;letter-spacing:0px;word-spacing:0px;fill:#4a148c;fill-opacity:1;stroke:none"
   xml:space="preserve"><tspan
     style="font-style:normal;font-variant:normal;font-weight:normal;font-stretch:normal;font-size:306.66665649px;font-family:Cambria;-inkscape-font-specification:'Cambria, Normal';font-variant-ligatures:normal;font-variant-caps:normal;font-variant-numeric:normal;font-feature-settings:normal;text-align:start;writing-mode:lr-tb;text-anchor:start;fill:#4a148c;fill-opacity:1"
     y="204.39453"
     x="11.561336"
     id="tspan123"
     sodipodi:role="line">F<tspan
   id="tspan213"
   style="font-size:96px;fill:#4a148c;fill-opacity:1" /></tspan></text>

</g></svg>