<?xml version="1.0" encoding="UTF-8" standalone="no"?>
<svg
   xmlns:dc="http://purl.org/dc/elements/1.1/"
   xmlns:cc="http://creativecommons.org/ns#"
   xmlns:rdf="http://www.w3.org/1999/02/22-rdf-syntax-ns#"
   xmlns:svg="http://www.w3.org/2000/svg"
   xmlns="http://www.w3.org/2000/svg"
   xmlns:sodipodi="http://sodipodi.sourceforge.net/DTD/sodipodi-0.dtd"
   xmlns:inkscape="http://www.inkscape.org/namespaces/inkscape"
   height="509.96609"
   version="1.1"
   viewBox="0 0 512.13562 509.96609"
   width="512.13562"
   xml:space="preserve"
   id="svg12"
   sodipodi:docname="whats-icon.svg"
   inkscape:version="0.92.3 (2405546, 2018-03-11)"><metadata
     id="metadata18"><rdf:RDF><cc:Work
         rdf:about=""><dc:format>image/svg+xml</dc:format><dc:type
           rdf:resource="http://purl.org/dc/dcmitype/StillImage" /></cc:Work></rdf:RDF></metadata><defs
     id="defs16" /><sodipodi:namedview
     pagecolor="#ffffff"
     bordercolor="#666666"
     borderopacity="1"
     objecttolerance="10"
     gridtolerance="10"
     guidetolerance="10"
     inkscape:pageopacity="0"
     inkscape:pageshadow="2"
     inkscape:window-width="1440"
     inkscape:window-height="858"
     id="namedview14"
     showgrid="false"
     inkscape:zoom="0.4609375"
     inkscape:cx="252.98306"
     inkscape:cy="257.32203"
     inkscape:window-x="-11"
     inkscape:window-y="-11"
     inkscape:window-maximized="1"
     inkscape:current-layer="g8" /><g
     id="_x33_75-whatsapp"
     transform="translate(-3.0169447,-3.3559336)"><g
       id="g8"><path
         d="m 376.40647,308.95312 c -6.42302,-3.18729 -37.70598,-18.42253 -43.53152,-20.52614 -5.82554,-2.14611 -10.09334,-3.18729 -14.36113,3.18729 -4.20378,6.26834 -16.45237,20.48364 -20.14401,24.69086 -3.73433,4.14348 -7.44731,4.4622 -13.78498,1.59364 -6.4017,-3.18729 -26.95115,-9.88059 -51.27759,-31.55415 -18.94901,-16.89263 -31.66703,-37.61 -35.4227,-43.98457 -3.71299,-6.37458 -0.40545,-9.8806 2.77406,-13.06788 2.9021,-2.86856 6.42304,-7.33077 9.62389,-11.11302 3.1155,-3.84599 4.13975,-6.39583 6.33767,-10.5393 2.1339,-4.4622 1.04562,-7.96822 -0.53348,-11.13426 -1.60041,-3.18729 -14.33958,-34.42271 -19.67431,-46.87439 -5.12136,-12.40917 -10.3921,-10.83677 -14.3398,-10.83677 -3.67031,-0.31874 -7.91677,-0.31874 -12.18456,-0.31874 -4.2678,0 -11.1603,1.57241 -17.00717,7.62825 -5.82555,6.37458 -22.29923,21.67356 -22.29923,52.59025 0,30.9167 22.8327,60.87721 26.01222,65.33942 3.1795,4.14347 44.91855,67.88923 108.8286,95.29991 15.23602,6.37458 27.1005,10.19932 36.36162,13.36536 15.23603,4.82343 29.1277,4.14347 40.11728,2.57108 12.24858,-1.93363 37.70599,-15.32024 43.01939,-30.30049 5.44144,-14.98026 5.44144,-27.41068 3.84103,-30.27924 -1.5791,-2.86855 -5.76153,-4.4622 -12.16323,-7.33076 M 260.38642,465.5127 H 260.045 c -37.77,0 -75.19837,-10.19931 -107.86834,-29.32304 l -7.68205,-4.5472 -80.021176,20.71737 21.445671,-77.4511 -5.100018,-7.96822 C 59.693494,333.45273 48.469194,294.88655 48.469194,255.17294 48.468981,139.47438 143.53415,45.130662 260.62115,45.130662 c 56.63366,0 109.78906,21.992284 149.82099,61.833388 40.0106,39.50112 62.07511,92.43135 62.07511,148.52762 -0.0853,115.67731 -95.17186,210.04229 -212.0028,210.04229 M 440.89288,76.64231 C 392.24,29.810425 328.22305,3.3559336 260.045,3.3559336 119.59181,3.3559336 5.2362019,116.6959 5.1721841,256.06538 c 0,44.53704 11.7150959,87.96916 34.0356719,126.32285 L 3.0169447,513.32203 138.19941,478.21936 c 37.25785,20.03742 79.16762,30.68296 121.84559,30.74671 h 0.12803 c 140.51721,0 254.91549,-113.38246 254.97951,-252.7732 0,-67.48551 -26.46033,-130.99754 -74.57974,-178.721861"
         id="path4"
         style="fill:#ffffff;stroke-width:21.29373741"
         inkscape:connector-curvature="0" /></g></g><g
     id="Layer_1"
     transform="translate(-3.0169447,-3.3559336)" /></svg>