<?xml version="1.0" encoding="UTF-8" standalone="no"?>
<!-- Generator: Adobe Illustrator 19.0.0, SVG Export Plug-In . SVG Version: 6.00 Build 0)  -->

<svg
   xmlns:dc="http://purl.org/dc/elements/1.1/"
   xmlns:cc="http://creativecommons.org/ns#"
   xmlns:rdf="http://www.w3.org/1999/02/22-rdf-syntax-ns#"
   xmlns:svg="http://www.w3.org/2000/svg"
   xmlns="http://www.w3.org/2000/svg"
   xmlns:sodipodi="http://sodipodi.sourceforge.net/DTD/sodipodi-0.dtd"
   xmlns:inkscape="http://www.inkscape.org/namespaces/inkscape"
   version="1.1"
   id="Capa_1"
   x="0px"
   y="0px"
   viewBox="0 0 134.89465 119.71783"
   xml:space="preserve"
   sodipodi:docname="coins.svg"
   width="134.89465"
   height="119.71783"
   inkscape:version="0.92.3 (2405546, 2018-03-11)"><metadata
   id="metadata121"><rdf:RDF><cc:Work
       rdf:about=""><dc:format>image/svg+xml</dc:format><dc:type
         rdf:resource="http://purl.org/dc/dcmitype/StillImage" /><dc:title></dc:title></cc:Work></rdf:RDF></metadata><defs
   id="defs119" /><sodipodi:namedview
   pagecolor="#ffffff"
   bordercolor="#666666"
   borderopacity="1"
   objecttolerance="10"
   gridtolerance="10"
   guidetolerance="10"
   inkscape:pageopacity="0"
   inkscape:pageshadow="2"
   inkscape:window-width="1440"
   inkscape:window-height="858"
   id="namedview117"
   showgrid="false"
   inkscape:zoom="1.13"
   inkscape:cx="56.676954"
   inkscape:cy="13.215399"
   inkscape:window-x="-11"
   inkscape:window-y="-11"
   inkscape:window-maximized="1"
   inkscape:current-layer="Capa_1" />































<g
   id="g1077"
   transform="matrix(0.50401902,0,0,0.46764591,-111.43357,-108.83383)"><circle
     id="circle20"
     r="81.455002"
     cy="337.45499"
     cx="302.54501"
     style="fill:#ffca5d" /><circle
     id="circle22"
     r="81.455002"
     cy="314.18201"
     cx="407.27301"
     style="fill:#f6b545" /><path
     id="path24"
     d="m 407.273,232.727 c -45.382,0 -81.455,36.073 -81.455,81.455 0,45.382 36.073,81.455 81.455,81.455 45.382,0 81.455,-36.073 81.455,-81.455 0,-45.382 -36.073,-81.455 -81.455,-81.455 z m 0,139.637 c -32.582,0 -58.182,-25.6 -58.182,-58.182 0,-32.582 25.6,-58.182 58.182,-58.182 32.582,0 58.182,25.6 58.182,58.182 0,32.582 -25.6,58.182 -58.182,58.182 z"
     style="fill:#ffcb5b"
     inkscape:connector-curvature="0" /><path
     id="path26"
     d="m 407.273,394.473 v 0 c 45.382,1.164 81.455,-36.073 81.455,-80.291 h -1.164 c -5.818,0 -10.473,4.655 -11.636,10.473 -2.327,16.291 -10.473,31.418 -22.109,41.891 -9.309,9.309 -22.109,15.127 -36.073,17.454 -5.819,0 -10.473,4.655 -10.473,10.473 z"
     style="fill:#f6b545"
     inkscape:connector-curvature="0" /><path
     id="path28"
     d="m 407.273,233.891 v 0 c -45.382,-1.164 -81.455,36.073 -81.455,80.291 h 1.164 c 5.818,0 10.473,-4.655 11.636,-10.473 2.327,-16.291 10.473,-31.418 22.109,-41.891 9.309,-9.309 22.109,-15.127 36.073,-17.455 5.818,0.001 10.473,-4.654 10.473,-10.472 z"
     style="fill:#ffe27a"
     inkscape:connector-curvature="0" /><path
     id="path30"
     d="m 357.236,322.327 c 0,-32.582 25.6,-58.182 58.182,-58.182 13.964,0 26.764,4.655 37.236,13.964 C 441.018,264.145 425.891,256 407.273,256 c -32.582,0 -58.182,25.6 -58.182,58.182 0,18.618 8.145,33.745 20.945,44.218 -8.145,-9.309 -12.8,-22.109 -12.8,-36.073 z"
     style="fill:#f19920"
     inkscape:connector-curvature="0" /><path
     id="path32"
     d="m 442.182,350.255 c -1.164,0 -2.327,0 -3.491,-1.164 -2.327,-2.327 -2.327,-5.818 0,-8.145 6.982,-6.982 10.473,-17.455 10.473,-26.764 0,-3.491 2.327,-5.818 5.818,-5.818 3.491,0 5.818,2.327 5.818,5.818 0,12.8 -4.655,25.6 -12.8,34.909 -2.327,1.164 -4.655,1.164 -5.818,1.164 z"
     style="fill:#ffcb5b"
     inkscape:connector-curvature="0" /><g
     id="g38">
	<path
   id="path34"
   d="m 407.273,349.091 c -6.982,0 -11.636,-4.655 -11.636,-11.636 V 290.91 c 0,-6.982 4.655,-11.636 11.636,-11.636 6.981,0 11.636,4.655 11.636,11.636 v 46.545 c 0,6.981 -4.654,11.636 -11.636,11.636 z"
   style="fill:#f19920"
   inkscape:connector-curvature="0" />
	<path
   id="path36"
   d="M 450.327,382.836 C 442.182,353.745 421.236,330.472 394.472,320 c -4.655,-26.764 -22.109,-50.036 -44.218,-64 -13.964,15.127 -23.273,34.909 -23.273,57.018 0,45.382 36.073,81.455 81.455,81.455 15.128,1.163 29.091,-3.491 41.891,-11.637 z"
   style="fill:#f19920"
   inkscape:connector-curvature="0" />
</g><g
     id="g44">
	<path
   id="path40"
   d="m 370.036,358.4 c -8.145,-10.473 -13.964,-23.273 -13.964,-37.236 0,-16.291 6.982,-31.418 18.618,-41.891 -2.327,-3.491 -4.655,-5.818 -6.982,-8.145 -11.636,10.473 -18.618,25.6 -18.618,43.055 0.001,18.617 8.146,33.744 20.946,44.217 z"
   style="fill:#e78825"
   inkscape:connector-curvature="0" />
	<path
   id="path42"
   d="m 395.636,321.164 v 16.291 c 0,6.982 4.655,11.636 11.636,11.636 6.981,0 11.636,-4.655 11.636,-11.636 v -2.327 c -6.981,-5.819 -15.126,-10.473 -23.272,-13.964 z"
   style="fill:#e78825"
   inkscape:connector-curvature="0" />
</g><path
     id="path46"
     d="m 450.327,382.836 c -2.327,-8.145 -4.655,-15.127 -9.309,-22.109 -9.309,6.982 -20.945,11.636 -33.745,11.636 -32.582,0 -58.182,-25.6 -58.182,-58.182 0,-17.455 6.982,-32.582 18.618,-43.055 -5.818,-5.818 -11.636,-10.473 -18.618,-13.964 -13.964,15.127 -23.273,34.909 -23.273,57.018 0,45.382 36.073,81.455 81.455,81.455 16.291,0.001 30.254,-4.653 43.054,-12.799 z"
     style="fill:#f6b545"
     inkscape:connector-curvature="0" /><path
     id="path48"
     d="m 446.836,372.364 c -8.145,5.818 -18.618,9.309 -29.091,11.636 -5.818,1.164 -10.473,5.818 -10.473,11.636 v 0 c 16.291,0 30.255,-4.655 43.055,-12.8 -1.163,-3.491 -2.327,-6.981 -3.491,-10.472 z"
     style="fill:#f19920"
     inkscape:connector-curvature="0" /><path
     id="path50"
     d="m 349.091,257.164 c -13.964,15.127 -23.273,34.909 -23.273,57.018 h 1.164 c 5.818,0 10.473,-4.655 11.636,-10.473 2.327,-16.291 10.473,-30.255 20.945,-40.727 -3.49,-1.164 -6.981,-3.491 -10.472,-5.818 z"
     style="fill:#ffcb5b"
     inkscape:connector-curvature="0" /><circle
     id="circle52"
     r="81.455002"
     cy="337.45499"
     cx="302.54501"
     style="fill:#f6b545" /><path
     id="path54"
     d="m 290.909,395.636 c 0,8.145 1.164,15.127 3.491,23.273 2.327,0 5.818,0 8.145,0 45.382,0 81.455,-36.073 81.455,-81.455 0,-8.145 -1.164,-15.127 -3.491,-23.273 -2.327,0 -5.818,0 -8.145,0 -45.382,0.001 -81.455,36.074 -81.455,81.455 z"
     style="fill:#f19920"
     inkscape:connector-curvature="0" /><path
     id="path56"
     d="m 302.545,256 c -45.382,0 -81.455,36.073 -81.455,81.455 0,45.382 36.073,81.455 81.455,81.455 C 347.927,418.91 384,382.836 384,337.455 384,292.074 347.927,256 302.545,256 Z m 0,139.636 c -32.582,0 -58.182,-25.6 -58.182,-58.182 0,-32.582 25.6,-58.182 58.182,-58.182 32.582,0 58.182,25.6 58.182,58.182 0,32.582 -25.6,58.182 -58.182,58.182 z"
     style="fill:#ffcb5b"
     inkscape:connector-curvature="0" /><path
     id="path58"
     d="m 302.545,417.745 v 0 C 347.927,418.909 384,381.673 384,337.455 h -1.164 c -5.818,0 -10.473,4.655 -11.636,10.473 -2.327,16.291 -10.473,31.418 -22.109,41.891 -9.309,9.309 -22.109,15.127 -36.073,17.455 -5.818,-10e-4 -10.473,4.653 -10.473,10.471 z"
     style="fill:#f6b545"
     inkscape:connector-curvature="0" /><path
     id="path60"
     d="m 302.545,257.164 v 0 C 257.163,256 221.09,293.237 221.09,337.455 h 1.164 c 5.818,0 10.473,-4.655 11.636,-10.473 2.327,-16.291 10.473,-31.418 22.109,-41.891 9.309,-9.309 22.109,-15.127 36.073,-17.455 5.819,0 10.473,-4.654 10.473,-10.472 z"
     style="fill:#ffe27a"
     inkscape:connector-curvature="0" /><path
     id="path62"
     d="m 252.509,345.6 c 0,-32.582 25.6,-58.182 58.182,-58.182 13.964,0 26.764,4.655 37.236,13.964 -11.636,-13.964 -26.764,-22.109 -45.382,-22.109 -32.582,0 -58.182,25.6 -58.182,58.182 0,18.618 8.145,33.745 20.945,44.218 -8.144,-9.309 -12.799,-22.109 -12.799,-36.073 z"
     style="fill:#f19920"
     inkscape:connector-curvature="0" /><path
     id="path64"
     d="m 337.455,373.527 c -1.164,0 -2.327,0 -3.491,-1.164 -2.327,-2.327 -2.327,-5.818 0,-8.145 6.982,-6.982 10.473,-17.455 10.473,-26.764 0,-3.491 2.327,-5.818 5.818,-5.818 3.491,0 5.818,2.327 5.818,5.818 0,12.8 -4.655,25.6 -12.8,34.909 -2.328,1.164 -4.655,1.164 -5.818,1.164 z"
     style="fill:#ffcb5b"
     inkscape:connector-curvature="0" /><path
     id="path66"
     d="m 302.545,372.364 c -6.982,0 -11.636,-4.655 -11.636,-11.636 v -46.545 c 0,-6.982 4.655,-11.636 11.636,-11.636 6.982,0 11.636,4.655 11.636,11.636 v 46.545 c 0.001,6.981 -4.654,11.636 -11.636,11.636 z"
     style="fill:#f19920"
     inkscape:connector-curvature="0" /><g
     id="g72">
	<path
   id="path68"
   d="m 356.073,315.345 c 2.327,6.982 4.655,13.964 4.655,22.109 0,32.582 -25.6,58.182 -58.182,58.182 -3.491,0 -8.145,0 -11.636,-1.164 v 1.164 c 0,8.145 1.164,15.127 3.491,23.273 2.327,0 5.818,0 8.145,0 45.382,0 81.455,-36.073 81.455,-81.455 0,-8.145 -1.164,-15.127 -3.491,-23.273 -2.327,0 -5.818,0 -8.145,0 -5.82,0.001 -10.474,0.001 -16.292,1.164 z"
   style="fill:#f6b545"
   inkscape:connector-curvature="0" />
	<circle
   id="circle70"
   r="81.455002"
   cy="407.27301"
   cx="360.72699"
   style="fill:#f6b545" />
</g><path
     id="path74"
     d="m 360.727,325.818 c -45.382,0 -81.455,36.073 -81.455,81.455 0,45.382 36.073,81.455 81.455,81.455 45.382,0 81.455,-36.073 81.455,-81.455 0,-45.382 -36.073,-81.455 -81.455,-81.455 z m 0,139.637 c -32.582,0 -58.182,-25.6 -58.182,-58.182 0,-32.582 25.6,-58.182 58.182,-58.182 32.582,0 58.182,25.6 58.182,58.182 0,32.582 -25.6,58.182 -58.182,58.182 z"
     style="fill:#ffcb5b"
     inkscape:connector-curvature="0" /><path
     id="path76"
     d="m 360.727,487.564 v 0 c 45.382,1.164 81.455,-36.073 81.455,-80.291 h -1.164 c -5.818,0 -10.473,4.655 -11.636,10.473 -2.327,16.291 -10.473,31.418 -22.109,41.891 -9.309,9.309 -22.109,15.127 -36.073,17.455 -5.818,-10e-4 -10.473,4.653 -10.473,10.472 z"
     style="fill:#f6b545"
     inkscape:connector-curvature="0" /><path
     id="path78"
     d="m 360.727,326.982 v 0 c -45.382,-1.164 -81.455,36.073 -81.455,80.291 h 1.164 c 5.818,0 10.473,-4.655 11.636,-10.473 2.327,-16.291 10.473,-31.418 22.109,-41.891 9.309,-9.309 22.109,-15.127 36.073,-17.455 5.819,10e-4 10.473,-4.654 10.473,-10.472 z"
     style="fill:#ffe27a"
     inkscape:connector-curvature="0" /><path
     id="path80"
     d="m 310.691,415.418 c 0,-32.582 25.6,-58.182 58.182,-58.182 13.964,0 26.764,4.655 37.236,13.964 -11.636,-13.964 -26.764,-22.109 -45.382,-22.109 -32.582,0 -58.182,25.6 -58.182,58.182 0,18.618 8.145,33.745 20.945,44.218 -8.145,-9.309 -12.799,-22.109 -12.799,-36.073 z"
     style="fill:#f19920"
     inkscape:connector-curvature="0" /><path
     id="path82"
     d="m 395.636,443.345 c -1.164,0 -2.327,0 -3.491,-1.164 -2.327,-2.327 -2.327,-5.818 0,-8.145 6.982,-6.982 10.473,-17.455 10.473,-26.764 0,-3.491 2.327,-5.818 5.818,-5.818 3.491,0 5.818,2.327 5.818,5.818 0,12.8 -4.655,25.6 -12.8,34.909 -2.327,1.164 -4.654,1.164 -5.818,1.164 z"
     style="fill:#ffcb5b"
     inkscape:connector-curvature="0" /><path
     id="path84"
     d="m 360.727,442.182 c -6.982,0 -11.636,-4.655 -11.636,-11.636 V 384 c 0,-6.982 4.655,-11.636 11.636,-11.636 6.982,0 11.636,4.655 11.636,11.636 v 46.545 c 10e-4,6.982 -4.654,11.637 -11.636,11.637 z"
     style="fill:#f19920"
     inkscape:connector-curvature="0" /></g>
<g
   id="g86"
   transform="translate(-51.535437,-8.5605394)">
</g>
<g
   id="g88"
   transform="translate(-51.535437,-8.5605394)">
</g>
<g
   id="g90"
   transform="translate(-51.535437,-8.5605394)">
</g>
<g
   id="g92"
   transform="translate(-51.535437,-8.5605394)">
</g>
<g
   id="g94"
   transform="translate(-51.535437,-8.5605394)">
</g>
<g
   id="g96"
   transform="translate(-51.535437,-8.5605394)">
</g>
<g
   id="g98"
   transform="translate(-51.535437,-8.5605394)">
</g>
<g
   id="g100"
   transform="translate(-51.535437,-8.5605394)">
</g>
<g
   id="g102"
   transform="translate(-51.535437,-8.5605394)">
</g>
<g
   id="g104"
   transform="translate(-51.535437,-8.5605394)">
</g>
<g
   id="g106"
   transform="translate(-51.535437,-8.5605394)">
</g>
<g
   id="g108"
   transform="translate(-51.535437,-8.5605394)">
</g>
<g
   id="g110"
   transform="translate(-51.535437,-8.5605394)">
</g>
<g
   id="g112"
   transform="translate(-51.535437,-8.5605394)">
</g>
<g
   id="g114"
   transform="translate(-51.535437,-8.5605394)">
</g>
</svg>