<?xml version="1.0" encoding="UTF-8" standalone="no"?>
<svg
   xmlns:dc="http://purl.org/dc/elements/1.1/"
   xmlns:cc="http://creativecommons.org/ns#"
   xmlns:rdf="http://www.w3.org/1999/02/22-rdf-syntax-ns#"
   xmlns:svg="http://www.w3.org/2000/svg"
   xmlns="http://www.w3.org/2000/svg"
   xmlns:sodipodi="http://sodipodi.sourceforge.net/DTD/sodipodi-0.dtd"
   xmlns:inkscape="http://www.inkscape.org/namespaces/inkscape"
   version="1.1"
   viewBox="0 0 36.41761 36.774334"
   xml:space="preserve"
   id="svg43"
   sodipodi:docname="hero-girl.svg"
   width="36.41761"
   height="36.774334"
   inkscape:version="0.92.3 (2405546, 2018-03-11)"><metadata
     id="metadata49"><rdf:RDF><cc:Work
         rdf:about=""><dc:format>image/svg+xml</dc:format><dc:type
           rdf:resource="http://purl.org/dc/dcmitype/StillImage" /></cc:Work></rdf:RDF></metadata><defs
     id="defs47" /><sodipodi:namedview
     pagecolor="#ffffff"
     bordercolor="#666666"
     borderopacity="1"
     objecttolerance="10"
     gridtolerance="10"
     guidetolerance="10"
     inkscape:pageopacity="0"
     inkscape:pageshadow="2"
     inkscape:window-width="1440"
     inkscape:window-height="858"
     id="namedview45"
     showgrid="false"
     inkscape:zoom="4.9166667"
     inkscape:cx="18.208799"
     inkscape:cy="18.384568"
     inkscape:window-x="-11"
     inkscape:window-y="-11"
     inkscape:window-maximized="1"
     inkscape:current-layer="svg43" /><g
     id="Icons"
     transform="translate(-5.7912008,-5.6102331)"><g
       id="g40"><path
         d="m 15.65044,27.70062 c 0,0 1.15821,-1.035 0.67752,-3.57471 -0.48069,-2.53971 -2.31221,-8.86247 0.41915,-13.11008 2.73136,-4.24761 5.91435,-3.75344 8.82364,-3.75344 2.90929,0 6.76584,3.32083 6.98839,7.70647 0.22255,4.38564 -0.04758,6.14265 -0.58044,7.69153 -0.53286,1.54888 -1.06878,3.54834 -0.37188,5.04023 0.69691,1.49189 -15.95638,0 -15.95638,0 z"
         style="fill:#464747"
         id="path2"
         inkscape:connector-curvature="0" /><path
         d="m 27.77181,25.80694 0.16729,0.73518 5.72744,1.68242 c 3.10513,0.91197 5.55338,3.0949 6.60683,5.89059 l 1.53545,4.0751 c 0,0 -16.02392,8.57124 -35.61763,-0.03261 l 1.53545,-4.0751 c 1.05345,-2.79558 3.5017,-4.97849 6.60682,-5.89059 l 5.72744,-1.6823 0.29129,-0.67019"
         style="fill:#6352c1"
         id="path4"
         inkscape:connector-curvature="0" /><path
         d="m 20.36259,25.51649 c 0.01253,0.0097 -0.30169,0.99313 -0.30169,0.99313 0,0 1.34229,4.37908 3.65989,4.81473 2.3176,0.43565 4.21831,-4.78223 4.21831,-4.78223 l -0.35489,-1.15411 z"
         style="fill:#ddbea8"
         id="path6"
         inkscape:connector-curvature="0" /><path
         d="m 8.93349,31.88847 c 0,0 13.26523,11.99617 29.75775,0 0,0 1.35696,1.62906 2.23727,3.96541 0.88031,2.33635 0.88031,2.33635 0.88031,2.33635 0,0 -12.5981,5.76588 -23.88462,3.35005 C 6.63768,39.12445 6.27774,37.92791 6.27774,37.92791 Z"
         style="fill:#4b0082"
         id="path8"
         inkscape:connector-curvature="0" /><path
         d="m 18.23645,14.96886 c -1.25564,2.93818 -0.3014,6.50406 0.61519,8.39993 0.28876,0.60268 0.62782,1.16769 1.0422,1.64487 h 0.01251 c 0.50221,0.64034 1.15518,1.14255 1.94616,1.43143 0.57765,0.21345 1.24301,0.35157 1.98382,0.30128 0,0 0.01263,0.01251 0.01263,0 h 0.13181 c 0.7408,0.05029 1.40628,-0.08784 1.98382,-0.30128 0.79109,-0.28888 1.44394,-0.79109 1.94615,-1.43143 h 0.01263 c 0.41426,-0.47718 0.75332,-1.0422 1.04208,-1.64487 0.91659,-1.89586 1.87083,-5.46175 0.6153,-8.39993"
         style="fill:#f9d9c0"
         id="path10"
         inkscape:connector-curvature="0" /><path
         d="m 15.57763,14.1447 c -0.29795,-0.12515 -1.13417,-5.2878 -1.02509,-7.94183 0,0 1.08422,4.90606 1.77542,5.57682 l 7.61515,2.43218 7.61515,-2.58282 c 0.6912,-0.67076 1.85384,-5.61907 1.85384,-5.61907 0.10907,2.65414 -0.72714,7.81677 -1.02509,7.94183 l -5.56233,1.90861 -2.82462,0.87055 -5.76361,-1.7621 -2.66193,-0.81612"
         style="fill:#ffc601"
         id="path12"
         inkscape:connector-curvature="0" /><path
         d="m 27.77181,25.80694 0.16729,0.73518 5.72744,1.68242 c 3.10513,0.91197 5.55338,3.0949 6.60683,5.89059 l 1.53545,4.0751 c 0,0 -16.02392,8.57124 -35.61763,-0.03261 l 1.53545,-4.0751 c 1.05345,-2.79558 3.5017,-4.97849 6.60682,-5.89059 l 5.72744,-1.6823 0.29129,-0.67019"
         style="fill:none;stroke:#30302f;stroke-width:0.80000001;stroke-linecap:round;stroke-linejoin:round;stroke-miterlimit:10"
         id="path14"
         inkscape:connector-curvature="0" /><path
         d="m 16.32796,11.77969 c 0.66537,-1.40628 1.72008,-2.52383 3.06356,-3.41524 1.46909,-0.91659 3.05116,-1.2305 4.74621,-1.21787 1.35599,0.03766 2.67444,0.23848 3.8798,0.8663 1.56944,0.81612 2.74976,2.00896 3.54074,3.61617"
         style="fill:none;stroke:#30302f;stroke-width:0.80000001;stroke-linecap:round;stroke-linejoin:round;stroke-miterlimit:10"
         id="path16"
         inkscape:connector-curvature="0" /><path
         d="m 32.38701,13.95181 c 0.13812,0.66548 0.22596,1.34359 0.27625,2.02159 0.1255,2.17212 -0.11309,4.28154 -0.66548,6.36582 0,0 -1.56956,3.8924 -0.12561,5.3614"
         style="fill:none;stroke:#30302f;stroke-width:0.80000001;stroke-linecap:round;stroke-linejoin:round;stroke-miterlimit:10"
         id="path18"
         inkscape:connector-curvature="0" /><path
         d="m 15.57453,14.1402 c 0,0 0,0 0,0.01254 -0.23859,1.19284 -0.31391,2.39819 -0.25111,3.61617 0.06281,1.54429 0.66548,4.58294 0.678,4.60797 0,0 1.18032,4.26903 -0.52734,5.47438 l -0.01253,0.01263"
         style="fill:none;stroke:#30302f;stroke-width:0.80000001;stroke-linecap:round;stroke-linejoin:round;stroke-miterlimit:10"
         id="path20"
         inkscape:connector-curvature="0" /><path
         d="m 16.32796,11.77969 7.61515,2.43218 7.61515,-2.58282 c 0.6912,-0.67076 1.85384,-5.61907 1.85384,-5.61907 0.10907,2.65414 -0.72714,7.81677 -1.02509,7.94183 l -5.56233,1.90861 -2.82462,0.87055 -5.76361,-1.7621 -2.66193,-0.81612"
         style="fill:#00ffff;stroke:#30302f;stroke-width:0.80000001;stroke-linecap:round;stroke-linejoin:round;stroke-miterlimit:10"
         id="path22"
         inkscape:connector-curvature="0" /><path
         d="m 15.57763,14.1447 c -0.29795,-0.12515 -1.13417,-5.2878 -1.02509,-7.94183 0,0 1.08422,4.90606 1.77542,5.57682"
         style="fill:#00ffff;stroke:#30302f;stroke-width:0.80000001;stroke-linecap:round;stroke-linejoin:round;stroke-miterlimit:10"
         id="path24"
         inkscape:connector-curvature="0" /><path
         d="m 18.23645,14.96886 c -1.25564,2.93818 -0.3014,6.50406 0.61519,8.39993 0.28876,0.60268 0.62782,1.16769 1.0422,1.64487 0,0 0.66314,0.90809 1.95867,1.43143 0.57765,0.21345 1.24301,0.35157 1.98382,0.30128 0,0 0.01263,0.01251 0.01263,0 h 0.13181 c 0.7408,0.05029 1.40628,-0.08784 1.98382,-0.30128 0.79109,-0.28888 1.44394,-0.79109 1.94615,-1.43143 h 0.01263 c 0.41426,-0.47718 0.75332,-1.0422 1.04208,-1.64487 0.91659,-1.89586 1.87083,-5.46175 0.6153,-8.39993"
         style="fill:none;stroke:#30302f;stroke-width:0.80000001;stroke-linecap:round;stroke-linejoin:round;stroke-miterlimit:10"
         id="path26"
         inkscape:connector-curvature="0" /><path
         d="m 39.0415,31.88847 c 0,0 -14.00716,11.85031 -30.10801,0"
         style="fill:none;stroke:#30302f;stroke-width:0.80000001;stroke-linecap:round;stroke-linejoin:round;stroke-miterlimit:10"
         id="path28"
         inkscape:connector-curvature="0" /><path
         d="m 27.9391,26.54211 c 0,0 -3.44085,10.87551 -7.8782,-0.03249"
         style="fill:none;stroke:#30302f;stroke-width:0.80000001;stroke-linecap:round;stroke-linejoin:round;stroke-miterlimit:10"
         id="path30"
         inkscape:connector-curvature="0" /><path
         d="m 25.77238,23.06544 c -0.35525,0.72025 -0.96619,1.05115 -1.78208,1.04197 -0.7989,-0.0091 -1.3886,-0.34985 -1.73259,-1.03901 0.37155,-0.19781 0.69809,-0.44639 1.06539,-0.54834 0.46491,-0.12917 0.97193,-0.16396 1.43971,0.01895 0.33812,0.13212 0.64858,0.33492 1.00957,0.52643 z"
         style="fill:#30302f"
         id="path32"
         inkscape:connector-curvature="0" /><path
         d="m 23.22081,20.95039 c 0.13352,0.02584 0.26752,0.0496 0.40186,0.07142 0.1543,0.02503 0.31057,0.04763 0.46741,0.03984 0.24158,-0.01194 0.482,-0.07647 0.71922,-0.12081"
         style="fill:none;stroke:#30302f;stroke-width:0.80000001;stroke-linecap:round;stroke-linejoin:round;stroke-miterlimit:10"
         id="path34"
         inkscape:connector-curvature="0" /><path
         d="m 25.81739,17.92151 c 0,0 1.69505,-0.45938 2.18442,0"
         style="fill:none;stroke:#30302f;stroke-width:0.80000001;stroke-linecap:round;stroke-linejoin:round;stroke-miterlimit:10"
         id="path36"
         inkscape:connector-curvature="0" /><path
         d="m 22.21258,17.92151 c 0,0 -1.69493,-0.45938 -2.18429,0"
         style="fill:none;stroke:#30302f;stroke-width:0.80000001;stroke-linecap:round;stroke-linejoin:round;stroke-miterlimit:10"
         id="path38"
         inkscape:connector-curvature="0" /></g></g><g
     id="Page-1"
     style="fill:#00ffff;fill-rule:evenodd;stroke:none;stroke-width:1"
     transform="matrix(0.42033898,0,0,0.41016949,12.98846,27.101632)"><g
       id="Core"
       transform="translate(-212,-422)"
       style="fill:#00ffff"><g
         id="shopping-cart"
         transform="translate(212,422)"
         style="fill:#00ffff"><path
           d="m 6,16 c -1.1,0 -2,0.9 -2,2 0,1.1 0.9,2 2,2 1.1,0 2,-0.9 2,-2 C 8,16.9 7.1,16 6,16 Z M 0,0 V 2 H 2 L 5.6,9.6 4.2,12 C 4.1,12.3 4,12.7 4,13 c 0,1.1 0.9,2 2,2 H 18 V 13 H 6.4 C 6.3,13 6.2,12.9 6.2,12.8 V 12.7 L 7.1,11 h 7.4 c 0.8,0 1.4,-0.4 1.7,-1 L 19.8,3.5 C 20,3.3 20,3.2 20,3 20,2.4 19.6,2 19,2 H 4.2 L 3.3,0 Z m 16,16 c -1.1,0 -2,0.9 -2,2 0,1.1 0.9,2 2,2 1.1,0 2,-0.9 2,-2 0,-1.1 -0.9,-2 -2,-2 z"
           id="Shape"
           inkscape:connector-curvature="0"
           style="fill:#00ffff" /></g></g></g></svg>