<?xml version="1.0" encoding="UTF-8" standalone="no"?>
<svg
   xmlns:dc="http://purl.org/dc/elements/1.1/"
   xmlns:cc="http://creativecommons.org/ns#"
   xmlns:rdf="http://www.w3.org/1999/02/22-rdf-syntax-ns#"
   xmlns:svg="http://www.w3.org/2000/svg"
   xmlns="http://www.w3.org/2000/svg"
   xmlns:sodipodi="http://sodipodi.sourceforge.net/DTD/sodipodi-0.dtd"
   xmlns:inkscape="http://www.inkscape.org/namespaces/inkscape"
   version="1.1"
   viewBox="0 0 36.727379 34.488586"
   xml:space="preserve"
   id="svg59"
   sodipodi:docname="hero-guy.svg"
   width="36.727379"
   height="34.488586"
   inkscape:version="0.92.3 (2405546, 2018-03-11)"><metadata
     id="metadata65"><rdf:RDF><cc:Work
         rdf:about=""><dc:format>image/svg+xml</dc:format><dc:type
           rdf:resource="http://purl.org/dc/dcmitype/StillImage" /></cc:Work></rdf:RDF></metadata><defs
     id="defs63" /><sodipodi:namedview
     pagecolor="#ffffff"
     bordercolor="#666666"
     borderopacity="1"
     objecttolerance="10"
     gridtolerance="10"
     guidetolerance="10"
     inkscape:pageopacity="0"
     inkscape:pageshadow="2"
     inkscape:window-width="1440"
     inkscape:window-height="858"
     id="namedview61"
     showgrid="false"
     inkscape:zoom="4.9166667"
     inkscape:cx="17.956881"
     inkscape:cy="17.244348"
     inkscape:window-x="-11"
     inkscape:window-y="-11"
     inkscape:window-maximized="1"
     inkscape:current-layer="Icons" /><g
     id="Icons"
     transform="translate(-5.6363397,-6.7557622)"><g
       id="g56"><path
         d="m 20.0276,27.36802 -5.77602,1.53172 c -3.13141,0.83037 -5.60037,2.81773 -6.66272,5.36297 L 6.04029,37.9729 c 0,0 17.2137,6.44078 35.91942,0.02954 l -1.54845,-3.71008 c -1.06235,-2.54525 -3.53142,-4.5326 -6.66283,-5.36297 l -5.77591,-1.53172"
         style="fill:#4b0082"
         id="path2"
         inkscape:connector-curvature="0" /><path
         d="m 20.15547,25.88524 -0.12787,1.48278 -5.77602,1.53172 c -3.13141,0.83037 -5.60037,2.81773 -6.66272,5.36297 L 6.04029,37.9729 c 0,0 17.2137,6.44078 35.91942,0.02954 l -1.54845,-3.71008 c -1.06235,-2.54525 -3.53142,-4.5326 -6.66283,-5.36297 l -5.77591,-1.53172 -0.11656,-1.43593"
         style="fill:none;stroke:#30302f;stroke-width:0.80000001;stroke-linecap:round;stroke-linejoin:round;stroke-miterlimit:10"
         id="path4"
         inkscape:connector-curvature="0" /><path
         d="m 19.74242,27.39767 c 0,0 -1.77066,1.833 -2.14488,3.67374 -0.37422,1.84074 -0.12651,3.75327 2.31821,4.70953 2.44472,0.95626 4.02838,0.9785 4.02838,0.9785 0,0 3.53165,-0.48925 5.09927,-1.80133 1.56761,-1.31208 1.2381,-2.9892 1.00303,-3.86953 -0.23507,-0.88033 -2.07391,-3.69091 -2.07391,-3.69091 -2.42181,3.52765 -5.16461,3.53418 -8.2301,0 z"
         style="fill:#f43735"
         id="path6"
         inkscape:connector-curvature="0" /><path
         d="m 21.7981,7.15575 c 0,0 -4.36877,1.37509 -4.88638,4.9218 -0.51761,3.54671 -0.27273,4.17268 -0.24831,4.87173 0.02441,0.69905 0.3477,1.53823 0.63193,2.66169 0.28424,1.12346 0.28488,1.86157 0.66843,2.83344 0.38355,0.97187 1.83859,4.59286 5.79884,4.95328 0,0 4.29156,-0.27812 5.63221,-3.57059 1.34065,-3.29247 0.97423,-3.62187 1.40585,-5.12307 0.43162,-1.50121 0.82222,-1.91223 0.59934,-5.05509 -0.22288,-3.14286 -1.4628,-5.71256 -5.27255,-6.49318 0,0 0.1164,3.39837 -2.17143,3.60817 0,-10e-6 -2.46739,-0.4106 -2.15793,-3.60818 z"
         style="fill:#4b0082"
         id="path8"
         inkscape:connector-curvature="0" /><path
         d="m 19.74242,27.39769 c 0,0 -2.09779,2.65484 -2.30993,5.14127 0,0 -3.30484,-0.89899 -7.1079,2.04669 -3.80306,2.94569 -4.2843,3.38726 -4.2843,3.38726 0,0 0.65681,-2.50594 1.86858,-4.60816 1.21177,-2.10222 2.89425,-3.51248 5.71551,-4.27966 2.82126,-0.76718 6.11804,-1.6874 6.11804,-1.6874 z"
         style="fill:#f43735"
         id="path10"
         inkscape:connector-curvature="0" /><path
         d="m 28.28937,27.39769 c 0,0 2.09779,2.65484 2.30993,5.14127 0,0 3.30485,-0.89899 7.1079,2.04669 3.80306,2.94569 4.2843,3.38726 4.2843,3.38726 0,0 -0.65681,-2.50594 -1.86858,-4.60816 -1.21177,-2.10222 -2.89425,-3.51248 -5.71551,-4.27966 -2.82125,-0.76718 -6.11804,-1.6874 -6.11804,-1.6874 z"
         style="fill:#f43735"
         id="path12"
         inkscape:connector-curvature="0" /><path
         d="m 20.15547,25.88524 -0.23972,1.51244 c 0,0 1.71048,2.81247 4.03658,2.64063 2.32611,-0.17184 4.02018,-2.64063 4.02018,-2.64063 l -0.25896,-1.43967 c 0,0 -1.86052,1.51509 -3.78488,1.41001 -1.92435,-0.10507 -3.7732,-1.48278 -3.7732,-1.48278 z"
         style="fill:#f9d9c0"
         id="path14"
         inkscape:connector-curvature="0" /><path
         d="m 17.55282,14.83846 c 0,0 -0.83431,2.12551 -0.865,2.80987 l 0.76751,2.4795 6.63977,3.21782 6.18032,-3.22642 c 0,0 1.20226,-2.54907 1.03648,-2.58931 -0.16578,-0.04024 0.04496,-1.91804 -1.03512,-2.69147 L 24.0951,17.5537 Z"
         style="fill:#ffc601"
         id="path16"
         inkscape:connector-curvature="0" /><polygon
         points="25.12225,18.92985 25.12225,19.30873 29.0434,19.30873 29.0434,17.23918 "
         style="fill:#ffffff"
         id="polygon18" /><polygon
         points="23.08192,18.92985 23.08192,19.30873 19.16064,19.30873 19.16064,17.23918 "
         style="fill:#ffffff"
         id="polygon20" /><path
         d="m 20.0276,27.36802 -5.77602,1.53172 c -3.13141,0.83037 -5.60037,2.81773 -6.66272,5.36297 L 6.04029,37.9729 c 0,0 17.2137,6.44078 35.91942,0.02954 l -1.54845,-3.71008 c -1.06235,-2.54525 -3.53142,-4.5326 -6.66283,-5.36297 l -5.77591,-1.53172"
         style="fill:none;stroke:#30302f;stroke-width:0.80000001;stroke-linecap:round;stroke-linejoin:round;stroke-miterlimit:10"
         id="path22"
         inkscape:connector-curvature="0" /><path
         d="m 27.97252,27.39769 c 0,0 -3.62086,5.96114 -7.94492,-0.02966"
         style="fill:none;stroke:#30302f;stroke-width:0.80000001;stroke-linecap:round;stroke-linejoin:round;stroke-miterlimit:10"
         id="path24"
         inkscape:connector-curvature="0" /><path
         d="m 20.15547,25.88524 -0.12787,1.48278 -5.77602,1.53172 c -3.13141,0.83037 -5.60037,2.81773 -6.66272,5.36297 L 6.04029,37.9729 c 0,0 17.2137,6.44078 35.91942,0.02954 l -1.54845,-3.71008 c -1.06235,-2.54525 -3.53142,-4.5326 -6.66283,-5.36297 l -5.77591,-1.53172 -0.11656,-1.43593"
         style="fill:#9932cc;stroke:#30302f;stroke-width:0.80000001;stroke-linecap:round;stroke-linejoin:round;stroke-miterlimit:10"
         id="path26"
         inkscape:connector-curvature="0" /><path
         d="m 30.04827,22.10696 c -0.75951,3.03724 -3.21173,5.26107 -6.1196,5.26107 -2.85512,0 -5.26672,-2.3292 -6.07228,-5.28207 l -0.4344,-2.12088 6.6731,3.38058 6.45555,-3.3701"
         style="fill:#4b0082;stroke:#30302f;stroke-width:0.80000001;stroke-linecap:round;stroke-linejoin:round;stroke-miterlimit:10"
         id="path28"
         inkscape:connector-curvature="0" /><polyline
         points="    30.04643,22.10153 30.50334,20.1735 30.54788,19.97292 31.3119,17.52993   "
         style="fill:none;stroke:#30302f;stroke-width:0.80000001;stroke-linecap:round;stroke-linejoin:round;stroke-miterlimit:10"
         id="polyline30" /><g
         id="g34"><path
           d="m 31.40607,14.15535 c 0.05574,0.99183 0.32938,2.24899 -0.09418,3.37458 0,0 -0.13987,-2.05949 -0.96459,-2.49412 l -6.2522,2.51789 -6.36381,-2.51789 c -0.82472,0.43463 -1.06789,2.80838 -1.06789,2.80838 -0.41236,-1.08104 -0.04651,-2.59672 0.0091,-3.57747 0,0 0,-0.02227 0,-0.05563"
           style="fill:none;stroke:#30302f;stroke-width:0.80000001;stroke-linecap:round;stroke-linejoin:round;stroke-miterlimit:10"
           id="path32"
           inkscape:connector-curvature="0" /></g><path
         d="m 31.40272,14.20936 c 0,0 0.38939,-5.71186 -5.27526,-7.05361 0,0 0.38812,3.02523 -2.03237,3.60817"
         style="fill:none;stroke:#30302f;stroke-width:0.80000001;stroke-linecap:round;stroke-linejoin:round;stroke-miterlimit:10"
         id="path36"
         inkscape:connector-curvature="0" /><path
         d="m 16.6701,14.30157 c 0,0 -0.41109,-5.80407 5.25356,-7.14582 0,0 -0.38812,3.02523 2.03236,3.60817"
         style="fill:none;stroke:#30302f;stroke-width:0.80000001;stroke-linecap:round;stroke-linejoin:round;stroke-miterlimit:10"
         id="path38"
         inkscape:connector-curvature="0" /><polygon
         points="25.12225,18.92985 25.12225,19.30873 29.0434,19.30873 29.0434,17.23918 "
         style="fill:none;stroke:#30302f;stroke-width:0.80000001;stroke-linecap:round;stroke-linejoin:round;stroke-miterlimit:10"
         id="polygon40" /><polygon
         points="23.08192,18.92985 23.08192,19.30873 19.16064,19.30873 19.16064,17.23918 "
         style="fill:none;stroke:#30302f;stroke-width:0.80000001;stroke-linecap:round;stroke-linejoin:round;stroke-miterlimit:10"
         id="polygon42" /><path
         d="m 27.97252,27.39769 c 0,0 7.3104,7.77053 -4.02018,9.2607"
         style="fill:none;stroke:#30302f;stroke-width:0.80000001;stroke-linecap:round;stroke-linejoin:round;stroke-miterlimit:10"
         id="path44"
         inkscape:connector-curvature="0" /><path
         d="m 19.74242,27.39769 c 0,0 -7.31051,7.77053 4.02018,9.2607"
         style="fill:none;stroke:#30302f;stroke-width:0.80000001;stroke-linecap:round;stroke-linejoin:round;stroke-miterlimit:10"
         id="path46"
         inkscape:connector-curvature="0" /><path
         d="m 41.95971,38.00245 c 0,0 -6.24551,-6.3458 -11.68258,-5.42195"
         style="fill:none;stroke:#30302f;stroke-width:0.80000001;stroke-linecap:round;stroke-linejoin:round;stroke-miterlimit:10"
         id="path48"
         inkscape:connector-curvature="0" /><path
         d="M 17.4325,32.53896 C 11.95342,31.82077 6.04029,38.00246 6.04029,38.00246"
         style="fill:none;stroke:#30302f;stroke-width:0.80000001;stroke-linecap:round;stroke-linejoin:round;stroke-miterlimit:10"
         id="path50"
         inkscape:connector-curvature="0" /><line
         style="fill:none;stroke:#30302f;stroke-width:0.80000001;stroke-linecap:round;stroke-linejoin:round;stroke-miterlimit:10"
         x1="17.422001"
         x2="16.66341"
         y1="19.965071"
         y2="17.844191"
         id="line52" /><polyline
         points="    23.29554,24.34914 24.08113,24.77223 25.00684,24.34914   "
         style="fill:#00ffff;stroke:#2f3030;stroke-width:0.80000001;stroke-linecap:round;stroke-linejoin:round;stroke-miterlimit:10;stroke-opacity:1"
         id="polyline54" /></g><g
       id="Page-1"
       style="fill:#00ffff;fill-rule:evenodd;stroke:none;stroke-width:1"
       transform="matrix(0.42033898,0,0,0.41016949,18.778193,32.146526)"><g
         id="Core"
         transform="translate(-212,-422)"
         style="fill:#00ffff"><g
           id="shopping-cart"
           transform="translate(212,422)"
           style="fill:#00ffff"><path
             d="m 6,16 c -1.1,0 -2,0.9 -2,2 0,1.1 0.9,2 2,2 1.1,0 2,-0.9 2,-2 C 8,16.9 7.1,16 6,16 Z M 0,0 V 2 H 2 L 5.6,9.6 4.2,12 C 4.1,12.3 4,12.7 4,13 c 0,1.1 0.9,2 2,2 H 18 V 13 H 6.4 C 6.3,13 6.2,12.9 6.2,12.8 V 12.7 L 7.1,11 h 7.4 c 0.8,0 1.4,-0.4 1.7,-1 L 19.8,3.5 C 20,3.3 20,3.2 20,3 20,2.4 19.6,2 19,2 H 4.2 L 3.3,0 Z m 16,16 c -1.1,0 -2,0.9 -2,2 0,1.1 0.9,2 2,2 1.1,0 2,-0.9 2,-2 0,-1.1 -0.9,-2 -2,-2 z"
             id="Shape"
             inkscape:connector-curvature="0"
             style="fill:#00ffff" /></g></g></g></g></svg>