<?xml version="1.0" encoding="UTF-8" standalone="no"?>
<svg
   xmlns:dc="http://purl.org/dc/elements/1.1/"
   xmlns:cc="http://creativecommons.org/ns#"
   xmlns:rdf="http://www.w3.org/1999/02/22-rdf-syntax-ns#"
   xmlns:svg="http://www.w3.org/2000/svg"
   xmlns="http://www.w3.org/2000/svg"
   xmlns:sodipodi="http://sodipodi.sourceforge.net/DTD/sodipodi-0.dtd"
   xmlns:inkscape="http://www.inkscape.org/namespaces/inkscape"
   height="512"
   viewBox="0 0 64 64"
   width="512"
   version="1.1"
   id="svg35"
   sodipodi:docname="calendar-15-free-trial.svg"
   inkscape:version="0.92.3 (2405546, 2018-03-11)">
  <metadata
     id="metadata41">
    <rdf:RDF>
      <cc:Work
         rdf:about="">
        <dc:format>image/svg+xml</dc:format>
        <dc:type
           rdf:resource="http://purl.org/dc/dcmitype/StillImage" />
        <dc:title></dc:title>
      </cc:Work>
    </rdf:RDF>
  </metadata>
  <defs
     id="defs39" />
  <sodipodi:namedview
     pagecolor="#ffffff"
     bordercolor="#666666"
     borderopacity="1"
     objecttolerance="10"
     gridtolerance="10"
     guidetolerance="10"
     inkscape:pageopacity="0"
     inkscape:pageshadow="2"
     inkscape:window-width="1440"
     inkscape:window-height="858"
     id="namedview37"
     showgrid="false"
     inkscape:zoom="0.921875"
     inkscape:cx="268.07841"
     inkscape:cy="230.37832"
     inkscape:window-x="-11"
     inkscape:window-y="-11"
     inkscape:window-maximized="1"
     inkscape:current-layer="Calendar" />
  <g
     id="Calendar">
    <path
       inkscape:connector-curvature="0"
       style="fill:#ffcd00;stroke-width:1"
       d="m -1.7836615,73.832949 v 20 H -5.783661 v 4 H 8.2163385 v -4 h -4 v -24 h -7 l -4.9999995,4 2,3 z"
       id="path22" />
    <path
       d="m59 17v42a2.006 2.006 0 0 1 -2 2h-50a2.006 2.006 0 0 1 -2-2v-42z"
       id="path2"
       fill="#57a4ff" />
    <path
       d="m57 17v24a20.059 20.059 0 0 1 -20 20h20a2.006 2.006 0 0 0 2-2v-42z"
       fill="#2488ff"
       id="path4" />
    <path
       d="m59 9v8h-54v-8a2.006 2.006 0 0 1 2-2h50a2.006 2.006 0 0 1 2 2z"
       fill="#ed1c24"
       id="path6"
       style="fill:#9400d3" />
    <path
       d="m57 7h-2a2.006 2.006 0 0 1 2 2v8h2v-8a2.006 2.006 0 0 0 -2-2z"
       fill="#d80027"
       id="path8"
       style="fill:#4b0082" />
    <path
       d="m52 5v4a2 2 0 0 1 -4 0v-4a2 2 0 0 1 4 0z"
       fill="#ff9811"
       id="path10"
       style="fill:#00ffff" />
    <path
       d="m50.819 3.181a1.974 1.974 0 0 1 .181.819v4a2.006 2.006 0 0 1 -2 2 1.974 1.974 0 0 1 -.819-.181 2 2 0 0 0 3.819-.819v-4a2 2 0 0 0 -1.181-1.819z"
       fill="#ee8700"
       id="path12"
       style="fill:#00ffff" />
    <g
       fill="#ff9811"
       id="g20"
       style="fill:#00ffff">
      <path
         d="m40 5v4a2 2 0 0 1 -4 0v-4a2 2 0 0 1 4 0z"
         id="path14"
         style="fill:#00ffff" />
      <path
         d="m16 5v4a2 2 0 0 1 -4 0v-4a2 2 0 0 1 4 0z"
         id="path16"
         style="fill:#00ffff" />
      <path
         d="m28 5v4a2 2 0 0 1 -4 0v-4a2 2 0 0 1 4 0z"
         id="path18"
         style="fill:#00ffff" />
    </g>
    <path
       d="m38.819 3.181a1.974 1.974 0 0 1 .181.819v4a2.006 2.006 0 0 1 -2 2 1.974 1.974 0 0 1 -.819-.181 2 2 0 0 0 3.819-.819v-4a2 2 0 0 0 -1.181-1.819z"
       fill="#ee8700"
       id="path24"
       style="fill:#008b8b" />
    <path
       d="m26.819 3.181a1.974 1.974 0 0 1 .181.819v4a2.006 2.006 0 0 1 -2 2 1.974 1.974 0 0 1 -.819-.181 2 2 0 0 0 3.819-.819v-4a2 2 0 0 0 -1.181-1.819z"
       fill="#ee8700"
       id="path26"
       style="fill:#008b8b" />
    <path
       d="m14.819 3.181a1.974 1.974 0 0 1 .181.819v4a2.006 2.006 0 0 1 -2 2 1.974 1.974 0 0 1 -.819-.181 2 2 0 0 0 3.819-.819v-4a2 2 0 0 0 -1.181-1.819z"
       fill="#ee8700"
       id="path28"
       style="fill:#00ced1" />
    <path
       d="m57 6h-4v-1a3 3 0 0 0 -6 0v1h-6v-1a3 3 0 0 0 -6 0v1h-6v-1a3 3 0 0 0 -6 0v1h-6v-1a3 3 0 0 0 -6 0v1h-4a3.009 3.009 0 0 0 -3 3v50a3.009 3.009 0 0 0 3 3h50a3.009 3.009 0 0 0 3-3v-50a3.009 3.009 0 0 0 -3-3zm-8-1a1 1 0 0 1 2 0v4a1 1 0 0 1 -2 0zm-12 0a1 1 0 0 1 2 0v4a1 1 0 0 1 -2 0zm-12 0a1 1 0 0 1 2 0v4a1 1 0 0 1 -2 0zm-12 0a1 1 0 0 1 2 0v4a1 1 0 0 1 -2 0zm45 54a1 1 0 0 1 -1 1h-50a1 1 0 0 1 -1-1v-41h52zm0-43h-52v-7a1 1 0 0 1 1-1h4v1a3 3 0 0 0 6 0v-1h6v1a3 3 0 0 0 6 0v-1h6v1a3 3 0 0 0 6 0v-1h6v1a3 3 0 0 0 6 0v-1h4a1 1 0 0 1 1 1z"
       id="path30"
       fill="#231f20" />
    <path
       d="m -6.611661,77.571949 a 1,1 0 0 0 1.432,0.245 l 2.4,-1.8 v 17 h -3 a 1,1 0 0 0 -1,1 v 4 a 1,1 0 0 0 1,1 h 14 a 1,1 0 0 0 1,-1 v -4 a 1,1 0 0 0 -1,-1 h -3 v -23 a 1,1 0 0 0 -1,-1 h -7 a 1,1 0 0 0 -0.625,0.219 l -5,4 a 1,1 0 0 0 -0.207,1.336 z m 4.183,-6.555 h 5.649 v 23 a 1,1 0 0 0 1,1 h 3 v 2 h -12 v -2 h 3 a 1,1 0 0 0 0.99999998,-1 v -20 a 1,1 0 0 0 -1.59999998,-0.8 l -3.154,2.366 -0.9,-1.358 z"
       id="path32"
       inkscape:connector-curvature="0"
       style="fill:#231f20" />
    <g
       id="Page-1"
       transform="matrix(1.0791648,0,0,1.0122339,31.260594,24.50905)"
       style="fill:#ffcd00;fill-opacity:1;fill-rule:evenodd;stroke:#000000;stroke-width:1;stroke-opacity:1">
      <path
         style="fill:#ffcd00;fill-opacity:1;stroke:#000000;stroke-opacity:1"
         inkscape:connector-curvature="0"
         d="m 18.0245,4.747 c -0.902,0.111 -2.541,0.202 -3.641,0.202 h -4.992 c -1.1,0 -2.156,0.886 -2.347,1.97 l -0.386,2.194 c -0.19,1.083 0.484,1.623 1.499,1.199 0,0 1.6,-0.668 3.115,-0.668 1.211,0 2.344,0.227 3.398,0.682 1.054,0.454 1.978,1.082 2.773,1.883 0.796,0.802 1.42,1.751 1.875,2.849 0.454,1.099 0.681,2.279 0.681,3.541 0,1.83 -0.41,3.496 -1.23,4.998 -0.821,1.502 -2.004,2.694 -3.55,3.578 -1.546,0.883 -3.329,1.325 -5.348,1.325 -2.259,0 -4.093,-0.417 -5.5,-1.25 -1.407,-0.832 -2.404,-1.789 -2.991,-2.868 -0.587,-1.079 -0.88,-2.022 -0.88,-2.83 0,-0.492 0.205,-0.959 0.615,-1.401 0.41,-0.442 0.924,-0.662 1.543,-0.662 1.06,0 1.849,0.612 2.366,1.836 0.505,1.123 1.187,1.997 2.045,2.622 0.858,0.625 1.817,0.937 2.877,0.937 0.972,0 1.824,-0.252 2.556,-0.757 0.732,-0.505 1.297,-1.199 1.695,-2.083 0.397,-0.883 0.596,-1.887 0.596,-3.01 0,-1.211 -0.215,-2.246 -0.644,-3.105 -0.429,-0.858 -1.003,-1.498 -1.722,-1.921 -0.72,-0.423 -1.521,-0.634 -2.405,-0.634 -1.085,0 -1.861,0.132 -2.328,0.397 -0.467,0.265 -1.139,0.729 -2.017,1.392 -0.877,0.662 -1.599,0.994 -2.167,0.994 -0.619,0 -1.168,-0.225 -1.647,-0.673 -0.48,-0.448 -0.72,-0.956 -0.72,-1.524 v -0.063 c 0.115,-0.673 0.364,-2.11 0.554,-3.194 l 0.899,-5.128 c 0.19,-1.084 0.573,-2.814 0.851,-3.844 l 0.479,-0.493 0.48,-0.492 C 5.4335,0.611 7.1745,0.5 8.2745,0.5 h 5.996 c 1.1,0 2.872,0.222 3.938,0.493 0,0 1.015,0.258 1.015,1.76 0,0.656 -0.24,1.186 -0.719,1.59 z"
         id="Fill-1" />
      <g
         id="g890">
        <path
           id="Stroke-3"
           d="m 18.0245,4.747 c -0.902,0.111 -2.541,0.202 -3.641,0.202 h -4.992 c -1.1,0 -2.156,0.886 -2.347,1.97 l -0.386,2.194 c -0.19,1.083 0.484,1.623 1.499,1.199 0,0 1.6,-0.668 3.115,-0.668 1.211,0 2.344,0.227 3.398,0.682 1.054,0.454 1.978,1.082 2.773,1.883 0.796,0.802 1.42,1.751 1.875,2.849 0.454,1.099 0.681,2.279 0.681,3.541 0,1.83 -0.41,3.496 -1.23,4.998 -0.821,1.502 -2.004,2.694 -3.55,3.578 -1.546,0.883 -3.329,1.325 -5.348,1.325 -2.259,0 -4.093,-0.417 -5.5,-1.25 -1.407,-0.832 -2.404,-1.789 -2.991,-2.868 -0.587,-1.079 -0.88,-2.022 -0.88,-2.83 0,-0.492 0.205,-0.959 0.615,-1.401 0.41,-0.442 0.924,-0.662 1.543,-0.662 1.06,0 1.849,0.612 2.366,1.836 0.505,1.123 1.187,1.997 2.045,2.622 0.858,0.625 1.817,0.937 2.877,0.937 0.972,0 1.824,-0.252 2.556,-0.757 0.732,-0.505 1.297,-1.199 1.695,-2.083 0.397,-0.883 0.596,-1.887 0.596,-3.01 0,-1.211 -0.215,-2.246 -0.644,-3.105 -0.429,-0.858 -1.003,-1.498 -1.722,-1.921 -0.72,-0.423 -1.521,-0.634 -2.405,-0.634 -1.085,0 -1.861,0.132 -2.328,0.397 -0.467,0.265 -1.139,0.729 -2.017,1.392 -0.877,0.662 -1.599,0.994 -2.167,0.994 -0.619,0 -1.168,-0.225 -1.647,-0.673 -0.48,-0.448 -0.72,-0.956 -0.72,-1.524 v -0.063 c 0.115,-0.673 0.364,-2.11 0.554,-3.194 l 0.899,-5.128 c 0.19,-1.084 0.573,-2.814 0.851,-3.844 l 0.479,-0.493 0.48,-0.492 C 5.4335,0.611 7.1745,0.5 8.2745,0.5 h 5.996 c 1.1,0 2.872,0.222 3.938,0.493 0,0 1.015,0.258 1.015,1.76 0,0.656 -0.24,1.186 -0.719,1.59 z"
           inkscape:connector-curvature="0"
           style="fill:#ffcd00;fill-opacity:1;stroke:#000000;stroke-opacity:1" />
      </g>
      <path
         style="opacity:0.20376635;fill:#ffcd00;fill-opacity:1;stroke:#000000;stroke-opacity:1"
         inkscape:connector-curvature="0"
         d="m 19.474,18.0427 c -0.062,1.564 -0.435,3.017 -1.143,4.315 -0.772,1.411 -1.902,2.55 -3.36,3.383 -1.462,0.835 -3.177,1.259 -5.1,1.259 -2.158,0 -3.923,-0.396 -5.244,-1.179 C 3.304,25.0377 2.36,24.1377 1.82,23.1437 1.424,22.4157 1.174,21.7577 1.065,21.1757 1.026,21.2997 1,21.4247 1,21.5517 c 0,0.72 0.276,1.592 0.82,2.592 0.54,0.994 1.484,1.894 2.807,2.677 1.321,0.783 3.086,1.179 5.244,1.179 1.923,0 3.638,-0.424 5.1,-1.259 1.458,-0.833 2.588,-1.972 3.36,-3.383 0.775,-1.421 1.169,-3.022 1.169,-4.759 0,-0.188 -0.015,-0.371 -0.026,-0.556"
         id="Fill-5" />
      <path
         style="fill:#fffacd;fill-opacity:1;stroke:#f6f6f6;stroke-linecap:round;stroke-linejoin:round;stroke-dasharray:1, 2, 6, 2, 3;stroke-opacity:1"
         inkscape:connector-curvature="0"
         d="m 7.9196,1.8242 h 8.156"
         id="Stroke-7" />
    </g>
    <g
       style="fill:none;fill-rule:evenodd;stroke:none;stroke-width:1"
       id="number-1"
       transform="matrix(1.1437134,0,0,1.0254392,-0.0492282,21.21989)">
      <g
         transform="translate(9,2)"
         id="Page-1-9">
        <g
           id="g884">
          <g
             id="g887">
            <g
               id="g911">
              <g
                 id="g969">
                <path
                   id="Fill-1-0"
                   d="m 9.1116,27.2244 c -0.127,-0.962 -0.23,-2.648 -0.23,-3.748 v -12.987 c 0,-1.1 -0.742,-1.49 -1.648,-0.866 0,0 -3.641,2.506 -4.736,2.506 -0.523,0 -0.986,-0.209 -1.391,-0.625 -0.404,-0.417 -0.607,-0.9 -0.607,-1.447 0,-0.635 0.2,-1.101 0.598,-1.4 0.398,-0.299 1.101,-0.685 2.109,-1.157 1.506,-0.71 2.71,-1.456 3.612,-2.24 0.902,-0.784 1.702,-1.662 2.399,-2.632 0.697,-0.971 1.151,-1.568 1.362,-1.792 0.212,-0.224 0.61,-0.336 1.195,-0.336 0.66,0 1.189,0.255 1.587,0.765 l 0.398,0.51 c 0.11,0.88 0.199,2.499 0.199,3.599 v 17.374 c 0,1.1 -0.199,2.877 -0.443,3.95 0,0 -0.409,1.802 -2.114,1.802 -0.759,0 -1.369,-0.256 -1.83,-0.766 z"
                   inkscape:connector-curvature="0"
                   style="fill:#ffcd00;fill-opacity:1" />
              </g>
            </g>
          </g>
        </g>
        <path
           id="Stroke-5"
           d="m 3.8436,8.8584 c 1.625,-0.766 2.956,-1.595 3.959,-2.467"
           inkscape:connector-curvature="0"
           style="stroke:#ffffff;stroke-linecap:round;stroke-linejoin:round;stroke-dasharray:1, 2, 6, 2, 3" />
        <path
           id="Fill-7"
           d="m 11.4012,27 c -0.617,0 -1.093,-0.196 -1.458,-0.601 -0.373,-0.413 -0.562,-1.06 -0.562,-1.923 v 1 c 0,0.863 0.189,1.51 0.562,1.923 0.365,0.405 0.841,0.601 1.458,0.601 0.883,0 2.058,-0.337 2.058,-3.252 v -1 c 0,2.915 -1.175,3.252 -2.058,3.252"
           inkscape:connector-curvature="0"
           style="opacity:0.20376635;fill:#332e09" />
      </g>
    </g>
    <path
       id="Stroke-3-6"
       d="M 20.665251,51.187735 C 20.52,50.201263 20.402197,48.472373 20.402197,47.344389 V 34.027011 c 0,-1.127984 -0.848635,-1.527905 -1.88484,-0.888031 0,0 -4.16426,2.569751 -5.416626,2.569751 -0.598162,0 -1.127702,-0.214317 -1.590906,-0.640899 -0.46206,-0.427609 -0.694234,-0.922896 -0.694234,-1.483811 0,-0.651154 0.228743,-1.129009 0.683941,-1.435615 0.455198,-0.306606 1.259228,-0.702426 2.412092,-1.186433 1.722432,-0.728062 3.099463,-1.49304 4.131092,-2.296984 1.03163,-0.803944 1.946601,-1.70428 2.743769,-2.698956 0.797168,-0.995702 1.316414,-1.607889 1.557738,-1.837587 0.242467,-0.229699 0.697665,-0.344548 1.366737,-0.344548 0.754851,0 1.359875,0.261487 1.815074,0.784461 l 0.455197,0.522974 c 0.125809,0.902387 0.227599,2.562573 0.227599,3.690556 v 17.81598 c 0,1.127984 -0.227599,2.950189 -0.506665,4.050485 0,0 -0.467779,1.847841 -2.41781,1.847841 -0.868078,0 -1.565743,-0.262512 -2.092995,-0.785486 z"
       inkscape:connector-curvature="0"
       style="fill:none;fill-rule:evenodd;stroke:#020202;stroke-width:1.08296287;stroke-opacity:1" />
  </g>
</svg>
