<?xml version="1.0" encoding="UTF-8" standalone="no"?>
<svg
   xmlns:dc="http://purl.org/dc/elements/1.1/"
   xmlns:cc="http://creativecommons.org/ns#"
   xmlns:rdf="http://www.w3.org/1999/02/22-rdf-syntax-ns#"
   xmlns:svg="http://www.w3.org/2000/svg"
   xmlns="http://www.w3.org/2000/svg"
   xmlns:sodipodi="http://sodipodi.sourceforge.net/DTD/sodipodi-0.dtd"
   xmlns:inkscape="http://www.inkscape.org/namespaces/inkscape"
   id="Capa_1"
   enable-background="new 0 0 512 512"
   height="512"
   viewBox="0 0 512 512"
   width="512"
   version="1.1"
   sodipodi:docname="megaphone.svg"
   inkscape:version="0.92.3 (2405546, 2018-03-11)">
  <metadata
     id="metadata45">
    <rdf:RDF>
      <cc:Work
         rdf:about="">
        <dc:format>image/svg+xml</dc:format>
        <dc:type
           rdf:resource="http://purl.org/dc/dcmitype/StillImage" />
      </cc:Work>
    </rdf:RDF>
  </metadata>
  <defs
     id="defs43" />
  <sodipodi:namedview
     pagecolor="#ffffff"
     bordercolor="#666666"
     borderopacity="1"
     objecttolerance="10"
     gridtolerance="10"
     guidetolerance="10"
     inkscape:pageopacity="0"
     inkscape:pageshadow="2"
     inkscape:window-width="1440"
     inkscape:window-height="858"
     id="namedview41"
     showgrid="false"
     inkscape:zoom="0.4609375"
     inkscape:cx="256"
     inkscape:cy="256"
     inkscape:window-x="-11"
     inkscape:window-y="-11"
     inkscape:window-maximized="1"
     inkscape:current-layer="Capa_1" />
  <g
     id="g38">
    <g
       id="g24">
      <path
         d="m112.137 483.655-44.91-25.187c-7.291-4.089-9.833-13.345-5.653-20.582l90.875-157.347 71.084 39.866-91.06 157.668c-4.107 7.112-13.172 9.6-20.336 5.582z"
         fill="#4d5788"
         id="path2"
         style="fill:#9400d3" />
      <g
         id="g22">
        <g
           id="g8">
          <path
             d="m216.454 332.74 165.708 98.444c10.002 5.942 22.671-1.264 22.671-12.895v-376.842c0-11.72-12.843-18.913-22.842-12.792l-165.537 101.346-10.741 99.661z"
             fill="#f1f1fa"
             id="path4"
             style="fill:#9400d3" />
          <path
             d="m205.973 232.161 10.48 100.579 165.708 98.444c10.002 5.942 22.671-1.264 22.671-12.895v-186.128z"
             fill="#ded7f9"
             id="path6"
             style="fill:#9400d3" />
        </g>
        <g
           id="g14">
          <path
             d="m89.545 296.868h-61.058c-15.733 0-28.487-12.754-28.487-28.487v-77.439c0-15.733 12.754-28.487 28.487-28.487h61.058z"
             fill="#667197"
             id="path10"
             style="fill:#9370db" />
          <path
             d="m0 232.161v36.22c0 15.733 12.758 28.487 28.496 28.487h61.048v-64.707z"
             fill="#4d5788"
             id="path12"
             style="fill:#4b0082" />
        </g>
        <g
           id="g20">
          <path
             d="m216.454 332.74h-86.908c-28.17-1.708-51.006-24.537-51.006-52.698v-100.76c0-28.161 22.836-50.989 51.006-49.28h86.908z"
             fill="#e06c6c"
             id="path16"
             style="fill:#9932cc" />
          <path
             d="m78.54 232.161v47.881c0 28.161 22.836 50.989 51.006 52.698h86.908v-100.579z"
             fill="#c63c50"
             id="path18"
             style="fill:#4b0082" />
        </g>
      </g>
    </g>
    <g
       id="g36">
      <path
         d="m470.72 352.291c-3.84 0-7.68-1.465-10.61-4.394l-30.269-30.259c-5.86-5.857-5.86-15.355 0-21.213 5.859-5.857 15.361-5.857 21.22 0l30.269 30.259c5.86 5.857 5.86 15.355 0 21.213-2.93 2.929-6.77 4.394-10.61 4.394z"
         fill="#edbe2c"
         id="path26"
         style="fill:#00bfff" />
      <path
         d="m440.45 172.291c-3.841 0-7.68-1.464-10.61-4.393-5.86-5.857-5.86-15.355 0-21.213l30.269-30.259c5.86-5.858 15.36-5.858 21.22 0 5.859 5.857 5.859 15.356 0 21.213l-30.269 30.259c-2.929 2.928-6.77 4.393-10.61 4.393z"
         fill="#f3d652"
         id="path28"
         style="fill:#00bfff" />
      <g
         id="g34">
        <path
           d="m496.995 247.161h-42.807c-8.287 0-15.005-6.716-15.005-15s6.718-15 15.005-15h42.807c8.287 0 15.005 6.716 15.005 15s-6.718 15-15.005 15z"
           fill="#f3d652"
           id="path30"
           style="fill:#00bfff" />
      </g>
    </g>
  </g>
</svg>
