<?xml version="1.0" encoding="UTF-8" standalone="no"?>
<svg
   xmlns:dc="http://purl.org/dc/elements/1.1/"
   xmlns:cc="http://creativecommons.org/ns#"
   xmlns:rdf="http://www.w3.org/1999/02/22-rdf-syntax-ns#"
   xmlns:svg="http://www.w3.org/2000/svg"
   xmlns="http://www.w3.org/2000/svg"
   xmlns:sodipodi="http://sodipodi.sourceforge.net/DTD/sodipodi-0.dtd"
   xmlns:inkscape="http://www.inkscape.org/namespaces/inkscape"
   height="357.49326"
   viewBox="0 0 396.52841 357.49325"
   width="396.52841"
   version="1.1"
   id="svg41"
   sodipodi:docname="fidde-megaphone.svg"
   inkscape:version="0.92.3 (2405546, 2018-03-11)">
  <metadata
     id="metadata47">
    <rdf:RDF>
      <cc:Work
         rdf:about="">
        <dc:format>image/svg+xml</dc:format>
        <dc:type
           rdf:resource="http://purl.org/dc/dcmitype/StillImage" />
        <dc:title></dc:title>
      </cc:Work>
    </rdf:RDF>
  </metadata>
  <defs
     id="defs45" />
  <sodipodi:namedview
     pagecolor="#ffffff"
     bordercolor="#666666"
     borderopacity="1"
     objecttolerance="10"
     gridtolerance="10"
     guidetolerance="10"
     inkscape:pageopacity="0"
     inkscape:pageshadow="2"
     inkscape:window-width="1440"
     inkscape:window-height="858"
     id="namedview43"
     showgrid="false"
     inkscape:zoom="0.8371782"
     inkscape:cx="-1.7445444"
     inkscape:cy="184.47795"
     inkscape:window-x="-11"
     inkscape:window-y="-11"
     inkscape:window-maximized="1"
     inkscape:current-layer="g894" />
  <g
     id="Filled_outline"
     data-name="Filled outline"
     transform="translate(-35.049321,-124.0469)">
    <g
       id="g873"
       transform="rotate(29.693123,228.91727,334.04762)">
      <g
         id="g894"
         transform="matrix(0.69997415,-0.42977396,0.42293735,0.71128895,-76.130636,223.78246)">
        <path
           d="M 336,226.46 V 428 L 308.34,398.96 A 304.8,304.8 0 0 0 184,320 v -22.48 c 53.94,-14.27 105.91,-37.1 152,-71.06 z"
           id="path16"
           inkscape:connector-curvature="0"
           style="fill:#7c43bd;fill-opacity:0" />
        <path
           d="m 56,328 h 9.509 l 30.662,145.648 c 0.77937,3.7022 4.04565,6.35228 7.829,6.352 h 72 c 12.94555,0.003 23.56079,-10.26122 23.99254,-23.19956 C 200.42429,443.8621 190.51696,432.91285 177.6,432.053 L 164.9,376 H 184 c 4.41828,0 8,-3.58172 8,-8 v -36.667 c 41.87311,15.77268 79.657,40.77202 110.548,73.143 l 25.669,26.952 c 1.83601,14.66294 14.75086,25.37483 29.50047,24.46843 C 372.46708,454.99003 383.97317,442.77742 384,428 V 302.778 l 41.315,-6.886 c 3.8579,-0.64289 6.6854,-3.9809 6.685,-7.892 v -64 c 4e-4,-3.9111 -2.8271,-7.24911 -6.685,-7.892 L 384,209.222 V 84 C 383.97317,69.222583 372.46708,57.00997 357.71747,56.10357 342.96786,55.197171 330.05301,65.90906 328.217,80.572 l -25.669,26.952 C 269.34737,142.31851 228.21648,168.5579 182.67,184 H 56 c -22.08111,0.0248 -39.975201,17.91889 -40,40 v 64 c 0.0248,22.08111 17.91889,39.9752 40,40 z m 115.2,120 h 4.8 c 4.41828,0 8,3.58172 8,8 0,4.41828 -3.58172,8 -8,8 H 110.491 L 81.859,328 h 55.751 l 25.79,113.769 c 0.82612,3.6435 4.06402,6.23008 7.8,6.231 z m 4.8,-88 h -14.73 c 0,0 -14.05095,-23.53388 -7.254,-32 4.53557,-5.6494 21.984,0 21.984,0 z M 416,230.777 v 50.446 l -32,5.334 V 225.443 Z M 356,72 c 6.62445,0.0072 11.99284,5.375553 12,12 v 344 c 0,6.62742 -5.37258,11.99999 -12,11.99999 -6.62742,0 -12,-5.37257 -12,-11.99999 V 84 c 0.007,-6.624447 5.37555,-11.992835 12,-12 z M 314.134,118.56 328,104 V 408 L 314.134,393.44 C 280.18211,357.85726 238.34744,330.74628 192,314.291 V 197.709 c 46.34763,-16.45491 88.18238,-43.56594 122.134,-79.149 z M 176,312 H 80 V 200 h 96 z M 32,224 c 0.01488,-13.24867 10.751334,-23.98512 24,-24 h 8 V 312 H 56 C 42.751334,311.98512 32.01488,301.24867 32,288 Z"
           id="path18"
           inkscape:connector-curvature="0"
           style="fill:#00ffff"
           sodipodi:nodetypes="cccccsccsscccsccccccccsccccccccssscccccccscccccccccsssccccccccccccccccccccc" />
        <path
           d="m 96,256 h 16 v 32 H 96 Z"
           id="path20"
           inkscape:connector-curvature="0"
           style="fill:#00ffff" />
        <path
           d="m 128,256 h 16 v 32 h -16 z"
           id="path22"
           inkscape:connector-curvature="0"
           style="fill:#00ffff" />
        <path
           d="m 447.525,204.8 h 48.951 v 16 h -48.951 z"
           transform="matrix(0.981,-0.196,0.196,0.981,-32.566,96.693)"
           id="path24"
           inkscape:connector-curvature="0"
           style="fill:#ffffff" />
        <path
           d="m 435.751,120 h 64.498 v 16.001 h -64.498 z"
           transform="matrix(0.868,-0.496,0.496,0.868,-1.844,249.054)"
           id="path28"
           inkscape:connector-curvature="0"
           style="fill:#ffffff" />
        <path
           d="m 464,276.325 h 16 v 48.951 h -16 z"
           transform="matrix(0.196,-0.981,0.981,0.196,84.48,704.647)"
           id="path30"
           inkscape:connector-curvature="0"
           style="fill:#ffffff" />
      </g>
    </g>
  </g>
</svg>
