<?xml version="1.0" encoding="UTF-8" standalone="no"?>
<svg
   xmlns:dc="http://purl.org/dc/elements/1.1/"
   xmlns:cc="http://creativecommons.org/ns#"
   xmlns:rdf="http://www.w3.org/1999/02/22-rdf-syntax-ns#"
   xmlns:svg="http://www.w3.org/2000/svg"
   xmlns="http://www.w3.org/2000/svg"
   xmlns:sodipodi="http://sodipodi.sourceforge.net/DTD/sodipodi-0.dtd"
   xmlns:inkscape="http://www.inkscape.org/namespaces/inkscape"
   id="Layer_1"
   version="1.1"
   viewBox="0 0 483.26611 426.93219"
   xml:space="preserve"
   sodipodi:docname="4038839_buy_discount_fashion_shop_shopping_icon.svg"
   width="483.26611"
   height="426.93219"
   inkscape:version="0.92.3 (2405546, 2018-03-11)"><metadata
     id="metadata19"><rdf:RDF><cc:Work
         rdf:about=""><dc:format>image/svg+xml</dc:format><dc:type
           rdf:resource="http://purl.org/dc/dcmitype/StillImage" /></cc:Work></rdf:RDF></metadata><defs
     id="defs17" /><sodipodi:namedview
     pagecolor="#ffffff"
     bordercolor="#666666"
     borderopacity="1"
     objecttolerance="10"
     gridtolerance="10"
     guidetolerance="10"
     inkscape:pageopacity="0"
     inkscape:pageshadow="2"
     inkscape:window-width="1440"
     inkscape:window-height="858"
     id="namedview15"
     showgrid="false"
     inkscape:zoom="0.4609375"
     inkscape:cx="254.9661"
     inkscape:cy="386.49152"
     inkscape:window-x="-11"
     inkscape:window-y="-11"
     inkscape:window-maximized="1"
     inkscape:current-layer="Layer_1" /><style
     type="text/css"
     id="style2">
	.st0{fill:#3B4652;}
	.st1{fill:#2B79C2;}
</style><g
     id="g12"
     transform="translate(-1.0339007,-42)"><path
       class="st0"
       d="m 442.6,304.9 c -4.5,0 -8.2,3.7 -8.2,8.2 V 327 c 0,4.5 3.7,8.2 8.2,8.2 4.5,0 8.2,-3.7 8.2,-8.2 v -13.9 c 0,-4.5 -3.7,-8.2 -8.2,-8.2 z"
       id="path6"
       style="fill:#4b0082"
       inkscape:connector-curvature="0" /><path
       class="st0"
       d="m 397.7,252 c 1.5,-1.5 2.4,-3.6 2.4,-5.8 v -13.9 c 0,-4.5 -3.7,-8.2 -8.2,-8.2 -4.5,0 -8.2,3.7 -8.2,8.2 v 13.9 c 0,4.5 3.7,8.2 8.2,8.2 2.2,0 4.3,-0.9 5.8,-2.4 z"
       id="path8"
       style="fill:#4b0082"
       inkscape:connector-curvature="0" /><path
       class="st0"
       d="M 476.4,152.7 431,125.4 419,118.2 c 0.1,-0.2 0.3,-0.4 0.4,-0.7 3.3,-7 4.9,-14.5 4.9,-22.3 0,-29.3 -23.9,-53.2 -53.2,-53.2 -29.3,0 -53.2,23.9 -53.2,53.2 0,7.8 1.6,15.3 4.9,22.3 0.1,0.2 0.2,0.5 0.3,0.7 4.7,9.8 12.4,18.1 21.9,23.4 0.9,0.5 1.8,1 2.7,1.4 7.2,3.5 15.2,5.4 23.3,5.4 8.1,0 16.1,-1.8 23.3,-5.4 -0.5,7.7 -4.8,14.4 -11,18.2 -4,0.8 -8.2,1.1 -12.3,1.1 -4.2,0 -8.3,-0.4 -12.3,-1.1 -7.2,-1.3 -14.1,-3.9 -20.6,-7.4 -11.6,-6.5 -21.2,-16.6 -27.1,-28.4 l -45.3,27.3 c -4.9,3 -8,8.3 -8,14.1 v 98.4 H 374 v 138.4 h 80.3 c 16.5,0 30,-13.4 30,-30 V 166.8 c 0,-5.8 -3,-11.1 -7.9,-14.1 z m -128.3,-47 c 2.2,4.8 6,8.9 10.6,11.5 1.5,0.9 3.1,1.6 4.8,2.1 2.4,0.8 4.9,1.1 7.5,1.1 2.6,0 5.1,-0.4 7.5,-1.1 5.2,1.7 9.5,5.3 12.3,9.8 -0.2,0.1 -0.5,0.2 -0.7,0.3 -5.8,3.3 -12.4,5 -19.2,5 -6.7,0 -13.4,-1.7 -19.2,-5 -0.2,-0.1 -0.4,-0.2 -0.6,-0.4 -6.9,-4 -12.4,-10.2 -15.8,-17.4 -0.1,-0.2 -0.2,-0.5 -0.3,-0.7 -2.2,-5 -3.3,-10.3 -3.3,-15.8 0,-21.6 17.6,-39.2 39.2,-39.2 21.6,0 39.2,17.6 39.2,39.2 0,5.5 -1.1,10.8 -3.3,15.7 l -12.1,-7.3 -15.3,-9.2 c -5.2,-3.1 -11.7,-3.1 -16.9,0 l -15.3,9.2 c 0.3,0.8 0.6,1.6 0.9,2.2 z m 21.5,140.5 v -13.9 c 0,-12.3 10,-22.2 22.2,-22.2 12.2,0 22.2,10 22.2,22.2 v 13.9 c 0,12.3 -10,22.2 -22.2,22.2 -12.2,0 -22.2,-10 -22.2,-22.2 z M 387,334 c -1.3,0 -2.6,-0.4 -3.8,-1.1 -3.3,-2.1 -4.2,-6.4 -2.1,-9.7 l 65.4,-102.5 c 2.1,-3.3 6.4,-4.2 9.7,-2.1 3.3,2.1 4.2,6.4 2.1,9.7 l -65.4,102.5 c -1.3,2.1 -3.6,3.2 -5.9,3.2 z m 77.8,-7 c 0,12.3 -10,22.2 -22.2,22.2 -12.3,0 -22.2,-10 -22.2,-22.2 v -13.9 c 0,-12.3 10,-22.2 22.2,-22.2 12.3,0 22.2,10 22.2,22.2 z"
       id="path10"
       style="fill:#4b0082"
       inkscape:connector-curvature="0" /></g><path
     inkscape:connector-curvature="0"
     d="M 345.96849,244.38984 H 8.4382363 A 8.4382566,8.2973806 0 0 0 0,252.68721 v 165.94762 a 8.4382566,8.2973806 0 0 0 8.4382363,8.29737 H 345.96849 a 8.4382566,8.2973806 0 0 0 8.4383,-8.29737 V 252.68721 a 8.4382566,8.2973806 0 0 0 -8.4383,-8.29737 z M 29.533888,302.4715 A 12.657386,12.44607 0 1 1 16.876526,314.91757 12.657386,12.44607 0 0 1 29.533888,302.4715 Z m -10.210256,52.19053 50.629525,-49.7843 11.982314,11.78229 -50.629524,49.78428 z M 71.72516,368.85054 A 12.657386,12.44607 0 1 1 84.382581,356.40447 12.657386,12.44607 0 0 1 71.72516,368.85054 Z m 105.47824,41.48692 a 75.944313,74.676426 0 1 1 75.94433,-74.67644 75.944313,74.676426 0 0 1 -75.94433,74.67644 z M 282.68161,302.4715 a 12.657386,12.44607 0 1 1 -12.6574,12.44607 12.657386,12.44607 0 0 1 12.6574,-12.44607 z m -10.2103,52.19053 50.62953,-49.7843 11.98231,11.78229 -50.62953,49.78428 z m 52.40159,14.18851 a 12.657386,12.44607 0 1 1 12.65742,-12.44607 12.657386,12.44607 0 0 1 -12.65742,12.44607 z"
     id="path22"
     style="fill:#4b0082;stroke-width:8.36752224" /><rect
     style="opacity:1;fill:#4b0082;fill-opacity:1;fill-rule:nonzero;stroke:#47ffff;stroke-width:0.1;stroke-miterlimit:4;stroke-dasharray:none;stroke-opacity:1"
     id="rect27"
     width="84.684807"
     height="122.95532"
     x="7.6440654"
     y="266.06781" /><rect
     style="opacity:1;fill:#4b0082;fill-opacity:1;fill-rule:nonzero;stroke:#47ffff;stroke-width:0.1;stroke-miterlimit:4;stroke-dasharray:none;stroke-opacity:1"
     id="rect29"
     width="91.118645"
     height="128"
     x="258.15253"
     y="272.57626" /><g
     id="g854"
     transform="translate(-545.23729,-255.79661)"><path
       style="fill:#00bfff;stroke-width:9.29187393"
       id="path4"
       d="m 731.87532,528.94441 v 17.57044 h 18.86928 v 18.30253 h -28.30392 a 9.4346405,9.15127 0 0 0 0,18.30254 28.303918,27.453806 0 0 1 9.43464,53.26038 v 19.21767 a 66.042475,64.058881 0 0 0 0,-126.65356 z"
       inkscape:connector-curvature="0" /><path
       style="fill:#00bfff;stroke-width:9.29187393"
       id="path8-1"
       d="m 722.44068,601.42246 a 28.303918,27.453806 0 0 1 -9.43464,-53.26039 v -19.21766 a 66.042475,64.058881 0 0 0 0,126.65356 V 638.02753 H 694.13676 V 619.725 h 28.30392 a 9.4346405,9.15127 0 0 0 0,-18.30254 z"
       inkscape:connector-curvature="0" /></g></svg>