<?xml version="1.0" encoding="UTF-8" standalone="no"?>
<svg
   xmlns:dc="http://purl.org/dc/elements/1.1/"
   xmlns:cc="http://creativecommons.org/ns#"
   xmlns:rdf="http://www.w3.org/1999/02/22-rdf-syntax-ns#"
   xmlns:svg="http://www.w3.org/2000/svg"
   xmlns="http://www.w3.org/2000/svg"
   xmlns:sodipodi="http://sodipodi.sourceforge.net/DTD/sodipodi-0.dtd"
   xmlns:inkscape="http://www.inkscape.org/namespaces/inkscape"
   id="Layer_1"
   style="enable-background:new 0 0 30 30;"
   version="1.1"
   viewBox="0 0 30 30"
   xml:space="preserve"
   sodipodi:docname="game-controller.svg"
   inkscape:version="0.92.3 (2405546, 2018-03-11)"><metadata
     id="metadata19"><rdf:RDF><cc:Work
         rdf:about=""><dc:format>image/svg+xml</dc:format><dc:type
           rdf:resource="http://purl.org/dc/dcmitype/StillImage" /></cc:Work></rdf:RDF></metadata><defs
     id="defs17" /><sodipodi:namedview
     pagecolor="#ffffff"
     bordercolor="#666666"
     borderopacity="1"
     objecttolerance="10"
     gridtolerance="10"
     guidetolerance="10"
     inkscape:pageopacity="0"
     inkscape:pageshadow="2"
     inkscape:window-width="1440"
     inkscape:window-height="858"
     id="namedview15"
     showgrid="false"
     inkscape:zoom="7.8666667"
     inkscape:cx="15"
     inkscape:cy="15"
     inkscape:window-x="-11"
     inkscape:window-y="-11"
     inkscape:window-maximized="1"
     inkscape:current-layer="g832" /><g
     id="g832"><path
       style="fill:#4b0082"
       id="path2"
       d="M29,21c0,2.209-1.791,4-4,4s-4-1.791-4-4l4-4C27.209,17,29,18.791,29,21z" /><path
       style="fill:#4b0082"
       id="path4"
       d="M27,10c0,1.657-1.343,3-3,3l-3-3c0-1.657,1.343-3,3-3S27,8.343,27,10z" /><path
       style="fill:#4b0082"
       id="path6"
       d="M1,21c0,2.209,1.791,4,4,4s4-1.791,4-4l-4-4C2.791,17,1,18.791,1,21z" /><path
       style="fill:#4b0082"
       id="path8"
       d="M3,10c0,1.657,1.343,3,3,3l3-3c0-1.657-1.343-3-3-3S3,8.343,3,10z" /><path
       style="fill:#4b0082"
       id="path10"
       d="M5.396,7.061L3.051,9.449L1.084,20.18l6.902,3.481L9.5,22H15V6C10.931,6,5.396,7.061,5.396,7.061z M10,16H9v1  c0,0.552-0.448,1-1,1s-1-0.448-1-1v-1H6c-0.552,0-1-0.448-1-1c0-0.552,0.448-1,1-1h1v-1c0-0.552,0.448-1,1-1s1,0.448,1,1v1h1  c0.552,0,1,0.448,1,1C11,15.552,10.552,16,10,16z" /><path
       style="fill:#4b0082"
       id="path12"
       d="M26.949,9.449l-2.346-2.388C24.604,7.061,19.069,6,15,6v16h5.5l1.514,1.661l6.902-3.481L26.949,9.449z M22,12  c0.552,0,1,0.448,1,1c0,0.552-0.448,1-1,1s-1-0.448-1-1C21,12.448,21.448,12,22,12z M20,16c-0.552,0-1-0.448-1-1  c0-0.552,0.448-1,1-1s1,0.448,1,1C21,15.552,20.552,16,20,16z M22,18c-0.552,0-1-0.448-1-1c0-0.552,0.448-1,1-1s1,0.448,1,1  C23,17.552,22.552,18,22,18z M24,16c-0.552,0-1-0.448-1-1c0-0.552,0.448-1,1-1s1,0.448,1,1C25,15.552,24.552,16,24,16z" /></g></svg>