<?xml version="1.0" encoding="UTF-8" standalone="no"?>
<svg
   xmlns:dc="http://purl.org/dc/elements/1.1/"
   xmlns:cc="http://creativecommons.org/ns#"
   xmlns:rdf="http://www.w3.org/1999/02/22-rdf-syntax-ns#"
   xmlns:svg="http://www.w3.org/2000/svg"
   xmlns="http://www.w3.org/2000/svg"
   xmlns:sodipodi="http://sodipodi.sourceforge.net/DTD/sodipodi-0.dtd"
   xmlns:inkscape="http://www.inkscape.org/namespaces/inkscape"
   viewBox="0 0 64 64"
   version="1.1"
   id="svg31"
   sodipodi:docname="4848468_coupon_discount_percent_percentage_sales_icon.svg"
   inkscape:version="0.92.3 (2405546, 2018-03-11)">
  <metadata
     id="metadata37">
    <rdf:RDF>
      <cc:Work
         rdf:about="">
        <dc:format>image/svg+xml</dc:format>
        <dc:type
           rdf:resource="http://purl.org/dc/dcmitype/StillImage" />
      </cc:Work>
    </rdf:RDF>
  </metadata>
  <defs
     id="defs35" />
  <sodipodi:namedview
     pagecolor="#ffffff"
     bordercolor="#666666"
     borderopacity="1"
     objecttolerance="10"
     gridtolerance="10"
     guidetolerance="10"
     inkscape:pageopacity="0"
     inkscape:pageshadow="2"
     inkscape:window-width="1440"
     inkscape:window-height="858"
     id="namedview33"
     showgrid="false"
     inkscape:zoom="3.6875"
     inkscape:cx="32"
     inkscape:cy="32"
     inkscape:window-x="-11"
     inkscape:window-y="-11"
     inkscape:window-maximized="1"
     inkscape:current-layer="svg31" />
  <title
     id="title2" />
  <g
     data-name="Layer 17"
     id="Layer_17">
    <path
       d="M41,33.08V35h2v2H40a1,1,0,0,0,0,2,3,3,0,0,1,1,5.82v2.1a7,7,0,0,0,0-13.84Z"
       id="path4"
       style="fill:#00bfff" />
    <circle
       cx="27.5"
       cy="42.5"
       r="0.5"
       id="circle6" />
    <path
       d="M40,41a3,3,0,0,1-1-5.82v-2.1a7,7,0,0,0,0,13.84V45H37V43h3a1,1,0,0,0,0-2Z"
       id="path8"
       style="fill:#00bfff" />
    <circle
       cx="22.5"
       cy="37.5"
       r="0.5"
       id="circle10" />
    <path
       d="M25,60a1,1,0,0,0,1,1h4a1,1,0,0,0,1-1V53H25Z"
       id="path12"
       style="fill:#4b0082" />
    <path
       d="M26,20h4a3,3,0,0,0,3-3V4a1,1,0,0,0-2,0V15a3,3,0,0,1-6,0V4a1,1,0,0,0-2,0V17A3,3,0,0,0,26,20Z"
       id="path14"
       style="fill:#4b0082" />
    <rect
       height="5"
       width="2"
       x="27"
       y="22"
       id="rect16"
       style="fill:#4b0082" />
    <circle
       cx="52.5"
       cy="37.5"
       r="0.5"
       id="circle18" />
    <circle
       cx="57.5"
       cy="42.5"
       r="0.5"
       id="circle20" />
    <path
       d="M60,29H20a1,1,0,0,0-1,1V50a1,1,0,0,0,1,1H60a1,1,0,0,0,1-1V30A1,1,0,0,0,60,29ZM22.5,36A1.5,1.5,0,1,1,21,37.5,1.5,1.5,0,0,1,22.5,36Zm-1.21,6.29,6-6,1.42,1.42-6,6ZM27.5,44A1.5,1.5,0,1,1,29,42.5,1.5,1.5,0,0,1,27.5,44ZM40,49a9,9,0,1,1,9-9A9,9,0,0,1,40,49ZM52.5,36A1.5,1.5,0,1,1,51,37.5,1.5,1.5,0,0,1,52.5,36Zm-1.21,6.29,6-6,1.42,1.42-6,6ZM57.5,44A1.5,1.5,0,1,1,59,42.5,1.5,1.5,0,0,1,57.5,44Z"
       id="path22"
       style="fill:#4b0082" />
    <path
       d="M3,12c0-5,3.14-9,7-9s7,4,7,9c0,4.13-2.18,7.71-5.31,8.72a1,1,0,0,0-.69,1V45H9V21.67a1,1,0,0,0-.69-1C5.18,19.71,3,16.13,3,12ZM13,60a1,1,0,0,1-1,1H8a1,1,0,0,1-1-1V48a1,1,0,0,1,1-1h4a1,1,0,0,1,1,1Z"
       id="path24"
       style="fill:#4b0082" />
    <path
       d="M40,20h0a6.32,6.32,0,0,0,4-4h0a6.32,6.32,0,0,0,4,4h0a6.32,6.32,0,0,0-4,4h0a6.32,6.32,0,0,0-4-4Z"
       id="path26"
       style="fill:#4b0082" />
    <path
       d="M54,10h0a6.32,6.32,0,0,0,4-4h0a6.32,6.32,0,0,0,4,4h0a6.32,6.32,0,0,0-4,4h0a6.32,6.32,0,0,0-4-4Z"
       id="path28"
       style="fill:#4b0082" />
  </g>
</svg>
