<?xml version="1.0" encoding="UTF-8" standalone="no"?>
<!-- Generator: Adobe Illustrator 19.0.0, SVG Export Plug-In . SVG Version: 6.00 Build 0)  -->

<svg
   xmlns:osb="http://www.openswatchbook.org/uri/2009/osb"
   xmlns:dc="http://purl.org/dc/elements/1.1/"
   xmlns:cc="http://creativecommons.org/ns#"
   xmlns:rdf="http://www.w3.org/1999/02/22-rdf-syntax-ns#"
   xmlns:svg="http://www.w3.org/2000/svg"
   xmlns="http://www.w3.org/2000/svg"
   xmlns:xlink="http://www.w3.org/1999/xlink"
   xmlns:sodipodi="http://sodipodi.sourceforge.net/DTD/sodipodi-0.dtd"
   xmlns:inkscape="http://www.inkscape.org/namespaces/inkscape"
   version="1.1"
   id="Capa_1"
   x="0px"
   y="0px"
   viewBox="0 0 260 259.99999"
   xml:space="preserve"
   sodipodi:docname="icon-edit.svg"
   inkscape:version="0.92.3 (2405546, 2018-03-11)"
   width="260"
   height="260"><metadata
   id="metadata103"><rdf:RDF><cc:Work
       rdf:about=""><dc:format>image/svg+xml</dc:format><dc:type
         rdf:resource="http://purl.org/dc/dcmitype/StillImage" /><dc:title /></cc:Work></rdf:RDF></metadata><defs
   id="defs101"><linearGradient
     id="linearGradient6136"
     osb:paint="solid"><stop
       style="stop-color:#8823ec;stop-opacity:1;"
       offset="0"
       id="stop6134" /></linearGradient><linearGradient
     id="linearGradient6012"
     osb:paint="solid"><stop
       style="stop-color:#e914c9;stop-opacity:0;"
       offset="0"
       id="stop6010" /></linearGradient><linearGradient
     inkscape:collect="always"
     xlink:href="#linearGradient6136"
     id="linearGradient6138"
     x1="0.826446"
     y1="130.24793"
     x2="263.63635"
     y2="130.24793"
     gradientUnits="userSpaceOnUse" /></defs><sodipodi:namedview
   pagecolor="#ffffff"
   bordercolor="#666666"
   borderopacity="1"
   objecttolerance="10"
   gridtolerance="10"
   guidetolerance="10"
   inkscape:pageopacity="0"
   inkscape:pageshadow="2"
   inkscape:window-width="1440"
   inkscape:window-height="858"
   id="namedview99"
   showgrid="false"
   inkscape:zoom="1.21"
   inkscape:cx="-133.71901"
   inkscape:cy="87.276142"
   inkscape:window-x="-11"
   inkscape:window-y="-11"
   inkscape:window-maximized="1"
   inkscape:current-layer="Capa_1"
   inkscape:pagecheckerboard="false" />


<rect
   style="fill:url(#linearGradient6138);stroke-width:1.31936574;fill-opacity:1"
   id="rect319"
   width="262.80991"
   height="262.80991"
   x="0.826446"
   y="-1.1570247"
   inkscape:export-filename="C:\_github-projects\systems\fiddelize\client\public\icons\mobile-icon-512.png"
   inkscape:export-xdpi="187.02492"
   inkscape:export-ydpi="187.02492" /><g
   id="g18"
   transform="translate(-146.28989,-110.85073)">
	<g
   id="g16">
		
	</g>
</g>

<g
   id="g30"
   transform="translate(-146.28989,-110.85073)">
	<g
   id="g28">
		
	</g>
</g>


<g
   id="g48"
   transform="translate(-146.28989,-110.85073)">
	<g
   id="g46">
		
	</g>
</g>



<g
   id="g68"
   transform="translate(-146.28989,-110.85073)">
</g>
<g
   id="g70"
   transform="translate(-146.28989,-110.85073)">
</g>
<g
   id="g72"
   transform="translate(-146.28989,-110.85073)">
</g>
<g
   id="g74"
   transform="translate(-146.28989,-110.85073)">
</g>
<g
   id="g76"
   transform="translate(-146.28989,-110.85073)">
</g>
<g
   id="g78"
   transform="translate(-146.28989,-110.85073)">
</g>
<g
   id="g80"
   transform="translate(-146.28989,-110.85073)">
</g>
<g
   id="g82"
   transform="translate(-146.28989,-110.85073)">
</g>
<g
   id="g84"
   transform="translate(-146.28989,-110.85073)">
</g>
<g
   id="g86"
   transform="translate(-146.28989,-110.85073)">
</g>
<g
   id="g88"
   transform="translate(-146.28989,-110.85073)">
</g>
<g
   id="g90"
   transform="translate(-146.28989,-110.85073)">
</g>
<g
   id="g92"
   transform="translate(-146.28989,-110.85073)">
</g>
<g
   id="g94"
   transform="translate(-146.28989,-110.85073)">
</g>
<g
   id="g96"
   transform="translate(-146.28989,-110.85073)">
</g>
<g
   id="g293"
   transform="matrix(0.54879914,0.14325559,-0.13647834,0.6857428,149.57653,-82.763437)"
   style="fill:#00ffff"><g
     id="g317"
     transform="translate(-180.93764,29.36262)"
     style="fill:#00ffff"><g
       id="g36"
       transform="matrix(0.79801195,0,0,0.52939984,16.861545,309.418)"
       style="fill:#00ffff">
	<g
   id="g34"
   style="fill:#00ffff">
		<path
   d="M 470.92658,111.6977 447.3251,40.115066 c -1.45419,-4.421383 -5.97943,-7.299518 -10.10957,-6.42899 l -0.006,0.0013 -66.85897,14.154149 c -4.13039,0.872495 -6.29904,5.164864 -4.84288,9.586788 1.45616,4.421924 5.98545,7.300157 10.11584,6.427663 L 424.0439,53.620592 407.17144,85.706748 C 333.05921,226.34624 304.57354,277.68543 138.41702,246.71104 l 0.38728,14.69811 C 311.22112,293.5523 344.50495,240.94143 421.38161,94.98555 l 17.22835,-32.785619 17.35791,52.656889 c 1.45616,4.42193 5.98545,7.30016 10.11583,6.42767 4.13137,-0.87223 6.29892,-5.16388 4.84288,-9.58679 z"
   id="path32"
   inkscape:connector-curvature="0"
   sodipodi:nodetypes="cccccscccccccccc"
   style="fill:#00ffff" />
	</g>
</g><path
       style="fill:#00ffff;stroke-width:0.61769664"
       id="path131"
       d="m 124.76442,422.75264 c -1.32084,0.50341 -2.49033,1.35667 -3.68337,2.14895 -2.00115,1.13333 -3.83812,2.56639 -5.65017,4.05396 -1.44552,1.0524 -2.69712,2.34442 -3.63327,4.04351 -0.85419,1.65585 -0.92592,3.0657 -0.50035,5.05176 0.78476,2.26887 2.37675,3.86045 3.86672,5.46744 1.89665,2.17054 3.97046,4.10661 6.05823,5.98547 1.61009,1.33764 3.26626,2.58458 4.96855,3.71791 1.51224,0.96706 3.11224,1.65016 4.71116,2.29367 1.3881,0.5461 2.78221,1.05972 4.17652,1.57185 0.63221,0.22695 1.26295,0.46127 1.89276,0.70176 0,0 -6.20815,2.62135 -6.20815,2.62135 v 0 c -0.6314,-0.22823 -1.26177,-0.46165 -1.89105,-0.70181 -1.39333,-0.52207 -2.78968,-1.03142 -4.17307,-1.60529 -1.60993,-0.69313 -3.21872,-1.43379 -4.73363,-2.45397 -1.7038,-1.16893 -3.35245,-2.46543 -4.9524,-3.8537 -2.08016,-1.9163 -4.10405,-3.94245 -6.05312,-6.05868 -1.63673,-1.70975 -3.29405,-3.46332 -4.08932,-5.94602 -0.47364,-2.04698 -0.54623,-3.9378 0.32963,-5.693 0.88447,-1.85092 2.13201,-3.29572 3.66107,-4.36647 1.81135,-1.48303 3.60608,-2.99462 5.60861,-4.12329 1.16396,-0.75684 2.24445,-1.67725 3.49856,-2.24382 0,0 6.79601,-0.61119 6.79601,-0.61119 z"
       inkscape:connector-curvature="0" /><ellipse
       transform="matrix(0.99963962,-0.02684449,-0.03638016,0.99933802,0,0)"
       style="fill:#00ffff;stroke-width:1.59051311"
       id="path133-2"
       cx="245.26117"
       cy="427.4057"
       rx="18.794783"
       ry="16.13406" /><ellipse
       style="fill:#00ffff;stroke-width:1.92487097"
       id="path133-2-1"
       cx="296.28558"
       cy="370.56549"
       rx="21.074381"
       ry="21.074379" /><ellipse
       transform="matrix(0.999904,-0.01385608,-0.01760043,0.9998451,0,0)"
       style="fill:#00ffff;stroke-width:1.13778603"
       id="path133-2-5"
       cx="162.33623"
       cy="430.75815"
       rx="13.016589"
       ry="11.921487" /></g></g><g
   id="g224"
   style="fill:#00ffff"
   transform="translate(-114.05848,-108.37139)"><text
   id="text125"
   y="319.67545"
   x="162.80991"
   style="font-style:normal;font-weight:normal;font-size:40px;line-height:1.25;font-family:sans-serif;letter-spacing:0px;word-spacing:0px;fill:#00ffff;fill-opacity:1;stroke:none"
   xml:space="preserve"><tspan
     style="font-style:normal;font-variant:normal;font-weight:normal;font-stretch:normal;font-size:306.66665649px;font-family:Cambria;-inkscape-font-specification:'Cambria, Normal';font-variant-ligatures:normal;font-variant-caps:normal;font-variant-numeric:normal;font-feature-settings:normal;text-align:start;writing-mode:lr-tb;text-anchor:start;fill:#00ffff"
     y="319.67545"
     x="162.80991"
     id="tspan123"
     sodipodi:role="line">F<tspan
   id="tspan213"
   style="font-size:96px;fill:#00ffff" /></tspan></text>


</g></svg>