<?xml version="1.0" encoding="UTF-8" standalone="no"?>
<!-- Generator: Adobe Illustrator 19.0.0, SVG Export Plug-In . SVG Version: 6.00 Build 0)  -->

<svg
   xmlns:dc="http://purl.org/dc/elements/1.1/"
   xmlns:cc="http://creativecommons.org/ns#"
   xmlns:rdf="http://www.w3.org/1999/02/22-rdf-syntax-ns#"
   xmlns:svg="http://www.w3.org/2000/svg"
   xmlns="http://www.w3.org/2000/svg"
   xmlns:sodipodi="http://sodipodi.sourceforge.net/DTD/sodipodi-0.dtd"
   xmlns:inkscape="http://www.inkscape.org/namespaces/inkscape"
   version="1.1"
   id="Capa_1"
   x="0px"
   y="0px"
   viewBox="0 0 480 384"
   xml:space="preserve"
   sodipodi:docname="boleto-selection.svg"
   inkscape:version="0.92.3 (2405546, 2018-03-11)"
   width="480"
   height="384"><metadata
   id="metadata229"><rdf:RDF><cc:Work
       rdf:about=""><dc:format>image/svg+xml</dc:format><dc:type
         rdf:resource="http://purl.org/dc/dcmitype/StillImage" /></cc:Work></rdf:RDF></metadata><defs
   id="defs227" /><sodipodi:namedview
   pagecolor="#ffffff"
   bordercolor="#666666"
   borderopacity="1"
   objecttolerance="10"
   gridtolerance="10"
   guidetolerance="10"
   inkscape:pageopacity="0"
   inkscape:pageshadow="2"
   inkscape:window-width="1440"
   inkscape:window-height="858"
   id="namedview225"
   showgrid="false"
   inkscape:zoom="0.64"
   inkscape:cx="-292.34375"
   inkscape:cy="129.5"
   inkscape:window-x="-11"
   inkscape:window-y="-11"
   inkscape:window-maximized="1"
   inkscape:current-layer="Capa_1" />
<g
   id="g6"
   transform="translate(0,-48)">
	<g
   id="g4">
		<rect
   x="32"
   y="128"
   width="16"
   height="192"
   id="rect2"
   style="fill:#4b0082" />
	</g>
</g>
<g
   id="g12"
   transform="translate(0,-48)">
	<g
   id="g10">
		<rect
   x="80"
   y="128"
   width="32"
   height="192"
   id="rect8"
   style="fill:#00ffff" />
	</g>
</g>
<g
   id="g18"
   style="fill:#00ffff"
   transform="translate(0,-48)">
	<g
   id="g16"
   style="fill:#00ffff">
		<rect
   x="128"
   y="128"
   width="16"
   height="192"
   id="rect14"
   style="fill:#00ffff" />
	</g>
</g>
<g
   id="g24"
   style="fill:#00ffff"
   transform="translate(0,-48)">
	<g
   id="g22"
   style="fill:#00ffff">
		<rect
   x="176"
   y="128"
   width="32"
   height="192"
   id="rect20"
   style="fill:#00ffff" />
	</g>
</g>
<g
   id="g30"
   style="fill:#00ffff"
   transform="translate(0,-48)">
	<g
   id="g28"
   style="fill:#00ffff">
		<rect
   x="224"
   y="128"
   width="32"
   height="192"
   id="rect26"
   style="fill:#00ffff" />
	</g>
</g>
<g
   id="g36"
   transform="translate(0,-48)">
	<g
   id="g34">
		<rect
   x="432"
   y="128"
   width="16"
   height="192"
   id="rect32"
   style="fill:#4b0082" />
	</g>
</g>
<g
   id="g42"
   style="fill:#00ffff"
   transform="translate(0,-48)">
	<g
   id="g40"
   style="fill:#00ffff">
		<rect
   x="368"
   y="128"
   width="32"
   height="192"
   id="rect38"
   style="fill:#00ffff" />
	</g>
</g>
<g
   id="g48"
   style="fill:#00ffff"
   transform="translate(0,-48)">
	<g
   id="g46"
   style="fill:#00ffff">
		<rect
   x="336"
   y="128"
   width="16"
   height="192"
   id="rect44"
   style="fill:#00ffff" />
	</g>
</g>
<g
   id="g54"
   style="fill:#00ffff"
   transform="translate(0,-48)">
	<g
   id="g52"
   style="fill:#00ffff">
		<rect
   x="288"
   y="128"
   width="16"
   height="192"
   id="rect50"
   style="fill:#00ffff" />
	</g>
</g>
<g
   id="g60"
   transform="translate(0,-48)">
	<g
   id="g58">
		<rect
   x="32"
   y="336"
   width="16"
   height="16"
   id="rect56"
   style="fill:#00ffff" />
	</g>
</g>
<g
   id="g66"
   style="fill:#00ffff"
   transform="translate(-14,-48)">
	<g
   id="g64"
   style="fill:#00ffff">
		<rect
   x="96"
   y="336"
   width="16"
   height="16"
   id="rect62"
   style="fill:#00ffff" />
	</g>
</g>
<g
   id="g72"
   style="fill:#00ffff"
   transform="translate(0,-48)">
	<g
   id="g70"
   style="fill:#00ffff">
		<rect
   x="128"
   y="336"
   width="16"
   height="16"
   id="rect68"
   style="fill:#00ffff" />
	</g>
</g>
<g
   id="g78"
   style="fill:#00ffff"
   transform="translate(0,-48)">
	<g
   id="g76"
   style="fill:#00ffff">
		<rect
   x="160"
   y="336"
   width="16"
   height="16"
   id="rect74"
   style="fill:#00ffff" />
	</g>
</g>
<g
   id="g84"
   style="fill:#00ffff"
   transform="translate(0,-48)">
	<g
   id="g82"
   style="fill:#00ffff">
		<rect
   x="192"
   y="336"
   width="16"
   height="16"
   id="rect80"
   style="fill:#00ffff" />
	</g>
</g>

<g
   id="g96"
   style="fill:#00ffff"
   transform="translate(0,-48)">
	<g
   id="g94"
   style="fill:#00ffff">
		<rect
   x="224"
   y="336"
   width="16"
   height="16"
   id="rect92"
   style="fill:#00ffff" />
	</g>
</g>
<g
   id="g102"
   style="fill:#00ffff"
   transform="translate(0,-48)">
	<g
   id="g100"
   style="fill:#00ffff">
		<rect
   x="256"
   y="336"
   width="16"
   height="16"
   id="rect98"
   style="fill:#00ffff" />
	</g>
</g>
<g
   id="g108"
   style="fill:#00ffff"
   transform="translate(0,-48)">
	<g
   id="g106"
   style="fill:#00ffff">
		<rect
   x="288"
   y="336"
   width="16"
   height="16"
   id="rect104"
   style="fill:#00ffff" />
	</g>
</g>
<g
   id="g114"
   style="fill:#00ffff"
   transform="translate(0,-48)">
	<g
   id="g112"
   style="fill:#00ffff">
		<rect
   x="320"
   y="336"
   width="16"
   height="16"
   id="rect110"
   style="fill:#00ffff" />
	</g>
</g>
<g
   id="g120"
   style="fill:#00ffff"
   transform="translate(0,-48)">
	<g
   id="g118"
   style="fill:#00ffff">
		<rect
   x="352"
   y="336"
   width="16"
   height="16"
   id="rect116"
   style="fill:#00ffff" />
	</g>
</g>
<g
   id="g126"
   style="fill:#00ffff"
   transform="translate(0,-48)">
	<g
   id="g124"
   style="fill:#00ffff">
		<rect
   x="384"
   y="336"
   width="16"
   height="16"
   id="rect122"
   style="fill:#00ffff" />
	</g>
</g>
<g
   id="g132"
   transform="translate(0,-48)">
	<g
   id="g130"
   transform="translate(13.375)">
		<rect
   x="416"
   y="336"
   width="16"
   height="16"
   id="rect128"
   style="fill:#00ffff" />
	</g>
</g>
<g
   id="g138"
   style="fill:#4b0082"
   transform="translate(0,-48)">
	<g
   id="g136"
   style="fill:#4b0082">
		<polygon
   points="16,112 16,64 64,64 64,48 0,48 0,112 "
   id="polygon134"
   style="fill:#4b0082" />
	</g>
</g>
<g
   id="g144"
   style="fill:#4b0082"
   transform="translate(0,-48)">
	<g
   id="g142"
   style="fill:#4b0082">
		<polygon
   points="464,64 464,112 480,112 480,48 416,48 416,64 "
   id="polygon140"
   style="fill:#4b0082" />
	</g>
</g>
<g
   id="g150"
   style="fill:#4b0082"
   transform="translate(0,-48)">
	<g
   id="g148"
   style="fill:#4b0082">
		<polygon
   points="416,416 416,432 480,432 480,368 464,368 464,416 "
   id="polygon146"
   style="fill:#4b0082" />
	</g>
</g>
<g
   id="g156"
   style="fill:#4b0082"
   transform="translate(0,-48)">
	<g
   id="g154"
   style="fill:#4b0082">
		<polygon
   points="0,368 0,432 64,432 64,416 16,416 16,368 "
   id="polygon152"
   style="fill:#4b0082" />
	</g>
</g>
<g
   id="g162"
   style="fill:#4b0082"
   transform="translate(0,-48)">
	<g
   id="g160"
   style="fill:#4b0082">
		<polygon
   points="32,368 32,400 64,400 64,384 48,384 48,368 "
   id="polygon158"
   style="fill:#4b0082" />
	</g>
</g>
<g
   id="g168"
   style="fill:#4b0082"
   transform="translate(0,-48)">
	<g
   id="g166"
   style="fill:#4b0082">
		<polygon
   points="48,112 48,96 64,96 64,80 32,80 32,112 "
   id="polygon164"
   style="fill:#4b0082" />
	</g>
</g>
<g
   id="g174"
   style="fill:#4b0082"
   transform="translate(0,-48)">
	<g
   id="g172"
   style="fill:#4b0082">
		<polygon
   points="432,96 432,112 448,112 448,80 416,80 416,96 "
   id="polygon170"
   style="fill:#4b0082" />
	</g>
</g>
<g
   id="g180"
   style="fill:#4b0082"
   transform="translate(0,-48)">
	<g
   id="g178"
   style="fill:#4b0082">
		<polygon
   points="416,384 416,400 448,400 448,368 432,368 432,384 "
   id="polygon176"
   style="fill:#4b0082" />
	</g>
</g>
<g
   id="g186"
   transform="translate(0,-48)">
	<g
   id="g184">
		<rect
   x="80"
   y="80"
   width="320"
   height="16"
   id="rect182"
   style="fill:#4b0082" />
	</g>
</g>
<g
   id="g192"
   transform="translate(0,-48)"
   style="fill:#4b0082">
	<g
   id="g190"
   style="fill:#4b0082">
		<rect
   x="80"
   y="384"
   width="320"
   height="16"
   id="rect188"
   style="fill:#4b0082" />
	</g>
</g>
<g
   id="g194"
   transform="translate(0,-48)">
</g>
<g
   id="g196"
   transform="translate(0,-48)">
</g>
<g
   id="g198"
   transform="translate(0,-48)">
</g>
<g
   id="g200"
   transform="translate(0,-48)">
</g>
<g
   id="g202"
   transform="translate(0,-48)">
</g>
<g
   id="g204"
   transform="translate(0,-48)">
</g>
<g
   id="g206"
   transform="translate(0,-48)">
</g>
<g
   id="g208"
   transform="translate(0,-48)">
</g>
<g
   id="g210"
   transform="translate(0,-48)">
</g>
<g
   id="g212"
   transform="translate(0,-48)">
</g>
<g
   id="g214"
   transform="translate(0,-48)">
</g>
<g
   id="g216"
   transform="translate(0,-48)">
</g>
<g
   id="g218"
   transform="translate(0,-48)">
</g>
<g
   id="g220"
   transform="translate(0,-48)">
</g>
<g
   id="g222"
   transform="translate(0,-48)">
</g>
</svg>