<?xml version="1.0" encoding="UTF-8" standalone="no"?>
<svg
   xmlns:dc="http://purl.org/dc/elements/1.1/"
   xmlns:cc="http://creativecommons.org/ns#"
   xmlns:rdf="http://www.w3.org/1999/02/22-rdf-syntax-ns#"
   xmlns:svg="http://www.w3.org/2000/svg"
   xmlns="http://www.w3.org/2000/svg"
   xmlns:sodipodi="http://sodipodi.sourceforge.net/DTD/sodipodi-0.dtd"
   xmlns:inkscape="http://www.inkscape.org/namespaces/inkscape"
   id="Layer_1"
   enable-background="new 0 0 512 512"
   height="309.79965"
   viewBox="0 0 446.15125 309.79965"
   width="446.15125"
   version="1.1"
   sodipodi:docname="online-debt-selection.svg"
   inkscape:version="0.92.3 (2405546, 2018-03-11)"
   inkscape:export-filename="C:\Users\ACESSO LIVRE\Desktop\online-debt-selection.png"
   inkscape:export-xdpi="75"
   inkscape:export-ydpi="75">
  <metadata
     id="metadata17">
    <rdf:RDF>
      <cc:Work
         rdf:about="">
        <dc:format>image/svg+xml</dc:format>
        <dc:type
           rdf:resource="http://purl.org/dc/dcmitype/StillImage" />
        <dc:title></dc:title>
      </cc:Work>
    </rdf:RDF>
  </metadata>
  <defs
     id="defs15" />
  <sodipodi:namedview
     pagecolor="#ffffff"
     bordercolor="#666666"
     borderopacity="1"
     objecttolerance="10"
     gridtolerance="10"
     guidetolerance="10"
     inkscape:pageopacity="0"
     inkscape:pageshadow="2"
     inkscape:window-width="1440"
     inkscape:window-height="858"
     id="namedview13"
     showgrid="false"
     inkscape:zoom="0.79"
     inkscape:cx="10.151899"
     inkscape:cy="157.98577"
     inkscape:window-x="-11"
     inkscape:window-y="-11"
     inkscape:window-maximized="1"
     inkscape:current-layer="Layer_1" />
  <g
     id="g10"
     transform="matrix(0.87961902,0,0,0.86128774,0,-65.171921)"
     style="fill:#4b0082">
    <path
       d="m 452.151,141.064 v -7.004 c 0,-32.197 -26.194,-58.392 -58.392,-58.392 H 58.392 C 26.194,75.669 0,101.863 0,134.06 v 7.004 z"
       id="path2"
       inkscape:connector-curvature="0"
       style="fill:#4b0082" />
    <path
       d="m 267.129,328.896 c 0,-30.289 9.741,-59.078 27.726,-82.804 H 0 v 81.452 c 0,32.197 26.194,58.392 58.392,58.392 h 221.063 c -8.069,-17.676 -12.326,-37.029 -12.326,-57.04 z M 226.076,311.198 H 175.68 v -30 h 50.396 z m -158.818,-30 h 78.422 v 30 H 67.258 Z"
       id="path4"
       inkscape:connector-curvature="0"
       style="fill:#4b0082" />
    <path
       d="m 326,216.092 c 22.879,-16.007 50.058,-24.631 78.564,-24.631 16.5,0 32.552,2.897 47.587,8.434 v -28.83 H 0 v 45.027 z"
       id="path6"
       inkscape:connector-curvature="0"
       style="fill:#00ffff" />
  </g>
  <ellipse
     style="opacity:0.99199997;fill:#4b0082;fill-opacity:1;fill-rule:nonzero;stroke:#47ffff;stroke-width:0.09596808;stroke-miterlimit:4;stroke-dasharray:none;stroke-opacity:1"
     id="path1197"
     cx="356.86075"
     cy="217.97751"
     rx="89.242523"
     ry="91.77417" />
  <g
     id="g1195"
     transform="matrix(0.85162848,0,0,0.82327886,582.7425,77.59228)"
     style="fill:#00ffff">
    <g
       id="g1057"
       style="fill:#00ffff">
	<g
   id="g1055"
   style="fill:#00ffff">
		
	</g>

</g>
    <g
       id="g1063"
       style="fill:#00ffff">
	<g
   id="g1061"
   style="fill:#00ffff">
		<path
   id="path1059"
   d="m -218.91639,158.855 c -9.925,0 -17.999,-6.914 -17.999,-15.411 0,-8.498 8.075,-15.412 17.999,-15.412 9.925,0 17.999,6.914 17.999,15.412 0,5.523 4.477,10 10,10 5.523,0 10,-4.477 10,-10 0,-16.301 -11.884,-30.055 -27.999,-34.157 v -6.774 c 0,-5.523 -4.477,-10 -10,-10 -5.523,0 -10,4.477 -10,10 v 6.774 c -16.116,4.102 -27.999,17.857 -27.999,34.157 0,19.525 17.047,35.41 37.999,35.41 9.925,0 17.999,6.914 17.999,15.412 0,8.498 -8.074,15.411 -17.999,15.411 -9.925,0 -17.999,-6.914 -17.999,-15.411 0,-5.523 -4.477,-10 -10,-10 -5.523,0 -10,4.477 -10,10 0,16.301 11.884,30.055 27.999,34.157 v 8.16 c 0,5.523 4.477,10 10,10 5.523,0 10,-4.477 10,-10 v -8.16 c 16.116,-4.102 27.999,-17.856 27.999,-34.157 0,-19.525 -17.047,-35.411 -37.999,-35.411 z"
   inkscape:connector-curvature="0"
   style="fill:#00ffff" />

	</g>

</g>
    <g
       id="g1069"
       style="fill:#00ffff">
	<g
   id="g1067"
   style="fill:#00ffff">
		
	</g>

</g>
    <g
       id="g1075"
       style="fill:#00ffff">
	<g
   id="g1073"
   style="fill:#00ffff">
		
	</g>

</g>
    <g
       id="g1081"
       style="fill:#00ffff">
	<g
   id="g1079"
   style="fill:#00ffff">
		
	</g>

</g>
    <g
       id="g1087"
       style="fill:#00ffff">
	<g
   id="g1085"
   style="fill:#00ffff">
		
	</g>

</g>
    <g
       id="g1093"
       style="fill:#00ffff">
	<g
   id="g1091"
   style="fill:#00ffff">
		
	</g>

</g>
    <g
       id="g1099"
       style="fill:#00ffff">
	<g
   id="g1097"
   style="fill:#00ffff">
		
	</g>

</g>
    <g
       id="g1105"
       style="fill:#00ffff">
	<g
   id="g1103"
   style="fill:#00ffff">
		
	</g>

</g>
    <g
       id="g1111"
       style="fill:#00ffff">
	<g
   id="g1109"
   style="fill:#00ffff">
		
	</g>

</g>
    <g
       id="g1113"
       style="fill:#00ffff">
</g>
    <g
       id="g1115"
       style="fill:#00ffff">
</g>
    <g
       id="g1117"
       style="fill:#00ffff">
</g>
    <g
       id="g1119"
       style="fill:#00ffff">
</g>
    <g
       id="g1121"
       style="fill:#00ffff">
</g>
    <g
       id="g1123"
       style="fill:#00ffff">
</g>
    <g
       id="g1125"
       style="fill:#00ffff">
</g>
    <g
       id="g1127"
       style="fill:#00ffff">
</g>
    <g
       id="g1129"
       style="fill:#00ffff">
</g>
    <g
       id="g1131"
       style="fill:#00ffff">
</g>
    <g
       id="g1133"
       style="fill:#00ffff">
</g>
    <g
       id="g1135"
       style="fill:#00ffff">
</g>
    <g
       id="g1137"
       style="fill:#00ffff">
</g>
    <g
       id="g1139"
       style="fill:#00ffff">
</g>
    <g
       id="g1141"
       style="fill:#00ffff">
</g>
  </g>
  <text
     xml:space="preserve"
     style="font-style:normal;font-weight:normal;font-size:125.26832581px;line-height:1.25;font-family:sans-serif;letter-spacing:0px;word-spacing:0px;fill:#00ffff;fill-opacity:1;stroke:none;stroke-width:3.13170815"
     x="316.61444"
     y="236.69116"
     id="text1201"
     transform="scale(0.9027808,1.1076886)"><tspan
       sodipodi:role="line"
       id="tspan1199"
       x="316.61444"
       y="236.69116"
       style="font-style:normal;font-variant:normal;font-weight:normal;font-stretch:normal;font-family:Aharoni;-inkscape-font-specification:Aharoni;fill:#00ffff;stroke-width:3.13170815">R</tspan></text>
</svg>
