<?xml version="1.0" encoding="UTF-8" standalone="no"?>
<svg
   xmlns:dc="http://purl.org/dc/elements/1.1/"
   xmlns:cc="http://creativecommons.org/ns#"
   xmlns:rdf="http://www.w3.org/1999/02/22-rdf-syntax-ns#"
   xmlns:svg="http://www.w3.org/2000/svg"
   xmlns="http://www.w3.org/2000/svg"
   xmlns:sodipodi="http://sodipodi.sourceforge.net/DTD/sodipodi-0.dtd"
   xmlns:inkscape="http://www.inkscape.org/namespaces/inkscape"
   enable-background="new 0 0 32 32"
   height="32px"
   id="Layer_1"
   version="1.0"
   viewBox="0 0 32 32"
   width="32px"
   xml:space="preserve"
   sodipodi:docname="317725_linkedin_social_icon.svg"
   inkscape:version="0.92.3 (2405546, 2018-03-11)"><metadata
     id="metadata31"><rdf:RDF><cc:Work
         rdf:about=""><dc:format>image/svg+xml</dc:format><dc:type
           rdf:resource="http://purl.org/dc/dcmitype/StillImage" /></cc:Work></rdf:RDF></metadata><defs
     id="defs29" /><sodipodi:namedview
     pagecolor="#ffffff"
     bordercolor="#666666"
     borderopacity="1"
     objecttolerance="10"
     gridtolerance="10"
     guidetolerance="10"
     inkscape:pageopacity="0"
     inkscape:pageshadow="2"
     inkscape:window-width="1440"
     inkscape:window-height="858"
     id="namedview27"
     showgrid="false"
     inkscape:zoom="7.375"
     inkscape:cx="16"
     inkscape:cy="16"
     inkscape:window-x="-11"
     inkscape:window-y="-11"
     inkscape:window-maximized="1"
     inkscape:current-layer="g12" /><g
     id="g12"><path
       d="M32,30c0,1.104-0.896,2-2,2H2c-1.104,0-2-0.896-2-2V2c0-1.104,0.896-2,2-2h28c1.104,0,2,0.896,2,2V30z"
       fill="#007BB5"
       id="path2"
       style="fill:#9400d3" /><g
       id="g10"><rect
         fill="#FFFFFF"
         height="14"
         width="4"
         x="7"
         y="11"
         id="rect4"
         style="fill:#00ffff" /><path
         d="M20.499,11c-2.791,0-3.271,1.018-3.499,2v-2h-4v14h4v-8c0-1.297,0.703-2,2-2c1.266,0,2,0.688,2,2v8h4v-7    C25,14,24.479,11,20.499,11z"
         fill="#FFFFFF"
         id="path6"
         style="fill:#00ffff" /><circle
         cx="9"
         cy="8"
         fill="#FFFFFF"
         r="2"
         id="circle8"
         style="fill:#00ffff" /></g></g><g
     id="g14" /><g
     id="g16" /><g
     id="g18" /><g
     id="g20" /><g
     id="g22" /><g
     id="g24" /></svg>