<?xml version="1.0" standalone="no"?>
<!DOCTYPE svg PUBLIC "-//W3C//DTD SVG 20010904//EN"
 "http://www.w3.org/TR/2001/REC-SVG-20010904/DTD/svg10.dtd">
<svg version="1.0" xmlns="http://www.w3.org/2000/svg"
 width="261.000000pt" height="261.000000pt" viewBox="0 0 261.000000 261.000000"
 preserveAspectRatio="xMidYMid meet">
<metadata>
Created by potrace 1.14, written by Peter Selinger 2001-2017
</metadata>
<g transform="translate(0.000000,261.000000) scale(0.100000,-0.100000)"
fill="#000000" stroke="none">
<path d="M0 1305 l0 -1305 1300 0 1300 0 0 1305 0 1305 -1300 0 -1300 0 0
-1305z m2149 1181 c20 -18 22 -27 17 -70 -10 -84 -80 -184 -163 -228 -42 -23
-81 -30 -317 -58 -297 -35 -353 -50 -419 -109 -57 -52 -67 -82 -67 -211 l0
-111 173 7 c211 8 276 2 317 -33 25 -21 30 -32 30 -71 0 -58 -16 -90 -56 -117
-17 -12 -129 -59 -248 -105 l-216 -84 0 -304 c0 -185 -4 -320 -11 -346 -22
-89 -110 -155 -211 -159 -45 -2 -52 1 -83 35 -43 47 -73 142 -87 278 -6 58
-27 238 -48 402 l-37 296 48 286 c26 157 55 311 64 343 53 184 175 301 372
355 71 19 113 22 448 28 428 8 461 6 494 -24z m-449 -1701 c43 -22 88 -89 96
-141 20 -134 -95 -258 -223 -240 -99 13 -163 90 -163 195 0 152 159 254 290
186z m-1054 -256 c50 -47 48 -123 -6 -171 -39 -36 -113 -39 -153 -8 -59 47
-52 144 13 188 44 30 109 26 146 -9z m459 -118 c46 -21 79 -54 94 -94 28 -72
0 -163 -62 -208 -72 -52 -152 -51 -214 4 -106 93 -74 250 62 304 43 17 74 15
120 -6z"/>
</g>
</svg>
