<?xml version="1.0" encoding="UTF-8" standalone="no"?>
<svg
   xmlns:dc="http://purl.org/dc/elements/1.1/"
   xmlns:cc="http://creativecommons.org/ns#"
   xmlns:rdf="http://www.w3.org/1999/02/22-rdf-syntax-ns#"
   xmlns:svg="http://www.w3.org/2000/svg"
   xmlns="http://www.w3.org/2000/svg"
   xmlns:sodipodi="http://sodipodi.sourceforge.net/DTD/sodipodi-0.dtd"
   xmlns:inkscape="http://www.inkscape.org/namespaces/inkscape"
   id="Layer_1"
   enable-background="new 0 0 480 480"
   height="547.61285"
   viewBox="0 0 939.37013 513.38705"
   width="1001.9948"
   version="1.1"
   sodipodi:docname="client-no-wing-card.svg"
   inkscape:version="0.92.3 (2405546, 2018-03-11)">
  <metadata
     id="metadata17">
    <rdf:RDF>
      <cc:Work
         rdf:about="">
        <dc:format>image/svg+xml</dc:format>
        <dc:type
           rdf:resource="http://purl.org/dc/dcmitype/StillImage" />
        <dc:title></dc:title>
      </cc:Work>
    </rdf:RDF>
  </metadata>
  <defs
     id="defs15" />
  <sodipodi:namedview
     pagecolor="#ffffff"
     bordercolor="#666666"
     borderopacity="1"
     objecttolerance="10"
     gridtolerance="10"
     guidetolerance="10"
     inkscape:pageopacity="0"
     inkscape:pageshadow="2"
     inkscape:window-width="1440"
     inkscape:window-height="858"
     id="namedview13"
     showgrid="false"
     inkscape:zoom="0.4609375"
     inkscape:cx="81.390204"
     inkscape:cy="189.50344"
     inkscape:window-x="-11"
     inkscape:window-y="-11"
     inkscape:window-maximized="1"
     inkscape:current-layer="Layer_1" />
  <g
     transform="matrix(0.9375,0,0,0.9375,-589.36261,-44.056913)"
     id="g6">
    <path
       inkscape:connector-curvature="0"
       style="fill:#dcdcdc"
       d="m 932.44459,349.52552 2.70822,-155.50455 C 936.32258,126.84823 882.83105,71.438169 815.65881,70.240122 L 633.07677,66.98632 v 0 c -0.49597,30.641328 18.84493,56.99335 46.17675,66.79745 l 0.47305,0.16331 c -0.38567,21.63686 12.82106,42.41981 31.61873,51.67645 l 1.978,0.91786 c -0.46066,25.84348 22.1799,50.97779 48.0241,51.43775 l 64.56839,1.15093 c 59.90292,1.06847 107.59657,50.49324 106.5288,110.39545 v 0"
       id="path2-2" />
    <path
       inkscape:connector-curvature="0"
       style="fill:#dcdcdc;fill-opacity:1"
       d="m 1211.6843,516.25096 106.0449,-113.76943 c 45.8079,-49.14451 122.7768,-51.8648 171.9406,-6.07761 l 133.6311,124.45688 v 0 c -20.9227,22.39148 -53.1396,27.92059 -79.614,15.99365 l -0.4538,-0.21101 c -14.7487,15.836 -38.6844,21.61804 -58.6382,15.22393 l -2.0606,-0.71324 c -17.6161,18.91482 -51.3615,21.27623 -70.2764,3.65912 l -47.2575,-44.0128 c -43.8434,-40.8321 -112.484,-38.39187 -153.3161,5.45051 v 0"
       id="path4-1" />
  </g>
  <g
     id="g861"
     transform="rotate(87.548745,148.19607,1039.3615)">
    <g
       id="g856"
       transform="translate(0.32928228,6.0928035)">
      <path
         inkscape:connector-curvature="0"
         d="m -419.78253,475.24105 42.81,-42.81094 c 10.05844,-10.0575 15.59719,-23.43 15.59719,-37.65469 0,-12.88218 -4.55625,-25.05656 -12.885,-34.71187 2.33156,-6.36094 3.55688,-13.14656 3.55688,-20.12344 0,-14.42531 -5.20875,-28.04532 -14.71969,-38.73282 10.88625,-26.95781 5.45156,-59.04187 -16.32,-80.88468 -1.75781,-1.7625 -4.14375,-2.75438 -6.63281,-2.75625 -0.003,0 -0.005,0 -0.005,0 -2.48906,0 -4.87313,0.98812 -6.63188,2.74593 l -121.05437,121.0547 c -48.11344,48.11343 -48.13032,126.41625 -0.0356,174.55031 l 103.05938,103.14375 v 0 c 9.3e-4,9.4e-4 0.002,0.002 0.003,0.003 1.83094,1.83094 4.23,2.74594 6.62906,2.74594 2.39906,0 4.79813,-0.915 6.62906,-2.74594 3.66,-3.66 3.66094,-9.59437 0.003,-13.25531 v 0 l -0.003,-0.003 c -35.99625,-35.99719 -35.99625,-94.5675 0,-130.56469 z m -103.05656,27.42281 c -40.79062,-40.8225 -40.77656,-107.23219 0.03,-148.03875 l 113.8575,-113.85657 c 15.45656,21.85125 13.40625,52.39969 -6.13406,71.94188 l -60.345,60.345 c -3.66094,3.66094 -3.66094,9.59719 0,13.25907 3.66187,3.66093 9.59812,3.66093 13.25906,0 l 66.96375,-66.96375 c 3.75094,6.14062 5.75531,13.21125 5.75531,20.59031 0,10.57875 -4.12031,20.52375 -11.59968,28.00406 l -59.16469,59.16469 c -3.66094,3.66094 -3.66094,9.59719 0,13.25812 1.83094,1.83094 4.23,2.74594 6.62906,2.74594 2.39906,0 4.79813,-0.91594 6.62906,-2.74594 0,0 61.32469,-61.43437 62.33438,-62.6175 7.46344,13.16063 5.60062,30.21657 -5.60531,41.4225 l -42.81,42.81 c -27.16782,27.16782 -37.28813,65.02407 -30.37032,100.15875 z"
         id="path10-5"
         style="stroke-width:0.9375" />
    </g>
  </g>
  <path
     inkscape:connector-curvature="0"
     d="m 291.48069,282.91418 c 6.7e-4,-0.01 -2e-5,-0.018 0.001,-0.0265 L 298.34537,137.2643 C 301.5488,69.295017 248.85913,11.371553 180.89394,8.1395107 L 9.8898455,0.01058565 c -2.485769,-0.118183 -4.917222,0.757062 -6.757594,2.43290705 -1.840293,1.675949 -2.93780797,4.015511 -3.05265497,6.500775 -0.942586,20.5373193 6.54391997,39.5547593 19.40171147,53.6948093 6.430495,7.0711 14.204592,12.92056 22.937313,17.13057 0.152732,14.30585 5.460754,27.886533 15.165063,38.559673 4.693542,5.16213 10.165022,9.35842 16.169301,12.49632 0.33304,12.74684 5.152588,24.82035 13.818166,34.35106 9.56871,10.524 22.663459,16.6928 36.871559,17.36765 l 60.47417,2.87521 c 50.85097,2.41701 90.2521,45.75454 87.83453,96.60348 -0.24456,5.17157 3.74766,9.56236 8.91974,9.81025 5.17149,0.24589 9.56367,-3.7476 9.80954,-8.91911 z M 185.80733,166.6909 125.33315,163.8157 C 109.57553,163.0685 96.758818,151.80538 93.356611,137.14063 l 88.208269,4.1938 c 5.1715,0.24588 9.56367,-3.74761 9.81026,-8.91974 0.24523,-5.1722 -3.74698,-9.56298 -8.91975,-9.81026 l -83.577091,-3.9736 C 88.311471,118.12844 78.573304,113.54145 71.457316,105.71503 66.493849,100.25604 63.220258,93.676147 61.864565,86.609407 l 94.592865,4.49734 0.002,-0.047 c 4.75734,-0.24171 8.64603,-4.05869 8.87698,-8.91633 0.23158,-4.85695 -3.27749,-9.02434 -7.99101,-9.71831 l 0.002,-0.0476 -0.931,-0.0443 v 0 L 72.104162,68.324687 C 44.499193,67.011457 22.429446,45.787527 19.165652,19.221938 l 160.837128,7.646889 c 57.64214,2.73988 102.32952,51.86634 99.61267,109.511583 l -3.9592,83.98593 c -18.51502,-30.64948 -51.46989,-51.85071 -89.84896,-53.67542 z"
     id="path14"
     style="stroke-width:0.9375" />
  <g
     id="g841"
     transform="matrix(0.79661017,0,0,0.69216624,159.61826,-101.66279)">
    <g
       id="g853"
       transform="matrix(0.87444362,0.55833008,-0.42152191,0.87444362,363.81518,-21.60766)">
      <path
         d="m 471.68286,708.27283 c 0,17.67 -14.33,32 -32,32 H 39.682858 c -17.67,0 -31.9999999,-14.33 -31.9999999,-32 V 418.27284 c 0,-17.67 14.3299999,-32 31.9999999,-32 H 439.68286 c 17.67,0 32,14.33 32,32 z"
         id="path2"
         style="fill:#4b0082"
         inkscape:connector-curvature="0" />
      <path
         d="m 439.78986,436.27284 h -110 c -150.281,0 -272.107002,121.82599 -272.107002,272.10699 0,31.537 -47.051,34.202 -49.8709999,2.791 -0.201,-2.244 -0.129,-293.90899 -0.129,-292.89799 0,-17.673 14.3269999,-32 31.9999999,-32 H 439.68286 c 34.366,0 32.651,50 0.107,50 z"
         id="path4"
         style="fill:#9932cc"
         inkscape:connector-curvature="0" />
      <path
         d="m 167.68286,474.27284 v 51.99999 c 0,13.25 -10.75,24 -24,24 H 91.682858 c -13.25,0 -24,-10.75 -24,-24 v -51.99999 c 0,-13.25 10.75,-24 24,-24 h 52.000002 c 13.25,0 24,10.75 24,24 z"
         id="path6"
         style="fill:#00ffff"
         inkscape:connector-curvature="0" />
      <path
         d="m 167.68286,489.81283 v 36.46 c 0,13.25 -10.75,24 -24,24 h -35.37 c 16.52,-23.11 36.58,-43.53 59.37,-60.46 z"
         id="path8"
         style="fill:#00ced1"
         inkscape:connector-curvature="0" />
      <g
         id="g844">
        <path
           inkscape:connector-curvature="0"
           d="M 40.001222,382.5 C 17.945222,382.5 0,400.4434 0,422.4994 V 712.5 c 0,22.056 17.945222,39.99939 40.001222,39.99939 H 440.00062 C 462.05662,752.49939 480,734.556 480,712.5 c 0,-4.418 -3.58188,-7.99988 -7.99987,-7.99988 -4.418,0 -7.99988,3.58188 -7.99988,7.99988 0,13.233 -10.76663,23.99963 -23.99963,23.99963 H 40.001222 c -13.233,0 -24.001463,-10.76663 -24.001463,-23.99963 V 422.4994 c 0,-13.233 10.768463,-23.99964 24.001463,-23.99964 H 440.00062 c 13.233,0 23.99963,10.76664 23.99963,23.99964 v 233.99963 c 0,4.41799 3.58188,7.99987 7.99988,7.99987 4.41799,0 7.99987,-3.58188 7.99987,-7.99987 V 422.4994 C 480,400.4434 462.05662,382.5 440.00062,382.5 Z m 52.000125,63.99904 C 74.35635,446.49904 60,460.85538 60,478.50037 v 51.99829 C 60,548.14366 74.35635,562.5 92.001347,562.5 h 52.000123 c 17.645,0 31.99951,-14.35634 31.99951,-32.00134 v -51.99829 c 0,-4.41799 -3.58187,-8.0017 -7.99987,-8.0017 -4.41801,0 -7.99989,3.58371 -7.99989,8.0017 v 51.99829 c 0,8.822 -7.17775,16.00159 -15.99975,16.00159 H 92.001347 c -8.821997,0 -16.001588,-7.17959 -16.001588,-16.00159 v -51.99829 c 0,-8.82199 7.179591,-16.00158 16.001588,-16.00158 h 41.998903 c 4.418,0 7.99988,-3.58187 7.99988,-7.99988 0,-4.418 -3.58188,-7.99987 -7.99988,-7.99987 z m 203.360603,21.53685 c 1.34333,1.50492 2.56239,3.2169 4.36523,4.17299 0.26935,0.0922 0.54447,0.17114 0.82031,0.24719 -1.96966,-1.41643 -3.69375,-2.89796 -5.18554,-4.42018 z M 67.999884,611.49903 C 63.581878,611.49903 60,615.0809 60,619.4989 c 0,4.41801 3.581878,7.99988 7.999884,7.99988 H 235.00122 c 4.41801,0 7.99988,-3.58187 7.99989,-7.99988 0,-4.418 -3.58188,-7.99987 -7.99989,-7.99987 z m 208.000486,0 c -4.418,0 -7.99988,3.58187 -7.99988,7.99987 0,4.41801 3.58188,7.99988 7.99988,7.99988 h 20.00061 c 4.418,0 7.99988,-3.58187 7.99988,-7.99988 0,-4.418 -3.58188,-7.99987 -7.99988,-7.99987 z m 59.00025,0 c -4.41801,0 -7.99989,3.58187 -7.99989,7.99987 0,4.41801 3.58188,7.99988 7.99989,7.99988 h 19.00085 c 4.418,0 7.99988,-3.58187 7.99988,-7.99988 0,-4.418 -3.58188,-7.99987 -7.99988,-7.99987 z M 67.999884,666.50025 c -4.418006,0 -7.999884,3.58188 -7.999884,7.99987 0,4.418 3.581878,7.99988 7.999884,7.99988 h 70.001226 c 4.418,0 7.99987,-3.58188 7.99987,-7.99988 0,-4.41799 -3.58187,-7.99987 -7.99987,-7.99987 z m 103.000486,0 c -4.418,0 -7.99988,3.58188 -7.99988,7.99987 0,4.418 3.58188,7.99988 7.99988,7.99988 h 5.00061 c 4.418,0 7.99988,-3.58188 7.99988,-7.99988 0,-4.41799 -3.58188,-7.99987 -7.99988,-7.99987 z"
           style="fill:#40e0d0;stroke-width:1"
           id="path10" />
      </g>
      <path
         style="opacity:0.95800003;fill:#40e0d0;fill-opacity:1;fill-rule:nonzero;stroke:#47ffff;stroke-width:0.09375;stroke-miterlimit:4;stroke-dasharray:none;stroke-opacity:1"
         id="path862"
         d="m 214.45863,489.03554 c 5.50102,0 11.00205,0 16.50307,0 5.48035,0 10.96072,0 16.44107,0 5.96695,0 11.93391,0 17.90086,0 6.10288,0 12.20576,0 18.30864,0 5.84522,0 11.69043,0 17.53564,0 5.48518,0 10.97035,0 16.45553,0 4.60914,0 9.21826,0 13.8274,0 4.51128,0 9.02256,0 13.53384,0 4.66627,0 9.33253,0 13.9988,0 4.67877,0 9.35754,0 14.03632,0 5.74701,0 11.49402,0 17.24101,0 5.77439,0 11.54877,0 17.32316,0 2.01232,0 4.02466,0 6.03698,0 12.94365,0 12.94365,18.30508 0,18.30508 v 0 c -2.01232,0 -4.02466,0 -6.03698,0 -5.77439,0 -11.54877,0 -17.32316,0 -5.74699,0 -11.494,0 -17.24101,0 -4.67878,0 -9.35755,0 -14.03632,0 -4.66627,0 -9.33253,0 -13.9988,0 -4.51128,0 -9.02256,0 -13.53384,0 -4.60914,0 -9.21826,0 -13.8274,0 -5.48518,0 -10.97035,0 -16.45553,0 -5.84521,0 -11.69042,0 -17.53564,0 -6.10288,0 -12.20576,0 -18.30864,0 -5.96695,0 -11.93391,0 -17.90086,0 -5.48035,0 -10.96072,0 -16.44107,0 -5.50102,0 -11.00205,0 -16.50307,0 -12.94365,0 -12.94365,-18.30508 0,-18.30508 z"
         inkscape:connector-curvature="0" />
    </g>
  </g>
</svg>
