<?xml version="1.0" encoding="UTF-8" standalone="no"?>
<svg
   xmlns:dc="http://purl.org/dc/elements/1.1/"
   xmlns:cc="http://creativecommons.org/ns#"
   xmlns:rdf="http://www.w3.org/1999/02/22-rdf-syntax-ns#"
   xmlns:svg="http://www.w3.org/2000/svg"
   xmlns="http://www.w3.org/2000/svg"
   xmlns:sodipodi="http://sodipodi.sourceforge.net/DTD/sodipodi-0.dtd"
   xmlns:inkscape="http://www.inkscape.org/namespaces/inkscape"
   id="fc1f5aea-a643-4136-ad0f-c5867679d735"
   data-name="Layer 1"
   width="1300.5648"
   height="900"
   viewBox="0 0 1300.5648 900"
   version="1.1"
   sodipodi:docname="empty-recorded-customers.svg"
   inkscape:version="0.92.3 (2405546, 2018-03-11)">
  <metadata
     id="metadata79">
    <rdf:RDF>
      <cc:Work
         rdf:about="">
        <dc:format>image/svg+xml</dc:format>
        <dc:type
           rdf:resource="http://purl.org/dc/dcmitype/StillImage" />
        <dc:title>add_file</dc:title>
      </cc:Work>
    </rdf:RDF>
  </metadata>
  <defs
     id="defs77">
    <linearGradient
       gradientUnits="userSpaceOnUse"
       y2="223.2"
       x2="597.34998"
       y1="783.63"
       x1="597.34998"
       id="528408a2-f79a-48f6-b2a6-578d2aaf4c5c">
      <stop
         id="stop2091"
         stop-opacity="0.25"
         stop-color="gray"
         offset="0" />
      <stop
         id="stop2093"
         stop-opacity="0.12"
         stop-color="gray"
         offset="0.54" />
      <stop
         id="stop2095"
         stop-opacity="0.1"
         stop-color="gray"
         offset="1" />
    </linearGradient>
  </defs>
  <sodipodi:namedview
     pagecolor="#ffffff"
     bordercolor="#666666"
     borderopacity="1"
     objecttolerance="10"
     gridtolerance="10"
     guidetolerance="10"
     inkscape:pageopacity="0"
     inkscape:pageshadow="2"
     inkscape:window-width="1440"
     inkscape:window-height="858"
     id="namedview75"
     showgrid="false"
     inkscape:zoom="0.43852551"
     inkscape:cx="333.58897"
     inkscape:cy="367.34591"
     inkscape:window-x="-11"
     inkscape:window-y="-11"
     inkscape:window-maximized="1"
     inkscape:current-layer="fc1f5aea-a643-4136-ad0f-c5867679d735" />
  <title
     id="title2">add_file</title>
  <polygon
     transform="matrix(0.80993814,-0.01649864,0,0.86457184,753.79853,61.292676)"
     style="fill:#ffb8b8"
     points="517.326,460.26 535.421,460.261 535.418,507.548 523.159,507.548 "
     id="polygon1030" />
  <path
     style="fill:#2f2e41;stroke-width:0.83680922"
     inkscape:connector-curvature="0"
     d="m 1170.432,488.58874 19.1501,-0.3901 v 12.87076 l -31.2076,0.63549 v 0 a 12.039903,12.889503 8.1195504 0 1 12.0575,-13.11637 z"
     id="path1032" />
  <polygon
     transform="matrix(0.80993814,-0.01649864,0,0.86457184,753.79853,61.292676)"
     style="fill:#ffb8b8"
     points="588.269,458.165 604.727,450.648 624.374,493.661 613.222,498.754 "
     id="polygon1034" />
  <path
     style="fill:#2f2e41;stroke-width:0.83680922"
     inkscape:connector-curvature="0"
     d="m 1242.8403,482.93054 17.4191,-8.84768 5.0094,11.60533 -28.3866,14.41843 v 0 a 12.039894,12.889495 8.1195545 0 1 5.9581,-17.17608 z"
     id="path1036" />
  <path
     style="fill:#ffb8b8;stroke-width:0.83680922"
     inkscape:connector-curvature="0"
     d="m 1230.5858,352.54217 a 8.132692,8.706579 8.1195582 0 0 0.6488,-13.32633 l 11.6725,-28.50921 -14.8288,2.98469 -8.811,26.61523 a 8.1767854,8.7537841 8.1195618 0 0 11.3185,12.23562 z"
     id="path1038" />
  <path
     style="fill:#2f2e41;stroke-width:0.83680922"
     inkscape:connector-curvature="0"
     d="m 1186.8216,480.50358 -9.486,0.19324 a 3.6530492,3.9108282 8.119555 0 1 -3.6352,-3.53453 l -10.0327,-147.25577 a 3.6392437,3.8960484 8.1195523 0 1 3.9892,-4.23525 l 59.7207,5.00265 a 3.6404811,3.8973732 8.1195588 0 1 3.2901,3.73152 l 1.1497,65.02294 a 2.8241912,3.0234814 8.1195495 0 0 0.1894,1.02789 l 22.5043,61.83635 a 3.6385481,3.8953038 8.1195537 0 1 -2.1408,5.09341 l -9.6126,3.97663 a 3.6403193,3.8972 8.1195543 0 1 -4.5011,-1.7793 l -27.6453,-56.81776 a 3.619146,3.8745326 8.1195572 0 1 -0.3275,-0.98118 l -4.7225,-24.19285 a 2.8306047,3.0303475 8.1195529 0 0 -5.5919,0.38409 l -9.5267,89.00602 a 3.6386128,3.8953731 8.1195536 0 1 -3.6211,3.5219 z"
     id="path1040" />
  <ellipse
     transform="matrix(0.99979259,-0.02036602,0,1,0,0)"
     ry="21.234774"
     rx="19.897041"
     style="fill:#ffb8b8;stroke-width:0.836896"
     cx="1191.7921"
     cy="217.07654"
     id="circle1042" />
  <path
     style="fill:#6c63ff;stroke-width:0.83680922"
     inkscape:connector-curvature="0"
     d="m 1167.4533,330.6813 c 2.5464,1.82333 31.2365,21.42041 63.9383,4.70228 -0.4237,-3.88955 -4.5044,-42.94602 -0.9402,-71.87202 1.6909,-13.72408 -3.4159,-26.30239 -14.0107,-34.51024 a 40.221901,43.060177 8.1195573 0 0 -40.5134,-3.8446 h -2e-4 q -0.8053,0.40141 -1.6218,0.83429 z"
     id="path1044" />
  <path
     style="fill:#6c63ff;stroke-width:0.83680922"
     inkscape:connector-curvature="0"
     d="m 1231.7021,335.05558 a 3.6282365,3.8842645 8.1195522 0 1 -2.6825,-1.20764 l -4.3514,-4.9789 a 3.657732,3.9158413 8.1195593 0 1 -0.8086,-3.71453 l 9.9662,-36.21023 -15.1638,-33.68292 a 6.7395134,7.2150899 8.1195542 0 1 -0.4613,-4.78542 6.7202082,7.1944225 8.1195544 0 1 12.4629,-1.95347 l 20.499,35.08814 a 9.2611144,9.9146289 8.1195663 0 1 0.5586,9.26587 l -16.6927,39.82071 a 3.6302098,3.8863771 8.1195516 0 1 -2.7454,2.29672 3.6937946,3.9544488 8.1195554 0 1 -0.581,0.0616 z"
     id="path1046" />
  <path
     style="opacity:0.2;stroke-width:0.83680922"
     inkscape:connector-curvature="0"
     d="m 1182.1751,331.4596 -7.9475,0.16189 13.8729,-69.97012 0.8005,0.0951 -3.086,65.94341 a 3.636599,3.8932172 8.119552 0 1 -3.6399,3.76968 z"
     id="path1048" />
  <path
     style="fill:#ffb8b8;stroke-width:0.83680922"
     inkscape:connector-curvature="0"
     d="m 1174.8214,348.93507 a 8.1327324,8.7066218 8.1195418 0 0 -1.9547,-13.127 l 5.9192,-30.3629 -13.9839,6.19551 -3.4771,27.88329 a 8.1767935,8.7537927 8.1195556 0 0 13.4965,9.4111 z"
     id="path1050" />
  <path
     style="fill:#6c63ff;stroke-width:0.83680922"
     inkscape:connector-curvature="0"
     d="m 1174.0198,331.7127 a 3.7957388,4.0635868 8.1195593 0 1 -0.4112,-0.0161 l -8.4757,-0.83291 a 3.651553,3.9092264 8.1195555 0 1 -3.2391,-3.96138 l 3.5069,-90.66318 a 10.940522,11.712544 8.1195595 0 1 21.6534,-2.44295 l 2.2589,11.04651 -0.011,0.0788 -11.6866,83.40327 a 3.6273468,3.8833121 8.1195606 0 1 -3.5958,3.38801 z"
     id="path1052" />
  <path
     style="fill:#2f2e41;stroke-width:0.83680922"
     inkscape:connector-curvature="0"
     d="m 1207.9351,211.19166 c -2.0628,0.41956 -3.7602,-2.6109 -4.017,-4.76161 -0.2566,-2.15072 0.4794,-4.22944 0.5597,-6.37304 0.08,-2.14359 -0.866,-4.72725 -2.9499,-5.31986 -2.1848,-0.62131 -4.21,1.2907 -6.4466,1.11129 -3.1166,-0.24999 -4.6813,-4.11141 -5.0588,-7.2532 -0.3776,-3.14177 -0.6742,-6.86544 -3.3733,-8.6065 -2.6907,-1.73566 -6.0193,-0.36512 -9.1111,-0.24641 -5.2255,0.20064 -10.5448,-3.9446 -11.7659,-9.1689 a 2.9596828,3.1685341 8.1195506 0 0 3.381,-1.51426 2.9954624,3.2068384 8.1195474 0 0 -0.9026,-3.76691 l 5.9232,2.97542 c -0.8095,-1.74214 0.4131,-3.77026 2.0959,-4.47053 1.6828,-0.70027 3.6405,-0.44105 5.4975,-0.17097 9.2742,1.34911 20.0162,0.37224 26.1679,7.7951 4.261,5.14147 7.7684,15.01879 7.2894,21.46582 -0.479,6.44703 -7.2894,18.30449 -7.2894,18.30449 z"
     id="path1054" />
  <ellipse
     style="fill:#e6e6e6;stroke-width:1.00009108"
     cx="882.63995"
     cy="254.31244"
     id="circle1080"
     transform="matrix(0.99981797,-0.01907955,0,1,0,0)"
     rx="10.001821"
     ry="10" />
  <g
     transform="matrix(-0.89228903,0,0,0.83411526,1149.4862,172.93945)"
     id="g1517">
    <path
       style="fill:#ff6584"
       inkscape:connector-curvature="0"
       d="m 341.28311,217.84168 c 0,0 20.21009,37.995 16.97648,58.20506 -3.23361,20.21006 -6.46723,37.995 0,47.69582 6.46723,9.70082 -34.76136,-1.61681 -34.76136,-1.61681 V 265.5375 Z"
       transform="translate(-187.09737,-148.25)"
       id="path1411" />
    <path
       style="fill:#fbbebe"
       inkscape:connector-curvature="0"
       d="m 384.53271,320.10474 c 0,0 -48.90842,54.56725 -64.26809,40.82439 -15.35967,-13.74286 -29.50673,-46.48321 -18.18908,-56.99246 6.11153,-5.675 6.56423,-16.53186 5.69119,-25.3273 a 85.23619,85.23619 0 0 0 -2.45758,-13.47607 c 0,0 24.25211,-7.27564 25.06051,7.27563 a 11.08578,11.08578 0 0 0 1.31771,4.89083 c 4.63213,8.22145 19.70079,4.00161 19.70079,4.00161 z"
       transform="translate(-187.09737,-148.25)"
       id="path1413" />
    <path
       style="fill:#fbbebe"
       inkscape:connector-curvature="0"
       d="m 348.15454,283.72658 3.23362,-2.42521 a 96.75249,96.75249 0 0 1 37.995,5.65882 c 19.40169,7.27564 53.35464,13.74286 63.05548,11.31765 9.70084,-2.42521 33.14455,-7.27563 33.14455,-7.27563 0,0 25.86892,-10.50925 31.52774,2.42521 5.65882,12.93446 -34.76135,12.93446 -34.76135,12.93446 0,0 -28.69833,11.72185 -48.90842,10.10505 -20.21009,-1.6168 -46.48321,7.67983 -58.60927,-2.021 -12.12606,-9.70083 -26.67735,-30.71935 -26.67735,-30.71935 z"
       transform="translate(-187.09737,-148.25)"
       id="path1415" />
    <path
       style="fill:#fbbebe"
       inkscape:connector-curvature="0"
       d="m 251.95451,592.53676 h -21.8269 l -8.084,16.16808 10.50924,11.31765 c 0,0 20.2101,-2.42521 25.86892,-8.89244 5.65882,-6.46723 -6.46726,-18.59329 -6.46726,-18.59329 z"
       transform="translate(-187.09737,-148.25)"
       id="path1417" />
    <path
       style="fill:#3f3d56"
       inkscape:connector-curvature="0"
       d="m 248.60528,592.53676 c 0,0 9.00806,-4.042 3.34923,-8.89244 -5.65883,-4.85044 -10.50925,-11.31765 -19.40169,-4.85042 -8.89244,6.46723 -52.54623,39.61178 -44.46219,50.92943 8.08404,11.31765 10.50924,8.89244 14.55126,6.46723 4.04202,-2.42521 16.97648,-12.126 27.48572,-12.126 10.50924,0 6.46723,-13.74287 2.42521,-17.78488 -4.04202,-4.04201 12.70318,-13.74292 16.05246,-13.74292 z"
       transform="translate(-187.09737,-148.25)"
       id="path1419" />
    <path
       style="fill:#fbbebe"
       inkscape:connector-curvature="0"
       d="m 332.79487,696.01243 -8.89244,15.35967 8.89244,9.70084 h 25.06052 c 0,0 -8.084,-16.16807 -4.85042,-23.4437 3.23358,-7.27563 -20.2101,-1.61681 -20.2101,-1.61681 z"
       transform="translate(-187.09737,-148.25)"
       id="path1421" />
    <path
       style="fill:#3f3d56"
       inkscape:connector-curvature="0"
       d="m 357.85539,707.33008 c 0,0 -8.89244,9.70084 -14.55127,8.084 -5.65883,-1.61684 -15.49606,-10.7881 -15.49606,-10.7881 0,0 -14.41487,14.02171 -7.94764,20.48894 6.46723,6.46723 32.33614,18.59328 39.61177,23.4437 7.27563,4.85042 31.52775,1.61681 30.71934,-4.042 -0.80841,-5.65881 -12.93446,-12.12606 -18.59328,-19.40169 -5.65882,-7.27563 -13.74286,-17.78485 -13.74286,-17.78485 z"
       transform="translate(-187.09737,-148.25)"
       id="path1423" />
    <path
       style="fill:#3f3d56"
       inkscape:connector-curvature="0"
       d="m 400.70078,442.17369 c 0,0 17.78488,55.77985 -6.46723,121.26054 0,0 -21.8269,96.2 -29.91093,115.60172 -8.08403,19.40172 -8.084,27.48573 -8.084,27.48573 0,0 -30.71934,0.8084 -28.29413,-5.65883 0,0 10.50925,-31.52774 10.50925,-43.6538 0,-12.12606 16.97648,-77.60674 16.97648,-77.60674 L 361.089,439.74848 Z"
       transform="translate(-187.09737,-148.25)"
       id="path1425" />
    <path
       style="opacity:0.1"
       inkscape:connector-curvature="0"
       d="m 400.70078,442.17369 c 0,0 17.78488,55.77985 -6.46723,121.26054 0,0 -21.8269,96.2 -29.91093,115.60172 -8.08403,19.40172 -8.084,27.48573 -8.084,27.48573 0,0 -30.71934,0.8084 -28.29413,-5.65883 0,0 10.50925,-31.52774 10.50925,-43.6538 0,-12.12606 16.97648,-77.60674 16.97648,-77.60674 L 361.089,439.74848 Z"
       transform="translate(-187.09737,-148.25)"
       id="path1427" />
    <path
       style="fill:#3f3d56"
       inkscape:connector-curvature="0"
       d="m 396.65876,446.21571 c 0,0 0,25.86891 -16.97648,37.18656 0,0 12.93446,90.54121 -3.23361,107.51769 -16.16807,16.97648 -42.84539,9.70084 -42.84539,9.70084 0,0 -44.4622,2.42521 -77.60675,15.35967 0,0 -25.86892,-7.27563 -4.85042,-25.86892 0,0 25.86891,-6.46723 33.953,-12.126 8.08409,-5.65877 45.2706,-16.97648 54.97145,-12.12606 0,0 -0.80841,-13.74286 -4.042,-23.4437 -2.91474,-8.74422 -8.084,-35.56976 -8.084,-35.56976 0,0 -22.6353,-42.84539 0,-65.48069 22.6353,-22.6353 68.7142,4.85037 68.7142,4.85037 z"
       transform="translate(-187.09737,-148.25)"
       id="path1429" />
    <path
       style="opacity:0.1"
       inkscape:connector-curvature="0"
       d="m 331.68737,277.29976 a 29.97514,29.97514 0 0 1 -23.92064,1.30961 85.23619,85.23619 0 0 0 -2.45758,-13.47607 c 0,0 24.25211,-7.27564 25.06051,7.27563 a 11.08578,11.08578 0 0 0 1.31771,4.89083 z"
       transform="translate(-187.09737,-148.25)"
       id="path1431" />
    <circle
       style="fill:#fbbebe"
       cx="131.14624"
       cy="99.906822"
       r="29.910931"
       id="circle1433" />
    <path
       style="fill:#6c63ff"
       inkscape:connector-curvature="0"
       d="m 316.6268,359.71652 c 0,0 33.95295,24.25211 18.59329,50.121 -15.35966,25.86889 -10.50925,40.42019 -10.50925,40.42019 0,0 29.10253,0 38.80337,6.46722 9.70084,6.46722 40.42018,-4.85042 40.42018,-4.85042 0,0 4.85043,-32.33614 -1.6168,-47.69581 -6.46723,-15.35967 -9.70085,-39.61178 -7.27564,-44.4622 2.42521,-4.85042 8.89244,-27.48572 -6.46723,-40.42018 l -8.74466,-4.69713 c 0,0 5.51105,23.29041 -31.67552,8.73915 0,2e-5 -8.08403,47.69583 -31.52774,36.37818 z"
       transform="translate(-187.09737,-148.25)"
       id="path1435" />
    <polygon
       style="fill:#6c63ff"
       points="193.959,167.788 194.574,169.704 195.802,173.577 190.976,168.225 161.259,135.323 159.95,133.876 161.478,133.65 162.318,134.531 192.957,166.616 193.903,167.603 "
       id="polygon1437" />
    <path
       style="fill:#6c63ff"
       inkscape:connector-curvature="0"
       d="m 350.72087,325.797 c 0,0 -25.20163,-21.86028 -42.98651,-16.20146 -17.78488,5.65882 8.62071,53.7555 14.0112,54.36347 l 2.15687,-0.20042 c 0,0 -33.14454,-40.42018 -14.55126,-52.54624 0,0 23.4437,2.42521 41.22858,16.97648 z"
       transform="translate(-187.09737,-148.25)"
       id="path1439" />
    <path
       style="fill:#fbbebe"
       inkscape:connector-curvature="0"
       d="m 335.22009,320.91315 59.01346,18.59328 97.81684,5.65882 c 0,0 28.29413,0.80841 23.4437,13.74287 -4.85043,12.93446 -30.71933,3.23361 -30.71933,3.23361 l -84.074,1.61681 c 0,0 -69.52271,-7.27563 -75.18154,-11.31765 -5.65883,-4.04202 3.23364,-33.95296 9.70087,-31.52774 z"
       transform="translate(-187.09737,-148.25)"
       id="path1441" />
    <path
       style="fill:#ff6584"
       inkscape:connector-curvature="0"
       d="m 309.35117,273.21733 c 0,0 -3.23362,-6.46723 3.23361,-13.74286 3.29248,-3.704 6.1659,-11.59856 8.19359,-18.45679 a 13.54255,13.54255 0 0 1 15.14967,-9.5348 c 5.78776,0.93419 11.8907,1.23219 13.84331,-1.11094 4.042,-4.85042 -0.8084,-30.71934 -32.33614,-25.06051 -31.52774,5.65883 -51.73784,-7.27564 -51.73784,23.4437 0,30.71934 19.40169,39.61178 5.65883,70.33112 -13.74286,30.71934 -40.42018,33.95295 -25.06051,54.163 15.35967,20.21005 55.77985,25.86892 58.20506,18.59328 2.42521,-7.27564 -9.70085,-35.56976 -1.61681,-46.88741 8.08404,-11.31765 21.8269,-23.4437 17.78488,-30.71933 -4.04202,-7.27563 -11.31765,-21.01846 -11.31765,-21.01846 z"
       transform="translate(-187.09737,-148.25)"
       id="path1443" />
    <line
       style="fill:none;stroke:#3f3d56;stroke-miterlimit:10"
       x1="26.55673"
       y1="603"
       x2="342.55673"
       y2="603"
       stroke-miterlimit="10"
       id="line1445" />
  </g>
  <g
     id="g1272"
     transform="translate(201.34316,62.162187)">
    <path
       id="path1181"
       transform="translate(-211.09726,-130.22403)"
       d="m 941.53245,725.07007 c 13.35843,-15.199 76.26475,-90.00934 31.55383,-102.34248 -33.58077,-9.26295 -37.322,41.69916 -36.1949,75.89894 -5.37716,-23.04158 -15.813,-49.95781 -34.14772,-38.0819 -26.42393,17.11543 23.08826,54.99167 36.02171,64.28979 0.21236,1.89073 0.35246,2.94155 0.35246,2.94155 0,0 0.5305,-0.57846 1.47618,-1.643 0.73881,0.51734 1.14973,0.79519 1.14973,0.79519 0,0 -0.0687,-0.67026 -0.21129,-1.85809 z"
       inkscape:connector-curvature="0"
       style="fill:#e6e6e6" />
    <path
       id="path1183"
       transform="translate(-211.09726,-130.22403)"
       d="m 264.28147,766.67679 c 15.3,-17.40808 87.3493,-103.09155 36.14,-117.21722 -38.46149,-10.60926 -42.74646,47.75982 -41.45557,86.93029 -6.15869,-26.3905 -18.11126,-57.21881 -39.11084,-43.61682 -30.26446,19.603 26.444,62.98432 41.25721,73.63385 0.24322,2.16553 0.40368,3.36908 0.40368,3.36908 0,0 0.60761,-0.66254 1.69074,-1.88183 0.84619,0.59252 1.31683,0.91076 1.31683,0.91076 0,0 -0.0788,-0.76764 -0.24205,-2.12811 z"
       inkscape:connector-curvature="0"
       style="fill:#e6e6e6" />
    <path
       id="path1185"
       transform="translate(-211.09726,-130.22403)"
       d="m 432.90283,181.27832 a 5.00589,5.00589 0 0 0 -5,5 v 535 a 5.00589,5.00589 0 0 0 5,5 h 430.99951 a 5.00588,5.00588 0 0 0 5,-5 v -535 a 5.00588,5.00588 0 0 0 -5,-5 z"
       inkscape:connector-curvature="0"
       style="fill:#e6e6e6" />
    <path
       id="path1187"
       d="m 383.16774,284.67932 h -97.86569 a 2.4965736,7.5 0 0 1 0,-15 h 97.86569 a 2.4965736,7.5 0 0 1 0,15 z"
       inkscape:connector-curvature="0"
       style="fill:#ffffff;stroke-width:0.57695448" />
    <path
       id="path1189"
       transform="translate(-211.09726,-130.22403)"
       d="M 797.927,275.15335 H 602.87847 c -2.748,0 -4.97573,-3.35791 -4.97573,-7.5 0,-4.14209 2.22774,-7.5 4.97573,-7.5 H 797.927 c 2.74831,0 4.97572,3.35791 4.97572,7.5 0,4.14209 -2.22739,7.5 -4.97572,7.5 z"
       inkscape:connector-curvature="0"
       style="fill:#ffffff" />
    <path
       id="path1191"
       transform="translate(-211.09726,-130.22403)"
       d="M 797.927,318.15335 H 602.87847 c -2.748,0 -4.97573,-3.35791 -4.97573,-7.5 0,-4.14209 2.22774,-7.5 4.97573,-7.5 H 797.927 c 2.74831,0 4.97572,3.35791 4.97572,7.5 0,4.14209 -2.22739,7.5 -4.97572,7.5 z"
       inkscape:connector-curvature="0"
       style="fill:#ffffff" />
    <path
       id="path1193"
       d="M 426.32904,333.17932 H 286.37572 a 3.5702378,7.5 0 0 1 0,-15 h 139.95332 a 3.5702378,7.5 0 0 1 0,15 z"
       inkscape:connector-curvature="0"
       style="fill:#ffffff;stroke-width:0.68995053" />
    <path
       id="path1195"
       d="M 466.3794,381.67932 H 287.372 a 4.5665156,7.5 0 0 1 0,-15 h 179.0074 a 4.5665156,7.5 0 0 1 0,15 z"
       inkscape:connector-curvature="0"
       style="fill:#ffffff;stroke-width:0.78030038" />
    <path
       id="path1197"
       transform="translate(-211.09726,-130.22403)"
       d="m 795.40274,560.40335 h -294 a 7.5,7.5 0 0 1 0,-15 h 294 a 7.5,7.5 0 0 1 0,15 z"
       inkscape:connector-curvature="0"
       style="fill:#ffffff" />
    <path
       id="path1199"
       d="M 588.12454,478.67932 H 443.83188 a 3.6809353,7.5 0 0 1 0,-15 h 144.29266 a 3.6809353,7.5 0 0 1 0,15 z"
       inkscape:connector-curvature="0"
       style="fill:#ffffff;stroke-width:0.70056504" />
    <path
       id="path1201"
       d="M 587.57106,527.17932 H 421.58168 a 4.2344229,7.5 0 0 1 0,-15 h 165.98938 a 4.2344229,7.5 0 0 1 0,15 z"
       inkscape:connector-curvature="0"
       style="fill:#ffffff;stroke-width:0.75139189" />
    <circle
       id="circle1203"
       r="39.5"
       cy="159.42932"
       cx="322.30548"
       style="fill:#c6c6c6;fill-opacity:1" />
    <path
       id="path1205"
       transform="translate(-211.09726,-130.22403)"
       d="M 594.265,414.90335"
       inkscape:connector-curvature="0"
       style="fill:#ffffff" />
    <path
       id="path1207"
       transform="translate(-211.09726,-130.22403)"
       d="m 503.50718,428.18833 -58.90306,31.31555 -0.74561,-26.09629 c 19.22553,-3.20948 37.51669,-8.7974 54.42941,-17.8946 l 6.1605,-15.22008 a 10.31753,10.31753 0 0 1 17.53643,-2.67788 v 0 a 10.31752,10.31752 0 0 1 -0.90847,14.06885 z"
       inkscape:connector-curvature="0"
       style="fill:#ffb8b8" />
    <path
       id="path1209"
       transform="translate(-211.09726,-130.22403)"
       d="m 359.58341,608.993 v 0 a 11.57378,11.57378 0 0 1 1.46928,-9.36311 L 373.992,579.77208 a 22.6122,22.6122 0 0 1 29.335,-7.73927 v 0 c -5.438,9.25647 -4.67994,17.37679 1.87806,24.43365 A 117.63085,117.63085 0 0 0 377.269,615.51139 11.57386,11.57386 0 0 1 359.58341,608.993 Z"
       inkscape:connector-curvature="0"
       style="fill:#2f2e41" />
    <path
       id="path1211"
       transform="translate(-211.09726,-130.22403)"
       d="m 506.19,583.02865 v 0 a 22.20317,22.20317 0 0 1 -18.87085,10.77909 l -85.96027,0.65122 -3.728,-21.62265 38.026,-11.18412 -32.06116,-24.60508 35.04359,-41.00845 63.64999,59.32434 a 22.20316,22.20316 0 0 1 3.9007,27.66565 z"
       inkscape:connector-curvature="0"
       style="fill:#2f2e41" />
    <path
       id="path1213"
       transform="translate(-211.09726,-130.22403)"
       d="M 387.93788,730.90531 H 367.80646 C 349.73137,607.00759 331.33263,482.76345 385.70106,436.39 l 64.12232,10.43852 -8.2017,54.4294 -35.7892,41.00846 z"
       inkscape:connector-curvature="0"
       style="fill:#2f2e41" />
    <path
       id="path1215"
       transform="translate(-211.09726,-130.22403)"
       d="m 403.63439,768.97185 v 0 a 11.57385,11.57385 0 0 1 -9.3632,-1.46873 L 374.41263,754.565 a 22.61221,22.61221 0 0 1 -7.741,-29.33451 v 0 c 9.2568,5.43749 17.37707,4.67891 24.43355,-1.87951 a 117.6303,117.6303 0 0 0 19.04656,27.93494 11.57385,11.57385 0 0 1 -6.51735,17.68593 z"
       inkscape:connector-curvature="0"
       style="fill:#2f2e41" />
    <path
       id="path1217"
       transform="translate(-211.09726,-130.22403)"
       d="M 475.81051,350.27835 H 380.109 c -17.6737,-25.00341 -19.748,-48.91343 0,-71.29391 0,-9.89633 12.78255,-17.9189 28.55061,-17.9189 h 5e-5 c 12.35162,0 23.30262,4.985 27.13873,12.35373 z"
       inkscape:connector-curvature="0"
       style="fill:#2f2e41" />
    <path
       id="path1219"
       transform="translate(-211.09726,-130.22403)"
       d="m 435.65682,353.62749 -37.28042,-8.9473 c 6.19168,-12.6739 6.70156,-26.77618 3.728,-41.75406 l 25.35068,-0.74561 c 0.79435,18.62539 3.19746,36.02621 8.20174,51.44697 z"
       inkscape:connector-curvature="0"
       style="fill:#ffb8b8" />
    <path
       id="path1221"
       transform="translate(-211.09726,-130.22403)"
       d="m 445.90274,469.27835 c -27.13873,18.49307 -46.31417,0.63272 -60.94729,-26.92346 2.03338,-16.86188 -1.259,-37.04061 -7.35671,-58.96635 a 40.1376,40.1376 0 0 1 24.50567,-48.40124 v 0 l 32.06116,13.421 c 27.22362,22.19038 32.582,46.227 22.36825,71.5784 z"
       inkscape:connector-curvature="0"
       style="fill:#6c63ff" />
    <path
       id="path1223"
       transform="translate(-211.09726,-130.22403)"
       d="m 367.80646,372.2677 -29.82434,15.65778 52.9382,31.31555 7.366,18.16951 a 9.63674,9.63674 0 0 1 -5.78926,12.73088 v 0 A 9.63674,9.63674 0 0 1 379.73547,441.597 l -0.74489,-12.66307 -67.2838,-22.20366 a 15.73308,15.73308 0 0 1 -9.87265,-9.61147 v 0 a 15.73306,15.73306 0 0 1 5.90261,-18.30259 l 54.10485,-37.11844 z"
       inkscape:connector-curvature="0"
       style="fill:#ffb8b8" />
    <path
       id="path1225"
       transform="translate(-211.09726,-130.22403)"
       d="m 397.63079,375.25014 c -12.43861,-5.45111 -23.74934,0.47044 -38.026,5.21925 l -2.23683,-39.51724 c 14.17612,-7.55568 27.69209,-9.59281 40.26285,-3.728 z"
       inkscape:connector-curvature="0"
       style="fill:#6c63ff" />
    <path
       id="path1227"
       transform="translate(-211.09726,-130.22403)"
       d="m 474.05565,350.27835 h -21.10822 c -13.13752,-24.23557 -12.54109,-67.05554 -40.77728,-57.51207 -18.14071,-10.76664 -7.73195,31.48445 -12.24283,57.51207 h -18.357 c -4.98808,-25.43029 -5.05734,-50.91272 0.81059,-71.63526 a 9.65549,9.65549 0 0 1 3.51179,-7.05923 19.95187,19.95187 0 0 1 2.94512,-2.2377 c 6.48684,-4.0867 10.84335,-6.41448 20.32,-6.41448 a 57.20354,57.20354 0 0 1 15.68763,2.15712 c 0.6636,0.19439 1.31974,0.403 1.95349,0.62106 0.87239,0.29868 1.71484,0.6258 2.52016,0.97662 4.14562,1.78259 7.40384,4.19573 8.9473,7.2157 17.86479,21.30568 26.9836,48.18669 35.78925,76.37617 z"
       inkscape:connector-curvature="0"
       style="fill:#2f2e41" />
    <circle
       id="circle1229"
       r="23.802111"
       cy="167.72864"
       cx="201.41293"
       style="fill:#ffb8b8" />
    <path
       id="path1231"
       transform="translate(-211.09726,-130.22403)"
       d="m 436.65233,288.77186 c -7.16073,-9.76016 -25.83491,1.88251 -48.28429,10.2009 v -23.12205 c 18.46723,-8.12972 29.236,-10.47468 41.48368,-2.04018 z"
       inkscape:connector-curvature="0"
       style="fill:#2f2e41" />
    <circle
       id="circle1233"
       r="57.658852"
       cy="57.658852"
       cx="644.14667"
       style="fill:#6c63ff" />
    <path
       id="path1235"
       transform="translate(-211.09726,-130.22403)"
       d="m 831.21973,184.07813 a 3.80493,3.80493 0 1 0 0,7.60986 h 20.21972 v 20.21924 a 3.80469,3.80469 0 1 0 7.60938,0 V 191.688 h 20.21972 a 3.80493,3.80493 0 0 0 0,-7.60986 H 859.04883 V 163.8584 a 3.80469,3.80469 0 1 0 -7.60938,0 v 20.21973 z"
       inkscape:connector-curvature="0"
       style="fill:#ffffff" />
  </g>
  <g
     id="g1697"
     transform="matrix(0.40718857,0,0,0.46303544,-156.00894,-172.03768)">
    <polygon
       id="polygon1614"
       points="524.114,756.5 534.114,801.5 568.114,787.5 554.114,758.5 "
       style="fill:#ffb9b9" />
    <polygon
       id="polygon1616"
       points="759.114,606.5 719.114,637.5 640.114,732.5 649.114,746.5 745.114,681.5 810.114,766.5 872.114,735.5 829.114,674.5 "
       style="fill:#2f2e41" />
    <polygon
       id="polygon1618"
       points="759.114,606.5 719.114,637.5 640.114,732.5 649.114,746.5 745.114,681.5 810.114,766.5 872.114,735.5 829.114,674.5 "
       style="opacity:0.1" />
    <path
       id="path1620"
       transform="translate(-23.45581,-34.85863)"
       d="m 858.56958,754.35863 -9,7 -73,-25 -17,-7 -34,7 c 0,0 0,-28 32,-27 l 33,8 39,3 z"
       inkscape:connector-curvature="0"
       style="fill:#ffb9b9" />
    <polygon
       id="polygon1622"
       points="878.114,807.5 852.114,807.5 731.114,762.5 554.114,794.5 549.114,756.5 711.114,685.5 853.114,732.5 900.114,793.5 "
       style="fill:#2f2e41" />
    <path
       id="path1624"
       transform="translate(-23.45581,-34.85863)"
       d="m 781.56958,650.35863 -15,3 -3.26873,-3.81352 a 20.20619,20.20619 0 0 1 -2.73128,-22.18647 v 0 l 42,-55 c 0,0 12,-27 31,-16 19,11 -16,29 -16,29 l -21,33 2,17 z"
       inkscape:connector-curvature="0"
       style="fill:#ffb9b9" />
    <circle
       id="circle1626"
       r="39"
       cy="511.5"
       cx="853.11377"
       style="fill:#ffb9b9" />
    <path
       id="path1628"
       transform="translate(-23.45581,-34.85863)"
       d="m 859.06958,574.85863 18,43 43,-18 c 0,0 -14,-34 -14,-35 0,-1 -47,10 -47,10 z"
       inkscape:connector-curvature="0"
       style="fill:#ffb9b9" />
    <path
       id="path1630"
       transform="translate(-23.45581,-34.85863)"
       d="m 977.47955,702.06859 a 224.07967,224.07967 0 0 1 -10.99,69.31 l -2.92,8.98 -14,64 -15,4 -11,-14 -22,-16 -16,-26 -13.72,-22.86 -4.28,-7.14 -15,-75 -57,-32 -19,-3 4,-11 17,-23 17,-2 5,-4 4,2 16,-9 5,2 29.24,2.72 17.76,-3.72 25.54,-13.71 10.46,1.71 36,30 a 223.883,223.883 0 0 1 13.91,77.71 z"
       inkscape:connector-curvature="0"
       style="fill:#6c63ff;fill-opacity:1" />
    <path
       id="path1632"
       transform="translate(-23.45581,-34.85863)"
       d="m 556.77841,808.84314 c 0,0 8.95672,-15.1802 5.1736,-16.95245 -3.78312,-1.77225 -19.84944,-8.83742 -19.84944,-8.83742 l -23.561,-7.80812 c 0,0 -33.99706,-50.52658 -34.7433,-6.58794 -0.74624,43.93864 24.754,54.50058 24.754,54.50058 0,0 22.74316,48.94521 35.62616,41.14036 12.883,-7.80485 25.77439,-34.29908 25.77439,-34.29908 0,0 -23.232,-12.48882 -13.17441,-21.15593 z"
       inkscape:connector-curvature="0"
       style="fill:#2f2e41" />
    <polygon
       id="polygon1634"
       points="844.114,727.5 832.114,667.5 835.114,667.5 866.114,610.5 943.114,658.5 905.114,683.5 848.394,734.64 "
       style="opacity:0.1" />
    <polygon
       id="polygon1636"
       points="835.114,661.5 824.114,661.5 817.114,681.5 801.114,685.5 844.114,732.5 905.114,677.5 943.114,652.5 866.114,604.5 "
       style="fill:#6c63ff;fill-opacity:1" />
    <path
       id="path1638"
       transform="translate(-23.45581,-34.85863)"
       d="m 846.23553,517.36044 -4.22553,1.62578 a 5.89887,5.89887 0 0 1 -1.508,-8.292 l -7.80871,-0.36541 a 58.965,58.965 0 0 1 88.02685,-7.09517 c 0.35552,-1.22442 4.23105,1.15782 5.8133,3.57335 0.53165,-1.99246 4.16545,7.63918 5.4507,14.44745 0.595,-2.26687 2.88291,1.39269 0.87853,4.9042 1.27,-0.18555 1.84363,3.0637 0.86049,4.87388 1.38932,-0.65272 1.15517,3.22594 -0.35123,5.818 1.98254,-0.17615 -15.63561,27.16738 -22.76891,43.14727 -2.07127,-9.51695 -4.40015,-19.53847 -11.079,-26.62758 -1.13524,-1.205 -2.37842,-2.3025 -3.61958,-3.39808 l -6.713,-5.92559 c -7.80593,-6.89033 -14.90676,-15.39442 -25.3056,-17.96964 -7.14637,-1.76976 -11.665,-2.16933 -7.77042,-10.2221 -3.51866,1.46835 -6.80449,3.65195 -10.35469,5.01575 0.0477,-1.12519 0.54386,-2.38431 0.4748,-3.51011 z"
       inkscape:connector-curvature="0"
       style="fill:#2f2e41" />
    <circle
       id="circle1640"
       r="7"
       cy="516"
       cx="872.61377"
       style="fill:#ffb9b9" />
  </g>
  <g
     id="g2658"
     transform="matrix(0.53724202,0,0,0.54769013,479.97159,433.33745)">
    <circle
       id="circle2112"
       r="3.75"
       cy="71.809998"
       cx="241.32001"
       style="fill:#e7effd" />
    <circle
       id="circle2116"
       r="1.61"
       cy="71.809998"
       cx="283.67999"
       style="fill:#e7effd" />
    <circle
       id="circle2122"
       r="1.61"
       cy="95.529999"
       cx="904.01001"
       style="fill:#e7effd" />
    <circle
       id="circle2124"
       r="1.61"
       cy="97.010002"
       cx="358.73999"
       style="fill:#e7effd" />
    <circle
       id="circle2126"
       r="1.61"
       cy="93.790001"
       cx="824.65997"
       style="fill:#e7effd" />
    <circle
       id="circle2128"
       r="1.61"
       cy="98.620003"
       cx="1027.33"
       style="fill:#e7effd" />
    <rect
       id="rect2150"
       height="19.299999"
       width="28.6"
       y="455.07001"
       x="659.88"
       style="opacity:0.4" />
    <rect
       id="rect2156"
       height="19.299999"
       width="28.6"
       y="514.04999"
       x="659.88"
       style="opacity:0.4" />
    <rect
       id="rect2162"
       height="19.299999"
       width="28.6"
       y="573.03003"
       x="659.88"
       style="opacity:0.4" />
    <rect
       id="rect2164"
       height="19.299999"
       width="28.6"
       y="573.03003"
       x="737.09003"
       style="opacity:0.4" />
    <rect
       id="rect2166"
       height="19.299999"
       width="28.6"
       y="573.03003"
       x="820.01001"
       style="opacity:0.4" />
    <rect
       id="rect2204"
       height="17.25"
       width="142.98"
       y="446.45001"
       x="408.95999"
       style="opacity:0.4" />
    <rect
       id="rect2206"
       height="17.25"
       width="142.98"
       y="501.48999"
       x="408.95999"
       style="opacity:0.4" />
    <rect
       id="rect2208"
       height="17.25"
       width="142.98"
       y="556.53998"
       x="408.95999"
       style="opacity:0.4" />
    <polygon
       id="polygon2218"
       points="331.97,229.81 331.97,230.25 334.43,230.25 334.43,232.71 334.87,232.71 334.87,230.25 337.33,230.25 337.33,229.81 334.87,229.81 334.87,227.35 334.43,227.35 334.43,229.81 "
       style="fill:#e7effd" />
    <polygon
       id="polygon2220"
       points="843.25,178.68 843.25,179.12 845.7,179.12 845.7,181.58 846.15,181.58 846.15,179.12 848.61,179.12 848.61,178.68 846.15,178.68 846.15,176.22 845.7,176.22 845.7,178.68 "
       style="fill:#e7effd" />
    <polygon
       id="polygon2222"
       points="390.24,168.73 390.24,169.18 392.69,169.18 392.69,171.63 393.14,171.63 393.14,169.18 395.6,169.18 395.6,168.73 393.14,168.73 393.14,166.27 392.69,166.27 392.69,168.73 "
       style="fill:#e7effd" />
    <circle
       id="circle2224"
       r="1.61"
       cy="325.95999"
       cx="391.85001"
       style="fill:#e7effd" />
    <circle
       id="circle2226"
       r="1.61"
       cy="182.12"
       cx="759.02002"
       style="fill:#e7effd" />
    <circle
       id="circle2228"
       r="1.61"
       cy="258.37"
       cx="920.81"
       style="fill:#e7effd" />
    <circle
       id="circle2230"
       r="1.61"
       cy="272.17999"
       cx="667.42999"
       style="fill:#e7effd" />
    <path
       id="path2232"
       transform="translate(-45.11,-75.83)"
       d="m 760.43,619 c 0,0 -34.31,8.3 -47.89,23.83 -4.55,5.19 -11.3,8.93 -18.27,11.6 V 631 c 7.85,-13.18 15.76,-27.84 15.76,-27.84 0.36,-0.72 3.22,-10.83 3.22,-10.83 6.44,-5.06 -0.36,-22.74 -0.36,-22.74 0,0 3.94,-11.19 1.79,-13.36 -2.15,-2.17 -0.36,-7.94 1.43,-10.47 1.79,-2.53 1.43,-5.78 1.43,-7.94 0,-2.16 -2.86,-5.42 -7.51,-7.22 -4.65,-1.8 0.36,-4.69 3.22,-5.42 2.86,-0.73 3.58,-7.58 0.36,-11.19 -3.22,-3.61 0.36,-5.77 2.14,-9.74 C 717.53,500.28 710,501 710,501 v -36.5 0 c 0,0 -2.15,-11.91 -4.29,-32.85 -2.14,-20.94 -10.37,-23.1 -10.37,-23.1 a 94.19,94.19 0 0 1 -12.87,-5.06 88.15,88.15 0 0 0 -13.58,-5.05 c 0,0 -9.65,0 -17.52,-2.42 -7.87,-2.42 -11.95,-2.59 -11.95,-2.59 l -1.29,-0.64 a 46.83,46.83 0 0 1 -21.69,-23 c -0.22,-0.5 -0.42,-1 -0.62,-1.48 a 50.48,50.48 0 0 0 5.71,-7.58 v -0.06 c 0,0.37 0,0.74 0,1.11 0,0.15 0,0.31 0,0.46 0,0.89 0,1.78 0,2.67 v 0 0.09 c 5.7,-10.07 22.24,-12.37 23.81,-23.87 a 12,12 0 0 0 0.11,-1.58 v -0.07 c 0,-0.38 0,-0.77 0,-1.16 -0.21,-3.21 -1.31,-6.41 -1.52,-9.65 a 18.53,18.53 0 0 1 0,-2.79 v 0.06 c 0.74,-8.93 7.47,-16.7 10.55,-25.37 a 30.41,30.41 0 0 0 1.61,-7.22 v -0.07 c 0.08,-0.74 0.13,-1.49 0.15,-2.24 0,-0.18 0,-0.37 0,-0.55 0,-0.52 0,-1 0,-1.56 a 33.78,33.78 0 0 0 -11.15,-24.4 c -5.7,-4.95 -13.23,-8.06 -17.18,-14.53 -1.84,-3 -2.74,-6.56 -4.75,-9.46 -3.78,-5.48 -10.72,-7.71 -17.29,-8.5 -6.57,-0.79 -13.32,-0.53 -19.6,-2.59 -4.46,-1.46 -8.5,-4.05 -13,-5.35 a 24.87,24.87 0 0 0 -26.71,9.63 c -2.37,3.46 -3.92,7.6 -7.12,10.3 -6.55,5.54 -17.66,3.14 -23.4,9.52 -3.15,3.51 -3.51,8.29 -3.13,13.17 0,0.06 0,0.12 0,0.18 0,0.37 0.07,0.75 0.11,1.13 0,0.18 0,0.36 0,0.53 0,0.17 0,0.38 0.07,0.57 0.2,1.75 0.45,3.49 0.67,5.17 0,0.26 0.06,0.51 0.09,0.77 l 0.18,1.57 c 0,0.38 0.06,0.76 0.1,1.14 0.04,0.38 0.07,1 0.1,1.42 0.03,0.42 0,0.74 0.07,1.12 a 77.16,77.16 0 0 1 -8.2,38.5 c -5.41,10.61 -13.45,20.39 -14.85,32.24 a 34.73,34.73 0 0 0 -0.16,5.85 c 0,0.23 0,0.46 0,0.69 0,0.23 0.06,0.7 0.09,1.05 0.03,0.35 0.08,0.81 0.13,1.21 0,0.23 0.06,0.46 0.09,0.69 0.07,0.53 0.15,1.06 0.24,1.6 l 0.06,0.34 c 1.42,8.08 4.64,16 6.35,24.16 a 65.34,65.34 0 0 1 1.28,9.13 0.13,0.13 0 0 0 0,0.06 c 0.06,1 0.11,1.95 0.14,2.93 0,1.32 0,2.65 0,4 a 63.46,63.46 0 0 1 -8.33,2.56 c -5,0.72 -19.67,13.72 -18.6,17 1.07,3.28 -6.56,26 -6.77,26.69 v 0 l -12,83 c 0,0 -6.37,6.14 -4.38,10.11 1.99,3.97 -0.39,10.83 -0.39,10.83 0,0 -10.76,4.69 -8.37,7.58 2.39,2.89 1.3,8.3 -0.34,11.91 -1.64,3.61 -4.33,10.11 0,11.19 4.33,1.08 0.74,15.17 0.74,15.17 0,0 15.09,-1.74 14,7.22 -0.36,2.85 10.55,10.69 15.1,13.83 V 663 c -6.11,-1.71 -13.29,-3.93 -17.87,-6.07 -9.29,-4.33 -61.48,-12.63 -72.92,12.28 -11.44,24.91 15.73,58.12 22.52,61.73 0,0 6.44,5.05 7.87,7.58 1.43,2.53 9.65,3.25 9.65,3.25 0,0 8.58,4 10.72,6.13 1.58,1.6 14.65,5.75 30.14,9 v 0 c 0,0 -12.51,28.8 7.9,26.43 20.41,-2.37 30.35,-12.42 44.74,-12.42 5.75,0 16.43,-0.81 27.18,-1.77 a 72.24,72.24 0 0 1 8,1.89 102.81,102.81 0 0 0 18.58,4 c 0,0 16.09,8.66 24.67,6.49 a 5.45,5.45 0 0 0 1.94,-1 h 0.2 c 1.56,-0.39 3.33,-2 5.17,-4.43 10.73,1.1 23,2.66 27.56,4.44 8.89,3.43 72.48,-1.32 72.48,-1.32 0,0 41.08,0.81 52.85,4.37 11.77,3.56 7.59,-36.35 -14.13,-40.84 a 89.12,89.12 0 0 0 -17.61,-1.74 39.5,39.5 0 0 0 4.11,-5 c 7.82,-0.71 13,-1.15 13,-1.15 0,0 20.73,-10.11 32.53,-16.25 a 74.22,74.22 0 0 0 20,-15.88 c 0,0 10.36,-6.5 14.65,-9 4.29,-2.5 6.43,-10.83 6.43,-10.83 C 843,609.24 760.43,619 760.43,619 Z m -93.08,-92.38 c 0,-1.21 0,-2.43 0,-3.64 1.16,0.82 0.99,2.11 0,3.63 z m 0.34,25.53 c 0.87,1.14 1.71,2.18 2.31,3 2.31,3 -1.87,4.4 -1.57,9.37 0.07,1.11 0.17,2.66 0.27,4.38 v 0 c -0.44,-7.17 -0.8,-13.07 -1.01,-16.76 z"
       inkscape:connector-curvature="0"
       style="fill:url(#528408a2-f79a-48f6-b2a6-578d2aaf4c5c)" />
    <path
       id="path2234"
       transform="translate(-45.11,-75.83)"
       d="m 481.63,666.07 c 0,0 -20,-4.65 -29.31,-8.94 -9.31,-4.29 -61.48,-12.51 -72.92,12.16 -11.44,24.67 15.73,57.54 22.52,61.12 6.79,3.58 72.92,-45.41 72.92,-45.41 l 52.16,22 10,-34.14 z"
       inkscape:connector-curvature="0"
       style="fill:#65617d" />
    <rect
       id="rect2236"
       ry="36.830002"
       rx="36.830002"
       height="78.989998"
       width="227.07001"
       y="597.03003"
       x="458.59"
       style="fill:#65617d" />
    <path
       id="path2238"
       transform="translate(-45.11,-75.83)"
       d="m 730.77,712.35 a 39.41,39.41 0 0 1 -6.58,21.84 40,40 0 0 1 -5,6.1 39.37,39.37 0 0 1 -27.93,11.57 H 543.2 a 39.5,39.5 0 0 1 0,-79 h 148.07 a 39.5,39.5 0 0 1 39.5,39.49 z"
       inkscape:connector-curvature="0"
       style="opacity:0.1" />
    <path
       id="path2240"
       transform="translate(-45.11,-75.83)"
       d="m 607.14,714.66 c 0,0 -22.77,5.85 -41.35,5.59 -18.58,-0.26 -105.49,35.85 -105.49,35.85 0,0 -12.51,28.52 7.9,26.16 20.41,-2.36 30.35,-12.26 44.74,-12.26 14.39,0 59.66,-5 59.66,-5 l 43.56,-32.18 z"
       inkscape:connector-curvature="0"
       style="fill:#fbbebe" />
    <path
       id="path2242"
       transform="translate(-45.11,-75.83)"
       d="m 621.39,445.53 -40.84,8.05 -2.65,0.53 c 0,0 -32.29,-8.58 -33.36,-9.3 -1.07,-0.72 -30.38,-40.21 -30.38,-40.21 0,0 14.82,0.16 26.46,-6.55 0.42,-0.24 0.83,-0.5 1.24,-0.75 a 25.8,25.8 0 0 0 11,-13.49 c 0.21,-0.59 0.39,-1.2 0.56,-1.84 1.24,-4.78 1.32,-10.57 -0.34,-17.58 -4,-16.67 5.2,-21.26 17.39,-20.86 17.61,0.58 41.58,11.57 41.58,11.57 a 48.87,48.87 0 0 0 3.77,16.3 c 0.19,0.48 0.4,1 0.62,1.46 a 46.54,46.54 0 0 0 21.69,22.75 l 1.29,0.64 c 1.3,0.62 2.67,1.21 4.09,1.74 31.14,11.8 -22.12,47.54 -22.12,47.54 z"
       inkscape:connector-curvature="0"
       style="fill:#fbbebe" />
    <path
       id="path2244"
       transform="translate(-45.11,-75.83)"
       d="m 616.48,372.86 a 51.51,51.51 0 0 1 -63.58,10.95 c 1.76,-5.12 2.09,-11.49 0.22,-19.42 -9.65,-40.75 59,-9.29 59,-9.29 a 49.53,49.53 0 0 0 4.36,17.76 z"
       inkscape:connector-curvature="0"
       style="opacity:0.1" />
    <path
       id="path2246"
       transform="translate(-45.11,-75.83)"
       d="m 629.37,336.66 a 51.12,51.12 0 0 1 -7.8,27.23 50.39,50.39 0 0 1 -5.71,7.51 A 51.18,51.18 0 0 1 581,388 c -1,0.07 -2.07,0.1 -3.11,0.1 a 51.47,51.47 0 1 1 51.47,-51.47 z"
       inkscape:connector-curvature="0"
       style="fill:#fbbebe" />
    <path
       id="path2248"
       transform="translate(-45.11,-75.83)"
       d="m 621.39,445.53 -40.84,8.05 -2.65,0.53 c 0,0 -32.29,-8.58 -33.36,-9.3 -1.07,-0.72 -30.38,-40.21 -30.38,-40.21 0,0 14.82,0.16 26.46,-6.55 0.42,-0.24 0.83,-0.5 1.24,-0.75 3.7,4 15.81,15.31 34.84,15.23 A 50.33,50.33 0 0 0 584,412 c 5.74,-0.88 11.53,-1.45 17.31,-2 11.07,-1.16 28,-4.52 36.89,-14.3 l 1.29,0.64 c 1.3,0.62 2.67,1.21 4.09,1.74 31.07,11.71 -22.19,47.45 -22.19,47.45 z"
       inkscape:connector-curvature="0"
       style="opacity:0.1" />
    <path
       id="path2250"
       transform="translate(-45.11,-75.83)"
       d="m 667.5,549.9 c 0.35,7.87 6.08,96.51 6.08,96.51 H 495.21 l 1.21,-55.81 1,-44.64 0.32,-14.65 1.43,-50.75 L 494,476 465.9,451.24 v 0 c 0.21,-0.66 7.83,-23.25 6.77,-26.43 -1.06,-3.18 13.59,-16.08 18.6,-16.8 a 65.12,65.12 0 0 0 8.38,-2.55 c 8.43,-3 19.68,-7.32 20.92,-6.64 1.75,0.94 19.29,-0.69 20,-0.76 v 0 c 0,0 12.94,16.73 36.06,16.63 a 49,49 0 0 0 7.27,-0.58 c 5.74,-0.88 11.53,-1.45 17.31,-2.05 11.63,-1.21 29.71,-4.86 38.18,-15.8 0,0 4.09,0.17 11.95,2.56 7.86,2.39 17.52,2.4 17.52,2.4 a 88.91,88.91 0 0 1 13.58,5 95,95 0 0 0 12.87,5 c 0,0 8.22,2.14 10.37,22.87 2.15,20.73 4.32,32.53 4.32,32.53 l -42.5,36.81 c 0,0 -0.35,38.57 0,46.47 z"
       inkscape:connector-curvature="0"
       style="fill:#6c63ff" />
    <polygon
       id="polygon2252"
       points="427.05,545.92 450.46,554.17 466.55,524.83 451.72,514.82 427.95,505.53 414.37,513.39 420.8,535.91 "
       style="fill:#fbbebe" />
    <path
       id="path2254"
       transform="translate(-45.11,-75.83)"
       d="m 665.71,661.06 c 0,0 33.24,-2.5 46.83,-17.87 13.59,-15.37 47.89,-23.59 47.89,-23.59 0,0 82.57,-9.65 50,63.27 0,0 -2.14,8.22 -6.43,10.72 -4.29,2.5 -14.65,8.94 -14.65,8.94 L 662.52,691.45 Z"
       inkscape:connector-curvature="0"
       style="fill:#65617d" />
    <path
       id="path2256"
       transform="translate(-45.11,-75.83)"
       d="m 730.77,712.35 a 39.41,39.41 0 0 1 -6.58,21.84 c -21.34,1.89 -68.6,6.33 -78.49,9.09 -12.15,3.37 -36.74,-2.5 -39.43,-3.16 l -0.25,-0.06 c 0,0 -4.74,-14.38 -7,-23.58 -1,-4.18 -1.53,-7.29 -0.87,-7.52 2.15,-0.71 21.81,-6.08 21.45,-3 -0.36,3.08 59,-23.06 59,-23.06 l 1.82,22.88 c 6.03,6.9 50.35,-3.36 50.35,6.57 z"
       inkscape:connector-curvature="0"
       style="opacity:0.1" />
    <path
       id="path2258"
       transform="translate(-45.11,-75.83)"
       d="m 791.89,693.23 -2.5,9.3 a 74.09,74.09 0 0 1 -20,15.72 c -11.8,6.08 -32.53,16.09 -32.53,16.09 0,0 -76.13,6.43 -89,10 -12.87,3.57 -39.68,-3.22 -39.68,-3.22 0,0 -10,-30.38 -7.86,-31.1 2.14,-0.72 21.8,-6.07 21.45,-3 -0.35,3.07 59,-23.06 59,-23.06 z"
       inkscape:connector-curvature="0"
       style="fill:#65617d" />
    <path
       id="path2260"
       transform="translate(-45.11,-75.83)"
       d="m 579.92,773.37 c 0,0 37.42,2.61 46.32,6 8.9,3.39 72.48,-1.3 72.48,-1.3 0,0 41.08,0.8 52.85,4.32 11.77,3.52 7.59,-36 -14.13,-40.43 -21.72,-4.43 -52.33,2.09 -52.33,2.09 0,0 -34.54,-4.45 -38.73,-5 -4.19,-0.55 -31.78,0.25 -31.78,0.25 z"
       inkscape:connector-curvature="0"
       style="fill:#fbbebe" />
    <path
       id="path2262"
       transform="translate(-45.11,-75.83)"
       d="m 432.87,674.72 c 0,0 49.46,4.45 63.06,12.56 z"
       inkscape:connector-curvature="0"
       style="opacity:0.1" />
    <path
       id="path2264"
       transform="translate(-45.11,-75.83)"
       d="m 741.37,642.28 c 0,0 -38.73,9.42 -53.91,23.28 z"
       inkscape:connector-curvature="0"
       style="opacity:0.1" />
    <path
       id="path2266"
       transform="translate(-45.11,-75.83)"
       d="m 435.75,663.47 c 0.79,0.26 22.77,3.14 22.24,5.23 -0.53,2.09 -22.24,-5.23 -22.24,-5.23 z"
       inkscape:connector-curvature="0"
       style="opacity:0.1" />
    <path
       id="path2268"
       transform="translate(-45.11,-75.83)"
       d="m 401.21,718.61 2.86,10.73 c 0,0 6.43,5 7.86,7.5 1.43,2.5 9.65,3.22 9.65,3.22 0,0 8.58,3.93 10.73,6.07 2.15,2.14 25.37,8.94 47.18,11.8 21.81,2.86 62.19,8.22 70.77,11.08 a 103,103 0 0 0 18.59,3.93 c 0,0 16.08,8.58 24.66,6.44 8.58,-2.14 23.23,-41.11 23.23,-41.11 0,0 -56.47,-13.22 -58.26,-17.51 -1.79,-4.29 -56.12,-24.3 -56.12,-24.3 l -32.17,0.76 z"
       inkscape:connector-curvature="0"
       style="opacity:0.1" />
    <path
       id="path2270"
       transform="translate(-45.11,-75.83)"
       d="m 399.06,719.68 2.86,10.73 c 0,0 6.44,5 7.87,7.5 1.43,2.5 9.65,3.22 9.65,3.22 0,0 8.58,3.93 10.72,6.08 2.14,2.15 25.38,8.93 47.18,11.79 21.8,2.86 62.2,8.22 70.78,11.08 A 103.32,103.32 0 0 0 566.7,774 c 0,0 16.09,8.57 24.67,6.43 8.58,-2.14 23.23,-41.11 23.23,-41.11 0,0 -56.48,-13.22 -58.26,-17.51 -1.78,-4.29 -81.5,-36.81 -81.5,-36.81 l -25,-5.72 z"
       inkscape:connector-curvature="0"
       style="fill:#65617d" />
    <path
       id="path2272"
       transform="translate(-45.11,-75.83)"
       d="m 472.15,447.67 -6.25,3.58 -12,82.21 c 0,0 -6.37,6.08 -4.38,10 1.99,3.92 -0.39,10.72 -0.39,10.72 0,0 -10.76,4.65 -8.37,7.51 2.39,2.86 1.3,8.22 -0.34,11.79 -1.64,3.57 -4.33,10 0,11.08 4.33,1.08 0.74,15 0.74,15 0,0 15.09,-1.72 14,7.14 -0.45,3.58 17.06,15 17.06,15 0,0 -19.9,-36.1 24.68,-31.1 l 3.83,-20.35 c 0,0 3.83,-11.46 0,-15 -3.83,-3.54 0.86,-20.55 0.86,-20.55 l 0.84,-73.81 z"
       inkscape:connector-curvature="0"
       style="fill:#6c63ff" />
    <path
       id="path2274"
       transform="translate(-45.11,-75.83)"
       d="m 462.44,553.84 c 0.79,1.31 24.86,4 26.43,8.27 1.57,4.27 -26.43,-8.27 -26.43,-8.27 z"
       inkscape:connector-curvature="0"
       style="opacity:0.1" />
    <path
       id="path2276"
       transform="translate(-45.11,-75.83)"
       d="m 454.85,574.25 c 0,0 3.27,-10.21 11,-8.38 7.73,1.83 -11,8.38 -11,8.38 z"
       inkscape:connector-curvature="0"
       style="opacity:0.1" />
    <path
       id="path2278"
       transform="translate(-45.11,-75.83)"
       d="m 450.67,589.16 c 0,0 5.75,-13.61 13.6,-12.56 7.85,1.05 -13.6,12.56 -13.6,12.56 z"
       inkscape:connector-curvature="0"
       style="opacity:0.1" />
    <path
       id="path2280"
       transform="translate(-45.11,-75.83)"
       d="m 712.54,588.86 -2.51,15 c 0,0 -25.73,47.19 -30.38,47.9 -4.65,0.71 -30,-31.45 -30,-31.45 l -6.79,-31.46 26.73,-5.07 11.87,-11.73 c 0,0 30,2.87 31.08,16.81 z"
       inkscape:connector-curvature="0"
       style="fill:#fbbebe" />
    <path
       id="path2282"
       transform="translate(-45.11,-75.83)"
       d="m 700.38,459.83 9.65,6.79 v 36.1 c 0,0 7.51,-0.72 5.72,3.22 -1.79,3.94 -5.36,6.07 -2.14,9.65 3.22,3.58 2.5,10.36 -0.36,11.08 -2.86,0.72 -7.86,3.57 -3.22,5.36 4.64,1.79 7.51,5 7.51,7.15 0,2.15 0.36,5.36 -1.43,7.86 -1.79,2.5 -3.57,8.22 -1.43,10.37 2.14,2.15 -1.79,13.22 -1.79,13.22 0,0 6.8,17.52 0.36,22.52 0,0 -2.86,10 -3.22,10.72 0,0 4.51,-34.79 -40.46,-20.08 0,0 -0.83,-13.26 -1.14,-18.17 -0.31,-4.91 3.88,-6.35 1.57,-9.28 -2.31,-2.93 -8.09,-9.66 -5.36,-11.44 2.73,-1.78 1.79,-5 0.71,-7.51 -1.08,-2.51 -4.85,-2.5 -1.43,-5.54 3.42,-3.04 5.45,-5.89 3.44,-7.32 -2.01,-1.43 -5.5,-6.09 -2.72,-8.23 2.78,-2.14 2.86,-33.24 2.86,-33.24 0,0 11.44,-45.75 32.88,-23.23 z"
       inkscape:connector-curvature="0"
       style="fill:#6c63ff" />
    <path
       id="path2284"
       transform="translate(-45.11,-75.83)"
       d="m 695.84,521.33 c 0,0 13.74,-3.73 14.19,0 0.45,3.73 -14.19,0 -14.19,0 z"
       inkscape:connector-curvature="0"
       style="opacity:0.1" />
    <path
       id="path2286"
       transform="translate(-45.11,-75.83)"
       d="m 680.4,531.6 c 0,0 18.84,-4.71 21.19,-1.05 2.35,3.66 -21.19,1.05 -21.19,1.05 z"
       inkscape:connector-curvature="0"
       style="opacity:0.1" />
    <path
       id="path2288"
       transform="translate(-45.11,-75.83)"
       d="m 676.21,541.54 c 0,0 28.26,-3.93 30.09,1.83 1.83,5.76 -30.09,-1.83 -30.09,-1.83 z"
       inkscape:connector-curvature="0"
       style="opacity:0.1" />
    <path
       id="path2290"
       transform="translate(-45.11,-75.83)"
       d="m 680.4,553.84 c 1.05,0.26 27.21,2.09 27.73,7.06 0.52,4.97 -27.73,-7.06 -27.73,-7.06 z"
       inkscape:connector-curvature="0"
       style="opacity:0.1" />
    <rect
       id="rect2292"
       ry="10.47"
       rx="10.47"
       height="127.27"
       width="224.08"
       y="494.12"
       x="425.09"
       style="fill:#3f3d56" />
    <circle
       id="circle2294"
       r="8.2600002"
       cy="557.76001"
       cx="537.13"
       style="fill:#e7effd" />
    <path
       id="path2296"
       transform="translate(-45.11,-75.83)"
       d="m 507.72,491.94 c 0,0 21.48,16.42 38.09,3.91 0,0 -28.08,2.55 -38.09,-3.91 z"
       inkscape:connector-curvature="0"
       style="opacity:0.1" />
    <path
       id="path2298"
       transform="translate(-45.11,-75.83)"
       d="m 616.48,496.36 c 0,0 21.47,16.41 38.08,3.9 0,0 -28.07,2.56 -38.08,-3.9 z"
       inkscape:connector-curvature="0"
       style="opacity:0.1" />
    <path
       id="path2300"
       transform="translate(-45.11,-75.83)"
       d="m 629.37,336.66 a 51.12,51.12 0 0 1 -7.8,27.23 c -0.43,-14.33 -3.8,-28.67 -11.6,-40.64 -7.14,-11 -28.85,-30.19 -43.77,-24.84 a 10.57,10.57 0 0 0 -6.52,7 c -1.48,5.62 2.85,8 5.63,12.43 a 38.11,38.11 0 0 1 5.2,25.68 35.72,35.72 0 0 1 -0.75,3.56 c -2.35,8.82 -7.73,18.91 -2.18,26.14 3.87,5 12.19,6.78 13.32,13 A 7.59,7.59 0 0 1 581,388 c -0.26,4.21 -3.85,7.92 -5.42,12.05 -1.84,4.87 -0.8,9.71 1.11,14.6 2.48,6.38 6.44,12.83 7.4,19.57 0.96,6.74 -1.11,13 -3.55,19.33 -2.31,6 -5,11.95 -5.9,18.2 -1.73,11.88 2.63,25.62 -4.85,35 a 5.24,5.24 0 0 1 -3.27,2.21 c -4.79,0.5 -4,-8.11 -7.83,-11 0.41,5 0.8,10.22 -1,14.9 -1.8,4.68 -6.54,8.66 -11.5,7.87 l -1.71,-11.23 a 32.43,32.43 0 0 1 -11.9,7.45 86.74,86.74 0 0 1 12.42,-33.6 c -12.59,6.06 -19.93,19.18 -26.48,31.52 -4.08,7.71 -8.31,16.13 -6.88,24.74 0.58,3.51 2.09,6.85 2.42,10.38 0.33,3.53 -0.95,7.66 -4.24,9 -2.87,1.17 -6.22,-0.23 -8.29,-2.57 l -0.36,-0.43 c -0.2,-0.26 -0.39,-0.53 -0.57,-0.8 a 13.43,13.43 0 0 1 -0.95,-1.7 32.89,32.89 0 0 1 -2,-6.57 l -0.22,-1 c -3.33,-14.61 -6.33,-29.68 -3.89,-44.46 0.9,-5.44 2.54,-10.84 2.34,-16.36 A 30,30 0 0 0 494,476 c -2.92,-8.18 -8.54,-15.69 -11.74,-23.93 a 0.71,0.71 0 0 1 -0.08,-0.18 c -1.68,-4.36 -2.51,-9.81 0.6,-13.31 1.6,-1.81 4,-2.72 6,-4 6.22,-4.05 9,-11.74 10.15,-19.08 a 64.88,64.88 0 0 0 0.78,-10 c 8.43,-3 19.68,-7.32 20.92,-6.64 1.75,0.94 19.29,-0.69 20,-0.76 5.34,-3.08 10,-7.61 12.28,-14.24 0.21,-0.59 0.39,-1.2 0.56,-1.84 a 51.47,51.47 0 1 1 75.91,-45.31 z"
       inkscape:connector-curvature="0"
       style="opacity:0.1" />
    <path
       id="path2302"
       transform="translate(-45.11,-75.83)"
       d="m 569.76,344.94 c -2.36,8.82 -7.73,18.91 -2.17,26.15 3.87,5 12.19,6.77 13.3,13 0.89,5 -3.52,9.12 -5.3,13.82 -4.24,11.23 6.82,22.27 8.5,34.16 1.83,12.9 -7.57,24.65 -9.44,37.54 -1.73,11.88 2.63,25.61 -4.85,35 a 5.18,5.18 0 0 1 -3.27,2.21 c -4.79,0.51 -4,-8.1 -7.83,-11 0.41,5 0.8,10.22 -1,14.9 -1.8,4.68 -6.54,8.65 -11.5,7.87 l -1.71,-11.24 a 32.39,32.39 0 0 1 -11.9,7.45 86.8,86.8 0 0 1 12.41,-33.59 c -12.59,6.06 -19.92,19.18 -26.47,31.51 -4.09,7.71 -8.31,16.14 -6.89,24.75 0.58,3.51 2.09,6.84 2.42,10.38 0.33,3.54 -0.95,7.65 -4.24,9 -3,1.25 -6.63,-0.41 -8.65,-3 -2.02,-2.59 -2.8,-5.89 -3.53,-9.08 -3.42,-14.92 -6.61,-30.32 -4.12,-45.42 0.9,-5.45 2.54,-10.85 2.34,-16.36 -0.43,-12.07 -9.34,-22 -13.68,-33.23 -1.69,-4.37 -2.51,-9.81 0.6,-13.31 1.6,-1.81 4,-2.72 6,-4 6.21,-4.06 9,-11.74 10.14,-19.08 a 66.12,66.12 0 0 0 -0.67,-23.88 c -2.51,-11.75 -8.27,-23.23 -6.84,-35.16 1.4,-11.74 9.44,-21.42 14.85,-31.93 a 75.54,75.54 0 0 0 7.66,-44.15 c -0.93,-7.05 -2.56,-15.21 2.22,-20.48 5.74,-6.32 16.85,-3.94 23.4,-9.42 3.2,-2.67 4.75,-6.78 7.12,-10.2 a 25,25 0 0 1 26.71,-9.54 c 4.5,1.29 8.54,3.85 13,5.3 6.28,2 13,1.78 19.6,2.57 6.6,0.79 13.51,3 17.29,8.41 2,2.88 2.91,6.39 4.75,9.37 3.95,6.4 11.48,9.48 17.18,14.39 a 33.34,33.34 0 0 1 9.38,35.61 c -3.4,9.47 -11.27,17.85 -10.6,27.89 0.27,4.13 2,8.18 1.46,12.27 -1.58,11.39 -18.11,13.66 -23.82,23.64 0.46,-16.36 -2.68,-33.21 -11.61,-46.92 -7.14,-11 -28.85,-30.2 -43.77,-24.85 a 10.61,10.61 0 0 0 -6.52,7 c -1.48,5.61 2.85,8 5.63,12.43 a 37.8,37.8 0 0 1 4.42,29.22 z"
       inkscape:connector-curvature="0"
       style="fill:#3f3d56" />
    <g
       id="g2330"
       style="opacity:0.2">
      <path
         id="path2304"
         transform="translate(-45.11,-75.83)"
         d="m 499.65,401.62 a 65.55,65.55 0 0 0 -1.43,-15.3 c -2.13,-10 -6.59,-19.79 -7,-29.83 -0.58,11.18 4.65,22 7,33 a 65.65,65.65 0 0 1 1.43,12.13 z"
         inkscape:connector-curvature="0" />
      <path
         id="path2306"
         transform="translate(-45.11,-75.83)"
         d="m 542.25,482.77 c 0.87,-1.59 1.77,-3.17 2.74,-4.71 -12.58,6.06 -19.92,19.18 -26.47,31.52 -3.79,7.13 -7.68,14.89 -7.1,22.83 0.48,-6.81 3.83,-13.45 7.1,-19.62 6.06,-11.41 12.8,-23.47 23.73,-30.02 z"
         inkscape:connector-curvature="0" />
      <path
         id="path2308"
         transform="translate(-45.11,-75.83)"
         d="m 514,547.44 c -0.38,2.7 -1.72,5.26 -4.18,6.27 -3,1.24 -6.63,-0.41 -8.64,-3 -2.01,-2.59 -2.81,-5.88 -3.54,-9.08 -2.44,-10.66 -4.76,-21.58 -5,-32.45 -0.24,11.93 2.3,23.95 5,35.67 0.73,3.19 1.52,6.5 3.54,9.08 2.02,2.58 5.61,4.24 8.64,3 3.29,-1.35 4.58,-5.46 4.25,-9 C 514,547.76 514,547.6 514,547.44 Z"
         inkscape:connector-curvature="0" />
      <path
         id="path2310"
         transform="translate(-45.11,-75.83)"
         d="m 570.92,334.2 a 36.29,36.29 0 0 1 -1.16,7.6 c -1.74,6.53 -5.14,13.77 -4.53,20 0.48,-5.44 3.08,-11.36 4.53,-16.81 a 36.14,36.14 0 0 0 1.16,-10.79 z"
         inkscape:connector-curvature="0" />
      <path
         id="path2312"
         transform="translate(-45.11,-75.83)"
         d="m 514.51,286.48 a 75.05,75.05 0 0 0 -0.62,-11.41 c -0.37,-2.78 -0.84,-5.74 -1,-8.63 -0.23,3.85 0.47,8 1,11.85 a 74.85,74.85 0 0 1 0.62,8.19 z"
         inkscape:connector-curvature="0" />
      <path
         id="path2314"
         transform="translate(-45.11,-75.83)"
         d="m 580.9,384.19 c 0,-0.09 0,-0.16 -0.07,-0.25 -0.76,3.72 -3.82,7.12 -5.23,10.86 a 15.23,15.23 0 0 0 -0.88,7 14.38,14.38 0 0 1 0.88,-3.78 c 1.77,-4.71 6.18,-8.87 5.3,-13.83 z"
         inkscape:connector-curvature="0" />
      <path
         id="path2316"
         transform="translate(-45.11,-75.83)"
         d="m 495.86,479.85 c -0.44,-12.07 -9.34,-22 -13.69,-33.23 a 22.78,22.78 0 0 1 -1.4,-5.5 18.58,18.58 0 0 0 1.4,8.72 c 4.28,11.08 12.94,20.83 13.64,32.63 0.05,-0.87 0.08,-1.75 0.05,-2.62 z"
         inkscape:connector-curvature="0" />
      <path
         id="path2318"
         transform="translate(-45.11,-75.83)"
         d="m 610,318 c -7.15,-11 -28.85,-30.2 -43.77,-24.85 a 10.62,10.62 0 0 0 -6.53,7 7.57,7.57 0 0 0 -0.11,3.76 c 0,-0.18 0.06,-0.36 0.11,-0.54 a 10.6,10.6 0 0 1 6.53,-7 c 14.92,-5.35 36.62,13.88 43.77,24.85 8.08,12.42 11.41,27.41 11.63,42.28 0.21,-15.95 -2.98,-32.22 -11.63,-45.5 z"
         inkscape:connector-curvature="0" />
      <path
         id="path2320"
         transform="translate(-45.11,-75.83)"
         d="m 645.4,341.25 c -1.57,11.36 -18,13.65 -23.77,23.57 0,1.09 0,2.19 0,3.28 5.7,-10 22.24,-12.25 23.81,-23.64 a 13.57,13.57 0 0 0 0,-3.37 0.86,0.86 0 0 1 -0.04,0.16 z"
         inkscape:connector-curvature="0" />
      <path
         id="path2322"
         transform="translate(-45.11,-75.83)"
         d="m 654.54,301.08 c -3.4,9.48 -11.27,17.85 -10.6,27.9 0,0.14 0,0.29 0,0.44 0.74,-8.85 7.47,-16.53 10.55,-25.12 a 31.48,31.48 0 0 0 1.75,-12.24 30.57,30.57 0 0 1 -1.7,9.02 z"
         inkscape:connector-curvature="0" />
      <path
         id="path2324"
         transform="translate(-45.11,-75.83)"
         d="m 569.8,501.49 a 5.2,5.2 0 0 1 -3.27,2.22 c -4.79,0.51 -4,-8.1 -7.83,-11 0.1,1.14 0.19,2.29 0.25,3.44 3.56,3.08 2.9,11.27 7.58,10.77 a 5.15,5.15 0 0 0 3.27,-2.21 c 4.27,-5.36 4.68,-12.13 4.57,-19.16 -0.11,5.86 -0.96,11.45 -4.57,15.94 z"
         inkscape:connector-curvature="0" />
      <path
         id="path2326"
         transform="translate(-45.11,-75.83)"
         d="m 557.69,507.61 c -1.82,4.69 -6.54,8.66 -11.51,7.87 q -0.85,-5.61 -1.7,-11.24 a 32.62,32.62 0 0 1 -11.31,7.23 c -0.22,1.14 -0.43,2.29 -0.6,3.44 a 32.42,32.42 0 0 0 11.91,-7.45 q 0.85,5.63 1.7,11.24 c 5,0.78 9.69,-3.18 11.51,-7.87 a 25.62,25.62 0 0 0 1.31,-10.17 21.63,21.63 0 0 1 -1.31,6.95 z"
         inkscape:connector-curvature="0" />
      <path
         id="path2328"
         transform="translate(-45.11,-75.83)"
         d="m 574.65,466.49 a 57.13,57.13 0 0 0 -0.43,9.11 45.61,45.61 0 0 1 0.43,-5.89 c 1.79,-12.29 10.4,-23.54 9.62,-35.73 -0.69,11.02 -7.99,21.31 -9.62,32.51 z"
         inkscape:connector-curvature="0" />
    </g>
    <path
       id="path2332"
       transform="translate(-45.11,-75.83)"
       d="m 872,637 c 0,0 -6.79,31.63 23.43,35.38 l 1.87,-3.51 c 0,0 -23.4,-22 -25.3,-31.87 z"
       inkscape:connector-curvature="0"
       style="fill:#6c63ff" />
    <path
       id="path2334"
       transform="translate(-45.11,-75.83)"
       d="m 906.94,668.66 -7,1.49 -0.7,0.15 c 0,0 -18.75,-15.22 -18.51,-49.2 a 85,85 0 0 0 8.95,14.17 c 7.41,9.83 15.86,22.96 17.26,33.39 z"
       inkscape:connector-curvature="0"
       style="fill:#6c63ff" />
    <path
       id="path2336"
       transform="translate(-45.11,-75.83)"
       d="m 909.32,671.92 a 4.43,4.43 0 0 1 -3.78,0.49 c -18,-4.22 -11.95,-63 -11.95,-63 1,0.47 2.09,8 6.24,17.6 7.28,16.99 15.28,40.65 9.49,44.91 z"
       inkscape:connector-curvature="0"
       style="fill:#6c63ff" />
    <path
       id="path2338"
       transform="translate(-45.11,-75.83)"
       d="m 949.34,637 c 0,0 1.17,31.63 -29.05,35.38 l -1.87,-3.51 c 0,0 29.05,-22 30.92,-31.87 z"
       inkscape:connector-curvature="0"
       style="fill:#6c63ff" />
    <path
       id="path2340"
       transform="translate(-45.11,-75.83)"
       d="m 940.68,621.1 c 0.22,34 -24.14,49.2 -24.14,49.2 l -0.7,-0.15 -7,-1.49 c 1.39,-10.43 9.86,-23.56 17.28,-33.39 a 76,76 0 0 1 14.56,-14.17 z"
       inkscape:connector-curvature="0"
       style="fill:#6c63ff" />
    <path
       id="path2342"
       transform="translate(-45.11,-75.83)"
       d="m 915.73,668.84 a 11.18,11.18 0 0 1 -4,3.08 v 0 a 7.69,7.69 0 0 1 -1.47,0.49 c -4.44,1 -6,-2.16 -5.74,-7.6 0.42,-9.69 6.51,-26.49 12,-39 3.94,-9.06 10.37,-15.92 11.33,-16.37 -0.06,-0.05 -0.33,45.74 -12.12,59.4 z"
       inkscape:connector-curvature="0"
       style="fill:#6c63ff" />
    <path
       id="path2346"
       transform="translate(-45.11,-75.83)"
       d="m 872,637 c 0,0 -6.79,31.63 23.43,35.38 l 1.87,-3.51 c 0,0 -23.4,-22 -25.3,-31.87 z"
       inkscape:connector-curvature="0"
       style="opacity:0.1" />
    <path
       id="path2348"
       transform="translate(-45.11,-75.83)"
       d="m 906.94,668.66 -7,1.49 -0.7,0.15 c 0,0 -18.75,-15.22 -18.51,-49.2 a 85,85 0 0 0 8.95,14.17 c 7.41,9.83 15.86,22.96 17.26,33.39 z"
       inkscape:connector-curvature="0"
       style="opacity:0.1" />
    <path
       id="path2350"
       transform="translate(-45.11,-75.83)"
       d="m 909.32,671.92 a 4.43,4.43 0 0 1 -3.78,0.49 c -18,-4.22 -11.95,-63 -11.95,-63 1,0.47 2.09,8 6.24,17.6 7.28,16.99 15.28,40.65 9.49,44.91 z"
       inkscape:connector-curvature="0"
       style="opacity:0.1;fill:#a9a9a9" />
  </g>
  <g
     id="g3670"
     transform="matrix(1.181675,0,0,1.1378109,-325.90014,194.41918)">
    <path
       id="path3569"
       transform="translate(-156,-143.04369)"
       d="m 697.53648,314.17556 a 0.645,0.645 0 0 1 1.24118,-0.0409 l 2.7869,8.78335 3.33872,10.52249 a 0.645,0.645 0 0 1 -0.36673,0.7905 l -6.4521,2.68854 -5.67052,2.36286 a 0.645,0.645 0 0 1 -0.87445,-0.74964 l 3.10159,-12.59732 z"
       inkscape:connector-curvature="0"
       style="fill:#e6e6e6" />
    <path
       id="path3571"
       transform="translate(-156,-143.04369)"
       d="m 687.18454,379.667 a 1.06452,1.06452 0 0 1 2.04832,-0.0674 l 2.33611,7.36258 3.22251,10.15622 a 1.06454,1.06454 0 0 1 -0.60522,1.30458 l -6.0974,2.54073 -4.9031,2.04308 a 1.06452,1.06452 0 0 1 -1.44311,-1.23712 l 2.90283,-11.79 z"
       inkscape:connector-curvature="0"
       style="fill:#e6e6e6" />
    <path
       id="path3587"
       transform="translate(-156,-143.04369)"
       d="m 703.18454,437.71258 a 1.06452,1.06452 0 0 1 2.04832,-0.0675 l 2.33611,7.36259 3.22251,10.15622 a 1.06452,1.06452 0 0 1 -0.60522,1.30457 l -6.0974,2.54074 -4.9031,2.04308 a 1.06453,1.06453 0 0 1 -1.44311,-1.23713 l 2.90283,-11.79 z"
       inkscape:connector-curvature="0"
       style="fill:#e6e6e6" />
    <path
       id="path3589"
       transform="translate(-156,-143.04369)"
       d="m 662.558,425.39934 9.31146,-8.58908 c 0,0 21.077,-14.51772 13.71488,-22.499 -7.36212,-7.98128 -22.20075,10.6303 -22.20075,10.6303 l -9.20827,6.03186 z"
       inkscape:connector-curvature="0"
       style="fill:#a0616a" />
    <path
       id="path3591"
       transform="translate(-156,-143.04369)"
       d="m 539.45024,429.39608 -5.424,7.46526 c 0,0 -7.57983,29.15 30.77846,30.698 0,0 48.98859,23.74873 61.11527,8.86981 12.12668,-14.87892 45.5883,-50.66863 45.5883,-50.66863 l -19.6838,-20.00472 -40.11266,41.92475 -38.91452,-19.50011 c 0,0 -20.04496,-11.05444 -33.34705,1.21564 z"
       inkscape:connector-curvature="0"
       style="fill:#2f2e41" />
    <polygon
       id="polygon3593"
       points="307.135,611.796 313.533,613.076 366.88,424.679 357.923,424.679 "
       style="fill:#e6e6e6" />
    <polygon
       id="polygon3595"
       points="470.281,611.796 463.883,613.076 410.536,424.679 419.494,424.679 "
       style="fill:#e6e6e6" />
    <polygon
       id="polygon3597"
       points="393.312,612.109 400.708,612.438 391.194,418.28 384.795,420.84 "
       style="fill:#e6e6e6" />
    <path
       id="path3599"
       transform="translate(-156,-143.04369)"
       d="m 564.469,560.85732 c 0,4.85147 -13.28064,10.05931 -30.71161,11.73268 -18.70837,1.796 -34.91149,-1.11922 -34.91149,-6.63414 0,-5.51492 16.20312,-10.94793 34.91149,-12.059 17.43095,-1.03519 30.71161,2.10899 30.71161,6.96046 z"
       inkscape:connector-curvature="0"
       style="fill:#e6e6e6" />
    <path
       id="path3601"
       transform="translate(-156,-143.04369)"
       d="m 583.02391,528.05305 12.7965,8.95755 c 0,0 55.025,39.66917 49.90637,55.025 -5.11863,15.35583 -33.27091,76.779 -33.27091,76.779 l -35.83021,-11.51686 40.94881,-65.26217 -21.75406,-20.47441 -11.51685,-28.15231 z"
       inkscape:connector-curvature="0"
       style="fill:#2f2e41" />
    <path
       id="path3603"
       transform="translate(-156,-143.04369)"
       d="m 533.11754,505.01934 c 0,0 -25.593,39.66917 -10.2372,51.186 15.3558,11.51683 58.86392,56.30466 58.86392,56.30466 l 8.95755,20.47441 31.99126,103.65168 39.66917,-20.47441 -35.83022,-80.618 c 0,0 -3.83895,-29.432 -16.63545,-46.06742 -12.7965,-16.63542 -17.91511,-40.94881 -17.91511,-40.94881 l 3.839,-11.51686 -22.91252,-36.66148 z"
       inkscape:connector-curvature="0"
       style="fill:#2f2e41" />
    <path
       id="path3605"
       transform="translate(-156,-143.04369)"
       d="m 602.7082,661.48181 -23,-7 c 0,0 -24.8366,-1.023 -23.557,7.93454 1.2796,8.95754 21.75406,67.82147 28.15231,63.98252 6.39825,-3.83895 1.27965,-21.75406 1.27965,-21.75406 z"
       inkscape:connector-curvature="0"
       style="fill:#2f2e41" />
    <polygon
       id="polygon3607"
       points="382.876,251.286 403.35,284.557 412.308,258.964 395.672,237.21 "
       style="fill:#a0616a" />
    <path
       id="path3609"
       transform="translate(-156,-143.04369)"
       d="m 563.82915,429.52 -22.72826,-37.63781 -7.98335,1.80759 v 12.79651 l -2.5593,107.49063 42.22847,-6.39825 c 0,0 2.55929,-69.10115 -8.95756,-78.05867 z"
       inkscape:connector-curvature="0"
       style="fill:#6c63ff" />
    <path
       id="path3611"
       transform="translate(-156,-143.04369)"
       d="m 552.3123,428.24032 -19.19476,-34.55057 -16.63545,7.67791 -29.432,120.28714 -17.91509,34.55056 c 0,0 58.86392,29.432 72.94007,0 14.07615,-29.432 15.35581,-94.69413 15.35581,-94.69413 z"
       inkscape:connector-curvature="0"
       style="fill:#2f2e41" />
    <path
       id="path3613"
       transform="translate(-156,-143.04369)"
       d="m 524.16,406.48626 -7.6779,-5.1186 c 0,0 -29.432,-6.39826 -29.432,31.99126 0,0 -21.75406,49.90636 -6.39826,61.42322 15.3558,11.51686 52.46567,43.50811 52.46567,43.50811 l 19.19476,-20.4744 -43.50812,-38.38952 17.91511,-39.66916 c 0,0 10.23723,-20.47441 -2.55926,-33.27091 z"
       inkscape:connector-curvature="0"
       style="fill:#2f2e41" />
    <path
       id="path3615"
       transform="translate(-156,-143.04369)"
       d="m 533.11754,529.3327 8.95755,8.95755 c 0,0 15.35581,20.47441 23.03371,12.79651 7.6779,-7.6779 -11.5168,-21.75406 -11.5168,-21.75406 l -6.39825,-8.95755 z"
       inkscape:connector-curvature="0"
       style="fill:#a0616a" />
    <path
       id="path3617"
       transform="translate(-156,-143.04369)"
       d="m 562.34557,417.90711 21.958,53.84132 c 0,0 8.95755,26.87266 8.95755,37.10986 v 28.15231 l -24.31336,-31.99126 c 0,0 -13.20438,-83.36927 -6.60219,-87.11223 z"
       inkscape:connector-curvature="0"
       style="fill:#2f2e41" />
    <path
       id="path3619"
       transform="translate(-156,-143.04369)"
       d="m 632.25769,726.43065 c 0,0 -6.3392,24.96005 1.98081,27.07312 8.32001,2.11307 78.129,3.9007 78.17309,-7.897 0.0441,-11.7977 -45.30659,-21.54428 -45.30659,-21.54428 L 650.35052,713.3124 Z"
       inkscape:connector-curvature="0"
       style="fill:#2f2e41" />
    <circle
       id="circle3621"
       r="23.03371"
       cy="237.84956"
       cx="411.66809"
       style="fill:#a0616a" />
    <path
       id="path3623"
       transform="translate(-156,-143.04369)"
       d="m 592.22968,376.75744 c 0,0 4.49919,-19.49652 0,-23.99572 v 2.99947 c 0,0 -2.99947,-10.49813 -8.9984,-7.49866 0,0 -7.49866,-5.99892 -8.99841,-2.99947 -8.82431,-7.978 -47.95252,-0.49854 -28.95865,41.38862 0,0 3.46322,-12.89371 3.46322,-8.39451 0,0 8.9984,-8.99839 10.49813,-11.99786 1.49973,-2.99947 26.99518,16.49706 32.99411,10.49813 z"
       inkscape:connector-curvature="0"
       style="fill:#2f2e41" />
  </g>
  <g
     id="g3719"
     transform="matrix(0.33743126,0,0,0.33403487,655.28643,294.05779)"
     style="opacity:0.83600003;fill:#c0c0c0">
    <path
       style="fill:#c0c0c0"
       id="path2"
       d="M 467,0 H 423.76172 L 393.06641,30 H 467 c 8.27734,0 15,6.722656 15,15 v 22.851562 c 0,30.234376 -10.39844,59.882808 -29.29687,83.496098 -16.12891,20.17187 -37.60157,35.14062 -62.09375,43.30078 l -21.15235,7.04687 c -7.85156,2.6211 -12.10156,11.11719 -9.49219,18.98438 2.09375,6.28515 7.95313,10.2539 14.23829,10.2539 1.5664,0 3.16406,-0.25 4.74609,-0.76171 l 21.15234,-7.0625 c 29.98438,-9.98829 56.27735,-28.32813 76.03907,-53.01172 C 499.25781,141.18359 512,104.86719 512,67.851562 V 45 C 512,20.1875 491.8125,0 467,0 Z m 0,0"
       inkscape:connector-curvature="0" />
    <path
       style="fill:#c0c0c0"
       id="path4"
       d="m 142.54297,201.69531 -21.15235,-7.03125 C 96.898438,186.48828 75.425781,171.51953 59.296875,151.34766 40.398438,127.73437 30,98.085938 30,67.851562 V 45 c 0,-8.277344 6.722656,-15 15,-15 h 77.51562 L 88.238281,0 H 45 C 20.1875,0 0,20.1875 0,45 v 22.851562 c 0,37.015628 12.742188,73.332028 35.859375,102.246098 19.761719,24.68359 46.054687,43.02343 76.039065,53.02734 l 21.15234,7.04688 c 1.58203,0.51171 3.17969,0.76171 4.7461,0.76171 6.28515,0 12.14453,-3.96875 14.23828,-10.2539 2.60937,-7.86719 -1.64063,-16.36328 -9.49219,-18.98438 z m 0,0"
       inkscape:connector-curvature="0" />
    <path
       style="fill:#c0c0c0"
       id="path6"
       d="M 302,292.80078 V 315 c 0,8.39844 6.59766,15 15,15 24.90234,0 45,20.09766 45,45 v 30 c 0,8.39844 -6.59766,15 -15,15 H 165 c -8.40234,0 -15,-6.60156 -15,-15 v -30 c 0,-24.90234 20.09766,-45 45,-45 8.40234,0 15,-6.60156 15,-15 V 292.80078 C 154.19922,275.09766 113.40234,225.89844 106.80078,167.39844 L 88.199219,0 H 423.80078 L 405.19922,167.39844 C 398.59766,225.89844 357.80078,275.09766 302,292.80078 Z m 0,0"
       inkscape:connector-curvature="0" />
    <path
       style="fill:#c0c0c0"
       id="path8"
       d="M 347,420 H 256 V 0 H 423.80078 L 405.19922,167.39844 C 398.59766,225.89844 357.80078,275.09766 302,292.80078 V 315 c 0,8.39844 6.59766,15 15,15 24.90234,0 45,20.09766 45,45 v 30 c 0,8.39844 -6.59766,15 -15,15 z m 0,0"
       inkscape:connector-curvature="0" />
    <path
       style="fill:#c0c0c0"
       id="path12"
       d="m 392,405 v 90.80078 H 120 V 405 c 0,-8.40234 6.59766,-15 15,-15 h 242 c 8.40234,0 15,6.59766 15,15 z m 0,0"
       inkscape:connector-curvature="0" />
    <path
       style="fill:#c0c0c0"
       id="path16"
       d="m 392,405 v 90.80078 H 256 V 390 h 121 c 8.40234,0 15,6.59766 15,15 z m 0,0"
       inkscape:connector-curvature="0" />
    <path
       style="fill:#c0c0c0"
       id="path18"
       d="m 422,497 c 0,8.39844 -6.59766,15 -15,15 H 105 c -8.402344,0 -15,-6.60156 -15,-15 0,-8.40234 6.597656,-15 15,-15 h 302 c 8.40234,0 15,6.59766 15,15 z m 0,0"
       inkscape:connector-curvature="0" />
    <path
       style="fill:#c0c0c0"
       id="path20"
       d="m 422,497 c 0,8.39844 -6.59766,15 -15,15 H 256 v -30 h 151 c 8.40234,0 15,6.59766 15,15 z m 0,0"
       inkscape:connector-curvature="0" />
  </g>
  <g
     transform="matrix(3.7514654,0,0,4.2434431,466.81997,380.137)"
     id="Shopping"
     style="fill:#c6c6c6;fill-opacity:1">
    <g
       id="g841"
       style="fill:#c6c6c6;fill-opacity:1">
      <path
         inkscape:connector-curvature="0"
         d="M 35,41 H 23 v 20 h 12 v -4 -6 z"
         id="path8-0"
         style="fill:#c6c6c6;fill-opacity:1" />
      <path
         inkscape:connector-curvature="0"
         d="M 5,41 H 17 V 61 H 5 Z"
         id="path10"
         style="fill:#c6c6c6;fill-opacity:1" />
      <path
         inkscape:connector-curvature="0"
         d="m 23,41 h 12 2 V 35 H 24 23 Z"
         id="path12-0"
         style="fill:#c6c6c6;fill-opacity:1" />
      <path
         inkscape:connector-curvature="0"
         d="M 17,35 H 16 3 v 6 h 2 12 z"
         id="path14"
         style="fill:#c6c6c6;fill-opacity:1" />
      <path
         style="fill:#c6c6c6;fill-opacity:1"
         inkscape:connector-curvature="0"
         d="m 17,41 h 6 v 20 h -6 z"
         id="path16-1" />
      <path
         style="fill:#c6c6c6;fill-opacity:1"
         inkscape:connector-curvature="0"
         d="m 20,35 h -3 v 6 h 6 v -6 z"
         id="path18-6" />
      <path
         inkscape:connector-curvature="0"
         d="m 23,35 h 1 a 4,4 0 1 0 -4,-4 v 4 z"
         id="path20-0"
         style="fill:#c6c6c6;fill-opacity:1" />
      <path
         inkscape:connector-curvature="0"
         d="m 20,35 v -4 a 4,4 0 1 0 -4,4 z"
         id="path22"
         style="fill:#c6c6c6;fill-opacity:1" />
      <path
         inkscape:connector-curvature="0"
         d="m 5,41 h 12 v 3 H 5 Z"
         id="path24"
         style="fill:#c6c6c6;fill-opacity:1" />
      <path
         d="m 23,41 h 12 v 3 H 23.488281 Z"
         id="path26"
         style="fill:#c6c6c6;fill-opacity:1"
         inkscape:connector-curvature="0"
         sodipodi:nodetypes="ccccc" />
    </g>
  </g>
</svg>
