<?xml version="1.0" encoding="UTF-8" standalone="no"?>
<svg
   xmlns:dc="http://purl.org/dc/elements/1.1/"
   xmlns:cc="http://creativecommons.org/ns#"
   xmlns:rdf="http://www.w3.org/1999/02/22-rdf-syntax-ns#"
   xmlns:svg="http://www.w3.org/2000/svg"
   xmlns="http://www.w3.org/2000/svg"
   xmlns:sodipodi="http://sodipodi.sourceforge.net/DTD/sodipodi-0.dtd"
   xmlns:inkscape="http://www.inkscape.org/namespaces/inkscape"
   id="baed4b18-14ee-447f-bd84-b0265ca0ad8a"
   data-name="Layer 1"
   width="985.22125"
   height="595.07111"
   viewBox="0 0 985.22126 595.07108"
   version="1.1"
   sodipodi:docname="empty-fiddelize-invest.svg"
   inkscape:version="0.92.3 (2405546, 2018-03-11)">
  <metadata
     id="metadata242">
    <rdf:RDF>
      <cc:Work
         rdf:about="">
        <dc:format>image/svg+xml</dc:format>
        <dc:type
           rdf:resource="http://purl.org/dc/dcmitype/StillImage" />
        <dc:title>wallet</dc:title>
      </cc:Work>
    </rdf:RDF>
  </metadata>
  <sodipodi:namedview
     pagecolor="#ffffff"
     bordercolor="#666666"
     borderopacity="1"
     objecttolerance="10"
     gridtolerance="10"
     guidetolerance="10"
     inkscape:pageopacity="0"
     inkscape:pageshadow="2"
     inkscape:window-width="1440"
     inkscape:window-height="858"
     id="namedview240"
     showgrid="false"
     inkscape:zoom="0.62162861"
     inkscape:cx="605.49046"
     inkscape:cy="335.6282"
     inkscape:window-x="-11"
     inkscape:window-y="-11"
     inkscape:window-maximized="1"
     inkscape:current-layer="baed4b18-14ee-447f-bd84-b0265ca0ad8a" />
  <defs
     id="defs9">
    <linearGradient
       id="b6a338e9-6675-4055-aeec-b883651a73ae"
       x1="790.67999"
       y1="664.40997"
       x2="790.67999"
       y2="175.75"
       gradientUnits="userSpaceOnUse">
      <stop
         offset="0"
         stop-color="gray"
         stop-opacity="0.25"
         id="stop2" />
      <stop
         offset="0.54"
         stop-color="gray"
         stop-opacity="0.12"
         id="stop4" />
      <stop
         offset="1"
         stop-color="gray"
         stop-opacity="0.1"
         id="stop6" />
    </linearGradient>
  </defs>
  <title
     id="title11">wallet</title>
  <path
     d="m 352.15,349.31113 c 6.63,0.85 13.51,1.39 19.86,-0.67 1,-0.31 2.1,-1 2,-2 a 2.42,2.42 0 0 0 -0.45,-1 61.78,61.78 0 0 1 -6,-11.43 1,1 0 0 0 -0.37,-0.52 0.94,0.94 0 0 0 -0.64,0 c -2.93,0.77 -5.46,2.66 -8.37,3.47 a 11.9,11.9 0 0 1 -4.56,0.34 c -1.32,-0.15 -3.12,-1.24 -4.32,-1.1 0.68,4.37 2.34,8.45 2.85,12.91 z"
     id="path19"
     inkscape:connector-curvature="0"
     style="fill:#b07dde" />
  <path
     d="m 477.54,338.24113 c 4.37,-3 8.9,-6.15 11.48,-10.78 a 1.87,1.87 0 0 0 0.31,-0.93 1.92,1.92 0 0 0 -0.37,-0.9 37.16,37.16 0 0 0 -9.33,-10.07 27.21,27.21 0 0 0 -5.2,4.8 c -1.1,1.16 -4.14,3 -4.17,4.77 0,1 1.16,2.16 1.7,3 0.73,1.08 1.42,2.18 2.08,3.3 0.38,0.55 3.85,6.59 3.5,6.81 z"
     id="path21"
     inkscape:connector-curvature="0"
     style="fill:#b07dde" />
  <path
     d="m 378.14,362.70113 a 4.45,4.45 0 0 1 -0.8,2.9 3.93,3.93 0 0 1 -1.68,1 c -9.27,3.32 -20,-0.82 -29.25,2.45 -1.9,0.67 -3.7,1.64 -5.61,2.28 a 30.52,30.52 0 0 1 -7,1.24 c -3.27,0.31 -6.56,0.51 -9.84,0.6 a 23.66,23.66 0 0 1 -7.42,-0.65 8.91,8.91 0 0 1 -5.69,-4.51 4.33,4.33 0 0 1 -0.28,-3.21 3.46,3.46 0 0 1 0.61,-1 8.77,8.77 0 0 1 2.18,-1.77 l 3.41,-2.2 a 22.89,22.89 0 0 1 5.17,-2.74 c 1.35,-0.44 2.78,-0.63 4.15,-1 4.79,-1.4 8.45,-5.2 11.85,-8.85 l 4.64,-4.95 a 4.67,4.67 0 0 1 1.61,-1.29 4.46,4.46 0 0 1 2,-0.19 26.74,26.74 0 0 1 12.65,4.24 16.39,16.39 0 0 0 3.12,1.84 c 2.72,1.06 6.21,0.26 8.72,-1.08 1.19,-0.64 0.93,-1 1.43,-2.14 0.5,-1.14 1.72,-1.87 2.78,-0.83 a 2.94,2.94 0 0 1 0.66,1.26 c 1,3.3 0.62,6.85 0.62,10.31 a 4.54,4.54 0 0 0 0.2,1.6 9.05,9.05 0 0 0 0.91,1.48 3.37,3.37 0 0 1 0.19,0.38 10.17,10.17 0 0 1 0.67,4.83 z"
     id="path23"
     inkscape:connector-curvature="0"
     style="fill:#514e7f" />
  <path
     d="m 378.14,362.70113 a 4.45,4.45 0 0 1 -0.8,2.9 3.93,3.93 0 0 1 -1.68,1 c -9.27,3.32 -20,-0.82 -29.25,2.45 -1.9,0.67 -3.7,1.64 -5.61,2.28 a 30.52,30.52 0 0 1 -7,1.24 c -3.27,0.31 -6.56,0.51 -9.84,0.6 a 23.66,23.66 0 0 1 -7.42,-0.65 8.91,8.91 0 0 1 -5.69,-4.51 4.33,4.33 0 0 1 -0.28,-3.21 3.46,3.46 0 0 1 0.61,-1 c 0.54,1.13 0.93,2.63 1.27,3.17 a 6.49,6.49 0 0 0 4.34,3.13 10.78,10.78 0 0 0 4,-0.51 c 8.4,-2.08 17.33,-2.11 25.4,-5.26 2.77,-1.09 5.41,-2.54 8.32,-3.2 2.91,-0.66 6,-0.48 9,-0.73 4.74,-0.38 9.33,-1.81 14,-2.56 a 10.17,10.17 0 0 1 0.63,4.86 z"
     id="path25"
     inkscape:connector-curvature="0"
     style="fill:#464353" />
  <path
     d="m 498.77,337.63113 c -0.44,3.52 -2.67,6.55 -5.12,9.12 -2.45,2.57 -5.22,4.88 -7.17,7.84 -2.4,3.67 -3.48,8.22 -6.6,11.32 a 18.1,18.1 0 0 1 -4,2.85 27.91,27.91 0 0 1 -5.15,2.37 c -4.66,1.49 -9.68,1.15 -14.55,0.79 a 13.09,13.09 0 0 1 -4.62,-0.89 13.92,13.92 0 0 1 -1.92,-1.18 9.17,9.17 0 0 1 -3,-3 3,3 0 0 1 -0.29,-2.18 5.12,5.12 0 0 1 1.39,-2.12 33,33 0 0 1 3.52,-3.17 21.07,21.07 0 0 0 4.58,-4 12.92,12.92 0 0 0 1.77,-4 35.48,35.48 0 0 0 1.29,-7.65 24.25,24.25 0 0 1 0.53,-5.12 c 0.74,-2.64 2.7,-5 2.48,-7.73 a 1.93,1.93 0 0 1 0.1,-1.17 1.63,1.63 0 0 1 0.92,-0.57 16.3,16.3 0 0 1 4.78,-1.11 5.57,5.57 0 0 1 4.44,1.74 c 0.68,0.82 1.13,2 2.13,2.32 a 3.38,3.38 0 0 0 1.52,0.06 c 2.46,-0.25 5.06,-0.56 7,-2.15 a 8.73,8.73 0 0 0 2.9,-6.37 c 0,-0.91 -0.41,-1.86 1,-2 1.06,-0.14 1.9,1 2.44,1.7 1.95,2.61 3.95,5.34 4.68,8.52 a 2.51,2.51 0 0 1 0.89,-0.17 3.87,3.87 0 0 1 3.19,1.63 6.35,6.35 0 0 1 0.87,4.32 z"
     id="path27"
     inkscape:connector-curvature="0"
     style="fill:#514e7f" />
  <path
     d="m 498.77,337.63113 c -0.44,3.52 -2.67,6.55 -5.12,9.12 -2.45,2.57 -5.22,4.88 -7.17,7.84 -2.4,3.67 -3.48,8.22 -6.6,11.32 a 18.1,18.1 0 0 1 -4,2.85 27.91,27.91 0 0 1 -5.15,2.37 c -4.66,1.49 -9.68,1.15 -14.55,0.79 a 13.09,13.09 0 0 1 -4.62,-0.89 13.92,13.92 0 0 1 -1.92,-1.18 9.17,9.17 0 0 1 -3,-3 7.31,7.31 0 0 1 3,-0.72 c 2.16,0.12 3.74,2.16 5.81,2.79 2.95,0.89 5.89,-1.19 8.88,-1.9 1.95,-0.46 4,-0.34 5.93,-1 a 14.66,14.66 0 0 0 4.39,-2.66 22.35,22.35 0 0 0 4.69,-4.52 29.05,29.05 0 0 0 2.75,-5.49 78.5,78.5 0 0 1 5.56,-10.64 7.52,7.52 0 0 1 1.13,-1.48 c 0.47,-0.43 1,-0.73 1.53,-1.11 2,-1.51 2.83,-4 3.53,-6.44 a 11.27,11.27 0 0 1 0.79,-2.15 3.87,3.87 0 0 1 3.19,1.63 6.35,6.35 0 0 1 0.95,4.47 z"
     id="path29"
     inkscape:connector-curvature="0"
     style="fill:#464353" />
  <path
     d="m 559.45,203.66113 v -12.42 a 34.48,34.48 0 0 0 -34.48,-34.47 H 34.48 A 34.48,34.48 0 0 0 0,191.24113 v 22.9 z"
     id="path55"
     inkscape:connector-curvature="0"
     style="fill:#33323d" />
  <ellipse
     cx="442.02112"
     cy="301.15479"
     rx="37.720001"
     ry="80.900002"
     transform="rotate(-7.1)"
     id="ellipse63"
     style="opacity:0.1" />
  <path
     d="m 572.69,215.85113 v 345 a 29.83,29.83 0 0 1 -29.84,29.83 h -513 a 29.83,29.83 0 0 1 -29.82,-29.83 v -379.78 c 14.7,5.46 14.7,5.46 29.82,5 h 513 a 29.84,29.84 0 0 1 29.84,29.78 z"
     id="path75"
     inkscape:connector-curvature="0"
     style="opacity:0.1" />
  <path
     d="m 572.69,220.24113 v 345 a 29.84,29.84 0 0 1 -29.84,29.83 h -513 a 29.83,29.83 0 0 1 -29.82,-29.83 v -379.79 c 14.7,5.45 14.7,5.45 29.82,5 h 513 a 29.84,29.84 0 0 1 29.84,29.79 z"
     id="path77"
     style="fill:#87ceeb"
     inkscape:connector-curvature="0" />
  <path
     d="m 571.23,347.79113 v 110.33 h -107 a 55.17,55.17 0 0 1 0,-110.33 z"
     id="path79"
     inkscape:connector-curvature="0"
     style="opacity:0.1" />
  <path
     d="m 572.69,344.85113 v 110.35 h -107 a 55.17,55.17 0 0 1 0,-110.33 z"
     id="path81"
     style="fill:#4b0082"
     inkscape:connector-curvature="0" />
  <circle
     cx="470.82001"
     cy="402.96115"
     r="21.51"
     id="circle83"
     style="opacity:0.1" />
  <circle
     cx="472.28003"
     cy="400.04114"
     r="21.51"
     id="circle85"
     style="fill:#00ffff" />
  <g
     id="g1371"
     transform="matrix(1.2410828,0,0,1.1719295,274.56502,-110.48857)">
    <path
       id="path1289"
       transform="translate(-229.66231,-151.4124)"
       d="m 651.61162,679.71942 c -5.12158,-7.17175 -12.05469,-12.41919 -20.771,-14.38311 -7.60058,-1.71259 -15.416,-1.42072 -23.14209,-1.36115 l -97.69238,0.7533 c -8.3667,0.0645 -16.38867,7.31311 -16,16 0.38574,8.61358 7.03174,16.06915 16,16 q 42.92578,-0.331 85.85108,-0.662 c 6.74658,-0.052 13.49707,-0.17371 20.24414,-0.15155 1.51513,0.005 3.02392,0.0848 4.53759,0.102 0.3667,0.004 0.63135,9.1e-4 0.81836,-0.007 0.0469,0.0143 0.0864,0.0273 0.14746,0.0441 0.78956,0.21679 1.59961,0.36621 2.394,0.57214 -0.27832,0.008 0.51513,0.5033 0.91357,0.671 0.0547,0.108 0.17139,0.29938 0.36621,0.59515 0.272,0.51 1.07715,2.05866 1.11035,2.00989 a 71.76183,71.76183 0 0 1 2.98682,9.39289 c 1.85938,7.04718 2.26807,8.52026 2.53565,15.13195 0.33837,8.352 7.11718,16.39783 16,16 8.3789,-0.3753 16.36279,-7.04236 16,-16 -0.61128,-15.09417 -3.2607,-32.04962 -12.29976,-44.70758 z"
       inkscape:connector-curvature="0"
       style="fill:#e6e6e6" />
    <path
       id="path1291"
       transform="translate(-229.66231,-151.4124)"
       d="m 515.74883,715.82494 c -1.835,-11.11963 -3.63477,-22.24637 -5.50537,-33.35952 -1.898,-11.27417 -5.77442,-21.59812 -14.54786,-28.9975 -2.34423,-1.97688 -4.7749,-3.82268 -7.21582,-5.66276 -0.85839,-0.6468 -1.71533,-1.29456 -2.56347,-1.95566 -0.0508,-0.0395 -0.083,-0.0643 -0.127,-0.0986 -0.0933,-0.0802 -0.20507,-0.17551 -0.35546,-0.30272 -3.65674,-3.0948 -7.19,-6.32723 -10.55567,-9.76318 q -4.48315,-4.57729 -8.57471,-9.545 -1.02246,-1.24071 -2.01855,-2.50366 c -0.11426,-0.14481 -0.72949,-0.93992 -1.13477,-1.45875 -0.377,-0.51927 -1.06591,-1.457 -1.18164,-1.62073 q -1.1638,-1.64569 -2.28613,-3.322 a 156.12618,156.12618 0 0 1 -13.187,-24.11549 q -0.54713,-1.25119 -1.06836,-2.51707 c -0.0933,-0.25754 -0.21387,-0.58834 -0.374,-1.02876 -0.74121,-2.03833 -1.481,-4.07418 -2.15869,-6.13665 q -2.15992,-6.57108 -3.71387,-13.3362 -0.76832,-3.34049 -1.3833,-6.7149 -0.31715,-1.73529 -0.59326,-3.47777 c -0.0303,-0.19285 -0.21,-1.44617 -0.31592,-2.15436 -0.0781,-0.71162 -0.22364,-1.97155 -0.24317,-2.16618 q -0.17577,-1.75646 -0.312,-3.51634 -0.30688,-3.96012 -0.415,-7.93346 -0.18456,-7.06137 0.25293,-14.12171 c 0.166,-2.64466 0.40235,-5.28245 0.69336,-7.91529 0.0176,-0.16178 0.0312,-0.29046 0.0439,-0.40642 0.0176,-0.11756 0.0381,-0.25112 0.0625,-0.41735 0.21533,-1.455 0.44189,-2.908 0.69531,-4.35644 a 159.29393,159.29393 0 0 1 3.73926,-16.31344 q 1.08765,-3.80858 2.36279,-7.55538 0.56836,-1.66325 1.17285,-3.31377 c -0.0264,0.071 1.18213,-3.01574 1.19824,-3.11945 4.79493,-11.32906 12.6377,-21.657 12.64844,-34.52643 0.007,-8.71332 -7.36426,-17.06006 -16,-16.65739 a 16.62541,16.62541 0 0 0 -16,16.65739 c 0,0.19565 -0.001,0.36258 -0.001,0.52461 -0.0806,0.27127 -0.14795,0.49761 -0.2085,0.69777 -0.93506,2.032 -2.08057,3.96285 -3.10693,5.94438 -2.81055,5.42345 -5.20948,11.02482 -7.48828,16.70842 a 159.82519,159.82519 0 0 0 -8.5293,28.62825 182.098,182.098 0 0 0 -0.96777,65.04019 c 6.20361,37.8128 26.66162,74.009 55.103,98.33928 2.46826,2.11134 4.99658,4.15171 7.54883,6.15089 1.05615,0.82714 2.12109,1.63909 3.19141,2.44577 0.50586,0.38139 2.60156,2.034 1.67968,1.23331 1.98243,1.69183 2.8169,2.5433 3.32618,3.78944 0.0737,0.2876 0.17431,0.67762 0.31054,1.21088 0.35889,1.40538 0.69971,2.80751 0.98291,4.23259 2.47559,12.45143 4.19629,25.11159 6.26416,37.64359 1.42139,8.61064 12.022,14.21487 19.68213,11.6342 8.91596,-3.00405 12.69774,-11.26437 11.17479,-20.49062 z"
       inkscape:connector-curvature="0"
       style="fill:#e6e6e6" />
    <path
       id="path1293"
       transform="translate(-229.66231,-151.4124)"
       d="m 653.23,748.12012 a 25.37427,25.37427 0 0 1 -25.43994,-25.25 v -18.25147 c -19.10889,2.13916 -84.54321,1.64356 -103.29981,-1.37011 v 18.8916 a 25.4409,25.4409 0 0 1 -50.88037,0 v -37.0918 a 163.30721,163.30721 0 0 1 -84,-142.38818 c 0,-49.83008 22.583,-96.31446 61.95874,-127.5337 a 164.07476,164.07476 0 0 1 89.32251,-35.17333 c 4.427,-0.34717 8.88086,-0.52295 13.23877,-0.52295 15.3523,0 84.61866,2.37158 101.99781,7.37158 L 695.75562,347.48 a 4.16,4.16 0 0 1 4.55,-0.90674 4.10044,4.10044 0 0 1 2.58448,3.84668 v 6.252 l 7.71631,-7.64209 a 4.1505,4.1505 0 0 1 4.54638,-0.90821 4.10219,4.10219 0 0 1 2.5874,3.84815 v 69.86474 a 162.75915,162.75915 0 0 1 -39.07031,267.86621 v 33.16944 A 25.37427,25.37427 0 0 1 653.23,748.12012 Z m -23.44,-45.76953 v 20.51953 a 23.44072,23.44072 0 0 0 46.87988,0 V 688.4375 l 0.571,-0.271 a 162.45628,162.45628 0 0 0 66.53076,-58.18164 160.32526,160.32526 0 0 0 -27.69922,-206.96 l -0.33228,-0.29834 v -70.75679 a 2.10314,2.10314 0 0 0 -1.34179,-1.99561 2.1492,2.1492 0 0 0 -2.38135,0.47315 l -11.127,11.0205 v -11.04785 a 2.10314,2.10314 0 0 0 -1.3418,-1.9956 2.15435,2.15435 0 0 0 -2.38525,0.47656 l -40.47632,40.16357 -0.5752,-0.18017 c -16.156,-5.05664 -86.51269,-7.4541 -101.98169,-7.4541 -4.30591,0 -8.70727,0.17382 -13.08154,0.51709 a 162.07488,162.07488 0 0 0 -88.23682,34.74609 c -38.89453,30.83789 -61.20166,76.751 -61.20166,125.9668 A 161.31464,161.31464 0 0 0 475.094,683.585 l 0.51587,0.28565 v 38.26953 a 23.441,23.441 0 0 0 46.88037,0 v -21.28569 l 1.18482,0.22266 c 16.85571,3.17139 87.83179,3.67139 104.98486,1.42139 z"
       inkscape:connector-curvature="0"
       style="fill:#ba55d3" />
    <path
       id="path1307"
       transform="translate(-229.66231,-151.4124)"
       d="M 396.51011,492.6705 A 98.108,98.108 0 0 1 357.38794,477.87834 95.527,95.527 0 0 1 341.214,464.65 c -4.82786,-4.92434 -9.4465,-10.52122 -11.83781,-17.0792 a 25.299,25.299 0 0 1 0.33124,-18.7693 24.33352,24.33352 0 0 1 13.16876,-13.12553 c 5.98961,-2.38861 13.22619,-2.64412 19.05541,-0.0282 a 17.08926,17.08926 0 0 1 6.96433,5.60584 11.43493,11.43493 0 0 1 1.8103,3.75816 7.67372,7.67372 0 0 1 0.0904,3.75911 9.01634,9.01634 0 0 1 -4.77388,5.723 24.06819,24.06819 0 0 1 -8.1521,2.48626 c -2.86013,0.39 -6.96868,0.74485 -9.268,-1.551 a 4.66934,4.66934 0 0 1 -1.09261,-1.61079 3.1144,3.1144 0 0 1 -0.17238,-1.45807 c -0.0335,0.21724 0.13872,-0.47236 0.12891,-0.44486 -0.0364,0.10194 -0.19384,0.3504 0.03,-0.0314 a 3.39683,3.39683 0 0 1 0.23311,-0.363 c -0.076,0.0983 -0.24291,0.26227 0.0551,-0.0191 a 1.96186,1.96186 0 0 1 0.91427,-0.56441 c 0.13841,-0.0403 0.27883,-0.0724 0.41763,-0.11033 0.35277,-0.0964 -0.35161,0.005 0.009,-0.006 0.13927,-0.004 0.28021,-0.001 0.419,-0.007 0.354,-0.0159 -0.34927,-0.0965 -0.01,-0.0113 0.13173,0.0331 0.26222,0.0655 0.392,0.10635 0.28208,0.0889 -0.19974,-0.20693 -0.009,0.0145 0.224,0.25945 -0.23521,-0.25235 0.0194,-10e-4 a 4.6244,4.6244 0 0 1 0.35767,0.39431 2.35924,2.35924 0 0 0 3.315,0 2.39935,2.39935 0 0 0 0,-3.315 c -2.3114,-2.86535 -6.87707,-2.15735 -9.21528,0.26436 -2.982,3.08848 -1.80111,7.98318 1.09954,10.678 3.2837,3.05076 7.9344,3.26284 12.15834,2.75114 a 29.817,29.817 0 0 0 10.26918,-2.902 14.39829,14.39829 0 0 0 7.024,-7.58817 13.17381,13.17381 0 0 0 -1.05641,-10.76889 c -3.7293,-7.01118 -11.45152,-10.60575 -19.08437,-11.22837 a 29.81221,29.81221 0 0 0 -21.81879,7.16278 30.15422,30.15422 0 0 0 -9.88822,20.075 c -0.66626,7.996 2.43608,15.76128 6.95922,22.21432 a 84.62746,84.62746 0 0 0 16.77944,17.3533 102.47323,102.47323 0 0 0 42.812,20.19071 q 2.79237,0.57685 5.61474,0.98758 a 2.42141,2.42141 0 0 0 2.88342,-1.63715 2.36125,2.36125 0 0 0 -1.63716,-2.88343 z"
       inkscape:connector-curvature="0"
       style="fill:#4b0082" />
    <path
       id="path1309"
       transform="translate(-229.66231,-151.4124)"
       d="m 619.8954,390.79425 q -30.6631,-0.43278 -61.133,1.55634 c -6.9433,0.45338 -12.95072,2.90742 -12.95072,7.03206 0,3.44855 5.95964,7.48858 12.95072,7.032 q 30.45443,-1.9887 61.133,-1.55633 c 16.67391,0.23535 16.66408,-13.82891 0,-14.06407 z"
       inkscape:connector-curvature="0"
       style="fill:#cccccc" />
    <path
       id="path1311"
       transform="translate(-229.66231,-151.4124)"
       d="m 589.68169,404.16175 c -2.20923,0 -54.10571,-0.0825 -54.10571,-7.251 0,-7.168 51.89648,-7.25049 54.10571,-7.25049 2.20923,0 54.10571,0.0825 54.10571,7.25049 0,7.16848 -51.89648,7.251 -54.10571,7.251 z m -52.07642,-7.251 c 1.42017,2.17334 20.49634,5.251 52.07642,5.251 31.58008,0 50.656,-3.07764 52.07641,-5.251 -1.42016,-2.17285 -20.49633,-5.25049 -52.07641,-5.25049 -31.58008,0 -50.65625,3.07766 -52.07642,5.25051 z"
       inkscape:connector-curvature="0"
       style="fill:#3f3d56" />
    <path
       id="path1313"
       transform="translate(-229.66231,-151.4124)"
       d="m 754.33555,592.61209 c 11.48831,-0.319 25.78612,-0.71776 36.801,-8.76407 a 28.26188,28.26188 0 0 0 11.12052,-21.10332 c 0.22483,-6.35459 -2.071,-11.90149 -6.46488,-15.61408 -5.75306,-4.86143 -14.154,-6.00169 -23.20738,-3.34108 l 9.38,-68.548 -6.88568,-0.94343 -11.02713,80.58689 5.75009,-2.63856 c 6.66637,-3.05766 15.81731,-4.61365 21.50378,0.19174 a 12.21541,12.21541 0 0 1 4.00576,10.06213 21.36089,21.36089 0 0 1 -8.275,15.7346 c -8.5719,6.26126 -19.96858,7.06894 -32.89451,7.43036 z"
       inkscape:connector-curvature="0"
       style="fill:#4b0082" />
    <rect
       id="rect1315"
       height="6.95017"
       width="37.432232"
       y="329.74081"
       x="468.20273"
       style="fill:#4b0082" />
  </g>
  <rect
     style="opacity:0.38699999;fill:#4b0082;fill-opacity:1;fill-rule:nonzero;stroke:#47ffff;stroke-width:0.07247102;stroke-miterlimit:4;stroke-dasharray:none;stroke-opacity:1"
     id="rect1373"
     width="137.30339"
     height="17.520992"
     x="375.89639"
     y="-338.85013"
     transform="matrix(0.7002292,0.71391811,-0.66145115,0.74998825,0,0)" />
  <rect
     style="opacity:0.38699999;fill:#4b0082;fill-opacity:1;fill-rule:nonzero;stroke:#47ffff;stroke-width:0.07247102;stroke-miterlimit:4;stroke-dasharray:none;stroke-opacity:1"
     id="rect1373-6"
     width="137.30339"
     height="17.520992"
     x="-433.74081"
     y="-765.92584"
     transform="matrix(-0.54710604,0.83706331,-0.87441032,-0.48518718,0,0)"
     inkscape:transform-center-x="-238.08429"
     inkscape:transform-center-y="-54.69504" />
  <rect
     style="opacity:0.38699999;fill:#4b0082;fill-opacity:1;fill-rule:nonzero;stroke:#47ffff;stroke-width:0.03986279;stroke-miterlimit:4;stroke-dasharray:none;stroke-opacity:1"
     id="rect1373-5"
     width="75.15731"
     height="9.6844578"
     x="543.43854"
     y="-447.01694"
     transform="matrix(0.63031506,0.77633944,-0.58964221,0.80766458,0,0)" />
  <rect
     style="opacity:0.38699999;fill:#4b0082;fill-opacity:1;fill-rule:nonzero;stroke:#47ffff;stroke-width:0.04677943;stroke-miterlimit:4;stroke-dasharray:none;stroke-opacity:1"
     id="rect1373-6-7"
     width="94.703835"
     height="10.584087"
     x="-438.01117"
     y="-745.57465"
     transform="matrix(-0.44080885,0.897601,-0.80442517,-0.59405399,0,0)"
     inkscape:transform-center-x="-132.31097"
     inkscape:transform-center-y="-40.453803" />
</svg>
