<?xml version="1.0" encoding="UTF-8" standalone="no"?>
<svg
   xmlns:dc="http://purl.org/dc/elements/1.1/"
   xmlns:cc="http://creativecommons.org/ns#"
   xmlns:rdf="http://www.w3.org/1999/02/22-rdf-syntax-ns#"
   xmlns:svg="http://www.w3.org/2000/svg"
   xmlns="http://www.w3.org/2000/svg"
   xmlns:sodipodi="http://sodipodi.sourceforge.net/DTD/sodipodi-0.dtd"
   xmlns:inkscape="http://www.inkscape.org/namespaces/inkscape"
   id="aa03ddf9-f8f2-4819-a4ce-be9b0a220741"
   data-name="Layer 1"
   width="1119.60911"
   height="699"
   viewBox="0 0 1119.60911 699"
   version="1.1"
   sodipodi:docname="server-down-2.svg"
   inkscape:version="0.92.3 (2405546, 2018-03-11)">
  <metadata
     id="metadata109">
    <rdf:RDF>
      <cc:Work
         rdf:about="">
        <dc:format>image/svg+xml</dc:format>
        <dc:type
           rdf:resource="http://purl.org/dc/dcmitype/StillImage" />
        <dc:title>server down</dc:title>
      </cc:Work>
    </rdf:RDF>
  </metadata>
  <defs
     id="defs107" />
  <sodipodi:namedview
     pagecolor="#ffffff"
     bordercolor="#666666"
     borderopacity="1"
     objecttolerance="10"
     gridtolerance="10"
     guidetolerance="10"
     inkscape:pageopacity="0"
     inkscape:pageshadow="2"
     inkscape:window-width="1440"
     inkscape:window-height="858"
     id="namedview105"
     showgrid="false"
     inkscape:zoom="0.59"
     inkscape:cx="460.58785"
     inkscape:cy="467.97458"
     inkscape:window-x="-11"
     inkscape:window-y="-11"
     inkscape:window-maximized="1"
     inkscape:current-layer="aa03ddf9-f8f2-4819-a4ce-be9b0a220741" />
  <title
     id="title2">server down</title>
  <path
     d="M31.39089,151.64237c0,77.49789,48.6181,140.20819,108.70073,140.20819"
     transform="translate(-31.39089 -100.5)"
     fill="#2f2e41"
     id="path6" />
  <path
     d="M140.09162,291.85056c0-78.36865,54.255-141.78356,121.30372-141.78356"
     transform="translate(-31.39089 -100.5)"
     fill="#6c63ff"
     id="path8" />
  <path
     d="M70.77521,158.66768c0,73.61476,31.00285,133.18288,69.31641,133.18288"
     transform="translate(-31.39089 -100.5)"
     fill="#6c63ff"
     id="path10" />
  <path
     d="M140.09162,291.85056c0-100.13772,62.7103-181.16788,140.20819-181.16788"
     transform="translate(-31.39089 -100.5)"
     fill="#2f2e41"
     id="path12" />
  <path
     d="M117.22379,292.83905s15.41555-.47479,20.06141-3.783,23.713-7.2585,24.86553-1.95278,23.16671,26.38821,5.76263,26.5286-40.43935-2.711-45.07627-5.53549S117.22379,292.83905,117.22379,292.83905Z"
     transform="translate(-31.39089 -100.5)"
     fill="#a8a8a8"
     id="path14" />
  <path
     d="M168.224,311.78489c-17.40408.14042-40.43933-2.71094-45.07626-5.53548-3.53126-2.151-4.93843-9.86945-5.40926-13.43043-.32607.014-.51463.02-.51463.02s.97638,12.43276,5.61331,15.2573,27.67217,5.67589,45.07626,5.53547c5.02386-.04052,6.7592-1.82793,6.66391-4.47526C173.87935,310.756,171.96329,311.75474,168.224,311.78489Z"
     transform="translate(-31.39089 -100.5)"
     opacity="0.2"
     id="path16" />
  <ellipse
     cx="198.60911"
     cy="424.5"
     rx="187"
     ry="25.43993"
     fill="#3f3d56"
     id="ellipse18" />
  <ellipse
     cx="198.60911"
     cy="424.5"
     rx="157"
     ry="21.35866"
     opacity="0.1"
     id="ellipse20" />
  <ellipse
     cx="836.60911"
     cy="660.5"
     rx="283"
     ry="38.5"
     fill="#3f3d56"
     id="ellipse22"
     style="fill:#00ffff" />
  <ellipse
     cx="310.60911"
     cy="645.5"
     rx="170"
     ry="23.12721"
     fill="#3f3d56"
     id="ellipse24" />
  <path
     d="M494,726.5c90,23,263-30,282-90"
     transform="translate(-31.39089 -100.5)"
     fill="none"
     stroke="#2f2e41"
     stroke-miterlimit="10"
     stroke-width="2"
     id="path26"
     style="stroke:#2ff741;stroke-opacity:1;stroke-width:4.5;stroke-miterlimit:10;stroke-dasharray:none" />
  <path
     d="M341,359.5s130-36,138,80-107,149-17,172"
     transform="translate(-31.39089 -100.5)"
     fill="none"
     stroke="#2f2e41"
     stroke-miterlimit="10"
     stroke-width="2"
     id="path28"
     style="fill:none;stroke:#0ae709;stroke-opacity:0" />
  <path
     d="m 168.7572,537.28332 c 0,0 39.0723,-10.82 41.47675,24.04449 2.40445,34.86449 -32.15951,44.78287 -5.10946,51.69566"
     stroke-miterlimit="10"
     id="path30"
     style="fill:none;stroke:#2ff941;stroke-width:4.5;stroke-miterlimit:10;stroke-dasharray:none;stroke-opacity:1"
     inkscape:connector-curvature="0" />
  <path
     d="M810.09554,663.73988,802.218,714.03505s-38.78182,20.60284-11.51335,21.20881,155.73324,0,155.73324,0,24.84461,0-14.54318-21.81478l-7.87756-52.719Z"
     transform="translate(-31.39089 -100.5)"
     fill="#2f2e41"
     id="path32"
     style="fill:#008080" />
  <path
     d="M785.21906,734.69812c6.193-5.51039,16.9989-11.252,16.9989-11.252l7.87756-50.2952,113.9216.10717,7.87756,49.582c9.185,5.08711,14.8749,8.987,18.20362,11.97818,5.05882-1.15422,10.58716-5.44353-18.20362-21.38921l-7.87756-52.719-113.9216,3.02983L802.218,714.03506S769.62985,731.34968,785.21906,734.69812Z"
     transform="translate(-31.39089 -100.5)"
     opacity="0.1"
     id="path34" />
  <rect
     x="578.43291"
     y="212.68859"
     width="513.25314"
     height="357.51989"
     rx="18.04568"
     fill="#2f2e41"
     id="rect36"
     style="fill:#00ced1" />
  <rect
     x="595.70294"
     y="231.77652"
     width="478.71308"
     height="267.83694"
     fill="#3f3d56"
     id="rect38" />
  <circle
     cx="835.05948"
     cy="223.29299"
     r="3.02983"
     fill="#f2f2f2"
     id="circle40" />
  <path
     d="M1123.07694,621.32226V652.6628a18.04341,18.04341,0,0,1-18.04568,18.04568H627.86949A18.04341,18.04341,0,0,1,609.8238,652.6628V621.32226Z"
     transform="translate(-31.39089 -100.5)"
     fill="#2f2e41"
     id="path42"
     style="fill:#00ffff" />
  <polygon
     points="968.978 667.466 968.978 673.526 642.968 673.526 642.968 668.678 643.417 667.466 651.452 645.651 962.312 645.651 968.978 667.466"
     fill="#2f2e41"
     id="polygon44" />
  <path
     d="M1125.828,762.03359c-.59383,2.539-2.83591,5.21743-7.90178,7.75032-18.179,9.08949-55.1429-2.42386-55.1429-2.42386s-28.4804-4.84773-28.4804-17.573a22.72457,22.72457,0,0,1,2.49658-1.48459c7.64294-4.04351,32.98449-14.02122,77.9177.42248a18.73921,18.73921,0,0,1,8.54106,5.59715C1125.07908,756.45353,1126.50669,759.15715,1125.828,762.03359Z"
     transform="translate(-31.39089 -100.5)"
     fill="#2f2e41"
     id="path46" />
  <path
     d="M1125.828,762.03359c-22.251,8.526-42.0843,9.1622-62.43871-4.975-10.26507-7.12617-19.59089-8.88955-26.58979-8.75618,7.64294-4.04351,32.98449-14.02122,77.9177.42248a18.73921,18.73921,0,0,1,8.54106,5.59715C1125.07908,756.45353,1126.50669,759.15715,1125.828,762.03359Z"
     transform="translate(-31.39089 -100.5)"
     opacity="0.1"
     id="path48" />
  <ellipse
     cx="1066.53846"
     cy="654.13477"
     rx="7.87756"
     ry="2.42386"
     fill="#f2f2f2"
     id="ellipse50" />
  <circle
     cx="835.05948"
     cy="545.66686"
     r="11.51335"
     fill="#f2f2f2"
     id="circle52"
     style="fill:#2f4f4f" />
  <polygon
     points="968.978 667.466 968.978 673.526 642.968 673.526 642.968 668.678 643.417 667.466 968.978 667.466"
     opacity="0.1"
     id="polygon54" />
  <rect
     x="108.60911"
     y="159"
     width="208"
     height="242"
     fill="#2f2e41"
     id="rect56" />
  <rect
     x="87.60911"
     y="135"
     width="250"
     height="86"
     fill="#3f3d56"
     id="rect58"
     style="fill:#48d1cc" />
  <rect
     x="87.60911"
     y="237"
     width="250"
     height="86"
     fill="#3f3d56"
     id="rect60"
     style="fill:#48d1cc" />
  <rect
     x="87.60911"
     y="339"
     width="250"
     height="86"
     fill="#3f3d56"
     id="rect62"
     style="fill:#00ffff" />
  <rect
     x="271.60911"
     y="150"
     width="16"
     height="16"
     fill="#6c63ff"
     opacity="0.4"
     id="rect64" />
  <rect
     x="294.60911"
     y="150"
     width="16"
     height="16"
     fill="#6c63ff"
     opacity="0.8"
     id="rect66" />
  <rect
     x="317.60911"
     y="150"
     width="16"
     height="16"
     fill="#6c63ff"
     id="rect68" />
  <rect
     x="271.60911"
     y="251"
     width="16"
     height="16"
     fill="#6c63ff"
     opacity="0.4"
     id="rect70" />
  <rect
     x="294.60911"
     y="251"
     width="16"
     height="16"
     fill="#6c63ff"
     opacity="0.8"
     id="rect72" />
  <rect
     x="317.60911"
     y="251"
     width="16"
     height="16"
     fill="#6c63ff"
     id="rect74" />
  <rect
     x="271.60911"
     y="352"
     width="16"
     height="16"
     fill="#6c63ff"
     opacity="0.4"
     id="rect76" />
  <rect
     x="294.60911"
     y="352"
     width="16"
     height="16"
     fill="#6c63ff"
     opacity="0.8"
     id="rect78" />
  <rect
     x="317.60911"
     y="352"
     width="16"
     height="16"
     fill="#6c63ff"
     id="rect80" />
  <circle
     cx="316.60911"
     cy="538"
     r="79"
     fill="#2f2e41"
     id="circle82"
     style="fill:#9370db" />
  <rect
     x="280.60911"
     y="600"
     width="24"
     height="43"
     fill="#2f2e41"
     id="rect84"
     style="fill:#9370db" />
  <rect
     x="328.60911"
     y="600"
     width="24"
     height="43"
     fill="#2f2e41"
     id="rect86"
     style="fill:#9370db" />
  <ellipse
     cx="300.60911"
     cy="643.5"
     rx="20"
     ry="7.5"
     fill="#2f2e41"
     id="ellipse88"
     style="fill:#008b8b" />
  <ellipse
     cx="348.60911"
     cy="642.5"
     rx="20"
     ry="7.5"
     fill="#2f2e41"
     id="ellipse90"
     style="fill:#008080" />
  <circle
     cx="318.60911"
     cy="518"
     r="27"
     fill="#fff"
     id="circle92" />
  <circle
     cx="318.60911"
     cy="518"
     r="9"
     fill="#3f3d56"
     id="circle94" />
  <path
     d="M271.36733,565.03228c-6.37889-28.56758,14.01185-57.43392,45.544-64.47477s62.2651,10.41,68.644,38.9776-14.51861,39.10379-46.05075,46.14464S277.74622,593.59986,271.36733,565.03228Z"
     transform="translate(-31.39089 -100.5)"
     fill="#6c63ff"
     id="path96" />
  <ellipse
     cx="417.21511"
     cy="611.34365"
     rx="39.5"
     ry="12.40027"
     transform="translate(-238.28665 112.98044) rotate(-23.17116)"
     fill="#2f2e41"
     id="ellipse98"
     style="fill:#9370db" />
  <ellipse
     cx="269.21511"
     cy="664.34365"
     rx="39.5"
     ry="12.40027"
     transform="translate(-271.07969 59.02084) rotate(-23.17116)"
     fill="#2f2e41"
     id="ellipse100"
     style="fill:#9370db" />
  <path
     d="M394,661.5c0,7.732-19.90861,23-42,23s-43-14.268-43-22,20.90861-6,43-6S394,653.768,394,661.5Z"
     transform="translate(-31.39089 -100.5)"
     fill="#fff"
     id="path102" />
  <path
     inkscape:connector-curvature="0"
     style="fill:none;stroke:#2ff541;stroke-width:4.5;stroke-miterlimit:10;stroke-opacity:1;stroke-dasharray:none"
     d="m 333.6091,267 c 0,0 130,-36 138,80 8,116.00001 -107,149.00001 -17,172.00001"
     stroke-miterlimit="10"
     id="path28-3" />
</svg>
