<?xml version="1.0" encoding="UTF-8" standalone="no"?>
<svg
   xmlns:dc="http://purl.org/dc/elements/1.1/"
   xmlns:cc="http://creativecommons.org/ns#"
   xmlns:rdf="http://www.w3.org/1999/02/22-rdf-syntax-ns#"
   xmlns:svg="http://www.w3.org/2000/svg"
   xmlns="http://www.w3.org/2000/svg"
   xmlns:sodipodi="http://sodipodi.sourceforge.net/DTD/sodipodi-0.dtd"
   xmlns:inkscape="http://www.inkscape.org/namespaces/inkscape"
   id="fc473563-838c-4b37-be93-34ef803eaab9"
   data-name="Layer 1"
   width="1132"
   height="861.22144"
   viewBox="0 0 1132 861.22144"
   version="1.1"
   sodipodi:docname="sms-charge.svg"
   inkscape:version="0.92.3 (2405546, 2018-03-11)">
  <metadata
     id="metadata99">
    <rdf:RDF>
      <cc:Work
         rdf:about="">
        <dc:format>image/svg+xml</dc:format>
        <dc:type
           rdf:resource="http://purl.org/dc/dcmitype/StillImage" />
        <dc:title>location_search</dc:title>
      </cc:Work>
    </rdf:RDF>
  </metadata>
  <defs
     id="defs97" />
  <sodipodi:namedview
     pagecolor="#ffffff"
     bordercolor="#666666"
     borderopacity="1"
     objecttolerance="10"
     gridtolerance="10"
     guidetolerance="10"
     inkscape:pageopacity="0"
     inkscape:pageshadow="2"
     inkscape:window-width="1440"
     inkscape:window-height="858"
     id="namedview95"
     showgrid="false"
     inkscape:zoom="0.51"
     inkscape:cx="186.07914"
     inkscape:cy="388.17445"
     inkscape:window-x="-11"
     inkscape:window-y="-11"
     inkscape:window-maximized="1"
     inkscape:current-layer="fc473563-838c-4b37-be93-34ef803eaab9" />
  <title
     id="title2">location_search</title>
  <rect
     x="351.6472"
     y="719.18961"
     width="780.3528"
     height="2.78201"
     fill="#3f3d56"
     id="rect4" />
  <rect
     x="83.59129"
     y="858.43943"
     width="780.3528"
     height="2.78201"
     fill="#3f3d56"
     id="rect6" />
  <path
     d="M946.77263,590.177C1053.75283,708.4854,743.6355,878.98521,493.05316,878.98521S69.107,746.878,39.33368,590.177C-32.85647,210.2299,654.411-31.26238,493.05316,301.3687,257.85547,786.217,862.52351,497.00656,946.77263,590.177Z"
     transform="translate(-34 -19.38928)"
     fill="#3f3d56"
     id="path8" />
  <circle
     cx="331.97045"
     cy="193.46663"
     r="9.1137"
     fill="#d0cde1"
     id="circle10" />
  <circle
     cx="208.42918"
     cy="739.27603"
     r="9.1137"
     fill="#d0cde1"
     id="circle12" />
  <circle
     cx="348.17259"
     cy="327.13424"
     r="4.05053"
     fill="#d0cde1"
     id="circle14" />
  <circle
     cx="135.51958"
     cy="537.76198"
     r="4.05053"
     fill="#d0cde1"
     id="circle16" />
  <circle
     cx="668.16474"
     cy="689.65699"
     r="4.05053"
     fill="#d0cde1"
     id="circle18" />
  <circle
     cx="122.35534"
     cy="331.18477"
     r="4.05053"
     fill="#d0cde1"
     id="circle20" />
  <polygon
     points="368.425 223.846 366.4 223.846 366.4 221.82 365.387 221.82 365.387 223.846 363.362 223.846 363.362 224.858 365.387 224.858 365.387 226.884 366.4 226.884 366.4 224.858 368.425 224.858 368.425 223.846"
     fill="#d0cde1"
     id="polygon22" />
  <polygon
     points="213.492 257.263 211.467 257.263 211.467 255.237 210.454 255.237 210.454 257.263 208.429 257.263 208.429 258.275 210.454 258.275 210.454 260.3 211.467 260.3 211.467 258.275 213.492 258.275 213.492 257.263"
     fill="#d0cde1"
     id="polygon24" />
  <polygon
     points="112.229 447.638 110.204 447.638 110.204 445.612 109.191 445.612 109.191 447.638 107.166 447.638 107.166 448.65 109.191 448.65 109.191 450.676 110.204 450.676 110.204 448.65 112.229 448.65 112.229 447.638"
     fill="#d0cde1"
     id="polygon26" />
  <circle
     cx="396.77899"
     cy="776.74347"
     r="4.05053"
     fill="#d0cde1"
     id="circle28" />
  <circle
     cx="383.61476"
     cy="570.16625"
     r="4.05053"
     fill="#d0cde1"
     id="circle30" />
  <circle
     cx="862.59035"
     cy="645.10112"
     r="4.05053"
     fill="#d0cde1"
     id="circle32" />
  <polygon
     points="373.488 686.619 371.463 686.619 371.463 684.594 370.451 684.594 370.451 686.619 368.425 686.619 368.425 687.632 370.451 687.632 370.451 689.657 371.463 689.657 371.463 687.632 373.488 687.632 373.488 686.619"
     fill="#d0cde1"
     id="polygon34" />
  <polygon
     points="569.939 758.516 567.914 758.516 567.914 756.491 566.901 756.491 566.901 758.516 564.876 758.516 564.876 759.529 566.901 759.529 566.901 761.554 567.914 761.554 567.914 759.529 569.939 759.529 569.939 758.516"
     fill="#d0cde1"
     id="polygon36" />
  <polygon
     points="73.749 578.267 71.724 578.267 71.724 576.242 70.711 576.242 70.711 578.267 68.686 578.267 68.686 579.28 70.711 579.28 70.711 581.305 71.724 581.305 71.724 579.28 73.749 579.28 73.749 578.267"
     fill="#d0cde1"
     id="polygon38" />
  <polygon
     points="355.261 432.448 353.236 432.448 353.236 430.423 352.223 430.423 352.223 432.448 350.198 432.448 350.198 433.461 352.223 433.461 352.223 435.486 353.236 435.486 353.236 433.461 355.261 433.461 355.261 432.448"
     fill="#d0cde1"
     id="polygon40" />
  <polygon
     points="230.707 312.957 228.682 312.957 228.682 310.932 227.669 310.932 227.669 312.957 225.644 312.957 225.644 313.97 227.669 313.97 227.669 315.995 228.682 315.995 228.682 313.97 230.707 313.97 230.707 312.957"
     fill="#d0cde1"
     id="polygon42" />
  <polygon
     points="313.743 512.446 311.718 512.446 311.718 510.421 310.705 510.421 310.705 512.446 308.68 512.446 308.68 513.459 310.705 513.459 310.705 515.484 311.718 515.484 311.718 513.459 313.743 513.459 313.743 512.446"
     fill="#d0cde1"
     id="polygon44" />
  <polygon
     points="192.227 638.013 190.202 638.013 190.202 635.987 189.189 635.987 189.189 638.013 187.164 638.013 187.164 639.025 189.189 639.025 189.189 641.051 190.202 641.051 190.202 639.025 192.227 639.025 192.227 638.013"
     fill="#d0cde1"
     id="polygon46" />
  <path
     d="M993.0325,553.93017c-84.2492-93.17037-688.91717,196.04-453.71947-288.80825C644.15272,49.00009,390.74344,75.25,220.15922,224.36707,385.34665,110.9407,584.73888,107.67164,489.694,303.602,254.49629,788.45023,859.16426,499.23987,943.41346,592.41024c39.20172,43.35281,22.39277,93.71327-26.96656,140.12487C1001.28622,676.92946,1043.41138,609.64373,993.0325,553.93017Z"
     transform="translate(-34 -19.38928)"
     fill="#d0cde1"
     id="path54"
     style="fill:#b0c4de" />
  <polygon
     points="821.513 471.359 814.917 502.137 864.383 504.336 856.688 471.359 821.513 471.359"
     fill="#ffb9b9"
     id="polygon62" />
  <polygon
     points="977.604 661.526 971.009 692.305 1020.474 694.503 1012.779 661.526 977.604 661.526"
     fill="#ffb9b9"
     id="polygon64" />
  <path
     d="M924.76456,285.1915l4.39694,17.58774S807.14656,278.5961,813.742,340.15319s35.17548,120.9157,35.17548,120.9157-2.19847,19.78621,2.19847,23.08391,0,14.29,0,14.29,40.67164,5.49617,41.77087-4.39693a68.94258,68.94258,0,0,0-1.09923-19.78621s2.19847,0,0-10.99233S880.70848,363.6246,874.11308,351.533c0,0,58.34612,44.68107,89.12466,39.1849,0,0-4.39694,43.96935,13.1908,102.22874s17.58774,64.85478,17.58774,64.85478,20.88544,111.0226,15.38927,124.21341l-1.09923,5.49616H1048.978s-3.2977-58.25938,0-65.954,3.29771-73.64865-15.38927-106.62566c-13.23339-23.353-10.76865-91.06558-3.53006-117.8298,6.07873-22.47577,7.61382-39.77427,4.05053-62.78327-3.81056-24.60564-15.1895-37.46744-29.10054-49.12677Z"
     transform="translate(-34 -19.38928)"
     fill="#2f2e41"
     id="path66" />
  <circle
     cx="923.19195"
     cy="60.79514"
     r="39.57241"
     fill="#ffb9b9"
     id="circle68" />
  <path
     d="M946.74923,108.21488s12.09157,35.17548,10.99234,41.77088,35.17548-13.1908,35.17548-13.1908-14.29-35.17548-9.8931-45.06858Z"
     transform="translate(-34 -19.38928)"
     fill="#ffb9b9"
     id="path70" />
  <path
     d="M990.71858,124.70339,952.2454,140.09266l2.19847,13.1908s-3.2977,4.39694-2.19847,6.59541-14.29,10.99233-12.09157,14.29-13.1908,16.48851-12.09157,19.78621S892.88678,217.039,912.673,255.51219c0,0,10.25858,13.33616,8.97313,29.10716q-.06777.83142-.17926,1.67139c-2.19847,16.4885,83.54176-2.19847,83.54176-2.19847v-18.687s7.69463-3.2977,6.5954-17.58774-7.69464-7.69464,0-15.38927,7.69464-6.5954,6.5954-13.19081c-.43895-2.63373-.52733-12.10371-.47513-22.53012A100.02423,100.02423,0,0,0,997.314,135.69575l0,0Z"
     transform="translate(-34 -19.38928)"
     fill="#d0cde1"
     id="path72"
     style="fill:#9370db" />
  <path
     d="M858.81054,507.2367s-7.69463-13.1908-13.1908-8.79387l-38.47318,30.77855s-68.15249,19.7862-2.19847,35.17547c0,0,36.27471,5.49617,43.96935,0s19.7862-4.39693,23.08391-2.19846,45.06858-1.09924,45.06858-9.89311-23.038-47.22713-23.038-47.22713S880.79521,520.42751,858.81054,507.2367Z"
     transform="translate(-34 -19.38928)"
     fill="#2f2e41"
     id="path76" />
  <path
     d="M1014.90172,697.40413s-7.69463-13.19081-13.1908-8.79387L963.23774,719.3888s-68.15249,19.78621-2.19847,35.17548c0,0,36.27471,5.49617,43.96935,0s19.7862-4.39694,23.08391-2.19847,45.06858-1.09923,45.06858-9.8931-23.038-47.22714-23.038-47.22714S1036.88639,710.59493,1014.90172,697.40413Z"
     transform="translate(-34 -19.38928)"
     fill="#2f2e41"
     id="path78" />
  <path
     d="M909.76753,64.49072s6.691-58.81618,63.91657-42.11637c0,0,40.4838-8.23448,54.78266,42.32777l14.51336,53.01084-6.64334-3.45229-2.93649,6.75888-10.60217,2.90267-4.73284-8.96141-1.99449,11.03117L942.85286,140.7951S967.615,112.503,967.43941,71.06645L960.146,79.07624Z"
     id="path80"
     fill="#2f2e41"
     transform="translate(-34 -19.38928)" />
  <ellipse
     cx="630.54205"
     cy="551.93884"
     rx="126.4239"
     ry="14.17687"
     id="ellipse82"
     style="fill:#2f2e41;stroke-width:1.08526433" />
  <g
     data-name="filled outline"
     id="filled_outline"
     transform="matrix(0.64818505,0,0,0.5891474,509.97044,308.91409)">
    <path
       style="fill:#4799cf;stroke-width:0.61796159"
       d="m 753.38613,320.20369 c -11.2514,0.27706 -20.37919,110.44891 -20.44082,120.67912 v 131.96875 c -0.0129,10.40723 -9.29011,18.84185 -20.74023,18.85352 h -15.55664 c -11.45012,-0.0117 -20.72936,-8.44629 -20.74219,-18.85352 h -10.37109 c 0.0196,15.6107 13.93825,28.26145 31.11328,28.2793 h 15.55664 c 17.17502,-0.0179 31.09169,-12.6686 31.11133,-28.2793 l -2.0293,-131.96875 c 0.0294,-5.11602 6.86308,-92.87864 12.48979,-93.0172 5.8151,-0.11433 10.28305,87.73051 10.28169,93.0172 v 89.55078 c 0,10.41208 9.28675,18.85352 20.74219,18.85352 1.47977,0 2.92045,-0.14629 4.3125,-0.41406 -0.82437,-2.41526 -1.26487,-5.34195 -1.14844,-8.78516 0.0123,-0.36317 0.0177,-0.57003 0.0215,-0.68555 -1.00425,0.29446 -2.07351,0.45704 -3.18555,0.45704 -5.72772,0 -10.37109,-4.21975 -10.37109,-9.42579 v -89.55078 c -1.9e-4,-10.57153 -9.41539,-120.90773 -21.04357,-120.67912 z"
       transform="matrix(1.5427693,0,0,1.6973681,-786.76674,-524.34092)"
       id="path1359"
       inkscape:connector-curvature="0"
       sodipodi:nodetypes="cccccccccccccsscccssccc" />
    <rect
       id="rect1207"
       y="24"
       x="48"
       width="256"
       rx="42"
       height="416"
       style="fill:#9400d3" />
    <rect
       id="rect1209"
       y="344"
       x="48"
       width="256"
       rx="42"
       height="96"
       style="fill:#3775a4" />
    <path
       id="path1211"
       d="m 224,376 h 48 v 64 a 8,8 0 0 1 -8,8 h -32 a 8,8 0 0 1 -8,-8 z"
       inkscape:connector-curvature="0"
       style="fill:#cbcbcb" />
    <path
       id="path1213"
       d="m 80,376 h 48 v 32 H 80 Z"
       inkscape:connector-curvature="0"
       style="fill:#2e6289" />
    <path
       id="path1215"
       d="m 80,376 h 48 v 16 H 80 Z"
       inkscape:connector-curvature="0"
       style="fill:#285576" />
    <path
       id="path1217"
       d="m 112,72 h 120 v 56 H 112 Z"
       inkscape:connector-curvature="0"
       style="fill:#abe2d1" />
    <path
       id="path1219"
       d="m 112,72 h 112 v 48 H 112 Z"
       inkscape:connector-curvature="0"
       style="fill:#baf6e4" />
    <g
       id="g1227"
       style="fill:#8dc79d">
      <path
         id="path1221"
         d="m 128,88 h 16 v 24 h -16 z"
         inkscape:connector-curvature="0" />
      <path
         id="path1223"
         d="m 152,88 h 16 v 24 h -16 z"
         inkscape:connector-curvature="0" />
      <path
         id="path1225"
         d="m 176,88 h 16 v 24 h -16 z"
         inkscape:connector-curvature="0" />
    </g>
    <path
       id="path1229"
       d="m 152,176 h 64 l -32,40 h 32 l -56,80 v -56 h -24 z"
       inkscape:connector-curvature="0"
       style="fill:#00ffff" />
    <g
       id="g1295">
      <g
         id="g1299" />
    </g>
    <g
       id="g1306">
      <g
         id="g1311">
        <path
           id="path1231"
           d="m 394.06367,389.13258 0.0311,-0.4119 11.70468,-12.00188 0.37565,-0.005 a 50.291647,57.29237 23.44288 0 1 35.02313,15.97383 l 11.00891,12.99586 -35.11406,36.00562 -11.00891,-12.99586 a 50.291647,57.29237 23.44288 0 1 -12.0205,-39.56051 z"
           inkscape:connector-curvature="0"
           style="fill:#cbcbcb" />
        <path
           id="path1233"
           d="m 421.67382,436.33885 21.30712,-26.26728 16.2752,15.98034 -21.30712,26.26728 z"
           inkscape:connector-curvature="0"
           style="fill:#b9b9b9"
           inkscape:transform-center-x="-6.9041454"
           inkscape:transform-center-y="-1.2183786" />
        <path
           id="path1235"
           d="m 421.67382,436.33885 c 0,0 12.81387,-12.37965 19.2208,-18.56947 1.60815,-1.55366 4.82446,-4.66098 4.82446,-4.66098 l 4.79786,6.01131 -24.04526,23.23045 z"
           inkscape:connector-curvature="0"
           style="fill:#a8a8a8"
           sodipodi:nodetypes="cscccc" />
      </g>
    </g>
    <circle
       id="circle1237"
       r="16"
       cy="392"
       cx="176"
       style="fill:#fbb540" />
    <path
       id="path1239"
       d="m 224,376 h 48 v 16 h -48 z"
       inkscape:connector-curvature="0"
       style="fill:#b9b9b9" />
    <path
       id="path1241"
       style="stroke-width:1"
       d="M 96.572302,18.655559 C 68.971113,18.68696 46.605324,41.057101 46.573929,68.6583 v 331.99787 c 0.03101,27.60122 22.397184,49.96802 49.998373,49.99942 H 224.73666 c 1.97977,3.42907 5.13501,5.91453 8.78053,7.13757 2.19965,-2.5829 6.0494,-4.4357 11.57378,-4.4357 h 3.88404 c 0.67524,-0.0136 1.34727,0.0285 2.01885,0.0862 1.91026,-1.16752 4.42067,-1.8631 7.50595,-1.79682 1.01272,0.0217 2.08749,0.12645 3.22113,0.32157 1.96129,0.33742 3.90092,0.81753 5.72813,1.69736 2.18645,1.2189 4.14837,2.74297 5.61363,4.78711 5.86828,-0.93014 10.8281,-5.06517 12.7158,-10.84393 19.72969,-7.18146 32.8453,-25.95674 32.7959,-46.95278 V 68.6583 C 318.5434,41.057101 296.1742,18.686977 268.573,18.655559 Z m 0,16.002345 H 268.573 c 18.769,0.02088 33.98018,15.231418 34.0012,34.000396 v 283.38419 c -9.22802,-8.60874 -21.38131,-13.39417 -34.0012,-13.38667 H 96.572302 c -12.619896,-0.007 -24.770176,4.77793 -33.998174,13.38667 V 68.6583 C 62.59511,49.889322 77.803313,34.678833 96.572302,34.657904 Z M 451.87328,114.42421 c -0.0193,-0.0214 -0.0378,-0.0136 -0.0542,0.0233 -0.051,0.1161 -0.0601,0.55713 0.0241,1.28959 0.0447,-0.13545 0.0907,-0.26976 0.13861,-0.40112 0.01,-0.52714 -0.0505,-0.84753 -0.10848,-0.91167 z M 96.572302,354.65815 H 268.573 c 18.769,0.0209 33.98029,15.22809 34.0012,33.9971 v 12.00092 c 0.0261,11.74541 -6.02682,22.66802 -16.00022,28.87184 v -50.87133 c 0,-4.41828 -3.5818,-7.99951 -8.00009,-7.99951 h -48.00063 c -4.41829,0 -8.00009,3.58123 -8.00009,7.99951 v 55.99989 H 96.572302 c -18.768989,-0.0209 -33.977269,-15.2314 -33.998174,-34.0004 v -12.00092 c 0.02098,-18.76901 15.229185,-33.97615 33.998174,-33.9971 z m 142.001068,31.99804 h 32.00041 v 55.99989 h -32.00041 z m 26.48018,101.78573 c 1.30886,1.02377 2.6698,1.97947 4.07992,2.86431 -0.69338,-0.6508 -1.36595,-1.33196 -2.00079,-2.06867 -0.24096,-0.25991 -0.48825,-0.52273 -0.73221,-0.78238 -0.44779,0.0395 -0.89789,0.0311 -1.34692,-0.0136 z m 119.49533,19.03904 c 0.16551,0.0221 0.32868,0.0377 0.49416,0.0596 10e-4,-0.0199 -0.001,-0.0397 0,-0.0596 -0.16465,-10e-4 -0.3295,9.2e-4 -0.49416,0 z"
       inkscape:connector-curvature="0" />
    <path
       id="path1243"
       d="m 80,416 h 48 a 8,8 0 0 0 8,-8 v -32 a 8,8 0 0 0 -8,-8 H 80 a 8,8 0 0 0 -8,8 v 32 a 8,8 0 0 0 8,8 z m 8,-32 h 32 v 16 H 88 Z"
       inkscape:connector-curvature="0" />
    <path
       id="path1245"
       d="m 112,136 h 120 a 8,8 0 0 0 8,-8 V 72 a 8,8 0 0 0 -8,-8 H 112 a 8,8 0 0 0 -8,8 v 56 a 8,8 0 0 0 8,8 z m 8,-56 h 104 v 40 H 120 Z"
       inkscape:connector-curvature="0" />
    <path
       id="path1247"
       d="m 128,88 h 16 v 24 h -16 z"
       inkscape:connector-curvature="0"
       style="fill:#ff0000" />
    <path
       id="path1253"
       d="m 220.04954,164.535 a 8,8 0 0 0 -7.21,-4.535 h -64 a 8,8 0 0 0 -7.761,6.06 l -16,64 a 8,8 0 0 0 7.761,9.94 h 16 v 48 a 8,8 0 0 0 14.554,4.588 l 56,-80 A 8,8 0 0 0 212.83954,200 h -15.355 l 21.6,-27 a 8,8 0 0 0 0.965,-8.465 z m -55.21,98.086 V 232 a 8,8 0 0 0 -8,-8 h -13.754 l 12,-48 h 41.109 l -21.6,27 a 8,8 0 0 0 6.245,13 h 16.635 z"
       inkscape:connector-curvature="0" />
    <path
       id="path1255"
       d="m 176,416 a 24,24 0 1 0 -24,-24 24.027,24.027 0 0 0 24,24 z m 0,-32 a 8,8 0 1 1 -8,8 8.009,8.009 0 0 1 8,-8 z"
       inkscape:connector-curvature="0" />
  </g>
  <path
     d="M800.55116,309.37464s-54.96169,53.86245-31.87778,60.45786S818.1389,320.367,818.1389,320.367Z"
     transform="translate(-34 -19.38928)"
     fill="#ffb9b9"
     id="path60" />
  <path
     d="M969.83314,153.28346,898.383,228.03135l-104.4272,82.44253,23.08391,18.687,192.36589-128.61034S1025.89406,130.19956,969.83314,153.28346Z"
     transform="translate(-34 -19.38928)"
     fill="#d0cde1"
     id="path74"
     style="fill:#9370db" />
</svg>
