<svg height="512" viewBox="0 0 512 512" width="512" xmlns="http://www.w3.org/2000/svg"><g id="filled_outline" data-name="filled outline"><path d="m312 496h-24a48.055 48.055 0 0 1 -48-48h16a32.036 32.036 0 0 0 32 32h24a32.036 32.036 0 0 0 32-32v-224a32.18 32.18 0 0 1 31.308-31.992 32 32 0 0 1 32.692 31.992v152a16 16 0 0 0 32 0v-192h16v192a32 32 0 0 1 -64 0v-152a16 16 0 0 0 -16.346-16 16.09 16.09 0 0 0 -15.654 16v224a48.055 48.055 0 0 1 -48 48z" fill="#4799cf"/><rect fill="#4799cf" height="416" rx="42" width="256" x="48" y="24"/><rect fill="#3775a4" height="96" rx="42" width="256" x="48" y="344"/><path d="m224 376h48v64a8 8 0 0 1 -8 8h-32a8 8 0 0 1 -8-8z" fill="#cbcbcb"/><path d="m80 376h48v32h-48z" fill="#2e6289"/><path d="m80 376h48v16h-48z" fill="#285576"/><path d="m112 72h120v56h-120z" fill="#abe2d1"/><path d="m112 72h112v48h-112z" fill="#baf6e4"/><g fill="#8dc79d"><path d="m128 88h16v24h-16z"/><path d="m152 88h16v24h-16z"/><path d="m176 88h16v24h-16z"/></g><path d="m152 176h64l-32 40h32l-56 80v-56h-24z" fill="#fbb540"/><path d="m456.278 191.722-.278.278h-16l-.278-.278a53.678 53.678 0 0 1 -15.722-37.957v-17.765h48v17.765a53.678 53.678 0 0 1 -15.722 37.957z" fill="#cbcbcb"/><path d="m432 112h32v24h-32z" fill="#b9b9b9"/><path d="m432 128h32v8h-32z" fill="#a8a8a8"/><circle cx="176" cy="392" fill="#fbb540" r="16"/><path d="m224 376h48v16h-48z" fill="#b9b9b9"/><path d="m90 448h128.165a16 16 0 0 0 13.835 8h8.679a48.07 48.07 0 0 0 47.321 40h24a48.055 48.055 0 0 0 48-48v-224a16.09 16.09 0 0 1 15.654-16 16 16 0 0 1 16.346 16v152a32 32 0 0 0 64 0v-176a8 8 0 0 0 5.657-2.343l.278-.278a61.277 61.277 0 0 0 18.065-43.613v-17.766a8 8 0 0 0 -8-8v-16a8 8 0 0 0 -8-8h-32a8 8 0 0 0 -8 8v16a8 8 0 0 0 -8 8v17.766a61.277 61.277 0 0 0 18.065 43.613l.278.278a8 8 0 0 0 5.657 2.343v176a16 16 0 0 1 -32 0v-152a32 32 0 0 0 -32.692-31.992 32.18 32.18 0 0 0 -31.308 31.992v224a32.036 32.036 0 0 1 -32 32h-24a32.056 32.056 0 0 1 -30.987-24h6.987a16.022 16.022 0 0 0 15.206-11.047 49.842 49.842 0 0 0 32.794-46.953v-332a50.057 50.057 0 0 0 -50-50h-172a50.057 50.057 0 0 0 -50 50v332a50.057 50.057 0 0 0 50 50zm350-328h16v8h-16zm-8 33.766v-9.766h32v9.766a45.342 45.342 0 0 1 -11.435 30.234h-9.13a45.342 45.342 0 0 1 -11.435-30.234zm-168 286.234h-32v-56h32zm-208-374a34.038 34.038 0 0 1 34-34h172a34.038 34.038 0 0 1 34 34v283.385a49.8 49.8 0 0 0 -34-13.385h-172a49.8 49.8 0 0 0 -34 13.385zm0 320a34.038 34.038 0 0 1 34-34h172a34.038 34.038 0 0 1 34 34v12a33.912 33.912 0 0 1 -16 28.872v-50.872a8 8 0 0 0 -8-8h-48a8 8 0 0 0 -8 8v56h-126a34.038 34.038 0 0 1 -34-34z"/><path d="m80 416h48a8 8 0 0 0 8-8v-32a8 8 0 0 0 -8-8h-48a8 8 0 0 0 -8 8v32a8 8 0 0 0 8 8zm8-32h32v16h-32z"/><path d="m112 136h120a8 8 0 0 0 8-8v-56a8 8 0 0 0 -8-8h-120a8 8 0 0 0 -8 8v56a8 8 0 0 0 8 8zm8-56h104v40h-104z"/><path d="m128 88h16v24h-16z"/><path d="m152 88h16v24h-16z"/><path d="m176 88h16v24h-16z"/><path d="m223.21 172.535a8 8 0 0 0 -7.21-4.535h-64a8 8 0 0 0 -7.761 6.06l-16 64a8 8 0 0 0 7.761 9.94h16v48a8 8 0 0 0 14.554 4.588l56-80a8 8 0 0 0 -6.554-12.588h-15.355l21.6-27a8 8 0 0 0 .965-8.465zm-55.21 98.086v-30.621a8 8 0 0 0 -8-8h-13.754l12-48h41.109l-21.6 27a8 8 0 0 0 6.245 13h16.635z"/><path d="m176 416a24 24 0 1 0 -24-24 24.027 24.027 0 0 0 24 24zm0-32a8 8 0 1 1 -8 8 8.009 8.009 0 0 1 8-8z"/></g></svg>