<?xml version="1.0" encoding="UTF-8" standalone="no"?>
<!-- Generator: Adobe Illustrator 19.0.0, SVG Export Plug-In . SVG Version: 6.00 Build 0)  -->

<svg
   xmlns:dc="http://purl.org/dc/elements/1.1/"
   xmlns:cc="http://creativecommons.org/ns#"
   xmlns:rdf="http://www.w3.org/1999/02/22-rdf-syntax-ns#"
   xmlns:svg="http://www.w3.org/2000/svg"
   xmlns="http://www.w3.org/2000/svg"
   xmlns:sodipodi="http://sodipodi.sourceforge.net/DTD/sodipodi-0.dtd"
   xmlns:inkscape="http://www.inkscape.org/namespaces/inkscape"
   version="1.1"
   id="Capa_1"
   x="0px"
   y="0px"
   viewBox="0 0 167.71414 246.47889"
   xml:space="preserve"
   sodipodi:docname="official-logo-cyan.svg"
   inkscape:version="0.92.3 (2405546, 2018-03-11)"
   width="167.71414"
   height="246.4789"><metadata
   id="metadata103"><rdf:RDF><cc:Work
       rdf:about=""><dc:format>image/svg+xml</dc:format><dc:type
         rdf:resource="http://purl.org/dc/dcmitype/StillImage" /><dc:title /></cc:Work></rdf:RDF></metadata><defs
   id="defs101">

	




</defs><sodipodi:namedview
   pagecolor="#ffffff"
   bordercolor="#666666"
   borderopacity="1"
   objecttolerance="10"
   gridtolerance="10"
   guidetolerance="10"
   inkscape:pageopacity="0"
   inkscape:pageshadow="2"
   inkscape:window-width="1440"
   inkscape:window-height="858"
   id="namedview99"
   showgrid="false"
   inkscape:zoom="1.21"
   inkscape:cx="152.53379"
   inkscape:cy="295.74966"
   inkscape:window-x="-11"
   inkscape:window-y="-11"
   inkscape:window-maximized="1"
   inkscape:current-layer="Capa_1"
   inkscape:pagecheckerboard="false" />


<g
   id="g18"
   transform="translate(-146.28989,-124.37183)">
	<g
   id="g16">
		
	</g>
</g>

<g
   id="g30"
   transform="translate(-146.28989,-124.37183)">
	<g
   id="g28">
		
	</g>
</g>


<g
   id="g48"
   transform="translate(-146.28989,-124.37183)">
	<g
   id="g46">
		
	</g>
</g>



<g
   id="g68"
   transform="translate(-146.28989,-124.37183)">
</g>
<g
   id="g70"
   transform="translate(-146.28989,-124.37183)">
</g>
<g
   id="g72"
   transform="translate(-146.28989,-124.37183)">
</g>
<g
   id="g74"
   transform="translate(-146.28989,-124.37183)">
</g>
<g
   id="g76"
   transform="translate(-146.28989,-124.37183)">
</g>
<g
   id="g78"
   transform="translate(-146.28989,-124.37183)">
</g>
<g
   id="g80"
   transform="translate(-146.28989,-124.37183)">
</g>
<g
   id="g82"
   transform="translate(-146.28989,-124.37183)">
</g>
<g
   id="g84"
   transform="translate(-146.28989,-124.37183)">
</g>
<g
   id="g86"
   transform="translate(-146.28989,-124.37183)">
</g>
<g
   id="g88"
   transform="translate(-146.28989,-124.37183)">
</g>
<g
   id="g90"
   transform="translate(-146.28989,-124.37183)">
</g>
<g
   id="g92"
   transform="translate(-146.28989,-124.37183)">
</g>
<g
   id="g94"
   transform="translate(-146.28989,-124.37183)">
</g>
<g
   id="g96"
   transform="translate(-146.28989,-124.37183)">
</g>
<g
   id="g936"
   inkscape:export-filename="C:\_github-projects\systems\fiddelize\frontend\public\img\official-logo-cyan-new.png"
   inkscape:export-xdpi="189.7444"
   inkscape:export-ydpi="189.7444"><g
     style="fill:#00ffff;fill-opacity:1"
     transform="matrix(1.1767345,0,0,1.356681,-16.784549,-88.075517)"
     id="g896"><ellipse
       transform="matrix(0.98135238,0.19221735,-0.25637168,0.96657827,0,0)"
       style="fill:#00ffff;fill-opacity:1;stroke-width:1.25620103"
       id="path133-2"
       cx="121.78127"
       cy="216.5833"
       rx="14.259419"
       ry="13.265477" /><ellipse
       style="fill:#00ffff;fill-opacity:1;stroke-width:1.41822445"
       id="path133-2-1"
       cx="159.60092"
       cy="181.76454"
       rx="15.87494"
       ry="15.187427"
       transform="matrix(0.98114973,0.19324906,-0.25504302,0.96692971,0,0)" /><ellipse
       transform="matrix(0.98253959,0.18605362,-0.26457797,0.9643643,0,0)"
       style="fill:#00ffff;fill-opacity:1;stroke-width:0.84574753"
       id="path133-2-5"
       cx="82.780121"
       cy="210.61392"
       rx="9.7468147"
       ry="8.7968102" /></g><path
     style="color:#000000;font-weight:400;line-height:normal;font-family:sans-serif;text-indent:0;text-align:start;text-decoration:none;text-decoration-line:none;text-decoration-style:solid;text-decoration-color:#000000;text-transform:none;white-space:normal;overflow:visible;isolation:auto;mix-blend-mode:normal;solid-color:#000000;solid-opacity:1;fill:#00ffff;fill-opacity:1;stroke-width:21.43966293;enable-background:accumulate"
     d="m 99.93498,1.6888746 c -39.069493,0 -57.663113,14.9499644 -63.165677,49.5860254 l -8.095746,50.95893 c 0,0 -0.0255,1.11004 0,1.66471 l 7.083777,56.99569 c -0.0099,11.19717 3.045787,43.34625 15.556115,43.34625 12.510308,0 22.64928,-9.08155 22.639862,-20.27874 v -60.73063 l 34.511229,-14.02579 c 11.5008,-4.67406 15.99973,-6.08597 15.99973,-17.277189 0,-11.191223 -13.99511,-10.514871 -26.488755,-10.073221 L 73.953311,82.704099 V 65.471163 c 0,-13.228715 11.339681,-21.472732 25.981669,-23.254445 l 41.87151,-5.095144 c 12.5055,0.0023 25.53126,-16.713338 25.53126,-27.906213 0,-11.1928694 -13.02576,-7.527974 -25.53126,-7.5256363 z"
     font-weight="400"
     overflow="visible"
     id="path2-7"
     inkscape:connector-curvature="0"
     sodipodi:nodetypes="cscccsccssscsscscc" /></g></svg>