<?xml version="1.0" encoding="UTF-8" standalone="no"?>
<svg
   xmlns:dc="http://purl.org/dc/elements/1.1/"
   xmlns:cc="http://creativecommons.org/ns#"
   xmlns:rdf="http://www.w3.org/1999/02/22-rdf-syntax-ns#"
   xmlns:svg="http://www.w3.org/2000/svg"
   xmlns="http://www.w3.org/2000/svg"
   xmlns:sodipodi="http://sodipodi.sourceforge.net/DTD/sodipodi-0.dtd"
   xmlns:inkscape="http://www.inkscape.org/namespaces/inkscape"
   height="49.714901"
   id="Layer_1"
   version="1.1"
   viewBox="0 0 49.477302 49.7149"
   width="49.477303"
   xml:space="preserve"
   sodipodi:docname="whatsapp.svg"
   inkscape:version="0.92.3 (2405546, 2018-03-11)"><metadata
     id="metadata15"><rdf:RDF><cc:Work
         rdf:about=""><dc:format>image/svg+xml</dc:format><dc:type
           rdf:resource="http://purl.org/dc/dcmitype/StillImage" /></cc:Work></rdf:RDF></metadata><defs
     id="defs13" /><sodipodi:namedview
     pagecolor="#ffffff"
     bordercolor="#666666"
     borderopacity="1"
     objecttolerance="10"
     gridtolerance="10"
     guidetolerance="10"
     inkscape:pageopacity="0"
     inkscape:pageshadow="2"
     inkscape:window-width="1440"
     inkscape:window-height="858"
     id="namedview11"
     showgrid="false"
     inkscape:zoom="4.1627714"
     inkscape:cx="-25.561792"
     inkscape:cy="20.583458"
     inkscape:window-x="-11"
     inkscape:window-y="-11"
     inkscape:window-maximized="1"
     inkscape:current-layer="Layer_1" /><style
     type="text/css"
     id="style2">
	.st0{fill-rule:evenodd;clip-rule:evenodd;}
</style><rect
     style="opacity:1;fill:#9400d3;fill-opacity:1;fill-rule:nonzero;stroke:#47ffff;stroke-width:0.1;stroke-miterlimit:4;stroke-dasharray:none;stroke-opacity:1"
     id="rect830"
     width="5.0760002"
     height="9.9827995"
     x="5.4949994"
     y="34.9492" /><ellipse
     style="opacity:1;fill:#9400d3;fill-opacity:1;fill-rule:nonzero;stroke:#47ffff;stroke-width:0.1;stroke-miterlimit:4;stroke-dasharray:none;stroke-opacity:1"
     id="path825"
     cx="24.835354"
     cy="24.857401"
     rx="22.460997"
     ry="23.542009" /><g
     id="g8"
     transform="translate(-4.1117,-3.4891)"><path
       class="st0"
       d="M 46.3802,10.7138 C 41.729,6.0573 35.5437,3.4918 28.9536,3.4891 c -13.5785,0 -24.63,11.0506 -24.6353,24.6333 -0.0019,4.342 1.1325,8.58 3.2884,12.3159 L 4.1117,53.204 17.1712,49.7783 c 3.5982,1.9626 7.6495,2.9971 11.7726,2.9985 h 0.01 c 8e-4,0 -6e-4,0 2e-4,0 13.5771,0 24.6293,-11.0517 24.635,-24.6347 0.0024,-6.5826 -2.5577,-12.772 -7.2088,-17.4283 z M 28.9537,48.6163 h -0.0083 c -3.674,-0.0014 -7.2777,-0.9886 -10.4215,-2.8541 l -0.7476,-0.4437 -7.7497,2.0328 2.0686,-7.5558 -0.4869,-0.7748 c -2.0496,-3.26 -3.1321,-7.028 -3.1305,-10.8969 0.0044,-11.2894 9.19,-20.474 20.4842,-20.474 5.469,0.0017 10.6101,2.1344 14.476,6.0047 3.8658,3.8703 5.9936,9.0148 5.9914,14.4859 -0.0046,11.2903 -9.1899,20.4759 -20.4757,20.4759 z"
       id="path4"
       inkscape:connector-curvature="0"
       style="clip-rule:evenodd;fill:#00ffff;fill-rule:evenodd" /><path
       class="st0"
       d="m 40.1851,33.281 c -0.6155,-0.3081 -3.6419,-1.797 -4.2061,-2.0026 -0.5642,-0.2054 -0.9746,-0.3081 -1.3849,0.3081 -0.4103,0.6161 -1.59,2.0027 -1.9491,2.4136 -0.359,0.4106 -0.7182,0.4623 -1.3336,0.1539 -0.6155,-0.3081 -2.5989,-0.958 -4.95,-3.0551 -1.83,-1.6323 -3.0653,-3.6479 -3.4245,-4.2643 -0.359,-0.6161 -0.0382,-0.9492 0.27,-1.2562 0.2769,-0.2759 0.6156,-0.7189 0.9234,-1.0784 0.3077,-0.3593 0.4103,-0.6163 0.6155,-1.0268 0.2052,-0.4109 0.1027,-0.7704 -0.0513,-1.0784 -0.1539,-0.3081 -1.3849,-3.3379 -1.8978,-4.5706 -0.4998,-1.2001 -1.0072,-1.0375 -1.3851,-1.0566 -0.3585,-0.0179 -0.7694,-0.0216 -1.1797,-0.0216 -0.4103,0 -1.0773,0.1541 -1.6414,0.7702 -0.5642,0.6163 -2.1545,2.1056 -2.1545,5.1351 0,3.0299 2.2057,5.9569 2.5135,6.3676 0.3077,0.411 4.3405,6.6282 10.5153,9.2945 1.4686,0.6343 2.6152,1.013 3.5091,1.2966 1.4746,0.4686 2.8165,0.4024 3.8771,0.2439 1.1827,-0.1767 3.6419,-1.489 4.1548,-2.9267 0.513,-1.438 0.513,-2.6706 0.359,-2.9272 -0.1538,-0.2567 -0.5642,-0.4108 -1.1797,-0.719 z"
       id="path6"
       style="clip-rule:evenodd;fill:#00ffff;fill-rule:evenodd"
       inkscape:connector-curvature="0" /></g></svg>