<?xml version="1.0" encoding="UTF-8" standalone="no"?>
<svg
   xmlns:dc="http://purl.org/dc/elements/1.1/"
   xmlns:cc="http://creativecommons.org/ns#"
   xmlns:rdf="http://www.w3.org/1999/02/22-rdf-syntax-ns#"
   xmlns:svg="http://www.w3.org/2000/svg"
   xmlns="http://www.w3.org/2000/svg"
   xmlns:sodipodi="http://sodipodi.sourceforge.net/DTD/sodipodi-0.dtd"
   xmlns:inkscape="http://www.inkscape.org/namespaces/inkscape"
   version="1.1"
   id="Capa_1"
   x="0px"
   y="0px"
   viewBox="0 0 512 512"
   style="enable-background:new 0 0 512 512;"
   xml:space="preserve"
   width="512px"
   height="512px"
   class=""
   sodipodi:docname="organnize-funnel.svg"
   inkscape:version="0.92.3 (2405546, 2018-03-11)"><metadata
   id="metadata35"><rdf:RDF><cc:Work
       rdf:about=""><dc:format>image/svg+xml</dc:format><dc:type
         rdf:resource="http://purl.org/dc/dcmitype/StillImage" /></cc:Work></rdf:RDF></metadata><defs
   id="defs33" /><sodipodi:namedview
   pagecolor="#ffffff"
   bordercolor="#666666"
   borderopacity="1"
   objecttolerance="10"
   gridtolerance="10"
   guidetolerance="10"
   inkscape:pageopacity="0"
   inkscape:pageshadow="2"
   inkscape:window-width="1440"
   inkscape:window-height="858"
   id="namedview31"
   showgrid="false"
   showguides="false"
   inkscape:zoom="0.4609375"
   inkscape:cx="256"
   inkscape:cy="256"
   inkscape:window-x="-11"
   inkscape:window-y="-11"
   inkscape:window-maximized="1"
   inkscape:current-layer="Capa_1"><sodipodi:guide
     position="-195.25424,956.74576"
     orientation="0,1"
     id="guide842"
     inkscape:locked="false" /></sodipodi:namedview><g
   transform="matrix(1 0 0 1 0 0)"
   id="g28"><circle
     style="fill:#C1EE92"
     cx="294.32"
     cy="44"
     r="34"
     data-original="#C1EE92"
     class=""
     id="circle2" /><path
     style="fill:#FF5D5D"
     d="M367.883,168c0-25.957-21.043-47-47-47s-47,21.043-47,47H367.883z"
     data-original="#FF5D5D"
     id="path4" /><circle
     style="fill:#FED284"
     cx="170.37"
     cy="134"
     r="34"
     data-original="#FED284"
     id="circle6" /><path
     style="fill:#7b68ee"
     d="M433.797,168H86.598c-8.005,0-12.765,8.938-8.298,15.58l135.898,202.086V502l92-40.063v-76.271  L442.095,183.58C446.562,176.938,441.802,168,433.797,168z"
     data-original="#96EDE7"
     class=""
     id="path8" /><path
     style="fill:#00ffff"
     d="M433.797,168H86.598c-8.005,0-12.765,8.938-8.298,15.58L100.101,216h320.192l21.802-32.42  C446.562,176.938,441.802,168,433.797,168z"
     data-original="#D9F9F7"
     class=""
     id="path10" /><path
     d="m 457.95747,168.599 c -3.482,-6.538 -10.245,-10.599 -17.652,-10.599 h -56.81 c -4.743,-26.675 -28.087,-47 -56.104,-47 -28.017,0 -51.361,20.325 -56.104,47 h -57.555 c 4.514,-6.908 7.15,-15.15 7.15,-24 0,-24.262 -19.738,-44 -44,-44 -24.262,0 -44,19.738 -44,44 0,8.85 2.636,17.092 7.15,24 H 93.106474 c -7.407,0 -14.17,4.061 -17.652,10.599 -3.481,6.537 -3.077,14.416 1.056,20.562 L 210.70647,388.717 V 502 c 0,3.372 1.699,6.517 4.52,8.364 1.653,1.083 3.562,1.636 5.481,1.636 1.354,0 2.713,-0.275 3.992,-0.832 l 92,-40.063 c 3.648,-1.589 6.007,-5.189 6.007,-9.168 v -73.221 l 134.195,-199.556 c 4.133,-6.145 4.538,-14.024 1.056,-20.561 z M 327.39147,131 c 16.937,0 31.241,11.443 35.616,27 h -71.231 c 4.374,-15.557 18.679,-27 35.615,-27 z m -174.508,3 c 0,-13.233 10.767,-24 24,-24 13.233,0 24,10.767 24,24 0,13.233 -10.767,24 -24,24 -13.233,0 -24,-10.767 -24,-24 z m 151.524,246.086 c -1.109,1.649 -1.702,3.592 -1.702,5.58 v 69.719 l -72,31.353 v -91.072 h 36.127 c 5.523,0 10,-4.477 10,-10 0,-5.523 -4.477,-10 -10,-10 h -40.801 L 125.38847,226 h 202.003 c 5.523,0 10,-4.477 10,-10 0,-5.523 -4.477,-10 -10,-10 h -215.452 L 93.110474,178 H 440.30447 Z"
     data-original="#000000"
     class="active-path"
     style="fill:#000000"
     data-old_color="#000000"
     id="path12"
     inkscape:connector-curvature="0" /><path
     d="M294.324,88c24.262,0,44-19.738,44-44s-19.738-44-44-44s-44,19.738-44,44S270.063,88,294.324,88z M294.324,20  c13.233,0,24,10.767,24,24s-10.767,24-24,24s-24-10.767-24-24S281.091,20,294.324,20z"
     data-original="#000000"
     class="active-path"
     style="fill:#000000"
     data-old_color="#000000"
     id="path14" /><path
     d="M401.197,125.168c5.523,0,10-4.477,10-10V58.333c0-5.523-4.477-10-10-10s-10,4.477-10,10v56.834  C391.197,120.691,395.674,125.168,401.197,125.168z"
     data-original="#000000"
     class="active-path"
     style="fill:#000000"
     data-old_color="#000000"
     id="path16" /><path
     d="M401.197,35.5c2.63,0,5.21-1.07,7.07-2.93s2.93-4.44,2.93-7.07s-1.07-5.21-2.93-7.07s-4.44-2.93-7.07-2.93  s-5.21,1.07-7.07,2.93c-1.86,1.86-2.93,4.44-2.93,7.07s1.07,5.21,2.93,7.07C395.987,34.43,398.567,35.5,401.197,35.5z"
     data-original="#000000"
     class="active-path"
     style="fill:#000000"
     data-old_color="#000000"
     id="path18" /><path
     d="M204.375,73.755c5.523,0,10-4.477,10-10v-41c0-5.523-4.477-10-10-10s-10,4.477-10,10v41  C194.375,69.278,198.852,73.755,204.375,73.755z"
     data-original="#000000"
     class="active-path"
     style="fill:#000000"
     data-old_color="#000000"
     id="path20" /><path
     d="m 94.230898,85.168 c 5.523,0 10.000002,-4.477 10.000002,-10 V 10 c 0,-5.523 -4.477002,-10 -10.000002,-10 -5.523,0 -10,4.477 -10,10 v 65.168 c 0,5.523 4.477,10 10,10 z"
     data-original="#000000"
     class="active-path"
     style="fill:#000000"
     data-old_color="#000000"
     id="path22"
     inkscape:connector-curvature="0" /><path
     d="m 101.3009,121.90949 c 1.86,-1.86 2.93,-4.44 2.93,-7.07 0,-2.64 -1.07,-5.21 -2.93,-7.07 -1.860002,-1.87 -4.440002,-2.93 -7.070002,-2.93 -2.63,0 -5.21,1.06 -7.07,2.93 -1.86,1.86 -2.93,4.43 -2.93,7.07 0,2.63 1.07,5.21 2.93,7.07 1.86,1.86 4.44,2.93 7.07,2.93 2.63,0 5.21,-1.07 7.070002,-2.93 z"
     data-original="#000000"
     class="active-path"
     style="fill:#000000"
     data-old_color="#000000"
     id="path24"
     inkscape:connector-curvature="0" /><path
     d="M358.277,208.93c-1.87,1.86-2.93,4.44-2.93,7.07s1.06,5.21,2.93,7.07c1.86,1.86,4.43,2.93,7.07,2.93  c2.63,0,5.2-1.07,7.07-2.93c1.86-1.86,2.93-4.44,2.93-7.07s-1.07-5.21-2.93-7.07s-4.44-2.93-7.07-2.93  C362.707,206,360.127,207.07,358.277,208.93z"
     data-original="#000000"
     class="active-path"
     style="fill:#000000"
     data-old_color="#000000"
     id="path26" /></g> </svg>