<?xml version="1.0" standalone="no"?><svg xmlns="http://www.w3.org/2000/svg" viewBox="0 0 1440 320"><path fill="#c91c1c" fill-opacity="1" d="M0,96L26.7,128C53.3,160,107,224,160,224C213.3,224,267,160,320,154.7C373.3,149,427,203,480,229.3C533.3,256,587,256,640,250.7C693.3,245,747,235,800,218.7C853.3,203,907,181,960,181.3C1013.3,181,1067,203,1120,229.3C1173.3,256,1227,288,1280,261.3C1333.3,235,1387,149,1413,106.7L1440,64L1440,320L1413.3,320C1386.7,320,1333,320,1280,320C1226.7,320,1173,320,1120,320C1066.7,320,1013,320,960,320C906.7,320,853,320,800,320C746.7,320,693,320,640,320C586.7,320,533,320,480,320C426.7,320,373,320,320,320C266.7,320,213,320,160,320C106.7,320,53,320,27,320L0,320Z"></path></svg>