<?xml version="1.0" encoding="UTF-8" standalone="no"?>
<!-- Generator: Adobe Illustrator 19.0.0, SVG Export Plug-In . SVG Version: 6.00 Build 0)  -->

<svg
   xmlns:dc="http://purl.org/dc/elements/1.1/"
   xmlns:cc="http://creativecommons.org/ns#"
   xmlns:rdf="http://www.w3.org/1999/02/22-rdf-syntax-ns#"
   xmlns:svg="http://www.w3.org/2000/svg"
   xmlns="http://www.w3.org/2000/svg"
   xmlns:sodipodi="http://sodipodi.sourceforge.net/DTD/sodipodi-0.dtd"
   xmlns:inkscape="http://www.inkscape.org/namespaces/inkscape"
   version="1.1"
   id="Capa_1"
   x="0px"
   y="0px"
   viewBox="0 0 512.016 433.344"
   xml:space="preserve"
   sodipodi:docname="credit-card-selection.svg"
   inkscape:version="0.92.3 (2405546, 2018-03-11)"
   width="512.01599"
   height="433.34399"><metadata
   id="metadata83"><rdf:RDF><cc:Work
       rdf:about=""><dc:format>image/svg+xml</dc:format><dc:type
         rdf:resource="http://purl.org/dc/dcmitype/StillImage" /></cc:Work></rdf:RDF></metadata><defs
   id="defs81" /><sodipodi:namedview
   pagecolor="#ffffff"
   bordercolor="#666666"
   borderopacity="1"
   objecttolerance="10"
   gridtolerance="10"
   guidetolerance="10"
   inkscape:pageopacity="0"
   inkscape:pageshadow="2"
   inkscape:window-width="1440"
   inkscape:window-height="858"
   id="namedview79"
   showgrid="false"
   inkscape:zoom="0.4609231"
   inkscape:cx="-165.97128"
   inkscape:cy="390.23675"
   inkscape:window-x="-11"
   inkscape:window-y="-11"
   inkscape:window-maximized="1"
   inkscape:current-layer="Capa_1" />
<path
   style="fill:#ba55d3"
   d="m 511.936,32 v 243.84 c 0,17.76 -14.24,32 -32,32 H 91.456 c -17.76,0 -32,-14.24 -32,-32 V 32 c 0,-17.6 14.24,-32 32,-32 h 388.48 c 17.76,0 32,14.4 32,32 z"
   id="path2"
   inkscape:connector-curvature="0" />
<rect
   x="59.375999"
   y="58.208"
   style="fill:#464646"
   width="452.64001"
   height="51.967999"
   id="rect4" />
<g
   id="g10"
   transform="translate(0,-39.336)">
	<path
   style="fill:#f0f8ff"
   d="M 393.968,52.44 H 290.704 c -8.832,0 -16,7.152 -16,16 0,8.848 7.168,16 16,16 h 103.264 c 8.832,0 16,-7.152 16,-16 0,-8.832 -7.168,-16 -16,-16 z"
   id="path6"
   inkscape:connector-curvature="0" />
	<path
   style="fill:#f0f8ff"
   d="m 468.576,52.44 h -27.984 c -8.832,0 -16,7.152 -16,16 0,8.848 7.168,16 16,16 h 27.984 c 8.832,0 16,-7.152 16,-16 0,-8.832 -7.152,-16 -16,-16 z"
   id="path8"
   inkscape:connector-curvature="0" />
</g>
<g
   id="g16"
   transform="translate(0,-39.336)">
	<path
   style="fill:#3e3e3e"
   d="m 179.792,107.528 h -78.016 c -8.832,0 -16,7.152 -16,16 0,8.848 7.168,16 16,16 h 78.016 c 8.832,0 16,-7.152 16,-16 0,-8.848 -7.152,-16 -16,-16 z"
   id="path12"
   inkscape:connector-curvature="0" />
	<path
   style="fill:#3e3e3e"
   d="m 254.416,107.528 h -27.968 c -8.832,0 -16,7.152 -16,16 0,8.848 7.168,16 16,16 h 27.968 c 8.832,0 16,-7.152 16,-16 0,-8.848 -7.168,-16 -16,-16 z"
   id="path14"
   inkscape:connector-curvature="0" />
</g>
<g
   style="opacity:0.07000002"
   id="g20"
   transform="translate(0,-39.336)">
	<path
   style="fill:#010101"
   d="m 511.936,253.256 v 61.92 c 0,17.76 -14.24,32 -32,32 h -38.72 l 11.04,-153.6 z"
   id="path18"
   inkscape:connector-curvature="0" />
</g>
<path
   style="fill:#4b0082"
   d="M 420.608,433.344 H 32 c -17.68,0 -32,-14.32 -32,-32 V 157.456 c 0,-17.664 14.32,-32 32,-32 h 388.608 c 17.68,0 32,14.336 32,32 v 243.872 c 0,17.68 -14.32,32.016 -32,32.016 z"
   id="path22"
   inkscape:connector-curvature="0" />
<g
   id="g28"
   transform="translate(0,-39.336)">
	<path
   style="fill:#4b0082"
   d="m 206.72,164.792 c -99.84,75.68 -170.08,172.64 -206.4,279.04 -0.16,-1.28 -0.32,-2.56 -0.32,-4 v -243.84 c 0,-15.2 10.56,-28 24.8,-31.2 z"
   id="path24"
   inkscape:connector-curvature="0" />
	<path
   style="fill:#4b0082"
   d="m 245.904,472.68 c 99.84,-75.68 170.08,-172.64 206.4,-279.04 0.16,1.28 0.32,2.56 0.32,4 v 243.84 c 0,15.2 -10.56,28 -24.8,31.2 z"
   id="path26"
   inkscape:connector-curvature="0" />
</g>


<g
   id="g38"
   transform="translate(0,-39.336)">
	<path
   style="fill:#8bd5ec;fill-opacity:1"
   d="M 133.92,349.88 H 58.224 c -8.832,0 -16,-7.152 -16,-16 0,-8.848 7.168,-16 16,-16 h 75.696 c 8.832,0 16,7.152 16,16 0,8.832 -7.168,16 -16,16 z"
   id="path34"
   inkscape:connector-curvature="0" />
	<path
   style="fill:#00ffff"
   d="M 201.536,267.768 H 58.224 c -8.832,0 -16,-7.152 -16,-16 0,-8.848 7.168,-16 16,-16 h 143.312 c 8.832,0 16,7.152 16,16 0,8.848 -7.168,16 -16,16 z"
   id="path36"
   inkscape:connector-curvature="0" />
</g>
<path
   style="fill:#8bd5ec"
   d="m 105.088,392.656 h -46.88 c -8.832,0 -16,-7.152 -16,-16 0,-8.848 7.168,-16 16,-16 h 46.88 c 8.832,0 16,7.152 16,16 0,8.832 -7.152,16 -16,16 z"
   id="path40"
   inkscape:connector-curvature="0" />
<path
   style="fill:#00ffff"
   d="m 201.536,392.656 h -46.88 c -8.832,0 -16,-7.152 -16,-16 0,-8.848 7.168,-16 16,-16 h 46.88 c 8.832,0 16,7.152 16,16 0,8.832 -7.168,16 -16,16 z"
   id="path42"
   inkscape:connector-curvature="0" />
<path
   style="fill:#8bd5ec"
   d="m 297.968,392.656 h -46.88 c -8.832,0 -16,-7.152 -16,-16 0,-8.848 7.168,-16 16,-16 h 46.88 c 8.832,0 16,7.152 16,16 0,8.832 -7.168,16 -16,16 z"
   id="path44"
   inkscape:connector-curvature="0" />
<path
   style="fill:#00ffff"
   d="m 394.4,392.656 h -46.88 c -8.832,0 -16,-7.152 -16,-16 0,-8.848 7.168,-16 16,-16 h 46.88 c 8.832,0 16,7.152 16,16 0,8.832 -7.168,16 -16,16 z"
   id="path46"
   inkscape:connector-curvature="0" />
<g
   id="g48"
   transform="translate(0,-39.336)">
</g>
<g
   id="g50"
   transform="translate(0,-39.336)">
</g>
<g
   id="g52"
   transform="translate(0,-39.336)">
</g>
<g
   id="g54"
   transform="translate(0,-39.336)">
</g>
<g
   id="g56"
   transform="translate(0,-39.336)">
</g>
<g
   id="g58"
   transform="translate(0,-39.336)">
</g>
<g
   id="g60"
   transform="translate(0,-39.336)">
</g>
<g
   id="g62"
   transform="translate(0,-39.336)">
</g>
<g
   id="g64"
   transform="translate(0,-39.336)">
</g>
<g
   id="g66"
   transform="translate(0,-39.336)">
</g>
<g
   id="g68"
   transform="translate(0,-39.336)">
</g>
<g
   id="g70"
   transform="translate(0,-39.336)">
</g>
<g
   id="g72"
   transform="translate(0,-39.336)">
</g>
<g
   id="g74"
   transform="translate(0,-39.336)">
</g>
<g
   id="g76"
   transform="translate(0,-39.336)">
</g>
<g
   id="g1048"
   transform="matrix(5.1562438,0,0,5.1324939,300.53196,151.82262)"><g
     id="XMLID_7_">
	
	
	
	
	
	<path
   d="M 19.745,26 H 6.255 C 5.563,26 5,25.438 5,24.745 v -9.49 C 5,14.562 5.563,14 6.255,14 h 13.49 C 20.438,14 21,14.562 21,15.255 v 9.49 C 21,25.438 20.438,26 19.745,26"
   style="fill:#f0c41b"
   id="XMLID_125_"
   inkscape:connector-curvature="0" />
	<path
   d="M 19.745,27 H 6.255 C 5.012,27 4,25.988 4,24.745 v -9.49 C 4,14.012 5.012,13 6.255,13 h 13.49 C 20.988,13 22,14.012 22,15.255 v 9.49 C 22,25.988 20.988,27 19.745,27 M 6.255,15 C 6.113,15 6,15.114 6,15.255 v 9.49 C 6,24.886 6.113,25 6.255,25 h 13.49 C 19.886,25 20,24.886 20,24.745 v -9.49 C 20,15.114 19.886,15 19.745,15 Z"
   style="fill:#f3d55c"
   id="XMLID_122_"
   inkscape:connector-curvature="0" />
	<path
   d="M 21,15.255 C 21,14.561 20.438,14 19.745,14 H 15 12.255 C 11.561,14 11,14.561 11,15.255 V 18 24.745 C 11,25.438 11.561,26 12.255,26 h 1.49 C 14.438,26 15,25.438 15,24.745 v -5.49 C 15,18.562 15.561,18 16.255,18 h 3.49 C 20.438,18 21,17.438 21,16.745 Z"
   style="fill:#f0c41b"
   id="XMLID_121_"
   inkscape:connector-curvature="0" />
	<path
   d="m 13.745,27 h -1.49 C 11.012,27 10,25.988 10,24.745 v -9.49 C 10,14.012 11.012,13 12.255,13 h 7.49 C 20.988,13 22,14.012 22,15.255 v 1.49 C 22,17.988 20.988,19 19.745,19 h -3.49 C 16.113,19 16,19.114 16,19.255 v 5.49 C 16,25.988 14.988,27 13.745,27 M 12.255,15 C 12.113,15 12,15.114 12,15.255 v 9.49 C 12,24.886 12.113,25 12.255,25 h 1.49 C 13.886,25 14,24.886 14,24.745 v -5.49 C 14,18.012 15.012,17 16.255,17 h 3.49 C 19.886,17 20,16.886 20,16.745 v -1.49 C 20,15.114 19.886,15 19.745,15 Z"
   style="fill:#f3d55c"
   id="XMLID_118_"
   inkscape:connector-curvature="0" />
	<line
   y2="22"
   x2="21"
   y1="22"
   x1="15"
   style="fill:#f0c41b"
   id="XMLID_117_" />
	<path
   d="m 21,23 h -6 c -0.553,0 -1,-0.448 -1,-1 0,-0.552 0.447,-1 1,-1 h 6 c 0.553,0 1,0.448 1,1 0,0.552 -0.447,1 -1,1"
   style="fill:#f3d55c"
   id="XMLID_116_"
   inkscape:connector-curvature="0" />
	<line
   y2="18"
   x2="5"
   y1="18"
   x1="11"
   style="fill:#f0c41b"
   id="XMLID_115_" />
	<path
   d="M 11,19 H 5 C 4.447,19 4,18.552 4,18 4,17.448 4.447,17 5,17 h 6 c 0.553,0 1,0.448 1,1 0,0.552 -0.447,1 -1,1"
   style="fill:#f3d55c"
   id="XMLID_114_"
   inkscape:connector-curvature="0" />
	<line
   y2="22"
   x2="5"
   y1="22"
   x1="11"
   style="fill:#f0c41b"
   id="XMLID_113_" />
	<path
   d="M 11,23 H 5 C 4.447,23 4,22.552 4,22 4,21.448 4.447,21 5,21 h 6 c 0.553,0 1,0.448 1,1 0,0.552 -0.447,1 -1,1"
   style="fill:#f3d55c"
   id="XMLID_112_"
   inkscape:connector-curvature="0" />
	
	
	
	
	
	
	
</g><g
     id="g973">
</g><g
     id="g975">
</g><g
     id="g977">
</g><g
     id="g979">
</g><g
     id="g981">
</g><g
     id="g983">
</g><g
     id="g985">
</g><g
     id="g987">
</g><g
     id="g989">
</g><g
     id="g991">
</g><g
     id="g993">
</g><g
     id="g995">
</g><g
     id="g997">
</g><g
     id="g999">
</g><g
     id="g1001">
</g></g></svg>