<?xml version="1.0" encoding="UTF-8" standalone="no"?>
<svg
   xmlns:dc="http://purl.org/dc/elements/1.1/"
   xmlns:cc="http://creativecommons.org/ns#"
   xmlns:rdf="http://www.w3.org/1999/02/22-rdf-syntax-ns#"
   xmlns:svg="http://www.w3.org/2000/svg"
   xmlns="http://www.w3.org/2000/svg"
   xmlns:sodipodi="http://sodipodi.sourceforge.net/DTD/sodipodi-0.dtd"
   xmlns:inkscape="http://www.inkscape.org/namespaces/inkscape"
   id="Capa_1"
   enable-background="new 0 0 511.999 511.999"
   height="512"
   viewBox="0 0 511.999 511.999"
   width="512"
   version="1.1"
   sodipodi:docname="eqquipe.svg"
   inkscape:version="0.92.3 (2405546, 2018-03-11)">
  <metadata
     id="metadata101">
    <rdf:RDF>
      <cc:Work
         rdf:about="">
        <dc:format>image/svg+xml</dc:format>
        <dc:type
           rdf:resource="http://purl.org/dc/dcmitype/StillImage" />
        <dc:title></dc:title>
      </cc:Work>
    </rdf:RDF>
  </metadata>
  <defs
     id="defs99" />
  <sodipodi:namedview
     pagecolor="#ffffff"
     bordercolor="#666666"
     borderopacity="1"
     objecttolerance="10"
     gridtolerance="10"
     guidetolerance="10"
     inkscape:pageopacity="0"
     inkscape:pageshadow="2"
     inkscape:window-width="1440"
     inkscape:window-height="858"
     id="namedview97"
     showgrid="false"
     inkscape:zoom="0.4609375"
     inkscape:cx="-165.9661"
     inkscape:cy="256"
     inkscape:window-x="-11"
     inkscape:window-y="-11"
     inkscape:window-maximized="1"
     inkscape:current-layer="Capa_1" />
  <g
     id="g94">
    <g
       id="g62">
      <path
         d="m360.035 159.278 5.463-3.66h105l4.942 3.66c17.802-15.882 29.016-38.993 29.016-64.727 0-47.893-38.825-86.718-86.718-86.718s-86.718 38.825-86.718 86.718c0 25.734 11.213 48.845 29.015 64.727z"
         id="path2"
         fill="#3f6d8e"
         style="fill:#9400d3" />
      <g
         id="g6">
        <path
           d="m364.27 94.551c0-42.206 30.155-77.364 70.093-85.12-5.381-1.045-10.938-1.599-16.625-1.599-47.893 0-86.718 38.825-86.718 86.718 0 25.734 11.213 48.845 29.015 64.727l5.463-3.66h23.937c-15.551-15.672-25.165-37.243-25.165-61.066z"
           id="path4"
           fill="#365e7d"
           style="fill:#4b0082" />
      </g>
      <circle
         cx="417.738"
         cy="65.384"
         r="29.167"
         id="circle10"
         fill="#ffdecf" />
      <path
         d="m425.649 86.008c-11.39-11.39-11.39-29.858 0-41.248 1.937-1.936 4.081-3.535 6.356-4.813-11.112-6.24-25.438-4.641-34.892 4.813-11.39 11.39-11.39 29.858 0 41.248 9.454 9.454 23.78 11.053 34.892 4.813-2.275-1.278-4.419-2.877-6.356-4.813z"
         id="path12"
         fill="#ffcebe" />
      <path
         d="m442.082 121.968c-10.318 0-40.27 0-48.688 0-18.424 0-33.359 14.935-33.359 33.359v3.951c15.329 13.675 35.543 21.991 57.703 21.991 22.159 0 42.373-8.316 57.703-21.991v-3.951c0-18.424-14.936-33.359-33.359-33.359z"
         id="path14"
         fill="#ffaa5b" />
      <path
         d="m403.285 154.327c0-15.623 10.741-28.732 25.24-32.359-12.864 0-29.25 0-35.131 0-18.423 0-33.359 14.935-33.359 33.359v3.951c11.921 10.635 26.803 18.006 43.25 20.768z"
         id="path16"
         fill="#ff9838" />
      <path
         d="m36.472 159.278 5.463-3.66h105l4.942 3.66c17.802-15.882 29.016-38.993 29.016-64.727 0-47.893-38.825-86.718-86.718-86.718s-86.718 38.825-86.718 86.718c0 25.734 11.213 48.845 29.015 64.727z"
         id="path18"
         fill="#3f6d8e"
         style="fill:#9400d3;fill-opacity:1" />
      <g
         id="g22">
        <path
           d="m40.707 94.551c0-42.206 30.155-77.364 70.093-85.12-5.381-1.045-10.938-1.599-16.625-1.599-47.893 0-86.718 38.825-86.718 86.718 0 25.734 11.213 48.845 29.015 64.727l5.463-3.66h23.937c-15.551-15.672-25.165-37.243-25.165-61.066z"
           id="path20"
           fill="#365e7d"
           style="fill:#4b0082;fill-opacity:1" />
      </g>
      <circle
         cx="94.175"
         cy="65.384"
         r="29.167"
         id="circle24"
         fill="#ffdecf" />
      <path
         d="m102.086 86.008c-11.39-11.39-11.39-29.858 0-41.248 1.937-1.936 4.081-3.535 6.356-4.813-11.112-6.24-25.438-4.641-34.892 4.813-11.39 11.39-11.39 29.858 0 41.248 9.454 9.454 23.78 11.053 34.892 4.813-2.275-1.278-4.419-2.877-6.356-4.813z"
         id="path26"
         fill="#ffcebe" />
      <path
         d="m118.519 121.968c-10.318 0-40.27 0-48.688 0-18.424 0-33.359 14.935-33.359 33.359v3.951c15.329 13.675 35.543 21.991 57.703 21.991s42.373-8.316 57.703-21.991v-3.951c-.001-18.424-14.936-33.359-33.359-33.359z"
         id="path28"
         fill="#dd636e" />
      <path
         d="m79.722 154.327c0-15.623 10.741-28.732 25.24-32.359-12.864 0-29.25 0-35.131 0-18.423 0-33.359 14.935-33.359 33.359v3.951c11.921 10.635 26.803 18.006 43.25 20.768z"
         id="path30"
         fill="#da4a54" />
      <path
         d="m360.035 482.84 5.463-3.66h105l4.942 3.66c17.802-15.882 29.016-38.993 29.016-64.727 0-47.893-38.825-86.718-86.718-86.718s-86.718 38.825-86.718 86.718c0 25.734 11.213 48.846 29.015 64.727z"
         id="path32"
         fill="#3f6d8e"
         style="fill:#9400d3;fill-opacity:1" />
      <g
         id="g36">
        <path
           d="m364.27 418.113c0-42.206 30.155-77.364 70.093-85.12-5.381-1.045-10.938-1.599-16.625-1.599-47.893 0-86.718 38.825-86.718 86.718 0 25.734 11.213 48.845 29.015 64.727l5.463-3.66h23.937c-15.551-15.671-25.165-37.242-25.165-61.066z"
           id="path34"
           fill="#365e7d"
           style="fill:#4b0082;fill-opacity:1" />
      </g>
      <circle
         cx="417.738"
         cy="388.946"
         r="29.167"
         id="circle38"
         fill="#ffdecf" />
      <path
         d="m425.649 409.571c-11.39-11.39-11.39-29.858 0-41.248 1.937-1.936 4.081-3.535 6.356-4.813-11.112-6.24-25.438-4.641-34.892 4.813-11.39 11.39-11.39 29.858 0 41.248 9.454 9.454 23.78 11.053 34.892 4.813-2.275-1.278-4.419-2.877-6.356-4.813z"
         id="path40"
         fill="#ffcebe" />
      <path
         d="m442.082 445.53c-10.318 0-40.27 0-48.688 0-18.424 0-33.359 14.935-33.359 33.359v3.951c15.329 13.675 35.543 21.991 57.703 21.991 22.159 0 42.373-8.316 57.703-21.991v-3.951c0-18.423-14.936-33.359-33.359-33.359z"
         id="path42"
         fill="#90d8f9" />
      <path
         d="m403.285 477.889c0-15.623 10.741-28.732 25.24-32.359-12.864 0-29.25 0-35.131 0-18.423 0-33.359 14.935-33.359 33.359v3.951c11.921 10.635 26.803 18.006 43.25 20.768z"
         id="path44"
         fill="#75cef9" />
      <path
         d="m36.472 482.84 5.463-3.66h105l4.942 3.66c17.802-15.882 29.016-38.993 29.016-64.727 0-47.893-38.825-86.718-86.718-86.718s-86.718 38.825-86.718 86.718c0 25.734 11.213 48.846 29.015 64.727z"
         id="path46"
         fill="#3f6d8e"
         style="fill:#9400d3;fill-opacity:1" />
      <g
         id="g50">
        <path
           d="m40.707 418.113c0-42.206 30.155-77.364 70.093-85.12-5.381-1.045-10.938-1.599-16.625-1.599-47.893 0-86.718 38.825-86.718 86.718 0 25.734 11.213 48.845 29.015 64.727l5.463-3.66h23.937c-15.551-15.671-25.165-37.242-25.165-61.066z"
           id="path48"
           fill="#365e7d"
           style="fill:#4b0082;fill-opacity:1" />
      </g>
      <circle
         cx="94.175"
         cy="388.946"
         r="29.167"
         id="circle52"
         fill="#ffdecf" />
      <path
         d="m102.086 409.571c-11.39-11.39-11.39-29.858 0-41.248 1.937-1.936 4.081-3.535 6.356-4.813-11.112-6.24-25.438-4.641-34.892 4.813-11.39 11.39-11.39 29.858 0 41.248 9.454 9.454 23.78 11.053 34.892 4.813-2.275-1.278-4.419-2.877-6.356-4.813z"
         id="path54"
         fill="#ffcebe" />
      <path
         d="m118.519 445.53c-10.318 0-40.27 0-48.688 0-18.424 0-33.359 14.935-33.359 33.359v3.951c15.329 13.675 35.543 21.991 57.703 21.991s42.373-8.316 57.703-21.991v-3.951c-.001-18.423-14.936-33.359-33.359-33.359z"
         id="path56"
         fill="#b3e59f" />
      <path
         d="m79.722 477.889c0-15.623 10.741-28.732 25.24-32.359-12.864 0-29.25 0-35.131 0-18.423 0-33.359 14.935-33.359 33.359v3.951c11.921 10.635 26.803 18.006 43.25 20.768z"
         id="path58"
         fill="#95d6a4" />
    </g>
    <g
       id="g92">
      <path
         d="m 96.732,188.606 c 52.09,0 94.219,-42.331 94.219,-94.218 0,-51.953 -42.267,-94.219 -94.219,-94.219 -51.952,0 -94.218,42.266 -94.218,94.218 0,51.911 42.236,94.219 94.218,94.219 z m 50.203,-32.988 c -14.197,11.661 -31.871,17.988 -50.203,17.988 -17.936,0 -35.71,-6.084 -50.202,-17.987 0,-15.529 12.243,-26.314 25.858,-26.314 h 48.688 c 13.629,-0.001 25.859,10.796 25.859,26.313 z M 96.732,15.169 c 43.682,0 79.219,35.537 79.219,79.218 0,17.96 -6.017,34.535 -16.127,47.837 -5.426,-16.205 -20.739,-27.92 -38.748,-27.92 H 72.388 c -18.007,0 -33.321,11.715 -38.747,27.92 -10.11,-13.302 -16.127,-29.877 -16.127,-47.837 0,-43.681 35.537,-79.218 79.218,-79.218 z"
         id="path68"
         inkscape:connector-curvature="0" />
      <path
         d="m 420.296,323.73 c -51.952,0 -94.219,42.267 -94.219,94.219 0,51.931 42.191,94.218 94.219,94.218 51.766,0 94.218,-42.078 94.218,-94.218 0,-51.952 -42.266,-94.219 -94.218,-94.219 z m 50.202,155.45 c -29.09,23.894 -71.085,24.083 -100.405,0 0,-15.529 12.243,-26.313 25.858,-26.313 h 48.688 c 13.631,-0.001 25.859,10.795 25.859,26.313 z m 12.889,-13.394 c -5.426,-16.205 -20.739,-27.92 -38.747,-27.92 h -48.688 c -18.007,0 -33.32,11.715 -38.746,27.92 -10.111,-13.302 -16.128,-29.877 -16.128,-47.837 0,-43.682 35.537,-79.219 79.219,-79.219 43.681,0 79.218,35.537 79.218,79.219 -10e-4,17.96 -6.018,34.535 -16.128,47.837 z"
         id="path70"
         inkscape:connector-curvature="0" />
      <path
         d="m120.145 90.979c14.331-14.33 14.332-37.524 0-51.854h.001c-14.329-14.329-37.524-14.333-51.854 0-14.332 14.329-14.333 37.522-.002 51.854 14.329 14.329 37.524 14.332 51.855 0zm-41.248-41.249c8.448-8.448 22.193-8.448 30.641 0h.001c8.467 8.468 8.468 22.173-.001 30.642-8.447 8.447-22.192 8.447-30.642 0-8.467-8.468-8.468-22.173.001-30.642z"
         id="path72" />
      <path
         d="m68.291 414.542c14.293 14.293 37.557 14.295 51.854 0 14.296-14.297 14.296-37.56 0-51.856h-.001c-14.295-14.295-37.558-14.295-51.854 0-14.296 14.296-14.296 37.559.001 51.856zm10.605-41.249c8.45-8.448 22.194-8.448 30.642 0 8.448 8.447 8.448 22.194.001 30.642-8.447 8.449-22.194 8.449-30.642 0-8.448-8.448-8.448-22.195-.001-30.642z"
         id="path74" />
      <path
         d="m391.853 39.124c-14.295 14.296-14.295 37.558 0 51.854 14.311 14.311 37.575 14.282 51.855 0 14.331-14.33 14.332-37.524 0-51.854h.001c-14.297-14.298-37.56-14.296-51.856 0zm41.249 41.248c-8.447 8.448-22.192 8.449-30.642 0-8.448-8.448-8.448-22.194 0-30.642 8.447-8.448 22.195-8.448 30.642 0h.001c8.467 8.469 8.468 22.174-.001 30.642z"
         id="path76" />
      <path
         d="m443.708 362.686c-14.295-14.295-37.559-14.296-51.855.001-14.295 14.296-14.295 37.559.001 51.855s37.558 14.295 51.855 0c14.296-14.297 14.296-37.56-.001-51.856zm-10.605 41.249c-8.447 8.448-22.193 8.449-30.643.001-8.447-8.448-8.447-22.195-.001-30.643 8.449-8.447 22.194-8.448 30.643 0 8.448 8.447 8.448 22.194.001 30.642z"
         id="path78" />
      <path
         d="m303.19 101.718c4.143 0 7.5-3.358 7.5-7.5s-3.357-7.5-7.5-7.5h-94.382c-4.143 0-7.5 3.358-7.5 7.5s3.357 7.5 7.5 7.5z"
         id="path80"
         style="fill:#00ced1" />
      <path
         d="m208.809 410.281c-4.143 0-7.5 3.357-7.5 7.5s3.357 7.5 7.5 7.5h94.382c4.143 0 7.5-3.357 7.5-7.5s-3.357-7.5-7.5-7.5z"
         id="path82"
         style="fill:#00ced1" />
      <path
         d="m101.718 303.19v-94.382c0-4.143-3.357-7.5-7.5-7.5s-7.5 3.357-7.5 7.5v94.382c0 4.143 3.357 7.5 7.5 7.5s7.5-3.357 7.5-7.5z"
         id="path84"
         style="fill:#00ced1" />
      <path
         d="m425.28 303.19v-94.382c0-4.143-3.357-7.5-7.5-7.5s-7.5 3.357-7.5 7.5v94.382c0 4.143 3.357 7.5 7.5 7.5s7.5-3.357 7.5-7.5z"
         id="path86"
         style="fill:#00ced1" />
      <path
         d="m 493.441,79.1 c 0.794,4.065 4.739,6.719 8.799,5.922 4.065,-0.794 6.717,-4.734 5.922,-8.799 C 499.551,32.154 460.665,0.16799999 415.701,0.16799999 363.749,0.16799999 321.482,42.434 321.482,94.386 c 0,52.203 42.439,94.218 94.219,94.218 44.493,0 82.867,-31.259 92.115,-74.37 0.869,-4.05 -1.71,-8.038 -5.76,-8.906 -4.045,-0.866 -8.037,1.71 -8.906,5.76 -2.48,11.56 -7.495,22.102 -14.368,31.107 -5.434,-16.191 -20.74,-27.892 -38.737,-27.892 h -48.688 c -18.007,0 -33.321,11.715 -38.747,27.92 -10.111,-13.302 -16.127,-29.877 -16.127,-47.837 -10e-4,-43.681 35.537,-79.218 79.218,-79.218 37.807,0 70.501,26.887 77.74,63.932 z m -102.084,50.203 h 48.688 c 14.259,0 25.858,11.6 25.858,25.859 v 0.367 c -13.827,11.339 -31.431,18.076 -50.202,18.076 -17.678,0 -35.531,-5.936 -50.203,-17.988 0,-15.529 12.243,-26.314 25.859,-26.314 z"
         id="path88"
         inkscape:connector-curvature="0" />
      <path
         d="m 101.675,513.828 c 51.995,0 94.219,-42.284 94.219,-94.218 0,-44.551 -31.632,-83.368 -75.213,-92.3 -4.052,-0.825 -8.022,1.784 -8.854,5.842 -0.832,4.058 1.784,8.021 5.842,8.854 36.635,7.507 63.225,40.145 63.225,77.604 0,17.959 -6.017,34.534 -16.128,47.837 -5.426,-16.205 -20.739,-27.92 -38.747,-27.92 H 77.331 c -18.007,0 -33.321,11.715 -38.747,27.92 -10.11,-13.302 -16.127,-29.877 -16.127,-47.837 0,-37.46 26.589,-70.098 63.224,-77.604 4.058,-0.832 6.673,-4.796 5.842,-8.854 -0.831,-4.058 -4.794,-6.669 -8.854,-5.842 -43.581,8.932 -75.212,47.749 -75.212,92.3 0,51.858 42.109,94.218 94.218,94.218 z M 77.331,454.527 h 48.688 c 13.63,0 25.859,10.796 25.859,26.313 -29.04,23.852 -71.046,24.115 -100.405,0 0,-15.529 12.243,-26.313 25.858,-26.313 z"
         id="path90"
         inkscape:connector-curvature="0" />
    </g>
  </g>
  <g
     id="g901"
     transform="translate(525.01592,-221.2877)">
    <g
       transform="matrix(0.37222579,0,0,0.37826932,-364.1083,382.16874)"
       id="g961">
      <path
         style="fill:#404242"
         inkscape:connector-curvature="0"
         d="m 421,7.5 h -30 v 497 h 30 c 16.57,0 30,-13.43 30,-30 v -437 c 0,-16.57 -13.43,-30 -30,-30 z"
         id="path939" />
      <path
         style="fill:#565959"
         inkscape:connector-curvature="0"
         d="M 391,7.5 H 91 c -16.57,0 -30,13.43 -30,30 v 437 c 0,16.57 13.43,30 30,30 h 300 c 16.57,0 30,-13.43 30,-30 v -30 L 331,256 421,67.5 v -30 c 0,-16.57 -13.43,-30 -30,-30 z"
         id="path941" />
      <path
         style="fill:#4b0082"
         inkscape:connector-curvature="0"
         d="m 286,256 105,188.5 h 30 v -377 h -30 z"
         id="path943" />
      <path
         style="fill:#9400d3"
         inkscape:connector-curvature="0"
         d="m 307.76765,67.5 c -9.144,9.139 -16.831,16.82 -16.844,16.82 -8.147,8.139 -19.39,13.18 -31.789,13.18 -12.399,0 -23.642,-5.041 -31.82,-13.18 l -16.82,-16.82 H 94.134686 v 377 H 394.13465 v -377 z"
         id="path945" />
      <circle
         style="fill:#deecff"
         cx="256"
         cy="52.5"
         r="15"
         id="circle947" />
      <circle
         cx="286"
         cy="474.5"
         r="7.5"
         id="circle949" />
      <circle
         cx="316"
         cy="474.5"
         r="7.5"
         id="circle951" />
      <path
         inkscape:connector-curvature="0"
         d="m 256,467 h -60 c -4.142,0 -7.5,3.357 -7.5,7.5 0,4.143 3.358,7.5 7.5,7.5 h 60 c 4.142,0 7.5,-3.357 7.5,-7.5 0,-4.143 -3.358,-7.5 -7.5,-7.5 z"
         id="path953" />
      <path
         inkscape:connector-curvature="0"
         d="M 421,0 H 91 C 70.322,0 53.5,16.822 53.5,37.5 v 437 c 0,20.678 16.822,37.5 37.5,37.5 h 330 c 20.678,0 37.5,-16.822 37.5,-37.5 V 37.5 C 458.5,16.822 441.678,0 421,0 Z m 22.5,474.5 c 0,12.406 -10.093,22.5 -22.5,22.5 H 91 C 78.593,497 68.5,486.906 68.5,474.5 V 37.5 C 68.5,25.094 78.593,15 91,15 h 330 c 12.407,0 22.5,10.094 22.5,22.5 z"
         id="path955" />
      <path
         inkscape:connector-curvature="0"
         d="M 256,75 C 268.407,75 278.5,64.906 278.5,52.5 278.5,40.094 268.407,30 256,30 243.593,30 233.5,40.094 233.5,52.5 233.5,64.906 243.593,75 256,75 Z m 0,-30 c 4.136,0 7.5,3.364 7.5,7.5 0,4.136 -3.364,7.5 -7.5,7.5 -4.136,0 -7.5,-3.364 -7.5,-7.5 0,-4.136 3.364,-7.5 7.5,-7.5 z"
         id="path957" />
      <path
         inkscape:connector-curvature="0"
         d="m 421.86758,52.5 h -116.367 c -1.988,0 -3.896,0.79 -5.302,2.195 -10.516,10.511 -16.843,16.818 -16.843,16.818 -7.091,7.086 -16.498,10.987 -26.488,10.987 -9.983,0 -19.405,-3.905 -26.517,-10.984 l -16.82,-16.819 c -1.406,-1.407 -3.313,-2.197 -5.303,-2.197 H 91.867578 c -4.142,0 -7.5,3.357 -7.5,7.5 v 173.5 c 0,4.143 3.358,7.5 7.5,7.5 4.142,0 7.5,-3.357 7.5,-7.5 V 67.5 H 205.12158 l 14.635,14.635 c 9.955,9.908 23.134,15.365 37.111,15.365 13.994,0 27.167,-5.46 37.09,-15.375 0.425,-0.419 14.648,-14.625 14.648,-14.625 h 105.762 v 362 H 99.367578 v -166 c 0,-4.143 -3.358,-7.5 -7.5,-7.5 -4.142,0 -7.5,3.357 -7.5,7.5 V 437 c 0,4.143 3.358,7.5 7.5,7.5 H 421.86758 c 4.142,0 7.5,-3.357 7.5,-7.5 V 60 c 0,-4.143 -3.358,-7.5 -7.5,-7.5 z"
         id="path959" />
    </g>
    <rect
       y="429.58002"
       x="-318.89313"
       height="32.49926"
       width="88.90593"
       id="rect866"
       style="opacity:0.99199997;fill:#00ffff;fill-opacity:1;fill-rule:nonzero;stroke:#47ffff;stroke-width:0.14304857;stroke-miterlimit:4;stroke-dasharray:none;stroke-opacity:1" />
    <ellipse
       ry="15.320127"
       rx="15.239162"
       cy="518.36542"
       cx="-239.76266"
       id="path885"
       style="opacity:0.99199997;fill:#00ffff;fill-opacity:1;fill-rule:nonzero;stroke:#47ffff;stroke-width:0.04390067;stroke-miterlimit:4;stroke-dasharray:none;stroke-opacity:1" />
  </g>
</svg>
