<?xml version="1.0" encoding="UTF-8" standalone="no"?>
<svg
   xmlns:dc="http://purl.org/dc/elements/1.1/"
   xmlns:cc="http://creativecommons.org/ns#"
   xmlns:rdf="http://www.w3.org/1999/02/22-rdf-syntax-ns#"
   xmlns:svg="http://www.w3.org/2000/svg"
   xmlns="http://www.w3.org/2000/svg"
   xmlns:sodipodi="http://sodipodi.sourceforge.net/DTD/sodipodi-0.dtd"
   xmlns:inkscape="http://www.inkscape.org/namespaces/inkscape"
   id="Capa_1"
   enable-background="new 0 0 511.999 511.999"
   height="512"
   viewBox="0 0 511.999 511.999"
   width="512"
   version="1.1"
   sodipodi:docname="novvos-membros.svg"
   inkscape:version="0.92.3 (2405546, 2018-03-11)">
  <metadata
     id="metadata101">
    <rdf:RDF>
      <cc:Work
         rdf:about="">
        <dc:format>image/svg+xml</dc:format>
        <dc:type
           rdf:resource="http://purl.org/dc/dcmitype/StillImage" />
        <dc:title />
      </cc:Work>
    </rdf:RDF>
  </metadata>
  <defs
     id="defs99" />
  <sodipodi:namedview
     pagecolor="#ffffff"
     bordercolor="#666666"
     borderopacity="1"
     objecttolerance="10"
     gridtolerance="10"
     guidetolerance="10"
     inkscape:pageopacity="0"
     inkscape:pageshadow="2"
     inkscape:window-width="1440"
     inkscape:window-height="858"
     id="namedview97"
     showgrid="false"
     inkscape:zoom="0.4609375"
     inkscape:cx="483.35575"
     inkscape:cy="256"
     inkscape:window-x="-11"
     inkscape:window-y="-11"
     inkscape:window-maximized="1"
     inkscape:current-layer="Capa_1" />
  <g
     id="g94"
     transform="translate(3.9999922)">
    <g
       id="g62">
      <path
         d="m 360.035,159.278 5.463,-3.66 h 105 l 4.942,3.66 c 17.802,-15.882 29.016,-38.993 29.016,-64.727 0,-47.893 -38.825,-86.718 -86.718,-86.718 -47.893,0 -86.718,38.825 -86.718,86.718 0,25.734 11.213,48.845 29.015,64.727 z"
         id="path2"
         style="fill:#9400d3"
         inkscape:connector-curvature="0" />
      <g
         id="g6">
        <path
           d="m 364.27,94.551 c 0,-42.206 30.155,-77.364 70.093,-85.12 -5.381,-1.045 -10.938,-1.599 -16.625,-1.599 -47.893,0 -86.718,38.825 -86.718,86.718 0,25.734 11.213,48.845 29.015,64.727 l 5.463,-3.66 h 23.937 C 373.884,139.945 364.27,118.374 364.27,94.551 Z"
           id="path4"
           style="fill:#4b0082"
           inkscape:connector-curvature="0" />
      </g>
      <circle
         cx="417.73801"
         cy="65.384003"
         r="29.167"
         id="circle10"
         style="fill:#ffdecf" />
      <path
         d="m 425.649,86.008 c -11.39,-11.39 -11.39,-29.858 0,-41.248 1.937,-1.936 4.081,-3.535 6.356,-4.813 -11.112,-6.24 -25.438,-4.641 -34.892,4.813 -11.39,11.39 -11.39,29.858 0,41.248 9.454,9.454 23.78,11.053 34.892,4.813 -2.275,-1.278 -4.419,-2.877 -6.356,-4.813 z"
         id="path12"
         inkscape:connector-curvature="0"
         style="fill:#ffcebe" />
      <path
         d="m 442.082,121.968 c -10.318,0 -40.27,0 -48.688,0 -18.424,0 -33.359,14.935 -33.359,33.359 v 3.951 c 15.329,13.675 35.543,21.991 57.703,21.991 22.159,0 42.373,-8.316 57.703,-21.991 v -3.951 c 0,-18.424 -14.936,-33.359 -33.359,-33.359 z"
         id="path14"
         inkscape:connector-curvature="0"
         style="fill:#ffaa5b" />
      <path
         d="m 403.285,154.327 c 0,-15.623 10.741,-28.732 25.24,-32.359 -12.864,0 -29.25,0 -35.131,0 -18.423,0 -33.359,14.935 -33.359,33.359 v 3.951 c 11.921,10.635 26.803,18.006 43.25,20.768 z"
         id="path16"
         inkscape:connector-curvature="0"
         style="fill:#ff9838" />
      <path
         d="m 36.472,159.278 5.463,-3.66 h 105 l 4.942,3.66 c 17.802,-15.882 29.016,-38.993 29.016,-64.727 0,-47.893 -38.825,-86.718 -86.718,-86.718 -47.893,0 -86.718,38.825 -86.718,86.718 0,25.734 11.213,48.845 29.015,64.727 z"
         id="path18"
         style="fill:#9400d3;fill-opacity:1"
         inkscape:connector-curvature="0" />
      <g
         id="g22">
        <path
           d="M 40.707,94.551 C 40.707,52.345 70.862,17.187 110.8,9.431 105.419,8.386 99.862,7.832 94.175,7.832 46.282,7.832 7.457,46.657 7.457,94.55 c 0,25.734 11.213,48.845 29.015,64.727 l 5.463,-3.66 H 65.872 C 50.321,139.945 40.707,118.374 40.707,94.551 Z"
           id="path20"
           style="fill:#4b0082;fill-opacity:1"
           inkscape:connector-curvature="0" />
      </g>
      <circle
         cx="94.175003"
         cy="65.384003"
         r="29.167"
         id="circle24"
         style="fill:#ffdecf" />
      <path
         d="m 102.086,86.008 c -11.39,-11.39 -11.39,-29.858 0,-41.248 1.937,-1.936 4.081,-3.535 6.356,-4.813 -11.112,-6.24 -25.438,-4.641 -34.892,4.813 -11.39,11.39 -11.39,29.858 0,41.248 9.454,9.454 23.78,11.053 34.892,4.813 -2.275,-1.278 -4.419,-2.877 -6.356,-4.813 z"
         id="path26"
         inkscape:connector-curvature="0"
         style="fill:#ffcebe" />
      <path
         d="m 118.519,121.968 c -10.318,0 -40.27,0 -48.688,0 -18.424,0 -33.359,14.935 -33.359,33.359 v 3.951 c 15.329,13.675 35.543,21.991 57.703,21.991 22.16,0 42.373,-8.316 57.703,-21.991 v -3.951 c -10e-4,-18.424 -14.936,-33.359 -33.359,-33.359 z"
         id="path28"
         inkscape:connector-curvature="0"
         style="fill:#dd636e" />
      <path
         d="m 79.722,154.327 c 0,-15.623 10.741,-28.732 25.24,-32.359 -12.864,0 -29.25,0 -35.131,0 -18.423,0 -33.359,14.935 -33.359,33.359 v 3.951 c 11.921,10.635 26.803,18.006 43.25,20.768 z"
         id="path30"
         inkscape:connector-curvature="0"
         style="fill:#da4a54" />
      <path
         d="m 360.035,482.84 5.463,-3.66 h 105 l 4.942,3.66 c 17.802,-15.882 29.016,-38.993 29.016,-64.727 0,-47.893 -38.825,-86.718 -86.718,-86.718 -47.893,0 -86.718,38.825 -86.718,86.718 0,25.734 11.213,48.846 29.015,64.727 z"
         id="path32"
         style="fill:#9400d3;fill-opacity:1"
         inkscape:connector-curvature="0" />
      <g
         id="g36">
        <path
           d="m 364.27,418.113 c 0,-42.206 30.155,-77.364 70.093,-85.12 -5.381,-1.045 -10.938,-1.599 -16.625,-1.599 -47.893,0 -86.718,38.825 -86.718,86.718 0,25.734 11.213,48.845 29.015,64.727 l 5.463,-3.66 h 23.937 C 373.884,463.508 364.27,441.937 364.27,418.113 Z"
           id="path34"
           style="fill:#4b0082;fill-opacity:1"
           inkscape:connector-curvature="0" />
      </g>
      <circle
         cx="417.73801"
         cy="388.94601"
         r="29.167"
         id="circle38"
         style="fill:#ffdecf" />
      <path
         d="m 425.649,409.571 c -11.39,-11.39 -11.39,-29.858 0,-41.248 1.937,-1.936 4.081,-3.535 6.356,-4.813 -11.112,-6.24 -25.438,-4.641 -34.892,4.813 -11.39,11.39 -11.39,29.858 0,41.248 9.454,9.454 23.78,11.053 34.892,4.813 -2.275,-1.278 -4.419,-2.877 -6.356,-4.813 z"
         id="path40"
         inkscape:connector-curvature="0"
         style="fill:#ffcebe" />
      <path
         d="m 442.082,445.53 c -10.318,0 -40.27,0 -48.688,0 -18.424,0 -33.359,14.935 -33.359,33.359 v 3.951 c 15.329,13.675 35.543,21.991 57.703,21.991 22.159,0 42.373,-8.316 57.703,-21.991 v -3.951 c 0,-18.423 -14.936,-33.359 -33.359,-33.359 z"
         id="path42"
         inkscape:connector-curvature="0"
         style="fill:#90d8f9" />
      <path
         d="m 403.285,477.889 c 0,-15.623 10.741,-28.732 25.24,-32.359 -12.864,0 -29.25,0 -35.131,0 -18.423,0 -33.359,14.935 -33.359,33.359 v 3.951 c 11.921,10.635 26.803,18.006 43.25,20.768 z"
         id="path44"
         inkscape:connector-curvature="0"
         style="fill:#75cef9" />
      <path
         d="m 36.472,482.84 5.463,-3.66 h 105 l 4.942,3.66 c 17.802,-15.882 29.016,-38.993 29.016,-64.727 0,-47.893 -38.825,-86.718 -86.718,-86.718 -47.893,0 -86.718,38.825 -86.718,86.718 0,25.734 11.213,48.846 29.015,64.727 z"
         id="path46"
         style="fill:#9400d3;fill-opacity:1"
         inkscape:connector-curvature="0" />
      <g
         id="g50">
        <path
           d="m 40.707,418.113 c 0,-42.206 30.155,-77.364 70.093,-85.12 -5.381,-1.045 -10.938,-1.599 -16.625,-1.599 -47.893,0 -86.718,38.825 -86.718,86.718 0,25.734 11.213,48.845 29.015,64.727 l 5.463,-3.66 H 65.872 C 50.321,463.508 40.707,441.937 40.707,418.113 Z"
           id="path48"
           style="fill:#4b0082;fill-opacity:1"
           inkscape:connector-curvature="0" />
      </g>
      <circle
         cx="94.175003"
         cy="388.94601"
         r="29.167"
         id="circle52"
         style="fill:#ffdecf" />
      <path
         d="m 102.086,409.571 c -11.39,-11.39 -11.39,-29.858 0,-41.248 1.937,-1.936 4.081,-3.535 6.356,-4.813 -11.112,-6.24 -25.438,-4.641 -34.892,4.813 -11.39,11.39 -11.39,29.858 0,41.248 9.454,9.454 23.78,11.053 34.892,4.813 -2.275,-1.278 -4.419,-2.877 -6.356,-4.813 z"
         id="path54"
         inkscape:connector-curvature="0"
         style="fill:#ffcebe" />
      <path
         d="m 118.519,445.53 c -10.318,0 -40.27,0 -48.688,0 -18.424,0 -33.359,14.935 -33.359,33.359 v 3.951 c 15.329,13.675 35.543,21.991 57.703,21.991 22.16,0 42.373,-8.316 57.703,-21.991 v -3.951 C 151.877,460.466 136.942,445.53 118.519,445.53 Z"
         id="path56"
         inkscape:connector-curvature="0"
         style="fill:#b3e59f" />
      <path
         d="m 79.722,477.889 c 0,-15.623 10.741,-28.732 25.24,-32.359 -12.864,0 -29.25,0 -35.131,0 -18.423,0 -33.359,14.935 -33.359,33.359 v 3.951 c 11.921,10.635 26.803,18.006 43.25,20.768 z"
         id="path58"
         inkscape:connector-curvature="0"
         style="fill:#95d6a4" />
    </g>
    <g
       id="g92">
      <path
         d="m 96.732,188.606 c 52.09,0 94.219,-42.331 94.219,-94.218 0,-51.953 -42.267,-94.219 -94.219,-94.219 -51.952,0 -94.218,42.266 -94.218,94.218 0,51.911 42.236,94.219 94.218,94.219 z m 50.203,-32.988 c -14.197,11.661 -31.871,17.988 -50.203,17.988 -17.936,0 -35.71,-6.084 -50.202,-17.987 0,-15.529 12.243,-26.314 25.858,-26.314 h 48.688 c 13.629,-0.001 25.859,10.796 25.859,26.313 z M 96.732,15.169 c 43.682,0 79.219,35.537 79.219,79.218 0,17.96 -6.017,34.535 -16.127,47.837 -5.426,-16.205 -20.739,-27.92 -38.748,-27.92 H 72.388 c -18.007,0 -33.321,11.715 -38.747,27.92 -10.11,-13.302 -16.127,-29.877 -16.127,-47.837 0,-43.681 35.537,-79.218 79.218,-79.218 z"
         id="path68"
         inkscape:connector-curvature="0" />
      <path
         d="m 420.296,323.73 c -51.952,0 -94.219,42.267 -94.219,94.219 0,51.931 42.191,94.218 94.219,94.218 51.766,0 94.218,-42.078 94.218,-94.218 0,-51.952 -42.266,-94.219 -94.218,-94.219 z m 50.202,155.45 c -29.09,23.894 -71.085,24.083 -100.405,0 0,-15.529 12.243,-26.313 25.858,-26.313 h 48.688 c 13.631,-0.001 25.859,10.795 25.859,26.313 z m 12.889,-13.394 c -5.426,-16.205 -20.739,-27.92 -38.747,-27.92 h -48.688 c -18.007,0 -33.32,11.715 -38.746,27.92 -10.111,-13.302 -16.128,-29.877 -16.128,-47.837 0,-43.682 35.537,-79.219 79.219,-79.219 43.681,0 79.218,35.537 79.218,79.219 -10e-4,17.96 -6.018,34.535 -16.128,47.837 z"
         id="path70"
         inkscape:connector-curvature="0" />
      <path
         d="m 120.145,90.979 c 14.331,-14.33 14.332,-37.524 0,-51.854 h 0.001 C 105.817,24.796 82.622,24.792 68.292,39.125 53.96,53.454 53.959,76.647 68.29,90.979 c 14.329,14.329 37.524,14.332 51.855,0 z M 78.897,49.73 c 8.448,-8.448 22.193,-8.448 30.641,0 h 0.001 c 8.467,8.468 8.468,22.173 -0.001,30.642 -8.447,8.447 -22.192,8.447 -30.642,0 -8.467,-8.468 -8.468,-22.173 0.001,-30.642 z"
         id="path72"
         inkscape:connector-curvature="0" />
      <path
         d="m 68.291,414.542 c 14.293,14.293 37.557,14.295 51.854,0 14.296,-14.297 14.296,-37.56 0,-51.856 h -10e-4 c -14.295,-14.295 -37.558,-14.295 -51.854,0 -14.296,14.296 -14.296,37.559 10e-4,51.856 z m 10.605,-41.249 c 8.45,-8.448 22.194,-8.448 30.642,0 8.448,8.447 8.448,22.194 0.001,30.642 -8.447,8.449 -22.194,8.449 -30.642,0 -8.448,-8.448 -8.448,-22.195 -0.001,-30.642 z"
         id="path74"
         inkscape:connector-curvature="0" />
      <path
         d="m 391.853,39.124 c -14.295,14.296 -14.295,37.558 0,51.854 14.311,14.311 37.575,14.282 51.855,0 14.331,-14.33 14.332,-37.524 0,-51.854 h 10e-4 c -14.297,-14.298 -37.56,-14.296 -51.856,0 z m 41.249,41.248 c -8.447,8.448 -22.192,8.449 -30.642,0 -8.448,-8.448 -8.448,-22.194 0,-30.642 8.447,-8.448 22.195,-8.448 30.642,0 h 0.001 c 8.467,8.469 8.468,22.174 -0.001,30.642 z"
         id="path76"
         inkscape:connector-curvature="0" />
      <path
         d="m 443.708,362.686 c -14.295,-14.295 -37.559,-14.296 -51.855,0.001 -14.295,14.296 -14.295,37.559 10e-4,51.855 14.296,14.296 37.558,14.295 51.855,0 14.296,-14.297 14.296,-37.56 -10e-4,-51.856 z m -10.605,41.249 c -8.447,8.448 -22.193,8.449 -30.643,10e-4 -8.447,-8.448 -8.447,-22.195 -10e-4,-30.643 8.449,-8.447 22.194,-8.448 30.643,0 8.448,8.447 8.448,22.194 0.001,30.642 z"
         id="path78"
         inkscape:connector-curvature="0" />
      <path
         d="m 303.19,101.718 c 4.143,0 7.5,-3.358 7.5,-7.5 0,-4.142 -3.357,-7.5 -7.5,-7.5 h -94.382 c -4.143,0 -7.5,3.358 -7.5,7.5 0,4.142 3.357,7.5 7.5,7.5 z"
         id="path80"
         style="fill:#00ced1"
         inkscape:connector-curvature="0" />
      <path
         d="m 208.809,410.281 c -4.143,0 -7.5,3.357 -7.5,7.5 0,4.143 3.357,7.5 7.5,7.5 h 94.382 c 4.143,0 7.5,-3.357 7.5,-7.5 0,-4.143 -3.357,-7.5 -7.5,-7.5 z"
         id="path82"
         style="fill:#00ced1"
         inkscape:connector-curvature="0" />
      <path
         d="m 101.718,303.19 v -94.382 c 0,-4.143 -3.357,-7.5 -7.5,-7.5 -4.143,0 -7.5,3.357 -7.5,7.5 v 94.382 c 0,4.143 3.357,7.5 7.5,7.5 4.143,0 7.5,-3.357 7.5,-7.5 z"
         id="path84"
         style="fill:#00ced1"
         inkscape:connector-curvature="0" />
      <path
         d="m 425.28,303.19 v -94.382 c 0,-4.143 -3.357,-7.5 -7.5,-7.5 -4.143,0 -7.5,3.357 -7.5,7.5 v 94.382 c 0,4.143 3.357,7.5 7.5,7.5 4.143,0 7.5,-3.357 7.5,-7.5 z"
         id="path86"
         style="fill:#00ced1"
         inkscape:connector-curvature="0" />
      <path
         d="m 493.441,79.1 c 0.794,4.065 4.739,6.719 8.799,5.922 4.065,-0.794 6.717,-4.734 5.922,-8.799 C 499.551,32.154 460.665,0.16799999 415.701,0.16799999 363.749,0.16799999 321.482,42.434 321.482,94.386 c 0,52.203 42.439,94.218 94.219,94.218 44.493,0 82.867,-31.259 92.115,-74.37 0.869,-4.05 -1.71,-8.038 -5.76,-8.906 -4.045,-0.866 -8.037,1.71 -8.906,5.76 -2.48,11.56 -7.495,22.102 -14.368,31.107 -5.434,-16.191 -20.74,-27.892 -38.737,-27.892 h -48.688 c -18.007,0 -33.321,11.715 -38.747,27.92 -10.111,-13.302 -16.127,-29.877 -16.127,-47.837 -10e-4,-43.681 35.537,-79.218 79.218,-79.218 37.807,0 70.501,26.887 77.74,63.932 z m -102.084,50.203 h 48.688 c 14.259,0 25.858,11.6 25.858,25.859 v 0.367 c -13.827,11.339 -31.431,18.076 -50.202,18.076 -17.678,0 -35.531,-5.936 -50.203,-17.988 0,-15.529 12.243,-26.314 25.859,-26.314 z"
         id="path88"
         inkscape:connector-curvature="0" />
      <path
         d="m 101.675,513.828 c 51.995,0 94.219,-42.284 94.219,-94.218 0,-44.551 -31.632,-83.368 -75.213,-92.3 -4.052,-0.825 -8.022,1.784 -8.854,5.842 -0.832,4.058 1.784,8.021 5.842,8.854 36.635,7.507 63.225,40.145 63.225,77.604 0,17.959 -6.017,34.534 -16.128,47.837 -5.426,-16.205 -20.739,-27.92 -38.747,-27.92 H 77.331 c -18.007,0 -33.321,11.715 -38.747,27.92 -10.11,-13.302 -16.127,-29.877 -16.127,-47.837 0,-37.46 26.589,-70.098 63.224,-77.604 4.058,-0.832 6.673,-4.796 5.842,-8.854 -0.831,-4.058 -4.794,-6.669 -8.854,-5.842 -43.581,8.932 -75.212,47.749 -75.212,92.3 0,51.858 42.109,94.218 94.218,94.218 z M 77.331,454.527 h 48.688 c 13.63,0 25.859,10.796 25.859,26.313 -29.04,23.852 -71.046,24.115 -100.405,0 0,-15.529 12.243,-26.313 25.858,-26.313 z"
         id="path90"
         inkscape:connector-curvature="0" />
    </g>
  </g>
  <g
     id="g901"
     transform="translate(525.01592,-221.2877)">
    <g
       transform="matrix(0.37222579,0,0,0.37826932,-364.1083,382.16874)"
       id="g961">
      <path
         style="fill:#404242"
         inkscape:connector-curvature="0"
         d="m 421,7.5 h -30 v 497 h 30 c 16.57,0 30,-13.43 30,-30 v -437 c 0,-16.57 -13.43,-30 -30,-30 z"
         id="path939" />
      <path
         style="fill:#565959"
         inkscape:connector-curvature="0"
         d="M 391,7.5 H 91 c -16.57,0 -30,13.43 -30,30 v 437 c 0,16.57 13.43,30 30,30 h 300 c 16.57,0 30,-13.43 30,-30 v -30 L 331,256 421,67.5 v -30 c 0,-16.57 -13.43,-30 -30,-30 z"
         id="path941" />
      <path
         style="fill:#4b0082"
         inkscape:connector-curvature="0"
         d="m 286,256 105,188.5 h 30 v -377 h -30 z"
         id="path943" />
      <path
         style="fill:#9400d3"
         inkscape:connector-curvature="0"
         d="m 307.76765,67.5 c -9.144,9.139 -16.831,16.82 -16.844,16.82 -8.147,8.139 -19.39,13.18 -31.789,13.18 -12.399,0 -23.642,-5.041 -31.82,-13.18 l -16.82,-16.82 H 94.134686 v 377 H 394.13465 v -377 z"
         id="path945" />
      <circle
         style="fill:#deecff"
         cx="256"
         cy="52.5"
         r="15"
         id="circle947" />
      <circle
         cx="286"
         cy="474.5"
         r="7.5"
         id="circle949" />
      <circle
         cx="316"
         cy="474.5"
         r="7.5"
         id="circle951" />
      <path
         inkscape:connector-curvature="0"
         d="m 256,467 h -60 c -4.142,0 -7.5,3.357 -7.5,7.5 0,4.143 3.358,7.5 7.5,7.5 h 60 c 4.142,0 7.5,-3.357 7.5,-7.5 0,-4.143 -3.358,-7.5 -7.5,-7.5 z"
         id="path953" />
      <path
         inkscape:connector-curvature="0"
         d="M 421,0 H 91 C 70.322,0 53.5,16.822 53.5,37.5 v 437 c 0,20.678 16.822,37.5 37.5,37.5 h 330 c 20.678,0 37.5,-16.822 37.5,-37.5 V 37.5 C 458.5,16.822 441.678,0 421,0 Z m 22.5,474.5 c 0,12.406 -10.093,22.5 -22.5,22.5 H 91 C 78.593,497 68.5,486.906 68.5,474.5 V 37.5 C 68.5,25.094 78.593,15 91,15 h 330 c 12.407,0 22.5,10.094 22.5,22.5 z"
         id="path955" />
      <path
         inkscape:connector-curvature="0"
         d="M 256,75 C 268.407,75 278.5,64.906 278.5,52.5 278.5,40.094 268.407,30 256,30 243.593,30 233.5,40.094 233.5,52.5 233.5,64.906 243.593,75 256,75 Z m 0,-30 c 4.136,0 7.5,3.364 7.5,7.5 0,4.136 -3.364,7.5 -7.5,7.5 -4.136,0 -7.5,-3.364 -7.5,-7.5 0,-4.136 3.364,-7.5 7.5,-7.5 z"
         id="path957" />
      <path
         inkscape:connector-curvature="0"
         d="m 421.86758,52.5 h -116.367 c -1.988,0 -3.896,0.79 -5.302,2.195 -10.516,10.511 -16.843,16.818 -16.843,16.818 -7.091,7.086 -16.498,10.987 -26.488,10.987 -9.983,0 -19.405,-3.905 -26.517,-10.984 l -16.82,-16.819 c -1.406,-1.407 -3.313,-2.197 -5.303,-2.197 H 91.867578 c -4.142,0 -7.5,3.357 -7.5,7.5 v 173.5 c 0,4.143 3.358,7.5 7.5,7.5 4.142,0 7.5,-3.357 7.5,-7.5 V 67.5 H 205.12158 l 14.635,14.635 c 9.955,9.908 23.134,15.365 37.111,15.365 13.994,0 27.167,-5.46 37.09,-15.375 0.425,-0.419 14.648,-14.625 14.648,-14.625 h 105.762 v 362 H 99.367578 v -166 c 0,-4.143 -3.358,-7.5 -7.5,-7.5 -4.142,0 -7.5,3.357 -7.5,7.5 V 437 c 0,4.143 3.358,7.5 7.5,7.5 H 421.86758 c 4.142,0 7.5,-3.357 7.5,-7.5 V 60 c 0,-4.143 -3.358,-7.5 -7.5,-7.5 z"
         id="path959" />
    </g>
    <rect
       y="479.43588"
       x="-316.93546"
       height="13.058488"
       width="36.922848"
       id="rect866"
       style="opacity:0.99199997;fill:#00ffff;fill-opacity:1;fill-rule:nonzero;stroke:#47ffff;stroke-width:0.05843533;stroke-miterlimit:4;stroke-dasharray:none;stroke-opacity:1" />
    <ellipse
       ry="15.320127"
       rx="15.239162"
       cy="518.36542"
       cx="-239.76266"
       id="path885"
       style="opacity:0.99199997;fill:#00ffff;fill-opacity:1;fill-rule:nonzero;stroke:#47ffff;stroke-width:0.04390067;stroke-miterlimit:4;stroke-dasharray:none;stroke-opacity:1" />
    <rect
       y="426.08517"
       x="-290.69312"
       height="32.550091"
       width="36.889069"
       id="rect866-2"
       style="opacity:0.99199997;fill:#00ffff;fill-opacity:1;fill-rule:nonzero;stroke:#47ffff;stroke-width:0.09221602;stroke-miterlimit:4;stroke-dasharray:none;stroke-opacity:1"
       inkscape:transform-center-x="451.62019"
       inkscape:transform-center-y="119.39354" />
    <rect
       y="479.00568"
       x="-263.8244"
       height="13.058488"
       width="36.922848"
       id="rect866-23"
       style="opacity:0.99199997;fill:#00ffff;fill-opacity:1;fill-rule:nonzero;stroke:#47ffff;stroke-width:0.05843532;stroke-miterlimit:4;stroke-dasharray:none;stroke-opacity:1" />
  </g>
</svg>
