<?xml version="1.0" encoding="UTF-8" standalone="no"?>
<!-- Generator: Adobe Illustrator 19.0.0, SVG Export Plug-In . SVG Version: 6.00 Build 0)  -->

<svg
   xmlns:dc="http://purl.org/dc/elements/1.1/"
   xmlns:cc="http://creativecommons.org/ns#"
   xmlns:rdf="http://www.w3.org/1999/02/22-rdf-syntax-ns#"
   xmlns:svg="http://www.w3.org/2000/svg"
   xmlns="http://www.w3.org/2000/svg"
   xmlns:sodipodi="http://sodipodi.sourceforge.net/DTD/sodipodi-0.dtd"
   xmlns:inkscape="http://www.inkscape.org/namespaces/inkscape"
   version="1.1"
   id="Capa_1"
   x="0px"
   y="0px"
   viewBox="0 0 512 512"
   style="enable-background:new 0 0 512 512;"
   xml:space="preserve"
   sodipodi:docname="amurreto-altrabot.svg"
   inkscape:version="0.92.3 (2405546, 2018-03-11)"><metadata
   id="metadata89"><rdf:RDF><cc:Work
       rdf:about=""><dc:format>image/svg+xml</dc:format><dc:type
         rdf:resource="http://purl.org/dc/dcmitype/StillImage" /><dc:title /></cc:Work></rdf:RDF></metadata><defs
   id="defs87" /><sodipodi:namedview
   pagecolor="#ffffff"
   bordercolor="#666666"
   borderopacity="1"
   objecttolerance="10"
   gridtolerance="10"
   guidetolerance="10"
   inkscape:pageopacity="0"
   inkscape:pageshadow="2"
   inkscape:window-width="1440"
   inkscape:window-height="858"
   id="namedview85"
   showgrid="false"
   inkscape:zoom="0.69"
   inkscape:cx="-137.5942"
   inkscape:cy="165.61925"
   inkscape:window-x="-11"
   inkscape:window-y="-11"
   inkscape:window-maximized="1"
   inkscape:current-layer="Capa_1" />

<g
   id="g54">
</g>
<g
   id="g56">
</g><g
   id="g52">
	<g
   id="g20">
		<g
   id="g8"
   style="fill:#9370db">
			<path
   style="fill:#9370db"
   d="M410.131,302.61l-13.33-11.564c-12.368-10.664-30.431-11.467-43.697-1.942v-6.621h-1.236     c23.178-0.006,45.198-10.129,60.292-27.719l2.825-3.266c16.583-19.353,22.886-45.482,16.949-70.268l-9.357-38.93l-19.509-81.39     C394.472,25.172,362.497-0.014,325.739,0H186.263c-36.758-0.013-68.732,25.172-77.329,60.91l-19.509,81.302v0.088l-9.357,38.93     c-5.937,24.785,0.366,50.914,16.949,70.268l2.825,3.266c15.094,17.589,37.115,27.713,60.292,27.719h-1.236v6.621     c-13.265-9.527-31.329-8.724-43.697,1.942l-13.33,11.564l-40.077,34.604C70.964,347.857,83.99,354.415,98,355.442     c14.01,1.027,27.853-3.562,38.476-12.755l22.422-19.332v20.392c-0.009,6.137,1.605,12.167,4.679,17.479l25.512,44.756     c3.138,5.524,9.007,8.931,15.36,8.916h-1.412v17.655c-0.028,13.947,10.799,25.508,24.717,26.394v0.088     c0,0-28.248,26.483,28.248,52.966c54.466-25.512,30.19-51.023,28.337-52.877l0.177-0.177     c13.809-1.029,24.479-12.547,24.452-26.394v-17.655h-1.324c6.33,0.013,12.171-3.398,15.272-8.916l25.512-44.756     c3.073-5.312,4.687-11.342,4.679-17.479v-20.392l22.422,19.332c10.622,9.194,24.465,13.784,38.476,12.757     c14.011-1.027,27.037-7.586,36.205-18.23L410.131,302.61z"
   id="path2" />
			<path
   style="fill:#9370db"
   d="M158.895,289.103v34.251l-22.422,19.332c-10.623,9.193-24.466,13.782-38.476,12.755     c-14.01-1.027-27.037-7.585-36.205-18.228l40.077-34.604l13.33-11.564C127.565,280.38,145.63,279.577,158.895,289.103z"
   id="path4" />
			<path
   style="fill:#9370db"
   d="M450.205,337.214c-9.168,10.644-22.194,17.204-36.205,18.23s-27.854-3.563-38.476-12.757     l-22.422-19.332v-34.251c13.265-9.525,31.329-8.722,43.697,1.942l13.33,11.564L450.205,337.214z"
   id="path6" />
		</g>
		<path
   style="fill:#2C2F38;"
   d="M422.575,142.301c-3.09,32.486-15.537,96.044-64.088,96.044c-65.236,0-46.61-17.655-102.488-17.655    s-37.252,17.655-102.488,17.655c-48.552,0-60.999-63.559-64.088-96.044v-0.088l19.509-81.302    C117.528,25.172,149.503-0.014,186.26,0h139.476c36.758-0.014,68.733,25.172,77.33,60.91L422.575,142.301z"
   id="path10" />
		<path
   style="fill:#4b0082"
   d="M353.102,282.483l0,61.263c0.009,6.137-1.605,12.167-4.679,17.479l-25.512,44.756    c-3.1,5.518-8.942,8.929-15.272,8.916H204.445c-6.353,0.015-12.222-3.392-15.36-8.916l-25.512-44.756    c-3.073-5.312-4.687-11.342-4.679-17.479l0-61.263H353.102z"
   id="path12" />
		<path
   style="fill:#9370db;fill-opacity:1"
   d="M308.964,414.897l0,17.655c0.027,13.847-10.643,25.365-24.452,26.395h-0.265    c-0.585,0.073-1.176,0.103-1.766,0.088h-52.966c-0.59,0.015-1.18-0.015-1.766-0.088c-13.918-0.886-24.745-12.448-24.717-26.395    l0-17.655H308.964z"
   id="path14" />
		<path
   style="fill:#CC4B4C;"
   d="M255.998,512c-56.497-26.483-28.248-52.966-28.248-52.966v-0.088    c0.585,0.073,1.176,0.103,1.766,0.088h52.966c0.59,0.015,1.18-0.015,1.766-0.088h0.265l-0.177,0.177    C286.189,460.977,310.464,486.488,255.998,512z"
   id="path16" />
		<path
   style="fill:#663399"
   d="M158.895,289.103v34.251l-22.422,19.332l-34.604-40.077l13.33-11.564    C127.565,280.38,145.63,279.577,158.895,289.103z"
   id="path18" />
	</g>
	<g
   transform="translate(8 5)"
   id="g50"
   style="fill:#00ffff">
		<g
   id="g34"
   style="fill:#00ffff">
			
			
			
			
			
			
		</g>
		
		<path
   style="fill:#663399"
   d="M402.128,297.61l-34.604,40.077l-22.422-19.332v-34.251c13.265-9.525,31.329-8.722,43.697,1.942    L402.128,297.61z"
   id="path38" />
		
		
		
		
		<path
   style="fill:#00ffff"
   d="M265.541,189.147c-12.894-0.209-25.691-2.282-37.991-6.155c-4.622-1.544-7.119-6.54-5.58-11.163    c1.539-4.623,6.533-7.126,11.157-5.591c12.961,4.289,49.117,11.698,60.491-5.345c2.721-4.012,8.169-5.078,12.202-2.389    s5.144,8.128,2.487,12.183C298.671,185.142,281.554,189.147,265.541,189.147z"
   id="path48" />
	</g>
</g>
<g
   id="g58">
</g>
<g
   id="g60">
</g>
<g
   id="g62">
</g>
<g
   id="g64">
</g>
<g
   id="g66">
</g>
<g
   id="g68">
</g>
<g
   id="g70">
</g>
<g
   id="g72">
</g>
<g
   id="g74">
</g>
<g
   id="g76">
</g>
<g
   id="g78">
</g>
<g
   id="g80">
</g>
<g
   id="g82">
</g>
<g
   id="g1010"
   transform="matrix(0.37801932,0,0,0.32791363,162.779,14.740644)"><g
     id="g951"
     style="fill:#000000">
	
	
	
</g><g
     id="g953">
</g><g
     id="g955">
</g><g
     id="g957">
</g><g
     id="g959">
</g><g
     id="g961">
</g><g
     id="g963">
</g><g
     id="g965">
</g><g
     id="g967">
</g><g
     id="g969">
</g><g
     id="g971">
</g><g
     id="g973">
</g><g
     id="g975">
</g><g
     id="g977">
</g><g
     id="g979">
</g><g
     id="g981">
</g></g><text
   xml:space="preserve"
   style="font-style:normal;font-weight:normal;font-size:40px;line-height:1.25;font-family:sans-serif;letter-spacing:0px;word-spacing:0px;fill:#000000;fill-opacity:1;stroke:none"
   x="153.6232"
   y="122.14494"
   id="text4605"><tspan
     sodipodi:role="line"
     id="tspan4603"
     x="153.6232"
     y="122.14494"
     style="font-style:normal;font-variant:normal;font-weight:bold;font-stretch:normal;font-size:74.66666412px;font-family:monospace;-inkscape-font-specification:'monospace Bold';fill:#00ffff"><tspan
       style="font-size:96px"
       id="tspan67">A</tspan><tspan
       style="font-size:53.33333206px"
       id="tspan71">LTR</tspan><tspan
       style="font-size:96px"
       id="tspan69">A</tspan></tspan></text>

<rect
   style="opacity:1;fill:#00ffff;fill-opacity:1;fill-rule:nonzero;stroke:#47ffff;stroke-width:0.1;stroke-miterlimit:4;stroke-dasharray:none;stroke-opacity:1"
   id="rect80"
   width="20.289856"
   height="43.47826"
   x="201.44928"
   y="346.78262" /><rect
   style="opacity:1;fill:#00ffff;fill-opacity:1;fill-rule:nonzero;stroke:#47ffff;stroke-width:0.126515;stroke-miterlimit:4;stroke-dasharray:none;stroke-opacity:1"
   id="rect80-8"
   width="20.289856"
   height="69.591499"
   x="245.8261"
   y="321.22009" /><rect
   style="opacity:1;fill:#00ffff;fill-opacity:1;fill-rule:nonzero;stroke:#47ffff;stroke-width:0.14835922;stroke-miterlimit:4;stroke-dasharray:none;stroke-opacity:1"
   id="rect80-8-7"
   width="20.289856"
   height="95.697647"
   x="291.30435"
   y="294.22855" /></svg>