<?xml version="1.0" encoding="UTF-8" standalone="no"?>
<svg
   xmlns:dc="http://purl.org/dc/elements/1.1/"
   xmlns:cc="http://creativecommons.org/ns#"
   xmlns:rdf="http://www.w3.org/1999/02/22-rdf-syntax-ns#"
   xmlns:svg="http://www.w3.org/2000/svg"
   xmlns="http://www.w3.org/2000/svg"
   xmlns:sodipodi="http://sodipodi.sourceforge.net/DTD/sodipodi-0.dtd"
   xmlns:inkscape="http://www.inkscape.org/namespaces/inkscape"
   height="512pt"
   viewBox="0 0 512 511"
   width="512pt"
   version="1.1"
   id="svg4"
   sodipodi:docname="curve-arrow-left.svg"
   inkscape:version="0.92.3 (2405546, 2018-03-11)">
  <metadata
     id="metadata10">
    <rdf:RDF>
      <cc:Work
         rdf:about="">
        <dc:format>image/svg+xml</dc:format>
        <dc:type
           rdf:resource="http://purl.org/dc/dcmitype/StillImage" />
      </cc:Work>
    </rdf:RDF>
  </metadata>
  <defs
     id="defs8" />
  <sodipodi:namedview
     pagecolor="#ffffff"
     bordercolor="#666666"
     borderopacity="1"
     objecttolerance="10"
     gridtolerance="10"
     guidetolerance="10"
     inkscape:pageopacity="0"
     inkscape:pageshadow="2"
     inkscape:window-width="1440"
     inkscape:window-height="858"
     id="namedview6"
     showgrid="false"
     inkscape:zoom="0.34570313"
     inkscape:cx="-221.28814"
     inkscape:cy="341.33333"
     inkscape:window-x="-11"
     inkscape:window-y="-11"
     inkscape:window-maximized="1"
     inkscape:current-layer="svg4" />
  <path
     d="m143.871094 512.484375c-10.398438 0-20.597656-4.0625-28.28125-11.734375l-97.960938-97.753906c-11.367187-11.34375-17.628906-26.433594-17.628906-42.492188s6.261719-31.152344 17.628906-42.496094l97.960938-97.753906c11.511718-11.492187 28.664062-14.886718 43.695312-8.652344 15.011719 6.226563 24.710938 20.742188 24.710938 36.976563v91.921875c158.804687 0 288.003906-129.199219 288.003906-288.003906v-31.996094c0-11.046875 8.953125-20 20-20s20 8.953125 20 20v31.996094c0 87.613281-34.117188 169.984375-96.070312 231.9375-61.953126 61.949218-144.320313 96.070312-231.933594 96.070312-22.058594 0-40.003906-17.945312-40.003906-40v-91.925781c0-.003906 0-.007813 0-.011719-.03125-.015625-.070313-.03125-.105469-.042968-.011719.015624-.027344.027343-.042969.042968l-97.960938 97.757813c-3.792968 3.785156-5.882812 8.820312-5.882812 14.179687s2.089844 10.394532 5.882812 14.179688l97.960938 97.753906.042969.042969c.035156-.011719.074219-.023438.105469-.039063 0-.003906 0-.007812 0-.015625v-21.921875c0-11.046875 8.957031-20 20.003906-20 11.042968 0 20 8.953125 20 20v21.921875c0 16.234375-9.699219 30.75-24.710938 36.976563-4.996094 2.074218-10.230468 3.082031-15.414062 3.082031zm0 0"
     id="path2"
     style="fill:#ecf0f1;fill-opacity:1" />
</svg>
