<?xml version="1.0" encoding="UTF-8" standalone="no"?>
<!-- Generator: Adobe Illustrator 19.0.0, SVG Export Plug-In . SVG Version: 6.00 Build 0)  -->

<svg
   xmlns:dc="http://purl.org/dc/elements/1.1/"
   xmlns:cc="http://creativecommons.org/ns#"
   xmlns:rdf="http://www.w3.org/1999/02/22-rdf-syntax-ns#"
   xmlns:svg="http://www.w3.org/2000/svg"
   xmlns="http://www.w3.org/2000/svg"
   xmlns:sodipodi="http://sodipodi.sourceforge.net/DTD/sodipodi-0.dtd"
   xmlns:inkscape="http://www.inkscape.org/namespaces/inkscape"
   version="1.1"
   id="Capa_1"
   x="0px"
   y="0px"
   viewBox="0 0 512 512"
   style="enable-background:new 0 0 512 512;"
   xml:space="preserve"
   sodipodi:docname="lock.svg"
   inkscape:version="0.92.3 (2405546, 2018-03-11)"><metadata
   id="metadata43"><rdf:RDF><cc:Work
       rdf:about=""><dc:format>image/svg+xml</dc:format><dc:type
         rdf:resource="http://purl.org/dc/dcmitype/StillImage" /></cc:Work></rdf:RDF></metadata><defs
   id="defs41" /><sodipodi:namedview
   pagecolor="#ffffff"
   bordercolor="#666666"
   borderopacity="1"
   objecttolerance="10"
   gridtolerance="10"
   guidetolerance="10"
   inkscape:pageopacity="0"
   inkscape:pageshadow="2"
   inkscape:window-width="1440"
   inkscape:window-height="858"
   id="namedview39"
   showgrid="false"
   inkscape:zoom="0.4609375"
   inkscape:cx="-106.30508"
   inkscape:cy="256"
   inkscape:window-x="-11"
   inkscape:window-y="-11"
   inkscape:window-maximized="1"
   inkscape:current-layer="Capa_1" />
<path
   style="fill:#f0fff0"
   d="M256,0c-76.544,0.094-138.573,62.122-138.667,138.667V224c0,5.891,4.776,10.667,10.667,10.667h42.667  c5.891,0,10.667-4.776,10.667-10.667v-85.333C181.333,97.429,214.763,64,256,64s74.667,33.429,74.667,74.667V224  c0,5.891,4.776,10.667,10.667,10.667H384c5.891,0,10.667-4.776,10.667-10.667v-85.333C394.573,62.122,332.544,0.094,256,0z"
   id="path2" />
<path
   style="fill:#c207ff;fill-opacity:1"
   d="M128,213.333h256c29.455,0,53.333,23.878,53.333,53.333v192C437.333,488.122,413.455,512,384,512H128  c-29.455,0-53.333-23.878-53.333-53.333v-192C74.667,237.211,98.545,213.333,128,213.333z"
   id="path4" />
<path
   style="fill:#ffffff"
   d="M309.333,330.667c0.124-29.455-23.653-53.434-53.108-53.558  c-29.455-0.124-53.434,23.653-53.558,53.108c-0.086,20.36,11.427,38.992,29.674,48.023l-8.235,57.6  c-0.825,5.833,3.235,11.23,9.068,12.055c0.494,0.07,0.993,0.105,1.492,0.105h42.667c5.891,0.06,10.715-4.667,10.774-10.558  c0.005-0.543-0.03-1.086-0.108-1.623l-8.235-57.6C297.788,369.199,309.216,350.82,309.333,330.667z"
   id="path6" />
<g
   id="g8">
</g>
<g
   id="g10">
</g>
<g
   id="g12">
</g>
<g
   id="g14">
</g>
<g
   id="g16">
</g>
<g
   id="g18">
</g>
<g
   id="g20">
</g>
<g
   id="g22">
</g>
<g
   id="g24">
</g>
<g
   id="g26">
</g>
<g
   id="g28">
</g>
<g
   id="g30">
</g>
<g
   id="g32">
</g>
<g
   id="g34">
</g>
<g
   id="g36">
</g>
</svg>