<?xml version="1.0" encoding="UTF-8" standalone="no"?>
<svg
   xmlns:dc="http://purl.org/dc/elements/1.1/"
   xmlns:cc="http://creativecommons.org/ns#"
   xmlns:rdf="http://www.w3.org/1999/02/22-rdf-syntax-ns#"
   xmlns:svg="http://www.w3.org/2000/svg"
   xmlns="http://www.w3.org/2000/svg"
   xmlns:sodipodi="http://sodipodi.sourceforge.net/DTD/sodipodi-0.dtd"
   xmlns:inkscape="http://www.inkscape.org/namespaces/inkscape"
   height="434.33322"
   viewBox="0 0 415.8681 434.33322"
   width="415.8681"
   version="1.1"
   id="svg41"
   sodipodi:docname="megaphone.svg"
   inkscape:version="0.92.3 (2405546, 2018-03-11)">
  <metadata
     id="metadata47">
    <rdf:RDF>
      <cc:Work
         rdf:about="">
        <dc:format>image/svg+xml</dc:format>
        <dc:type
           rdf:resource="http://purl.org/dc/dcmitype/StillImage" />
      </cc:Work>
    </rdf:RDF>
  </metadata>
  <defs
     id="defs45" />
  <sodipodi:namedview
     pagecolor="#ffffff"
     bordercolor="#666666"
     borderopacity="1"
     objecttolerance="10"
     gridtolerance="10"
     guidetolerance="10"
     inkscape:pageopacity="0"
     inkscape:pageshadow="2"
     inkscape:window-width="1440"
     inkscape:window-height="858"
     id="namedview43"
     showgrid="false"
     inkscape:zoom="0.8371782"
     inkscape:cx="240.52632"
     inkscape:cy="224.40076"
     inkscape:window-x="-11"
     inkscape:window-y="-11"
     inkscape:window-maximized="1"
     inkscape:current-layer="g894" />
  <g
     id="Filled_outline"
     data-name="Filled outline"
     transform="translate(-25.106532,-87.129739)">
    <g
       id="g873">
      <g
         id="g894"
         transform="matrix(0.69997415,-0.42977396,0.42293735,0.71128895,-76.130636,223.78246)">
        <path
           d="m 136,320 h 48 v 48 h -48 z"
           id="path2"
           inkscape:connector-curvature="0"
           style="fill:#bfbfbd" />
        <path
           d="M 56,192 H 72 V 320 H 56 A 32,32 0 0 1 24,288 v -64 a 32,32 0 0 1 32,-32 z"
           id="path4"
           inkscape:connector-curvature="0"
           style="fill:#c207ff;fill-opacity:1" />
        <path
           d="M 72,192 H 184 V 320 H 72 Z"
           transform="rotate(180,128,256)"
           id="path6"
           inkscape:connector-curvature="0"
           style="fill:#c207ff;fill-opacity:1" />
        <rect
           height="384"
           rx="20"
           width="40"
           x="336"
           y="64"
           id="rect8"
           style="fill:#f0fff0;fill-opacity:1" />
        <path
           d="m 424,288 -48,8 v -80 l 48,8 z"
           id="path10"
           inkscape:connector-curvature="0"
           style="fill:#c207ff;fill-opacity:1" />
        <path
           d="M 171.2,440 144,320 H 72 l 32,152 h 72 a 16,16 0 0 0 16,-16 16,16 0 0 0 -16,-16 z"
           id="path12"
           inkscape:connector-curvature="0"
           style="fill:#f0fff0;fill-opacity:1" />
        <path
           d="M 336,84 V 428 L 308.34,398.96 A 304.8,304.8 0 0 0 184,320 V 192 a 304.8,304.8 0 0 0 124.34,-78.96 z"
           id="path14"
           inkscape:connector-curvature="0"
           style="fill:#f0fff0;fill-opacity:1" />
        <path
           d="M 336,226.46 V 428 L 308.34,398.96 A 304.8,304.8 0 0 0 184,320 v -22.48 c 53.94,-14.27 105.91,-37.1 152,-71.06 z"
           id="path16"
           inkscape:connector-curvature="0"
           style="fill:#7c43bd;fill-opacity:0" />
        <path
           d="m 56,328 h 9.509 L 96.171,473.648 A 8,8 0 0 0 104,480 h 72 a 24,24 0 0 0 1.6,-47.947 L 164.9,376 H 184 a 8,8 0 0 0 8,-8 v -36.667 a 298.012,298.012 0 0 1 110.548,73.143 l 25.669,26.952 A 28,28 0 0 0 384,428 V 302.778 l 41.315,-6.886 A 8,8 0 0 0 432,288 v -64 a 8,8 0 0 0 -6.685,-7.892 L 384,209.222 V 84 a 28,28 0 0 0 -55.783,-3.428 l -25.669,26.952 A 297.911,297.911 0 0 1 182.67,184 H 56 a 40.045,40.045 0 0 0 -40,40 v 64 a 40.045,40.045 0 0 0 40,40 z m 115.2,120 h 4.8 a 8,8 0 0 1 0,16 H 110.491 L 81.859,328 h 55.751 l 25.79,113.769 a 8,8 0 0 0 7.8,6.231 z m 4.8,-88 h -14.73 l -7.254,-32 H 176 Z M 416,230.777 v 50.446 l -32,5.334 V 225.443 Z M 356,72 a 12.013,12.013 0 0 1 12,12 v 344 a 12,12 0 0 1 -24,0 V 84 A 12.013,12.013 0 0 1 356,72 Z M 314.134,118.56 328,104 V 408 L 314.134,393.44 A 314.04,314.04 0 0 0 192,314.291 V 197.709 A 314.029,314.029 0 0 0 314.134,118.56 Z M 176,312 H 80 V 200 h 96 z M 32,224 a 24.027,24.027 0 0 1 24,-24 h 8 V 312 H 56 A 24.027,24.027 0 0 1 32,288 Z"
           id="path18"
           inkscape:connector-curvature="0" />
        <path
           d="m 96,256 h 16 v 32 H 96 Z"
           id="path20"
           inkscape:connector-curvature="0" />
        <path
           d="m 128,256 h 16 v 32 h -16 z"
           id="path22"
           inkscape:connector-curvature="0" />
        <path
           d="m 447.525,204.8 h 48.951 v 16 h -48.951 z"
           transform="matrix(0.981,-0.196,0.196,0.981,-32.566,96.693)"
           id="path24"
           inkscape:connector-curvature="0"
           style="fill:#ffffff" />
        <path
           d="m 435.751,120 h 64.498 v 16.001 h -64.498 z"
           transform="matrix(0.868,-0.496,0.496,0.868,-1.844,249.054)"
           id="path28"
           inkscape:connector-curvature="0"
           style="fill:#ffffff" />
        <path
           d="m 464,276.325 h 16 v 48.951 h -16 z"
           transform="matrix(0.196,-0.981,0.981,0.196,84.48,704.647)"
           id="path30"
           inkscape:connector-curvature="0"
           style="fill:#ffffff" />
        <path
           d="m 309.136,167.045 -10.272,-12.268 c -3.8,3.186 -7.733,6.327 -11.677,9.335 l 9.7,12.721 c 4.139,-3.154 8.259,-6.448 12.249,-9.788 z"
           id="path36"
           inkscape:connector-curvature="0" />
        <path
           d="m 283.754,186.377 -9.1,-13.162 a 330.947,330.947 0 0 1 -61.71,33.594 l 6.108,14.787 a 346.876,346.876 0 0 0 64.702,-35.219 z"
           id="path38"
           inkscape:connector-curvature="0" />
      </g>
    </g>
  </g>
</svg>
