<?xml version="1.0" encoding="UTF-8" standalone="no"?>
<svg
   xmlns:dc="http://purl.org/dc/elements/1.1/"
   xmlns:cc="http://creativecommons.org/ns#"
   xmlns:rdf="http://www.w3.org/1999/02/22-rdf-syntax-ns#"
   xmlns:svg="http://www.w3.org/2000/svg"
   xmlns="http://www.w3.org/2000/svg"
   xmlns:sodipodi="http://sodipodi.sourceforge.net/DTD/sodipodi-0.dtd"
   xmlns:inkscape="http://www.inkscape.org/namespaces/inkscape"
   height="393.16016pt"
   version="1.1"
   viewBox="0 -59 512.00001 393.16016"
   width="512pt"
   id="svg19"
   sodipodi:docname="files-and-folders.svg"
   inkscape:version="0.92.3 (2405546, 2018-03-11)">
  <metadata
     id="metadata25">
    <rdf:RDF>
      <cc:Work
         rdf:about="">
        <dc:format>image/svg+xml</dc:format>
        <dc:type
           rdf:resource="http://purl.org/dc/dcmitype/StillImage" />
      </cc:Work>
    </rdf:RDF>
  </metadata>
  <defs
     id="defs23" />
  <sodipodi:namedview
     pagecolor="#ffffff"
     bordercolor="#666666"
     borderopacity="1"
     objecttolerance="10"
     gridtolerance="10"
     guidetolerance="10"
     inkscape:pageopacity="0"
     inkscape:pageshadow="2"
     inkscape:window-width="1440"
     inkscape:window-height="858"
     id="namedview21"
     showgrid="false"
     inkscape:zoom="0.34570313"
     inkscape:cx="341.33333"
     inkscape:cy="261.54689"
     inkscape:window-x="-11"
     inkscape:window-y="-11"
     inkscape:window-maximized="1"
     inkscape:current-layer="svg19" />
  <g
     id="surface1"
     transform="translate(0,-59)">
    <path
       d="m 266.44531,178.89063 c 21.3125,-30.33985 55.32422,-51.12891 94.37891,-54.48829 3.78125,-0.3125 7.66406,-0.52343 11.54687,-0.52343 8.60938,0 16.90235,0.83984 24.98829,2.41406 59.41796,11.65234 104.35156,64.03906 104.35156,126.92578 0,71.38672 -57.94922,129.33594 -129.33985,129.33594 -48.92187,0 -91.4375,-27.08203 -113.48437,-67.1875 -6.19531,-11.23438 -10.70703,-23.41016 -13.33203,-36.42969 -1.67969,-8.29297 -2.51953,-17.00781 -2.51953,-25.82422 -0.10547,-27.60937 8.60937,-53.22656 23.41015,-74.22265 z m 0,0"
       style="fill:#48d1cc;fill-opacity:1;fill-rule:nonzero;stroke:none"
       id="path2"
       inkscape:connector-curvature="0" />
    <path
       d="M 397.35938,10.183594 V 126.29297 c -8.08204,-1.57422 -16.48438,-2.41406 -24.98438,-2.41406 -3.88672,0 -7.76953,0.21093 -11.55078,0.52343 V 46.820312 H 47.242188 V 279.04297 H 245.55469 c 2.625,12.91406 7.13672,25.19531 13.33203,36.42969 l -0.31641,0.21093 H 10.601562 V 10.183594 Z m 0,0"
       style="fill:#00eecf;fill-opacity:1;fill-rule:nonzero;stroke:none"
       id="path4"
       inkscape:connector-curvature="0" />
    <path
       d="m 360.71875,46.714844 v 77.585936 c -38.94531,3.46094 -72.96094,24.25 -94.37891,54.48438 l -43.77734,36.95312 c -6.71875,5.66797 -16.375,5.77344 -23.19922,0.31641 l -63.41015,-50.70703 c -6.92969,-5.56641 -16.90235,-5.35547 -23.51563,0.6289 L 47.242188,223.61328 V 46.714844 Z M 235.79297,127.23828 c 0,-16.48047 -13.33594,-29.816405 -29.81641,-29.816405 -16.48047,0 -29.92187,13.335935 -29.92187,29.816405 0,16.48047 13.33594,29.81641 29.92187,29.81641 16.58594,0 29.81641,-13.33594 29.81641,-29.81641 z m 0,0"
       style="fill:#ffffff;fill-opacity:1;fill-rule:nonzero;stroke:none"
       id="path6"
       inkscape:connector-curvature="0" />
    <path
       d="m 222.66797,215.84375 43.77734,-36.95312 c -14.80078,20.99609 -23.51562,46.61328 -23.51562,74.32812 0,8.81641 0.83984,17.42578 2.51953,25.82422 H 47.242188 V 223.61328 L 112.4375,166.08203 c 6.61328,-5.8789 16.58594,-6.08984 23.51563,-0.6289 l 63.41015,50.70703 c 6.82422,5.45703 16.58594,5.35156 23.30469,-0.31641 z m 0,0"
       style="fill:#7c43bd;fill-opacity:1;fill-rule:nonzero;stroke:none"
       id="path8"
       inkscape:connector-curvature="0" />
    <path
       d="m 205.97656,97.316406 c 16.48047,0 29.8125,13.335934 29.8125,29.816404 0,16.48438 -13.33203,29.81641 -29.8125,29.81641 -16.48437,0 -29.92187,-13.33203 -29.92187,-29.81641 0,-16.48047 13.4375,-29.816404 29.92187,-29.816404 z m 0,0"
       style="fill:#7c43bd;fill-opacity:1;fill-rule:nonzero;stroke:none"
       id="path10"
       inkscape:connector-curvature="0" />
    <path
       d="m 205.97656,97.316406 c -22.25781,0 -40.41797,18.058604 -40.41797,40.417964 0,22.25781 18.05469,40.3125 40.41797,40.3125 22.25391,0 40.3125,-18.05469 40.3125,-40.3125 0,-22.25389 -18.05859,-40.417964 -40.3125,-40.417964 z m 0,59.734374 c -10.71093,0 -19.42187,-8.71485 -19.42187,-19.31641 0,-10.70703 8.71094,-19.42186 19.42187,-19.42186 10.70703,0 19.31641,8.71483 19.31641,19.42186 0,4.45719 -1.52067,8.57976 -4.07863,11.86169 -3.52846,4.52712 -9.03062,7.45472 -15.23778,7.45472 z"
       style="fill:#073561;fill-opacity:1;fill-rule:nonzero;stroke:none"
       id="path12"
       inkscape:connector-curvature="0"
       sodipodi:nodetypes="sssssssssss" />
    <path
       d="M 407.33203,117.89453 V 10.078125 C 407.33203,4.304688 403.13281,0 397.35938,0 H 10.601562 C 4.828125,0 0,4.304688 0,10.078125 V 315.47266 c 0,5.77343 4.828125,10.91797 10.601562,10.91797 H 253.00781 c 25.30078,40.94531 70.44532,66.76953 119.36719,66.76953 C 449.53516,393.16016 512,330.27344 512,253.21875 511.89453,189.49219 469.27344,133.85156 407.33203,117.89453 Z M 20.996094,20.996094 H 386.33594 v 93.015626 c -4.19922,-0.52735 -9.23828,-0.73438 -14.07031,-0.73438 -0.3125,0 -0.62891,0 -0.62891,0 V 46.714844 c 0,-5.773438 -5.03906,-9.972656 -10.91797,-9.972656 H 47.242188 c -5.773438,0 -10.5,4.199218 -10.5,9.972656 V 278.9375 c 0,5.77344 4.726562,10.8125 10.5,10.8125 H 237.26172 c 1.46875,5.25 3.14844,10.5 5.14062,15.75 H 20.996094 Z M 233.26953,268.75391 H 57.742188 v -40.41797 l 61.621092,-54.38281 c 2.83594,-2.51563 7.03516,-2.6211 10.08203,-0.20704 l 63.40625,50.70704 c 10.71094,8.60546 26.14063,8.29296 36.53516,-0.52735 l 7.66406,-6.50781 c -3.04687,11.54687 -4.62109,23.72656 -4.62109,35.90234 0,5.14453 0.3164,10.1836 0.83984,15.4336 z m 25.61719,-97.10938 -42.9375,36.21875 c -2.83594,2.41797 -7.03516,2.41797 -9.97266,0.10547 l -63.51562,-50.70703 c -10.91797,-8.71094 -26.5586,-8.39844 -37.0586,0.94531 L 57.742188,200.30469 V 57.738281 H 350.64063 v 57.320309 c -36.74219,5.77735 -69.8125,26.03907 -91.75391,56.58594 z m 113.38281,200.41406 c -43.35937,0 -83.35937,-23.62109 -104.25,-61.73046 -5.77344,-10.5 -9.86719,-21.73047 -12.28125,-33.38282 -1.57422,-7.76953 -2.41406,-15.75 -2.41406,-23.72656 0,-24.56641 7.45312,-48.1875 21.51953,-68.23828 20.26172,-28.76563 51.86328,-47.03516 86.71484,-50.07813 3.46485,-0.3125 7.03516,-0.41796 10.60547,-0.41796 7.76563,0 15.53516,0.73437 22.98828,2.20312 55.53907,10.91797 95.85157,59.94531 95.85157,116.63672 0.21093,65.40234 -53.1211,118.73437 -118.73438,118.73437 z m 0,0"
       style="fill:#073561;fill-opacity:1;fill-rule:nonzero;stroke:none"
       id="path14"
       inkscape:connector-curvature="0" />
    <path
       d="m 380.35156,205.34375 c -3.98828,-3.77734 -10.28906,-3.77734 -14.27734,0 l -33.07031,30.76172 c -4.19922,3.98828 -4.51172,10.60156 -0.52344,14.80078 3.98828,4.19922 10.28906,4.51563 14.58984,0.52734 l 15.1211,-14.27734 v 55.74609 c 0,5.77344 4.72265,10.4961 10.49609,10.4961 5.77344,0 10.5,-4.72266 10.5,-10.4961 v -55.74609 l 15.64063,14.27734 c 1.99609,1.89063 4.72656,2.83204 7.24609,2.83204 2.83203,0 5.66797,-1.15235 7.76953,-3.35938 3.98828,-4.19922 3.77734,-10.91797 -0.52734,-14.80078 z m 0,0"
       style="fill:#ffffff;fill-opacity:1;fill-rule:nonzero;stroke:none"
       id="path16"
       inkscape:connector-curvature="0" />
  </g>
</svg>
