<?xml version="1.0" encoding="UTF-8" standalone="no"?>
<svg
   xmlns:dc="http://purl.org/dc/elements/1.1/"
   xmlns:cc="http://creativecommons.org/ns#"
   xmlns:rdf="http://www.w3.org/1999/02/22-rdf-syntax-ns#"
   xmlns:svg="http://www.w3.org/2000/svg"
   xmlns="http://www.w3.org/2000/svg"
   xmlns:sodipodi="http://sodipodi.sourceforge.net/DTD/sodipodi-0.dtd"
   xmlns:inkscape="http://www.inkscape.org/namespaces/inkscape"
   id="Capa_1"
   enable-background="new 0 0 511.999 511.999"
   height="512"
   viewBox="0 0 511.999 511.999"
   width="512"
   version="1.1"
   sodipodi:docname="timer.svg"
   inkscape:version="0.92.3 (2405546, 2018-03-11)">
  <metadata
     id="metadata53">
    <rdf:RDF>
      <cc:Work
         rdf:about="">
        <dc:format>image/svg+xml</dc:format>
        <dc:type
           rdf:resource="http://purl.org/dc/dcmitype/StillImage" />
      </cc:Work>
    </rdf:RDF>
  </metadata>
  <defs
     id="defs51" />
  <sodipodi:namedview
     pagecolor="#ffffff"
     bordercolor="#666666"
     borderopacity="1"
     objecttolerance="10"
     gridtolerance="10"
     guidetolerance="10"
     inkscape:pageopacity="0"
     inkscape:pageshadow="2"
     inkscape:window-width="1440"
     inkscape:window-height="858"
     id="namedview49"
     showgrid="false"
     inkscape:zoom="1.050338"
     inkscape:cx="256"
     inkscape:cy="256"
     inkscape:window-x="-11"
     inkscape:window-y="-11"
     inkscape:window-maximized="1"
     inkscape:current-layer="g46" />
  <g
     id="g46">
    <g
       id="g38">
      <path
         d="m151.512 85.4c-2.294-3.973-7.374-5.334-11.347-3.041l-21.411 12.361c-3.973 2.294-5.334 7.375-3.041 11.348l20.3 35.161 3.402.439 32.155-18.599v-2.927z"
         fill="#3f6d8e"
         id="path2" />
      <path
         d="m134.353 94.89c-1.592-2.757-1.778-5.935-.792-8.717l-14.807 8.549c-3.973 2.294-5.334 7.375-3.041 11.348l20.3 35.161 3.402.439 16.452-9.516z"
         fill="#365e7d"
         id="path4" />
      <path
         d="m274.373 47.278h-37.125l-1.96 1.891v53.547l1.71 2.187h36.5l3.127-2.187v-53.547z"
         fill="#365e7d"
         id="path6" />
      <path
         d="m255.957 49.169 1.96-1.891h-20.669l-1.96 1.891v53.547l1.71 2.187h20.669l-1.71-2.187z"
         fill="#294b64"
         id="path8" />
      <ellipse
         cx="255.957"
         cy="303.25"
         fill="#90d8f9"
         rx="201.582"
         ry="201.582"
         transform="matrix(.707 -.707 .707 .707 -139.462 269.809)"
         id="ellipse10" />
      <path
         d="m87.812 303.25c0-105.7 81.356-192.387 184.863-200.886-5.514-.453-11.088-.695-16.718-.695-111.33 0-201.582 90.251-201.582 201.581s90.251 201.581 201.582 201.581c5.631 0 11.204-.242 16.718-.695-103.507-8.499-184.863-95.186-184.863-200.886z"
         fill="#75cef9"
         id="path12" />
      <ellipse
         cx="255.957"
         cy="303.25"
         fill="#f4fbff"
         rx="161.581"
         ry="161.581"
         transform="matrix(.707 -.707 .707 .707 -139.462 269.809)"
         id="ellipse14" />
      <path
         d="m139.875 303.25c0-81.374 60.47-148.88 138.831-159.972-7.436-1.052-15.029-1.609-22.75-1.609-89.096 0-161.581 72.485-161.581 161.581s72.485 161.581 161.581 161.581c7.722 0 15.314-.557 22.75-1.609-78.361-11.091-138.831-78.598-138.831-159.972z"
         fill="#e4f6ff"
         id="path16" />
      <path
         d="m298.309 7.833h-84.703c-4.96 0-8.982 4.021-8.982 8.982v23.373c0 4.96 4.021 8.982 8.982 8.982h84.703c4.96 0 8.981-4.021 8.981-8.982v-23.374c0-4.96-4.021-8.981-8.981-8.981z"
         fill="#3f6d8e"
         id="path18" />
      <path
         d="m242.957 40.187v-23.373c0-4.96 4.021-8.982 8.982-8.982h-38.333c-4.96 0-8.982 4.021-8.982 8.982v23.373c0 4.96 4.021 8.982 8.982 8.982h38.333c-4.961 0-8.982-4.021-8.982-8.982z"
         fill="#365e7d"
         id="path20" />
      <path
         d="m255.957 141.669v128.144l2.291 3.09 23.75 18.5h86.25l13.25 8.25 3.085 3.597h32.955c0-89.095-72.485-161.581-161.581-161.581z"
         fill="#dd636e"
         id="path22" />
      <path
         d="m288.188 144.902c-10.418-2.117-21.197-3.233-32.231-3.233v128.144l2.291 3.09 23.75 18.5h6.189v-146.501z"
         fill="#da4a54"
         id="path24" />
      <path
         d="m226.086 288.25c-9.308 0-16.213 0-27.003 0-8.284 0-15 6.716-15 15s6.716 15 15 15h27.003l1.495-3.18v-24.167z"
         fill="#ffaa5b"
         id="path26" />
      <path
         d="m369.583 288.25c-10.319 0-74.615 0-83.757 0l-2.578 1.986v23.167l2.578 4.847h83.757c8.284 0 15-6.716 15-15s-6.715-15-15-15z"
         fill="#ffaa5b"
         id="path28" />
      <path
         d="m199.083 303.25c-5.549 0-10.382-3.021-12.977-7.5-1.279 2.208-2.023 4.765-2.023 7.5 0 8.284 6.716 15 15 15h27.003l1.495-3.18v-15l-1.495 3.18c-9.307 0-16.212 0-27.003 0z"
         fill="#ff9838"
         id="path30" />
      <path
         d="m369.583 303.25h-83.757l-2.578-4.847v15l2.578 4.847h83.757c8.284 0 15-6.716 15-15 0-2.735-.744-5.292-2.023-7.5-2.595 4.479-7.428 7.5-12.977 7.5z"
         fill="#ff9838"
         id="path32" />
      <ellipse
         cx="255.957"
         cy="303.25"
         fill="#ffba7e"
         rx="33.437"
         ry="33.437"
         transform="matrix(.383 -.924 .924 .383 -122.161 423.674)"
         id="ellipse34" />
      <path
         d="m246.019 303.25c0-14.304 9.03-26.533 21.687-31.3-3.658-1.378-7.616-2.137-11.75-2.137-18.437 0-33.437 15-33.437 33.437s15 33.437 33.437 33.437c4.134 0 8.092-.759 11.75-2.137-12.656-4.767-21.687-16.996-21.687-31.3z"
         fill="#ffaa5b"
         id="path36" />
    </g>
    <g
       id="g44">
      <path
         d="m46.918 302.917c0 115.288 93.794 209.082 209.082 209.082s209.081-93.793 209.081-209.082c0-105.736-78.899-193.378-180.913-207.177v-39.404h14.184c9.088 0 16.481-7.394 16.481-16.482v-23.372c0-9.088-7.394-16.482-16.481-16.482h-24.852c-4.143 0-7.5 3.358-7.5 7.5s3.357 7.5 7.5 7.5h24.852c.816 0 1.481.665 1.481 1.482v23.373c0 .817-.665 1.482-1.481 1.482-6.649 0-70.279 0-84.703 0-.817 0-1.482-.665-1.482-1.482v-23.373c0-.817.665-1.482 1.482-1.482h24.851c4.143 0 7.5-3.358 7.5-7.5s-3.357-7.5-7.5-7.5h-24.852c-9.089 0-16.482 7.394-16.482 16.482v23.373c0 9.088 7.394 16.482 16.482 16.482h14.183v39.403c-18.566 2.511-36.37 7.457-53.069 14.524l-16.712-28.946c-4.358-7.547-14.044-10.144-21.593-5.786l-21.41 12.361c-7.566 4.368-10.155 14.026-5.786 21.593l17.058 29.545c-48.339 38.33-79.401 97.546-79.401 163.886zm195.913-246.581h26.337v37.909c-8.451-.524-17.545-.546-26.337 0zm-120.58 45.65c-.223-.385-.096-.876.296-1.103l21.409-12.361c.386-.223.882-.089 1.104.295l16.031 27.768c-7.819 3.991-15.399 8.482-22.659 13.425zm120.554 7.308c8.799-.588 17.703-.586 26.501.007 100.833 6.861 180.775 91.073 180.775 193.617 0 107.017-87.064 194.082-194.081 194.082-107.018 0-194.082-87.064-194.082-194.082 0-102.582 80-186.817 180.887-193.624z"
         id="path40" />
      <path
         d="m255.999 471.999c93.232 0 169.082-75.85 169.082-169.081 0-93.415-76.063-169.081-169.081-169.081h-.001c-93.231 0-169.081 75.85-169.081 169.081s75.85 169.081 169.081 169.081zm-137.011-239.525 5.958 3.44c3.583 2.07 8.173.845 10.245-2.745 2.071-3.587.842-8.174-2.745-10.245l-5.936-3.427c11.911-18.425 27.644-34.157 46.068-46.068l3.427 5.935c2.072 3.587 6.657 4.817 10.245 2.745 3.587-2.071 4.816-6.658 2.745-10.245l-3.439-5.957c19.03-9.824 40.356-15.797 62.943-16.885v51.028c0 4.142 3.357 7.5 7.5 7.5s7.5-3.358 7.5-7.5c0-10.298 0-40.838 0-51.028 21.686 1.019 43.262 6.744 62.94 16.89l-3.437 5.952c-2.071 3.587-.842 8.174 2.745 10.245 3.592 2.073 8.177.838 10.245-2.745l3.423-5.93c17.945 11.593 33.801 27.11 46.066 46.066l-5.93 3.424c-3.587 2.071-4.816 6.658-2.745 10.245 2.074 3.592 6.663 4.814 10.245 2.745l5.952-3.437c10.519 20.367 15.954 42.155 16.89 62.94-6.738 0-12.199 0-19.055 0-2.952-8.523-11.384-15-21.215-15h-79.441c-6.198-9.411-15.837-15.754-26.685-17.754v-27.613c0-4.142-3.357-7.5-7.5-7.5s-7.5 3.358-7.5 7.5v27.631c-11.114 2.067-20.662 8.633-26.675 17.736h-22.699c-12.406 0-22.5 10.093-22.5 22.5s10.094 22.5 22.5 22.5h22.698c7.331 11.097 19.909 18.438 34.176 18.438s26.845-7.34 34.176-18.438h79.45c9.777 0 18.114-6.271 21.21-15h19.06c-1.088 22.587-7.062 43.913-16.885 62.943l-5.957-3.439c-3.588-2.073-8.175-.842-10.245 2.745-2.071 3.587-.842 8.174 2.745 10.245l5.935 3.426c-11.911 18.425-27.644 34.157-46.068 46.068l-3.426-5.934c-2.071-3.587-6.657-4.816-10.245-2.746-3.587 2.071-4.816 6.658-2.745 10.245l3.439 5.957c-19.03 9.824-40.356 15.798-62.943 16.886v-6.898c0-4.142-3.357-7.5-7.5-7.5s-7.5 3.358-7.5 7.5v6.898c-22.587-1.088-43.913-7.061-62.943-16.885l3.439-5.957c2.071-3.587.842-8.174-2.745-10.245-3.588-2.073-8.175-.843-10.245 2.745l-3.427 5.935c-18.425-11.911-34.157-27.643-46.068-46.068l5.936-3.427c3.587-2.071 4.816-6.658 2.745-10.245-2.07-3.588-6.659-4.817-10.245-2.745l-5.958 3.44c-9.824-19.03-15.798-40.356-16.886-62.943h6.899c4.143 0 7.5-3.358 7.5-7.5s-3.357-7.5-7.5-7.5h-6.899c1.09-22.588 7.064-43.914 16.887-62.944zm177.263 62.943h73.375c4.136 0 7.5 3.364 7.5 7.5s-3.364 7.5-7.5 7.5h-73.375c.906-4.857.893-10.2 0-15zm-17.1 19.173c-4.28 8.453-13.047 14.265-23.151 14.265-14.439 0-25.938-11.803-25.938-25.938 0-14.222 11.574-25.937 25.938-25.937 18.562 0 31.793 19.248 23.151 37.61zm-63.403-4.173h-16.622c-4.136 0-7.5-3.364-7.5-7.5s3.364-7.5 7.5-7.5h16.622c-.932 5.016-.869 10.335 0 15z"
         id="path42" />
    </g>
    <path
       style="opacity:0.381;fill:#00ffff;fill-opacity:1;fill-rule:nonzero;stroke:#47ffff;stroke-width:0.09520745;stroke-miterlimit:4;stroke-dasharray:none;stroke-opacity:1"
       d="m 228.17772,494.61108 c -35.18988,-5.6418 -67.90259,-20.21183 -94.81281,-42.22902 -8.91278,-7.29218 -25.41334,-24.48229 -32.05878,-33.3985 C 61.796728,365.97374 51.750785,297.59372 74.45231,236.19685 c 22.587447,-61.08833 75.809,-107.86165 138.79955,-121.98283 33.36474,-7.47968 70.49027,-5.90004 101.71293,4.32774 66.77757,21.87471 116.67323,77.46597 130.57965,145.48533 11.36438,55.58567 -1.53541,111.14148 -36.53549,157.34825 -6.39844,8.44714 -23.23786,25.46637 -32.47632,32.82308 -25.32381,20.16567 -54.50138,33.35607 -87.77074,39.6788 -11.4595,2.17784 -48.75943,2.62966 -60.58417,0.73386 z m 46.0069,-23.27158 c 62.33271,-6.95583 115.53132,-47.28372 139.05274,-105.41073 13.17398,-32.55605 15.58293,-70.69827 6.68315,-105.81821 C 404.61836,199.72592 353.37038,150.61699 291.798,137.3358 c -36.87294,-7.95351 -74.53932,-3.51824 -108.49128,12.775 -29.00587,13.91967 -50.26421,32.31482 -68.12772,58.95193 -29.440026,43.89937 -36.600235,98.83923 -19.387399,148.75833 20.942699,60.73611 74.088429,104.35609 137.715459,113.03158 11.36972,1.55025 29.23242,1.76405 40.67756,0.48686 z"
       id="path860"
       inkscape:connector-curvature="0"
       transform="scale(0.99999805)" />
    <path
       style="opacity:0.381;fill:#00ffff;fill-opacity:1;fill-rule:nonzero;stroke:#47ffff;stroke-width:0.09520745;stroke-miterlimit:4;stroke-dasharray:none;stroke-opacity:1"
       d="m 134.57033,122.61262 c -2.18352,-3.76926 -5.8181,-10.03523 -8.07686,-13.92439 -4.60981,-7.93724 -4.91079,-6.93374 3.54819,-11.829806 l 4.38065,-2.535524 7.7583,13.44527 c 4.26706,7.39489 7.75358,13.71763 7.74781,14.05052 -0.006,0.33289 -2.57044,2.18968 -5.69927,4.12619 l -5.68879,3.52093 z"
       id="path862"
       inkscape:connector-curvature="0"
       transform="scale(0.99999805)" />
    <path
       style="opacity:0.381;fill:#00ffff;fill-opacity:1;fill-rule:nonzero;stroke:#47ffff;stroke-width:0.09520745;stroke-miterlimit:4;stroke-dasharray:none;stroke-opacity:1"
       d="m 142.80667,108.36004 c -4.18455,-7.45044 -7.56097,-13.760466 -7.50315,-14.022287 0.13646,-0.618014 9.08846,-5.882512 9.37904,-5.515633 1.24989,1.578091 15.84984,27.58937 15.59473,27.78357 -0.48183,0.36678 -9.60075,5.3467 -9.74425,5.32141 -0.065,-0.0114 -3.54182,-6.11662 -7.72637,-13.56706 z"
       id="path864"
       inkscape:connector-curvature="0"
       transform="scale(0.99999805)" />
    <path
       style="opacity:0.381;fill:#00ffff;fill-opacity:1;fill-rule:nonzero;stroke:#47ffff;stroke-width:0.09520745;stroke-miterlimit:4;stroke-dasharray:none;stroke-opacity:1"
       d="M 255.38115,93.626354 243.2422,93.328788 V 75.411413 57.494038 l 9.28273,-0.614706 c 5.1055,-0.338089 10.88935,-0.616923 12.853,-0.619632 l 3.57028,-0.0049 v 19.041489 c 0,10.47282 -0.32132,18.948378 -0.71405,18.834574 -0.39273,-0.113804 -6.17659,-0.340821 -12.85301,-0.504483 z"
       id="path866"
       inkscape:connector-curvature="0"
       transform="scale(0.99999805)" />
    <path
       style="opacity:0.381;fill:#00ffff;fill-opacity:1;fill-rule:nonzero;stroke:#47ffff;stroke-width:0.09520745;stroke-miterlimit:4;stroke-dasharray:none;stroke-opacity:1"
       d="m 242.29013,28.311424 c 0,-12.617373 0.0209,-12.739 2.86219,-16.661303 l 2.8622,-3.9511457 h 9.03873 c 8.29057,0 9.03874,0.1518943 9.03874,1.8350473 0,1.0092764 1.12886,2.7230104 2.50858,3.8082984 2.28234,1.795284 3.785,1.97325 16.6613,1.97325 h 14.15273 v 12.853006 12.853005 h -28.56224 -28.56223 z"
       id="path868"
       inkscape:connector-curvature="0"
       transform="scale(0.99999805)" />
    <path
       style="opacity:0.381;fill:#00ffff;fill-opacity:1;fill-rule:nonzero;stroke:#47ffff;stroke-width:0.09520745;stroke-miterlimit:4;stroke-dasharray:none;stroke-opacity:1"
       d="M 212.77582,28.168577 V 15.315571 h 13.72721 c 7.54997,0 14.29779,-0.219748 14.99517,-0.488328 1.027,-0.395527 1.21319,2.047061 0.97976,12.853005 l -0.2882,13.341334 h -14.70697 -14.70697 z"
       id="path870"
       inkscape:connector-curvature="0"
       transform="scale(0.99999805)" />
    <path
       style="opacity:0.381;fill:#9400d3;fill-opacity:1;fill-rule:nonzero;stroke:#47ffff;stroke-width:0.09520745;stroke-miterlimit:4;stroke-dasharray:none;stroke-opacity:1"
       d="m 254.28842,325.63393 c -1.42066,-1.68836 -3.73715,-5.25795 -5.14776,-7.93242 -2.29275,-4.34699 -2.56364,-5.87231 -2.55448,-14.38341 0.0116,-10.7962 1.63997,-15.39054 7.94345,-22.41225 l 3.46973,-3.86506 4.61496,1.41044 c 17.93782,5.4822 24.5614,25.97664 13.08033,40.47267 -3.14361,3.96913 -10.25573,8.19216 -15.40303,9.14599 -3.05069,0.56531 -3.69923,0.30215 -6.0032,-2.43596 z"
       id="path872"
       inkscape:connector-curvature="0"
       transform="scale(0.99999805)" />
    <path
       style="opacity:0.381;fill:#9400d3;fill-opacity:1;fill-rule:nonzero;stroke:#47ffff;stroke-width:0.09520745;stroke-miterlimit:4;stroke-dasharray:none;stroke-opacity:1"
       d="m 297.02963,302.84084 -0.005,-6.6633 h 37.84974 c 36.58031,0 37.9136,0.0639 39.75389,1.90415 2.4481,2.4481 2.4481,7.07265 0,9.52075 -1.84032,1.84032 -3.17272,1.9041 -39.74911,1.90292 l -37.84496,-10e-4 z"
       id="path876"
       inkscape:connector-curvature="0"
       transform="scale(0.99999805)" />
    <path
       style="opacity:0.381;fill:#9400d3;fill-opacity:1;fill-rule:nonzero;stroke:#47ffff;stroke-width:0.09520745;stroke-miterlimit:4;stroke-dasharray:none;stroke-opacity:1"
       d="m 247.97342,327.08574 c -14.08019,-4.34045 -21.37041,-21.98115 -14.65397,-35.45929 3.83057,-7.68696 10.94318,-12.71804 19.87308,-14.05716 l 4.66924,-0.70019 -3.92744,4.6577 c -5.89886,6.9957 -6.88383,10.1454 -6.88383,22.01284 0,11.16521 0.87586,13.92812 6.79602,21.43816 2.78429,3.532 2.79101,3.56956 0.62742,3.50396 -1.20287,-0.0365 -4.1281,-0.66468 -6.50052,-1.39602 z"
       id="path878"
       inkscape:connector-curvature="0"
       transform="scale(0.99999805)" />
    <path
       style="opacity:0.381;fill:#8b008b;fill-opacity:1;fill-rule:nonzero;stroke:#47ffff;stroke-width:0.09520745;stroke-miterlimit:4;stroke-dasharray:none;stroke-opacity:1"
       d="m 196.93044,309.5146 c -2.47486,-0.99873 -5.10026,-4.55977 -5.10026,-6.91788 0,-1.41122 0.33568,-1.54615 1.84156,-0.74023 1.01286,0.54207 6.10906,0.98557 11.32489,0.98557 h 9.48333 l 0.36318,3.8083 0.36318,3.8083 -8.11779,-0.0604 c -4.46478,-0.0332 -9.03593,-0.43086 -10.15809,-0.88371 z"
       id="path880"
       inkscape:connector-curvature="0"
       transform="scale(0.99999805)" />
    <path
       style="opacity:0.381;fill:#8b008b;fill-opacity:1;fill-rule:nonzero;stroke:#47ffff;stroke-width:0.09520745;stroke-miterlimit:4;stroke-dasharray:none;stroke-opacity:1"
       d="M 235.62561,470.32122 C 170.21987,461.9023 115.98584,417.05991 95.664441,354.59695 81.944009,312.42371 85.287885,268.36233 105.26414,228.10422 c 16.58053,-33.41472 42.69242,-59.47497 76.56926,-76.41783 45.17189,-22.59188 100.1034,-23.07442 145.66739,-1.27961 53.56537,25.62215 88.16523,73.74345 96.16894,133.75123 1.14122,8.55627 0.61255,33.24385 -0.93412,43.62087 -11.15204,74.8224 -71.34499,133.16578 -147.0979,142.57798 -9.27566,1.15248 -30.93154,1.13319 -40.0121,-0.0356 z m 13.32904,-18.04673 c 0,-3.83074 0.4733,-5.27696 2.33691,-7.14056 2.97835,-2.97836 6.62895,-2.97836 9.60729,0 1.88004,1.88003 2.33692,3.30171 2.33692,7.27188 v 4.93496 l 7.31422,-0.6628 c 16.40728,-1.48678 37.86704,-7.37144 50.93142,-13.96632 l 5.53098,-2.79202 -2.55868,-4.58281 c -2.31346,-4.1436 -2.4419,-4.86471 -1.34025,-7.52434 2.67125,-6.44897 10.1257,-5.85896 13.81998,1.09383 0.99883,1.87984 2.28413,3.41376 2.85623,3.40873 4.41264,-0.0388 33.06142,-27.0105 41.3578,-38.93672 l 4.90524,-7.05138 -4.52202,-2.95188 c -3.85943,-2.51935 -4.56457,-3.46149 -4.8124,-6.42982 -0.21881,-2.62087 0.23601,-3.96834 1.84566,-5.46795 2.74656,-2.55882 5.81368,-2.51858 10.54093,0.13828 4.69376,2.63805 4.68545,2.64706 10.09302,-10.94081 6.22119,-15.63234 10.65734,-35.17651 10.65734,-46.95273 v -4.21544 h -9.5014 -9.50139 l -1.89587,3.7162 c -2.34381,4.59425 -7.5518,8.9927 -12.34996,10.43026 -2.47461,0.74141 -16.67901,1.08673 -44.70187,1.08673 h -41.07471 l -5.94252,6.02696 c -6.92464,7.02304 -13.73425,10.57932 -23.19801,12.11505 -12.78892,2.07533 -26.17719,-2.79359 -35.38511,-12.86854 l -4.69362,-5.13555 -14.73181,-0.30698 c -14.47536,-0.30164 -14.81153,-0.3567 -19.31166,-3.1632 -12.20382,-7.61092 -13.75706,-24.34404 -3.19914,-34.46445 5.39372,-5.17021 8.68793,-5.99866 23.85471,-5.99919 l 13.59765,-4.6e-4 4.08317,-4.74137 c 4.49468,-5.21922 10.48921,-9.12487 17.80211,-11.59873 l 4.7728,-1.61459 0.23077,-14.10999 c 0.12692,-7.7605 0.45444,-15.06619 0.72784,-16.23485 0.64476,-2.75608 5.43137,-5.24037 8.57613,-4.45109 4.64212,1.1651 5.22242,3.33534 5.22242,19.5312 v 14.91176 l 4.99839,1.60276 c 6.65771,2.13484 14.00201,7.0624 18.44082,12.37265 l 3.62209,4.33318 h 41.34119 c 28.22255,0 42.49219,0.34485 44.96836,1.08673 4.79816,1.43756 10.00615,5.836 12.34996,10.43026 l 1.89587,3.7162 h 9.64281 9.6428 l -0.55821,-7.85461 c -0.72856,-10.25149 -3.83247,-24.36116 -7.98089,-36.27926 -2.76291,-7.93762 -7.16265,-18.07447 -8.47891,-19.53513 -0.17647,-0.19582 -1.86315,0.55394 -3.74818,1.66613 -6.94052,4.09501 -13.22309,1.41222 -12.65546,-5.40416 0.24908,-2.99111 0.94333,-3.93455 4.69956,-6.38638 l 4.4073,-2.87682 -2.9113,-4.27021 c -4.98462,-7.3113 -14.58829,-18.47255 -21.28438,-24.73642 -6.32433,-5.9161 -20.83935,-17.1693 -22.07029,-17.11065 -0.34739,0.0165 -1.78424,1.92992 -3.19302,4.25194 -2.96699,4.89037 -6.41568,6.29697 -10.21305,4.16556 -4.16146,-2.33577 -4.72273,-5.95697 -1.77896,-11.47755 l 2.53729,-4.75829 -6.36891,-2.90119 c -14.76793,-6.72714 -34.05894,-11.87154 -50.87838,-13.5679 l -6.4265,-0.64816 v 27.03038 c 0,25.88651 -0.0822,27.11855 -1.94125,29.11405 -2.60923,2.80068 -7.78939,2.80068 -10.39863,0 -1.85916,-1.99558 -1.94124,-3.2274 -1.94124,-29.1349 v -27.05123 l -6.90254,0.64886 c -16.30523,1.53274 -35.0873,6.48748 -49.05601,12.94104 l -7.89701,3.64843 2.5823,4.93857 c 2.37395,4.54008 2.47078,5.13729 1.2,7.40133 -0.76027,1.35452 -2.54998,3.11593 -3.97713,3.91425 -2.32605,1.30115 -2.86602,1.30057 -5.21303,-0.006 -1.44001,-0.80142 -3.47507,-3.04954 -4.52235,-4.99582 -1.04729,-1.94629 -2.33259,-3.53574 -2.85623,-3.53212 -1.87442,0.0129 -14.44804,10.1131 -23.66945,19.01322 -7.87014,7.59593 -22.50616,25.17862 -22.50616,27.03731 0,0.29727 1.30809,1.21692 2.90686,2.04368 6.72161,3.47588 8.48357,8.33372 4.54378,12.52744 -2.56173,2.72683 -6.36665,2.83637 -10.52187,0.30294 -1.71449,-1.04533 -3.46295,-1.90219 -3.88548,-1.90415 -2.24042,-0.0104 -11.52673,25.37646 -14.42162,39.42572 -1.7044,8.27166 -3.33604,22.51709 -2.70832,23.64566 0.21844,0.39273 2.51405,0.71405 5.10135,0.71405 5.67466,0 8.51248,2.27613 8.51248,6.82758 0,4.67965 -2.29329,6.50147 -8.184,6.50147 -2.76797,0 -5.23577,0.32863 -5.48402,0.7303 -0.65364,1.05762 1.03438,15.69439 2.77059,24.02363 2.74226,13.15566 12.16031,39.03506 14.20567,39.03506 0.31675,0 2.25552,-0.85687 4.30836,-1.90415 4.79989,-2.44872 7.43601,-2.40572 10.17344,0.16595 4.05065,3.80541 2.60251,8.8906 -3.5102,12.32613 -2.09386,1.17682 -3.80702,2.38224 -3.80702,2.67873 0,1.59277 13.29296,17.85734 20.52365,25.11166 8.05137,8.07768 23.68423,20.65811 25.65164,20.64296 0.52382,-0.004 1.94056,-1.73757 3.14832,-3.8523 2.65362,-4.64638 5.95541,-6.1932 9.54618,-4.47219 1.38692,0.66474 3.09479,2.40438 3.79526,3.86587 1.14854,2.39635 1.0266,3.12962 -1.24192,7.46808 -1.38353,2.64596 -2.38117,4.92765 -2.21699,5.07043 0.16418,0.14277 3.74099,1.76271 7.94846,3.59985 16.55332,7.22781 37.32652,12.43508 51.61669,12.93888 l 4.04632,0.14265 z m 18.99729,-126.08421 c 24.09684,-12.21078 15.14367,-49.6052 -11.81599,-49.35157 -10.09178,0.0949 -17.93471,4.69876 -23.21348,13.62639 -2.21195,3.74089 -2.53183,5.31083 -2.52185,12.37696 0.0151,10.71996 2.6077,15.5775 12.18065,22.82211 5.56403,4.21074 17.60661,4.46046 25.37067,0.52611 z m -52.3199,-23.34822 v -7.61659 h -9.83082 c -8.98888,0 -9.99596,0.18346 -11.75906,2.14217 -2.71113,3.01192 -3.26017,5.08791 -2.1424,8.10089 1.62651,4.38436 3.316,4.99013 13.91747,4.99013 h 9.81481 z m 159.51575,5.27969 c 3.09172,-3.09171 3.09172,-7.46766 0,-10.55937 l -2.33691,-2.33691 h -38.36427 -38.36427 v 7.61659 7.6166 h 38.36427 38.36427 z"
       id="path888"
       inkscape:connector-curvature="0"
       transform="scale(0.99999805)" />
    <path
       style="opacity:0.381;fill:#696969;fill-opacity:1;fill-rule:nonzero;stroke:#47ffff;stroke-width:0.09520745;stroke-miterlimit:4;stroke-dasharray:none;stroke-opacity:1"
       d="m 196.59055,302.15575 c -3.63862,-0.65276 -4.36577,-1.88001 -2.40054,-4.05156 1.53209,-1.69294 2.91512,-1.92665 11.40163,-1.92665 h 9.65805 l -0.38903,3.33226 -0.38902,3.33226 -7.75045,-0.12965 c -4.26275,-0.0713 -8.82154,-0.32181 -10.13064,-0.55666 z"
       id="path926"
       inkscape:connector-curvature="0"
       transform="scale(0.99999805)" />
    <path
       style="opacity:0.381;fill:#9400d3;fill-opacity:1;fill-rule:nonzero;stroke:#47ffff;stroke-width:0.09520745;stroke-miterlimit:4;stroke-dasharray:none;stroke-opacity:1"
       d="m 238.48183,470.63738 c -11.34029,-0.96863 -34.14894,-6.69131 -44.3254,-11.12122 C 168.35281,448.28359 151.64139,436.9905 134.69906,419.3366 116.73982,400.62308 104.20973,379.95403 96.049327,355.58179 73.105942,287.05806 97.404887,210.9049 155.98246,167.75073 c 4.79248,-3.53063 11.36255,-8.01079 14.60016,-9.95592 6.47118,-3.88783 23.27935,-12.04503 24.81916,-12.04503 0.53412,0 2.19828,-0.64002 3.69815,-1.42225 1.49987,-0.78224 3.60532,-1.42489 4.67878,-1.42811 1.07347,-0.003 2.35877,-0.40137 2.85623,-0.88477 0.49746,-0.48339 3.04664,-1.31593 5.66484,-1.85008 2.61821,-0.53415 7.54519,-1.60697 10.94886,-2.38404 10.20637,-2.33014 24.46062,-3.47278 38.08298,-3.05277 25.89443,0.79837 46.93517,6.11154 69.80915,17.62806 46.69572,23.51021 78.89045,65.6192 90.30624,118.11571 1.91397,8.80159 2.17624,12.67174 2.1936,32.37053 0.0207,23.41888 -0.49008,27.74712 -5.39235,45.69958 -4.00955,14.68327 -12.35943,32.76034 -21.52274,46.59559 -27.95225,42.20382 -72.64556,69.72526 -122.06486,75.16565 -7.44146,0.81921 -28.25153,1.0116 -36.17883,0.3345 z m 10.47282,-18.09133 c 0,-5.2516 3.27282,-9.74904 7.09446,-9.74904 3.65555,0 7.18666,5.01637 7.18666,10.20954 v 4.35099 l 7.1899,-0.60777 c 9.85056,-0.83268 24.44093,-3.90516 33.93417,-7.14595 6.92016,-2.36239 21.54931,-8.37215 22.54257,-9.26064 0.19453,-0.17401 -0.76944,-2.23286 -2.14217,-4.57524 -3.05765,-5.21748 -3.09579,-6.44841 -0.30047,-9.69815 3.82361,-4.44522 9.32015,-2.87043 12.68369,3.63395 0.74529,1.44125 1.82522,2.62045 2.39983,2.62045 2.19132,0 14.0581,-9.34872 23.51596,-18.52601 8.50081,-8.24864 22.99412,-25.54795 22.99412,-27.44593 0,-0.34695 -1.36675,-1.33758 -3.03722,-2.20142 -6.40218,-3.31069 -8.21108,-8.41759 -4.41342,-12.46002 2.53591,-2.69934 6.04562,-2.80623 9.83083,-0.29938 1.57092,1.04038 3.41614,1.89443 4.10048,1.89787 0.68434,0.004 2.65393,-3.09987 4.37686,-6.89626 6.74797,-14.86887 11.56935,-33.24867 12.61225,-48.07977 l 0.61928,-8.80668 h -9.46327 -9.46326 l -3.34905,4.97668 c -2.30934,3.43165 -4.82537,5.74792 -8.10437,7.46088 l -4.75531,2.4842 -42.31864,0.16977 -42.31864,0.16976 -5.69551,5.79439 c -8.75198,8.90393 -17.28661,12.57686 -29.00865,12.48409 -11.8296,-0.0937 -22.62323,-5.13638 -30.35498,-14.18177 l -3.62697,-4.24318 -13.73671,-0.0586 c -15.26225,-0.0651 -18.37515,-0.83367 -23.5789,-5.82177 -4.79797,-4.59915 -6.82237,-9.25144 -6.7982,-15.62305 0.0268,-7.07757 2.39112,-12.26145 7.64216,-16.75616 5.49477,-4.70331 8.59928,-5.40594 23.91341,-5.41219 l 13.01102,-0.006 2.9102,-3.67444 c 3.7833,-4.7768 12.05666,-10.43291 18.39934,-12.57879 l 5.03251,-1.70262 0.26316,-15.01477 c 0.28203,-16.09063 0.7166,-17.57819 5.69108,-19.48061 2.49657,-0.95477 6.41283,0.51646 7.54459,2.8343 0.41282,0.84544 0.97193,8.34579 1.24247,16.66743 l 0.49189,15.13027 3.8083,1.13616 c 6.76952,2.01962 11.83767,5.20395 17.46643,10.97422 l 5.51097,5.64954 41.82747,0.16305 c 23.00511,0.0897 42.89856,0.55633 44.20766,1.03703 4.52927,1.66311 8.63798,5.06671 11.55265,9.57007 l 2.92696,4.52235 h 9.56292 9.5629 l -0.5571,-7.85461 c -1.03147,-14.54278 -5.51383,-32.31256 -11.78706,-46.72836 -1.86156,-4.27785 -3.71424,-8.13394 -4.11706,-8.5691 -0.40282,-0.43515 -2.48004,0.10039 -4.61603,1.19009 -4.94977,2.52518 -7.56613,2.50267 -10.32465,-0.0888 -4.1778,-3.92485 -1.93984,-9.15465 5.84419,-13.65711 1.50204,-0.86881 1.05581,-1.81276 -4.27569,-9.0447 -7.43301,-10.08218 -22.87322,-25.59971 -32.5216,-32.68407 -4.03036,-2.9593 -7.68678,-5.38054 -8.12539,-5.38054 -0.43861,0 -1.61905,1.3924 -2.62321,3.09424 -2.04472,3.46537 -5.14076,6.34698 -6.87067,6.39483 -2.58763,0.0716 -5.93966,-2.29596 -7.05166,-4.98057 -1.06266,-2.56548 -0.91439,-3.34264 1.435,-7.52212 l 2.62011,-4.66105 -7.12769,-3.29319 c -14.54281,-6.7192 -33.53089,-11.79162 -49.90124,-13.33048 l -6.90254,-0.64886 v 26.62632 c 0,25.4955 -0.0838,26.73286 -1.97325,29.1349 -2.72892,3.46924 -7.60571,3.46924 -10.33462,0 -1.88951,-2.40212 -1.97325,-3.63922 -1.97325,-29.15013 v -26.64155 l -7.28528,0.68269 c -16.48803,1.54506 -38.2216,7.48485 -51.03653,13.94831 l -5.48166,2.76478 2.38083,4.69836 c 1.84732,3.6455 2.18243,5.22022 1.49545,7.02712 -1.01696,2.6748 -4.47538,5.37714 -6.88161,5.37714 -1.81829,0 -7.15164,-5.23925 -7.99569,-7.85461 -0.29574,-0.91638 -0.98997,-1.66613 -1.54274,-1.66613 -2.03404,0 -13.87491,9.22036 -22.57713,17.58059 -8.42523,8.09412 -23.89325,26.2792 -23.89325,28.09026 0,0.45402 1.60663,1.80656 3.57028,3.00565 6.37699,3.89406 7.49744,7.17658 3.97722,11.65183 -2.38431,3.03115 -5.31339,3.20132 -10.40372,0.60443 -2.05284,-1.04728 -3.95502,-1.90415 -4.22706,-1.90415 -0.75393,0 -4.27888,7.22963 -6.93198,14.21741 -5.39422,14.2074 -8.50287,27.65659 -10.19264,44.09715 l -0.56267,5.47443 h 5.20764 c 5.93884,0 9.09011,2.30955 9.09011,6.66208 0,4.39191 -2.12256,6.1044 -8.24024,6.64828 l -5.56484,0.49472 0.28814,5.23641 c 0.44409,8.0703 2.8357,21.49406 5.4832,30.77641 2.44328,8.56633 9.07265,24.91157 10.80727,26.64619 0.64372,0.64373 2.3597,0.21568 5.22152,-1.30252 5.00814,-2.65681 8.67531,-1.97375 10.92536,2.03501 2.06026,3.67061 0.76959,6.74842 -4.12818,9.84427 -2.37567,1.50165 -4.31941,2.98962 -4.31941,3.30659 0,1.62142 13.65296,18.43137 20.66509,25.44349 8.13419,8.1342 23.44123,20.35572 25.49483,20.35572 0.61712,0 1.7175,-1.11262 2.44528,-2.47249 0.72778,-1.35987 2.5627,-3.51543 4.07759,-4.79012 2.9744,-2.5028 5.2988,-2.35308 8.17868,0.52679 2.89592,2.89593 2.9997,4.75255 0.53724,9.61196 -1.30355,2.57244 -2.37009,4.85478 -2.37009,5.07187 0,0.6736 15.38509,7.04319 23.07655,9.55393 11.42685,3.7301 27.18252,6.82521 36.19009,7.10935 l 4.52235,0.14265 z m 18.55827,-125.99872 c 19.71629,-9.26775 19.19928,-38.84193 -0.8323,-47.60916 -13.67727,-5.98614 -30.02886,0.82136 -35.33291,14.70983 -2.17467,5.6943 -1.60867,15.65795 1.19834,21.095 6.59978,12.78343 21.8974,17.9477 34.96687,11.80433 z m -51.88088,-23.70527 v -7.61659 h -9.91215 c -9.89963,0 -9.91526,0.004 -12.37697,2.92927 -1.35565,1.6111 -2.46481,3.56033 -2.46481,4.33162 0,2.01831 2.60439,6.76298 4.02628,7.33509 0.66557,0.26779 5.60157,0.5207 10.96889,0.56204 l 9.75876,0.0752 z m 159.87941,5.10802 c 2.51397,-3.19599 2.51397,-7.02004 0,-10.21603 l -1.97325,-2.50858 h -38.72793 -38.72793 v 7.61659 7.6166 h 38.72793 38.72793 z"
       id="path936"
       inkscape:connector-curvature="0"
       transform="scale(0.99999805)" />
  </g>
</svg>
