<?xml version="1.0" encoding="UTF-8" standalone="no"?>
<svg
   xmlns:dc="http://purl.org/dc/elements/1.1/"
   xmlns:cc="http://creativecommons.org/ns#"
   xmlns:rdf="http://www.w3.org/1999/02/22-rdf-syntax-ns#"
   xmlns:svg="http://www.w3.org/2000/svg"
   xmlns="http://www.w3.org/2000/svg"
   xmlns:sodipodi="http://sodipodi.sourceforge.net/DTD/sodipodi-0.dtd"
   xmlns:inkscape="http://www.inkscape.org/namespaces/inkscape"
   version="1.1"
   viewBox="0 0 24 18"
   xml:space="preserve"
   id="svg5"
   sodipodi:docname="email.svg"
   width="24"
   height="18"
   inkscape:version="0.92.3 (2405546, 2018-03-11)"><metadata
     id="metadata11"><rdf:RDF><cc:Work
         rdf:about=""><dc:format>image/svg+xml</dc:format><dc:type
           rdf:resource="http://purl.org/dc/dcmitype/StillImage" /></cc:Work></rdf:RDF></metadata><defs
     id="defs9" /><sodipodi:namedview
     pagecolor="#ffffff"
     bordercolor="#666666"
     borderopacity="1"
     objecttolerance="10"
     gridtolerance="10"
     guidetolerance="10"
     inkscape:pageopacity="0"
     inkscape:pageshadow="2"
     inkscape:window-width="1440"
     inkscape:window-height="858"
     id="namedview7"
     showgrid="false"
     inkscape:zoom="9.8333333"
     inkscape:cx="-7.7796611"
     inkscape:cy="9"
     inkscape:window-x="-11"
     inkscape:window-y="-11"
     inkscape:window-maximized="1"
     inkscape:current-layer="icons" /><g
     id="info"
     transform="translate(0,-3)" /><g
     id="icons"
     transform="translate(0,-3)"><rect
       style="opacity:1;fill:#00ffff;fill-opacity:1;fill-rule:nonzero;stroke:#47ffff;stroke-width:0.1;stroke-miterlimit:4;stroke-dasharray:none;stroke-opacity:1"
       id="rect818"
       width="21.355932"
       height="10.576271"
       x="1.4237288"
       y="5.3389831" /><path
       d="M 20,3 H 4 C 1.8,3 0,4.8 0,7 v 10 c 0,2.2 1.8,4 4,4 h 16 c 2.2,0 4,-1.8 4,-4 V 7 C 24,4.8 22.2,3 20,3 Z m 1.6,5.8 -7.9,5.3 c -0.5,0.3 -1.1,0.5 -1.7,0.5 -0.6,0 -1.2,-0.2 -1.7,-0.5 L 2.4,8.8 C 2,8.5 1.9,7.9 2.2,7.4 2.5,7 3.1,6.9 3.6,7.2 l 7.9,5.3 c 0.3,0.2 0.8,0.2 1.1,0 L 20.5,7.2 C 21,6.9 21.6,7 21.9,7.5 c 0.2,0.4 0.1,1 -0.3,1.3 z"
       id="email"
       style="fill:#9400d3"
       inkscape:connector-curvature="0" /></g></svg>