<?xml version="1.0" standalone="no"?>
<!DOCTYPE svg PUBLIC "-//W3C//DTD SVG 20010904//EN"
 "http://www.w3.org/TR/2001/REC-SVG-20010904/DTD/svg10.dtd">
<svg version="1.0" xmlns="http://www.w3.org/2000/svg"
 width="260.000000pt" height="260.000000pt" viewBox="0 0 260.000000 260.000000"
 preserveAspectRatio="xMidYMid meet">
<metadata>
Created by potrace 1.11, written by Peter Selinger 2001-2013
</metadata>
<g transform="translate(0.000000,260.000000) scale(0.100000,-0.100000)"
fill="#000000" stroke="none">
<path d="M0 1300 l0 -1300 1300 0 1300 0 0 1300 0 1300 -1300 0 -1300 0 0
-1300z m2000 995 l0 -226 -71 3 -70 3 -32 85 c-41 108 -86 174 -140 203 -40
21 -55 22 -315 25 l-272 3 2 -403 3 -403 185 0 c246 1 261 9 310 173 l22 72
69 0 69 0 0 -310 0 -310 -70 0 -69 0 -20 68 c-26 84 -52 127 -93 152 -30 18
-51 20 -222 20 l-188 0 5 -352 c3 -240 8 -366 17 -393 18 -57 65 -99 133 -119
55 -16 57 -18 57 -51 l0 -35 -330 0 -330 0 0 33 c0 32 3 35 63 58 56 22 64 29
87 74 l25 50 0 790 c0 616 -3 798 -13 826 -16 47 -48 76 -108 98 -45 17 -49
22 -52 55 l-3 36 675 0 676 0 0 -225z m-123 -1558 c73 -7 137 -17 143 -23 11
-11 60 -261 60 -306 0 -21 -5 -28 -19 -28 -36 0 -41 15 -75 203 l-7 39 -167
-164 c-309 -302 -437 -373 -672 -372 -138 0 -263 29 -467 106 -115 44 -133 53
-133 73 0 33 8 35 58 13 80 -34 243 -89 327 -108 122 -29 208 -33 302 -17 162
30 275 105 533 354 l163 158 -39 7 c-21 4 -61 7 -89 7 -27 1 -67 6 -87 12 -31
8 -38 15 -38 34 0 30 6 30 207 12z m-244 -96 c36 -35 49 -92 35 -149 -31 -126
-169 -143 -214 -26 -31 81 -4 160 67 197 42 21 74 15 112 -22z m-1121 -241
c-50 -30 -58 -58 -34 -112 11 -25 37 -64 57 -87 32 -35 34 -41 18 -41 -32 0
-66 34 -97 93 -37 73 -33 113 13 144 19 13 43 23 55 23 17 0 15 -3 -12 -20z
m248 0 c27 -27 27 -89 0 -118 -45 -48 -120 -14 -120 53 0 69 75 110 120 65z
m443 -40 c39 -43 38 -106 -2 -149 -76 -81 -210 2 -171 105 33 86 115 107 173
44z"/>
</g>
</svg>
