<?xml version="1.0" standalone="no"?>
<!DOCTYPE svg PUBLIC "-//W3C//DTD SVG 20010904//EN"
 "http://www.w3.org/TR/2001/REC-SVG-20010904/DTD/svg10.dtd">
<svg version="1.0" xmlns="http://www.w3.org/2000/svg"
 width="260.000000pt" height="260.000000pt" viewBox="0 0 260.000000 260.000000"
 preserveAspectRatio="xMidYMid meet">
<metadata>
Created by potrace 1.11, written by Peter Selinger 2001-2013
</metadata>
<g transform="translate(0.000000,260.000000) scale(0.100000,-0.100000)"
fill="#000000" stroke="none">
<path d="M0 1300 l0 -1300 1300 0 1300 0 0 1300 0 1300 -1300 0 -1300 0 0
-1300z m2000 995 l0 -226 -71 3 -70 3 -32 85 c-41 108 -86 174 -140 203 -40
21 -55 22 -315 25 l-272 3 2 -403 3 -403 185 0 c246 1 261 9 310 173 l22 72
69 0 69 0 0 -310 0 -310 -69 0 -69 0 -21 68 c-26 84 -52 127 -93 152 -30 18
-51 20 -222 20 l-188 0 5 -352 c3 -240 8 -366 17 -393 18 -57 66 -100 133
-120 55 -16 57 -18 57 -51 l0 -34 -330 0 -330 0 0 33 c0 32 3 35 63 58 56 22
64 29 87 74 l25 50 0 790 c0 616 -3 798 -13 826 -16 47 -48 76 -108 98 -45 17
-49 22 -52 55 l-3 36 675 0 676 0 0 -225z m-128 -1559 c76 -6 142 -16 148 -22
11 -11 60 -261 60 -306 0 -21 -5 -28 -20 -28 -26 0 -46 35 -55 95 -4 28 -11
72 -17 98 l-10 48 -166 -163 c-311 -304 -437 -373 -677 -372 -142 2 -275 33
-474 111 -102 40 -121 50 -121 68 0 33 8 35 58 13 288 -124 543 -164 702 -109
137 48 237 122 468 346 84 81 151 149 149 151 -1 2 -50 8 -108 13 -127 12
-139 16 -139 47 0 28 -1 28 202 10z m-240 -94 c81 -81 32 -252 -73 -252 -53 0
-85 23 -105 76 -31 81 -4 160 67 197 42 21 75 15 111 -21z m-1120 -242 c-50
-30 -58 -58 -34 -112 11 -25 37 -64 57 -87 32 -35 34 -41 18 -41 -32 0 -66 34
-97 93 -37 73 -33 113 13 144 19 13 43 23 55 23 17 0 15 -3 -12 -20z m248 0
c27 -27 27 -89 0 -118 -27 -29 -73 -29 -100 0 -63 68 34 184 100 118z m443
-40 c39 -43 38 -106 -2 -149 -76 -81 -210 2 -171 105 33 86 115 107 173 44z"/>
</g>
</svg>
