<?xml version="1.0" standalone="no"?><svg xmlns="http://www.w3.org/2000/svg" viewBox="0 0 1440 320"><path fill="#ffffff" fill-opacity="1" d="M0,192L14.1,186.7C28.2,181,56,171,85,186.7C112.9,203,141,245,169,245.3C197.6,245,226,203,254,181.3C282.4,160,311,160,339,149.3C367.1,139,395,117,424,138.7C451.8,160,480,224,508,213.3C536.5,203,565,117,593,101.3C621.2,85,649,139,678,181.3C705.9,224,734,256,762,234.7C790.6,213,819,139,847,122.7C875.3,107,904,149,932,160C960,171,988,149,1016,144C1044.7,139,1073,149,1101,176C1129.4,203,1158,245,1186,234.7C1214.1,224,1242,160,1271,117.3C1298.8,75,1327,53,1355,42.7C1383.5,32,1412,32,1426,32L1440,32L1440,320L1425.9,320C1411.8,320,1384,320,1355,320C1327.1,320,1299,320,1271,320C1242.4,320,1214,320,1186,320C1157.6,320,1129,320,1101,320C1072.9,320,1045,320,1016,320C988.2,320,960,320,932,320C903.5,320,875,320,847,320C818.8,320,791,320,762,320C734.1,320,706,320,678,320C649.4,320,621,320,593,320C564.7,320,536,320,508,320C480,320,452,320,424,320C395.3,320,367,320,339,320C310.6,320,282,320,254,320C225.9,320,198,320,169,320C141.2,320,113,320,85,320C56.5,320,28,320,14,320L0,320Z"></path></svg>