<?xml version="1.0" encoding="UTF-8" standalone="no"?>
<svg
   xmlns:dc="http://purl.org/dc/elements/1.1/"
   xmlns:cc="http://creativecommons.org/ns#"
   xmlns:rdf="http://www.w3.org/1999/02/22-rdf-syntax-ns#"
   xmlns:svg="http://www.w3.org/2000/svg"
   xmlns="http://www.w3.org/2000/svg"
   xmlns:sodipodi="http://sodipodi.sourceforge.net/DTD/sodipodi-0.dtd"
   xmlns:inkscape="http://www.inkscape.org/namespaces/inkscape"
   id="Layer_1"
   enable-background="new 0 0 480 480"
   height="394.66602"
   viewBox="0 0 480 369.99939"
   width="512"
   version="1.1"
   sodipodi:docname="fidelity-card.svg"
   inkscape:version="0.92.3 (2405546, 2018-03-11)">
  <metadata
     id="metadata17">
    <rdf:RDF>
      <cc:Work
         rdf:about="">
        <dc:format>image/svg+xml</dc:format>
        <dc:type
           rdf:resource="http://purl.org/dc/dcmitype/StillImage" />
        <dc:title></dc:title>
      </cc:Work>
    </rdf:RDF>
  </metadata>
  <defs
     id="defs15" />
  <sodipodi:namedview
     pagecolor="#ffffff"
     bordercolor="#666666"
     borderopacity="1"
     objecttolerance="10"
     gridtolerance="10"
     guidetolerance="10"
     inkscape:pageopacity="0"
     inkscape:pageshadow="2"
     inkscape:window-width="1440"
     inkscape:window-height="858"
     id="namedview13"
     showgrid="false"
     inkscape:zoom="0.4609375"
     inkscape:cx="-166.30439"
     inkscape:cy="201.84166"
     inkscape:window-x="-11"
     inkscape:window-y="-11"
     inkscape:window-maximized="1"
     inkscape:current-layer="Layer_1" />
  <path
     d="m 471.68286,325.77283 c 0,17.67 -14.33,32 -32,32 H 39.682858 c -17.67,0 -31.9999999,-14.33 -31.9999999,-32 V 35.772833 c 0,-17.67 14.3299999,-32 31.9999999,-32 H 439.68286 c 17.67,0 32,14.33 32,32 z"
     id="path2"
     style="fill:#4b0082"
     inkscape:connector-curvature="0" />
  <path
     d="m 439.78986,53.772833 h -110 c -150.281,0 -272.107002,121.825997 -272.107002,272.106997 0,31.537 -47.051,34.202 -49.8709999,2.791 -0.201,-2.244 -0.129,-293.908997 -0.129,-292.897997 0,-17.673 14.3269999,-32 31.9999999,-32 H 439.68286 c 34.366,0 32.651,50 0.107,50 z"
     id="path4"
     style="fill:#9932cc"
     inkscape:connector-curvature="0" />
  <path
     d="m 167.68286,91.772833 v 51.999997 c 0,13.25 -10.75,24 -24,24 H 91.682858 c -13.25,0 -24,-10.75 -24,-24 V 91.772833 c 0,-13.25 10.75,-24 24,-24 h 52.000002 c 13.25,0 24,10.75 24,24 z"
     id="path6"
     style="fill:#00ffff"
     inkscape:connector-curvature="0" />
  <path
     d="m 167.68286,107.31283 v 36.46 c 0,13.25 -10.75,24 -24,24 h -35.37 c 16.52,-23.11 36.58,-43.53 59.37,-60.46 z"
     id="path8"
     style="fill:#00ced1"
     inkscape:connector-curvature="0" />
  <path
     id="path10"
     style="fill:#40e0d0;stroke-width:1"
     d="M 40.001222,0 C 17.945222,0 0,17.943394 0,39.999393 V 330 c 0,22.056 17.945222,39.99939 40.001222,39.99939 H 440.00062 C 462.05662,369.99939 480,352.056 480,330 c 0,-4.418 -3.58188,-7.99988 -7.99987,-7.99988 -4.418,0 -7.99988,3.58188 -7.99988,7.99988 0,13.233 -10.76663,23.99963 -23.99963,23.99963 H 40.001222 C 26.768222,353.99963 15.999759,343.233 15.999759,330 V 39.999393 c 0,-13.232999 10.768463,-23.999633 24.001463,-23.999633 H 440.00062 c 13.233,0 23.99963,10.766634 23.99963,23.999633 V 273.99903 c 0,4.41799 3.58188,7.99987 7.99988,7.99987 4.41799,0 7.99987,-3.58188 7.99987,-7.99987 V 39.999393 C 480,17.943394 462.05662,0 440.00062,0 Z M 92.001347,63.999033 C 74.35635,63.999033 60,78.355373 60,96.000363 V 147.99866 C 60,165.64366 74.35635,180 92.001347,180 h 52.000123 c 17.645,0 31.99951,-14.35634 31.99951,-32.00134 V 96.000363 c 0,-4.41799 -3.58187,-8.0017 -7.99987,-8.0017 -4.41801,0 -7.99989,3.58371 -7.99989,8.0017 v 51.998297 c 0,8.822 -7.17775,16.00159 -15.99975,16.00159 H 92.001347 c -8.821997,0 -16.001588,-7.17959 -16.001588,-16.00159 V 96.000363 c 0,-8.82199 7.179591,-16.00158 16.001588,-16.00158 h 41.998903 c 4.418,0 7.99988,-3.58187 7.99988,-7.99988 0,-4.418 -3.58188,-7.99987 -7.99988,-7.99987 z m 203.360603,21.53685 c 1.34333,1.50492 2.56239,3.2169 4.36523,4.17299 0.26935,0.0922 0.54447,0.17114 0.82031,0.24719 -1.96966,-1.41643 -3.69375,-2.89796 -5.18554,-4.42018 z M 67.999884,228.99903 C 63.581878,228.99903 60,232.5809 60,236.9989 c 0,4.41801 3.581878,7.99988 7.999884,7.99988 H 235.00122 c 4.41801,0 7.99988,-3.58187 7.99989,-7.99988 0,-4.418 -3.58188,-7.99987 -7.99989,-7.99987 z m 208.000486,0 c -4.418,0 -7.99988,3.58187 -7.99988,7.99987 0,4.41801 3.58188,7.99988 7.99988,7.99988 h 20.00061 c 4.418,0 7.99988,-3.58187 7.99988,-7.99988 0,-4.418 -3.58188,-7.99987 -7.99988,-7.99987 z m 59.00025,0 c -4.41801,0 -7.99989,3.58187 -7.99989,7.99987 0,4.41801 3.58188,7.99988 7.99989,7.99988 h 19.00085 c 4.418,0 7.99988,-3.58187 7.99988,-7.99988 0,-4.418 -3.58188,-7.99987 -7.99988,-7.99987 z M 67.999884,284.00025 C 63.581878,284.00025 60,287.58213 60,292.00012 60,296.41812 63.581878,300 67.999884,300 h 70.001226 c 4.418,0 7.99987,-3.58188 7.99987,-7.99988 0,-4.41799 -3.58187,-7.99987 -7.99987,-7.99987 z m 103.000486,0 c -4.418,0 -7.99988,3.58188 -7.99988,7.99987 0,4.418 3.58188,7.99988 7.99988,7.99988 h 5.00061 c 4.418,0 7.99988,-3.58188 7.99988,-7.99988 0,-4.41799 -3.58188,-7.99987 -7.99988,-7.99987 z"
     inkscape:connector-curvature="0" />
  <path
     style="opacity:0.95800003;fill:#40e0d0;fill-opacity:1;fill-rule:nonzero;stroke:#47ffff;stroke-width:0.09375;stroke-miterlimit:4;stroke-dasharray:none;stroke-opacity:1"
     id="path862"
     d="m 214.45863,106.53554 c 5.50102,0 11.00205,0 16.50307,0 5.48035,0 10.96072,0 16.44107,0 5.96695,0 11.93391,0 17.90086,0 6.10288,0 12.20576,0 18.30864,0 5.84522,0 11.69043,0 17.53564,0 5.48518,0 10.97035,0 16.45553,0 4.60914,0 9.21826,0 13.8274,0 4.51128,0 9.02256,0 13.53384,0 4.66627,0 9.33253,0 13.9988,0 4.67877,0 9.35754,0 14.03632,0 5.74701,0 11.49402,0 17.24101,0 5.77439,0 11.54877,0 17.32316,0 2.01232,0 4.02466,0 6.03698,0 12.94365,0 12.94365,18.30508 0,18.30508 v 0 c -2.01232,0 -4.02466,0 -6.03698,0 -5.77439,0 -11.54877,0 -17.32316,0 -5.74699,0 -11.494,0 -17.24101,0 -4.67878,0 -9.35755,0 -14.03632,0 -4.66627,0 -9.33253,0 -13.9988,0 -4.51128,0 -9.02256,0 -13.53384,0 -4.60914,0 -9.21826,0 -13.8274,0 -5.48518,0 -10.97035,0 -16.45553,0 -5.84521,0 -11.69042,0 -17.53564,0 -6.10288,0 -12.20576,0 -18.30864,0 -5.96695,0 -11.93391,0 -17.90086,0 -5.48035,0 -10.96072,0 -16.44107,0 -5.50102,0 -11.00205,0 -16.50307,0 -12.94365,0 -12.94365,-18.30508 0,-18.30508 z"
     inkscape:connector-curvature="0" />
</svg>
