<?xml version="1.0" encoding="UTF-8" standalone="no"?>
<svg
   xmlns:dc="http://purl.org/dc/elements/1.1/"
   xmlns:cc="http://creativecommons.org/ns#"
   xmlns:rdf="http://www.w3.org/1999/02/22-rdf-syntax-ns#"
   xmlns:svg="http://www.w3.org/2000/svg"
   xmlns="http://www.w3.org/2000/svg"
   xmlns:sodipodi="http://sodipodi.sourceforge.net/DTD/sodipodi-0.dtd"
   xmlns:inkscape="http://www.inkscape.org/namespaces/inkscape"
   viewBox="0 0 320.11291 288.47937"
   version="1.1"
   id="svg4"
   sodipodi:docname="photo-prize-target.svg"
   inkscape:version="0.92.3 (2405546, 2018-03-11)"
   width="320.11292"
   height="288.47937">
  <metadata
     id="metadata10">
    <rdf:RDF>
      <cc:Work
         rdf:about="">
        <dc:format>image/svg+xml</dc:format>
        <dc:type
           rdf:resource="http://purl.org/dc/dcmitype/StillImage" />
        <dc:title />
      </cc:Work>
    </rdf:RDF>
  </metadata>
  <defs
     id="defs8" />
  <sodipodi:namedview
     pagecolor="#ffffff"
     bordercolor="#666666"
     borderopacity="1"
     objecttolerance="10"
     gridtolerance="10"
     guidetolerance="10"
     inkscape:pageopacity="0"
     inkscape:pageshadow="2"
     inkscape:window-width="1440"
     inkscape:window-height="858"
     id="namedview6"
     showgrid="false"
     inkscape:zoom="1.18"
     inkscape:cx="-39.011458"
     inkscape:cy="162.59029"
     inkscape:window-x="-11"
     inkscape:window-y="-11"
     inkscape:window-maximized="1"
     inkscape:current-layer="svg4" />
  <path
     d="m 302.92205,84.948974 c 17.57949,25.512226 23.66468,62.437806 8.78974,105.741436 -14.53688,42.96795 -50.03392,91.97827 -94.3207,97.34926 -44.28678,5.0353 -98.03943,-33.56871 -145.706893,-95.67083 C 23.678678,130.26674 -18.579699,45.002216 8.4656609,14.454692 35.172957,-16.092833 130.84592,8.4123236 193.38833,27.2108 c 62.54239,19.134159 91.95423,32.561651 109.53372,57.738174 z"
     id="path2"
     inkscape:connector-curvature="0"
     style="fill:#8a3ffc;stroke-width:3.36874962" />
  <g
     transform="matrix(9.3748782,0,0,8.2663985,60.650547,-8438.6148)"
     id="g28">
    <path
       style="fill:#e6e6fa"
       inkscape:connector-curvature="0"
       d="m 2,1034.4 c -1.1046,0 -2,0.9 -2,2 v 2 8 2 c 0,1.1 0.89543,2 2,2 h 16 4 c 1.105,0 2,-0.9 2,-2 v -10 -2 c 0,-1.1 -0.895,-2 -2,-2 H 18 6 Z"
       id="path2-7" />
    <path
       style="fill:#f8f8ff"
       inkscape:connector-curvature="0"
       d="m 2,1031.4 c -1.1046,0 -2,0.9 -2,2 v 2 8 2 c 0,1.1 0.89543,2 2,2 h 16 4 c 1.105,0 2,-0.9 2,-2 v -10 -2 c 0,-1.1 -0.895,-2 -2,-2 H 18 6 Z"
       id="path4-2" />
    <path
       style="fill:#4b0082"
       inkscape:connector-curvature="0"
       d="m 2,1033.1594 c -1.10459996,0 -2,0.9 -2,2 v 2 8 2 c 0,1.1 0.89543004,2 2,2 h 16 4 c 1.105,0 2,-0.9 2,-2 v -10 -2 c 0,-1.1 -0.895,-2 -2,-2 H 18 6 Z"
       id="path6-5" />
    <path
       style="fill:#f8f8ff"
       inkscape:connector-curvature="0"
       d="m 17,13 c 0,3.314 -2.686,6 -6,6 -3.3137,0 -6,-2.686 -6,-6 0,-3.3137 2.6863,-6 6,-6 3.314,0 6,2.6863 6,6 z"
       transform="translate(1,1029.4)"
       id="path8-3" />
    <path
       style="fill:#00ffff"
       inkscape:connector-curvature="0"
       d="m 18,1041.7797 c 0,3.314 -2.686,6 -6,6 -3.3137,0 -6.0000005,-2.686 -6.0000005,-6 0,-3.3137 2.6863005,-6 6.0000005,-6 3.314,0 6,2.6863 6,6 z"
       id="path10-3" />
    <path
       style="fill:#34495e"
       inkscape:connector-curvature="0"
       d="M 15,12.5 C 15,14.433 13.657,16 12,16 10.343,16 9,14.433 9,12.5 9,10.567 10.343,9 12,9 c 1.657,0 3,1.567 3,3.5 z"
       transform="matrix(1.3333,0,0,1.1429,-4,1027.1)"
       id="path12-0" />
    <path
       style="fill:#2c3e50"
       inkscape:connector-curvature="0"
       d="M 15,12.5 C 15,14.433 13.657,16 12,16 10.343,16 9,14.433 9,12.5 9,10.567 10.343,9 12,9 c 1.657,0 3,1.567 3,3.5 z"
       transform="matrix(1,0,0,0.85714,0,1030.6)"
       id="path14-2" />
    <path
       style="fill:#34495e"
       inkscape:connector-curvature="0"
       d="m 14,13 c 0,1.105 -0.895,2 -2,2 -1.105,0 -2,-0.895 -2,-2 0,-1.105 0.895,-2 2,-2 1.105,0 2,0.895 2,2 z"
       transform="translate(0,1028.4)"
       id="path16-6" />
    <path
       style="fill:#3498db"
       inkscape:connector-curvature="0"
       d="m 13,13 c 0,0.552 -0.448,1 -1,1 -0.552,0 -1,-0.448 -1,-1 0,-0.552 0.448,-1 1,-1 0.552,0 1,0.448 1,1 z"
       transform="translate(0,1028.4)"
       id="path18-1" />
    <path
       style="fill:#ecf0f1"
       inkscape:connector-curvature="0"
       d="M 25,12.5 C 25,13.328 24.328,14 23.5,14 22.672,14 22,13.328 22,12.5 22,11.672 22.672,11 23.5,11 c 0.828,0 1.5,0.672 1.5,1.5 z"
       transform="matrix(0.66667,0,0,0.66666,-4.6667,1031)"
       id="path20-5" />
    <rect
       style="fill:#ecf0f1"
       height="1"
       width="3"
       x="19"
       y="1036.4"
       id="rect22" />
    <rect
       style="fill:#f8f8ff"
       height="1"
       width="3"
       x="19"
       y="1035.4"
       id="rect24" />
    <path
       style="fill:#e6e6fa"
       inkscape:connector-curvature="0"
       d="M 4,2 C 2.8954,2 2,2.8954 2,4 H 4 7 9 C 9,2.8954 8.1046,2 7,2 Z"
       transform="translate(0,1028.4)"
       id="path26-1" />
  </g>
</svg>
