<?xml version="1.0" encoding="UTF-8" standalone="no"?>
<svg
   xmlns:dc="http://purl.org/dc/elements/1.1/"
   xmlns:cc="http://creativecommons.org/ns#"
   xmlns:rdf="http://www.w3.org/1999/02/22-rdf-syntax-ns#"
   xmlns:svg="http://www.w3.org/2000/svg"
   xmlns="http://www.w3.org/2000/svg"
   xmlns:sodipodi="http://sodipodi.sourceforge.net/DTD/sodipodi-0.dtd"
   xmlns:inkscape="http://www.inkscape.org/namespaces/inkscape"
   viewBox="0 0 1440 320"
   version="1.1"
   id="svg4"
   sodipodi:docname="landing-footer.svg"
   inkscape:version="0.92.3 (2405546, 2018-03-11)">
  <metadata
     id="metadata10">
    <rdf:RDF>
      <cc:Work
         rdf:about="">
        <dc:format>image/svg+xml</dc:format>
        <dc:type
           rdf:resource="http://purl.org/dc/dcmitype/StillImage" />
      </cc:Work>
    </rdf:RDF>
  </metadata>
  <defs
     id="defs8" />
  <sodipodi:namedview
     pagecolor="#ffffff"
     bordercolor="#666666"
     borderopacity="1"
     objecttolerance="10"
     gridtolerance="10"
     guidetolerance="10"
     inkscape:pageopacity="0"
     inkscape:pageshadow="2"
     inkscape:window-width="1440"
     inkscape:window-height="858"
     id="namedview6"
     showgrid="false"
     inkscape:zoom="0.30763889"
     inkscape:cx="720"
     inkscape:cy="160"
     inkscape:window-x="-11"
     inkscape:window-y="-11"
     inkscape:window-maximized="1"
     inkscape:current-layer="svg4" />
  <path
     d="M 0,112.99894 40,94.165786 C 80,75.332629 160,37.666314 240,37.666314 c 80,0 160,37.666315 240,53.38023 80,15.478506 160,9.593136 240,-3.178095 80,-12.53582 160,-31.368978 240,-18.833157 80,12.771234 160,56.322908 240,56.499468 80,-0.17656 160,-43.728234 200,-65.916047 l 40,-21.952399 V 0 h -40 C 1360,0 1280,0 1200,0 1120,0 1040,0 960,0 880,0 800,0 720,0 640,0 560,0 480,0 400,0 320,0 240,0 160,0 80,0 40,0 H 0 Z"
     id="path2"
     style="fill:#ecf0f1;fill-opacity:1;stroke-width:0.76716113"
     inkscape:connector-curvature="0" />
</svg>
