<?xml version="1.0" encoding="iso-8859-1"?>
<!-- Generator: Adobe Illustrator 19.0.0, SVG Export Plug-In . SVG Version: 6.00 Build 0)  -->
<svg version="1.1" id="Capa_1" xmlns="http://www.w3.org/2000/svg" xmlns:xlink="http://www.w3.org/1999/xlink" x="0px" y="0px"
	 viewBox="0 0 503.839 503.839" style="enable-background:new 0 0 503.839 503.839;" xml:space="preserve">
<g>
	<g transform="translate(1 1)">
		<path style="fill:#D84315;" d="M141.77,402.204c3.637,17.718-1.883,36.076-14.689,48.85
			c-21.068,21.068-101.729,25.432-101.729,25.432s0.504-9.317,1.93-22.41c2.938-25.516,9.569-65.385,23.502-79.318
			c12.774-12.805,31.132-18.325,48.85-14.689l9.988-12.422l0.588-0.755l44.737,44.737L141.77,402.204z"/>
		<path style="fill:#FF5722;" d="M120.115,381.892c3.596,17.741-1.917,36.105-14.689,48.934
			c-13.681,13.597-52.627,20.312-78.143,23.25c2.938-25.516,9.569-65.385,23.502-79.318c12.774-12.805,31.132-18.325,48.85-14.689
			l9.988-12.422l23.67,23.67L120.115,381.892z"/>
		<path style="fill:#CFD8DC;" d="M209.756,75.857l-90.242-11.256c-6.99-0.882-13.851,2.4-17.552,8.395L8.774,225.036
			c-2.139,3.463-1.679,7.932,1.12,10.886c2.8,2.954,7.238,3.654,10.81,1.704c25.659-13.999,61.886-26.557,93.466-10.857
			l160.897,160.897c15.701,31.58,3.142,67.807-10.857,93.466c-1.95,3.573-1.251,8.011,1.704,10.81c2.954,2.8,7.424,3.26,10.886,1.12
			l152.041-93.187c5.995-3.701,9.276-10.562,8.395-17.552l-11.256-90.242L209.756,75.857z"/>
		<path style="fill:#0377BC;" d="M489.594,152.163c-20.96,120.004-113.05,215.055-232.33,239.801
			c-5.889,1.172-11.972-0.688-16.199-4.952L114.827,260.774c-4.264-4.227-6.124-10.311-4.952-16.199
			C134.62,125.294,229.671,33.204,349.675,12.245c36.765-6.465,74.404-6.123,111.045,1.007c4.029,0.755,8.142,1.679,12.171,2.602
			c6.429,1.645,11.449,6.665,13.094,13.094C495.564,69.345,496.792,111.274,489.594,152.163z"/>
		<path style="fill:#02A9F4;" d="M464.414,136.803c-20.96,120.004-113.05,215.055-232.33,239.801
			c-0.413,0.097-0.835,0.153-1.259,0.168L114.827,260.774c-4.264-4.227-6.124-10.311-4.952-16.199
			C134.62,125.294,229.671,33.204,349.675,12.245c36.765-6.465,74.404-6.123,111.045,1.007c0,0.084,0.084,0.252,0.084,0.336
			C470.383,53.985,471.611,95.914,464.414,136.803z"/>
		<path style="fill:#FDD834;" d="M387.865,266.65c-41.548,41.527-108.667,42.236-151.082,1.595l-1.595-1.595
			c-42.16-42.16-42.16-110.516,0-152.677c42.161-42.16,110.516-42.16,152.677,0S430.026,224.489,387.865,266.65z"/>
		<path style="fill:#FFEB3A;" d="M370.239,252.969c-35.478,35.595-90.852,41.933-133.456,15.276l-1.595-1.595
			c-38.738-38.735-42.323-100.342-8.34-143.309s94.76-53.669,141.376-24.896c0.671,0.588,1.343,1.259,2.014,1.93
			c20.271,20.216,31.664,47.668,31.664,76.296S390.511,232.753,370.239,252.969z"/>
		<path style="fill:#607D8B;" d="M235.189,381.136l-50.864,12.674l-19.053,19.137c-3.556,3.441-9.202,3.441-12.758,0l-63.622-63.622
			c-1.072-1.06-1.827-2.396-2.182-3.861c-0.939-3.142-0.104-6.546,2.182-8.897l19.137-19.053l12.674-50.864L235.189,381.136z"/>
		<path style="fill:#CFD8DC;" d="M213.701,359.649l-49.521,12.338l-19.053,19.137c-3.557,3.441-9.202,3.441-12.758,0l-45.66-45.66
			c-0.939-3.142-0.104-6.546,2.182-8.897l19.137-19.053l12.674-50.864L213.701,359.649z"/>
		<path style="fill:#37474F;" d="M88.924,349.319l27.951,27.951l35.645,35.645c3.512,3.512,9.207,3.512,12.719,0l19.079-19.079
			l-76.315-76.315L88.924,336.6C85.412,340.112,85.412,345.806,88.924,349.319z"/>
		<g>
			<path style="fill:#607D8B;" d="M87.143,347.538l20.124,20.124l25.663,25.663c3.54,2.409,8.345,1.626,10.938-1.781l19.079-19.079
				l-54.944-54.945L88.924,336.6C85.517,339.192,84.734,343.998,87.143,347.538z"/>
			<path style="fill:#607D8B;" d="M489.594,152.163L349.675,12.245c37.527-6.62,75.963-6.136,113.311,1.427
				c3.357,0.671,6.631,1.427,9.904,2.182c6.429,1.645,11.449,6.665,13.094,13.094C495.564,69.345,496.792,111.274,489.594,152.163z"
				/>
		</g>
		<path style="fill:#CFD8DC;" d="M467.099,129.669L349.675,12.245c37.527-6.62,75.963-6.136,113.311,1.427
			C471.81,51.712,473.206,91.099,467.099,129.669z"/>
		<path style="fill:#607D8B;" d="M437.219,382.311c0.9,6.99-2.386,13.857-8.393,17.542L276.82,493.105
			c-3.479,2.14-7.963,1.667-10.919-1.151c-2.956-2.818-3.642-7.274-1.671-10.852c2.518-4.616,5.036-9.652,7.302-14.94
			c0.38-0.163,0.746-0.36,1.091-0.588l152.005-93.167c5.994-3.698,9.275-10.555,8.393-17.542l-7.974-63.706l0.923,0.923
			L437.219,382.311z"/>
	</g>
	<g>
		<path d="M475.8,8.722C382.768-13.93,284.493,8.105,210.038,68.311l-88.467-11.039c-10.261-1.269-20.323,3.55-25.766,12.34
			L2.62,221.649c-4.192,6.699-3.281,15.393,2.209,21.078c3.242,3.459,7.767,5.427,12.508,5.439c2.934-0.007,5.819-0.752,8.389-2.168
			c21.708-11.836,52.488-23.193,79.668-13.273c-0.917,3.71-1.96,7.378-2.741,11.133c-1.767,8.666,0.965,17.638,7.262,23.848
			l2.511,2.511l-11.006,44.016l-17.432,17.432c-5.43,5.469-6.604,13.865-2.882,20.614c-13.351,1.863-25.732,8.02-35.274,17.542
			c-22.672,22.668-27.418,98.643-27.885,107.233c-0.124,2.302,0.703,4.553,2.288,6.226c1.585,1.673,3.788,2.622,6.093,2.622
			c0.152,0,0.303-0.004,0.455-0.012c8.59-0.467,84.566-5.213,107.234-27.885c9.526-9.537,15.688-21.917,17.554-35.267
			c6.735,3.781,15.166,2.599,20.602-2.889l17.432-17.432l44.016-11.006l2.511,2.511c4.919,4.97,11.614,7.778,18.607,7.803
			c1.761-0.001,3.518-0.182,5.242-0.541c3.755-0.782,7.422-1.823,11.132-2.741c9.92,27.193-1.427,57.962-13.271,79.667
			c-2.92,5.38-2.802,11.897,0.311,17.168c3.113,5.27,8.765,8.519,14.886,8.558c3.233-0.009,6.4-0.915,9.148-2.619l152.062-93.197
			c8.787-5.431,13.601-15.487,12.32-25.738l-11.039-88.485c60.208-74.453,82.243-172.729,59.588-265.762
			C492.802,18.49,485.348,11.036,475.8,8.722z M122.149,446.136c-12.316,12.316-56.275,19.775-86.779,22.328
			c2.545-30.496,10.004-74.447,22.332-86.775c10.226-10.22,24.716-14.945,39.002-12.72l38.164,38.164
			C137.091,421.42,132.366,435.908,122.149,446.136z M160.305,407.981c-0.238,0.229-0.615,0.229-0.852,0l-63.594-63.594
			c-0.234-0.236-0.234-0.616,0-0.852l13.143-13.143l64.446,64.446L160.305,407.981z M187.891,385.542l-69.594-69.594l7.971-31.885
			l46.754,46.754l46.754,46.754L187.891,385.542z M402.653,16.895c23.329,0.018,46.577,2.757,69.27,8.164
			c3.39,0.82,6.036,3.467,6.857,6.857c8.062,33.911,10.094,68.977,6.001,103.592L368.275,19
			C379.683,17.624,391.162,16.921,402.653,16.895z M17.686,231.259l4.02,7.369l-4.775-8.205l93.172-152.02
			c1.99-3.183,5.642-4.928,9.369-4.475l73.613,9.184c-2.427,2.277-4.916,4.463-7.281,6.828
			c-35.318,35.332-61.41,78.804-75.979,126.59C77.212,205.275,42.224,217.875,17.686,231.259z M256.563,384.751
			c-3.125,0.586-6.336-0.426-8.561-2.697l-5.873-5.873L127.657,261.71l-5.873-5.873c-2.268-2.227-3.279-5.437-2.697-8.561
			c23.848-114.262,113.976-203.03,228.588-225.138l133.944,133.944C459.622,270.739,370.855,360.931,256.563,384.751
			L256.563,384.751z M429.911,384.382c0.468,3.717-1.272,7.365-4.455,9.34l-152.041,93.185l-0.836-0.754
			c13.388-24.538,25.988-59.529,14.73-92.14c47.785-14.569,91.257-40.661,126.589-75.978c2.365-2.365,4.552-4.854,6.828-7.281
			L429.911,384.382z"/>
		<path d="M394.759,109.079c-45.416-45.375-119.012-45.352-164.401,0.05s-45.388,118.999,0,164.401s118.985,45.424,164.401,0.05
			C440.112,228.123,440.112,154.535,394.759,109.079z M382.891,261.71c-38.862,38.826-101.837,38.806-140.675-0.044
			s-38.838-101.825,0-140.675s101.813-38.869,140.675-0.044C421.694,159.846,421.694,222.812,382.891,261.71z"/>
		<path d="M364.609,151.098l4.712-4.712c3.277-3.277,3.277-8.591,0-11.869c-3.277-3.277-8.591-3.277-11.869,0l-4.712,4.712
			c-6.615-4.89-14.385-7.98-22.551-8.97c-10.511-1.649-21.177,1.825-28.701,9.348c-7.523,7.523-10.998,18.19-9.348,28.701
			c0.989,8.166,4.08,15.936,8.97,22.551l-28.517,28.517c-6.096-8.049-6.072-19.177,0.06-27.199c3.277-3.277,3.277-8.591,0-11.869
			c-3.277-3.277-8.591-3.277-11.869,0c-12.789,12.789-12.473,34.418-0.341,51.218l-4.745,4.745c-2.12,2.12-2.948,5.21-2.172,8.107
			s3.038,5.158,5.934,5.934c2.896,0.776,5.986-0.052,8.107-2.172l4.802-4.802c7.811,5.824,17.248,9.059,26.989,9.253
			c9.01,0.187,17.717-3.248,24.172-9.537c12.793-12.793,12.477-34.422,0.345-51.222l28.569-28.569
			c2.362,3.704,3.881,7.882,4.45,12.238c0.874,5.425-0.798,10.95-4.532,14.98c-3.249,3.282-3.236,8.573,0.03,11.839
			c3.266,3.266,8.557,3.279,11.839,0.03c7.39-7.605,10.842-18.203,9.348-28.701C372.59,165.483,369.499,157.713,364.609,151.098z
			 M308.825,166.456c-1.089-5.437,0.612-11.059,4.533-14.98c3.921-3.921,9.543-5.622,14.979-4.533
			c4.356,0.569,8.534,2.088,12.238,4.45l-27.3,27.3C310.913,174.99,309.394,170.812,308.825,166.456L308.825,166.456z
			 M311.661,231.186c-8.021,6.134-19.151,6.158-27.198,0.059l27.292-27.292C317.97,211.978,317.931,223.203,311.661,231.186
			L311.661,231.186z"/>
	</g>
</g>
<g>
</g>
<g>
</g>
<g>
</g>
<g>
</g>
<g>
</g>
<g>
</g>
<g>
</g>
<g>
</g>
<g>
</g>
<g>
</g>
<g>
</g>
<g>
</g>
<g>
</g>
<g>
</g>
<g>
</g>
</svg>
