<?xml version="1.0" standalone="no"?><svg xmlns="http://www.w3.org/2000/svg" viewBox="0 0 1440 320"><path fill="#7c43bd" fill-opacity="1" d="M0,128L30,122.7C60,117,120,107,180,112C240,117,300,139,360,144C420,149,480,139,540,122.7C600,107,660,85,720,96C780,107,840,149,900,165.3C960,181,1020,171,1080,176C1140,181,1200,203,1260,186.7C1320,171,1380,117,1410,90.7L1440,64L1440,0L1410,0C1380,0,1320,0,1260,0C1200,0,1140,0,1080,0C1020,0,960,0,900,0C840,0,780,0,720,0C660,0,600,0,540,0C480,0,420,0,360,0C300,0,240,0,180,0C120,0,60,0,30,0L0,0Z"></path></svg>