<?xml version="1.0" ?><svg viewBox="0 0 512 512" xmlns="http://www.w3.org/2000/svg"><g id="QR-code_store"><rect height="11" width="77.499" x="334.5034" y="171.9094" fill="#7c43bd" /><rect height="11" width="77.499" x="102.7783" y="171.9094" fill="#7c43bd" /><path fill="#7c43bd" d="M140.4311,91.8171a10,10,0,0,1,10-10H361.5688a10,10,0,0,1,10,10v69.0237h15.24V64.27A32.695,32.695,0,0,0,354.1133,31.575H157.8867A32.695,32.695,0,0,0,125.1914,64.27v96.571h15.24Z"/><path fill="#7c43bd" d="M371.5688,428.7551a10,10,0,0,1-10,10h-19.6V423.2615a12.68,12.68,0,0,0-12.67-12.67h-1.76v-42.22a20.8963,20.8963,0,0,0,14.43-19.83v-.58a38.8449,38.8449,0,0,0-2.4-13.45l-16.63-45.23a20.0106,20.0106,0,0,0-18.72-13.06h-95.15a20.0314,20.0314,0,0,0-18.72,13.06l-16.63,45.23a38.8375,38.8375,0,0,0-2.39,13.45v.58a20.8969,20.8969,0,0,0,14.43,19.83v42.22h-1.77a12.6775,12.6775,0,0,0-12.66,12.67v15.4936H150.4311a10,10,0,0,1-10-10V193.9094h-15.24V456.8345a32.695,32.695,0,0,0,32.6953,32.6948H354.1133a32.695,32.695,0,0,0,32.6953-32.6948V193.9094h-15.24Zm-69.26-140.5337h1.91a7.98,7.98,0,0,1,7.46,5.2l12.69,34.51h-22.06Zm0,51.71h26.41a26.9364,26.9364,0,0,1,1.25,8.03v.58a8.86,8.86,0,0,1-8.85,8.85h-9.96a8.86,8.86,0,0,1-8.85-8.85Zm-39.66-51.71h27.66v39.71h-27.66Zm0,60.32v-8.61h27.66v8.61a8.86,8.86,0,0,1-8.85,8.85h-9.96a8.8554,8.8554,0,0,1-8.85-8.83Zm-39.66-60.32h27.66v39.71h-27.66Zm0,51.71h27.66v8.63a8.8622,8.8622,0,0,1-8.85,8.83h-9.96a8.86,8.86,0,0,1-8.85-8.85Zm8.85,29.46h9.96a20.8122,20.8122,0,0,0,14.85-6.24,20.7937,20.7937,0,0,0,14.85,6.24h9.96a20.8119,20.8119,0,0,0,14.85-6.24,20.7952,20.7952,0,0,0,14.85,6.24h4.38v41.2h-38.07v-19.84a11.69,11.69,0,0,0-11.67-11.67h-18.3a11.6831,11.6831,0,0,0-11.67,11.67v19.84h-38.07v-41.2h4.38a20.8125,20.8125,0,0,0,14.85-6.24A20.7944,20.7944,0,0,0,231.8389,369.3914Zm-30.22-75.97a7.9671,7.9671,0,0,1,7.45-5.2h1.92v39.71h-22.06Zm-18.29,55.12v-.58a26.63,26.63,0,0,1,1.25-8.03h26.41v8.61a8.86,8.86,0,0,1-8.85,8.85h-9.97A8.858,8.858,0,0,1,183.3286,348.5415Zm0,74.72a.6681.6681,0,0,1,.66-.67h145.31a.67.67,0,0,1,.67.67v15.4936h-146.64Zm95.5259,46.0559H233.0918v-12h45.7627Z"/><path d="M240.3467,196.9553H204.5386v35.8081h35.8081Zm-9.7813,26.0269H214.32V206.7366h16.2456Z" fill="#7c43bd"/><path d="M273.5557,161.8809h35.8086V126.0725H273.5557Zm9.7812-26.0271H299.583V152.1H283.3369Z" fill="#7c43bd" /><path d="M240.3467,126.0725H204.5386v35.8084h35.8081ZM230.5654,152.1H214.32V135.8538h16.2456Z" fill="#7c43bd" /><rect height="8.7036" width="8.7036" x="246.8203" y="126.0725" fill="#7c43bd" /><rect height="8.7034" width="8.7036" x="204.5112" y="167.489" fill="#7c43bd" /><rect height="8.7036" width="8.7031" x="245.0801" y="188.2517" fill="#7c43bd" /><path d="M309.3643,232.7634V196.9553H282.3286v-8.7036H273.625l-.0693,44.5117Zm-26.0274-26.0268H299.583v16.2456H283.3369Z" fill="#7c43bd" /><path d="M255.5239,171.8408V151.5271h8.0142a4.3517,4.3517,0,0,0,4.3515-4.3516V134.7761h-8.7031v8.0476h-8.0141a4.3519,4.3519,0,0,0-4.3521,4.3518V167.489H232.3061v8.7034h18.8663A4.3517,4.3517,0,0,0,255.5239,171.8408Z" fill="#7c43bd" /><path d="M291.46,190.842h17.9039v-8.7033H295.812V171.8408a4.3517,4.3517,0,0,0-4.3516-4.3518H273.5561v8.7034h13.5523v10.2981A4.3517,4.3517,0,0,0,291.46,190.842Z" fill="#7c43bd" /><path d="M268.3706,214.8594V196.9553h-8.7031v13.5523H249.4316v8.7033H264.019A4.3514,4.3514,0,0,0,268.3706,214.8594Z" fill="#7c43bd"/><rect height="8.7034" width="16.2461" x="214.3193" y="182.1387" fill="#7c43bd" /><path d="M181.1963,115.0005v16.9l12,.01v-16.91a2.1677,2.1677,0,0,1,2.17-2.17h16.97v-12h-16.97A14.1771,14.1771,0,0,0,181.1963,115.0005Z" fill="#7c43bd" /><path d="M333.5884,241.9651V225.051h-12v16.9141a2.171,2.171,0,0,1-2.169,2.1689H302.4429v12h16.9765A14.1854,14.1854,0,0,0,333.5884,241.9651Z" fill="#7c43bd" /><path d="M181.1929,241.9651a14.1854,14.1854,0,0,0,14.1694,14.1689h16.9766v-12H195.3623a2.1713,2.1713,0,0,1-2.1694-2.1689V225.051h-12Z" fill="#7c43bd" /><path d="M333.5859,131.9006v-16.9a14.1771,14.1771,0,0,0-14.17-14.17h-16.97v12h16.97a2.1677,2.1677,0,0,1,2.17,2.17v16.91Z" fill="#7c43bd" /></g></svg>