<?xml version="1.0" ?><svg viewBox="0 0 24 24" xmlns="http://www.w3.org/2000/svg"><title/><g id="ticket"><path d="M23,7a2,2,0,0,1-2-2,1,1,0,0,0-1-1H4A1,1,0,0,0,3,5,2,2,0,0,1,1,7,1,1,0,0,0,0,8v9a1,1,0,0,0,1,1,2,2,0,0,1,2,2,1,1,0,0,0,1,1H20a1,1,0,0,0,1-1,2,2,0,0,1,2-2,1,1,0,0,0,1-1V8A1,1,0,0,0,23,7ZM19.13,19H4.87A4,4,0,0,0,2,16.13V8.87A4,4,0,0,0,4.87,6H19.13A4,4,0,0,0,22,8.86v7.28A4,4,0,0,0,19.13,19Z" fill="#ff0" /><path d="M8,7A1,1,0,0,0,8,9,1,1,0,0,0,8,7Z" fill="#ff0"/><path d="M8,10a1,1,0,0,0,0,2A1,1,0,0,0,8,10Z" fill="#ff0" /><path d="M8,13a1,1,0,0,0,0,2A1,1,0,0,0,8,13Z" fill="#ff0" /><path d="M8,16a1,1,0,0,0,0,2A1,1,0,0,0,8,16Z" fill="#ff0" /><polygon points="16.58 11.3 15.5 9 14.42 11.3 12 11.67 13.75 13.47 13.34 16 15.5 14.8 17.66 16 17.25 13.47 19 11.67 16.58 11.3" fill="#ff0"/></g></svg>