<?xml version="1.0" encoding="UTF-8" standalone="no"?>
<svg
   xmlns:dc="http://purl.org/dc/elements/1.1/"
   xmlns:cc="http://creativecommons.org/ns#"
   xmlns:rdf="http://www.w3.org/1999/02/22-rdf-syntax-ns#"
   xmlns:svg="http://www.w3.org/2000/svg"
   xmlns="http://www.w3.org/2000/svg"
   xmlns:sodipodi="http://sodipodi.sourceforge.net/DTD/sodipodi-0.dtd"
   xmlns:inkscape="http://www.inkscape.org/namespaces/inkscape"
   viewBox="0 0 22 22"
   version="1.1"
   id="svg8"
   sodipodi:docname="bolt-optimum-buy-flux.svg"
   width="22"
   height="22"
   inkscape:version="0.92.3 (2405546, 2018-03-11)"
   inkscape:export-filename="C:\Users\ACESSO LIVRE\Desktop\5443022_bag_christmas_gift_present_shopping_icon.svg.png"
   inkscape:export-xdpi="436.36365"
   inkscape:export-ydpi="436.36365">
  <metadata
     id="metadata14">
    <rdf:RDF>
      <cc:Work
         rdf:about="">
        <dc:format>image/svg+xml</dc:format>
        <dc:type
           rdf:resource="http://purl.org/dc/dcmitype/StillImage" />
        <dc:title></dc:title>
      </cc:Work>
    </rdf:RDF>
  </metadata>
  <defs
     id="defs12" />
  <sodipodi:namedview
     pagecolor="#ffffff"
     bordercolor="#666666"
     borderopacity="1"
     objecttolerance="10"
     gridtolerance="10"
     guidetolerance="10"
     inkscape:pageopacity="0"
     inkscape:pageshadow="2"
     inkscape:window-width="1440"
     inkscape:window-height="858"
     id="namedview10"
     showgrid="false"
     inkscape:zoom="6.9532167"
     inkscape:cx="32.428091"
     inkscape:cy="25.713013"
     inkscape:window-x="-11"
     inkscape:window-y="-11"
     inkscape:window-maximized="1"
     inkscape:current-layer="svg8" />
  <path
     d="M 21.5,4 H 18 A 4,4 0 0 0 10,4 H 6.5000001 a 0.49971,0.49971 0 0 0 -0.5,0.5 v 3 a 0.5,0.5 0 0 0 1,0 V 5 H 10 v 1.5 a 0.5,0.5 0 0 0 1,0 V 5 h 6 v 1.5 a 0.5,0.5 0 0 0 1,0 V 5 h 3 v 13 a 1.0013,1.0013 0 0 1 -1,1 h -7.5 a 0.5,0.5 0 0 0 0,1 H 20 a 2.002,2.002 0 0 0 2,-2 V 4.5 A 0.49971,0.49971 0 0 0 21.5,4 Z M 11,4 a 3,3 0 0 1 6,0 z"
     id="path4"
     style="fill:#00ffff"
     inkscape:connector-curvature="0" />
  <path
     d="M 10.5,12 H 8.0000001 v -0.5 a 2.5,2.5 0 0 0 -5,0 V 12 H 0.50000008 A 0.49971,0.49971 0 0 0 8.4197684e-8,12.5 V 20 A 2.002,2.002 0 0 0 2.0000001,22 h 7 A 2.002,2.002 0 0 0 11,20 V 12.5 A 0.49971,0.49971 0 0 0 10.5,12 Z M 4.0000001,11.5 a 1.5,1.5 0 0 1 3,0 V 12 h -3 z M 10,20 a 1.0013,1.0013 0 0 1 -0.9999999,1 h -7 a 1.0013,1.0013 0 0 1 -1,-1 v -7 h 2 v 0.5 a 0.5,0.5 0 0 0 1,0 V 13 h 3 v 0.5 a 0.5,0.5 0 0 0 1,0 V 13 H 10 Z"
     id="path6"
     style="fill:#00ffff"
     inkscape:connector-curvature="0" />
  <path
     id="path844"
     d="m 17,5 -5.226388,7.721204 h 3.135179 l -0.965426,5.515144 5.226388,-7.721201 h -3.135178 z"
     inkscape:connector-curvature="0"
     style="fill:#00ffff;stroke-width:0.03358667" />
  <path
     id="path844-4"
     d="m 7.0000001,13 -4.210114,4.533231 h 2.525542 l -0.777699,3.238021 4.210115,-4.533229 h -2.525541 z"
     inkscape:connector-curvature="0"
     style="fill:#00ffff;stroke-width:0.023098" />
</svg>
