<?xml version="1.0" encoding="UTF-8" standalone="no"?>
<svg
   xmlns:dc="http://purl.org/dc/elements/1.1/"
   xmlns:cc="http://creativecommons.org/ns#"
   xmlns:rdf="http://www.w3.org/1999/02/22-rdf-syntax-ns#"
   xmlns:svg="http://www.w3.org/2000/svg"
   xmlns="http://www.w3.org/2000/svg"
   xmlns:sodipodi="http://sodipodi.sourceforge.net/DTD/sodipodi-0.dtd"
   xmlns:inkscape="http://www.inkscape.org/namespaces/inkscape"
   data-name="Layer 1"
   id="Layer_1"
   viewBox="0 0 64 64"
   version="1.1"
   sodipodi:docname="mobile-apps.svg"
   inkscape:version="0.92.3 (2405546, 2018-03-11)"
   inkscape:export-filename="C:\Users\ACESSO LIVRE\Desktop\4014678_buy_mobile_online_phone_store_icon.svg.png"
   inkscape:export-xdpi="150"
   inkscape:export-ydpi="150">
  <metadata
     id="metadata29">
    <rdf:RDF>
      <cc:Work
         rdf:about="">
        <dc:format>image/svg+xml</dc:format>
        <dc:type
           rdf:resource="http://purl.org/dc/dcmitype/StillImage" />
        <dc:title></dc:title>
      </cc:Work>
    </rdf:RDF>
  </metadata>
  <sodipodi:namedview
     pagecolor="#ffffff"
     bordercolor="#666666"
     borderopacity="1"
     objecttolerance="10"
     gridtolerance="10"
     guidetolerance="10"
     inkscape:pageopacity="0"
     inkscape:pageshadow="2"
     inkscape:window-width="1440"
     inkscape:window-height="858"
     id="namedview27"
     showgrid="false"
     inkscape:zoom="3.6875"
     inkscape:cx="32"
     inkscape:cy="32"
     inkscape:window-x="-11"
     inkscape:window-y="-11"
     inkscape:window-maximized="1"
     inkscape:current-layer="XMLID_1374_" />
  <defs
     id="defs4">
    <style
       id="style2">.cls-1{fill:#190933;}</style>
  </defs>
  <path
     class="cls-1"
     d="M32,6.5A1.5,1.5,0,1,0,30.5,5,1.5,1.5,0,0,0,32,6.5Zm0-2a.5.5,0,1,1-.5.5A.5.5,0,0,1,32,4.5Z"
     id="path8"
     style="fill:#00ffff" />
  <circle
     class="cls-1"
     cx="36"
     cy="5"
     r="1"
     id="circle10"
     style="fill:#00ffff" />
  <circle
     class="cls-1"
     cx="28"
     cy="5"
     r="1"
     id="circle12"
     style="fill:#00ffff" />
  <path
     class="cls-1"
     d="M15,59a5,5,0,0,0,5,5H44a5,5,0,0,0,5-5V5a5,5,0,0,0-5-5H20a5,5,0,0,0-5,5V9a1,1,0,0,0-1,1v4a1,1,0,0,0,1,1v2a1,1,0,0,0-1,1v4a1,1,0,0,0,1,1ZM20,2H44a3,3,0,0,1,3,2.5H44a4.34,4.34,0,0,0-3.35,1.65A3.45,3.45,0,0,1,38,7.5H26a3.45,3.45,0,0,1-2.65-1.35A4.34,4.34,0,0,0,20,4.5H17.05A3,3,0,0,1,20,2ZM44,62H20a3,3,0,0,1-3-3V5.5h3a3.45,3.45,0,0,1,2.65,1.35A4.34,4.34,0,0,0,26,8.5H38a4.34,4.34,0,0,0,3.35-1.65A3.45,3.45,0,0,1,44,5.5h3V59A3,3,0,0,1,44,62Z"
     id="path14"
     style="fill:#00ffff" />
  <path
     class="cls-1"
     d="M24,46.5A3.5,3.5,0,1,0,27.5,50,3.5,3.5,0,0,0,24,46.5Zm0,6A2.5,2.5,0,1,1,26.5,50,2.5,2.5,0,0,1,24,52.5Z"
     id="path16"
     style="fill:#00ffff" />
  <path
     class="cls-1"
     d="M25,49.5H23a.5.5,0,0,0,0,1h2a.5.5,0,0,0,0-1Z"
     id="path18"
     style="fill:#00ffff" />
  <path
     class="cls-1"
     d="M40,46.5A3.5,3.5,0,1,0,43.5,50,3.5,3.5,0,0,0,40,46.5Zm0,6A2.5,2.5,0,1,1,42.5,50,2.5,2.5,0,0,1,40,52.5Z"
     id="path20"
     style="fill:#00ffff" />
  <path
     class="cls-1"
     d="M41,49.5h-.5V49a.5.5,0,0,0-1,0v.5H39a.5.5,0,0,0,0,1h.5V51a.5.5,0,0,0,1,0v-.5H41a.5.5,0,0,0,0-1Z"
     id="path22"
     style="fill:#00ffff" />
  <path
     class="cls-1"
     d="M27.15,35.5h9.7A1.51,1.51,0,0,0,38,35a1.48,1.48,0,0,0,.35-1.19l-1.71-12a1.51,1.51,0,0,0-1.49-1.29H34.5V19a2.5,2.5,0,0,0-5,0v1.5h-.63a1.51,1.51,0,0,0-1.49,1.29l-1.71,12A1.48,1.48,0,0,0,26,35,1.51,1.51,0,0,0,27.15,35.5Zm10.07-1.17a.48.48,0,0,1-.37.17h-9.7a.48.48,0,0,1-.37-.17.49.49,0,0,1-.12-.4l.2-1.43H37.14l.2,1.43A.49.49,0,0,1,37.22,34.33ZM30.5,19a1.5,1.5,0,0,1,3,0v1.5h-3Zm-2.13,2.93a.51.51,0,0,1,.5-.43h.63V24a.5.5,0,0,0,1,0V21.5h3V24a.5.5,0,0,0,1,0V21.5h.63a.51.51,0,0,1,.5.43L37,31.5H27Z"
     id="path24"
     style="fill:#00ffff" />
  <g
     id="XMLID_1374_"
     transform="translate(19.998743,20.001543)"
     style="fill:#f0f8ff" />
</svg>
