<?xml version="1.0" standalone="no"?>
<svg viewBox="0 0 200 200" xmlns="http://www.w3.org/2000/svg">
  <path fill="#C91C1C" d="M35.9,-48.5C50.6,-46.5,69.2,-43.3,78.7,-32.9C88.2,-22.5,88.5,-4.9,80.4,7.5C72.3,19.9,55.9,27,45.1,38.6C34.3,50.2,29.3,66.3,19.9,70C10.6,73.7,-3,65.1,-19.1,61.9C-35.1,58.6,-53.7,60.6,-67,53.4C-80.2,46.3,-88.3,30.1,-88.9,13.9C-89.5,-2.3,-82.8,-18.5,-73.1,-30.8C-63.4,-43,-50.8,-51.2,-38.2,-54.2C-25.5,-57.2,-12.7,-54.9,-1.1,-53.2C10.6,-51.6,21.3,-50.6,35.9,-48.5Z" transform="translate(100 100)" />
</svg>
