<?xml version="1.0" encoding="UTF-8" standalone="no"?>
<!-- Generator: Adobe Illustrator 19.0.0, SVG Export Plug-In . SVG Version: 6.00 Build 0)  -->

<svg
   xmlns:dc="http://purl.org/dc/elements/1.1/"
   xmlns:cc="http://creativecommons.org/ns#"
   xmlns:rdf="http://www.w3.org/1999/02/22-rdf-syntax-ns#"
   xmlns:svg="http://www.w3.org/2000/svg"
   xmlns="http://www.w3.org/2000/svg"
   xmlns:sodipodi="http://sodipodi.sourceforge.net/DTD/sodipodi-0.dtd"
   xmlns:inkscape="http://www.inkscape.org/namespaces/inkscape"
   version="1.1"
   id="Layer_1"
   x="0px"
   y="0px"
   viewBox="0 0 490 490"
   style="enable-background:new 0 0 490 490;"
   xml:space="preserve"
   width="512"
   height="512"
   sodipodi:docname="pts-coin.svg"
   inkscape:version="0.92.3 (2405546, 2018-03-11)"><metadata
   id="metadata29"><rdf:RDF><cc:Work
       rdf:about=""><dc:format>image/svg+xml</dc:format><dc:type
         rdf:resource="http://purl.org/dc/dcmitype/StillImage" /></cc:Work></rdf:RDF></metadata><defs
   id="defs27" /><sodipodi:namedview
   pagecolor="#ffffff"
   bordercolor="#666666"
   borderopacity="1"
   objecttolerance="10"
   gridtolerance="10"
   guidetolerance="10"
   inkscape:pageopacity="0"
   inkscape:pageshadow="2"
   inkscape:window-width="1440"
   inkscape:window-height="858"
   id="namedview25"
   showgrid="false"
   inkscape:zoom="0.4609375"
   inkscape:cx="261.87382"
   inkscape:cy="358.06174"
   inkscape:window-x="-11"
   inkscape:window-y="-11"
   inkscape:window-maximized="1"
   inkscape:current-layer="Layer_1" />
<g
   id="g22"
   transform="translate(-2.0762712,-4.1525424)">
	<g
   id="g16">
		<path
   style="fill:#f0cd00"
   d="M 490,245 C 490,380.31 380.31,490 245,490 173.67,490 109.46,459.52 64.69,410.87 52.93,398.1 42.52,384.07 33.66,369.02 12.27,332.64 0,290.25 0,245 0,109.69 109.69,0 245,0 c 45.26,0 87.65,12.27 124.02,33.67 15.05,8.85 29.07,19.26 41.84,31.03 C 459.51,109.45 490,173.67 490,245 Z"
   id="path2"
   inkscape:connector-curvature="0" />
		<path
   style="fill:#ffde50"
   d="M 490,245 C 490,377.26 385.21,485.04 254.12,489.83 123.03,485.04 18.24,377.26 18.24,245 18.24,112.74 123.03,4.96 254.12,0.17 385.21,4.96 490,112.74 490,245 Z"
   id="path4"
   inkscape:connector-curvature="0" />
		<path
   style="fill:#ffea94"
   d="M 410.86,64.7 64.69,410.87 C 52.93,398.1 42.52,384.07 33.66,369.02 L 369.02,33.67 c 15.05,8.85 29.07,19.26 41.84,31.03 z"
   id="path6"
   inkscape:connector-curvature="0" />
		<path
   style="fill:#ffea94"
   d="M 473.1,155.43 155.42,473.11 C 132.93,464.27 112.06,452.2 93.39,437.47 L 437.47,93.39 c 14.73,18.67 26.8,39.54 35.63,62.04 z"
   id="path8"
   inkscape:connector-curvature="0" />
		<path
   style="fill:#faa300"
   d="m 435.38,245 c 0,105.14 -85.24,190.38 -190.38,190.38 -36.62,0 -70.82,-10.34 -99.85,-28.26 -12.65,-7.8 -24.31,-17.05 -34.77,-27.51 C 102.69,371.93 95.65,363.58 89.36,354.67 80.7,342.4 73.45,329.06 67.86,314.89 59.58,293.94 54.92,271.16 54.64,247.34 54.62,246.56 54.62,245.78 54.62,245 54.62,139.86 139.85,54.62 245,54.62 c 0.78,0 1.57,0 2.35,0.02 23.82,0.28 46.59,4.95 67.54,13.22 14.17,5.6 27.51,12.84 39.78,21.5 8.91,6.3 17.25,13.33 24.94,21.02 10.46,10.45 19.71,22.12 27.51,34.77 17.92,29.03 28.26,63.23 28.26,99.85 z"
   id="path10"
   inkscape:connector-curvature="0" />
		<path
   style="fill:#ffbd00"
   d="M 379.61,110.38 110.38,379.61 C 102.69,371.93 95.65,363.58 89.36,354.67 80.7,342.4 73.45,329.06 67.86,314.89 59.58,293.94 54.92,271.16 54.64,247.34 54.62,246.56 54.62,245.78 54.62,245 54.62,139.86 139.85,54.62 245,54.62 c 0.78,0 1.57,0 2.35,0.02 23.82,0.28 46.59,4.95 67.54,13.22 14.17,5.6 27.51,12.84 39.78,21.5 8.91,6.3 17.25,13.33 24.94,21.02 z"
   id="path12"
   inkscape:connector-curvature="0" />
		<path
   style="fill:#f68e00"
   d="m 435.375,245 c 0,105.14 -85.24,190.38 -190.38,190.38 -3.61,0 -7.19,-0.1 -10.75,-0.3 100.14,-5.57 179.62,-88.55 179.62,-190.08 0,-101.53 -79.48,-184.51 -179.62,-190.08 3.56,-0.2 7.14,-0.3 10.75,-0.3 105.14,0 190.38,85.24 190.38,190.38 z"
   id="path14"
   inkscape:connector-curvature="0" />
	</g>
	
	
</g>















<text
   xml:space="preserve"
   style="font-style:normal;font-weight:normal;font-size:38.28125px;line-height:1.25;font-family:sans-serif;letter-spacing:0px;word-spacing:0px;fill:#f68e00;fill-opacity:1;stroke:none;stroke-width:0.95703125"
   x="60.282135"
   y="304.38968"
   id="text863-6"><tspan
     sodipodi:role="line"
     id="tspan861-3"
     x="60.282135"
     y="304.38968"
     style="font-style:normal;font-variant:normal;font-weight:bold;font-stretch:normal;font-size:204.16667175px;font-family:Aharoni;-inkscape-font-specification:'Aharoni Bold';fill:#f68e00;fill-opacity:1;stroke-width:0.95703125">PTS</tspan></text>
<text
   xml:space="preserve"
   style="font-style:normal;font-weight:normal;font-size:38.28125px;line-height:1.25;font-family:sans-serif;letter-spacing:0px;word-spacing:0px;fill:#ffea94;fill-opacity:1;stroke:none;stroke-width:0.95703125"
   x="74.583557"
   y="316.50156"
   id="text863"><tspan
     sodipodi:role="line"
     id="tspan861"
     x="74.583557"
     y="316.50156"
     style="font-style:normal;font-variant:normal;font-weight:bold;font-stretch:normal;font-size:204.16667175px;font-family:Aharoni;-inkscape-font-specification:'Aharoni Bold';fill:#ffea94;fill-opacity:1;stroke-width:0.95703125">PTS</tspan></text>
<ellipse
   transform="matrix(0.97592834,0.21809142,-0.22643853,0.97402546,0,0)"
   style="fill:#f68e00;fill-opacity:1;stroke-width:2.27071595"
   id="path133-2-1-4"
   cx="365.08856"
   cy="280.63269"
   rx="24.013582"
   ry="25.738007" /><ellipse
   transform="matrix(0.97762312,0.21036406,-0.23469188,0.97206981,0,0)"
   style="fill:#f68e00;fill-opacity:1;stroke-width:1.84530175"
   id="path133-2-1-5-5"
   cx="308.17969"
   cy="328.28714"
   rx="19.849913"
   ry="20.562807" /><ellipse
   transform="matrix(0.97698218,0.21332093,-0.23147072,0.97284187,0,0)"
   style="fill:#f68e00;fill-opacity:1;stroke-width:1.08674717"
   id="path133-2-1-5-3-9"
   cx="249.2374"
   cy="325.40842"
   rx="11.613447"
   ry="12.189955" /><ellipse
   transform="matrix(0.97762312,0.21036406,-0.23469188,0.97206981,0,0)"
   style="fill:#ffea94;fill-opacity:1;stroke-width:1.84530175"
   id="path133-2-1-5"
   cx="318.43454"
   cy="333.54367"
   rx="19.849913"
   ry="20.562805" /><ellipse
   transform="matrix(0.97698218,0.21332094,-0.23147073,0.97284187,0,0)"
   style="fill:#ffea94;fill-opacity:1;stroke-width:1.08674717"
   id="path133-2-1-5-3"
   cx="257.46185"
   cy="329.70758"
   rx="11.613447"
   ry="12.189955" /><ellipse
   transform="matrix(0.97592835,0.21809141,-0.22643852,0.97402546,0,0)"
   style="fill:#ffea94;fill-opacity:1;stroke-width:2.27071595"
   id="path133-2-1"
   cx="375.54105"
   cy="285.85309"
   rx="24.013584"
   ry="25.738007" /></svg>