<?xml version="1.0" encoding="UTF-8" standalone="no"?>
<svg
   xmlns:dc="http://purl.org/dc/elements/1.1/"
   xmlns:cc="http://creativecommons.org/ns#"
   xmlns:rdf="http://www.w3.org/1999/02/22-rdf-syntax-ns#"
   xmlns:svg="http://www.w3.org/2000/svg"
   xmlns="http://www.w3.org/2000/svg"
   xmlns:sodipodi="http://sodipodi.sourceforge.net/DTD/sodipodi-0.dtd"
   xmlns:inkscape="http://www.inkscape.org/namespaces/inkscape"
   id="Layer_1"
   enable-background="new 0 0 512 512"
   height="309.00381"
   viewBox="0 0 293.83649 309.00381"
   width="293.83649"
   version="1.1"
   sodipodi:docname="online-debt-selection.svg"
   inkscape:version="0.92.3 (2405546, 2018-03-11)"
   inkscape:export-filename="C:\Users\ACESSO LIVRE\Desktop\online-debt-selection.png"
   inkscape:export-xdpi="75"
   inkscape:export-ydpi="75">
  <metadata
     id="metadata17">
    <rdf:RDF>
      <cc:Work
         rdf:about="">
        <dc:format>image/svg+xml</dc:format>
        <dc:type
           rdf:resource="http://purl.org/dc/dcmitype/StillImage" />
        <dc:title />
      </cc:Work>
    </rdf:RDF>
  </metadata>
  <defs
     id="defs15" />
  <sodipodi:namedview
     pagecolor="#ffffff"
     bordercolor="#666666"
     borderopacity="1"
     objecttolerance="10"
     gridtolerance="10"
     guidetolerance="10"
     inkscape:pageopacity="0"
     inkscape:pageshadow="2"
     inkscape:window-width="1440"
     inkscape:window-height="858"
     id="namedview13"
     showgrid="false"
     inkscape:zoom="0.79"
     inkscape:cx="-25.475963"
     inkscape:cy="158.69023"
     inkscape:window-x="-11"
     inkscape:window-y="-11"
     inkscape:window-maximized="1"
     inkscape:current-layer="Layer_1" />
  <g
     transform="matrix(6.2517016,0,0,6.5775582,2.5360438e-4,-0.07564192)"
     id="Layer_1_78_"
     style="fill:#4b0082;fill-opacity:1">
    <g
       id="g8"
       style="fill:#4b0082;fill-opacity:1">
      <path
         inkscape:connector-curvature="0"
         d="M 44.845,42.718 H 2.136 C 0.956,42.718 0,43.674 0,44.855 0,46.034 0.956,46.99 2.136,46.99 h 42.708 c 1.18,0 2.136,-0.956 2.136,-2.135 -10e-4,-1.181 -0.957,-2.137 -2.135,-2.137 z"
         id="path2"
         style="fill:#4b0082;fill-opacity:1" />
      <path
         inkscape:connector-curvature="0"
         d="m 4.805,37.165 c -1.18,0 -2.136,0.956 -2.136,2.136 0,1.18 0.956,2.137 2.136,2.137 h 37.37 c 1.18,0 2.136,-0.957 2.136,-2.137 0,-1.18 -0.956,-2.136 -2.136,-2.136 h -0.533 v -19.22 h 0.533 c 0.591,0 1.067,-0.478 1.067,-1.067 0,-0.589 -0.478,-1.067 -1.067,-1.067 H 4.805 c -0.59,0 -1.067,0.478 -1.067,1.067 0,0.589 0.478,1.067 1.067,1.067 H 5.339 V 37.164 H 4.805 Z M 37.37,17.945 V 37.164 H 30.964 V 17.945 Z m -10.678,0 V 37.164 H 20.286 V 17.945 Z m -17.083,0 h 6.406 V 37.164 H 9.609 Z"
         id="path4"
         style="fill:#4b0082;fill-opacity:1" />
      <path
         inkscape:connector-curvature="0"
         d="m 2.136,13.891 h 42.708 c 0.007,0 0.015,0 0.021,0 1.181,0 2.136,-0.956 2.136,-2.136 0,-0.938 -0.604,-1.733 -1.443,-2.021 L 24.368,0.199 c -0.557,-0.25 -1.194,-0.25 -1.752,0 L 1.26,9.808 c -0.919,0.414 -1.424,1.412 -1.212,2.396 0.211,0.984 1.081,1.687 2.088,1.687 z"
         id="path6"
         style="fill:#4b0082;fill-opacity:1" />
    </g>
  </g>
  <g
     id="g1195"
     transform="matrix(0.55182046,0,0,0.46999541,377.54939,55.626358)"
     style="fill:#00ffff">
    <g
       id="g1057"
       style="fill:#00ffff">
      <g
         id="g1055"
         style="fill:#00ffff" />
    </g>
    <g
       id="g1063"
       style="fill:#00ffff">
      <g
         id="g1061"
         style="fill:#00ffff">
        <path
           id="path1059"
           d="m -369.46829,-20.25201 c -9.925,0 -17.999,-6.914 -17.999,-15.411 0,-8.498 8.075,-15.412 17.999,-15.412 9.925,0 17.999,6.914 17.999,15.412 0,5.523 4.477,10 10,10 5.523,0 10,-4.477 10,-10 0,-16.301 -11.884,-30.055 -27.999,-34.157 v -6.774 c 0,-5.523 -4.477,-10 -10,-10 -5.523,0 -10,4.477 -10,10 v 6.774 c -16.116,4.102 -27.999,17.857 -27.999,34.157 0,19.525 17.047,35.41000035 37.999,35.41000035 9.925,0 17.999,6.91400015 17.999,15.41199965 0,8.498 -8.074,15.411 -17.999,15.411 -9.925,0 -17.999,-6.914 -17.999,-15.411 0,-5.5229995 -4.477,-9.9999995 -10,-9.9999995 -5.523,0 -10,4.477 -10,9.9999995 0,16.301 11.884,30.055 27.999,34.157 v 8.16 c 0,5.523 4.477,10 10,10 5.523,0 10,-4.477 10,-10 v -8.16 c 16.116,-4.102 27.999,-17.856 27.999,-34.157 0,-19.5249996 -17.047,-35.411 -37.999,-35.411 z"
           inkscape:connector-curvature="0"
           style="fill:#00ffff" />
      </g>
    </g>
    <g
       id="g1069"
       style="fill:#00ffff">
      <g
         id="g1067"
         style="fill:#00ffff" />
    </g>
    <g
       id="g1075"
       style="fill:#00ffff">
      <g
         id="g1073"
         style="fill:#00ffff" />
    </g>
    <g
       id="g1081"
       style="fill:#00ffff">
      <g
         id="g1079"
         style="fill:#00ffff" />
    </g>
    <g
       id="g1087"
       style="fill:#00ffff">
      <g
         id="g1085"
         style="fill:#00ffff" />
    </g>
    <g
       id="g1093"
       style="fill:#00ffff">
      <g
         id="g1091"
         style="fill:#00ffff" />
    </g>
    <g
       id="g1099"
       style="fill:#00ffff">
      <g
         id="g1097"
         style="fill:#00ffff" />
    </g>
    <g
       id="g1105"
       style="fill:#00ffff">
      <g
         id="g1103"
         style="fill:#00ffff" />
    </g>
    <g
       id="g1111"
       style="fill:#00ffff">
      <g
         id="g1109"
         style="fill:#00ffff" />
    </g>
    <g
       id="g1113"
       style="fill:#00ffff" />
    <g
       id="g1115"
       style="fill:#00ffff" />
    <g
       id="g1117"
       style="fill:#00ffff" />
    <g
       id="g1119"
       style="fill:#00ffff" />
    <g
       id="g1121"
       style="fill:#00ffff" />
    <g
       id="g1123"
       style="fill:#00ffff" />
    <g
       id="g1125"
       style="fill:#00ffff" />
    <g
       id="g1127"
       style="fill:#00ffff" />
    <g
       id="g1129"
       style="fill:#00ffff" />
    <g
       id="g1131"
       style="fill:#00ffff" />
    <g
       id="g1133"
       style="fill:#00ffff" />
    <g
       id="g1135"
       style="fill:#00ffff" />
    <g
       id="g1137"
       style="fill:#00ffff" />
    <g
       id="g1139"
       style="fill:#00ffff" />
    <g
       id="g1141"
       style="fill:#00ffff" />
  </g>
  <text
     xml:space="preserve"
     style="font-style:normal;font-weight:normal;font-size:81.82998657px;line-height:1.25;font-family:sans-serif;letter-spacing:0px;word-spacing:0px;fill:#00ffff;fill-opacity:1;stroke:none;stroke-width:2.04574966"
     x="112.6282"
     y="74.024483"
     id="text1201"
     transform="scale(0.93541414,1.0690452)"><tspan
       sodipodi:role="line"
       id="tspan1199"
       x="112.6282"
       y="74.024483"
       style="font-style:normal;font-variant:normal;font-weight:normal;font-stretch:normal;font-family:Aharoni;-inkscape-font-specification:Aharoni;fill:#00ffff;stroke-width:2.04574966">R</tspan></text>
  <path
     style="opacity:1;fill:#ffffff;fill-opacity:1;fill-rule:nonzero;stroke:#47ffff;stroke-width:0.1;stroke-miterlimit:4;stroke-dasharray:none;stroke-opacity:1"
     id="path886"
     sodipodi:type="arc"
     sodipodi:cx="328.36127"
     sodipodi:cy="225.38799"
     sodipodi:rx="122.78481"
     sodipodi:ry="94.303795"
     sodipodi:start="0"
     sodipodi:end="0.024561351"
     sodipodi:open="true"
     d="m 451.14608,225.38799 a 122.78481,94.303795 0 0 1 -0.037,2.31599" />
  <path
     style="opacity:1;fill:#ffffff;fill-opacity:1;fill-rule:nonzero;stroke:#47ffff;stroke-width:0.1;stroke-miterlimit:4;stroke-dasharray:none;stroke-opacity:1"
     id="path888"
     sodipodi:type="arc"
     sodipodi:cx="273.93088"
     sodipodi:cy="211.46393"
     sodipodi:rx="103.79747"
     sodipodi:ry="109.49367"
     sodipodi:start="0"
     sodipodi:end="0.02456132"
     sodipodi:open="true"
     d="m 377.72835,211.46393 a 103.79747,109.49367 0 0 1 -0.0313,2.68904" />
  <path
     style="opacity:1;fill:#ffffff;fill-opacity:1;fill-rule:nonzero;stroke:#47ffff;stroke-width:0.1;stroke-miterlimit:4;stroke-dasharray:none;stroke-opacity:1"
     id="path890"
     sodipodi:type="arc"
     sodipodi:cx="278.99417"
     sodipodi:cy="219.69179"
     sodipodi:rx="103.79747"
     sodipodi:ry="117.72152"
     sodipodi:start="0"
     sodipodi:end="0.02456132"
     sodipodi:open="true"
     d="m 382.79164,219.69179 a 103.79747,117.72152 0 0 1 -0.0313,2.8911" />
  <path
     style="opacity:1;fill:#deb887;fill-opacity:1;fill-rule:nonzero;stroke:#47ffff;stroke-width:0.1;stroke-miterlimit:4;stroke-dasharray:none;stroke-opacity:1"
     id="path892"
     sodipodi:type="arc"
     sodipodi:cx="383.42456"
     sodipodi:cy="131.7171"
     sodipodi:rx="91.772148"
     sodipodi:ry="85.443039"
     sodipodi:start="0"
     sodipodi:end="0.02456132"
     sodipodi:open="true"
     d="m 475.19671,131.7171 a 91.772148,85.443039 0 0 1 -0.0277,2.09838" />
  <path
     style="opacity:1;fill:#deb887;fill-opacity:1;fill-rule:nonzero;stroke:#47ffff;stroke-width:0.1;stroke-miterlimit:4;stroke-dasharray:none;stroke-opacity:1"
     id="path894"
     sodipodi:type="arc"
     sodipodi:cx="139.75366"
     sodipodi:cy="91.843681"
     sodipodi:rx="220.25316"
     sodipodi:ry="146.83545"
     sodipodi:start="0"
     sodipodi:end="0.02456132"
     sodipodi:open="true"
     d="m 360.00682,91.843681 a 220.25316,146.83545 0 0 1 -0.0664,3.60611" />
  <path
     style="opacity:1;fill:#deb887;fill-opacity:1;fill-rule:nonzero;stroke:#47ffff;stroke-width:0.1;stroke-miterlimit:4;stroke-dasharray:none;stroke-opacity:1"
     id="path896"
     sodipodi:type="arc"
     sodipodi:cx="65.070145"
     sodipodi:cy="444.37534"
     sodipodi:rx="82.278481"
     sodipodi:ry="68.987343"
     sodipodi:start="0"
     sodipodi:end="0.02456132"
     sodipodi:open="true"
     d="m 147.34863,444.37534 a 82.278481,68.987343 0 0 1 -0.0248,1.69425" />
  <path
     style="opacity:1;fill:#deb887;fill-opacity:1;fill-rule:nonzero;stroke:#47ffff;stroke-width:0.1;stroke-miterlimit:4;stroke-dasharray:none;stroke-opacity:1"
     id="path900"
     sodipodi:type="arc"
     sodipodi:cx="269.50049"
     sodipodi:cy="377.91962"
     sodipodi:rx="33.544304"
     sodipodi:ry="50.632912"
     sodipodi:start="0"
     sodipodi:end="0.02456132"
     sodipodi:open="true"
     d="m 303.04479,377.91962 a 33.544304,50.632912 0 0 1 -0.0101,1.24348" />
  <path
     style="opacity:0.994;fill:#deb887;fill-opacity:1;fill-rule:nonzero;stroke:#47ffff;stroke-width:0.1;stroke-miterlimit:4;stroke-dasharray:none;stroke-opacity:1"
     id="path902"
     sodipodi:type="arc"
     sodipodi:cx="-29.233662"
     sodipodi:cy="456.40063"
     sodipodi:rx="85.443039"
     sodipodi:ry="49.367088"
     sodipodi:start="0"
     sodipodi:end="0.02456132"
     sodipodi:open="true"
     d="m 56.209377,456.40063 a 85.443039,49.367088 0 0 1 -0.02577,1.2124" />
  <path
     style="opacity:0.994;fill:#deb887;fill-opacity:1;fill-rule:nonzero;stroke:#47ffff;stroke-width:0.1;stroke-miterlimit:4;stroke-dasharray:none;stroke-opacity:1"
     id="path908"
     sodipodi:type="arc"
     sodipodi:cx="-227.33493"
     sodipodi:cy="343.1095"
     sodipodi:rx="55.696201"
     sodipodi:ry="75.316452"
     sodipodi:start="0"
     sodipodi:end="0.02456132"
     sodipodi:open="true"
     d="m -171.63873,343.1095 a 55.696201,75.316452 0 0 1 -0.0168,1.84968" />
  <path
     style="opacity:0.994;fill:#deb887;fill-opacity:1;fill-rule:nonzero;stroke:#47ffff;stroke-width:0.1;stroke-miterlimit:4;stroke-dasharray:none;stroke-opacity:1"
     id="path910"
     sodipodi:type="arc"
     sodipodi:cx="-133.03113"
     sodipodi:cy="386.7804"
     sodipodi:rx="74.050636"
     sodipodi:ry="39.240505"
     sodipodi:start="0"
     sodipodi:end="0.02456132"
     sodipodi:open="true"
     d="m -58.980492,386.7804 a 74.050636,39.240505 0 0 1 -0.02233,0.9637" />
  <path
     style="opacity:0.994;fill:#ffffff;fill-opacity:1;fill-rule:nonzero;stroke:#47ffff;stroke-width:0.1;stroke-miterlimit:4;stroke-dasharray:none;stroke-opacity:1"
     id="path912"
     sodipodi:type="arc"
     sodipodi:cx="-231.7653"
     sodipodi:cy="177.91963"
     sodipodi:rx="50"
     sodipodi:ry="79.746834"
     sodipodi:start="0"
     sodipodi:end="0.02456132"
     sodipodi:open="true"
     d="m -181.7653,177.91963 a 50,79.746834 0 0 1 -0.0151,1.95849" />
</svg>
