<?xml version="1.0" encoding="UTF-8" standalone="no"?>
<svg
   xmlns:dc="http://purl.org/dc/elements/1.1/"
   xmlns:cc="http://creativecommons.org/ns#"
   xmlns:rdf="http://www.w3.org/1999/02/22-rdf-syntax-ns#"
   xmlns:svg="http://www.w3.org/2000/svg"
   xmlns="http://www.w3.org/2000/svg"
   xmlns:sodipodi="http://sodipodi.sourceforge.net/DTD/sodipodi-0.dtd"
   xmlns:inkscape="http://www.inkscape.org/namespaces/inkscape"
   viewBox="0 0 128 128"
   version="1.1"
   id="svg51"
   sodipodi:docname="confetti.svg"
   inkscape:version="0.92.3 (2405546, 2018-03-11)">
  <metadata
     id="metadata57">
    <rdf:RDF>
      <cc:Work
         rdf:about="">
        <dc:format>image/svg+xml</dc:format>
        <dc:type
           rdf:resource="http://purl.org/dc/dcmitype/StillImage" />
      </cc:Work>
    </rdf:RDF>
  </metadata>
  <defs
     id="defs55" />
  <sodipodi:namedview
     pagecolor="#ffffff"
     bordercolor="#666666"
     borderopacity="1"
     objecttolerance="10"
     gridtolerance="10"
     guidetolerance="10"
     inkscape:pageopacity="0"
     inkscape:pageshadow="2"
     inkscape:window-width="1440"
     inkscape:window-height="858"
     id="namedview53"
     showgrid="false"
     inkscape:zoom="1.84375"
     inkscape:cx="-41.491525"
     inkscape:cy="64"
     inkscape:window-x="-11"
     inkscape:window-y="-11"
     inkscape:window-maximized="1"
     inkscape:current-layer="svg51" />
  <title
     id="title2" />
  <g
     data-name="Confetti"
     id="f3d8523b-b79d-41af-bbaa-11221b3a2a9b"
     transform="matrix(-1,0,0,1,123.15239,0)">
    <path
       d="m 82.13,85.05 c -0.8,0.8 -2.95,0.11 -5.94,-1.7 C 71.85,80.72 65.75,75.73 59.5,69.49 53.25,63.25 48.28,57.15 45.65,52.81 c -1.8,-3 -2.5,-5.14 -1.7,-5.94 2,-2 12.08,5 22.63,15.56 10.55,10.56 17.51,20.67 15.55,22.62 z"
       id="path4"
       inkscape:connector-curvature="0"
       style="fill:#fe852b" />
    <path
       d="M 76.19,83.35 C 71.85,80.72 65.75,75.73 59.5,69.49 53.25,63.25 48.28,57.15 45.65,52.81 50,55.44 56.09,60.42 62.33,66.67 68.57,72.92 73.56,79 76.19,83.35 Z"
       id="path6"
       inkscape:connector-curvature="0"
       style="fill:#d46f24" />
    <path
       d="m 81.6,85.33 -8.73,4.54 -7.3,3.8 -4.82,2.51 -7.11,3.7 -4.82,2.52 -6.91,3.6 -4.79,2.49 -6.8,3.51 -4.75,2.47 -6.67,3.53 -0.69,0.36 A 6.13,6.13 0 0 1 14.47,118.98 6.09,6.09 0 0 1 10,110 l 0.38,-0.72 3.62,-6.6 2.51,-4.68 3.64,-6.77 2.55,-4.74 3.71,-6.92 2.59,-4.79 3.8,-7.07 2.51,-4.71 3.9,-7.25 4.47,-8.33 c -0.73,2.81 6,12.28 15.83,22.12 9.83,9.84 19.25,16.46 22.09,15.79 z"
       id="path8"
       inkscape:connector-curvature="0"
       style="fill:#fe9f59" />
    <path
       d="m 60.76,96.18 -7.11,3.7 a 93.63,93.63 0 0 1 -17,-15.12 94,94 0 0 1 -7.69,-10 l 3.8,-7.07 a 87,87 0 0 0 28,28.47 z"
       id="path10"
       inkscape:connector-curvature="0"
       style="fill:#a54fe7" />
    <path
       d="M 48.84,102.4 41.91,106 A 93.74,93.74 0 0 1 30.64,96 92.9,92.9 0 0 1 22.7,86.5 l 3.71,-6.92 a 87.25,87.25 0 0 0 7.73,9.89 86.74,86.74 0 0 0 14.7,12.93 z"
       id="path12"
       inkscape:connector-curvature="0"
       style="fill:#a54fe7" />
    <path
       d="M 37.11,108.49 30.32,112 q -2.91,-2.4 -5.61,-5 a 93.65,93.65 0 0 1 -8.19,-9 l 3.64,-6.77 a 87.89,87.89 0 0 0 17,17.3 z"
       id="path14"
       inkscape:connector-curvature="0"
       style="fill:#a54fe7" />
    <path
       d="M 25.57,114.51 18.9,118 18.84,117.94 a 89.58,89.58 0 0 1 -8.43,-8.6 L 14,102.68 a 84.72,84.72 0 0 0 8.27,8.88 c 1.07,1.02 2.16,2 3.3,2.95 z"
       id="path16"
       inkscape:connector-curvature="0"
       style="fill:#a54fe7" />
    <path
       d="m 72.88,89.87 -7.3,3.8 A 94,94 0 0 1 42.73,73.45 94.36,94.36 0 0 1 35.31,63 l 3.9,-7.25 a 87.37,87.37 0 0 0 7.13,11 87.13,87.13 0 0 0 26.54,23.12 z"
       id="path18"
       inkscape:connector-curvature="0"
       style="fill:#a54fe7" />
    <path
       d="m 22.26,111.56 c 1.07,1 2.17,2 3.3,2.95 l -6.66,3.49 -0.06,-0.06 0.06,-0.11 z"
       id="path20"
       inkscape:connector-curvature="0"
       style="fill:#9831e7" />
    <path
       d="m 28.17,100.56 a 85,85 0 0 0 8.94,7.93 L 30.32,112 q -2.91,-2.4 -5.61,-5 l 0.3,-0.55 z"
       id="path22"
       inkscape:connector-curvature="0"
       style="fill:#9831e7" />
    <path
       d="M 48.84,102.4 41.91,106 A 93.74,93.74 0 0 1 30.64,96 l 0.54,-1 2.95,-5.51 a 86.74,86.74 0 0 0 14.71,12.91 z"
       id="path24"
       inkscape:connector-curvature="0"
       style="fill:#9831e7" />
    <path
       d="m 60.76,96.18 -7.11,3.7 a 93.63,93.63 0 0 1 -17,-15.12 l 0.8,-1.49 2.76,-5.12 a 86.72,86.72 0 0 0 20.55,18.03 z"
       id="path26"
       inkscape:connector-curvature="0"
       style="fill:#9831e7" />
    <path
       d="m 72.88,89.87 -7.3,3.8 A 94,94 0 0 1 42.73,73.45 l 1.07,-2 2.55,-4.74 a 87.13,87.13 0 0 0 26.53,23.16 z"
       id="path28"
       inkscape:connector-curvature="0"
       style="fill:#9831e7" />
    <path
       d="m 76.5,64.5 c 0,0 13.45,-25.56 28,-18 13.86,7.2 5.32,18.7 5.32,18.7"
       id="path30"
       style="fill:none;stroke:#55ffe7;stroke-width:3;stroke-linecap:round;stroke-linejoin:round;stroke-opacity:1"
       inkscape:connector-curvature="0" />
    <path
       d="m 67.5,51.5 c 0,0 22.43,-10.67 14.87,-25.23 C 75.17,12.41 63.68,21 63.68,21"
       id="path32"
       style="fill:none;stroke:#98ece7;stroke-width:3;stroke-linecap:round;stroke-linejoin:round;stroke-opacity:1"
       inkscape:connector-curvature="0" />
    <path
       d="M 64.16294,65.837704 93.39735,39.056138 a 10.483212,9.3405297 0 0 0 0,-13.207347 v 0"
       id="path34"
       style="fill:none;stroke:#98e5e7;stroke-width:2.33198524;stroke-linecap:round;stroke-linejoin:round;stroke-opacity:1"
       inkscape:connector-curvature="0" />
    <polygon
       points="50.58,29.79 53,30.14 51.25,31.85 51.66,34.26 49.5,33.12 47.34,34.26 47.75,31.85 46,30.14 48.42,29.79 49.5,27.6 "
       id="polygon36"
       style="fill:#e0ffff" />
    <polygon
       points="92.05,9.66 93.78,11.38 91.36,11.71 90.26,13.89 89.19,11.69 86.78,11.32 88.55,9.63 88.16,7.21 90.31,8.37 92.48,7.25 "
       id="polygon38"
       style="fill:#f5fffa" />
    <polygon
       points="100.05,60.66 101.78,62.38 99.36,62.71 98.26,64.89 97.19,62.69 94.78,62.32 96.55,60.63 96.16,58.21 98.31,59.37 100.48,58.26 "
       id="polygon40"
       style="fill:#e0ffff" />
    <path
       d="m 81,72 c 0,0 17.5,-3.5 18.5,8.5 C 100.5,92.5 89,91 89,91"
       id="path42"
       style="fill:none;stroke:#98cfe7;stroke-width:3;stroke-linecap:round;stroke-linejoin:round;stroke-opacity:1"
       inkscape:connector-curvature="0" />
    <circle
       cx="72.5"
       cy="30.5"
       r="2"
       id="circle44"
       style="fill:#e0ffff" />
    <circle
       cx="108"
       cy="41"
       r="2"
       id="circle46"
       style="fill:#f5fffa" />
    <circle
       cx="111"
       cy="12"
       r="2"
       id="circle48"
       style="fill:#f5fffa" />
  </g>
</svg>
