<?xml version="1.0" standalone="no"?>
<svg viewBox="0 0 200 200" xmlns="http://www.w3.org/2000/svg">
  <path fill="#F2F4F8" d="M23.2,-40.5C32.5,-30.1,44.3,-27.8,54.8,-20.4C65.4,-13,74.8,-0.5,73.2,10.5C71.6,21.5,59,30.8,47.9,39C36.9,47.1,27.4,54,16.2,59C5,64,-7.8,67.2,-17.3,62.7C-26.8,58.2,-33,46,-37.4,35.4C-41.8,24.9,-44.4,15.8,-49.9,4.6C-55.5,-6.5,-63.9,-19.8,-60.1,-27.2C-56.3,-34.6,-40.2,-36.1,-28.2,-45.3C-16.1,-54.4,-8.1,-71.3,-0.6,-70.4C6.9,-69.5,13.8,-50.9,23.2,-40.5Z" transform="translate(100 100)" />
</svg>
