<?xml version="1.0" encoding="UTF-8" standalone="no"?>
<svg
   xmlns:dc="http://purl.org/dc/elements/1.1/"
   xmlns:cc="http://creativecommons.org/ns#"
   xmlns:rdf="http://www.w3.org/1999/02/22-rdf-syntax-ns#"
   xmlns:svg="http://www.w3.org/2000/svg"
   xmlns="http://www.w3.org/2000/svg"
   xmlns:sodipodi="http://sodipodi.sourceforge.net/DTD/sodipodi-0.dtd"
   xmlns:inkscape="http://www.inkscape.org/namespaces/inkscape"
   height="100%"
   style="fill-rule:evenodd;clip-rule:evenodd;stroke-linejoin:round;stroke-miterlimit:2;"
   version="1.1"
   viewBox="0 0 512 512"
   width="100%"
   xml:space="preserve"
   id="svg4"
   sodipodi:docname="linkedin.svg"
   inkscape:version="0.92.3 (2405546, 2018-03-11)"><metadata
     id="metadata10"><rdf:RDF><cc:Work
         rdf:about=""><dc:format>image/svg+xml</dc:format><dc:type
           rdf:resource="http://purl.org/dc/dcmitype/StillImage" /></cc:Work></rdf:RDF></metadata><defs
     id="defs8" /><sodipodi:namedview
     pagecolor="#ffffff"
     bordercolor="#666666"
     borderopacity="1"
     objecttolerance="10"
     gridtolerance="10"
     guidetolerance="10"
     inkscape:pageopacity="0"
     inkscape:pageshadow="2"
     inkscape:window-width="1440"
     inkscape:window-height="858"
     id="namedview6"
     showgrid="false"
     inkscape:zoom="0.4609375"
     inkscape:cx="256"
     inkscape:cy="256"
     inkscape:window-x="-11"
     inkscape:window-y="-11"
     inkscape:window-maximized="1"
     inkscape:current-layer="svg4" /><rect
     style="opacity:1;fill:#00ffff;fill-opacity:1;fill-rule:nonzero;stroke:#47ffff;stroke-width:0.1;stroke-miterlimit:4;stroke-dasharray:none;stroke-opacity:1"
     id="rect817"
     width="451.25424"
     height="431.72882"
     x="19.525423"
     y="36.881355" /><path
     d="M473.305,-1.353c20.88,0 37.885,16.533 37.885,36.926l0,438.251c0,20.393 -17.005,36.954 -37.885,36.954l-436.459,0c-20.839,0 -37.773,-16.561 -37.773,-36.954l0,-438.251c0,-20.393 16.934,-36.926 37.773,-36.926l436.459,0Zm-37.829,436.389l0,-134.034c0,-65.822 -14.212,-116.427 -91.12,-116.427c-36.955,0 -61.739,20.263 -71.867,39.476l-1.04,0l0,-33.411l-72.811,0l0,244.396l75.866,0l0,-120.878c0,-31.883 6.031,-62.773 45.554,-62.773c38.981,0 39.468,36.461 39.468,64.802l0,118.849l75.95,0Zm-284.489,-244.396l-76.034,0l0,244.396l76.034,0l0,-244.396Zm-37.997,-121.489c-24.395,0 -44.066,19.735 -44.066,44.047c0,24.318 19.671,44.052 44.066,44.052c24.299,0 44.026,-19.734 44.026,-44.052c0,-24.312 -19.727,-44.047 -44.026,-44.047Z"
     style="fill-rule:nonzero;fill:#9400d3"
     id="path2" /></svg>