<?xml version="1.0" encoding="UTF-8" standalone="no"?>
<!-- Generator: Adobe Illustrator 19.0.0, SVG Export Plug-In . SVG Version: 6.00 Build 0)  -->

<svg
   xmlns:dc="http://purl.org/dc/elements/1.1/"
   xmlns:cc="http://creativecommons.org/ns#"
   xmlns:rdf="http://www.w3.org/1999/02/22-rdf-syntax-ns#"
   xmlns:svg="http://www.w3.org/2000/svg"
   xmlns="http://www.w3.org/2000/svg"
   xmlns:sodipodi="http://sodipodi.sourceforge.net/DTD/sodipodi-0.dtd"
   xmlns:inkscape="http://www.inkscape.org/namespaces/inkscape"
   version="1.1"
   id="Capa_1"
   x="0px"
   y="0px"
   viewBox="0 0 512.016 433.344"
   xml:space="preserve"
   sodipodi:docname="approved-transaction.svg"
   inkscape:version="0.92.3 (2405546, 2018-03-11)"
   width="512.01599"
   height="433.34399"><metadata
   id="metadata83"><rdf:RDF><cc:Work
       rdf:about=""><dc:format>image/svg+xml</dc:format><dc:type
         rdf:resource="http://purl.org/dc/dcmitype/StillImage" /><dc:title /></cc:Work></rdf:RDF></metadata><defs
   id="defs81" /><sodipodi:namedview
   pagecolor="#ffffff"
   bordercolor="#666666"
   borderopacity="1"
   objecttolerance="10"
   gridtolerance="10"
   guidetolerance="10"
   inkscape:pageopacity="0"
   inkscape:pageshadow="2"
   inkscape:window-width="1440"
   inkscape:window-height="858"
   id="namedview79"
   showgrid="false"
   inkscape:zoom="0.79"
   inkscape:cx="9.4750204"
   inkscape:cy="216.672"
   inkscape:window-x="-11"
   inkscape:window-y="-11"
   inkscape:window-maximized="1"
   inkscape:current-layer="Capa_1" />





<path
   style="fill:#4b0082"
   d="M 420.608,433.344 H 32 c -17.68,0 -32,-14.32 -32,-32 V 157.456 c 0,-17.664 14.32,-32 32,-32 h 388.608 c 17.68,0 32,14.336 32,32 v 243.872 c 0,17.68 -14.32,32.016 -32,32.016 z"
   id="path22"
   inkscape:connector-curvature="0" />
<g
   id="g28"
   transform="translate(0,-39.336)">
	<path
   style="fill:#4b0082"
   d="m 206.72,164.792 c -99.84,75.68 -170.08,172.64 -206.4,279.04 -0.16,-1.28 -0.32,-2.56 -0.32,-4 v -243.84 c 0,-15.2 10.56,-28 24.8,-31.2 z"
   id="path24"
   inkscape:connector-curvature="0" />
	<path
   style="fill:#4b0082"
   d="m 245.904,472.68 c 99.84,-75.68 170.08,-172.64 206.4,-279.04 0.16,1.28 0.32,2.56 0.32,4 v 243.84 c 0,15.2 -10.56,28 -24.8,31.2 z"
   id="path26"
   inkscape:connector-curvature="0" />
</g>


<g
   id="g38"
   transform="translate(0,-39.336)">
	<path
   style="fill:#8bd5ec;fill-opacity:1"
   d="M 133.92,349.88 H 58.224 c -8.832,0 -16,-7.152 -16,-16 0,-8.848 7.168,-16 16,-16 h 75.696 c 8.832,0 16,7.152 16,16 0,8.832 -7.168,16 -16,16 z"
   id="path34"
   inkscape:connector-curvature="0" />
	<path
   style="fill:#00ffff"
   d="M 201.536,267.768 H 58.224 c -8.832,0 -16,-7.152 -16,-16 0,-8.848 7.168,-16 16,-16 h 143.312 c 8.832,0 16,7.152 16,16 0,8.848 -7.168,16 -16,16 z"
   id="path36"
   inkscape:connector-curvature="0" />
</g>
<path
   style="fill:#8bd5ec"
   d="m 105.088,392.656 h -46.88 c -8.832,0 -16,-7.152 -16,-16 0,-8.848 7.168,-16 16,-16 h 46.88 c 8.832,0 16,7.152 16,16 0,8.832 -7.152,16 -16,16 z"
   id="path40"
   inkscape:connector-curvature="0" />
<path
   style="fill:#00ffff"
   d="m 201.536,392.656 h -46.88 c -8.832,0 -16,-7.152 -16,-16 0,-8.848 7.168,-16 16,-16 h 46.88 c 8.832,0 16,7.152 16,16 0,8.832 -7.168,16 -16,16 z"
   id="path42"
   inkscape:connector-curvature="0" />
<path
   style="fill:#8bd5ec"
   d="m 297.968,392.656 h -46.88 c -8.832,0 -16,-7.152 -16,-16 0,-8.848 7.168,-16 16,-16 h 46.88 c 8.832,0 16,7.152 16,16 0,8.832 -7.168,16 -16,16 z"
   id="path44"
   inkscape:connector-curvature="0" />
<path
   style="fill:#00ffff"
   d="m 394.4,392.656 h -46.88 c -8.832,0 -16,-7.152 -16,-16 0,-8.848 7.168,-16 16,-16 h 46.88 c 8.832,0 16,7.152 16,16 0,8.832 -7.168,16 -16,16 z"
   id="path46"
   inkscape:connector-curvature="0" />
<g
   id="g48"
   transform="translate(0,-39.336)">
</g>
<g
   id="g50"
   transform="translate(0,-39.336)">
</g>
<g
   id="g52"
   transform="translate(0,-39.336)">
</g>
<g
   id="g54"
   transform="translate(0,-39.336)">
</g>
<g
   id="g56"
   transform="translate(0,-39.336)">
</g>
<g
   id="g58"
   transform="translate(0,-39.336)">
</g>
<g
   id="g60"
   transform="translate(0,-39.336)">
</g>
<g
   id="g62"
   transform="translate(0,-39.336)">
</g>
<g
   id="g64"
   transform="translate(0,-39.336)">
</g>
<g
   id="g66"
   transform="translate(0,-39.336)">
</g>
<g
   id="g68"
   transform="translate(0,-39.336)">
</g>
<g
   id="g70"
   transform="translate(0,-39.336)">
</g>
<g
   id="g72"
   transform="translate(0,-39.336)">
</g>
<g
   id="g74"
   transform="translate(0,-39.336)">
</g>
<g
   id="g76"
   transform="translate(0,-39.336)">
</g>
<g
   id="g1048"
   transform="matrix(5.1562438,0,0,5.1324939,300.53196,151.82262)"><g
     id="XMLID_7_">
	
	
	
	
	
	<path
   d="M 19.745,26 H 6.255 C 5.563,26 5,25.438 5,24.745 v -9.49 C 5,14.562 5.563,14 6.255,14 h 13.49 C 20.438,14 21,14.562 21,15.255 v 9.49 C 21,25.438 20.438,26 19.745,26"
   style="fill:#f0c41b"
   id="XMLID_125_"
   inkscape:connector-curvature="0" />
	<path
   d="M 19.745,27 H 6.255 C 5.012,27 4,25.988 4,24.745 v -9.49 C 4,14.012 5.012,13 6.255,13 h 13.49 C 20.988,13 22,14.012 22,15.255 v 9.49 C 22,25.988 20.988,27 19.745,27 M 6.255,15 C 6.113,15 6,15.114 6,15.255 v 9.49 C 6,24.886 6.113,25 6.255,25 h 13.49 C 19.886,25 20,24.886 20,24.745 v -9.49 C 20,15.114 19.886,15 19.745,15 Z"
   style="fill:#f3d55c"
   id="XMLID_122_"
   inkscape:connector-curvature="0" />
	<path
   d="M 21,15.255 C 21,14.561 20.438,14 19.745,14 H 15 12.255 C 11.561,14 11,14.561 11,15.255 V 18 24.745 C 11,25.438 11.561,26 12.255,26 h 1.49 C 14.438,26 15,25.438 15,24.745 v -5.49 C 15,18.562 15.561,18 16.255,18 h 3.49 C 20.438,18 21,17.438 21,16.745 Z"
   style="fill:#f0c41b"
   id="XMLID_121_"
   inkscape:connector-curvature="0" />
	<path
   d="m 13.745,27 h -1.49 C 11.012,27 10,25.988 10,24.745 v -9.49 C 10,14.012 11.012,13 12.255,13 h 7.49 C 20.988,13 22,14.012 22,15.255 v 1.49 C 22,17.988 20.988,19 19.745,19 h -3.49 C 16.113,19 16,19.114 16,19.255 v 5.49 C 16,25.988 14.988,27 13.745,27 M 12.255,15 C 12.113,15 12,15.114 12,15.255 v 9.49 C 12,24.886 12.113,25 12.255,25 h 1.49 C 13.886,25 14,24.886 14,24.745 v -5.49 C 14,18.012 15.012,17 16.255,17 h 3.49 C 19.886,17 20,16.886 20,16.745 v -1.49 C 20,15.114 19.886,15 19.745,15 Z"
   style="fill:#f3d55c"
   id="XMLID_118_"
   inkscape:connector-curvature="0" />
	<line
   y2="22"
   x2="21"
   y1="22"
   x1="15"
   style="fill:#f0c41b"
   id="XMLID_117_" />
	<path
   d="m 21,23 h -6 c -0.553,0 -1,-0.448 -1,-1 0,-0.552 0.447,-1 1,-1 h 6 c 0.553,0 1,0.448 1,1 0,0.552 -0.447,1 -1,1"
   style="fill:#f3d55c"
   id="XMLID_116_"
   inkscape:connector-curvature="0" />
	<line
   y2="18"
   x2="5"
   y1="18"
   x1="11"
   style="fill:#f0c41b"
   id="XMLID_115_" />
	<path
   d="M 11,19 H 5 C 4.447,19 4,18.552 4,18 4,17.448 4.447,17 5,17 h 6 c 0.553,0 1,0.448 1,1 0,0.552 -0.447,1 -1,1"
   style="fill:#f3d55c"
   id="XMLID_114_"
   inkscape:connector-curvature="0" />
	<line
   y2="22"
   x2="5"
   y1="22"
   x1="11"
   style="fill:#f0c41b"
   id="XMLID_113_" />
	<path
   d="M 11,23 H 5 C 4.447,23 4,22.552 4,22 4,21.448 4.447,21 5,21 h 6 c 0.553,0 1,0.448 1,1 0,0.552 -0.447,1 -1,1"
   style="fill:#f3d55c"
   id="XMLID_112_"
   inkscape:connector-curvature="0" />
	
	
	
	
	
	
	
</g><g
     id="g973">
</g><g
     id="g975">
</g><g
     id="g977">
</g><g
     id="g979">
</g><g
     id="g981">
</g><g
     id="g983">
</g><g
     id="g985">
</g><g
     id="g987">
</g><g
     id="g989">
</g><g
     id="g991">
</g><g
     id="g993">
</g><g
     id="g995">
</g><g
     id="g997">
</g><g
     id="g999">
</g><g
     id="g1001">
</g></g><path
   inkscape:connector-curvature="0"
   style="fill:#b0c4de;stroke-width:0.48985714"
   d="m 515.01902,105.50173 c 0,59.32293 -49.73824,107.41309 -111.09421,107.41309 -61.35597,0 -111.09422,-48.09016 -111.09422,-107.41309 0,-59.322922 49.73825,-107.4130825 111.09422,-107.4130825 61.35597,0 111.09421,48.0901605 111.09421,107.4130825 z m 0,0"
   id="path2" /><path
   inkscape:connector-curvature="0"
   style="fill:#708090;stroke-width:0.48985714"
   d="m 505.05544,105.50173 c 0,54.00195 -45.278,97.77962 -101.13063,97.77962 -55.85264,0 -101.13061,-43.77767 -101.13061,-97.77962 0,-54.001942 45.27797,-97.7796225 101.13061,-97.7796225 55.85263,0 101.13063,43.7776805 101.13063,97.7796225 z m 0,0"
   id="path4" /><path
   inkscape:connector-curvature="0"
   style="fill:#e9e9ea;stroke-width:0.48985714"
   d="m 473.26788,115.42578 c 0,37.9882 -31.85046,68.78329 -71.14054,68.78329 -39.29008,0 -71.14055,-30.79509 -71.14055,-68.78329 0,-37.988201 31.85047,-68.783281 71.14055,-68.783281 39.29008,0 71.14054,30.79508 71.14054,68.783281 z m 0,0"
   id="path6" /><path
   inkscape:connector-curvature="0"
   style="fill:#60bae2;stroke-width:0.48985714"
   d="m 299.72274,37.496459 c -4.48362,-0.867379 -7.86969,-4.143139 -8.76681,-8.478189 0,-0.096 -0.0993,-0.19192 -0.20044,-0.19192 -0.0992,0 -0.0992,0.096 -0.19849,0.19192 -0.89712,4.33505 -4.28513,7.61081 -8.76875,8.478189 -0.0992,0 -0.1985,0.096 -0.1985,0.19192 0,0.0978 0.0992,0.0978 0.1985,0.1938 4.48362,0.86739 7.87163,4.14126 8.76875,8.47631 0,0.0978 0.0992,0.1938 0.19849,0.1938 0.10119,0 0.10119,-0.096 0.20044,-0.1938 0.89712,-4.33505 4.28319,-7.60892 8.76681,-8.47631 0.10118,0 0.20045,-0.096 0.10118,-0.1938 0,-0.19192 -0.10118,-0.19192 -0.10118,-0.19192 z m 0,0"
   id="path10" /><path
   inkscape:connector-curvature="0"
   style="fill:#6dcc6d;stroke-width:0.48985714"
   d="m 308.17493,201.54658 h -8.6695 c -1.39335,0 -2.4909,-1.0593 -2.4909,-2.40837 0,-1.34718 1.09755,-2.40836 2.4909,-2.40836 h 8.6695 c 1.3953,0 2.49091,1.06118 2.49091,2.40836 0,1.34907 -1.1968,2.40837 -2.49091,2.40837 z m 0,0"
   id="path12" /><path
   inkscape:connector-curvature="0"
   style="fill:#6dcc6d;stroke-width:0.48985714"
   d="m 303.79056,205.68972 c -1.3953,0 -2.4909,-1.05931 -2.4909,-2.40837 V 194.901 c 0,-1.34906 1.0956,-2.40837 2.4909,-2.40837 1.39529,0 2.4909,1.05931 2.4909,2.40837 v 8.38035 c 0,1.34906 -1.09561,2.40837 -2.4909,2.40837 z m 0,0"
   id="path14" /><path
   inkscape:connector-curvature="0"
   style="fill:#fcd770;stroke-width:0.48985714"
   d="m 332.78426,228.81003 c -0.69667,0 -1.2941,-0.28976 -1.79227,-0.6736 -0.1012,-0.0978 -0.20045,-0.19379 -0.29969,-0.38571 -0.0992,-0.096 -0.1985,-0.28975 -0.1985,-0.38571 -0.10119,-0.19192 -0.10119,-0.28976 -0.10119,-0.48168 0,-0.19192 -0.0992,-0.28975 0,-0.48167 0,-0.19192 0,-0.28976 0,-0.48167 0,-0.19192 0.10119,-0.28976 0.10119,-0.48167 0.0992,-0.19192 0.0992,-0.28976 0.1985,-0.38572 0.0992,-0.096 0.19849,-0.28788 0.29969,-0.38572 0.69667,-0.67358 1.79227,-0.8655 2.68939,-0.48167 0.0992,0.0978 0.29969,0.0978 0.39893,0.1938 0.0992,0.096 0.29774,0.19192 0.39894,0.28787 0.0992,0.0978 0.19849,0.1938 0.29774,0.38572 0.0992,0.096 0.20044,0.28976 0.20044,0.38572 0.0992,0.096 0.0992,0.28975 0.0992,0.48167 v 0.48167 0.48167 c 0,0.19192 -0.0992,0.28976 -0.0992,0.48168 -0.1012,0.19191 -0.1012,0.28975 -0.20044,0.38571 -0.0992,0.096 -0.1985,0.28788 -0.29774,0.38571 -0.1012,0.096 -0.20044,0.19192 -0.39894,0.28788 -0.0992,0.096 -0.29968,0.1938 -0.39893,0.1938 -0.19849,0.096 -0.29969,0.096 -0.49818,0.096 -0.0992,0.096 -0.19849,0.096 -0.39894,0.096 z m 0,0"
   id="path16" /><path
   inkscape:connector-curvature="0"
   style="fill:#f75c64;stroke-width:0.48985714"
   d="m 497.68197,12.538838 c -0.19851,0 -0.29775,0 -0.49821,0 -0.19847,0 -0.29771,-0.096 -0.49816,-0.096 -0.19848,-0.096 -0.29775,-0.096 -0.39893,-0.1938 -0.0992,-0.096 -0.29775,-0.19191 -0.39699,-0.28787 -0.49817,-0.48167 -0.69863,-1.05931 -0.69863,-1.73478 0,-0.19191 0,-0.2878705 0.0992,-0.4816705 0,-0.19192 0.10122,-0.28788 0.10122,-0.48167 0.0992,-0.19192 0.0992,-0.28788 0.19847,-0.38572 0.0992,-0.096 0.19852,-0.28787 0.2997,-0.38383 0.0992,-0.0978 0.19847,-0.1938 0.39699,-0.28976 0.10118,-0.096 0.29969,-0.19191 0.39893,-0.19191 0.59744,-0.28976 1.29606,-0.28976 1.89347,0 0.19851,0.0959 0.29969,0.0959 0.39893,0.19191 0.29775,0.19192 0.4982,0.38572 0.69668,0.67359 0.0992,0.0978 0.20045,0.28976 0.20045,0.38572 0.0992,0.19379 0.0992,0.28975 0.0992,0.48167 0,0.1938 0.0992,0.2897605 0.0992,0.4816705 0,0.67547 -0.2997,1.25311 -0.69668,1.73478 -0.10118,0.096 -0.20042,0.19191 -0.39893,0.28787 -0.0992,0.0978 -0.2997,0.1938 -0.39893,0.1938 -0.19848,0.096 -0.2997,0.096 -0.49817,0.096 0,0 -0.19851,0 -0.39893,0 z m 0,0"
   id="path18" /><rect
   style="fill:#9932cc;stroke-width:1.13454437"
   height="12.732964"
   rx="6.7569304"
   transform="matrix(0.99996405,0.00847955,-0.00955162,0.99995438,0,0)"
   width="117.76414"
   x="348.77097"
   y="33.883347"
   id="rect2" /><path
   inkscape:connector-curvature="0"
   style="fill:#8a2be2;stroke-width:1.13449812"
   d="m 466.12743,44.143686 a 6.7625312,6.3716975 0 0 1 -6.80812,6.306728 L 355.07044,49.613483 a 6.7520122,6.3617865 0 0 1 -6.69357,-6.414647 4.7674326,4.4919036 0 0 1 0.0397,-0.550616 6.4668311,6.0930872 0 0 0 2.73727,0.573741 l 104.23719,0.835834 a 6.7438308,6.3540779 0 0 0 6.77889,-5.764922 6.753181,6.3628877 0 0 1 3.95747,5.850813 z"
   id="path4-0" /><path
   inkscape:connector-curvature="0"
   style="fill:#2f3a5a;stroke-width:1.13449812"
   d="m 458.82906,51.747157 h -0.0701 L 354.5171,50.911323 a 7.9255345,7.4674866 0 0 1 0.0678,-14.934836 h 0.069 l 104.24186,0.836938 a 7.9255326,7.4674841 0 0 1 -0.0667,14.934836 z M 354.58487,38.178944 a 5.5879614,5.2650108 0 0 0 -0.0467,10.529928 l 104.24186,0.835834 a 5.5881158,5.2651563 0 1 0 0.0947,-10.529934 L 354.63287,38.178944 Z"
   id="path6-3" /><path
   inkscape:connector-curvature="0"
   style="fill:#d9e2e9;stroke-width:1.13449812"
   d="m 415.12677,107.56443 c 21.64805,-4.91697 38.38257,-28.387417 39.62147,-57.147054 l -95.66773,-0.770855 c 0.71529,28.77505 17.02321,52.510889 38.57892,57.774749 -21.64805,4.91698 -38.38256,28.38743 -39.62147,57.14706 l 95.66773,0.77086 c -0.71529,-28.77505 -17.0232,-52.51089 -38.57892,-57.77476 z"
   id="path8-9" /><path
   inkscape:connector-curvature="0"
   style="fill:#c1cdd3;stroke-width:1.13449812"
   d="m 408.9907,107.51598 c -21.64571,4.91697 -38.38374,28.38302 -39.62146,57.14045 l -11.33712,-0.0914 c 1.23305,-28.75854 17.97108,-52.22347 39.62147,-57.14045 -21.55338,-5.26386 -37.86831,-29.00521 -38.57775,-57.779163 l 11.33711,0.0914 c 0.71178,28.775049 17.02437,52.515293 38.57775,57.779163 z"
   id="path10-5" /><path
   inkscape:connector-curvature="0"
   style="fill:#2f3a5a;stroke-width:1.13449812"
   d="m 453.70686,166.44041 h -0.0106 l -95.66772,-0.77085 a 1.1687748,1.1012267 0 0 1 -1.15709,-1.14638 c 1.18051,-27.48111 16.09057,-50.33156 36.76736,-57.13164 C 373.08708,100.2666 358.5931,77.17498 357.90937,49.675151 a 1.1687748,1.1012267 0 0 1 0.33661,-0.798394 1.2237072,1.1529843 0 0 1 0.84268,-0.330364 l 95.66773,0.770861 a 1.1687748,1.1012267 0 0 1 1.15709,1.146371 c -1.18748,27.48332 -16.09169,50.338175 -36.76849,57.132745 20.55057,7.12603 35.04572,30.21656 35.72945,57.71639 a 1.1687748,1.1012267 0 0 1 -1.16878,1.12656 z m -94.43701,-2.96009 93.23668,0.74773 C 451.41957,137.00573 435.7089,113.7269 414.83925,108.63152 a 1.1687748,1.1012267 0 0 1 0.0199,-2.13638 c 20.9573,-4.7606 37.0864,-27.78395 38.66658,-54.985349 l -93.24252,-0.748833 c 1.08579,27.222323 16.79646,50.501152 37.66728,55.597632 a 1.1687748,1.1012267 0 0 1 -0.0199,2.13638 c -20.95847,4.76061 -37.08873,27.78395 -38.66659,54.98535 z"
   id="path12-2" /><rect
   style="fill:#9932cc;stroke-width:1.13454437"
   height="12.732964"
   rx="6.7569304"
   transform="matrix(0.99996405,0.00847955,-0.00955162,0.99995438,0,0)"
   width="117.76414"
   x="348.771"
   y="159.07463"
   id="rect14" /><path
   inkscape:connector-curvature="0"
   style="fill:#8a2be2;stroke-width:1.13449812"
   d="m 465.27749,169.7018 a 6.7625312,6.3716975 0 0 1 -6.80812,6.31774 L 354.2205,175.18261 a 6.7356494,6.3463693 0 0 1 -6.64097,-5.66361 6.7578561,6.3672926 0 0 0 3.6828,1.05607 l 104.23602,0.83584 a 6.7625312,6.3716975 0 0 0 6.8198,-6.31774 5.7842667,5.4499708 0 0 0 -0.0397,-0.74003 6.7637,6.3727987 0 0 1 2.99908,5.34866 z"
   id="path16-3" /><path
   inkscape:connector-curvature="0"
   style="fill:#2f3a5a;stroke-width:1.13449812"
   d="m 457.83563,176.62156 h -0.069 l -104.24185,-0.83693 a 7.9254624,7.4674181 0 0 1 -7.85768,-7.5313 7.9476689,7.4883415 0 0 1 7.99326,-7.40354 l 104.24185,0.83583 a 7.9261183,7.4680359 0 0 1 -0.0666,14.93594 z m -0.048,-2.20245 a 5.5881144,5.265155 0 0 0 0.0947,-10.52993 l -104.24184,-0.83584 h -0.0479 a 5.5879615,5.265011 0 0 0 -0.0467,10.52993 z"
   id="path18-4" /><path
   inkscape:connector-curvature="0"
   style="fill:#00ffff;stroke-width:1.13449812"
   d="m 398.49627,134.58083 -1.5381,-0.0165 a 29.966218,28.234351 0 0 0 -29.37599,20.98938 c -0.41375,1.51859 -0.76555,4.95552 -1.07761,6.53358 l 79.24293,0.63541 c -0.28401,-1.57806 -0.60659,-5.0249 -0.99346,-6.5501 a 29.966218,28.234351 0 0 0 -28.9973,-21.453 l -1.53811,-0.0121 a 5.5236299,5.2043973 0 0 1 -5.47688,-5.24845 l 0.1683,-23.95388 a 4.6914622,4.4203239 0 0 1 4.73121,-4.38288 c 13.16391,-2.99093 24.18078,-14.455805 29.95336,-29.768365 l -73.43296,-0.589153 c 5.49442,15.402859 16.30792,27.042818 29.41573,30.245188 a 4.6914622,4.4203239 0 0 1 4.65172,4.45777 l -0.16245,23.95388 a 5.5236299,5.2043973 0 0 1 -5.57039,5.15925 z"
   id="path20-3" /><path
   inkscape:connector-curvature="0"
   style="fill:#2f3a5a;stroke-width:1.13449812"
   d="m 446.0539,162.73702 h -0.0105 l -79.24293,-0.63651 a 1.1687748,1.1012267 0 0 1 -1.13956,-1.30385 c 0.11688,-0.61669 0.25012,-1.5274 0.38686,-2.49319 0.2174,-1.54171 0.44297,-3.13959 0.70712,-4.11308 a 31.069542,29.273908 0 0 1 30.52489,-21.81529 l 1.53928,0.0165 h 0.0386 a 4.3560238,4.1042718 0 0 0 4.35252,-4.06792 l 0.16246,-23.95058 a 3.5215186,3.3179959 0 0 0 -3.4923,-3.34994 1.1816314,1.1133402 0 0 1 -0.28284,-0.0352 C 386.43,97.77455 375.13379,86.200653 369.36589,70.026939 a 1.1687748,1.1012267 0 0 1 0.16246,-0.996611 1.3148717,1.23888 0 0 1 0.95605,-0.454806 l 73.43296,0.589154 a 1.1687748,1.1012267 0 0 1 1.09163,1.469036 C 438.9489,86.711622 427.43997,98.10271 414.2223,101.10575 a 2.3375497,2.2024533 0 0 1 -0.28401,0.0309 3.5635945,3.3576401 0 0 0 -2.4965,0.95477 3.4993119,3.2970727 0 0 0 -1.05191,2.339 l -0.16713,23.94728 a 4.3606989,4.1086767 0 0 0 4.31745,4.14061 l 1.53694,0.0121 a 31.025128,29.232062 0 0 1 30.11933,22.29874 c 0.25129,0.99111 0.46167,2.61321 0.66387,4.18466 0.11687,0.94485 0.23375,1.83244 0.35063,2.43922 a 1.1687748,1.1012267 0 0 1 -1.15241,1.28513 z m -77.87313,-2.83126 76.52437,0.61449 c -0.0538,-0.38984 -0.1087,-0.81051 -0.1648,-1.24329 -0.18584,-1.4404 -0.39739,-3.07242 -0.61712,-3.93909 A 28.692253,27.034014 0 0 0 416.0573,134.73282 l -1.53694,-0.0121 a 6.6935735,6.3067251 0 0 1 -6.63514,-6.35958 l 0.16714,-23.95058 a 5.8578995,5.5193481 0 0 1 5.75738,-5.4764 c 11.99047,-2.7806 22.52696,-13.030819 28.4246,-27.580224 l -70.11012,-0.562725 c 5.63583,14.646314 15.98416,25.059519 27.92787,28.033919 a 5.860237,5.5215505 0 0 1 5.65687,5.5656 l -0.16246,23.95059 a 6.6526664,6.2681822 0 0 1 -2.00094,4.44565 6.5673458,6.1877927 0 0 1 -4.74757,1.80931 l -1.53927,-0.0187 h -0.25596 a 28.684072,27.026305 0 0 0 -27.97697,20.15906 c -0.23375,0.84575 -0.45699,2.44472 -0.65568,3.8543 -0.0643,0.46141 -0.12739,0.90741 -0.18934,1.31486 z"
   id="path22-8" /><g
   transform="matrix(1.1687748,0,0,1.1012267,331.88779,35.784273)"
   style="opacity:0.5"
   id="g26"><path
     style="fill:#ffffff"
     inkscape:connector-curvature="0"
     d="M 72.426,54.324 A 1.253,1.253 0 0 1 71.72,52.042 C 80.97,45.607 86.547,36.377 89.6,29.766 a 1.253019,1.253019 0 1 1 2.275,1.051 c -3.177,6.891 -9,16.524 -18.72,23.283 a 1.247,1.247 0 0 1 -0.729,0.224 z"
     id="path24-1" /></g></svg>