<!--

https://github.com/datalog/barcode-svg

--><svg viewBox="0 0 484 80" width="484" height="80" fill="#7b00a8" shape-rendering="crispEdges" xmlns="http://www.w3.org/2000/svg" version="1.1"><path transform="matrix(2.0000,0,0,68.0000,20,6)" d="M220,1h2V0h-2v1zM218,1h1V0h-1v1zM214,1h3V0h-3v1zM209,1h2V0h-2v1zM207,1h1V0h-1v1zM203,1h2V0h-2v1zM198,1h3V0h-3v1zM192,1h2V0h-2v1zM190,1h1V0h-1v1zM187,1h1V0h-1v1zM184,1h1V0h-1v1zM179,1h4V0h-4v1zM176,1h1V0h-1v1zM173,1h1V0h-1v1zM167,1h4V0h-4v1zM165,1h1V0h-1v1zM162,1h1V0h-1v1zM159,1h2V0h-2v1zM154,1h1V0h-1v1zM151,1h1V0h-1v1zM148,1h1V0h-1v1zM143,1h4V0h-4v1zM140,1h1V0h-1v1zM138,1h1V0h-1v1zM132,1h2V0h-2v1zM130,1h1V0h-1v1zM126,1h1V0h-1v1zM121,1h2V0h-2v1zM117,1h2V0h-2v1zM113,1h2V0h-2v1zM110,1h2V0h-2v1zM105,1h1V0h-1v1zM101,1h2V0h-2v1zM99,1h1V0h-1v1zM96,1h2V0h-2v1zM91,1h4V0h-4v1zM88,1h2V0h-2v1zM85,1h1V0h-1v1zM82,1h2V0h-2v1zM77,1h1V0h-1v1zM72,1h1V0h-1v1zM70,1h1V0h-1v1zM66,1h2V0h-2v1zM61,1h1V0h-1v1zM57,1h2V0h-2v1zM55,1h1V0h-1v1zM52,1h2V0h-2v1zM49,1h1V0h-1v1zM44,1h1V0h-1v1zM41,1h2V0h-2v1zM38,1h1V0h-1v1zM33,1h1V0h-1v1zM30,1h1V0h-1v1zM27,1h2V0h-2v1zM22,1h1V0h-1v1zM20,1h1V0h-1v1zM15,1h2V0h-2v1zM11,1h1V0h-1v1zM6,1h1V0h-1v1zM3,1h1V0h-1v1zM0,1h2V0h-2v1z"/></svg>