<?xml version="1.0" encoding="UTF-8" standalone="no"?>
<svg
   xmlns:dc="http://purl.org/dc/elements/1.1/"
   xmlns:cc="http://creativecommons.org/ns#"
   xmlns:rdf="http://www.w3.org/1999/02/22-rdf-syntax-ns#"
   xmlns:svg="http://www.w3.org/2000/svg"
   xmlns="http://www.w3.org/2000/svg"
   xmlns:sodipodi="http://sodipodi.sourceforge.net/DTD/sodipodi-0.dtd"
   xmlns:inkscape="http://www.inkscape.org/namespaces/inkscape"
   id="Layer_35"
   enable-background="new 0 0 64 64"
   height="600"
   viewBox="0 0 75 75"
   width="600"
   version="1.1"
   sodipodi:docname="sattisfacao-clientes.svg"
   inkscape:version="0.92.3 (2405546, 2018-03-11)">
  <metadata
     id="metadata59">
    <rdf:RDF>
      <cc:Work
         rdf:about="">
        <dc:format>image/svg+xml</dc:format>
        <dc:type
           rdf:resource="http://purl.org/dc/dcmitype/StillImage" />
        <dc:title></dc:title>
      </cc:Work>
    </rdf:RDF>
  </metadata>
  <defs
     id="defs57" />
  <sodipodi:namedview
     pagecolor="#ffffff"
     bordercolor="#666666"
     borderopacity="1"
     objecttolerance="10"
     gridtolerance="10"
     guidetolerance="10"
     inkscape:pageopacity="0"
     inkscape:pageshadow="2"
     inkscape:window-width="1440"
     inkscape:window-height="858"
     id="namedview55"
     showgrid="false"
     inkscape:zoom="0.4609375"
     inkscape:cx="256"
     inkscape:cy="256"
     inkscape:window-x="-11"
     inkscape:window-y="-11"
     inkscape:window-maximized="1"
     inkscape:current-layer="g1051" />
  <path
     d="m 62,59 v 12 c 0,1.1 -0.9,2 -2,2 H 42 c -1.1,0 -2,-0.9 -2,-2 V 59 c 0,-1.1 0.9,-2 2,-2 h 18 c 1.1,0 2,0.9 2,2 z"
     id="path24"
     style="fill:#4b0082"
     inkscape:connector-curvature="0" />
  <path
     d="m 60.563559,55.18644 h -18 c -1.654,0 -3,1.346 -3,3 v 12 c 0,1.654 1.346,3 3,3 h 18 c 1.654,0 3,-1.346 3,-3 v -12 c 0,-1.654 -1.346,-3 -3,-3 z m 1,15 c 0,0.552 -0.449,1 -1,1 h -18 c -0.551,0 -1,-0.448 -1,-1 v -12 c 0,-0.552 0.449,-1 1,-1 h 18 c 0.551,0 1,0.448 1,1 z"
     id="path42"
     style="fill:#000000"
     inkscape:connector-curvature="0" />
  <g
     id="g1051"
     transform="matrix(0.84102864,0,0,0.89373919,-53.406634,33.128467)">
    <g
       id="g1104"
       transform="translate(77.935174,-37.805803)">
      <g
         id="g10"
         style="fill:#ffeaa7"
         transform="translate(0,11)">
        <path
           d="m 56,18 c 2.21,0 4,1.79 4,4 v 12 c 0,2.21 -1.79,4 -4,4 h -2 l -6,4 V 38 H 39.86 C 39.95,37.35 40,36.68 40,36 40,35.32 39.95,34.65 39.86,34 H 43 47 54 V 33 C 54,28.44 50.61,24.67 46.21,24.08 45.81,24.03 45.41,24 45,24 c 2.76,0 5,-2.24 5,-5 0,-0.34 -0.03,-0.68 -0.1,-1 z"
           id="path2"
           inkscape:connector-curvature="0" />
        <path
           d="m 40,19 c 0,2.76 2.24,5 5,5 -0.41,0 -0.81,0.03 -1.21,0.08 -2.54,0.73 -2.81,0.86 -3.08,1 -1.28,0.7 -2.37,1.69 -3.17,2.89 l -0.05,0.04 C 35.7,25.44 33.08,23.5 30,22.58 V 22 c 0,-1.48 0.8,-2.77 2,-3.46 C 32.59,18.2 33.27,18 34,18 h 6.1 C 40.03,18.32 40,18.66 40,19 Z"
           id="path4"
           inkscape:connector-curvature="0" />
        <path
           d="m 19,22 h 7 c -3.82,0 -7.28,1.53 -9.8,4 H 6 C 3.79,26 2,24.21 2,22 V 10 C 2,7.79 3.79,6 6,6 h 6.1 C 12.03,6.32 12,6.66 12,7 c 0,2.76 2.24,5 5,5 l -1.21,0.08 c -3.35,1.07 -4.33,1.74 -5.15,2.56 C 9.01,16.26 8,18.52 8,21 v 1 h 7 z"
           id="path6"
           inkscape:connector-curvature="0" />
        <path
           d="m 32,10 v 8.54 c -1.2,0.69 -2,1.98 -2,3.46 v 0.58 C 28.73,22.2 27.39,22 26,22 V 21 C 26,16.44 22.61,12.67 18.21,12.08 17.82,12.03 17.41,12 17,12 19.76,12 22,9.76 22,7 22,6.66 21.97,6.32 21.9,6 H 28 c 2.21,0 4,1.79 4,4 z"
           id="path8"
           inkscape:connector-curvature="0" />
      </g>
      <path
         d="m 26,32 v 1 H 19 L 18.21,23.09 V 23.08 C 22.61,23.67 26,27.44 26,32 Z"
         id="path12"
         inkscape:connector-curvature="0"
         style="fill:#ff826e" />
      <path
         d="M 15.79,23.09 15,33 H 8 v -1 c 0,-2.48 1.01,-4.74 2.64,-6.36 0.82,-0.82 1.8,-1.49 5.15,-2.56 z"
         id="path14"
         inkscape:connector-curvature="0"
         style="fill:#ff826e" />
      <path
         d="m 54,44 v 1 H 47 L 46.21,35.09 V 35.08 C 50.61,35.67 54,39.44 54,44 Z"
         id="path18"
         inkscape:connector-curvature="0"
         style="fill:#b4dd7f" />
      <path
         d="m 43.79,35.08 v 0.01 L 43,45 h -3.14 c -0.32,-2.2 -1.15,-4.24 -2.37,-5.99 l 0.05,-0.04 c 0.8,-1.2 1.89,-2.19 3.17,-2.89 0.27,-0.14 0.54,-0.27 3.08,-1 z"
         id="path20"
         inkscape:connector-curvature="0"
         style="fill:#b4dd7f" />
      <path
         d="m 12,58 3,3 1,1 -7.96,7.96 C 7.37,70.63 6.47,71 5.54,71 4.56,71 3.68,70.6 3.04,69.96 2.4,69.32 2,68.44 2,67.46 2,66.53 2.37,65.63 3.04,64.96 L 11,57 Z"
         id="path26"
         style="fill:#7b68ee"
         inkscape:connector-curvature="0" />
      <path
         d="M 17.72,58.28 15,61 12,58 14.72,55.28 c 0.84,1.15 1.85,2.16 3,3 z"
         id="path28"
         inkscape:connector-curvature="0"
         style="fill:#fcd770" />
      <path
         d="m 17.72,58.28 c -1.15,-0.84 -2.16,-1.85 -3,-3 C 13.01,52.96 12,50.09 12,47 c 0,-3.91 1.61,-7.45 4.2,-10 2.52,-2.47 5.98,-4 9.8,-4 1.39,0 2.73,0.2 4,0.58 3.08,0.92 5.7,2.86 7.49,5.43 1.22,1.75 2.05,3.79 2.37,5.99 0.09,0.65 0.14,1.32 0.14,2 0,0.68 -0.05,1.35 -0.14,2 -0.97,6.78 -6.81,12 -13.86,12 -3.09,0 -5.96,-1.01 -8.28,-2.72 z"
         id="path30"
         inkscape:connector-curvature="0"
         style="fill:#e6e9ed" />
      <circle
         cx="26"
         cy="47"
         r="10"
         id="circle32"
         style="fill:#00ced1" />
      <path
         d="m 50,30 c 0,2.76 -2.24,5 -5,5 -2.76,0 -5,-2.24 -5,-5 0,-0.34 0.03,-0.68 0.1,-1 0.46,-2.28 2.48,-4 4.9,-4 2.42,0 4.44,1.72 4.9,4 0.07,0.32 0.1,0.66 0.1,1 z"
         id="path36"
         inkscape:connector-curvature="0"
         style="fill:#f0d0b4" />
      <path
         d="m 26,36 c -6.065,0 -11,4.935 -11,11 0,6.065 4.935,11 11,11 6.065,0 11,-4.935 11,-11 0,-6.065 -4.935,-11 -11,-11 z m 0,20 c -4.962,0 -9,-4.037 -9,-9 0,-4.963 4.038,-9 9,-9 4.962,0 9,4.037 9,9 0,4.963 -4.038,9 -9,9 z"
         id="path38"
         inkscape:connector-curvature="0" />
      <path
         d="m 55.845226,69.022061 h -2.824682 v 7.777904 h -2.824683 v -5.185269 h -2.824683 v 5.185269 H 44.546495 V 74.20733 h -2.824682 v 2.592635 H 38.89713 V 66.429426 H 36.072447 V 79.3926 h 22.597462 v -2.592635 h -2.824683 z"
         id="path44"
         style="fill:#ffffff;stroke-width:1.35308635"
         inkscape:connector-curvature="0" />
      <path
         d="m 55,32 h 2 v 2 h -2 z"
         id="path46"
         inkscape:connector-curvature="0" />
      <path
         d="m 55,36 h 2 v 2 h -2 z"
         id="path48"
         inkscape:connector-curvature="0" />
      <path
         d="m 5,20 h 2 v 2 H 5 Z"
         id="path50"
         inkscape:connector-curvature="0" />
      <path
         d="m 5,24 h 2 v 2 H 5 Z"
         id="path52"
         inkscape:connector-curvature="0" />
      <path
         inkscape:transform-center-y="-1.3559322"
         inkscape:transform-center-x="-8.9491525"
         d="m 22.197255,18.39862 c 0,2.76 -2.24,5 -5,5 -2.76,0 -5,-2.24 -5,-5 0,-0.34 0.03,-0.68 0.1,-1 0.46,-2.28 2.48,-4 4.9,-4 2.42,0 4.44,1.72 4.9,4 0.07,0.32 0.1,0.66 0.1,1 z"
         id="path36-5"
         inkscape:connector-curvature="0"
         style="fill:#f0d0b4;stroke-width:1" />
    </g>
  </g>
  <path
     d="m 52.132158,43.758999 v 4.290665 l 6.253694,-4.290665 h 1.453161 c 2.360866,0 4.28159,-1.976985 4.28159,-4.407011 V 28.775163 c 0,-2.430025 -1.920724,-4.40701 -4.28159,-4.40701 h -4.581292 c -0.707314,-2.051023 -2.60577,-3.525609 -4.838188,-3.525609 -2.232419,0 -4.130874,1.474586 -4.8382,3.525609 h -4.581292 c -0.292861,0 -0.57973,0.03085 -0.856313,0.08901 v -6.25884 c 0,-2.430025 -1.920723,-4.407011 -4.281589,-4.407011 h -4.581295 c -0.707325,-2.051012 -2.605779,-3.525598 -4.8382,-3.525598 -2.232418,0 -4.130868,1.474586 -4.838185,3.525608 h -4.581291 c -2.360867,0 -4.281588,1.976986 -4.281588,4.407011 v 10.57683 c 0,2.430025 1.920721,4.407011 4.281588,4.407011 h 6.87451 c -1.620155,2.212318 -2.592931,4.95436 -2.592931,7.932618 0,2.651257 0.768973,5.117421 2.079993,7.189597 l -1.223676,1.259523 -0.856317,-0.881402 -7.42512,7.643518 c -0.733866,0.754481 -1.138047,1.759279 -1.138047,2.826656 0,2.204389 1.742606,3.997159 3.884256,3.997159 1.037856,0 2.013202,-0.416022 2.746208,-1.170501 l 7.425117,-7.643518 -0.856314,-0.881403 1.223674,-1.259524 c 2.013206,1.349428 4.409185,2.140927 6.984979,2.140927 6.203165,0 11.392448,-4.548917 12.586156,-10.576825 z m 3.425278,-17.628041 h 4.281577 c 1.416356,0 2.568953,1.186366 2.568953,2.644205 v 10.576825 c 0,1.457839 -1.152597,2.644206 -2.568953,2.644206 h -1.972089 l -4.022128,2.760551 v -2.760551 h -6.894212 c 0.01881,-0.292626 0.04368,-0.583489 0.04368,-0.881402 0,-0.297913 -0.02488,-0.588776 -0.04368,-0.881403 H 58.9827 v -1.762804 c 0,-3.708058 -2.240125,-6.882868 -5.398219,-8.182054 1.198836,-0.969542 1.972955,-2.47057 1.972955,-4.157573 z m -2.634041,12.339627 -0.523201,-6.748013 c 2.813854,0.876994 4.869869,3.568797 4.869869,6.748013 z m -2.264951,-7.038877 0.546324,7.038877 h -1.570482 l 0.54547,-7.036231 c 0.08046,-0.0028 0.159276,-0.01499 0.239777,-0.01499 0.08046,0 0.159275,0.0096 0.238911,0.01233 z m -2.742786,7.038877 h -1.180866 c -0.309979,-1.567133 -0.901702,-3.026734 -1.699781,-4.340023 0.877717,-1.152874 2.066289,-1.981393 3.402996,-2.397414 z m 2.503875,-15.865237 c 1.889031,0 3.425263,1.581236 3.425263,3.52561 0,1.944372 -1.536232,3.525607 -3.425263,3.525607 -1.889043,0 -3.425277,-1.581235 -3.425277,-3.525607 0,-1.944374 1.536234,-3.52561 3.425277,-3.52561 z m -5.137903,3.52561 c 0,1.68612 0.773254,3.186267 1.970386,4.15581 -1.239952,0.508568 -2.357446,1.308882 -3.25401,2.355987 -1.459164,-1.793654 -3.374751,-3.17393 -5.556641,-3.97336 0.0557,-1.408482 1.177431,-2.538437 2.558676,-2.538437 z M 31.580548,15.554132 h 4.281591 c 1.416344,0 2.56895,1.186367 2.56895,2.644206 v 7.074133 c -0.885436,0.690139 -1.494277,1.717852 -1.653554,2.902456 -0.576296,-0.124277 -1.169724,-0.194789 -1.771711,-0.235334 v -0.04584 c 0,-3.708059 -2.240125,-6.882869 -5.398231,-8.182055 1.198847,-0.96954 1.972955,-2.470569 1.972955,-4.15757 z M 19.592116,27.893761 c 0,-3.179218 2.056014,-5.87102 4.870732,-6.748016 l -0.524066,6.748016 z m 6.611616,-7.038878 c 0.07963,-0.0027 0.158424,-0.01233 0.238912,-0.01233 0.08046,0 0.159276,0.0096 0.238914,0.01233 l 0.546334,7.038878 h -1.570481 z m 2.218722,0.290862 c 2.814717,0.876996 4.870731,3.568798 4.870731,6.748016 H 28.94652 Z m -1.97981,-9.117222 c 1.889044,0 3.425277,1.581235 3.425277,3.525609 0,1.944372 -1.536233,3.525607 -3.425277,3.525607 -1.88903,0 -3.425262,-1.581235 -3.425262,-3.525607 0,-1.944374 1.536232,-3.525609 3.425262,-3.525609 z M 14.454216,28.775163 V 18.198338 c 0,-1.457839 1.152601,-2.644206 2.568952,-2.644206 h 4.281579 c 0,1.687003 0.774111,3.188031 1.972955,4.157573 -3.158093,1.299186 -5.398219,4.473997 -5.398219,8.182056 v 1.762804 h 9.889605 c -0.839196,0.497111 -1.61587,1.090294 -2.322332,1.762804 h -8.423588 c -1.416351,0 -2.568952,-1.186366 -2.568952,-2.644206 z m 3.706996,31.957877 c -0.410176,0.42131 -0.955651,0.653999 -1.535376,0.653999 -1.197131,0 -2.17162,-1.003034 -2.17162,-2.234355 0,-0.596707 0.226067,-1.157279 0.636243,-1.580352 l 6.214288,-6.397217 3.070757,3.160709 z m 6.568805,-8.524921 -1.35812,-1.397905 1.052416,-1.083242 c 0.418739,0.499755 0.87258,0.966898 1.358112,1.397903 z m 9.419483,0.3649 c -6.138078,0 -11.132118,-5.140337 -11.132118,-11.458227 0,-6.317891 4.99404,-11.458227 11.132118,-11.458227 6.138088,0 11.13213,5.140336 11.13213,11.458227 0,6.31789 -4.994042,11.458227 -11.13213,11.458227 z"
     id="path40"
     inkscape:connector-curvature="0"
     style="stroke-width:0.86876917" />
  <g
     id="g1001"
     transform="matrix(0.10248025,0,0,0.08256268,82.621468,57.011298)">
    <path
       id="path965"
       d="m -311.51652,-496.83334 -42.39342,23.7569 8.04744,-52.11079 -34.08225,-35.63726 47.60752,-7.33686 20.82071,-52.63048 21.33037,52.63048 48.01024,7.33686 -34.99462,35.63726 8.04744,52.11079 z m 0,0"
       inkscape:connector-curvature="0"
       style="fill:#fdbf00;stroke-width:0.94473809" />
  </g>
  <path
     id="path961"
     d="M 27.01723,8.3861617 23.841012,9.911449 24.443946,6.5657289 21.822064,4.2776755 25.457291,3.8066203 27.01723,0.42753481 28.615353,3.8066203 32.144039,4.2776755 29.590515,6.5657289 30.193449,9.911449 Z m 0,0"
     inkscape:connector-curvature="0"
     style="fill:#fdbf00;stroke-width:0.06552368;fill-opacity:1" />
</svg>
