<?xml version="1.0" encoding="UTF-8" standalone="no"?>
<svg
   xmlns:dc="http://purl.org/dc/elements/1.1/"
   xmlns:cc="http://creativecommons.org/ns#"
   xmlns:rdf="http://www.w3.org/1999/02/22-rdf-syntax-ns#"
   xmlns:svg="http://www.w3.org/2000/svg"
   xmlns="http://www.w3.org/2000/svg"
   xmlns:sodipodi="http://sodipodi.sourceforge.net/DTD/sodipodi-0.dtd"
   xmlns:inkscape="http://www.inkscape.org/namespaces/inkscape"
   id="ffe6bee8-e793-4e33-a4ab-3e285c6a5a44"
   data-name="Layer 1"
   width="998.95"
   height="833.99"
   viewBox="0 0 998.95 833.99"
   version="1.1"
   sodipodi:docname="empty-woman-card.svg"
   inkscape:version="0.92.3 (2405546, 2018-03-11)">
  <metadata
     id="metadata226">
    <rdf:RDF>
      <cc:Work
         rdf:about="">
        <dc:format>image/svg+xml</dc:format>
        <dc:type
           rdf:resource="http://purl.org/dc/dcmitype/StillImage" />
        <dc:title>blank canvas</dc:title>
      </cc:Work>
    </rdf:RDF>
  </metadata>
  <sodipodi:namedview
     pagecolor="#ffffff"
     bordercolor="#666666"
     borderopacity="1"
     objecttolerance="10"
     gridtolerance="10"
     guidetolerance="10"
     inkscape:pageopacity="0"
     inkscape:pageshadow="2"
     inkscape:window-width="1440"
     inkscape:window-height="858"
     id="namedview224"
     showgrid="false"
     inkscape:zoom="0.5"
     inkscape:cx="254.36783"
     inkscape:cy="444.81313"
     inkscape:window-x="-11"
     inkscape:window-y="-11"
     inkscape:window-maximized="1"
     inkscape:current-layer="g1511" />
  <defs
     id="defs9">
    <linearGradient
       id="8849c9b4-5ff8-40d0-8d32-f1e3227b06d9"
       x1="499.14"
       y1="857.42"
       x2="499.14"
       y2="171.42"
       gradientUnits="userSpaceOnUse">
      <stop
         offset="0"
         stop-color="gray"
         stop-opacity="0.25"
         id="stop2" />
      <stop
         offset="0.54"
         stop-color="gray"
         stop-opacity="0.12"
         id="stop4" />
      <stop
         offset="1"
         stop-color="gray"
         stop-opacity="0.1"
         id="stop6" />
    </linearGradient>
  </defs>
  <title
     id="title11">blank canvas</title>
  <path
     d="m 401.62902,139.00812 c 25.31626,-22.5929 65.05438,-27.22444 101.23036,-25.4257 113.61548,5.6656 216.17189,60.65325 304.88713,122.86192 32.11984,22.5147 63.73699,46.78468 84.58109,77.79778 42.46821,63.12978 29.84908,150.58168 -29.15574,202.58878 -20.08139,17.69198 -44.41828,31.28249 -69.40519,43.28279 -44.42695,21.37636 -92.36405,38.53827 -142.78854,43.44788 -35.95066,3.47583 -72.35198,0.65172 -108.10329,-4.20575 -99.86964,-13.60788 -197.88455,-43.63905 -280.07355,-95.01184 -36.03732,-22.53206 -70.00322,-50.54726 -84.85843,-86.98265 -14.85521,-36.4354 -5.34753,-82.66395 31.45247,-104.27492 15.21923,-8.9242 33.41989,-12.95616 51.23055,-16.74482 26.22629,-5.57002 52.86859,-11.06182 76.52946,-22.38435 24.44956,-11.69617 53.38861,-34.31514 48.5351,-60.21007 -5.16552,-27.74581 -9.34301,-52.14615 15.93858,-74.73905 z"
     id="path13"
     inkscape:connector-curvature="0"
     style="opacity:0.125;fill:#00e5ff;fill-opacity:1;stroke-width:0.86782724" />
  <ellipse
     cx="462.22882"
     cy="682.93231"
     rx="118.88"
     ry="19.93"
     id="ellipse61"
     style="opacity:0.1;fill:#f91ae6;fill-opacity:1"
     inkscape:transform-center-x="-50.000001" />
  <g
     id="g1511"
     transform="translate(98.157655,-286.86352)">
    <path
       id="path15"
       stroke-miterlimit="10"
       transform="translate(-100.52,-33.01)"
       d="m 785.47,701.9 c 0,0 25.06,-44.39 62.79,-57.18 a 77.24,77.24 0 0 0 39.12,-29.26 129.52,129.52 0 0 0 11.54,-20.76"
       inkscape:connector-curvature="0"
       style="fill:none;stroke:#535461;stroke-width:2;stroke-miterlimit:10" />
    <path
       id="path17"
       transform="translate(-100.52,-33.01)"
       d="m 922.66,586.49 c -4.3,4.18 -24.33,8.49 -24.33,8.49 0,0 4.91,-19.89 9.21,-24.06 a 10.85172,10.85172 0 0 1 15.12,15.57 z"
       inkscape:connector-curvature="0"
       style="fill:#f91ae6" />
    <path
       id="path19"
       transform="translate(-100.52,-33.01)"
       d="m 911.33,622.48 c -5.88,1.17 -25,-6.09 -25,-6.09 0,0 14.94,-14 20.81,-15.2 a 10.853076,10.853076 0 0 1 4.23,21.29 z"
       inkscape:connector-curvature="0"
       style="fill:#f91ae6" />
    <path
       id="path21"
       transform="translate(-100.52,-33.01)"
       d="m 870.08,661.42 c -5.67,-2 -18.54,-17.9 -18.54,-17.9 0,0 20,-4.56 25.64,-2.6 a 10.85,10.85 0 1 1 -7.1,20.5 z"
       inkscape:connector-curvature="0"
       style="fill:#f91ae6" />
    <path
       id="path23"
       transform="translate(-100.52,-33.01)"
       d="m 832.23,683.86 c -5.91,-1 -21.29,-14.51 -21.29,-14.51 0,0 18.91,-7.88 24.82,-6.9 a 10.85,10.85 0 1 1 -3.53,21.41 z"
       inkscape:connector-curvature="0"
       style="fill:#f91ae6" />
    <path
       id="path25"
       transform="translate(-100.52,-33.01)"
       d="m 869.59,600.85 c 0,6 10.84,23.37 10.84,23.37 0,0 10.86,-17.37 10.86,-23.36 a 10.85,10.85 0 1 0 -21.7,0 z"
       inkscape:connector-curvature="0"
       style="fill:#f91ae6" />
    <path
       id="path27"
       transform="translate(-100.52,-33.01)"
       d="m 825.66,627.65 c 1.8,5.72 17.34,19.06 17.34,19.06 0,0 5.16,-19.83 3.37,-25.55 a 10.851546,10.851546 0 0 0 -20.71,6.49 z"
       inkscape:connector-curvature="0"
       style="fill:#f91ae6" />
    <path
       id="path29"
       transform="translate(-100.52,-33.01)"
       d="m 786.54,659.55 c 0.8,5.94 13.87,21.72 13.87,21.72 0,0 8.44,-18.67 7.64,-24.61 a 10.851638,10.851638 0 0 0 -21.51,2.89 z"
       inkscape:connector-curvature="0"
       style="fill:#f91ae6" />
    <path
       id="path31"
       transform="translate(-100.52,-33.01)"
       d="m 922.66,586.49 c -4.3,4.18 -24.33,8.49 -24.33,8.49 0,0 4.91,-19.89 9.21,-24.06 a 10.85172,10.85172 0 0 1 15.12,15.57 z"
       inkscape:connector-curvature="0"
       style="opacity:0.25" />
    <path
       id="path33"
       transform="translate(-100.52,-33.01)"
       d="m 911.33,622.48 c -5.88,1.17 -25,-6.09 -25,-6.09 0,0 14.94,-14 20.81,-15.2 a 10.853076,10.853076 0 0 1 4.23,21.29 z"
       inkscape:connector-curvature="0"
       style="opacity:0.25" />
    <path
       id="path35"
       transform="translate(-100.52,-33.01)"
       d="m 870.08,661.42 c -5.67,-2 -18.54,-17.9 -18.54,-17.9 0,0 20,-4.56 25.64,-2.6 a 10.85,10.85 0 1 1 -7.1,20.5 z"
       inkscape:connector-curvature="0"
       style="opacity:0.25" />
    <path
       id="path37"
       transform="translate(-100.52,-33.01)"
       d="m 832.23,683.86 c -5.91,-1 -21.29,-14.51 -21.29,-14.51 0,0 18.91,-7.88 24.82,-6.9 a 10.85,10.85 0 1 1 -3.53,21.41 z"
       inkscape:connector-curvature="0"
       style="opacity:0.25" />
    <path
       id="path39"
       transform="translate(-100.52,-33.01)"
       d="m 869.59,600.85 c 0,6 10.84,23.37 10.84,23.37 0,0 10.86,-17.37 10.86,-23.36 a 10.85,10.85 0 1 0 -21.7,0 z"
       inkscape:connector-curvature="0"
       style="opacity:0.25" />
    <path
       id="path41"
       transform="translate(-100.52,-33.01)"
       d="m 825.66,627.65 c 1.8,5.72 17.34,19.06 17.34,19.06 0,0 5.16,-19.83 3.37,-25.55 a 10.851546,10.851546 0 0 0 -20.71,6.49 z"
       inkscape:connector-curvature="0"
       style="opacity:0.25" />
    <path
       id="path43"
       transform="translate(-100.52,-33.01)"
       d="m 786.54,659.55 c 0.8,5.94 13.87,21.72 13.87,21.72 0,0 8.44,-18.67 7.64,-24.61 a 10.851638,10.851638 0 0 0 -21.51,2.89 z"
       inkscape:connector-curvature="0"
       style="opacity:0.25" />
    <path
       id="path45"
       stroke-miterlimit="10"
       transform="translate(-100.52,-33.01)"
       d="m 786.91,701 c 0,0 4.92,-50.74 34.24,-77.72 a 77.24,77.24 0 0 0 23.9,-42.61 129.14,129.14 0 0 0 2.14,-23.67"
       inkscape:connector-curvature="0"
       style="fill:none;stroke:#535461;stroke-width:2;stroke-miterlimit:10" />
    <path
       id="path47"
       transform="translate(-100.52,-33.01)"
       d="m 865.56,539.92 c -2.24,5.56 -18.8,17.62 -18.8,17.62 0,0 -3.56,-20.18 -1.32,-25.73 a 10.85,10.85 0 1 1 20.12,8.11 z"
       inkscape:connector-curvature="0"
       style="fill:#b605a7;fill-opacity:1" />
    <path
       id="path49"
       transform="translate(-100.52,-33.01)"
       d="m 869.79,577.41 c -4.9,3.45 -25.36,4.57 -25.36,4.57 0,0 8,-18.87 12.87,-22.32 a 10.851988,10.851988 0 0 1 12.49,17.75 z"
       inkscape:connector-curvature="0"
       style="fill:#b605a7;fill-opacity:1" />
    <path
       id="path51"
       transform="translate(-100.52,-33.01)"
       d="m 847.86,629.73 c -6,0.5 -24.2,-8.86 -24.2,-8.86 0,0 16.41,-12.26 22.34,-12.77 a 10.853217,10.853217 0 0 1 1.82,21.63 z"
       inkscape:connector-curvature="0"
       style="fill:#b105a2;fill-opacity:1" />
    <path
       id="path53"
       transform="translate(-100.52,-33.01)"
       d="m 822.35,665.58 c -5.8,1.5 -25.34,-4.64 -25.34,-4.64 0,0 14.09,-14.87 19.89,-16.37 a 10.85,10.85 0 1 1 5.45,21 z"
       inkscape:connector-curvature="0"
       style="fill:#b605a7;fill-opacity:1" />
    <path
       id="path55"
       transform="translate(-100.52,-33.01)"
       d="m 822.87,574.54 c 2.42,5.48 19.38,17 19.38,17 0,0 2.89,-20.28 0.46,-25.76 a 10.85,10.85 0 0 0 -19.84,8.78 z"
       inkscape:connector-curvature="0"
       style="fill:#b105a2;fill-opacity:1" />
    <path
       id="path57"
       transform="translate(-100.52,-33.01)"
       d="m 793.57,616.85 c 3.95,4.5 23.57,10.4 23.57,10.4 0,0 -3.31,-20.22 -7.27,-24.72 a 10.85,10.85 0 1 0 -16.3,14.32 z"
       inkscape:connector-curvature="0"
       style="fill:#b105a2;fill-opacity:1" />
    <path
       id="path59"
       transform="translate(-100.52,-33.01)"
       d="m 770.73,661.87 c 3.14,5.11 21.48,14.23 21.48,14.23 0,0 0.15,-20.48 -3,-25.59 a 10.850457,10.850457 0 1 0 -18.49,11.36 z"
       inkscape:connector-curvature="0"
       style="fill:#b105a2;fill-opacity:1" />
    <polygon
       id="polygon77"
       points="680.92,588.73 681.82,600.09 673.31,600.07 672.16,588.73 "
       style="opacity:0.1" />
  </g>
  <circle
     cx="239.99001"
     cy="124.52"
     r="31.5"
     id="circle217"
     style="opacity:0.1;fill:#f91ae6;fill-opacity:1" />
  <g
     id="g1584"
     transform="translate(-172.6068,-15.340151)">
    <path
       id="path109"
       transform="translate(-100.52,-33.01)"
       d="m 603.21,292.64 c -2.27,-1.2 -27,-19.88 -27,-19.88 L 536.3,247.45 c 0,0 -0.21,-0.6 -0.59,-1.63 10.95,-12.43 8.56,-30.47 -2.58,-43.15 -13.5,-15.38 -74.5,-48.49 -92.88,-20.17 -2.57,4 -2.66,8.54 -3.33,12.94 -1.57,10.27 -6.63,20.22 -14.57,28.6 -6.12,6.47 -14.15,12.43 -17.67,19.75 0,-0.09 -0.07,-0.18 -0.1,-0.28 a 18.36,18.36 0 0 0 -1.83,5 c -1.75,8.93 4.25,17.49 7.44,26.18 a 47.5,47.5 0 0 1 2.32,9.08 c 0.08,-0.62 0.15,-1.23 0.22,-1.85 a 58.06,58.06 0 0 1 0.79,13.36 c -22.15,4.51 -22.16,42.4 -22.16,42.4 0,0 -2.73,15.06 -2.27,20.49 0.46,5.43 0.45,17.17 0.45,20 0,2.83 -2.73,20.48 -3,22.6 a 0.51,0.51 0 0 1 0,0.09 c -0.4,2.32 -4.55,13.5 5.48,16 0.7,0.18 1.44,0.33 2.21,0.47 0.43,9.05 1.21,28 0.52,32.22 0,0 3.65,25.46 6.68,31.93 a 73.44,73.44 0 0 0 6.7,10.82 11.92,11.92 0 0 1 -1.54,4.39 c -1.55,2.23 -0.75,4.06 1.84,4.85 -0.09,0.77 -0.19,1.64 -0.3,2.62 -1.11,9.82 -2.77,29.34 0.05,39.23 3.87,13.56 4.1,18.08 4.1,18.08 0,0 0,4.06 1.6,6.32 1.6,2.26 4.55,23.28 4.55,26.67 0,3.39 7.74,33.89 5.46,41.12 -2.28,7.23 -0.45,17.4 -0.45,17.4 0,0 -1.37,17.85 -3,21.69 -1.63,3.84 -2.28,65.75 0.22,81.79 2.5,16.04 4.1,29.37 4.1,29.37 0,0 -1.59,14.69 -0.23,16.72 1.36,2.03 3.87,14.24 2.05,14.91 -1.82,0.67 -2.73,5.65 -2.73,5.65 a 50.39,50.39 0 0 0 3.11,4.23 17,17 0 0 1 -2.05,-0.87 c 0.72,1 1.8,2.42 3.13,4 l -1.25,16.25 a 2.72,2.72 0 0 0 2,2.85 22.87,22.87 0 0 0 22.62,-6.36 c 11.38,-11.52 15.25,-9.94 17.3,-16.94 0.22,-0.75 0.41,-1.49 0.57,-2.19 1.47,-6.24 -5.18,-10.88 -10.47,-8.22 0.73,-4.94 1.3,-10.55 0.75,-13.72 -1.14,-6.55 -0.91,-23.72 -0.91,-23.72 l -1.59,-82.25 c 0,0 2.95,-16.27 6.37,-22.59 3.42,-6.32 3,-28.47 3,-28.47 l 3.87,-72.76 3.64,-35.47 c 0,0 3.64,-12.2 8.19,1.36 0,0 -2.5,27.33 -1.36,33.89 1.14,6.56 2.73,38.41 1.59,45.41 -1.14,7 -6.14,45.42 -3,55.13 3.14,9.71 6.64,21.48 5.94,25.33 -0.7,3.85 -3,87.21 -3,87.21 0,0 6.15,16 1.6,21.24 -4.55,5.24 -0.23,26 -0.23,26 0,0 0.55,0.39 1.49,0.93 l -0.13,1.73 -1.43,18.69 a 2.74,2.74 0 0 0 2,2.86 22.86,22.86 0 0 0 22.62,-6.36 c 11.38,-11.53 15.25,-9.94 17.3,-16.95 0.22,-0.75 0.41,-1.48 0.58,-2.19 1.6,-6.81 -6.5,-11.75 -11.92,-7.3 l -0.27,0.23 a 9.41,9.41 0 0 1 -0.89,0.67 4.3,4.3 0 0 1 -0.45,0.29 c 1.14,-5.16 2.8,-14 2,-18.14 -1.14,-6.1 1.13,-24.62 1.13,-24.62 0,0 6.6,-22.15 6.83,-31 l 1.82,-70.49 c 0,0 -0.22,-28.7 0.69,-35.7 0.91,-7 8.19,-67.56 15.47,-85.64 5.59,-13.84 8.09,-49.16 6.61,-67.07 -0.08,-0.88 -0.16,-1.73 -0.26,-2.52 8.93,-6.59 9.82,-17.55 9.82,-17.55 0,0 -8.2,-15.66 -16.09,-22.29 C 532.7,443.4 531,432 531.28,427.15 a 11.88,11.88 0 0 0 -2.73,-8.13 c 0,0 -3.64,-11.75 -6.07,-12.95 a 1.9,1.9 0 0 1 -0.53,-0.4 c -1.65,-1.77 -0.38,-6.83 -0.38,-6.83 v -0.16 c 0.29,-1.17 2,-8.75 1.49,-10.69 -0.61,-2.1 0.3,-12.05 0.3,-12.05 0,0 5.77,-17.17 4.86,-30.73 -0.91,-13.56 11.84,-12.35 11.84,-12.35 l 39.37,-0.41 h 4.48 a 31.53,31.53 0 0 0 4.31,-4.46 c 7.5,-0.89 22.67,-3.72 24.37,-12 2.31,-10.99 -7.1,-22.14 -9.38,-23.35 z M 420.81,418 l 0.27,-6.89 c 0.93,0.8 1.55,1.31 1.55,1.31 a 10.78,10.78 0 0 1 0.07,5.52 5.89,5.89 0 0 1 -3.41,3.82 4.14,4.14 0 0 0 -0.55,0.29 l -0.38,-3.89 z m 142.8,-121 c -1.67,-0.75 -7.29,-0.6 -10.18,-0.6 -2.89,0 -7.58,-2.41 -7.58,-2.41 -1,-1.95 -6.53,-3.11 -11.45,-3.77 -3.74,-9.22 -9,-18.21 -9.71,-27.82 0,-0.35 0,-0.7 -0.05,-1.05 l 0.57,1 c 0,0 22.92,14.62 25.5,19 2,3.34 11.63,10.8 16.09,14.14 a 4.59,4.59 0 0 1 -2.45,1.64 1.35,1.35 0 0 1 -0.74,-0.13 z"
       style="fill:url(#8849c9b4-5ff8-40d0-8d32-f1e3227b06d9)"
       inkscape:connector-curvature="0" />
    <path
       id="path111"
       transform="translate(-100.52,-33.01)"
       d="m 525.76,831.22 c -0.17,0.7 -0.35,1.43 -0.57,2.17 -2,7 -5.83,5.38 -17,16.81 a 22.38,22.38 0 0 1 -22.27,6.32 2.7,2.7 0 0 1 -2,-2.84 l 1.41,-18.54 0.67,-8.92 c 0,0 17.84,5 26.92,-1.35 a 10.77,10.77 0 0 0 0.88,-0.67 2.75,2.75 0 0 0 0.2,-0.2 7.29,7.29 0 0 1 11.76,7.22 z"
       inkscape:connector-curvature="0"
       style="fill:#67647e" />
    <path
       id="path113"
       transform="translate(-100.52,-33.01)"
       d="m 469.76,824.22 c -0.17,0.7 -0.35,1.43 -0.57,2.17 -2,7 -5.83,5.38 -17,16.81 a 22.38,22.38 0 0 1 -22.27,6.32 2.7,2.7 0 0 1 -2,-2.84 l 1.41,-18.54 0.67,-8.92 c 0,0 17.84,5 26.92,-1.35 a 10.77,10.77 0 0 0 0.88,-0.67 2.75,2.75 0 0 0 0.2,-0.2 7.29,7.29 0 0 1 11.76,7.22 z"
       inkscape:connector-curvature="0"
       style="fill:#67647e" />
    <path
       id="path115"
       transform="translate(-100.52,-33.01)"
       d="m 451.33,827 0.72,9.64 c -10.24,10.23 -22.43,-5 -26,-10 9.39,4.84 25.28,0.36 25.28,0.36 z"
       inkscape:connector-curvature="0"
       style="opacity:0.1" />
    <path
       id="path117"
       transform="translate(-100.52,-33.01)"
       d="m 511.52,830.92 1.34,-0.89 c -9.35,14.22 -23.24,7.66 -27.57,5.11 l 0.67,-8.92 c 0,0 17.84,5 26.92,-1.35 -0.71,3.48 -1.36,6.05 -1.36,6.05 z"
       inkscape:connector-curvature="0"
       style="opacity:0.1" />
    <path
       id="path119"
       transform="translate(-100.52,-33.01)"
       d="m 540,561.69 c -7.18,17.93 -14.35,78 -15.25,85 -0.9,7 -0.67,35.42 -0.67,35.42 l -1.8,69.89 c -0.23,8.75 -6.73,30.72 -6.73,30.72 0,0 -2.24,18.38 -1.12,24.43 1.12,6.05 -2.91,22 -2.91,22 l 1.34,-0.9 c -11.21,17 -28.92,4.26 -28.92,4.26 0,0 -4.26,-20.62 0.23,-25.78 4.49,-5.16 -1.57,-21.07 -1.57,-21.07 0,0 2.24,-82.72 2.91,-86.53 0.67,-3.81 -2.69,-15.47 -5.83,-25.11 -3.14,-9.64 1.8,-47.75 2.92,-54.7 1.12,-6.95 -0.45,-38.56 -1.57,-45.06 -1.12,-6.5 1.34,-33.63 1.34,-33.63 -4.48,-13.45 -8.07,-1.34 -8.07,-1.34 l -3.59,35.19 -3.81,72.19 c 0,0 0.45,22 -2.91,28.25 -3.36,6.25 -6.28,22.41 -6.28,22.41 l 1.57,81.61 c 0,0 -0.22,17 0.9,23.53 1.12,6.53 -2.47,23.32 -2.47,23.32 C 445.16,855.36 425,823.3 425,823.3 c 0,0 0.9,-4.93 2.69,-5.6 1.79,-0.67 -0.67,-12.78 -2,-14.8 -1.33,-2.02 0.22,-16.59 0.22,-16.59 0,0 -1.57,-13.22 -4,-29.14 -2.43,-15.92 -1.79,-77.34 -0.22,-81.15 1.57,-3.81 2.91,-21.52 2.91,-21.52 0,0 -1.79,-10.09 0.45,-17.27 2.24,-7.18 -5.38,-37.43 -5.38,-40.8 0,-3.37 -2.91,-24.21 -4.48,-26.45 -1.57,-2.24 -1.57,-6.28 -1.57,-6.28 0,0 -0.22,-4.48 -4,-17.93 -2.78,-9.82 -1.14,-29.18 -0.05,-38.93 0.39,-3.61 0.73,-5.91 0.73,-5.91 0,0 128.57,-20.85 133.7,-16.14 1.2,1.11 2,4.92 2.47,10.35 C 548,512.9 545.48,548 540,561.69 Z"
       inkscape:connector-curvature="0"
       style="fill:#444053" />
    <path
       id="path121"
       transform="translate(-100.52,-33.01)"
       d="m 491.34,662.49 c 0.6,0 14.8,1.2 20,0.15 5.2,-1.05 -20,-0.15 -20,-0.15 z"
       inkscape:connector-curvature="0"
       style="opacity:0.1" />
    <path
       id="path123"
       transform="translate(-100.52,-33.01)"
       d="m 492.39,670.86 c 0,0 19.61,3.44 20.61,1.65 1,-1.79 -20.61,-1.65 -20.61,-1.65 z"
       inkscape:connector-curvature="0"
       style="opacity:0.1" />
    <path
       id="path125"
       transform="translate(-100.52,-33.01)"
       d="m 432.46,667.27 c 0,0 10.16,0.45 15.69,3 5.53,2.55 -15.69,-3 -15.69,-3 z"
       inkscape:connector-curvature="0"
       style="opacity:0.1" />
    <path
       id="path127"
       transform="translate(-100.52,-33.01)"
       d="m 395.54,415.9 c 0,0 1.64,31.23 0.75,36.76 0,0 3.58,25.26 6.57,31.68 2.99,6.42 9.42,14.5 9.42,14.5 l 8.82,-62 -2.1,-21.24 z"
       inkscape:connector-curvature="0"
       style="fill:#efb7b9" />
    <circle
       id="circle129"
       r="34.52"
       cy="206.09"
       cx="387.67999"
       style="fill:#efb7b9" />
    <path
       id="path131"
       transform="translate(-100.52,-33.01)"
       d="m 470.27,255.23 c 0,0 -10.76,21.08 -21.52,30.94 -10.76,9.86 64.56,21.07 66.35,21.07 1.79,0 -13.45,-44.83 -10.76,-50.24 2.69,-5.41 -34.07,-1.77 -34.07,-1.77 z"
       inkscape:connector-curvature="0"
       style="fill:#efb7b9" />
    <path
       id="path133"
       transform="translate(-100.52,-33.01)"
       d="m 546.49,495.14 a 22.43,22.43 0 0 1 -5.54,3.1 c -13.74,5.38 -28.69,12.85 -38.85,9.87 -10.16,-2.98 -31.68,0 -31.68,0 0,0 -43.35,-3.59 -52,-1.5 -3.94,0.95 -7,0.91 -9,0.23 0.39,-3.61 0.73,-5.91 0.73,-5.91 0,0 128.72,-20.85 133.85,-16.14 1.22,1.11 2,4.92 2.49,10.35 z"
       inkscape:connector-curvature="0"
       style="opacity:0.1" />
    <path
       id="path135"
       transform="translate(-100.52,-33.01)"
       d="m 555.9,475.22 c 0,0 -1.19,14.95 -14.95,20.33 -13.76,5.38 -28.69,12.85 -38.85,9.87 -10.16,-2.98 -31.68,0 -31.68,0 0,0 -43.35,-3.59 -52,-1.5 -8.65,2.09 -13.16,-0.59 -10.47,-4.48 2.69,-3.89 2.4,-16.74 2.4,-22.12 0,-5.38 -3,-27.2 -0.31,-31.09 2.69,-3.89 5.08,-18.83 10.46,-21.23 a 5.86,5.86 0 0 0 3.36,-3.79 10.84,10.84 0 0 0 -0.07,-5.47 c 0,0 -0.91,-0.75 -2.16,-1.86 -3.17,-2.83 -8.53,-8.08 -6.81,-9.8 2.39,-2.4 0,-17.94 0,-17.94 0,0 -5.68,-11.95 -3.58,-16.43 2.1,-4.48 -18.24,-28.1 -18.24,-28.1 0,0 0,-40.64 24.51,-42.44 0,0 17.34,0.6 19.43,-7.17 2.09,-7.77 15.84,-12.26 15.84,-12.26 l 31.39,6.88 c 0,0 27.79,6 32.88,2.39 5.09,-3.61 9,4.78 9,4.78 0,0 17.33,0.9 19.12,4.49 1.79,3.59 -5.67,38.55 -5.67,38.55 0,0 -12.56,-1.19 -11.66,12.26 0.9,13.45 -4.84,30.49 -4.84,30.49 0,0 -0.9,9.86 -0.3,11.95 0.56,1.93 -1.18,9.45 -1.46,10.61 v 0.15 c 0,0 -1.25,5 0.37,6.78 a 2,2 0 0 0 0.52,0.4 c 2.4,1.19 6,12.85 6,12.85 a 11.83,11.83 0 0 1 2.69,8.07 c -0.29,4.79 1.5,16.14 9.27,22.72 7.77,6.58 15.81,22.11 15.81,22.11 z"
       inkscape:connector-curvature="0"
       style="fill:#4a148c;fill-opacity:1" />
    <path
       id="path137"
       transform="translate(-100.52,-33.01)"
       d="m 422.59,406 v 1.27 l -0.54,14 c 0,0 -18.39,1.49 -28.4,-1 -10.01,-2.49 -5.8,-13.6 -5.4,-15.9 a 0.37,0.37 0 0 0 0,-0.09 c 0.29,-2.1 3,-19.58 3,-22.42 0,-2.84 0,-14.5 -0.45,-19.88 -0.45,-5.38 2.2,-20.37 2.2,-20.37 l 1.94,-2.38 21.06,8.07 z"
       inkscape:connector-curvature="0"
       style="fill:#4a148c;fill-opacity:1" />
    <path
       id="path139"
       transform="translate(-100.52,-33.01)"
       d="m 422.54,407.3 -0.54,14 c 0,0 -18.39,1.49 -28.4,-1 -10.01,-2.49 -5.8,-13.6 -5.4,-15.9 z"
       inkscape:connector-curvature="0"
       style="opacity:0.1" />
    <path
       id="path141"
       transform="translate(-100.52,-33.01)"
       d="m 423.86,421.22 a 10.84,10.84 0 0 0 -0.07,-5.47 c 0,0 -0.91,-0.75 -2.16,-1.86 15.83,-2.21 78.52,-10.81 99.63,-11.75 v 0.15 c 0,0 -1.25,5 0.37,6.78 z"
       inkscape:connector-curvature="0"
       style="opacity:0.1" />
    <path
       id="path143"
       transform="translate(-100.52,-33.01)"
       d="m 523.62,432 c 0,0 3.89,22 -10.61,29.74 -0.01,0.04 8.22,-10.87 10.61,-29.74 z"
       inkscape:connector-curvature="0"
       style="opacity:0.1" />
    <path
       id="path145"
       transform="translate(-100.52,-33.01)"
       d="m 428.72,462.37 c 0,0 35,-6 41.85,-1.34 6.85,4.66 -41.85,1.34 -41.85,1.34 z"
       inkscape:connector-curvature="0"
       style="opacity:0.1" />
    <path
       id="path147"
       transform="translate(-100.52,-33.01)"
       d="m 511.52,326.22 c 0,0 -5.38,22.12 -1.35,27.2 4.03,5.08 1.35,-27.2 1.35,-27.2 z"
       inkscape:connector-curvature="0"
       style="opacity:0.1" />
    <path
       id="path149"
       transform="translate(-100.52,-33.01)"
       d="m 410.19,308.14 c 0,0 4.93,8.22 1.94,16.74 -2.99,8.52 -1.94,-16.74 -1.94,-16.74 z"
       inkscape:connector-curvature="0"
       style="opacity:0.1" />
    <path
       id="path151"
       transform="translate(-100.52,-33.01)"
       d="m 400,380.18 c 0,0 6.28,3.73 4.19,9.56 -2.09,5.83 -4.19,-9.56 -4.19,-9.56 z"
       inkscape:connector-curvature="0"
       style="opacity:0.1" />
    <path
       id="path153"
       transform="translate(-100.52,-33.01)"
       d="m 399.43,363.14 c 0,0 5.82,3.14 6.57,7.77 0.75,4.63 -6.57,-7.77 -6.57,-7.77 z"
       inkscape:connector-curvature="0"
       style="opacity:0.1" />
    <path
       id="path155"
       transform="translate(-100.52,-33.01)"
       d="m 485.81,541.88 c 0,0 36.62,3.74 43.94,-4.93 0,0.05 -33.03,6.58 -43.94,4.93 z"
       inkscape:connector-curvature="0"
       style="opacity:0.1" />
    <path
       id="path157"
       transform="translate(-100.52,-33.01)"
       d="m 422.59,539.79 c 0,0 39.31,9.27 47.08,1.94 0,0 -33.78,2.54 -47.08,-1.94 z"
       inkscape:connector-curvature="0"
       style="opacity:0.1" />
    <path
       id="path159"
       transform="translate(-100.52,-33.01)"
       d="m 488.65,554 c 0,0 16.44,0 24.06,0.45 7.62,0.45 -24.06,-0.45 -24.06,-0.45 z"
       inkscape:connector-curvature="0"
       style="opacity:0.1" />
    <path
       id="path161"
       transform="translate(-100.52,-33.01)"
       d="m 425.28,561 c 0,0 8.07,9.12 17.19,7.48 9.12,-1.64 -17.19,-7.48 -17.19,-7.48 z"
       inkscape:connector-curvature="0"
       style="opacity:0.1" />
    <path
       id="path163"
       transform="translate(-100.52,-33.01)"
       d="m 441.13,187.65 c -2.53,3.93 -2.62,8.48 -3.28,12.84 -1.54,10.19 -6.53,20.06 -14.34,28.38 -7.17,7.62 -17,14.53 -18.86,23.84 -1.76,8.84 4.21,17.35 7.34,26 8.25,22.69 -3.27,46.49 -6.63,69.91 -0.93,6.47 0.19,14.74 8.16,16.89 2.49,0.68 5.34,0.59 7.58,1.67 3,1.44 3.92,4.43 4.47,7.12 a 108.82,108.82 0 0 1 2.06,29.28 c -0.36,5.5 -0.76,11.83 4.44,15.61 2.36,1.73 5.54,2.61 8.61,3.44 8.19,2.21 18.78,4 24.3,-1.19 2.32,-2.17 3.19,-5.23 6.08,-6.95 4.33,-2.57 10.47,-0.83 15.92,-0.56 11.19,0.56 21.47,-6 25.88,-13.91 4.41,-7.91 4,-17 2.4,-25.53 -1.6,-8.53 -4.46,-17 -4.66,-25.66 -0.07,-3 0.2,-6.05 1.92,-8.71 3.33,-5.15 11.08,-7.49 16.38,-11.54 9.93,-7.6 9.9,-20.05 6.29,-30.47 -3.61,-10.42 -10.09,-20.41 -10.89,-31.18 a 11.87,11.87 0 0 1 1.47,-7.53 c 1.42,-2.19 3.9,-3.83 6,-5.64 14.49,-12.24 12.78,-32.34 0.8,-46.1 -13.26,-15.25 -73.34,-48.1 -91.44,-20.01 z"
       inkscape:connector-curvature="0"
       style="fill:#e3787d" />
    <g
       id="g175"
       style="opacity:0.1">
      <path
         id="path165"
         transform="translate(-100.52,-33.01)"
         d="m 413.83,288.13 c 1.13,-9.09 0.92,-18.1 -2.29,-26.95 -1.58,-4.34 -3.87,-8.65 -5.54,-13 a 18.76,18.76 0 0 0 -1.8,5 c -1.76,8.84 4.21,17.35 7.34,26 a 47.28,47.28 0 0 1 2.29,8.95 z"
         inkscape:connector-curvature="0" />
      <path
         id="path167"
         transform="translate(-100.52,-33.01)"
         d="m 427.18,386.05 a 109.22,109.22 0 0 0 -2.05,-29.28 c -0.56,-2.69 -1.48,-5.67 -4.48,-7.11 -2.24,-1.08 -5.09,-1 -7.58,-1.67 a 10.33,10.33 0 0 1 -7,-5.78 c -0.46,2.28 -0.86,4.55 -1.19,6.83 -0.93,6.47 0.19,14.74 8.16,16.89 2.49,0.67 5.34,0.58 7.58,1.66 3,1.44 3.92,4.43 4.48,7.12 a 110.81,110.81 0 0 1 1.92,13.52 c 0.07,-0.74 0.11,-1.46 0.16,-2.18 z"
         inkscape:connector-curvature="0" />
      <path
         id="path169"
         transform="translate(-100.52,-33.01)"
         d="m 512.42,382.5 c -4.42,7.94 -14.7,14.47 -25.89,13.91 -5.45,-0.28 -11.59,-2 -15.91,0.56 -2.89,1.71 -3.77,4.78 -6.09,6.95 -5.52,5.15 -16.11,3.4 -24.3,1.19 -3.07,-0.84 -6.24,-1.71 -8.61,-3.44 a 10.8,10.8 0 0 1 -4.25,-6.9 c 0.06,3.07 0,6.15 -0.19,9.22 -0.36,5.5 -0.76,11.83 4.44,15.62 2.37,1.72 5.54,2.6 8.61,3.43 8.19,2.21 18.78,4 24.3,-1.19 2.32,-2.17 3.2,-5.23 6.09,-7 4.32,-2.57 10.46,-0.83 15.91,-0.56 11.19,0.56 21.47,-6 25.89,-13.91 4.24,-7.64 4.05,-16.28 2.57,-24.53 a 26.87,26.87 0 0 1 -2.57,6.65 z"
         inkscape:connector-curvature="0" />
      <path
         id="path171"
         transform="translate(-100.52,-33.01)"
         d="m 531.36,236.28 c -2.14,1.8 -4.62,3.45 -6,5.64 a 11.87,11.87 0 0 0 -1.47,7.53 40.06,40.06 0 0 0 2.06,9.6 39.94,39.94 0 0 1 5.45,-4.84 c 9.8,-8.27 12.18,-20.14 9,-31.22 a 28.54,28.54 0 0 1 -9.04,13.29 z"
         inkscape:connector-curvature="0" />
      <path
         id="path173"
         transform="translate(-100.52,-33.01)"
         d="m 528.45,311.05 c -5.29,4.05 -13.05,6.4 -16.37,11.55 -1.73,2.66 -2,5.73 -1.93,8.7 a 60.08,60.08 0 0 0 1.28,10.4 9.62,9.62 0 0 1 0.65,-1.17 c 3.32,-5.15 11.08,-7.49 16.37,-11.54 9.07,-6.94 9.83,-17.92 7.15,-27.71 a 20.76,20.76 0 0 1 -7.15,9.77 z"
         inkscape:connector-curvature="0" />
    </g>
    <path
       id="path177"
       transform="translate(-100.52,-33.01)"
       d="m 582.8,332.35 c 0,0 25.86,-1.34 28.1,-12.25 2.24,-10.91 -7,-22 -9.26,-23.17 C 599.38,295.76 575,277.2 575,277.2 l -39.3,-25.1 c 0,0 -18.83,-54 -23,-33.33 -4.17,20.67 12.11,48.12 12.11,48.12 0,0 22.56,14.5 25.1,18.83 2.54,4.33 18.09,15.69 18.09,15.69 z"
       inkscape:connector-curvature="0"
       style="fill:#efb7b9" />
    <path
       id="path179"
       transform="translate(-100.52,-33.01)"
       d="m 596.7,314.71 c -6.12,15.55 -14.05,21.68 -14.05,21.68 h -4.41 l -38.77,0.4 -4.47,-12.21 6.28,-26.46 3.88,0.16 c 0,0 4.64,2.39 7.47,2.39 2.83,0 8.38,-0.15 10,0.59 a 1.23,1.23 0 0 0 0.73,0.11 c 1.47,-0.15 3,-2.35 3,-2.35 0,0 36.47,0.15 30.34,15.69 z"
       inkscape:connector-curvature="0"
       style="fill:#4a148c;fill-opacity:1" />
    <path
       id="path181"
       transform="translate(-100.52,-33.01)"
       d="m 596.7,314.71 c -6.12,15.55 -14.05,21.68 -14.05,21.68 h -4.41 c 2.3,-6.16 7.15,-18.8 9,-21.72 1.81,-2.76 -14.43,-9.63 -23.93,-13.34 1.47,-0.15 3,-2.35 3,-2.35 0,0 36.52,0.19 30.39,15.73 z"
       inkscape:connector-curvature="0"
       style="opacity:0.1" />
  </g>
  <ellipse
     cx="827.28"
     cy="706.15"
     rx="32.18"
     ry="6.29"
     fill="#f91ae6"
     opacity="0.1"
     id="ellipse185" />
  <ellipse
     cx="966.77"
     cy="731.64"
     rx="32.18"
     ry="6.29"
     fill="#f91ae6"
     opacity="0.1"
     id="ellipse187" />
  <ellipse
     cx="750.78"
     cy="784.14"
     rx="32.18"
     ry="6.29"
     fill="#f91ae6"
     opacity="0.1"
     id="ellipse189" />
  <circle
     cx="169.98999"
     cy="39.52"
     r="19.5"
     id="circle219"
     style="opacity:0.1;fill:#f91ae6" />
  <circle
     cx="70"
     cy="113.02"
     r="12"
     id="circle221"
     style="opacity:0.1;fill:#f91ae6" />
  <g
     id="g1381"
     transform="translate(-1041.0992,-54.961032)">
    <rect
       id="rect1180"
       height="2"
       width="140"
       y="35.907791"
       x="413.2485"
       style="fill:#f2f2f2" />
    <rect
       id="rect1182"
       height="18.5"
       width="2"
       y="37.407791"
       x="513.24847"
       style="fill:#f2f2f2" />
    <rect
       id="rect1184"
       height="18.5"
       width="2"
       y="37.407791"
       x="452.2485"
       style="fill:#f2f2f2" />
    <rect
       id="rect1186"
       height="2"
       width="140"
       y="131.90779"
       x="484.2485"
       style="fill:#f2f2f2" />
    <rect
       id="rect1188"
       height="18.5"
       width="2"
       y="113.90779"
       x="522.24847"
       style="fill:#f2f2f2" />
    <rect
       id="rect1190"
       height="18.5"
       width="2"
       y="113.90779"
       x="583.24847"
       style="fill:#f2f2f2" />
    <rect
       id="rect1200"
       height="18.5"
       width="2"
       y="622.90778"
       x="694.24847"
       style="fill:#f2f2f2" />
    <rect
       id="rect1210"
       height="2"
       width="140"
       y="560.90778"
       x="461.2485"
       style="fill:#f2f2f2" />
    <g
       id="g1485"
       transform="translate(1264.7674,-0.30689529)">
      <ellipse
         transform="translate(381.82353,-142.35722)"
         id="ellipse183"
         ry="8.6400003"
         rx="44.18"
         cy="763.14001"
         cx="90.82"
         style="opacity:0.1;fill:#f91ae6" />
      <ellipse
         id="ellipse207"
         ry="11.61"
         rx="75.650002"
         cy="512.47748"
         cx="564.40118"
         style="opacity:0.1;fill:#f91ae6" />
      <g
         id="g1587" />
      <rect
         style="fill:#f2f2f2"
         x="417.2485"
         y="319.90778"
         width="140"
         height="2"
         id="rect1204" />
      <rect
         style="fill:#f2f2f2"
         x="455.2485"
         y="301.90778"
         width="2"
         height="18.5"
         id="rect1206" />
      <rect
         style="fill:#f2f2f2"
         x="516.24847"
         y="301.90778"
         width="2"
         height="18.5"
         id="rect1208" />
      <g
         id="g1601"
         transform="translate(67.647059,11.764706)">
        <g
           id="g1590">
          <path
             transform="translate(281.30353,-175.36722)"
             inkscape:connector-curvature="0"
             style="fill:#65617d"
             d="m 252.92,602.56 -0.36,3 -0.51,4.17 -0.21,1.74 -0.51,4.18 -0.22,1.74 -0.51,4.17 -5.78,47.44 c -0.52,4.24 -7.44,7.54 -15.8,7.54 H 199 c -8.36,0 -15.27,-3.3 -15.79,-7.54 l -5.79,-47.45 -0.51,-4.17 -0.21,-1.74 -0.52,-4.18 -0.21,-1.74 -0.51,-4.17 -0.36,-3 c -0.29,-2.4 3.45,-4.42 8.18,-4.42 h 61.52 c 4.67,0.01 8.42,2.03 8.12,4.43 z"
             id="path209" />
        </g>
        <polygon
           style="fill:#9d9cb5"
           points="152.03,572.5 151.53,576.68 75.39,576.68 74.89,572.5 "
           id="polygon211"
           transform="translate(381.82353,-142.35722)" />
        <polygon
           style="fill:#9d9cb5"
           points="151.31,578.42 150.81,582.59 76.12,582.59 75.61,578.42 "
           id="polygon213"
           transform="translate(381.82353,-142.35722)" />
        <polygon
           style="fill:#9d9cb5"
           points="150.59,584.33 150.08,588.5 76.84,588.5 76.33,584.33 "
           id="polygon215"
           transform="translate(381.82353,-142.35722)" />
        <rect
           id="rect1212"
           height="18.5"
           width="2"
           y="542.90778"
           x="499.2485"
           style="fill:#f2f2f2" />
        <rect
           id="rect1214"
           height="18.5"
           width="2"
           y="542.90778"
           x="560.24847"
           style="fill:#f2f2f2" />
      </g>
      <polygon
         style="fill:#2f2e41"
         points="360.356,700.481 360.356,617.861 145.18,617.861 134.727,596.084 136.263,595.347 146.252,616.157 362.06,616.157 362.06,702.184 125.274,702.184 125.274,700.481 "
         id="polygon1222" />
      <circle
         style="fill:#3f3d56"
         cx="156.78851"
         cy="726.03302"
         r="17.88673"
         id="circle1224" />
      <circle
         style="fill:#3f3d56"
         cx="333.10052"
         cy="726.03302"
         r="17.88673"
         id="circle1226" />
      <circle
         style="fill:#3f3d56"
         cx="540.92725"
         cy="346.15302"
         r="11.07274"
         id="circle1228" />
      <path
         style="fill:#2f2e41"
         inkscape:connector-curvature="0"
         d="M 539.38538,665.76747 H 273.23673 L 215.64844,477.531 h 383.04412 l -0.34852,1.10753 z m -264.8885,-1.7035 H 538.136 L 596.37017,479.23446 H 217.95082 Z"
         transform="translate(-152,-76.01429)"
         id="path1230" />
      <polygon
         style="opacity:0.36100003;fill:#7c43bd;fill-opacity:1"
         points="418.701,413.015 418.395,413.998 366.61,579.958 132.842,579.958 82.26,413.015 "
         id="polygon1232" />
      <polygon
         style="fill:#2f2e41"
         points="449.818,384.263 461.059,341.894 526.448,341.894 526.448,343.598 462.37,343.598 451.465,384.7 "
         id="polygon1234" />
      <rect
         style="fill:#2f2e41"
         x="82.2584"
         y="458.58386"
         width="345.29309"
         height="1.7035"
         id="rect1236" />
      <rect
         style="fill:#2f2e41"
         x="101.45894"
         y="521.34375"
         width="306.31851"
         height="1.7035"
         id="rect1238" />
      <rect
         style="fill:#2f2e41"
         x="254.31377"
         y="402.36844"
         width="1.7035"
         height="186.533"
         id="rect1240" />
      <rect
         style="fill:#2f2e41"
         x="385.55746"
         y="570.7973"
         width="186.92877"
         height="1.7037899"
         transform="rotate(-86.24919,362.44141,614.78759)"
         id="rect1242" />
      <rect
         style="fill:#2f2e41"
         x="334.45728"
         y="478.18484"
         width="1.7037899"
         height="186.92877"
         transform="rotate(-3.729,-908.23192,2868.2851)"
         id="rect1244" />
      <rect
         style="fill:#f2f2f2"
         x="60.248501"
         y="352.90778"
         width="140"
         height="2"
         id="rect1278" />
      <rect
         style="fill:#f2f2f2"
         x="98.248497"
         y="334.90778"
         width="2"
         height="18.5"
         id="rect1280" />
      <rect
         style="fill:#f2f2f2"
         x="159.2485"
         y="334.90778"
         width="2"
         height="18.5"
         id="rect1282" />
    </g>
    <rect
       id="rect1284"
       height="2"
       width="140"
       y="56.907791"
       x="109.2485"
       style="fill:#f2f2f2" />
    <rect
       id="rect1286"
       height="18.5"
       width="2"
       y="58.407791"
       x="209.2485"
       style="fill:#f2f2f2" />
    <rect
       id="rect1288"
       height="18.5"
       width="2"
       y="58.407791"
       x="148.2485"
       style="fill:#f2f2f2" />
    <rect
       id="rect1290"
       height="2"
       width="140"
       y="253.90779"
       x="250.2485"
       style="fill:#f2f2f2" />
    <rect
       id="rect1292"
       height="18.5"
       width="2"
       y="255.40779"
       x="350.2485"
       style="fill:#f2f2f2" />
    <rect
       id="rect1294"
       height="18.5"
       width="2"
       y="255.40779"
       x="289.2485"
       style="fill:#f2f2f2" />
    <rect
       id="rect1296"
       height="2"
       width="140"
       y="252.90779"
       x="12.2485"
       style="fill:#f2f2f2" />
    <rect
       id="rect1298"
       height="18.5"
       width="2"
       y="254.40779"
       x="112.2485"
       style="fill:#f2f2f2" />
    <rect
       id="rect1300"
       height="18.5"
       width="2"
       y="254.40779"
       x="51.248501"
       style="fill:#f2f2f2" />
    <rect
       id="rect1302"
       height="2"
       width="140"
       y="152.90779"
       x="180.2485"
       style="fill:#f2f2f2" />
    <rect
       id="rect1304"
       height="18.5"
       width="2"
       y="134.90779"
       x="218.2485"
       style="fill:#f2f2f2" />
    <rect
       id="rect1306"
       height="18.5"
       width="2"
       y="134.90779"
       x="279.2485"
       style="fill:#f2f2f2" />
  </g>
</svg>
