<?xml version="1.0" encoding="UTF-8" standalone="no"?>
<svg
   xmlns:dc="http://purl.org/dc/elements/1.1/"
   xmlns:cc="http://creativecommons.org/ns#"
   xmlns:rdf="http://www.w3.org/1999/02/22-rdf-syntax-ns#"
   xmlns:svg="http://www.w3.org/2000/svg"
   xmlns="http://www.w3.org/2000/svg"
   xmlns:xlink="http://www.w3.org/1999/xlink"
   xmlns:sodipodi="http://sodipodi.sourceforge.net/DTD/sodipodi-0.dtd"
   xmlns:inkscape="http://www.inkscape.org/namespaces/inkscape"
   id="a490d581-c356-41e2-b0f0-0de4275777d8"
   data-name="Layer 1"
   width="1144"
   height="652.52"
   viewBox="0 0 1144 652.52"
   version="1.1"
   sodipodi:docname="empty-cli-winners.svg"
   inkscape:version="0.92.3 (2405546, 2018-03-11)">
  <metadata
     id="metadata219">
    <rdf:RDF>
      <cc:Work
         rdf:about="">
        <dc:format>image/svg+xml</dc:format>
        <dc:type
           rdf:resource="http://purl.org/dc/dcmitype/StillImage" />
        <dc:title>winners</dc:title>
      </cc:Work>
    </rdf:RDF>
  </metadata>
  <sodipodi:namedview
     pagecolor="#ffffff"
     bordercolor="#666666"
     borderopacity="1"
     objecttolerance="10"
     gridtolerance="10"
     guidetolerance="10"
     inkscape:pageopacity="0"
     inkscape:pageshadow="2"
     inkscape:window-width="1440"
     inkscape:window-height="858"
     id="namedview217"
     showgrid="false"
     inkscape:zoom="0.68"
     inkscape:cx="572"
     inkscape:cy="281.53737"
     inkscape:window-x="-11"
     inkscape:window-y="-11"
     inkscape:window-maximized="1"
     inkscape:current-layer="a490d581-c356-41e2-b0f0-0de4275777d8" />
  <defs
     id="defs10">
    <linearGradient
       id="e151d6ee-b0bf-4b5d-8ce9-000e8108dac8"
       x1="836.51"
       y1="628.67"
       x2="836.51"
       y2="226.37"
       gradientUnits="userSpaceOnUse">
      <stop
         offset="0"
         stop-color="gray"
         stop-opacity="0.25"
         id="stop2" />
      <stop
         offset="0.54"
         stop-color="gray"
         stop-opacity="0.12"
         id="stop4" />
      <stop
         offset="1"
         stop-color="gray"
         stop-opacity="0.1"
         id="stop6" />
    </linearGradient>
    <linearGradient
       id="e2a6fc7a-3d7b-4d78-8350-c6ea621e07cc"
       x1="178.62"
       y1="535.35"
       x2="400.84"
       y2="535.35"
       xlink:href="#e151d6ee-b0bf-4b5d-8ce9-000e8108dac8" />
  </defs>
  <title
     id="title12">winners</title>
  <path
     d="M715.72,594.05c22.1-1.26,49.52-16.25,70.84-22.88q37.85-11.74,76-22.59,132.81-37.79,268.47-64.4,12.66-2.49,25.36-4.86a179.51,179.51,0,0,0-59.26-71.17,182.06,182.06,0,0,0,1-18.78c0-99.14-79.23-179.51-177-179.51a174.18,174.18,0,0,0-85.9,22.55c-69.2-45.52-159.52-73.07-258.34-73.07-140.42,0-263.69,55.63-333.54,139.4L571.63,354.2l201.34,34c-229.53,6.85-459.77,13.66-688.64-2.42a181.42,181.42,0,0,0-26.12,229h0c0,3.59.15,7.15.42,10.68,5.83,1.67,11.46,3.29,16.51,4.35q121.61,25.69,244.78,43c-60.51,37.31-134.2,42.59-204,58.39,33.8,27.9,79.7,45,130.28,45H999.32c81.55,0,147.65-56.77,147.65-126.81h0a180.19,180.19,0,0,0,24-65.89C1020.07,598.07,867.29,585.42,715.72,594.05Z"
     transform="translate(-28 -123.74)"
     fill="#6c63ff"
     opacity="0.1"
     id="path14"
     style="opacity:0.411" />
  <path
     d="M1172,553.67a180,180,0,0,0-76-147.42,184.71,184.71,0,0,0,1-18.77C1097,288.34,1017.73,208,920,208a174.28,174.28,0,0,0-85.91,22.54C764.89,185,674.56,157.44,575.74,157.44,415,157.44,276.64,230.39,215.28,335c-3.41-.2-6.84-.31-10.3-.31-97.74,0-177,80.37-177,179.51a180.53,180.53,0,0,0,29.12,98.67h0c0,89.2,84.19,161.51,188,161.51H998.24c81.54,0,147.64-56.78,147.64-126.82h0A180.52,180.52,0,0,0,1172,553.67Z"
     id="path16"
     style="opacity:0.411;fill:#ffffff"
     fill="#6c63ff"
     opacity="0.1"
     transform="translate(-28 -123.74)" />
  <path
     d="M372.44,397.41a.62.62,0,0,0,0,.09,4.43,4.43,0,0,0,.38.68l3.82,5.6,9.94,1,.11-3.94C383.59,400.6,376.53,399.75,372.44,397.41Z"
     transform="translate(-28 -123.74)"
     opacity="0.1"
     id="path160"
     style="opacity:0.411;fill:#808080" />
  <g
     id="g1139"
     transform="translate(0,-162)">
    <path
       inkscape:connector-curvature="0"
       style="opacity:0.41100003;fill:#808080"
       id="path84"
       d="m 506,401.81 -5.16,16.2 q -6.95,-2.22 -13.4,-4.77 c -55.1,-21.66 -84.3,-60.19 -99.29,-89.78 -17.48,-34.5 -19.86,-64 -19.95,-65.26 l -0.68,-9.13 h 81.66 v 17 h -62.71 a 185.88,185.88 0 0 0 17.15,50.3 c 15.23,29.79 37.06,52.94 65.15,69.15 A 189,189 0 0 0 506,401.81 Z" />
    <path
       style="opacity:0.41100003;fill:#808080"
       id="path86"
       transform="translate(-28,-123.74)"
       d="m 528.18,537 c -55.1,-21.66 -84.3,-60.19 -99.29,-89.78 -17.48,-34.5 -19.86,-64 -19.95,-65.26 l -0.68,-9.13 h -7 l 0.68,9.13 c 0.09,1.24 2.47,30.76 19.95,65.26 15,29.59 44.19,68.12 99.29,89.78 q 6.45,2.55 13.4,4.77 l 0.68,-2.13 q -3.61,-1.29 -7.08,-2.64 z"
       inkscape:connector-curvature="0" />
    <path
       style="opacity:0.41100003;fill:#808080"
       id="path88"
       transform="translate(-28,-123.74)"
       d="m 683.59,682.15 v 91.67 H 494.92 v -91.67 l 6,-8 c 61.14,-21.7 73.53,-78.29 76,-100.68 a 92.05,92.05 0 0 0 0.63,-9.32 h 23.33 a 92.05,92.05 0 0 0 0.63,9.32 c 2.51,22.39 14.9,79 76,100.68 z"
       inkscape:connector-curvature="0" />
    <rect
       style="opacity:0.41100003;fill:#808080"
       id="rect90"
       height="11.5"
       width="188.67"
       y="558.40997"
       x="466.92001" />
    <path
       style="opacity:0.41100003;fill:#808080"
       id="path92"
       transform="translate(-28,-123.74)"
       d="m 510.92,674.15 c 61.14,-21.7 73.53,-78.29 76,-100.68 a 92.05,92.05 0 0 0 0.63,-9.32 h -10 a 92.05,92.05 0 0 1 -0.63,9.32 c -2.51,22.39 -14.9,79 -76,100.68 l -6,8 v 91.67 h 10 v -91.67 z"
       inkscape:connector-curvature="0" />
    <path
       style="opacity:0.41100003;fill:#808080"
       id="path94"
       transform="translate(-28,-123.74)"
       d="m 466.26,372.81 h 16.92 v 17 h -15.42 q -0.91,-8.4 -1.5,-17 z"
       inkscape:connector-curvature="0" />
    <path
       style="opacity:0.41100003;fill:#808080"
       id="path96"
       transform="translate(-28,-123.74)"
       d="m 540,525.55 -5.16,16.2 q -6.95,-2.22 -13.4,-4.77 A 179.15,179.15 0 0 1 502.77,509.26 189,189 0 0 0 540,525.55 Z"
       inkscape:connector-curvature="0" />
    <path
       style="opacity:0.41100003;fill:#808080"
       id="path102"
       transform="translate(-28,-123.74)"
       d="m 601.55,573.47 a 64.64,64.64 0 0 1 -24.59,0 92.05,92.05 0 0 0 0.63,-9.32 h 23.33 a 92.05,92.05 0 0 0 0.63,9.32 z"
       inkscape:connector-curvature="0" />
    <path
       id="path80"
       d="m 758.38882,247.07 -0.68,9.13 c -0.1,1.24 -2.47,30.76 -19.95,65.26 -15,29.59 -44.19,68.13 -99.3,89.79 q -6.45,2.55 -13.39,4.76 l -5.16,-16.2 a 189.43,189.43 0 0 0 37.22,-16.28 c 28.09,-16.22 49.93,-39.37 65.16,-69.16 a 185.77,185.77 0 0 0 17.1,-50.3 h -62.7 v -17 z"
       inkscape:connector-curvature="0"
       style="opacity:0.41100003;fill:#808080" />
    <path
       style="opacity:0.41100003;fill:#808080"
       id="path104"
       transform="translate(-28,-123.74)"
       d="m 468.26,344.65 c 0.43,126.06 54.43,228 121,228 66.57,0 120.56,-101.94 121,-228 z"
       inkscape:connector-curvature="0" />
    <path
       style="opacity:0.41100003;fill:#808080"
       id="path106"
       transform="translate(-28,-123.74)"
       d="m 489.76,344.65 h -21.5 c 0.43,126.06 54.43,228 121,228 a 65.35,65.35 0 0 0 10.75,-0.91 C 538.47,561.46 490.17,463.85 489.76,344.65 Z"
       inkscape:connector-curvature="0" />
    <rect
       style="opacity:0.41100003;fill:#808080"
       id="rect108"
       height="33"
       width="128.33"
       y="593.5"
       x="497.09" />
    <polygon
       style="opacity:0.41100003;fill:#808080"
       id="polygon110"
       points="497.09,593.5 497.09,626.5 503.09,626.5 503.09,598 625.42,598 625.42,593.5 " />
    <path
       id="path100"
       d="m 756.29882,249.07 q -0.59,8.6 -1.5,17 h -15.41 v -17 z"
       inkscape:connector-curvature="0"
       style="opacity:0.41100003;fill:#808080" />
  </g>
  <ellipse
     cx="916.19"
     cy="643.96"
     rx="40.21"
     ry="6.8"
     fill="#6c63ff"
     id="ellipse212"
     style="opacity:0.411" />
  <path
     d="M960.82,756.58a11.64,11.64,0,0,0,3.83-5.79c.5-2.29-.48-5-2.68-5.89-2.46-.94-5.09.77-7.08,2.49s-4.28,3.69-6.88,3.32a10.5,10.5,0,0,0,3.24-9.81,4.12,4.12,0,0,0-.9-2c-1.37-1.46-3.84-.84-5.48.31-5.2,3.66-6.65,10.73-6.68,17.08-.52-2.29-.08-4.68-.09-7s-.66-5-2.65-6.23a7.91,7.91,0,0,0-4-.94c-2.33-.09-4.94.15-6.53,1.86-2,2.12-1.47,5.68.25,8s4.35,3.81,6.77,5.42a15,15,0,0,1,4.83,4.61,4.16,4.16,0,0,1,.36.83h14.66A40.77,40.77,0,0,0,960.82,756.58Z"
     transform="translate(-28 -123.74)"
     fill="#6c63ff"
     id="path214"
     style="opacity:0.411" />
</svg>
