<?xml version="1.0" encoding="UTF-8" standalone="no"?>
<svg
   xmlns:dc="http://purl.org/dc/elements/1.1/"
   xmlns:cc="http://creativecommons.org/ns#"
   xmlns:rdf="http://www.w3.org/1999/02/22-rdf-syntax-ns#"
   xmlns:svg="http://www.w3.org/2000/svg"
   xmlns="http://www.w3.org/2000/svg"
   xmlns:sodipodi="http://sodipodi.sourceforge.net/DTD/sodipodi-0.dtd"
   xmlns:inkscape="http://www.inkscape.org/namespaces/inkscape"
   id="aea587a3-a3e8-4e0f-8220-a5d1e661ad74"
   data-name="Layer 1"
   width="850.28229"
   height="685.95538"
   viewBox="0 0 850.28229 685.9554"
   version="1.1"
   sodipodi:docname="empty-filter.svg"
   inkscape:version="0.92.3 (2405546, 2018-03-11)">
  <metadata
     id="metadata79">
    <rdf:RDF>
      <cc:Work
         rdf:about="">
        <dc:format>image/svg+xml</dc:format>
        <dc:type
           rdf:resource="http://purl.org/dc/dcmitype/StillImage" />
        <dc:title>stand_out</dc:title>
      </cc:Work>
    </rdf:RDF>
  </metadata>
  <defs
     id="defs77" />
  <sodipodi:namedview
     pagecolor="#ffffff"
     bordercolor="#666666"
     borderopacity="1"
     objecttolerance="10"
     gridtolerance="10"
     guidetolerance="10"
     inkscape:pageopacity="0"
     inkscape:pageshadow="2"
     inkscape:window-width="1440"
     inkscape:window-height="858"
     id="namedview75"
     showgrid="false"
     inkscape:zoom="0.5894754"
     inkscape:cx="272.13072"
     inkscape:cy="227.41622"
     inkscape:window-x="-11"
     inkscape:window-y="-11"
     inkscape:window-maximized="1"
     inkscape:current-layer="aea587a3-a3e8-4e0f-8220-a5d1e661ad74" />
  <title
     id="title2">stand_out</title>
  <path
     d="m 746.70367,311.06995 c -1.79371,-4.61268 0.76881,-6.919 1.79389,-11.01912 1.02508,-4.10012 -2.30642,-16.91313 -2.30642,-16.91313 0,0 -10.76281,-44.33285 -14.09414,-53.04564 -1.40974,-3.687 -4.47141,-6.22337 -7.53464,-7.92661 -0.20773,-1.131 -0.50785,-1.86044 -0.92192,-2.06752 -2.96824,-1.48525 -10.36283,-4.7098 -15.29076,-5.60131 a 25.0035,25.0035 0 0 0 -3.25844,-4.40639 10.416,10.416 0 0 0 1.161,-5.39415 c -0.314,-4.83476 -3.97549,-9.16717 -3.49914,-13.98862 0.36127,-3.65663 3.03444,-6.66045 4.06613,-10.18708 a 11.97917,11.97917 0 0 0 -1.36155,-9.44679 q 1.13716,1.20964 2.27416,2.41925 a 8.49774,8.49774 0 0 0 -0.63407,-10.26749 c -2.4002,-2.65152 -6.414,-3.646 -8.27622,-6.69951 -1.9135,-3.1377 -0.88651,-7.40129 -2.69606,-10.60014 -4.43279,-7.83637 -15.78112,-2.28133 -22.57836,-5.01644 -2.79331,-1.124 -4.91662,-2.361 -8.05936,-2.27216 a 31.49047,31.49047 0 0 0 -7.86147,1.46812 16.60916,16.60916 0 0 0 -9.00972,6.4582 5.57887,5.57887 0 0 1 0.70383,-0.67282 c 1.64714,-1.29074 4.5357,-1.18327 5.4055,0.72 a 3.18861,3.18861 0 0 1 0.25375,1.52035 c -0.14292,2.29447 -2.14724,4.00789 -4.13885,5.15611 -1.99161,1.14822 -4.23246,2.10887 -5.53225,4.005 -2.14523,3.12917 -0.88381,7.32856 -0.88276,11.12246 a 16.124,16.124 0 0 1 -6.11072,12.5203 l 7.231,-2.9562 a 54.65,54.65 0 0 0 -6.678,19.58333 l 9.777,-8.07711 a 42.99171,42.99171 0 0 0 -6.42136,19.0838 l 7.84772,-8.04114 a 3.96845,3.96845 0 0 1 0.51784,2.06429 l -0.81839,3.15644 a 20.50769,20.50769 0 0 1 -0.96019,1.83208 c -1.26282,2.16846 -2.56844,4.83755 -1.3873,7.05159 l 0.006,-0.003 c -1.24316,4.18287 -3.11856,8.36822 -7.29073,10.40215 4.62765,0.48418 9.45737,-1.82964 11.5471,-5.51232 a 10.30975,10.30975 0 0 0 1.22759,1.86039 c 0.13449,0.16819 0.26706,0.33512 0.39981,0.50223 l -1.15322,0.76881 -3.09046,2.06034 c 0,0 -20.24453,4.10014 -18.96327,11.78793 0.0527,0.31625 0.11587,0.69365 0.187,1.11707 l -5.8247,9.902 -8.45647,28.701 c 0,0 -4.35642,9.22537 -3.58769,13.06924 0.76873,3.84387 0,5.38145 0,12.30043 0,6.91898 -3.33138,9.73786 0,15.37554 3.33138,5.63768 13.32542,22.03829 13.32542,22.03829 l 2.19525,1.64644 a 10.256,10.256 0 0 0 0.11118,2.96624 c 2.05,10.25036 21.26952,108.39761 21.26952,108.39761 0,0 -9.7379,77.64649 9.994,82.5154 2.47484,0.61066 4.90514,1.16474 7.266,1.658 l 2.98442,19.61151 -1.79389,24.85713 c 0,0 -13.58169,30.75107 11.27543,32.54492 24.85712,1.79385 13.5817,-26.651 13.5817,-26.651 a 13.51031,13.51031 0 0 0 1.53761,-7.944 c -0.25348,-2.28125 -2.38724,-14.152 -4.47958,-25.56935 9.43335,-1.13117 7.66826,-11.14274 6.41126,-15.54465 a 2.54913,2.54913 0 0 0 1.14339,-1.425 c 0.28393,-1.02225 -0.37719,-5.04349 -1.57677,-10.67878 -0.97706,-5.602 -2.64673,-14.67092 -3.78576,-20.81422 l 6.13134,0.99816 25.8822,-151.70538 c 0,0 0.17068,-2.41508 0.0927,-5.94732 a 96.0791,96.0791 0 0 1 10.92635,-4.81558 c 8.45656,-3.33138 11.78789,-15.63181 14.60677,-20.757 2.81888,-5.12519 -1.02494,-6.66255 -2.81883,-11.27523 z m -91.8956,-96.59119 a 5.48186,5.48186 0 0 1 2.83489,-0.96149 c -0.219,1.19193 -2.26894,1.54023 -3.98784,2.16442 a 5.07424,5.07424 0 0 1 1.15295,-1.20293 z m -12.91431,76.3467 c 2.07617,3.41093 -1.68281,12.6537 -5.07016,19.98853 -1.94125,-1.67263 -3.967,-1.14526 -1.5926,-5.89425 a 24.10832,24.10832 0 0 0 2.8188,-9.73786 c 0,-0.586 0.30046,-4.89123 2.8254,-6.67972 a 13.48411,13.48411 0 0 0 1.01856,2.3233 z m -7.77726,29.43893 c 1.17487,-0.47822 2.954,-1.2128 5.3567,-2.02984 -1.15113,1.51082 -2.46536,3.31084 -3.78716,5.27575 a 3.96917,3.96917 0 0 1 -1.56954,-3.24591 z m 83.11736,3.36226 c -1.558,-1.65536 -2.81688,-3.136 -3.85326,-4.46084 q 2.89934,0.76307 5.90342,1.642 a 7.02461,7.02461 0 0 0 2.98581,-0.19894 c 0.0889,1.77153 0.0893,4.29909 0.0893,4.29909 l -2.80679,1.94312 a 16.4625,16.4625 0 0 0 -2.31844,-3.22438 z m 7.95254,-8.88737 c -0.0299,0.026 -0.0621,0.056 -0.0929,0.0833 a 16.99686,16.99686 0 0 0 -0.68434,-2.9839 c -1.67941,-5.29664 -2.57679,-14.69424 -3.05428,-22.71389 l 4.84808,16.3074 c 0,0 0.25627,8.20029 -1.01656,9.30705 z"
     id="path4"
     inkscape:connector-curvature="0"
     style="fill:#d0cde1" />
  <path
     d="m 625.64399,247.3835 c 0,0 -26.29048,-45.18676 -27.11206,-50.11622 -0.82158,-4.92946 -13.96679,-13.96682 -13.96679,-13.96682 -4.4913,-4.49129 -11.86012,-5.91241 -19.61536,-5.83849 2.92045,-2.416 -7.50653,-4.04009 -8.31827,-5.66359 -0.82158,-1.64316 -3.28631,-1.64316 -6.57262,-4.10789 -3.28611,-2.46458 -11.4889,-0.411 -11.4898,-0.41079 a 30.275,30.275 0 0 1 -2.54863,-8.188 22.90678,22.90678 0 0 0 5.41186,-14.81612 c 0,-0.059 -0.004,-0.117 -0.004,-0.17591 0.2091,0.32549 0.41826,0.65294 0.62757,0.99036 1.53895,-9.21888 4.25571,-16.8819 -0.92217,-25.29164 a 28.35654,28.35654 0 0 0 -16.13028,-12.33123 l -4.93167,3.94532 1.91735,-4.60177 a 26.10421,26.10421 0 0 0 -4.87431,-0.28171 l -4.43724,5.70506 1.83652,-5.50965 a 28.08546,28.08546 0 0 0 -19.37467,11.5246 c -5.64754,8.14322 -5.26955,19.46282 0.285,27.66972 0.0187,-0.0575 0.0334,-0.11373 0.0518,-0.1711 a 22.9969,22.9969 0 0 0 11.754,18.62154 l 1.39524,11.16225 v 0 a 7.65112,7.65112 0 0 1 -4.57449,2.01809 c -2.46473,0 -4.92946,6.57262 -4.92946,6.57262 0,0 -1.3969,0.705 -2.9025,4.03282 -3.87843,2.64034 -15.70886,10.93424 -20.09811,16.73 -2.59652,1.2778 -5.38569,4.11987 -4.933,10.45716 0.82158,11.50209 0,64.90462 0,64.90462 0,0 -7.39419,45.18676 -4.92946,48.47307 2.46473,3.28631 -0.82158,13.96681 -0.82158,13.96681 l 2.46473,0.54774 v 2.73857 c 0,0 -7.4134,34.36585 4.10789,32.8631 18.89628,-2.46473 4.92946,-30.39836 4.92946,-30.39836 v -3.19505 l 3.28631,0.73031 c 0,0 1.64316,-11.50208 4.92947,-12.32366 1.14306,-0.28577 2.48469,-3.35676 3.74875,-7.23814 0.73708,6.05527 1.18071,9.70287 1.18071,9.70287 l 5.14073,-1.1424 1.43189,5.25029 a 7.08643,7.08643 0 0 0 1.1041,0.50015 l -1.1041,6.07247 c 0,0 -0.82157,6.57262 0,10.68051 0.41435,2.07169 15.66488,46.35348 30.68184,89.74354 l -0.28347,10.4889 c 0,0 -7.3942,8.21578 -5.751,13.96682 1.6432,5.75104 -4.10789,53.40253 -4.10789,53.40253 l -4.92947,23.82575 1.24034,0.38165 -1.13859,4.17483 a 8.28506,8.28506 0 0 0 -2.56648,2.01614 c -6.57262,7.39419 -14.78839,28.75521 -14.78839,28.75521 0,0 -14.7884,22.18259 8.21577,21.361 23.00417,-0.82159 24.64733,-9.03735 24.64733,-9.03735 0,0 3.2863,-21.361 3.2863,-22.18259 0,-0.82159 -1.64315,-9.267 -1.64315,-9.267 l -0.6381,-0.70378 0.44559,-10.24866 4.3004,1.32318 c 0,0 4.10788,-21.361 7.39419,-23.82575 1.14853,-0.86139 4.20432,-10.457 7.69312,-22.782 3.56606,10.268 7.01956,45.77245 8.1401,48.99508 a 11.66829,11.66829 0 0 0 -1.04482,1.72057 199.63573,199.63573 0 0 1 -12.32366,20.53944 c 0,0 -26.29048,15.61 0,19.71786 0,0 14.78839,0.82158 22.18259,-4.10789 7.3942,-4.92947 27.11205,-12.32366 27.11205,-13.96681 0,-1.64315 -4.92946,-25.79756 -9.85893,-23.1685 v 0 l -3.30215,-7.59478 3.30215,-1.27824 -20.80019,-93.36382 a 47.14063,47.14063 0 0 0 1.08233,-6.04705 c 0,-4.3023 10.63809,-88.07723 13.34522,-109.32591 11.91428,3.37546 22.80419,-21.3049 22.80419,-21.3049 l 2.70082,-4.86152 3.8718,2.39678 c 0,0 3.28631,-8.21577 8.21577,-9.03735 4.92946,-0.82158 13.96682,-44.36518 13.96682,-50.11622 a 26.74193,26.74193 0 0 0 -2.46524,-10.68067 z m -38.27885,64.36972 a 22.13835,22.13835 0 0 0 -2.8,-3.573 101.74878,101.74878 0 0 0 4.92946,-17.25312 c 1.64316,-9.03736 -2.46473,-38.61414 -2.46473,-38.61414 l -0.0718,-2.00867 c 4.03237,5.29342 9.10916,12.35064 9.10916,14.33233 a 6.16182,6.16182 0 0 0 2.46473,4.92946 l -4.92946,17.25313 c 0,0 -3.28631,8.21577 -4.10789,12.32366 a 41.936,41.936 0 0 0 -0.82158,7.3942 l 1.16457,0.72088 z"
     id="path6"
     inkscape:connector-curvature="0"
     style="fill:#d0cde1" />
  <path
     d="m 249.52229,262.59029 4.384,-0.98641 -18.0747,-50.9378 -39.02493,-14.3776 c 0,0 -0.14948,0.16573 -0.42543,0.45145 -3.32873,-3.22152 -4.74162,-7.89614 -5.33178,-11.57574 a 22.997,22.997 0 0 0 10.72169,-33.77399 c 3.21575,-0.77188 4.36387,-3.68917 5.44315,-7.16789 a 14.3931,14.3931 0 0 0 -2.03955,-0.44408 q 0.75864,-1.701 1.51719,-3.402 -1.33317,-0.11974 -2.66632,-0.23944 0.34089,-1.5901 0.68172,-3.18025 -1.70015,1.17369 -3.40024,2.34734 a 6.94616,6.94616 0 0 0 -1.1579,-6.63164 13.26745,13.26745 0 0 0 -5.68685,-4.0099 25.37252,25.37252 0 0 0 -26.03635,4.55051 l -0.24566,-0.95742 a 33.04449,33.04449 0 0 0 -12.62057,21.87054 c -1.08815,8.57351 3.03047,17.30322 8.38386,24.0878 -0.0451,-0.29615 -0.0934,-0.59156 -0.14256,-0.88661 q 0.347,0.47823 0.71688,0.93811 l 0.65805,25.00662 -1.64817,1.41268 c -0.003,0.001 -27.65272,12.51066 -28.73054,27.45209 l -0.003,0.0109 c -1.65965,7.27375 -2.48123,45.06631 -2.48123,45.06631 h 2.27514 l -2.27514,14.7884 -14.78842,57.51045 c 0,0 -18.89628,24.64732 -2.46473,29.57679 10.21064,3.06321 13.12387,-8.78342 13.86672,-18.19325 0.59157,2.3324 2.36094,3.90916 5.85114,4.22643 0.27469,0.025 0.56794,0.0457 0.85161,0.0688 -7.76933,20.07815 -2.49477,85.3753 -2.49477,85.3753 -4.10789,8.21578 44.36518,64.90462 44.36518,64.90462 l 2.91875,-1.55666 0.63163,1.26316 c -1.62436,0.15575 -2.7288,0.2935 -2.7288,0.2935 v 25.4689 c 0,0 -7.3942,25.4689 2.46473,30.39836 2.55108,1.27554 5.21188,0.34761 7.75524,-1.72429 -0.48605,7.8598 -1.18262,19.58879 -1.18262,22.26373 0,4.10789 10.68051,11.50208 10.68051,11.50208 0,0 2.46473,9.03736 22.18259,9.03736 19.71786,0 4.92949,-23.82578 4.92949,-23.82578 l -10.6805,-23.82575 c 0,0 -0.79912,0.39084 -3.21757,-1.57786 l 0.86616,-9.52757 4.81614,0.42493 6.57262,-96.12456 c 0,0 5.751,-85.44405 6.57262,-98.58929 a 91.48467,91.48467 0 0 0 -0.29711,-12.63782 l 24.12266,-49.80215 z m -17.79856,31.87669 -2.46473,8.58921 v -18.99587 z m -102.56815,60.92711 c 0.0204,-3.01086 -0.129,-5.05984 -0.129,-5.05984 l 16.06183,-32.12366 -0.45186,9.94107 c 0,0 -12.8635,16.27158 -15.48097,27.24243 z m 37.66356,92.70787 15.61,-55.04569 9.03735,66.54777 -0.648,24.19326 a 38.572,38.572 0 0 1 -2.63828,-6.94013 c -2.46481,-9.85893 -21.36107,-28.75521 -21.36107,-28.75521 z"
     id="path8"
     inkscape:connector-curvature="0"
     style="fill:#d0cde1" />
  <path
     d="m 389.14895,578.86123 c -7.6979,-3.1697 -22.64079,-9.962 -24.45222,-13.5845 -1.81118,-3.62249 -10.86748,-31.69714 -10.86748,-31.69714 l -2.33222,0.16961 c -0.30066,-12.75381 -1.58473,-62.18277 -3.55437,-68.092 0,0 9.50909,-78.33723 -9.50921,-109.58151 l -3.42665,-13.84356 c 1.12457,-5.5496 0.98038,-18.40039 0.257,-20.57048 -0.90571,-2.7169 10.4148,-11.32046 7.24511,-16.75426 -3.16969,-5.4338 -11.77319,-23.99924 -11.77319,-23.99924 0,0 0.90559,-11.77325 -11.32052,-22.64079 0,0 -3.57283,-20.22688 -19.67266,-20.52824 -2.17646,-3.79841 -5.223,-9.83814 -4.32663,-12.52735 0.95981,-2.87926 4.62963,-11.85557 6.70233,-16.87981 a 21.695,21.695 0 0 0 3.16116,-1.75924 c 12.80441,-5.737 21.83067,-19.52818 21.83067,-35.639 0,-17.24643 -10.34014,-31.842 -24.58975,-36.73622 a 12.22024,12.22024 0 1 0 -23.64582,-4.38524 12.20966,12.20966 0 0 1 11.26582,-16.9557 12.27159,12.27159 0 0 1 2.36366,0.23306 12.21507,12.21507 0 0 0 -13.08729,20.39731 12.11628,12.11628 0 0 0 0.49895,1.31358 c -13.4084,5.41066 -22.97312,19.546 -22.97312,36.13321 0,15.38622 8.23191,28.65832 20.12535,34.81881 -0.0633,5.005 -1.30464,13.443 -8.207,18.58542 -3.56559,-1.62919 -8.51364,-3.41742 -11.6886,-2.6063 -1.64175,-1.27981 -4.11946,-1.70234 -7.49072,1.66887 -6.79219,6.79225 -12.6789,24.45209 -12.6789,35.31969 0,10.8676 1.3585,73.809 1.3585,73.809 0,0 -7.2451,2.7169 -2.2641,6.79225 a 5.87263,5.87263 0 0 0 3.65825,1.35945 l 4.94525,36.67715 c 0,0 -3.1697,35.31969 9.05641,35.77249 a 4.83715,4.83715 0 0 0 2.73664,-0.67178 l -9.07615,40.97241 c 0,0 -20.82949,13.5845 -37.13088,40.30064 -8.39621,13.76053 -12.58227,22.22579 -14.6732,27.20942 l -2.98671,-1.85167 -10.41468,19.92389 c 0,0 -23.09371,14.03735 -18.11271,24.45209 4.981,10.41474 9.50921,13.1317 9.50921,13.1317 l 3.1697,-1.35845 5.88648,10.8676 c 0,0 15.3958,22.188 40.30069,10.86754 a 9.10148,9.10148 0 0 0 0,-10.86754 c -4.07529,-5.88665 -14.49009,-18.5655 -14.49009,-18.5655 l 6.79219,-34.414 -1.40548,-0.87141 43.06468,-52.10807 c 0,0 12.67879,-7.6979 17.207,-14.49015 4.52821,-6.79225 32.6028,-76.97878 32.6028,-76.97878 l 15.84848,73.35623 c 0,0 -0.90559,26.7162 3.1697,43.92319 a 186.43145,186.43145 0 0 1 4.33213,29.34855 l -1.16232,0.0845 2.7169,20.37675 c 0,0 -11.77319,28.98024 -3.62261,31.24429 a 119.40682,119.40682 0 0 0 17.6599,3.16975 l 0.9056,-3.16975 c 0,0 34.8669,19.01829 47.54568,4.981 -8e-5,-1.1e-4 2.71694,-9.96206 -4.98096,-13.13181 z M 265.07714,356.52844 c 1.35851,1.35845 0.90572,7.69785 0.90572,7.69785 l -2.7169,17.65984 -2.7134,12.24907 a 131.573,131.573 0 0 0 -2.26761,-17.23 l -1.25345,-33.84282 a 2.61532,2.61532 0 0 0 0.80066,0.33437 c 0.90559,0 0.45279,-7.69784 0.45279,-7.69784 0,0 0.52852,-1.37475 1.188,-3.54432 1.76047,5.27 3.90959,8.7086 6.50988,9.43092 l 0.45279,5.88659 c 0,0 -5.88659,2.7169 -0.45279,2.7169 a 4.277,4.277 0 0 0 0.93328,-0.13864 l -0.48049,2.40274 c 0,0 -2.71685,2.71689 -1.35848,4.07534 z"
     id="path10"
     inkscape:connector-curvature="0"
     style="fill:#d0cde1" />
  <ellipse
     cx="424.73047"
     cy="666.38385"
     rx="196.5"
     ry="15.5"
     id="ellipse16"
     style="fill:#dcdcdc" />
  <g
     id="g905"
     transform="matrix(0.80068431,0,0,0.84595039,78.925048,92.060498)">
    <polygon
       style="fill:#d0cde1;fill-opacity:1"
       id="polygon24"
       points="489.909,579.455 487.909,550.455 465.909,553.455 469.909,581.455 " />
    <polygon
       style="fill:#d0cde1;fill-opacity:1"
       id="polygon26"
       points="346.909,579.455 348.909,550.455 370.909,553.455 366.909,581.455 " />
    <path
       style="fill:#d0cde1;fill-opacity:1"
       id="path28"
       transform="translate(-120.35886,-107.0223)"
       d="m 462.26785,370.4777 c 0,0 -18,21 -14,54 4,33 11,108 11,108 l 5,133 32,-2 5,-113 16,-91 43,106 c 0,0 21,99 22,99 1,0 30,-3 30,-3 l -14,-117 c 0,0 -22,-170 -35,-173 -13,-3 -101,-1 -101,-1 z"
       inkscape:connector-curvature="0" />
    <path
       style="fill:#d0cde1;fill-opacity:1"
       id="path30"
       transform="translate(-120.35886,-107.0223)"
       d="m 612.26785,682.4777 c 0,0 -18,-12 -25,2 -7,14 -1,24 -1,24 0,0 6,4 3,8 -3,4 -4,30 22,26 26,-4 13,-31 13,-31 z"
       inkscape:connector-curvature="0" />
    <path
       style="fill:#d0cde1;fill-opacity:1"
       id="path32"
       transform="translate(-120.35886,-107.0223)"
       d="m 465.26785,682.4777 c 0,0 18,-12 25,2 7,14 1,24 1,24 0,0 -6,4 -3,8 3,4 4,30 -22,26 -26,-4 -13,-31 -13,-31 z"
       inkscape:connector-curvature="0" />
    <path
       style="fill:#d0cde1;fill-opacity:1"
       id="path34"
       transform="translate(-120.35886,-107.0223)"
       d="m 486.76785,175.9777 c 0,0 9,25 2,39 -7,14 11,30 11,30 0,0 47,-24 41,-36 -6,-12 -16,-28 -14,-38 z"
       inkscape:connector-curvature="0" />
    <circle
       style="fill:#d0cde1;fill-opacity:1"
       id="circle36"
       r="32"
       cy="46.455399"
       cx="383.909" />
    <path
       style="fill:#d0cde1;fill-opacity:1"
       id="path38"
       transform="translate(-120.35886,-107.0223)"
       d="m 481.26785,213.4777 c 0,0 32.108,26.71833 56.054,-11.14083 l 24.946,14.14083 13,152 c 0,0 -73,42 -108,6 l 5,-141 z"
       inkscape:connector-curvature="0" />
    <polygon
       style="fill:#d0cde1;fill-opacity:1"
       id="polygon40"
       points="325.909,121.455 341.909,195.455 320.909,310.455 354.909,259.455 370.992,91.488 " />
    <path
       style="fill:#d0cde1;fill-opacity:1"
       id="path42"
       transform="translate(-120.35886,-107.0223)"
       d="m 531.1951,190.16924 11.07275,7.30846 45,16 -7,124 19,80 -27,14 c 0,0 -5,-38 -36,-57 -31,-19 -12.1455,-178.61692 -5.07275,-184.30846 z"
       inkscape:connector-curvature="0" />
    <path
       style="fill:#d0cde1;fill-opacity:1"
       id="path44"
       transform="translate(-120.35886,-107.0223)"
       d="m 456.26785,384.4777 13,9 c 0,0 -16.5,17.5 -19.5,14.5 a 8.19972,8.19972 0 0 1 -2.5,-6.5 l -3,-7 z"
       inkscape:connector-curvature="0" />
    <path
       style="fill:#d0cde1;fill-opacity:1"
       id="path46"
       transform="translate(-120.35886,-107.0223)"
       d="m 542.6875,382.53227 -4.41965,6.94543 c 0,0 -13,6 -10,10 3,4 28,13 33,4 l 5,-9 z"
       inkscape:connector-curvature="0" />
    <path
       style="fill:#d0cde1;fill-opacity:1"
       id="path48"
       transform="translate(-120.35886,-107.0223)"
       d="m 452.26785,227.4777 -7,1 -11.5,74.5 c 0,0 -4.5,13.5 0.5,45.5 5,32 9.95137,52.83775 9.95137,52.83775 l 22.04863,-15.83775 -10,-26 13,-95 z"
       inkscape:connector-curvature="0" />
    <path
       style="fill:#d0cde1;fill-opacity:1"
       id="path50"
       transform="translate(-120.35886,-107.0223)"
       d="m 571.26785,211.4777 16,2 c 0,0 18,19 21,39 3,20 2,77 2,77 l -46,73 -25,-18 35,-62 -17,-74 z"
       inkscape:connector-curvature="0" />
    <path
       style="fill:#d0cde1;fill-opacity:1"
       id="path52"
       transform="translate(-120.35886,-107.0223)"
       d="m 534.7832,124.53543 a 37.38374,37.38374 0 0 0 -21.26531,-16.25685 l -6.50165,5.2013 2.52773,-6.06673 a 34.41439,34.41439 0 0 0 -6.426,-0.3714 l -5.84983,7.52125 2.42117,-7.26362 a 37.02632,37.02632 0 0 0 -25.54254,15.19343 c -7.44543,10.73558 -8.70175,25.66535 -1.37889,36.48489 2.01023,-6.17759 4.45,-11.97424 6.46026,-18.1519 a 18.28485,18.28485 0 0 0 4.763,0.0232 l 2.44576,-5.70663 0.68317,5.46527 c 7.58041,-0.66049 18.82405,-2.11039 26.01059,-3.43891 l -0.69877,-4.19261 4.18084,3.48406 c 2.20182,-0.50692 3.50905,-0.96651 3.401,-1.31781 5.34476,8.61641 10.64059,14.11989 15.98521,22.73623 2.02888,-12.15368 5.61051,-22.25621 -1.21574,-33.34317 z"
       inkscape:connector-curvature="0" />
    <ellipse
       style="fill:#d0cde1;fill-opacity:1"
       id="ellipse54"
       ry="4.3325"
       rx="2.16625"
       cy="45.450069"
       cx="412.65237" />
  </g>
  <path
     d="m 959.19454,51.18703 c 0.029,-0.0912 0.059,-0.18353 0.088,-0.275 -0.012,0.0401 -0.028,0.0787 -0.04,0.11889 z"
     id="path68"
     inkscape:connector-curvature="0"
     style="fill:#2f2e41" />
  <g
     id="g1255"
     transform="matrix(0.95409432,0,0,1,191.69276,-67.134933)">
    <rect
       id="rect1076"
       height="18.5"
       width="2"
       y="622.90778"
       x="755.24847"
       style="fill:#f2f2f2" />
    <rect
       id="rect1086"
       height="18.5"
       width="2"
       y="542.90778"
       x="499.2485"
       style="fill:#f2f2f2" />
    <polygon
       id="polygon1096"
       points="362.06,702.184 125.274,702.184 125.274,700.481 360.356,700.481 360.356,617.861 145.18,617.861 134.727,596.084 136.263,595.347 146.252,616.157 362.06,616.157 "
       style="fill:#2f2e41" />
    <circle
       id="circle1098"
       r="17.88673"
       cy="726.03302"
       cx="156.78851"
       style="fill:#9400d3;fill-opacity:1" />
    <circle
       id="circle1100"
       r="17.88673"
       cy="726.03302"
       cx="333.10052"
       style="fill:#9400d3" />
    <circle
       id="circle1102"
       r="11.07274"
       cy="346.15302"
       cx="540.92725"
       style="fill:#9400d3" />
    <path
       id="path1104"
       transform="translate(-152,-76.01429)"
       d="M 539.38538,665.76747 H 273.23673 L 215.64844,477.531 h 383.04412 l -0.34852,1.10753 z m -264.8885,-1.7035 H 538.136 L 596.37017,479.23446 H 217.95082 Z"
       inkscape:connector-curvature="0"
       style="fill:#2f2e41" />
    <polygon
       id="polygon1106"
       points="366.61,579.958 132.842,579.958 82.26,413.015 418.701,413.015 418.395,413.998 "
       style="fill:#00ffff" />
    <polygon
       id="polygon1108"
       points="526.448,343.598 462.37,343.598 451.465,384.7 449.818,384.263 461.059,341.894 526.448,341.894 "
       style="fill:#2f2e41" />
    <rect
       id="rect1110"
       height="1.7035"
       width="345.29309"
       y="458.58386"
       x="82.2584"
       style="fill:#2f2e41" />
    <rect
       id="rect1112"
       height="1.7035"
       width="306.31851"
       y="521.34375"
       x="101.45894"
       style="fill:#2f2e41" />
    <rect
       id="rect1114"
       height="186.533"
       width="1.7035"
       y="402.36844"
       x="254.31377"
       style="fill:#2f2e41" />
    <rect
       id="rect1116"
       transform="rotate(-86.24919,362.44141,614.78759)"
       height="1.7037899"
       width="186.92877"
       y="570.7973"
       x="385.55746"
       style="fill:#2f2e41" />
    <rect
       id="rect1118"
       transform="rotate(-3.729,-908.23192,2868.2851)"
       height="186.92877"
       width="1.7037899"
       y="478.18484"
       x="334.45728"
       style="fill:#2f2e41" />
    <rect
       id="rect1168"
       height="18.5"
       width="2"
       y="255.40779"
       x="289.2485"
       style="fill:#f2f2f2" />
    <rect
       id="rect1174"
       height="18.5"
       width="2"
       y="254.40779"
       x="51.248501"
       style="fill:#f2f2f2" />
  </g>
  <rect
     style="opacity:0.381;fill:#a9a9a9;fill-opacity:1;fill-rule:nonzero;stroke:#47ffff;stroke-width:0.1;stroke-miterlimit:4;stroke-dasharray:none;stroke-opacity:1"
     id="rect1250"
     width="20.734066"
     height="10.367033"
     x="685.3576"
     y="423.76053" />
  <g
     id="g1278"
     transform="translate(-21.111801,0.37462)">
    <rect
       transform="matrix(-0.19175903,-0.98144204,-0.91226763,0.40959464,0,0)"
       y="-247.07631"
       x="-409.72757"
       height="13.696942"
       width="82.794945"
       id="rect1248"
       style="opacity:0.81099997;fill:#9400d3;fill-opacity:1;fill-rule:nonzero;stroke:#47ffff;stroke-width:0.04486165;stroke-miterlimit:4;stroke-dasharray:none;stroke-opacity:1" />
    <rect
       transform="matrix(-0.78191591,-0.62338392,-0.76987272,0.63819745,0,0)"
       y="83.770454"
       x="-430.37411"
       height="16.302473"
       width="69.509613"
       id="rect1248-0"
       style="opacity:0.81099997;fill:#9400d3;fill-opacity:1;fill-rule:nonzero;stroke:#47ffff;stroke-width:0.04484465;stroke-miterlimit:4;stroke-dasharray:none;stroke-opacity:1" />
    <rect
       transform="matrix(-0.99921108,-0.03971432,-0.0880923,0.99611232,0,0)"
       y="341.05182"
       x="-260.32608"
       height="12.404169"
       width="74.192657"
       id="rect1248-0-0"
       style="opacity:0.81099997;fill:#9400d3;fill-opacity:1;fill-rule:nonzero;stroke:#47ffff;stroke-width:0.04041344;stroke-miterlimit:4;stroke-dasharray:none;stroke-opacity:1" />
  </g>
</svg>
