<?xml version="1.0" encoding="UTF-8" standalone="no"?>
<svg
   xmlns:dc="http://purl.org/dc/elements/1.1/"
   xmlns:cc="http://creativecommons.org/ns#"
   xmlns:rdf="http://www.w3.org/1999/02/22-rdf-syntax-ns#"
   xmlns:svg="http://www.w3.org/2000/svg"
   xmlns="http://www.w3.org/2000/svg"
   xmlns:sodipodi="http://sodipodi.sourceforge.net/DTD/sodipodi-0.dtd"
   xmlns:inkscape="http://www.inkscape.org/namespaces/inkscape"
   id="be3e1a43-0c7b-454d-900a-5620992e061d"
   data-name="Layer 1"
   width="1030"
   height="500"
   viewBox="0 0 1030 500"
   version="1.1"
   sodipodi:docname="empty-sms-credits.svg"
   inkscape:version="0.92.3 (2405546, 2018-03-11)">
  <metadata
     id="metadata139">
    <rdf:RDF>
      <cc:Work
         rdf:about="">
        <dc:format>image/svg+xml</dc:format>
        <dc:type
           rdf:resource="http://purl.org/dc/dcmitype/StillImage" />
        <dc:title></dc:title>
      </cc:Work>
    </rdf:RDF>
  </metadata>
  <defs
     id="defs137" />
  <sodipodi:namedview
     pagecolor="#ffffff"
     bordercolor="#666666"
     borderopacity="1"
     objecttolerance="10"
     gridtolerance="10"
     guidetolerance="10"
     inkscape:pageopacity="0"
     inkscape:pageshadow="2"
     inkscape:window-width="1440"
     inkscape:window-height="858"
     id="namedview135"
     showgrid="false"
     inkscape:zoom="0.57875767"
     inkscape:cx="495.3667"
     inkscape:cy="294.51761"
     inkscape:window-x="-11"
     inkscape:window-y="-11"
     inkscape:window-maximized="1"
     inkscape:current-layer="be3e1a43-0c7b-454d-900a-5620992e061d" />
  <rect
     x="871.99152"
     y="230.74994"
     width="30.159439"
     height="104.39806"
     id="rect2"
     style="fill:#f2f2f2" />
  <polygon
     points="613.316,268.556 613.316,449.513 921.871,449.513 921.871,268.556 922.068,266.317 848.715,179.052 701.475,180.398 612.156,267.396 613.961,268.556 "
     id="polygon4"
     style="fill:#f2f2f2"
     transform="translate(0,49.1919)" />
  <polygon
     points="757.154,449.513 921.871,449.513 921.871,266.236 848.792,179.238 757.154,286.674 "
     id="polygon6"
     style="fill:#e6e6e6"
     transform="translate(0,49.1919)" />
  <rect
     x="823.2724"
     y="408.65271"
     width="33.6394"
     height="29.73333"
     id="rect8"
     style="fill:#3f3d56" />
  <rect
     x="823.2724"
     y="357.18756"
     width="33.6394"
     height="29.26181"
     id="rect10"
     style="fill:#3f3d56" />
  <rect
     x="823.2724"
     y="408.65271"
     width="33.6394"
     height="29.73333"
     id="rect12"
     style="fill:#ffffff" />
  <rect
     x="823.2724"
     y="357.18756"
     width="33.6394"
     height="29.26181"
     id="rect14"
     style="fill:#ffffff" />
  <rect
     x="673.77661"
     y="400.76318"
     width="33.6394"
     height="29.73333"
     id="rect16"
     style="fill:#ffffff" />
  <rect
     x="673.77661"
     y="349.29803"
     width="33.6394"
     height="29.26181"
     id="rect18"
     style="fill:#ffffff" />
  <rect
     x="633.99152"
     y="230.74994"
     width="30.159439"
     height="104.39806"
     id="rect20"
     style="fill:#f2f2f2" />
  <polygon
     points="375.316,268.556 375.316,449.513 683.871,449.513 683.871,268.556 684.068,266.317 610.715,179.052 463.475,180.398 374.156,267.396 375.961,268.556 "
     id="polygon22"
     style="fill:#f2f2f2"
     transform="translate(0,49.1919)" />
  <polygon
     points="519.154,449.513 683.871,449.513 683.871,266.236 610.792,179.238 519.154,286.674 "
     id="polygon24"
     style="fill:#e6e6e6"
     transform="translate(0,49.1919)" />
  <rect
     x="640.13721"
     y="410.76318"
     width="33.6394"
     height="29.73333"
     id="rect26"
     style="fill:#3f3d56" />
  <rect
     x="585.2724"
     y="357.18756"
     width="33.6394"
     height="29.26181"
     id="rect28"
     style="fill:#3f3d56" />
  <rect
     x="640.13721"
     y="410.76318"
     width="33.6394"
     height="29.73333"
     id="rect30"
     style="fill:#ffffff" />
  <rect
     x="585.2724"
     y="357.18756"
     width="33.6394"
     height="29.26181"
     id="rect32"
     style="fill:#ffffff" />
  <rect
     x="435.77661"
     y="400.76318"
     width="33.6394"
     height="29.73333"
     id="rect34"
     style="fill:#ffffff" />
  <rect
     x="435.77661"
     y="349.29803"
     width="33.6394"
     height="29.26181"
     id="rect36"
     style="fill:#ffffff" />
  <rect
     x="380.15359"
     y="140.65213"
     width="40.30032"
     height="139.50111"
     id="rect38"
     style="fill:#f2f2f2" />
  <polygon
     points="34.501,207.711 34.501,449.513 446.804,449.513 446.804,207.711 447.068,204.718 349.051,88.112 152.302,89.91 32.951,206.161 35.362,207.711 "
     id="polygon40"
     style="fill:#f2f2f2"
     transform="translate(0,49.1919)" />
  <polygon
     points="226.702,449.513 446.804,449.513 446.804,204.611 349.153,88.36 226.702,231.921 "
     id="polygon42"
     style="fill:#e6e6e6"
     transform="translate(0,49.1919)" />
  <rect
     x="315.05307"
     y="378.37335"
     width="44.95039"
     height="39.730942"
     id="rect44"
     style="fill:#3f3d56" />
  <rect
     x="315.05307"
     y="309.60345"
     width="44.95039"
     height="39.10088"
     id="rect46"
     style="fill:#3f3d56" />
  <rect
     x="315.05307"
     y="378.37335"
     width="44.95039"
     height="39.730942"
     id="rect48"
     style="fill:#ffffff" />
  <rect
     x="315.05307"
     y="309.60345"
     width="44.95039"
     height="39.10088"
     id="rect50"
     style="fill:#ffffff" />
  <rect
     x="115.29041"
     y="367.83105"
     width="44.95039"
     height="39.730942"
     id="rect52"
     style="fill:#ffffff" />
  <rect
     x="115.29041"
     y="299.0611"
     width="44.95039"
     height="39.10088"
     id="rect54"
     style="fill:#ffffff" />
  <rect
     y="497.81189"
     width="963.95081"
     height="2"
     id="rect56"
     x="0"
     style="fill:#3f3d56" />
  <ellipse
     cx="151.87222"
     cy="401.66394"
     rx="29.099319"
     ry="59.374371"
     id="ellipse58"
     style="fill:#c0c0c0" />
  <path
     d="m 154.55943,498.8502 c -11.65458,-69.92526 -0.11734,-139.59789 5.6e-4,-140.29293 l 2.267,0.384 c -0.11734,0.69167 -11.58834,69.99825 5.6e-4,139.53164 z"
     id="path60"
     inkscape:connector-curvature="0"
     style="fill:#6c63ff" />
  <rect
     x="-56.7561"
     y="426.63733"
     width="29.84136"
     height="2.29972"
     transform="rotate(-28.1416)"
     id="rect62"
     style="fill:#6c63ff" />
  <rect
     x="-292.63864"
     y="296.60657"
     width="2.29972"
     height="29.84239"
     transform="rotate(-61.84204)"
     id="rect64"
     style="fill:#6c63ff" />
  <ellipse
     cx="81.9552"
     cy="310.09534"
     rx="56.914841"
     ry="116.12927"
     id="ellipse66"
     style="fill:#d3d3d3;fill-opacity:1" />
  <path
     d="M 88.29461,500 C 65.53002,363.41471 88.06498,227.32684 88.29517,225.96819 l 2.267,0.384 c -0.22962,1.35528 -22.69834,137.0771 5.7e-4,273.27052 z"
     id="path68"
     inkscape:connector-curvature="0"
     style="fill:#3f3d56" />
  <rect
     x="-76.394684"
     y="314.80475"
     width="58.367611"
     height="2.29972"
     transform="rotate(-28.1416)"
     id="rect70"
     style="fill:#3f3d56" />
  <rect
     x="-253.53529"
     y="166.09619"
     width="2.29972"
     height="58.367611"
     transform="rotate(-61.84258)"
     id="rect72"
     style="fill:#3f3d56" />
  <ellipse
     cx="216.75351"
     cy="240.19989"
     rx="77.883469"
     ry="158.91374"
     id="ellipse74"
     style="fill:#dcdcdc" />
  <path
     d="m 225.84671,499.99999 c -31.1399,-186.83717 -0.3144,-372.99219 5.6e-4,-374.8505 l 2.267,0.384 c -0.3144,1.85494 -31.07366,187.64392 5.6e-4,374.08921 z"
     id="path76"
     inkscape:connector-curvature="0"
     style="fill:#3f3d56" />
  <rect
     x="74.549347"
     y="318.17303"
     width="79.871262"
     height="2.29972"
     transform="rotate(-28.1416)"
     id="rect78"
     style="fill:#3f3d56" />
  <rect
     x="-134.81134"
     y="232.61737"
     width="2.29972"
     height="79.871262"
     transform="rotate(-61.84329)"
     id="rect80"
     style="fill:#3f3d56" />
  <ellipse
     cx="871.02936"
     cy="401.66394"
     rx="29.099319"
     ry="59.374371"
     id="ellipse82"
     style="fill:#d3d3d3" />
  <path
     d="m 868.34214,498.8502 c 11.65459,-69.92526 0.11734,-139.59789 -5.6e-4,-140.29293 l -2.267,0.384 c 0.11733,0.69167 11.58833,69.99825 -5.6e-4,139.53164 z"
     id="path84"
     inkscape:connector-curvature="0"
     style="fill:#6c63ff" />
  <rect
     x="53.516724"
     y="928.89368"
     width="2.29972"
     height="29.84136"
     transform="rotate(-61.8584)"
     id="rect86"
     style="fill:#6c63ff" />
  <rect
     x="575.39221"
     y="773.05023"
     width="29.84239"
     height="2.29972"
     transform="rotate(-28.15796)"
     id="rect88"
     style="fill:#6c63ff" />
  <ellipse
     cx="940.94635"
     cy="310.09534"
     rx="56.914841"
     ry="116.12927"
     id="ellipse90"
     style="fill:#dcdcdc" />
  <path
     d="m 934.60691,500 c 22.7646,-136.58529 0.2296,-272.67316 -5e-4,-274.03181 l -2.267,0.384 c 0.2296,1.35528 22.6983,137.0771 -6e-4,273.27052 z"
     id="path92"
     inkscape:connector-curvature="0"
     style="fill:#3f3d56" />
  <rect
     x="165.34932"
     y="920.00598"
     width="2.29972"
     height="58.367611"
     transform="rotate(-61.8584)"
     id="rect94"
     style="fill:#3f3d56" />
  <rect
     x="677.38177"
     y="733.93854"
     width="58.367611"
     height="2.29972"
     transform="rotate(-28.15742)"
     id="rect96"
     style="fill:#3f3d56" />
  <ellipse
     cx="806.14807"
     cy="240.19989"
     rx="77.883469"
     ry="158.91374"
     id="ellipse98"
     style="fill:#dcdcdc" />
  <path
     d="m 797.05487,499.99999 c 31.1399,-186.83717 0.31439,-372.99219 -5.6e-4,-374.8505 l -2.267,0.384 c 0.3144,1.85494 31.07365,187.64392 -5.6e-4,374.08921 z"
     id="path100"
     inkscape:connector-curvature="0"
     style="fill:#3f3d56" />
  <rect
     x="161.98103"
     y="747.55835"
     width="2.29972"
     height="79.871262"
     transform="rotate(-61.8584)"
     id="rect102"
     style="fill:#3f3d56" />
  <rect
     x="589.3631"
     y="615.20312"
     width="79.871262"
     height="2.29972"
     transform="rotate(-28.15671)"
     id="rect104"
     style="fill:#3f3d56" />
  <path
     d="m 569.60437,126.65781 9.20569,-7.3628 c -7.15149,-0.789 -10.0899,3.11127 -11.29248,6.19837 -5.587,-2.32 -11.66919,0.72046 -11.66919,0.72046 l 18.41889,6.6867 a 13.93792,13.93792 0 0 0 -4.66291,-6.24273 z"
     id="path106"
     inkscape:connector-curvature="0"
     style="fill:#3f3d56" />
  <path
     d="m 364.60437,85.65781 9.20569,-7.3628 c -7.15149,-0.789 -10.0899,3.11127 -11.29248,6.19837 -5.587,-2.32 -11.66919,0.72046 -11.66919,0.72046 l 18.41889,6.6867 a 13.93792,13.93792 0 0 0 -4.66291,-6.24273 z"
     id="path108"
     inkscape:connector-curvature="0"
     style="fill:#3f3d56" />
  <path
     d="m 731.60437,56.65781 9.20569,-7.3628 c -7.15149,-0.789 -10.0899,3.11127 -11.29248,6.19837 -5.587,-2.32 -11.66919,0.72046 -11.66919,0.72046 l 18.41889,6.6867 a 13.93792,13.93792 0 0 0 -4.66291,-6.24273 z"
     id="path110"
     inkscape:connector-curvature="0"
     style="fill:#3f3d56" />
  <path
     d="m 750.19095,486.24395 a 13.91772,13.91772 0 0 0 -6.96955,1.86975 14.98175,14.98175 0 0 0 -25.03045,11.13025 h 45.94952 a 13.99045,13.99045 0 0 0 -13.94952,-13 z"
     id="path112"
     inkscape:connector-curvature="0"
     style="fill:#3f3d56" />
  <path
     d="m 283.19095,486.24395 a 13.91772,13.91772 0 0 0 -6.96955,1.86975 14.98175,14.98175 0 0 0 -25.03045,11.13025 h 45.94952 a 13.99045,13.99045 0 0 0 -13.94952,-13 z"
     id="path114"
     inkscape:connector-curvature="0"
     style="fill:#3f3d56" />
  <path
     d="m 522.19095,486.24395 a 13.91772,13.91772 0 0 0 -6.96955,1.86975 14.98175,14.98175 0 0 0 -25.03045,11.13025 h 45.94952 a 13.99045,13.99045 0 0 0 -13.94952,-13 z"
     id="path116"
     inkscape:connector-curvature="0"
     style="fill:#3f3d56" />
  <polygon
     points="448.946,449.13 448.946,408.504 471.759,408.504 471.759,404.228 339.191,404.228 339.191,408.504 359.866,408.504 359.866,449.13 364.142,449.13 364.142,408.504 444.669,408.504 444.669,449.13 "
     id="polygon118"
     transform="translate(-108.67505,50.11395)"
     style="fill:#3f3d56" />
  <rect
     x="230.77686"
     y="441.54797"
     width="132.56808"
     height="4.2763901"
     id="rect120"
     style="fill:#3f3d56" />
  <rect
     x="230.77686"
     y="430.85706"
     width="132.56808"
     height="4.2763901"
     id="rect122"
     style="fill:#3f3d56" />
  <rect
     x="230.77686"
     y="420.16602"
     width="132.56808"
     height="4.2763901"
     id="rect124"
     style="fill:#3f3d56" />
  <polygon
     points="566.866,449.13 571.142,449.13 571.142,408.504 651.669,408.504 651.669,449.13 655.946,449.13 655.946,408.504 678.759,408.504 678.759,404.228 546.191,404.228 546.191,408.504 566.866,408.504 "
     id="polygon126"
     transform="translate(54.864819,51.30238)"
     style="fill:#3f3d56" />
  <rect
     x="601.31671"
     y="442.73645"
     width="132.56808"
     height="4.2763901"
     id="rect128"
     style="fill:#3f3d56" />
  <rect
     x="601.31671"
     y="432.04541"
     width="132.56808"
     height="4.2763901"
     id="rect130"
     style="fill:#3f3d56" />
  <rect
     x="601.31671"
     y="421.35449"
     width="132.56808"
     height="4.2763901"
     id="rect132"
     style="fill:#3f3d56" />
  <g
     id="g1204"
     transform="matrix(0.56149805,0,0,0.5425374,363.59772,240.82037)">
    <polygon
       id="polygon1134"
       points="410.282,303.914 473.668,139.109 512,153.853 438.488,344.984 120.064,344.984 65.305,71.187 0,71.187 0,30.118 98.973,30.118 153.733,303.914 "
       style="fill:#9932cc" />
    <path
       id="path1136"
       d="m 191.658,481.882 c -33.969,0 -61.604,-27.636 -61.604,-61.604 0,-33.968 27.636,-61.604 61.604,-61.604 33.968,0 61.604,27.636 61.604,61.604 0,33.968 -27.636,61.604 -61.604,61.604 z m 0,-82.139 c -11.323,0 -20.535,9.212 -20.535,20.535 0,11.323 9.212,20.535 20.535,20.535 11.323,0 20.535,-9.212 20.535,-20.535 0,-11.323 -9.212,-20.535 -20.535,-20.535 z"
       style="fill:#00ced1"
       inkscape:connector-curvature="0" />
    <path
       id="path1138"
       d="m 369.626,481.882 c -33.969,0 -61.604,-27.636 -61.604,-61.604 0,-33.968 27.636,-61.604 61.604,-61.604 33.968,0 61.604,27.636 61.604,61.604 0,33.968 -27.636,61.604 -61.604,61.604 z m 0,-82.139 c -11.323,0 -20.535,9.212 -20.535,20.535 0,11.323 9.212,20.535 20.535,20.535 11.323,0 20.535,-9.212 20.535,-20.535 -10e-4,-11.323 -9.212,-20.535 -20.535,-20.535 z"
       style="fill:#00ced1;fill-opacity:1"
       inkscape:connector-curvature="0" />
    <path
       id="path1140"
       d="m 383.316,149.329 c 0,16.264 -2.403,31.233 -7.208,44.91 -4.805,13.676 -11.458,25.504 -19.96,35.484 -8.501,9.979 -18.609,17.742 -30.309,23.286 -11.706,5.544 -24.338,8.317 -37.887,8.317 -13.803,0 -26.491,-2.772 -38.071,-8.317 -11.586,-5.544 -21.623,-13.307 -30.124,-23.286 -8.501,-9.98 -15.155,-21.808 -19.96,-35.484 -4.805,-13.676 -7.208,-28.646 -7.208,-44.91 0,-16.264 2.403,-31.233 7.208,-44.91 4.805,-13.677 11.458,-25.504 19.96,-35.484 8.501,-9.98 18.539,-17.8 30.124,-23.471 11.58,-5.666 24.268,-8.501 38.071,-8.501 13.549,0 26.18,2.835 37.887,8.501 11.701,5.672 21.808,13.491 30.309,23.471 8.501,9.98 15.155,21.808 19.96,35.484 4.805,13.676 7.208,28.646 7.208,44.91 z m -49.9,0 c 0,-9.853 -1.109,-18.91 -3.327,-27.167 -2.218,-8.252 -5.36,-15.339 -9.425,-21.253 -4.066,-5.914 -8.871,-10.47 -14.415,-13.676 -5.544,-3.199 -11.643,-4.805 -18.296,-4.805 -6.901,0 -13.122,1.606 -18.666,4.805 -5.544,3.206 -10.35,7.762 -14.415,13.676 -4.066,5.914 -7.208,13 -9.425,21.253 -2.218,8.259 -3.327,17.315 -3.327,27.167 0,9.858 1.109,18.851 3.327,26.983 2.218,8.132 5.36,15.155 9.425,21.069 4.066,5.914 8.871,10.475 14.415,13.676 5.544,3.205 11.765,4.805 18.666,4.805 6.653,0 12.752,-1.6 18.296,-4.805 5.544,-3.199 10.35,-7.762 14.415,-13.676 4.066,-5.914 7.208,-12.937 9.425,-21.069 2.218,-8.132 3.327,-17.125 3.327,-26.983 z"
       style="fill:#000000"
       inkscape:connector-curvature="0" />
    <polygon
       id="polygon1142"
       points="410.282,303.914 287.487,303.914 287.487,344.984 438.488,344.984 512,153.853 473.668,139.109 "
       style="fill:#4b0082" />
    <path
       id="path1144"
       d="m 376.108,104.419 c -4.805,-13.676 -11.458,-25.504 -19.96,-35.484 -8.501,-9.98 -18.609,-17.8 -30.309,-23.471 -11.706,-5.666 -24.338,-8.501 -37.887,-8.501 -0.157,0 -0.309,0.011 -0.465,0.012 V 82.44 c 0.156,-0.001 0.308,-0.014 0.465,-0.014 6.653,0 12.752,1.606 18.296,4.805 5.544,3.206 10.35,7.762 14.415,13.676 4.065,5.914 7.208,13.001 9.425,21.253 2.218,8.259 3.327,17.315 3.327,27.167 0,9.858 -1.109,18.851 -3.327,26.983 -2.218,8.132 -5.36,15.155 -9.425,21.069 -4.066,5.914 -8.871,10.475 -14.415,13.676 -5.544,3.205 -11.643,4.805 -18.296,4.805 -0.157,0 -0.309,-0.012 -0.465,-0.014 v 45.465 c 0.156,0.001 0.309,0.012 0.465,0.012 13.549,0 26.18,-2.772 37.887,-8.317 11.701,-5.544 21.808,-13.307 30.309,-23.286 8.501,-9.98 15.155,-21.808 19.96,-35.484 4.805,-13.676 7.208,-28.646 7.208,-44.91 0,-16.261 -2.403,-31.231 -7.208,-44.907 z"
       style="fill:#000000"
       inkscape:connector-curvature="0" />
    <g
       id="g1146">
</g>
    <g
       id="g1148">
</g>
    <g
       id="g1150">
</g>
    <g
       id="g1152">
</g>
    <g
       id="g1154">
</g>
    <g
       id="g1156">
</g>
    <g
       id="g1158">
</g>
    <g
       id="g1160">
</g>
    <g
       id="g1162">
</g>
    <g
       id="g1164">
</g>
    <g
       id="g1166">
</g>
    <g
       id="g1168">
</g>
    <g
       id="g1170">
</g>
    <g
       id="g1172">
</g>
    <g
       id="g1174">
</g>
  </g>
  <rect
     style="opacity:0.81099997;fill:#9400d3;fill-opacity:1;fill-rule:nonzero;stroke:#47ffff;stroke-width:0.04401155;stroke-miterlimit:4;stroke-dasharray:none;stroke-opacity:1"
     id="rect1248"
     width="82.665405"
     height="13.203421"
     x="29.641954"
     y="600.13367"
     transform="matrix(0.18371273,-0.98297998,0.90523814,0.42490459,0,0)" />
  <rect
     style="opacity:0.381;fill:#a9a9a9;fill-opacity:1;fill-rule:nonzero;stroke:#47ffff;stroke-width:0.1;stroke-miterlimit:4;stroke-dasharray:none;stroke-opacity:1"
     id="rect1250"
     width="20.734066"
     height="10.367033"
     x="514.896"
     y="176.89417" />
  <rect
     style="opacity:0.81099997;fill:#9400d3;fill-opacity:1;fill-rule:nonzero;stroke:#47ffff;stroke-width:0.04368172;stroke-miterlimit:4;stroke-dasharray:none;stroke-opacity:1"
     id="rect1248-0"
     width="67.678711"
     height="15.88636"
     x="195.50183"
     y="567.79907"
     transform="matrix(0.76816808,-0.64024823,0.75570355,0.65491385,0,0)" />
  <rect
     style="opacity:0.81099997;fill:#9400d3;fill-opacity:1;fill-rule:nonzero;stroke:#47ffff;stroke-width:0.03952044;stroke-miterlimit:4;stroke-dasharray:none;stroke-opacity:1"
     id="rect1248-0-0"
     width="70.973495"
     height="12.400076"
     x="594.55145"
     y="300.75748"
     transform="matrix(0.99913785,-0.04151565,0.08429168,0.99644112,0,0)" />
</svg>
