<?xml version="1.0" encoding="UTF-8" standalone="no"?>
<!-- Created with Inkscape (http://www.inkscape.org/) -->

<svg
   xmlns:dc="http://purl.org/dc/elements/1.1/"
   xmlns:cc="http://creativecommons.org/ns#"
   xmlns:rdf="http://www.w3.org/1999/02/22-rdf-syntax-ns#"
   xmlns:svg="http://www.w3.org/2000/svg"
   xmlns="http://www.w3.org/2000/svg"
   xmlns:sodipodi="http://sodipodi.sourceforge.net/DTD/sodipodi-0.dtd"
   xmlns:inkscape="http://www.inkscape.org/namespaces/inkscape"
   width="293.66422mm"
   height="170.24048mm"
   viewBox="0 0 293.66422 170.24048"
   version="1.1"
   id="svg829"
   inkscape:version="0.92.3 (2405546, 2018-03-11)"
   sodipodi:docname="empty-benefits.svg">
  <defs
     id="defs823" />
  <sodipodi:namedview
     id="base"
     pagecolor="#ffffff"
     bordercolor="#666666"
     borderopacity="1.0"
     inkscape:pageopacity="0.0"
     inkscape:pageshadow="2"
     inkscape:zoom="0.35"
     inkscape:cx="216.59587"
     inkscape:cy="462.28578"
     inkscape:document-units="mm"
     inkscape:current-layer="layer1"
     showgrid="false"
     inkscape:window-width="1440"
     inkscape:window-height="858"
     inkscape:window-x="-11"
     inkscape:window-y="-11"
     inkscape:window-maximized="1" />
  <metadata
     id="metadata826">
    <rdf:RDF>
      <cc:Work
         rdf:about="">
        <dc:format>image/svg+xml</dc:format>
        <dc:type
           rdf:resource="http://purl.org/dc/dcmitype/StillImage" />
        <dc:title></dc:title>
      </cc:Work>
    </rdf:RDF>
  </metadata>
  <g
     inkscape:label="Layer 1"
     inkscape:groupmode="layer"
     id="layer1"
     transform="translate(-82.937662,-126.45716)">
    <g
       transform="matrix(4.1177171,0,0,5.0070729,128.55637,-8.7338103)"
       id="g841"
       style="fill:#d3d3d3">
      <path
         style="fill:#d3d3d3;fill-opacity:1"
         id="path8"
         d="M 35,41 H 23 v 20 h 12 v -4 -6 z"
         inkscape:connector-curvature="0" />
      <path
         style="fill:#d3d3d3;fill-opacity:1"
         id="path10"
         d="M 5,41 H 17 V 61 H 5 Z"
         inkscape:connector-curvature="0" />
      <path
         style="fill:#d3d3d3;fill-opacity:1"
         id="path12"
         d="m 23,41 h 12 2 V 35 H 24 23 Z"
         inkscape:connector-curvature="0" />
      <path
         style="fill:#d3d3d3;fill-opacity:1"
         id="path14"
         d="M 17,35 H 16 3 v 6 h 2 12 z"
         inkscape:connector-curvature="0" />
      <path
         id="path16"
         d="m 17,41 h 6 v 20 h -6 z"
         inkscape:connector-curvature="0"
         style="fill:#808080" />
      <path
         id="path18"
         d="m 20,35 h -3 v 6 h 6 v -6 z"
         inkscape:connector-curvature="0"
         style="fill:#808080" />
      <path
         style="fill:#808080;fill-opacity:1"
         id="path20"
         d="m 23,35 h 1 a 4,4 0 1 0 -4,-4 v 4 z"
         inkscape:connector-curvature="0" />
      <path
         style="fill:#808080;fill-opacity:1"
         id="path22"
         d="m 20,35 v -4 a 4,4 0 1 0 -4,4 z"
         inkscape:connector-curvature="0" />
      <path
         style="fill:#d3d3d3;fill-opacity:1"
         id="path24"
         d="m 5,41 h 12 v 3 H 5 Z"
         inkscape:connector-curvature="0" />
      <path
         sodipodi:nodetypes="ccccc"
         inkscape:connector-curvature="0"
         style="fill:#d3d3d3;fill-opacity:1"
         id="path26"
         d="m 23,41 h 12 v 3 H 23.488281 Z" />
    </g>
    <g
       transform="matrix(0.26458333,0,0,0.26458333,243.11986,190.33358)"
       id="g876">
      <path
         inkscape:connector-curvature="0"
         id="path2"
         d="M 488.468,111.71 H 23.532 c -8.854,0 -16.032,7.178 -16.032,16.032 v 70.567 c 0,4.041 1.987,7.882 5.424,10.007 15.976,9.882 26.641,27.517 26.641,47.684 0,20.166 -10.665,37.802 -26.641,47.684 C 9.487,305.809 7.5,309.65 7.5,313.691 v 70.567 c 0,8.854 7.178,16.032 16.032,16.032 h 464.935 c 8.854,0 16.032,-7.178 16.032,-16.032 V 127.742 c 10e-4,-8.855 -7.177,-16.032 -16.031,-16.032 z"
         style="fill:#a9a9a9" />
      <path
         inkscape:connector-curvature="0"
         id="path4"
         d="M 472.435,376.242 H 151.79 c -4.427,0 -8.016,-3.589 -8.016,-8.016 V 143.775 c 0,-4.427 3.589,-8.016 8.016,-8.016 h 320.645 c 4.427,0 8.016,3.589 8.016,8.016 v 224.452 c 10e-4,4.427 -3.588,8.015 -8.016,8.015 z"
         style="fill:#f5f5f5" />
      <path
         inkscape:connector-curvature="0"
         id="path6"
         d="m 305.48,311.396 -41.55,26.085 c -9.157,5.749 -20.648,-2.6 -18.01,-13.085 l 11.969,-47.577 -37.648,-31.455 c -8.297,-6.932 -3.908,-20.441 6.879,-21.172 l 48.947,-3.319 18.282,-45.526 c 4.029,-10.033 18.233,-10.033 22.262,0 l 18.282,45.526 48.947,3.319 c 10.787,0.731 15.177,14.24 6.879,21.172 l -37.648,31.455 11.969,47.577 c 2.638,10.485 -8.853,18.834 -18.01,13.085 z"
         style="fill:#ffffff" />
      <path
         inkscape:connector-curvature="0"
         id="path8-3"
         d="M 359.826,303.673 C 307.883,300.498 263.844,268.344 243.72,223.067 l -16.6,1.125 c -10.787,0.731 -15.177,14.24 -6.879,21.172 l 37.648,31.455 -11.969,47.577 c -2.638,10.485 8.853,18.834 18.01,13.085 l 41.55,-26.085 41.549,26.085 c 9.157,5.749 20.648,-2.599 18.01,-13.085 z"
         style="fill:#fff6d8" />
      <path
         inkscape:connector-curvature="0"
         id="path12-9"
         d="m 111.71,240.484 c -4.143,0 -7.5,3.358 -7.5,7.5 v 16.032 c 0,4.142 3.357,7.5 7.5,7.5 4.143,0 7.5,-3.358 7.5,-7.5 v -16.032 c 0,-4.142 -3.357,-7.5 -7.5,-7.5 z" />
      <path
         inkscape:connector-curvature="0"
         id="path14-0"
         d="m 111.71,144.292 c -4.143,0 -7.5,3.358 -7.5,7.5 v 16.032 c 0,4.142 3.357,7.5 7.5,7.5 4.143,0 7.5,-3.358 7.5,-7.5 v -16.032 c 0,-4.144 -3.357,-7.5 -7.5,-7.5 z" />
      <path
         inkscape:connector-curvature="0"
         id="path16-2"
         d="m 111.71,192.387 c -4.143,0 -7.5,3.358 -7.5,7.5 v 16.032 c 0,4.142 3.357,7.5 7.5,7.5 4.143,0 7.5,-3.358 7.5,-7.5 v -16.032 c 0,-4.142 -3.357,-7.5 -7.5,-7.5 z" />
      <path
         inkscape:connector-curvature="0"
         id="path18-0"
         d="m 111.71,288.581 c -4.143,0 -7.5,3.358 -7.5,7.5 v 16.032 c 0,4.142 3.357,7.5 7.5,7.5 4.143,0 7.5,-3.358 7.5,-7.5 v -16.032 c 0,-4.143 -3.357,-7.5 -7.5,-7.5 z" />
      <path
         inkscape:connector-curvature="0"
         id="path20-9"
         d="m 111.71,336.677 c -4.143,0 -7.5,3.358 -7.5,7.5 v 16.032 c 0,4.142 3.357,7.5 7.5,7.5 4.143,0 7.5,-3.358 7.5,-7.5 v -16.032 c 0,-4.142 -3.357,-7.5 -7.5,-7.5 z" />
      <path
         inkscape:connector-curvature="0"
         id="path22-7"
         d="m 384.348,216.71 -44.25,-3 -16.526,-41.156 c -2.984,-7.43 -10.085,-12.23 -18.092,-12.23 -8.007,0 -15.107,4.801 -18.09,12.23 l -16.527,41.156 -44.25,3 c -7.987,0.542 -14.747,5.812 -17.221,13.426 -2.475,7.615 -0.104,15.852 6.041,20.985 l 34.035,28.437 -10.821,43.011 c -1.953,7.764 0.97,15.822 7.447,20.527 6.477,4.705 15.043,4.996 21.824,0.739 l 37.563,-23.582 37.562,23.581 c 3.196,2.007 6.788,3.003 10.372,3.003 4.019,0 8.027,-1.253 11.452,-3.741 6.478,-4.706 9.4,-12.764 7.447,-20.528 l -10.82,-43.011 34.034,-28.436 c 6.145,-5.133 8.516,-13.37 6.042,-20.984 -2.474,-7.616 -9.235,-12.887 -17.222,-13.427 z m 1.562,22.899 -37.647,31.456 c -2.209,1.846 -3.167,4.793 -2.465,7.585 l 11.969,47.577 c 0.669,2.66 -0.978,4.196 -1.717,4.733 -0.74,0.537 -2.711,1.627 -5.032,0.17 l -41.55,-26.085 c -2.438,-1.53 -5.537,-1.53 -7.975,0 l -41.551,26.085 c -2.324,1.459 -4.294,0.367 -5.032,-0.17 -0.739,-0.537 -2.386,-2.073 -1.717,-4.732 l 11.97,-47.577 c 0.702,-2.792 -0.255,-5.74 -2.465,-7.585 L 225.05,239.61 c -2.104,-1.759 -1.675,-3.97 -1.393,-4.839 0.282,-0.869 1.234,-2.91 3.971,-3.095 l 48.947,-3.319 c 2.872,-0.195 5.379,-2.017 6.452,-4.688 l 18.282,-45.526 c 1.021,-2.544 3.257,-2.819 4.17,-2.819 0.914,0 3.15,0.275 4.172,2.82 l 18.281,45.525 c 1.073,2.671 3.58,4.493 6.452,4.688 l 48.947,3.319 c 2.736,0.186 3.688,2.227 3.972,3.096 0.283,0.869 0.712,3.078 -1.393,4.837 z"
         style="fill:#696969" />
    </g>
    <g
       transform="matrix(0.20552457,0,0,0.20290279,82.937662,196.16518)"
       id="g10"
       style="fill:#696969">
      <path
         inkscape:connector-curvature="0"
         d="m 124.394,222.991 c -9.36,0 -17.261,10.31 -17.261,22.5 0,12.2 7.9,22.51 17.261,22.51 9.36,0 17.27,-10.31 17.27,-22.51 0,-12.19 -7.91,-22.5 -17.27,-22.5 z"
         id="path2-4"
         style="fill:#696969" />
      <path
         inkscape:connector-curvature="0"
         d="m 275.758,341.981 c -9.36,0 -17.261,10.31 -17.261,22.51 0,12.19 7.9,22.5 17.261,22.5 9.36,0 17.271,-10.31 17.271,-22.5 0,-12.2 -7.911,-22.51 -17.271,-22.51 z"
         id="path4-2"
         style="fill:#696969" />
      <path
         inkscape:connector-curvature="0"
         d="M 373.851,159.691 C 221.768,19.753 229.547,25.098 217.456,20.401 200.273,13.585 179.827,17.149 165.704,30.141 L 24.911,159.691 C 9.08,174.251 0,194.971 0,216.551 v 229.41 c 0,27.03 21.881,49.03 48.771,49.03 H 349.98 c 26.891,0 48.771,-22 48.771,-49.03 v -229.41 c 0.001,-21.58 -9.08,-42.3 -24.9,-56.86 z m -188.986,-49.18 c 0.909,-8.718 8.905,-14.909 17.851,-13.23 8.556,1.784 13.375,9.994 11.78,17.64 -1.695,8.146 -9.358,13.335 -17.64,11.78 -7.91,-1.65 -12.738,-8.836 -11.991,-16.19 z M 77.132,245.491 c 0,-28.95 21.201,-52.5 47.262,-52.5 26.071,0 47.271,23.55 47.271,52.5 0,28.95 -21.201,52.51 -47.271,52.51 -26.061,0 -47.262,-23.56 -47.262,-52.51 z m 85.993,159.66 c -10.6,0 -17.998,-10.868 -13.82,-20.81 l 73.022,-174.04 c 3.21,-7.64 12,-11.24 19.64,-8.03 7.64,3.2 11.23,12 8.03,19.64 l -73.032,174.04 c -2.41,5.74 -7.97,9.2 -13.84,9.2 z m 112.633,11.84 c -26.061,0 -47.261,-23.55 -47.261,-52.5 0,-28.95 21.201,-52.51 47.261,-52.51 26.061,0 47.271,23.56 47.271,52.51 0,28.95 -21.21,52.5 -47.271,52.5 z"
         id="path6-9"
         style="fill:#696969" />
    </g>
  </g>
</svg>
