<?xml version="1.0" encoding="UTF-8" standalone="no"?>
<svg
   xmlns:dc="http://purl.org/dc/elements/1.1/"
   xmlns:cc="http://creativecommons.org/ns#"
   xmlns:rdf="http://www.w3.org/1999/02/22-rdf-syntax-ns#"
   xmlns:svg="http://www.w3.org/2000/svg"
   xmlns="http://www.w3.org/2000/svg"
   xmlns:xlink="http://www.w3.org/1999/xlink"
   xmlns:sodipodi="http://sodipodi.sourceforge.net/DTD/sodipodi-0.dtd"
   xmlns:inkscape="http://www.inkscape.org/namespaces/inkscape"
   id="e2652d7b-d014-44e7-aeea-709bf92e6067"
   data-name="Layer 1"
   width="853.29744"
   height="818"
   viewBox="0 0 853.29744 818"
   version="1.1"
   sodipodi:docname="undraw_launch_day_4e04.svg"
   inkscape:version="0.92.3 (2405546, 2018-03-11)">
  <metadata
     id="metadata93">
    <rdf:RDF>
      <cc:Work
         rdf:about="">
        <dc:format>image/svg+xml</dc:format>
        <dc:type
           rdf:resource="http://purl.org/dc/dcmitype/StillImage" />
      </cc:Work>
    </rdf:RDF>
  </metadata>
  <sodipodi:namedview
     pagecolor="#ffffff"
     bordercolor="#666666"
     borderopacity="1"
     objecttolerance="10"
     gridtolerance="10"
     guidetolerance="10"
     inkscape:pageopacity="0"
     inkscape:pageshadow="2"
     inkscape:window-width="1440"
     inkscape:window-height="858"
     id="namedview91"
     showgrid="false"
     inkscape:zoom="0.65"
     inkscape:cx="184.25343"
     inkscape:cy="409"
     inkscape:window-x="-11"
     inkscape:window-y="-11"
     inkscape:window-maximized="1"
     inkscape:current-layer="e2652d7b-d014-44e7-aeea-709bf92e6067" />
  <defs
     id="defs8">
    <linearGradient
       id="fe5e6308-1e89-4ce8-8c8d-e7ed4a72d158"
       x1="689.87057"
       y1="396.55769"
       x2="776.68053"
       y2="396.55769"
       gradientUnits="userSpaceOnUse">
      <stop
         offset="0"
         stop-color="#fff"
         id="stop2" />
      <stop
         offset="1"
         stop-color="#fff"
         stop-opacity="0.3"
         id="stop4" />
    </linearGradient>
    <linearGradient
       id="b0adbdce-87b5-465c-b00c-1cf2f5493111"
       x1="631.27384"
       y1="535.45364"
       x2="718.08381"
       y2="535.45364"
       xlink:href="#fe5e6308-1e89-4ce8-8c8d-e7ed4a72d158" />
  </defs>
  <path
     d="M880.85249,505.2494C773.13547,668.24287,722.473,859,527.10189,859S173.35128,700.62046,173.35128,505.2494,349.88639,233.74549,527.10189,151.49879C1102.708-115.64322,1121.87492,140.543,880.85249,505.2494Z"
     id="path10"
     fill="#3f3d56"
     transform="translate(-173.35128 -41)" />
  <circle
     cx="669.52185"
     cy="94.22192"
     r="66.1926"
     fill="#e6e6e6"
     id="circle12" />
  <circle
     cx="663.0111"
     cy="48.64669"
     r="7.59587"
     fill="#cbcbcb"
     id="circle14" />
  <circle
     cx="676.0326"
     cy="124.60541"
     r="7.59587"
     fill="#cbcbcb"
     id="circle16" />
  <circle
     cx="705.33096"
     cy="82.28555"
     r="5.42562"
     fill="#cbcbcb"
     id="circle18" />
  <circle
     cx="643.47886"
     cy="99.64754"
     r="17.36199"
     fill="#cbcbcb"
     id="circle20" />
  <circle
     cx="441.64569"
     cy="196.22363"
     r="10.85125"
     fill="#b07dde"
     id="circle22" />
  <circle
     cx="732.45907"
     cy="224.43687"
     r="10.85125"
     fill="#b07dde"
     id="circle24" />
  <circle
     cx="603.32925"
     cy="245.05424"
     r="6.51075"
     fill="#e6e6e6"
     id="circle26" />
  <circle
     cx="102.00171"
     cy="450.14278"
     r="6.51075"
     fill="#e6e6e6"
     id="circle28" />
  <circle
     cx="487.22092"
     cy="624.84783"
     r="6.51075"
     fill="#e6e6e6"
     id="circle30" />
  <polygon
     points="589.224 438.245 585.975 441.473 582.747 438.223 580.581 440.375 583.808 443.625 580.558 446.852 582.71 449.019 585.96 445.791 589.188 449.041 591.354 446.889 588.126 443.639 591.376 440.412 589.224 438.245"
     fill="#b07dde"
     id="polygon32" />
  <polygon
     points="158.43 544.588 155.18 547.815 151.953 544.565 149.786 546.717 153.014 549.967 149.764 553.194 151.916 555.361 155.165 552.133 158.393 555.383 160.56 553.231 157.332 549.982 160.582 546.754 158.43 544.588"
     fill="#e6e6e6"
     id="polygon34" />
  <polygon
     points="184.473 355.776 181.223 359.003 177.996 355.754 175.829 357.905 179.057 361.155 175.807 364.383 177.959 366.549 181.208 363.322 184.436 366.571 186.603 364.42 183.375 361.17 186.625 357.942 184.473 355.776"
     fill="#e6e6e6"
     id="polygon36" />
  <polygon
     points="751.993 155.028 748.743 158.255 745.516 155.006 743.349 157.157 746.577 160.407 743.327 163.635 745.479 165.801 748.729 162.574 751.956 165.823 754.123 163.672 750.895 160.422 754.145 157.194 751.993 155.028"
     fill="#e6e6e6"
     id="polygon38" />
  <polygon
     points="495.904 245.093 492.654 248.321 489.426 245.071 487.26 247.223 490.487 250.472 487.238 253.7 489.389 255.867 492.639 252.639 495.867 255.889 498.033 253.737 494.806 250.487 498.055 247.26 495.904 245.093"
     fill="#e6e6e6"
     id="polygon40" />
  <path
     d="M691.79334,446.99143l32.97058-38.59855,32.97057-38.59855,18.61242-21.7895c1.02981-1.2056-.55938-3.08643-1.58915-1.88088L741.78719,384.7225l-32.97057,38.59855L690.2042,445.11056c-1.02982,1.2056.55937,3.08642,1.58914,1.88087Z"
     transform="translate(-173.35128 -41)"
     opacity="0.8"
     fill="url(#fe5e6308-1e89-4ce8-8c8d-e7ed4a72d158)"
     id="path42" />
  <path
     d="M633.19662,585.88737l32.97057-38.59855,32.97057-38.59855,18.61242-21.7895c1.02981-1.2056-.55937-3.08643-1.58915-1.88087l-32.97057,38.59855L650.21989,562.217l-18.61242,21.7895c-1.02981,1.2056.55937,3.08643,1.58915,1.88087Z"
     transform="translate(-173.35128 -41)"
     opacity="0.8"
     fill="url(#b0adbdce-87b5-465c-b00c-1cf2f5493111)"
     id="path44" />
  <path
     d="M293.52619,331.32164h61.8521a0,0,0,0,1,0,0v24.33858a15.811,15.811,0,0,1-15.811,15.811H309.33722a15.811,15.811,0,0,1-15.811-15.811V331.32164A0,0,0,0,1,293.52619,331.32164Z"
     fill="#2f2e41"
     id="path46" />
  <path
     d="M549.34694,695.68875c-14.0849,14.27061-28.19145,14.366-42.31946.46l-10.85164-95.95094L488.58,696.34927c-14.11847,11.42686-27.27574,12.96547-39.06448.42461-11.24565-83.07535-17.35815-160.2537-7.59587-219.19516l-20.61737-83.55459,46.66036-21.70249c9.39634,23.24307-5.42324,35.1313,28.08839,34.73339,33.21631-.39441,30.73557-12.88943,29.42321-34.73339l42.92319,16.50892a15.38272,15.38272,0,0,1,9.14663,18.98963l-21.68633,68.6734C564.2064,511.16046,555.63436,607.59438,549.34694,695.68875Z"
     transform="translate(-173.35128 -41)"
     fill="#e6e6e6"
     id="path48" />
  <path
     d="M484.23947,779.24335s-34.64058,3.03439-39.281,1.12362h0q-.43935-.18092-.85525-.39352c-6.89625-3.52114-7.10638-13.3821-.66091-17.67309l13.66907-9.1L445.175,689.178l46.1178.54256Z"
     transform="translate(-173.35128 -41)"
     fill="#2f2e41"
     id="path50" />
  <path
     d="M510.28246,779.78591s34.64057,3.03439,39.281,1.12363h0q.43935-.18092.85525-.39352c6.89625-3.52114,7.10638-13.3821.66091-17.67309l-13.66907-9.1L554.23,689.72057H505.942Z"
     transform="translate(-173.35128 -41)"
     fill="#2f2e41"
     id="path52" />
  <path
     d="M428.89811,551.36719l6.86638,27.46551a16.55029,16.55029,0,0,1-7.20087,17.996l0,0a16.55029,16.55029,0,0,1-25.30968-12.20314L401.77,570.89943l-5.42562-130.45524a54.87781,54.87781,0,0,1,33.85878-50.69295l10.63132-4.40811Z"
     transform="translate(-173.35128 -41)"
     fill="#e6e6e6"
     id="path54" />
  <path
     d="M601.43292,439.3606l-.03259.77046-4.38388,105.30046-.84636,20.34609-.16279,4.0367-1.48662,13.72678a16.55048,16.55048,0,1,1-32.51036-5.79453l6.86886-27.4645-.15193-2.04-.91147-12.76107L556.94281,384.258l10.63421,4.4056a54.9579,54.9579,0,0,1,33.8559,50.697Z"
     transform="translate(-173.35128 -41)"
     fill="#e6e6e6"
     id="path56" />
  <path
     d="M500.57674,559.19089c-39.41736,0-63.732-13.67-64.07587-13.86818l1.0846-1.8799c.48428.27976,49.24918,27.63359,120.8939,3.923l.68244,2.06A185.89809,185.89809,0,0,1,500.57674,559.19089Z"
     transform="translate(-173.35128 -41)"
     fill="#2f2e41"
     id="path58" />
  <path
     d="M461.5451,659.23535c-8.67463-19.51846-8.71861-104.3521-8.716-107.954l2.17025.00212c-.00053.87743.04026,87.97033,8.52946,107.07022Z"
     transform="translate(-173.35128 -41)"
     fill="#2f2e41"
     id="path60" />
  <path
     d="M466.05727,660.11066c-7.72727,0-12.86148-1.6457-16.20852-3.533-6.09428-3.43658-7.35161-8.11936-7.40194-8.31646l2.10242-.53832-1.05121.26916,1.04962-.27446c.044.16425,1.14129,4.06286,6.46307,7.02364,5.85956,3.25855,17.65446,5.69054,40.55865-1.2356l.62733,2.077C481.23524,658.89731,472.69094,660.11066,466.05727,660.11066Z"
     transform="translate(-173.35128 -41)"
     fill="#2f2e41"
     id="path62" />
  <rect
     x="448.66696"
     y="382.62543"
     width="2.17072"
     height="170.16399"
     transform="translate(-195.69162 -18.43964) rotate(-2.80385)"
     fill="#2f2e41"
     id="rect64" />
  <path
     d="M535.14707,659.23535l-1.98375-.88166c8.4892-19.09989,8.53052-106.19279,8.52946-107.07022l2.17025-.00212C543.86515,554.88325,543.82171,639.71689,535.14707,659.23535Z"
     transform="translate(-173.35128 -41)"
     fill="#2f2e41"
     id="path66" />
  <path
     d="M530.6349,660.11066c-6.63367,0-15.17585-1.21229-26.13942-4.52807l.62734-2.077c22.90418,6.92508,34.69643,4.49521,40.55865,1.2356,5.32177-2.96078,6.41855-6.85939,6.462-7.02364l2.10137.54362c-.05087.1971-1.30766,4.87988-7.40195,8.31646C543.49638,658.465,538.36005,660.11066,530.6349,660.11066Z"
     transform="translate(-173.35128 -41)"
     fill="#2f2e41"
     id="path68" />
  <rect
     x="461.85785"
     y="466.62206"
     width="170.16399"
     height="2.17072"
     transform="translate(-120.26149 950.16282) rotate(-87.20185)"
     fill="#2f2e41"
     id="rect70" />
  <polygon
     points="355.248 367.131 339.101 391.003 304.377 391.003 292.767 367.131 297.867 367.131 306.548 386.663 335.846 386.663 349.953 367.131 355.248 367.131"
     fill="#b07dde"
     id="polygon72" />
  <polygon
     points="394.443 379.067 394.725 379.631 394.443 380.152 394.443 379.067"
     id="polygon74" />
  <path
     d="M603.60317,439.3606l-.03259.77046-20.58478,5.97905-12.73935-25.47877,13.03236-23.8944A54.80994,54.80994,0,0,1,603.60317,439.3606Z"
     transform="translate(-173.35128 -41)"
     fill="#b07dde"
     id="path76" />
  <path
     d="M395.00956,439.3606l.03259.77046,20.58478,5.97905,12.73935-25.47877-13.03236-23.8944A54.80994,54.80994,0,0,0,395.00956,439.3606Z"
     transform="translate(-173.35128 -41)"
     fill="#b07dde"
     id="path78" />
  <circle
     cx="324.45224"
     cy="291.71459"
     r="57.5116"
     fill="#e6e6e6"
     id="circle80" />
  <circle
     cx="324.45224"
     cy="299.31046"
     r="42.31986"
     fill="#2f2e41"
     id="circle82" />
  <polygon
     points="424.284 504.432 423.403 524.778 395.571 509.825 394.849 507.242 393.9 494.481 424.284 504.432"
     fill="#b07dde"
     id="polygon84" />
  <polygon
     points="226.324 504.432 227.25 524.778 256.503 509.825 257.263 507.242 258.26 494.481 226.324 504.432"
     fill="#b07dde"
     id="polygon86" />
  <polygon
     points="339.678 392.089 303.698 392.089 283.777 351.139 282.753 336.41 284.918 336.26 285.913 350.568 305.057 389.918 338.525 389.918 363.075 353.628 368.301 337.605 370.366 338.277 364.958 354.718 339.678 392.089"
     fill="#2f2e41"
     id="polygon88" />
  <g
     id="g1151"
     transform="translate(560,-173.84615)">
    <g
       transform="matrix(0.38401442,0,0,0.38100962,-333.28502,316.07692)"
       id="g1109">
      <g
         id="g1031">
	<g
   id="g1021">
		<circle
   style="fill:#008b8b"
   cx="256"
   cy="256"
   r="247.467"
   id="circle985" />

		
			<ellipse
   transform="matrix(-0.9998,-0.0179,0.0179,-0.9998,481.8517,516.7659)"
   style="fill:#00ffff"
   cx="243.24001"
   cy="256.22501"
   rx="234.64999"
   ry="247.467"
   id="ellipse987" />

		<path
   inkscape:connector-curvature="0"
   style="fill:#607d8b"
   d="m 469.333,256 c 0,2.816 -0.085,5.717 -0.171,8.533 -1.98,50.658 -22.017,98.935 -56.491,136.107 -3.84,4.181 -7.851,8.192 -12.032,12.032 -37.171,34.473 -85.449,54.511 -136.107,56.491 -2.816,0.085 -5.717,0.171 -8.533,0.171 -2.816,0 -5.717,-0.085 -8.533,-0.171 -50.658,-1.98 -98.935,-22.018 -136.107,-56.491 -4.181,-3.84 -8.192,-7.851 -12.032,-12.032 C 64.854,363.469 44.816,315.191 42.836,264.533 42.751,261.717 42.665,258.816 42.665,256 c 0,-2.816 0.085,-5.717 0.171,-8.533 1.98,-50.658 22.017,-98.936 56.491,-136.107 3.84,-4.181 7.851,-8.192 12.032,-12.032 37.171,-34.473 85.449,-54.511 136.107,-56.491 2.816,-0.085 5.717,-0.171 8.533,-0.171 2.816,0 5.717,0.085 8.533,0.171 50.658,1.98 98.935,22.018 136.107,56.491 4.181,3.84 8.192,7.85 12.032,12.032 34.473,37.171 54.511,85.449 56.491,136.107 0.086,2.816 0.171,5.717 0.171,8.533 z"
   id="path989" />

		<path
   inkscape:connector-curvature="0"
   style="fill:#cfd8dc"
   d="m 443.733,256 c 0,2.816 -0.08,5.717 -0.161,8.533 -1.639,50.102 -20.378,98.133 -53.101,136.107 -3.61,4.181 -7.38,8.192 -11.31,12.032 -34.122,34.108 -79.746,54.253 -127.94,56.491 -2.647,0.085 -5.374,0.171 -8.021,0.171 -2.647,0 -5.374,-0.085 -8.021,-0.171 -48.194,-2.238 -93.818,-22.383 -127.94,-56.491 -3.93,-3.84 -7.7,-7.851 -11.31,-12.032 -32.723,-37.974 -51.462,-86.005 -53.101,-136.107 -0.08,-2.816 -0.161,-5.717 -0.161,-8.533 0,-2.816 0.08,-5.717 0.161,-8.533 1.639,-50.102 20.378,-98.133 53.101,-136.107 3.61,-4.181 7.38,-8.192 11.31,-12.032 34.122,-34.108 79.746,-54.253 127.94,-56.491 2.647,-0.085 5.374,-0.171 8.021,-0.171 2.647,0 5.374,0.085 8.021,0.171 48.194,2.238 93.818,22.383 127.94,56.491 3.93,3.84 7.7,7.85 11.31,12.032 32.723,37.974 51.462,86.005 53.101,136.107 0.081,2.816 0.161,5.717 0.161,8.533 z"
   id="path991" />

		<path
   inkscape:connector-curvature="0"
   style="fill:#4b0082"
   d="m 274.092,246.442 c -3.451,-0.001 -6.562,-2.08 -7.882,-5.268 -1.32,-3.188 -0.591,-6.858 1.849,-9.298 l 75.775,-75.775 c 3.341,-3.281 8.701,-3.256 12.012,0.054 3.311,3.311 3.335,8.671 0.054,12.012 l -75.775,75.775 c -1.598,1.602 -3.77,2.502 -6.033,2.5 z"
   id="path993" />

		<g
   id="g1011">
			<path
   inkscape:connector-curvature="0"
   style="fill:#673ab7"
   d="m 264.533,42.837 v 17.92 c 0,4.713 -3.821,8.533 -8.533,8.533 -4.713,0 -8.533,-3.821 -8.533,-8.533 v -17.92 c 2.816,-0.085 5.717,-0.171 8.533,-0.171 2.816,0.001 5.717,0.086 8.533,0.171 z"
   id="path995" />

			<path
   inkscape:connector-curvature="0"
   style="fill:#673ab7"
   d="m 123.989,123.989 c -1.623,1.578 -3.795,2.465 -6.059,2.475 -2.261,-0.025 -4.427,-0.91 -6.059,-2.475 L 99.328,111.36 c 3.84,-4.181 7.851,-8.192 12.032,-12.032 l 12.629,12.544 c 3.328,3.354 3.328,8.764 0,12.117 z"
   id="path997" />

			<path
   inkscape:connector-curvature="0"
   style="fill:#673ab7"
   d="m 69.291,256 c -0.014,4.707 -3.826,8.519 -8.533,8.533 h -17.92 c -0.085,-2.816 -0.171,-5.717 -0.171,-8.533 0,-2.816 0.085,-5.717 0.171,-8.533 h 17.92 c 4.706,0.014 8.519,3.826 8.533,8.533 z"
   id="path999" />

			<path
   inkscape:connector-curvature="0"
   style="fill:#673ab7"
   d="m 123.989,400.128 -12.629,12.544 c -4.181,-3.84 -8.192,-7.851 -12.032,-12.032 l 12.544,-12.629 c 2.159,-2.192 5.327,-3.058 8.301,-2.269 2.974,0.789 5.296,3.111 6.085,6.085 0.789,2.974 -0.077,6.142 -2.269,8.301 z"
   id="path1001" />

			<path
   inkscape:connector-curvature="0"
   style="fill:#673ab7"
   d="m 264.533,451.243 v 17.92 c -2.816,0.085 -5.717,0.171 -8.533,0.171 -2.816,0 -5.717,-0.085 -8.533,-0.171 v -17.92 c 0,-4.713 3.821,-8.533 8.533,-8.533 4.713,-10e-4 8.533,3.82 8.533,8.533 z"
   id="path1003" />

			<path
   inkscape:connector-curvature="0"
   style="fill:#673ab7"
   d="m 412.672,400.64 c -3.84,4.181 -7.851,8.192 -12.032,12.032 l -12.629,-12.544 c -2.192,-2.159 -3.058,-5.327 -2.269,-8.301 0.789,-2.974 3.111,-5.296 6.085,-6.085 2.974,-0.789 6.142,0.077 8.301,2.269 z"
   id="path1005" />

			<path
   inkscape:connector-curvature="0"
   style="fill:#673ab7"
   d="m 469.333,256 c 0,2.816 -0.085,5.717 -0.171,8.533 h -17.92 c -4.713,0 -8.533,-3.821 -8.533,-8.533 0,-4.713 3.821,-8.533 8.533,-8.533 h 17.92 c 0.086,2.816 0.171,5.717 0.171,8.533 z"
   id="path1007" />

			<path
   inkscape:connector-curvature="0"
   style="fill:#673ab7"
   d="m 412.672,111.36 -12.544,12.629 c -1.632,1.565 -3.798,2.45 -6.059,2.475 -2.264,-0.009 -4.436,-0.896 -6.059,-2.475 -3.328,-3.354 -3.328,-8.764 0,-12.117 l 12.629,-12.544 c 4.182,3.84 8.193,7.85 12.033,12.032 z"
   id="path1009" />

		</g>

		<path
   inkscape:connector-curvature="0"
   style="fill:#4b0082"
   d="m 211.117,309.417 c -3.451,-10e-4 -6.562,-2.08 -7.882,-5.268 -1.32,-3.188 -0.591,-6.858 1.849,-9.298 l 26.792,-26.792 c 2.156,-2.156 5.297,-2.997 8.242,-2.208 2.944,0.789 5.244,3.089 6.033,6.033 0.789,2.944 -0.053,6.086 -2.208,8.242 l -26.792,26.791 c -1.599,1.603 -3.771,2.502 -6.034,2.5 z"
   id="path1013" />

		<path
   inkscape:connector-curvature="0"
   style="fill:#4b0082"
   d="m 216.32514,298.91858 c 6.665,6.665 6.665,17.471 0,24.136 l -24.136,24.136 -24.136,-24.136 24.136,-24.136 c 6.665,-6.665 17.471,-6.665 24.136,0 z"
   id="path1015" />

		<path
   inkscape:connector-curvature="0"
   style="fill:#008080"
   d="m 275.029,273.067 h 74.837 c 9.397,-0.068 16.999,-7.669 17.067,-17.067 -0.028,-9.414 -7.652,-17.039 -17.067,-17.067 h -74.837 l -1.963,-1.963 V 119.467 c -0.068,-9.397 -7.669,-16.999 -17.067,-17.067 -9.414,0.028 -17.039,7.652 -17.067,17.067 v 117.504 z"
   id="path1017" />

		<circle
   style="fill:#4b0082"
   cx="255.99998"
   cy="254.38487"
   r="25.6"
   id="circle1019" />

	</g>

	<g
   id="g1029">
		<path
   inkscape:connector-curvature="0"
   d="m 252.67514,0.84331141 c -141.385,0 -256.0000022,114.61500859 -256.0000022,256.00000859 0,141.385 114.6150022,256 256.0000022,256 141.385,0 256,-114.615 256,-256 -0.16,-141.318 -114.681,-255.8400086 -256,-256.00000859 z m 0,494.93300859 c -131.959,0 -238.933002,-106.974 -238.933002,-238.933 0,-131.959 106.974002,-238.933008 238.933002,-238.933008 131.959,0 238.933,106.974008 238.933,238.933008 -0.148,131.898 -107.035,238.785 -238.933,238.933 z"
   id="path1023" />

		<path
   inkscape:connector-curvature="0"
   d="m 353.19186,233.79258 h -56.2 l 62.234,-62.234 c 3.296,-3.338 3.279,-8.711 -0.038,-12.029 -3.317,-3.317 -8.691,-3.334 -12.029,-0.038 l -62.234,62.234 v -98.867 c -0.066,-14.111 -11.489,-25.534001 -25.6,-25.600001 -14.132,0.015 -25.585,11.468001 -25.6,25.600001 v 114.194 c -9.818,10.935 -11.32,27.007 -3.698,39.571 l -16.9,16.9 c -9.599,-4.081 -20.713,-1.935 -28.102,5.427 l -24.133,24.142 c -1.601,1.6 -2.5,3.77 -2.5,6.033 0,2.263 0.899,4.433 2.5,6.033 l 24.133,24.134 c 1.6,1.601 3.77,2.5 6.033,2.5 2.263,0 4.433,-0.899 6.033,-2.5 l 24.133,-24.133 c 7.898,-7.954 9.691,-20.127 4.42,-30.019 l 16.449,-16.449 c 12.564,7.622 28.637,6.12 39.572,-3.698 h 71.526 c 14.111,-0.066 25.534,-11.489 25.6,-25.6 -0.015,-14.133 -11.467,-25.586 -25.599,-25.601 z m -93.867,-119.467 c 2.302,-0.005 4.504,0.942 6.083,2.617 1.586,1.558 2.471,3.694 2.45,5.917 v 103.612 c -5.574,-1.615 -11.492,-1.615 -17.067,0 v -103.612 c 0.004,-4.712 3.823,-8.53 8.534,-8.534 z m -50.167,208.767 -18.1,18.1 -12.067,-12.067 18.1,-18.1 c 2.155,-2.156 5.297,-2.997 8.242,-2.208 2.944,0.789 5.244,3.089 6.033,6.033 0.789,2.945 -0.052,6.086 -2.208,8.242 z m 38.117,-51.629 -0.009,-0.012 -0.012,-0.009 c -4.309,-4.309 -5.992,-10.589 -4.414,-16.475 1.577,-5.886 6.175,-10.483 12.06,-12.06 5.886,-1.577 12.166,0.106 16.475,4.414 l 0.009,0.012 0.012,0.009 c 4.309,4.309 5.992,10.589 4.414,16.475 -1.577,5.886 -6.175,10.483 -12.06,12.06 -5.886,1.577 -12.166,-0.105 -16.475,-4.414 z m 111.833,-5.988 c -1.558,1.586 -3.694,2.471 -5.917,2.45 h -60.945 c 1.615,-5.574 1.615,-11.492 0,-17.067 h 60.945 c 4.711,0.003 8.53,3.822 8.533,8.533 0.006,2.303 -0.941,4.505 -2.616,6.084 z"
   id="path1025" />

		<path
   inkscape:connector-curvature="0"
   d="m 407.67486,101.03542 c -0.143,-0.143 -0.335,-0.192 -0.485,-0.322 -86.443,-86.214997 -226.353,-86.214997 -312.795998,0 -0.151,0.131 -0.342,0.179 -0.485,0.322 -0.143,0.143 -0.192,0.335 -0.322,0.485 -86.2149998,86.443 -86.2149998,226.35304 0,312.79604 0.131,0.151 0.179,0.342 0.322,0.485 0.143,0.143 0.335,0.191 0.485,0.322 86.442998,86.215 226.352998,86.215 312.795998,0 0.151,-0.131 0.342,-0.179 0.485,-0.322 0.143,-0.143 0.192,-0.335 0.322,-0.485 86.215,-86.443 86.215,-226.35304 0,-312.79604 -0.13,-0.15 -0.178,-0.342 -0.322,-0.485 z m 30.85,165.416 h 16.85 c -1.981,48.374 -21.103,94.46704 -53.947,130.03704 l -11.853,-11.853 c -3.332,-3.332 -8.735,-3.332 -12.067,0 -3.332,3.332 -3.332,8.735 0,12.067 l 11.853,11.853 c -35.57,32.844 -81.663,51.966 -130.036,53.947 v -16.85 c 0,-4.713 -3.821,-8.533 -8.533,-8.533 -4.713,0 -8.533,3.821 -8.533,8.533 v 16.85 c -48.374,-1.982 -94.467,-21.104 -130.037,-53.948 l 11.853,-11.853 c 3.332,-3.332 3.332,-8.735 0,-12.067 -3.332,-3.332 -8.735,-3.332 -12.067,0 l -11.853,11.853 C 67.311862,360.91846 48.189862,314.82542 46.208862,266.45142 h 16.85 c 4.713,0 8.533,-3.821 8.533,-8.533 0,-4.713 -3.82,-8.533 -8.533,-8.533 h -16.85 c 1.981,-48.374 21.103,-94.467 53.946998,-130.037 l 11.853,11.853 c 3.332,3.332 8.735,3.332 12.067,0 3.332,-3.332 3.332,-8.735 0,-12.067 l -11.853,-11.853 c 35.569,-32.842998 81.662,-51.964998 130.036,-53.945998 v 16.85 c 0,4.713 3.821,8.533 8.533,8.533 4.713,0 8.533,-3.82 8.533,-8.533 v -16.85 c 48.374,1.981 94.467,21.103 130.037,53.946998 l -11.853,11.853 c -2.155,2.156 -2.997,5.297 -2.208,8.242 0.789,2.944 3.089,5.244 6.033,6.033 2.944,0.789 6.086,-0.053 8.242,-2.208 l 11.853,-11.853 c 32.844,35.57 51.966,81.663 53.947,130.036 h -16.85 c -4.713,0 -8.533,3.821 -8.533,8.533 -0.001,4.713 3.82,8.533 8.532,8.533 z"
   id="path1027" />

	</g>

</g>
      <g
         id="g1033">
</g>
      <g
         id="g1035">
</g>
      <g
         id="g1037">
</g>
      <g
         id="g1039">
</g>
      <g
         id="g1041">
</g>
      <g
         id="g1043">
</g>
      <g
         id="g1045">
</g>
      <g
         id="g1047">
</g>
      <g
         id="g1049">
</g>
      <g
         id="g1051">
</g>
      <g
         id="g1053">
</g>
      <g
         id="g1055">
</g>
      <g
         id="g1057">
</g>
      <g
         id="g1059">
</g>
      <g
         id="g1061">
</g>
    </g>
  </g>
</svg>
