<?xml version="1.0" encoding="UTF-8" standalone="no"?>
<!-- Generator: Adobe Illustrator 19.0.0, SVG Export Plug-In . SVG Version: 6.00 Build 0)  -->

<svg
   xmlns:dc="http://purl.org/dc/elements/1.1/"
   xmlns:cc="http://creativecommons.org/ns#"
   xmlns:rdf="http://www.w3.org/1999/02/22-rdf-syntax-ns#"
   xmlns:svg="http://www.w3.org/2000/svg"
   xmlns="http://www.w3.org/2000/svg"
   xmlns:sodipodi="http://sodipodi.sourceforge.net/DTD/sodipodi-0.dtd"
   xmlns:inkscape="http://www.inkscape.org/namespaces/inkscape"
   version="1.1"
   id="Capa_1"
   x="0px"
   y="0px"
   viewBox="0 0 512.001 512.001"
   style="enable-background:new 0 0 512.001 512.001;"
   xml:space="preserve"
   sodipodi:docname="new.svg"
   inkscape:version="0.92.3 (2405546, 2018-03-11)"
   inkscape:export-filename="C:\_github-projects\systems\fiddelize\client\public\img\illustrations\new.png"
   inkscape:export-xdpi="29.310873"
   inkscape:export-ydpi="29.310873"><metadata
   id="metadata57"><rdf:RDF><cc:Work
       rdf:about=""><dc:format>image/svg+xml</dc:format><dc:type
         rdf:resource="http://purl.org/dc/dcmitype/StillImage" /></cc:Work></rdf:RDF></metadata><defs
   id="defs55" /><sodipodi:namedview
   pagecolor="#ffffff"
   bordercolor="#666666"
   borderopacity="1"
   objecttolerance="10"
   gridtolerance="10"
   guidetolerance="10"
   inkscape:pageopacity="0"
   inkscape:pageshadow="2"
   inkscape:window-width="1440"
   inkscape:window-height="858"
   id="namedview53"
   showgrid="false"
   inkscape:zoom="0.46093662"
   inkscape:cx="-165.96642"
   inkscape:cy="256.00049"
   inkscape:window-x="-11"
   inkscape:window-y="-11"
   inkscape:window-maximized="1"
   inkscape:current-layer="Capa_1" />
<path
   style="fill:#2aa8a4;fill-opacity:1"
   d="M477.955,262.633c-2.06-4.214-2.06-9.049,0-13.263l19.096-39.065  c10.632-21.751,2.208-47.676-19.178-59.024l-38.409-20.378c-4.144-2.199-6.986-6.11-7.796-10.729l-7.512-42.829  c-4.183-23.847-26.243-39.865-50.208-36.479l-43.053,6.09c-4.644,0.661-9.241-0.837-12.613-4.099l-31.251-30.231  C269.63-4.209,242.369-4.208,224.97,12.626l-31.252,30.232c-3.372,3.261-7.968,4.756-12.613,4.099l-43.053-6.09  c-23.964-3.383-46.025,12.633-50.208,36.479l-7.512,42.828c-0.81,4.62-3.652,8.531-7.795,10.729l-38.41,20.38  c-21.387,11.346-29.811,37.272-19.178,59.024l19.096,39.063c2.06,4.214,2.06,9.049,0,13.263l-19.096,39.065  c-10.632,21.751-2.208,47.676,19.178,59.024l38.409,20.378c4.144,2.199,6.986,6.11,7.796,10.729l7.512,42.829  c4.183,23.847,26.242,39.861,50.208,36.479l43.053-6.09c4.647-0.658,9.242,0.838,12.613,4.099l31.251,30.231  c8.702,8.419,19.864,12.627,31.03,12.626c11.164-0.001,22.332-4.209,31.03-12.625l31.252-30.232  c3.372-3.261,7.966-4.756,12.613-4.099l43.053,6.09c2.152,0.304,4.285,0.452,6.395,0.452c21.389-0.002,40.006-15.226,43.814-36.93  l7.512-42.828c0.81-4.62,3.652-8.531,7.795-10.729l38.41-20.38c21.387-11.346,29.811-37.272,19.178-59.024L477.955,262.633z"
   id="path2" />
<path
   style="fill:#2f4f4f"
   d="M497.051,210.305c10.632-21.751,2.208-47.676-19.178-59.024l-38.409-20.378  c-4.144-2.199-6.986-6.11-7.796-10.729l-7.512-42.829c-4.183-23.847-26.243-39.865-50.208-36.479l-43.053,6.09  c-4.644,0.661-9.241-0.837-12.613-4.099l-31.251-30.231c-8.702-8.418-19.867-12.627-31.032-12.627v512  c11.164-0.001,22.332-4.209,31.03-12.625l31.252-30.232c3.372-3.261,7.966-4.756,12.613-4.099l43.053,6.09  c2.152,0.304,4.285,0.452,6.395,0.452c21.389-0.002,40.006-15.226,43.814-36.93l7.512-42.828c0.81-4.62,3.652-8.531,7.795-10.729  l38.41-20.38c21.387-11.346,29.811-37.272,19.178-59.024l-19.096-39.063c-2.06-4.214-2.06-9.049,0-13.263L497.051,210.305z"
   id="path4" />


<g
   id="g22">
</g>
<g
   id="g24">
</g>
<g
   id="g26">
</g>
<g
   id="g28">
</g>
<g
   id="g30">
</g>
<g
   id="g32">
</g>
<g
   id="g34">
</g>
<g
   id="g36">
</g>
<g
   id="g38">
</g>
<g
   id="g40">
</g>
<g
   id="g42">
</g>
<g
   id="g44">
</g>
<g
   id="g46">
</g>
<g
   id="g48">
</g>
<g
   id="g50">
</g>
<text
   xml:space="preserve"
   style="font-style:normal;font-weight:bold;font-size:40px;line-height:1.25;font-family:Aharoni;letter-spacing:0px;word-spacing:0px;fill:#ffffff;fill-opacity:1;stroke:none;-inkscape-font-specification:'Aharoni Bold';font-stretch:normal;font-variant:normal;"
   x="39.050922"
   y="299.39041"
   id="text866"><tspan
     sodipodi:role="line"
     id="tspan864"
     x="39.050922"
     y="299.39041"
     style="font-style:normal;font-variant:normal;font-weight:bold;font-stretch:normal;font-size:133.33332825px;font-family:Aharoni;-inkscape-font-specification:'Aharoni Bold';fill:#ffffff;fill-opacity:1;">NOVO</tspan></text>

</svg>