<?xml version="1.0" encoding="UTF-8" standalone="no"?>
<svg
   xmlns:dc="http://purl.org/dc/elements/1.1/"
   xmlns:cc="http://creativecommons.org/ns#"
   xmlns:rdf="http://www.w3.org/1999/02/22-rdf-syntax-ns#"
   xmlns:svg="http://www.w3.org/2000/svg"
   xmlns="http://www.w3.org/2000/svg"
   xmlns:sodipodi="http://sodipodi.sourceforge.net/DTD/sodipodi-0.dtd"
   xmlns:inkscape="http://www.inkscape.org/namespaces/inkscape"
   id="e4da07c6-3f45-486e-a553-879e7f222c67"
   data-name="Layer 1"
   width="9.645833in"
   height="9.365159in"
   viewBox="0 0 925.99997 899.05527"
   version="1.1"
   sodipodi:docname="empty-sms-history.svg"
   inkscape:version="0.92.3 (2405546, 2018-03-11)">
  <metadata
     id="metadata109">
    <rdf:RDF>
      <cc:Work
         rdf:about="">
        <dc:format>image/svg+xml</dc:format>
        <dc:type
           rdf:resource="http://purl.org/dc/dcmitype/StillImage" />
        <dc:title>to_the_moon</dc:title>
      </cc:Work>
    </rdf:RDF>
  </metadata>
  <defs
     id="defs107" />
  <sodipodi:namedview
     pagecolor="#ffffff"
     bordercolor="#666666"
     borderopacity="1"
     objecttolerance="10"
     gridtolerance="10"
     guidetolerance="10"
     inkscape:pageopacity="0"
     inkscape:pageshadow="2"
     inkscape:window-width="1440"
     inkscape:window-height="858"
     id="namedview105"
     showgrid="false"
     units="in"
     width="1000in"
     fit-margin-top="0"
     fit-margin-left="0"
     fit-margin-right="0"
     fit-margin-bottom="0"
     inkscape:zoom="0.58781078"
     inkscape:cx="655.0387"
     inkscape:cy="497.17631"
     inkscape:window-x="-11"
     inkscape:window-y="-11"
     inkscape:window-maximized="1"
     inkscape:current-layer="e4da07c6-3f45-486e-a553-879e7f222c67" />
  <title
     id="title2">to_the_moon</title>
  <path
     d="m 926,351.05528 v 220.8 a 325.99128,325.99128 0 0 1 -326,326 H 0 v -220.8 c 0,-118.1 62.73,-221.5 156.68,-278.7 a 323.57742,323.57742 0 0 1 50.88,-25.1 320.09024,320.09024 0 0 1 31.76,-10.6 c 0.21,0 0.43,-0.1 0.64,-0.2 q 4.77,-1.3 9.6,-2.4 c 0.18,-0.1 0.35,-0.1 0.53,-0.2 a 326.11582,326.11582 0 0 1 60.47,-8.5 c 2.41,-0.1 4.82,-0.2 7.25,-0.2 0.87,-0.1 1.75,-0.1 2.64,-0.1 q 2.76,0 5.55,0 z"
     id="path6"
     style="fill:#87cefa"
     inkscape:connector-curvature="0" />
  <path
     d="m 432,755.55528 c -238.0863,0 -431.181,64.2 -431.99048,143.5 H 863.9905 c -0.8096,-79.3 -193.9042,-143.5 -431.9905,-143.5 z"
     id="path8"
     inkscape:connector-curvature="0"
     style="fill:#f2f2f2" />
  <circle
     cx="138"
     cy="440.05527"
     r="7"
     id="circle26"
     style="fill:#f2f2f2" />
  <circle
     cx="740"
     cy="714.0553"
     r="7"
     id="circle28"
     style="fill:#f2f2f2" />
  <circle
     cx="410"
     cy="383.57916"
     r="7"
     id="circle30"
     style="fill:#f2f2f2" />
  <circle
     cx="757"
     cy="447.05527"
     r="4"
     id="circle32"
     style="fill:#ff6584" />
  <circle
     cx="154"
     cy="647.0553"
     r="4"
     id="circle34"
     style="fill:#ff6584" />
  <polygon
     points="91.822,583.5 92.178,583.5 92.178,581.678 94,581.678 94,581.322 92.178,581.322 92.178,579.5 91.822,579.5 91.822,581.322 90,581.322 90,581.678 91.822,581.678 "
     id="polygon36"
     style="fill:#f2f2f2"
     transform="translate(0,150.05528)" />
  <polygon
     points="676.822,435.5 677.178,435.5 677.178,433.678 679,433.678 679,433.322 677.178,433.322 677.178,431.5 676.822,431.5 676.822,433.322 675,433.322 675,433.678 676.822,433.678 "
     id="polygon38"
     style="fill:#f2f2f2"
     transform="translate(0,150.05528)" />
  <polygon
     points="502.822,485.5 503.178,485.5 503.178,483.678 505,483.678 505,483.322 503.178,483.322 503.178,481.5 502.822,481.5 502.822,483.322 501,483.322 501,483.678 502.822,483.678 "
     id="polygon42"
     style="fill:#f2f2f2"
     transform="translate(0,150.05528)" />
  <polygon
     points="783.822,495.5 784.178,495.5 784.178,493.678 786,493.678 786,493.322 784.178,493.322 784.178,491.5 783.822,491.5 783.822,493.322 782,493.322 782,493.678 783.822,493.678 "
     id="polygon44"
     style="fill:#f2f2f2"
     transform="translate(0,150.05528)" />
  <polygon
     points="444.822,538.5 445.178,538.5 445.178,536.678 447,536.678 447,536.322 445.178,536.322 445.178,534.5 444.822,534.5 444.822,536.322 443,536.322 443,536.678 444.822,536.678 "
     id="polygon46"
     style="fill:#f2f2f2"
     transform="translate(0,150.05528)" />
  <polygon
     points="572.822,540.5 573.178,540.5 573.178,538.678 575,538.678 575,538.322 573.178,538.322 573.178,536.5 572.822,536.5 572.822,538.322 571,538.322 571,538.678 572.822,538.678 "
     id="polygon48"
     style="fill:#f2f2f2"
     transform="translate(0,150.05528)" />
  <polygon
     points="93.822,370.5 94.178,370.5 94.178,368.678 96,368.678 96,368.322 94.178,368.322 94.178,366.5 93.822,366.5 93.822,368.322 92,368.322 92,368.678 93.822,368.678 "
     id="polygon50"
     style="fill:#f2f2f2"
     transform="translate(0,150.05528)" />
  <polygon
     points="478.822,354.5 479.178,354.5 479.178,352.678 481,352.678 481,352.322 479.178,352.322 479.178,350.5 478.822,350.5 478.822,352.322 477,352.322 477,352.678 478.822,352.678 "
     id="polygon78"
     style="fill:#f2f2f2"
     transform="translate(0,150.05528)" />
  <circle
     cx="556"
     cy="417.05527"
     r="4"
     id="circle84"
     style="fill:#f2f2f2" />
  <g
     data-name="Rocket Launch"
     id="Rocket_Launch"
     transform="matrix(-9.6357372,0,0,8,773.35048,360.73328)">
    <path
       id="path1003"
       d="M 31,49.1 V 49 a 4,4 0 0 0 -4,-4 c -0.1,0 -0.2,0.022 -0.293,0.03 0.011,-0.019 0.02,-0.038 0.03,-0.057 A 1.905,1.905 0 0 0 27,45 2,2 0 1 0 25.97,41.293 1.877,1.877 0 0 0 26,41 a 1.995,1.995 0 0 0 -3.921,-0.525 3.951,3.951 0 0 0 -6.158,0 A 1.995,1.995 0 0 0 12,41 1.877,1.877 0 0 0 12.03,41.293 2,2 0 1 0 11,45 1.905,1.905 0 0 0 11.263,44.973 c 0.01,0.019 0.019,0.038 0.03,0.057 C 11.2,45.022 11.1,45 11,45 a 4,4 0 0 0 -4,4 v 0.1 A 5.006,5.006 0 0 0 6,58.59 L 8,59 h 22 l 2,-0.41 A 5.006,5.006 0 0 0 31,49.1 Z"
       inkscape:connector-curvature="0"
       style="fill:#e6e7e8" />
    <path
       id="path1005"
       d="m 54,45 h 6 v 4 h -6 z"
       inkscape:connector-curvature="0"
       style="fill:#c6c5ca" />
    <path
       id="path1007"
       d="m 54,41 h 6 v 4 h -6 z"
       inkscape:connector-curvature="0"
       style="fill:#898890" />
    <path
       id="path1009"
       d="m 54,37 h 6 v 4 h -6 z"
       inkscape:connector-curvature="0"
       style="fill:#c6c5ca" />
    <path
       id="path1011"
       d="m 60,33 v 4 h -6 v -4 h 3 z"
       inkscape:connector-curvature="0"
       style="fill:#898890" />
    <path
       id="path1013"
       d="m 54,53 h 6 v 4 h -6 z"
       inkscape:connector-curvature="0"
       style="fill:#c6c5ca" />
    <g
       id="g1023"
       style="fill:#898890">
      <path
         id="path1015"
         d="m 54,49 h 6 v 4 h -6 z"
         inkscape:connector-curvature="0" />
      <path
         id="path1017"
         d="m 54,57 h 6 v 4 h -6 z"
         inkscape:connector-curvature="0" />
      <path
         id="path1019"
         d="M 50,37 H 38 v -8 z"
         inkscape:connector-curvature="0" />
      <path
         id="path1021"
         d="M 50,61 H 38 v -8 z"
         inkscape:connector-curvature="0" />
    </g>
    <path
       id="path1025"
       d="m 50,29 v 8 L 38,29 Z"
       inkscape:connector-curvature="0"
       style="fill:#c6c5ca" />
    <path
       id="path1027"
       d="M 50,45 H 38 v -8 z"
       inkscape:connector-curvature="0"
       style="fill:#898890" />
    <path
       id="path1029"
       d="m 38,21 h 2 4 4 2 v 8 z"
       inkscape:connector-curvature="0"
       style="fill:#c6c5ca" />
    <path
       id="path1031"
       d="m 50,37 v 8 L 38,37 Z"
       inkscape:connector-curvature="0"
       style="fill:#c6c5ca" />
    <path
       id="path1033"
       d="M 50,29 H 38 v -8 z"
       inkscape:connector-curvature="0"
       style="fill:#898890" />
    <path
       id="path1035"
       d="M 50,53 H 38 v -8 z"
       inkscape:connector-curvature="0"
       style="fill:#898890" />
    <path
       id="path1037"
       d="m 50,53 v 8 L 38,53 Z"
       inkscape:connector-curvature="0"
       style="fill:#c6c5ca" />
    <path
       id="path1039"
       d="m 50,45 v 8 L 38,45 Z"
       inkscape:connector-curvature="0"
       style="fill:#c6c5ca" />
    <circle
       id="circle1041"
       r="2"
       cy="11"
       cx="44"
       style="fill:#ff9811" />
    <path
       id="path1055"
       d="m 30,59 a 5.106,5.106 0 0 0 2,-0.41 V 61 H 6 V 58.59 A 5.106,5.106 0 0 0 8,59 5.029,5.029 0 0 0 12.59,56 H 25.41 A 5.029,5.029 0 0 0 30,59 Z"
       inkscape:connector-curvature="0"
       style="fill:#787680" />
    <path
       id="path1057"
       d="m 32,56 v 2.59 A 5.106,5.106 0 0 1 30,59 5.029,5.029 0 0 1 25.41,56 Z"
       inkscape:connector-curvature="0"
       style="fill:#787680" />
    <path
       id="path1059"
       d="m 6,56 h 6.59 A 5.029,5.029 0 0 1 8,59 5.106,5.106 0 0 1 6,58.59 Z"
       inkscape:connector-curvature="0"
       style="fill:#787680" />
    <path
       id="path1067"
       d="M 61,60 V 33 a 1,1 0 0 0 -1,-1 h -2 v -7 h -2 v 7 h -2 a 1,1 0 0 0 -1,1 V 60 H 51 V 21 a 1,1 0 0 0 -1,-1 h -1 v -3 h -2 v 3 h -2 v -6.184 a 3,3 0 1 0 -2,0 V 20 h -2 v -3 h -2 v 3 h -1 a 1,1 0 0 0 -1,1 V 60 H 33 V 59.187 A 5.995,5.995 0 0 0 31.955,48.325 5,5 0 0 0 29.488,44.674 2.98,2.98 0 0 0 30,43 3.018,3.018 0 0 0 26.831,40.005 3,3 0 0 0 21,41 h 2 a 1,1 0 0 1 2,0 1.253,1.253 0 0 1 -0.014,0.167 1,1 0 0 0 1.508,0.971 A 0.974,0.974 0 0 1 27,42 a 1,1 0 0 1 0,2 5.006,5.006 0 0 0 -5,5 h 2 a 3,3 0 0 1 6,0 v 0.1 a 1,1 0 0 0 0.8,0.981 4,4 0 0 1 2.2,6.562 V 56 A 1,1 0 0 0 32,55 H 6 a 1,1 0 0 0 -1,1 v 0.644 A 4,4 0 0 1 7.2,50.081 1,1 0 0 0 8,49.1 V 49 a 3,3 0 0 1 6,0 h 2 a 5.006,5.006 0 0 0 -5,-5 1,1 0 0 1 0,-2 0.974,0.974 0 0 1 0.506,0.138 1,1 0 0 0 1.508,-0.971 A 1.253,1.253 0 0 1 13,41 a 1,1 0 0 1 2,0 h 2 A 3,3 0 0 0 11.169,40.005 3.023,3.023 0 0 0 8,43 2.98,2.98 0 0 0 8.512,44.674 5,5 0 0 0 6.045,48.325 5.995,5.995 0 0 0 5,59.187 V 60 H 2 v 2 H 62 V 60 Z M 44,10 a 1,1 0 1 1 -1,1 1,1 0 0 1 1,-1 z m 15,30 h -4 v -2 h 4 z m 0,2 v 2 h -4 v -2 z m 0,4 v 2 h -4 v -2 z m 0,4 v 2 h -4 v -2 z m 0,4 v 2 h -4 v -2 z m 0,-20 v 2 H 55 V 34 Z M 49,35.132 41.3,30 H 49 Z m 0,8 L 41.3,38 H 49 Z m 0,8 L 41.3,46 H 49 Z m 0,-24 L 41.3,22 H 49 Z M 46.7,28 H 39 v -5.132 z m 0,8 H 39 v -5.132 z m 0,8 H 39 v -5.132 z m 0,8 H 39 v -5.132 z m 2.3,2 v 5.132 L 41.3,54 Z M 7,57 h 24 v 3 H 7 Z M 39,54.868 46.7,60 H 39 Z M 55,60 v -2 h 4 v 2 z"
       inkscape:connector-curvature="0" />
    <path
       id="path1071"
       d="m -7.8883689,29.14725 h 2 v -2 h 2 v -2 h -2 v -2 h -2 v 2 h -2 v 2 h 2 z"
       inkscape:connector-curvature="0" />
    <path
       id="path1073"
       d="m 56,13 h 2 v 2 h -2 z"
       inkscape:connector-curvature="0" />
    <path
       id="path1075"
       d="M 4,6 H 6 V 8 H 4 Z"
       inkscape:connector-curvature="0" />
    <path
       id="path1077"
       d="m 7,29 h 2 v 2 H 7 Z"
       inkscape:connector-curvature="0" />
    <path
       id="path1079"
       d="m 29,29 h 2 v 2 h -2 z"
       inkscape:connector-curvature="0" />
  </g>
  <circle
     cx="148.84271"
     cy="388.05527"
     r="83.979156"
     id="circle4"
     style="fill:#ffd700" />
  <g
     id="g1369"
     transform="translate(-550.11868,0.3628381)">
    <polygon
       transform="translate(0,150.05528)"
       style="fill:#f2f2f2"
       id="polygon40"
       points="830,403.678 830,403.322 828.178,403.322 828.178,401.5 827.822,401.5 827.822,403.322 826,403.322 826,403.678 827.822,403.678 827.822,405.5 828.178,405.5 828.178,403.678 " />
    <g
       transform="rotate(-44.674501,802.77562,-804.23051)"
       id="g1324">
      <g
         id="g1249">
	<g
   transform="translate(1,1)"
   id="g1239">
		<path
   inkscape:connector-curvature="0"
   style="fill:#d84315"
   d="m 141.77,402.204 c 3.637,17.718 -1.883,36.076 -14.689,48.85 -21.068,21.068 -101.729,25.432 -101.729,25.432 0,0 0.504,-9.317 1.93,-22.41 2.938,-25.516 9.569,-65.385 23.502,-79.318 12.774,-12.805 31.132,-18.325 48.85,-14.689 l 9.988,-12.422 0.588,-0.755 44.737,44.737 z"
   id="path1209" />

		<path
   inkscape:connector-curvature="0"
   style="fill:#ff5722"
   d="m 120.115,381.892 c 3.596,17.741 -1.917,36.105 -14.689,48.934 -13.681,13.597 -52.627,20.312 -78.143,23.25 2.938,-25.516 9.569,-65.385 23.502,-79.318 12.774,-12.805 31.132,-18.325 48.85,-14.689 l 9.988,-12.422 23.67,23.67 z"
   id="path1211" />

		<path
   inkscape:connector-curvature="0"
   style="fill:#8a2be2"
   d="M 209.756,75.857 119.514,64.601 c -6.99,-0.882 -13.851,2.4 -17.552,8.395 L 8.774,225.036 c -2.139,3.463 -1.679,7.932 1.12,10.886 2.8,2.954 7.238,3.654 10.81,1.704 25.659,-13.999 61.886,-26.557 93.466,-10.857 l 160.897,160.897 c 15.701,31.58 3.142,67.807 -10.857,93.466 -1.95,3.573 -1.251,8.011 1.704,10.81 2.954,2.8 7.424,3.26 10.886,1.12 l 152.041,-93.187 c 5.995,-3.701 9.276,-10.562 8.395,-17.552 L 425.98,292.081 Z"
   id="path1213" />

		<path
   inkscape:connector-curvature="0"
   style="fill:#4b0082"
   d="m 489.594,152.163 c -20.96,120.004 -113.05,215.055 -232.33,239.801 -5.889,1.172 -11.972,-0.688 -16.199,-4.952 L 114.827,260.774 c -4.264,-4.227 -6.124,-10.311 -4.952,-16.199 24.745,-119.281 119.796,-211.371 239.8,-232.33 36.765,-6.465 74.404,-6.123 111.045,1.007 4.029,0.755 8.142,1.679 12.171,2.602 6.429,1.645 11.449,6.665 13.094,13.094 9.579,40.397 10.807,82.326 3.609,123.215 z"
   id="path1215" />

		<path
   inkscape:connector-curvature="0"
   style="fill:#9400d3"
   d="m 464.414,136.803 c -20.96,120.004 -113.05,215.055 -232.33,239.801 -0.413,0.097 -0.835,0.153 -1.259,0.168 L 114.827,260.774 c -4.264,-4.227 -6.124,-10.311 -4.952,-16.199 24.745,-119.281 119.796,-211.371 239.8,-232.33 36.765,-6.465 74.404,-6.123 111.045,1.007 0,0.084 0.084,0.252 0.084,0.336 9.579,40.397 10.807,82.326 3.61,123.215 z"
   id="path1217" />

		<path
   inkscape:connector-curvature="0"
   style="fill:#20b2aa"
   d="m 387.865,266.65 c -41.548,41.527 -108.667,42.236 -151.082,1.595 l -1.595,-1.595 c -42.16,-42.16 -42.16,-110.516 0,-152.677 42.161,-42.16 110.516,-42.16 152.677,0 42.161,42.16 42.161,110.516 0,152.677 z"
   id="path1219" />

		<path
   inkscape:connector-curvature="0"
   style="fill:#00ffff"
   d="m 370.239,252.969 c -35.478,35.595 -90.852,41.933 -133.456,15.276 l -1.595,-1.595 c -38.738,-38.735 -42.323,-100.342 -8.34,-143.309 33.983,-42.967 94.76,-53.669 141.376,-24.896 0.671,0.588 1.343,1.259 2.014,1.93 20.271,20.216 31.664,47.668 31.664,76.296 0,28.628 -11.391,56.082 -31.663,76.298 z"
   id="path1221" />

		<path
   inkscape:connector-curvature="0"
   style="fill:#4b0082"
   d="m 235.189,381.136 -50.864,12.674 -19.053,19.137 c -3.556,3.441 -9.202,3.441 -12.758,0 L 88.892,349.325 c -1.072,-1.06 -1.827,-2.396 -2.182,-3.861 -0.939,-3.142 -0.104,-6.546 2.182,-8.897 l 19.137,-19.053 12.674,-50.864 z"
   id="path1223" />

		<path
   inkscape:connector-curvature="0"
   style="fill:#9400d3"
   d="m 212.5127,360.3796 -49.521,12.338 -19.053,19.137 c -3.557,3.441 -9.202,3.441 -12.758,0 l -45.660055,-45.66 c -0.939,-3.142 -0.104,-6.546 2.18201,-8.897 l 19.137045,-19.053 12.674,-50.864 z"
   id="path1225" />

		<path
   inkscape:connector-curvature="0"
   style="fill:#37474f"
   d="m 88.924,349.319 27.951,27.951 35.645,35.645 c 3.512,3.512 9.207,3.512 12.719,0 L 184.318,393.836 108.003,317.521 88.924,336.6 c -3.512,3.512 -3.512,9.206 0,12.719 z"
   id="path1227" />

		<g
   id="g1233">
			<path
   inkscape:connector-curvature="0"
   style="fill:#607d8b"
   d="m 87.143,347.538 20.124,20.124 25.663,25.663 c 3.54,2.409 8.345,1.626 10.938,-1.781 L 162.947,372.465 108.003,317.52 88.924,336.6 c -3.407,2.592 -4.19,7.398 -1.781,10.938 z"
   id="path1229" />

			<path
   inkscape:connector-curvature="0"
   style="fill:#4b0082"
   d="M 489.594,152.163 349.675,12.245 c 37.527,-6.62 75.963,-6.136 113.311,1.427 3.357,0.671 6.631,1.427 9.904,2.182 6.429,1.645 11.449,6.665 13.094,13.094 9.58,40.397 10.808,82.326 3.61,123.215 z"
   id="path1231" />

		</g>

		<path
   inkscape:connector-curvature="0"
   style="fill:#9400d3"
   d="M 467.099,129.669 349.675,12.245 c 37.527,-6.62 75.963,-6.136 113.311,1.427 8.824,38.04 10.22,77.427 4.113,115.997 z"
   id="path1235" />

		<path
   inkscape:connector-curvature="0"
   style="fill:#4b0082"
   d="m 437.219,382.311 c 0.9,6.99 -2.386,13.857 -8.393,17.542 L 276.82,493.105 c -3.479,2.14 -7.963,1.667 -10.919,-1.151 -2.956,-2.818 -3.642,-7.274 -1.671,-10.852 2.518,-4.616 5.036,-9.652 7.302,-14.94 0.38,-0.163 0.746,-0.36 1.091,-0.588 l 152.005,-93.167 c 5.994,-3.698 9.275,-10.555 8.393,-17.542 l -7.974,-63.706 0.923,0.923 z"
   id="path1237" />

	</g>

	<g
   id="g1247">
		<path
   inkscape:connector-curvature="0"
   d="M 469.61064,8.9831001 C 376.57864,-13.6689 278.30364,8.3661002 203.84864,68.5721 l -88.467,-11.039 c -10.261,-1.269 -20.323012,3.55 -25.766012,12.34 L -3.5693736,221.91012 c -4.1919992,6.699 -3.2809996,15.393 2.209,21.078 3.242,3.459 7.767,5.427 12.5079996,5.439 2.934001,-0.007 5.819002,-0.752 8.389002,-2.168 21.708,-11.836 52.488,-23.193 79.668,-13.273 -0.917,3.71 -1.96,7.378 -2.741,11.133 -1.767,8.666 0.965,17.638 7.262002,23.848 l 2.51101,2.511 -11.006012,44.016 -17.432,17.432 c -5.43,5.469 -6.604,13.865 -2.882,20.614 -13.351,1.863 -25.732,8.02 -35.274,17.542 -22.672,22.668 -27.418001,98.643 -27.885001,107.233 -0.124,2.302 0.703,4.553 2.288,6.226 1.585001,1.673 3.788001,2.622 6.093001,2.622 0.152,0 0.303,-0.004 0.455,-0.012 8.59,-0.467 84.566012,-5.213 107.234012,-27.885 9.526,-9.537 15.688,-21.917 17.554,-35.267 6.735,3.781 15.166,2.599 20.602,-2.889 l 17.432,-17.432 44.016,-11.006 2.511,2.511 c 4.919,4.97 11.614,7.778 18.607,7.803 1.761,-0.001 3.518,-0.182 5.242,-0.541 3.755,-0.782 7.422,-1.823 11.132,-2.741 9.92,27.193 -1.427,57.962 -13.271,79.667 -2.92,5.38 -2.802,11.897 0.311,17.168 3.113,5.27 8.765,8.519 14.886,8.558 3.233,-0.009 6.4,-0.915 9.148,-2.619 l 152.062,-93.197 c 8.787,-5.431 13.601,-15.487 12.32,-25.738 l -11.039,-88.485 c 60.208,-74.453 82.243,-172.729 59.588,-265.76202 -2.316,-9.545 -9.77,-16.999 -19.318,-19.3129999 z M 115.95964,446.39712 c -12.31601,12.316 -56.275012,19.775 -86.779012,22.328 2.545,-30.496 10.004,-74.447 22.332,-86.775 10.226,-10.22 24.716,-14.945 39.002,-12.72 l 38.164012,38.164 c 2.223,14.287 -2.502,28.775 -12.719,39.003 z m 38.156,-38.155 c -0.238,0.229 -0.615,0.229 -0.852,0 l -63.594012,-63.594 c -0.234,-0.236 -0.234,-0.616 0,-0.852 l 13.143002,-13.143 64.44601,64.446 z m 27.586,-22.439 -69.594,-69.594 7.971,-31.885 46.754,46.754 46.754,46.754 z M 396.46364,17.1561 c 23.329,0.018 46.577,2.757 69.27,8.164 3.39,0.82 6.036,3.467 6.857,6.857 8.062,33.911 10.094,68.97702 6.001,103.59202 L 362.08564,19.2611 c 11.408,-1.376 22.887,-2.079 34.378,-2.105 z m -384.967013,214.36402 4.020001,7.369 -4.775002,-8.205 L 103.91363,78.6641 c 1.99001,-3.183 5.64201,-4.928 9.36901,-4.475 l 73.613,9.184 c -2.427,2.277 -4.916,4.463 -7.281,6.828 -35.318,35.33202 -61.41,78.80402 -75.97901,126.59002 -32.613002,-11.255 -67.601002,1.345 -92.139003,14.729 z m 238.877013,153.492 c -3.125,0.586 -6.336,-0.426 -8.561,-2.697 l -5.873,-5.873 -114.472,-114.471 -5.873,-5.873 c -2.268,-2.227 -3.279,-5.437 -2.697,-8.561 23.848,-114.262 113.976,-203.03002 228.588,-225.13802 l 133.944,133.94402 c -21.997,114.657 -110.764,204.849 -225.056,228.669 z m 173.348,-0.369 c 0.468,3.717 -1.272,7.365 -4.455,9.34 l -152.041,93.185 -0.836,-0.754 c 13.388,-24.538 25.988,-59.529 14.73,-92.14 47.785,-14.569 91.257,-40.661 126.589,-75.978 2.365,-2.365 4.552,-4.854 6.828,-7.281 z"
   id="path1241" />

		<path
   inkscape:connector-curvature="0"
   d="m 389.17189,106.16072 c -45.416,-45.374994 -119.012,-45.351994 -164.401,0.05 -45.389,45.40191 -45.388,118.99871 0,164.40057 45.388,45.402 118.985,45.424 164.401,0.05 45.353,-45.45686 45.353,-119.04466 0,-164.50057 z m -11.868,152.6306 c -38.862,38.82597 -101.837,38.80597 -140.675,-0.044 -38.838,-38.84987 -38.838,-101.82471 0,-140.67464 38.838,-38.849939 101.813,-38.868939 140.675,-0.044 38.803,38.89893 38.803,101.86477 0,140.76264 z"
   id="path1243" />

		
	</g>

</g>
      <g
         id="g1251">
</g>
      <g
         id="g1253">
</g>
      <g
         id="g1255">
</g>
      <g
         id="g1257">
</g>
      <g
         id="g1259">
</g>
      <g
         id="g1261">
</g>
      <g
         id="g1263">
</g>
      <g
         id="g1265">
</g>
      <g
         id="g1267">
</g>
      <g
         id="g1269">
</g>
      <g
         id="g1271">
</g>
      <g
         id="g1273">
</g>
      <g
         id="g1275">
</g>
      <g
         id="g1277">
</g>
      <g
         id="g1279">
</g>
    </g>
    <text
       id="text1328"
       y="279.80841"
       x="1063.2673"
       style="font-style:normal;font-weight:normal;font-size:40px;line-height:1.25;font-family:sans-serif;letter-spacing:0px;word-spacing:0px;fill:#000000;fill-opacity:1;stroke:none"
       xml:space="preserve"><tspan
         style="font-style:normal;font-variant:normal;font-weight:normal;font-stretch:normal;font-size:85.33333588px;font-family:Aharoni;-inkscape-font-specification:Aharoni"
         y="279.80841"
         x="1063.2673"
         id="tspan1326"
         sodipodi:role="line">SMS</tspan></text>
  </g>
</svg>
