<svg height="512" viewBox="0 0 64 64" width="512" xmlns="http://www.w3.org/2000/svg"><g id="Rocket_Launch" data-name="Rocket Launch"><path d="m31 49.1v-.1a4 4 0 0 0 -4-4c-.1 0-.2.022-.293.03.011-.019.02-.038.03-.057a1.905 1.905 0 0 0 .263.027 2 2 0 1 0 -1.03-3.707 1.877 1.877 0 0 0 .03-.293 1.995 1.995 0 0 0 -3.921-.525 3.951 3.951 0 0 0 -6.158 0 1.995 1.995 0 0 0 -3.921.525 1.877 1.877 0 0 0 .03.293 2 2 0 1 0 -1.03 3.707 1.905 1.905 0 0 0 .263-.027c.01.019.019.038.03.057-.093-.008-.193-.03-.293-.03a4 4 0 0 0 -4 4v.1a5.006 5.006 0 0 0 -1 9.49l2 .41h22l2-.41a5.006 5.006 0 0 0 -1-9.49z" fill="#e6e7e8"/><path d="m54 45h6v4h-6z" fill="#c6c5ca"/><path d="m54 41h6v4h-6z" fill="#898890"/><path d="m54 37h6v4h-6z" fill="#c6c5ca"/><path d="m60 33v4h-6v-4h3z" fill="#898890"/><path d="m54 53h6v4h-6z" fill="#c6c5ca"/><g fill="#898890"><path d="m54 49h6v4h-6z"/><path d="m54 57h6v4h-6z"/><path d="m50 37h-12v-8z"/><path d="m50 61h-12v-8z"/></g><path d="m50 29v8l-12-8z" fill="#c6c5ca"/><path d="m50 45h-12v-8z" fill="#898890"/><path d="m38 21h2 4 4 2v8z" fill="#c6c5ca"/><path d="m50 37v8l-12-8z" fill="#c6c5ca"/><path d="m50 29h-12v-8z" fill="#898890"/><path d="m50 53h-12v-8z" fill="#898890"/><path d="m50 53v8l-12-8z" fill="#c6c5ca"/><path d="m50 45v8l-12-8z" fill="#c6c5ca"/><circle cx="44" cy="11" fill="#ff9811" r="2"/><path d="m19 29a3 3 0 0 1 3 3c0 1.66-1.34 5-3 5s-3-3.34-3-5a3 3 0 0 1 3-3z" fill="#ff5023"/><path d="m24 22v-8h.23a3.977 3.977 0 0 1 3.74 2.6l1.52 4.05a.994.994 0 0 1 -.93 1.35z" fill="#bcbec0"/><path d="m14 14v8h-4.56a.994.994 0 0 1 -.93-1.35l1.52-4.05a3.977 3.977 0 0 1 3.74-2.6z" fill="#bcbec0"/><path d="m24 22-.67 1-1.33 2h-6l-1.33-2-.67-1z" fill="#bcbec0"/><path d="m24 9.18v12.82h-10v-12.82a3.9 3.9 0 0 1 .69-2.24c1-1.46 2.9-3.94 4.31-3.94s3.31 2.48 4.31 3.94a3.9 3.9 0 0 1 .69 2.24z" fill="#d1d3d4"/><circle cx="19" cy="9" fill="#e6e7e8" r="2"/><path d="m30 59a5.106 5.106 0 0 0 2-.41v2.41h-26v-2.41a5.106 5.106 0 0 0 2 .41 5.029 5.029 0 0 0 4.59-3h12.82a5.029 5.029 0 0 0 4.59 3z" fill="#787680"/><path d="m32 56v2.59a5.106 5.106 0 0 1 -2 .41 5.029 5.029 0 0 1 -4.59-3z" fill="#787680"/><path d="m6 56h6.59a5.029 5.029 0 0 1 -4.59 3 5.106 5.106 0 0 1 -2-.41z" fill="#787680"/><path d="m24 22-.67 1h-8.66l-.67-1z" fill="#a7a9ac"/><path d="m9.443 23h4.022l1.7 2.555a1 1 0 0 0 .835.445h6a1 1 0 0 0 .832-.445l1.703-2.555h4.022a2 2 0 0 0 1.873-2.7l-1.52-4.053a5.029 5.029 0 0 0 -3.91-3.186v-3.876a4.944 4.944 0 0 0 -.861-2.806c-2.995-4.379-4.609-4.379-5.139-4.379s-2.144 0-5.139 4.378a4.949 4.949 0 0 0 -.861 2.807v3.876a5.029 5.029 0 0 0 -3.91 3.184l-1.52 4.055a2 2 0 0 0 1.873 2.7zm12.022 1h-4.93l-.667-1h6.264zm5.572-7.053 1.52 4.053h-3.557v-5.89a3.011 3.011 0 0 1 2.037 1.837zm-12.037-7.762a2.959 2.959 0 0 1 .511-1.677c1.899-2.775 3.113-3.508 3.489-3.508s1.59.733 3.489 3.508a2.959 2.959 0 0 1 .511 1.677v11.815h-8zm-4.037 7.762a3.011 3.011 0 0 1 2.037-1.837v5.89h-3.557z"/><path d="m19 28a4 4 0 0 0 -4 4c0 2.06 1.558 6 4 6s4-3.94 4-6a4 4 0 0 0 -4-4zm0 8c-.748 0-2-2.505-2-4a2 2 0 0 1 4 0c0 1.495-1.252 4-2 4z"/><path d="m61 60v-27a1 1 0 0 0 -1-1h-2v-7h-2v7h-2a1 1 0 0 0 -1 1v27h-2v-39a1 1 0 0 0 -1-1h-1v-3h-2v3h-2v-6.184a3 3 0 1 0 -2 0v6.184h-2v-3h-2v3h-1a1 1 0 0 0 -1 1v39h-4v-.813a5.995 5.995 0 0 0 -1.045-10.862 5 5 0 0 0 -2.467-3.651 2.98 2.98 0 0 0 .512-1.674 3.018 3.018 0 0 0 -3.169-2.995 3 3 0 0 0 -5.831.995h2a1 1 0 0 1 2 0 1.253 1.253 0 0 1 -.014.167 1 1 0 0 0 1.508.971.974.974 0 0 1 .506-.138 1 1 0 0 1 0 2 5.006 5.006 0 0 0 -5 5h2a3 3 0 0 1 6 0v.1a1 1 0 0 0 .8.981 4 4 0 0 1 2.2 6.562v-.643a1 1 0 0 0 -1-1h-26a1 1 0 0 0 -1 1v.644a4 4 0 0 1 2.2-6.563 1 1 0 0 0 .8-.981v-.1a3 3 0 0 1 6 0h2a5.006 5.006 0 0 0 -5-5 1 1 0 0 1 0-2 .974.974 0 0 1 .506.138 1 1 0 0 0 1.508-.971 1.253 1.253 0 0 1 -.014-.167 1 1 0 0 1 2 0h2a3 3 0 0 0 -5.831-.995 3.023 3.023 0 0 0 -3.169 2.995 2.98 2.98 0 0 0 .512 1.674 5 5 0 0 0 -2.467 3.651 5.995 5.995 0 0 0 -1.045 10.862v.813h-3v2h60v-2zm-17-50a1 1 0 1 1 -1 1 1 1 0 0 1 1-1zm15 30h-4v-2h4zm0 2v2h-4v-2zm0 4v2h-4v-2zm0 4v2h-4v-2zm0 4v2h-4v-2zm0-20v2h-4v-2zm-10 1.132-7.7-5.132h7.7zm0 8-7.7-5.132h7.7zm0 8-7.7-5.132h7.7zm0-24-7.7-5.132h7.7zm-2.3.868h-7.7v-5.132zm0 8h-7.7v-5.132zm0 8h-7.7v-5.132zm0 8h-7.7v-5.132zm2.3 2v5.132l-7.7-5.132zm-42 3h24v3h-24zm32-2.132 7.7 5.132h-7.7zm16 5.132v-2h4v2z"/><path d="m19 6a3 3 0 1 0 3 3 3 3 0 0 0 -3-3zm0 4a1 1 0 1 1 1-1 1 1 0 0 1 -1 1z"/><path d="m57 8h2v-2h2v-2h-2v-2h-2v2h-2v2h2z"/><path d="m56 13h2v2h-2z"/><path d="m4 6h2v2h-2z"/><path d="m7 29h2v2h-2z"/><path d="m29 29h2v2h-2z"/></g></svg>