<?xml version="1.0" encoding="UTF-8" standalone="no"?>
<svg
   xmlns:dc="http://purl.org/dc/elements/1.1/"
   xmlns:cc="http://creativecommons.org/ns#"
   xmlns:rdf="http://www.w3.org/1999/02/22-rdf-syntax-ns#"
   xmlns:svg="http://www.w3.org/2000/svg"
   xmlns="http://www.w3.org/2000/svg"
   xmlns:sodipodi="http://sodipodi.sourceforge.net/DTD/sodipodi-0.dtd"
   xmlns:inkscape="http://www.inkscape.org/namespaces/inkscape"
   height="512pt"
   viewBox="-1 0 511 512"
   width="512pt"
   version="1.1"
   id="svg20"
   sodipodi:docname="whatsapp.svg"
   inkscape:version="0.92.3 (2405546, 2018-03-11)">
  <metadata
     id="metadata26">
    <rdf:RDF>
      <cc:Work
         rdf:about="">
        <dc:format>image/svg+xml</dc:format>
        <dc:type
           rdf:resource="http://purl.org/dc/dcmitype/StillImage" />
      </cc:Work>
    </rdf:RDF>
  </metadata>
  <defs
     id="defs24" />
  <sodipodi:namedview
     pagecolor="#ffffff"
     bordercolor="#666666"
     borderopacity="1"
     objecttolerance="10"
     gridtolerance="10"
     guidetolerance="10"
     inkscape:pageopacity="0"
     inkscape:pageshadow="2"
     inkscape:window-width="1440"
     inkscape:window-height="858"
     id="namedview22"
     showgrid="false"
     inkscape:zoom="0.34570313"
     inkscape:cx="341.33333"
     inkscape:cy="341.33333"
     inkscape:window-x="-11"
     inkscape:window-y="-11"
     inkscape:window-maximized="1"
     inkscape:current-layer="svg20" />
  <g
     id="g8"
     fill-rule="evenodd">
    <path
       d="m255.851562 50c112.46875 0 203.617188 91.152344 203.617188 203.621094s-91.148438 203.617187-203.617188 203.617187c-34.277343 0-67.742187-8.480469-97.796874-24.980469l-14.125-7.753906-75.921876 20.519532 20.699219-73.867188-8.609375-14.667969c-18.359375-31.289062-27.867187-66.59375-27.867187-102.867187 0-112.46875 91.152343-203.621094 203.621093-203.621094zm-117.042968 417.320312c34.734375 19.070313 74.621094 29.917969 117.042968 29.917969 134.546876 0 243.617188-109.070312 243.617188-243.617187 0-134.550782-109.070312-243.621094-243.617188-243.621094-134.550781 0-243.621093 109.070312-243.621093 243.621094 0 44.914062 12.167969 86.984375 33.371093 123.113281l-35.101562 125.265625zm0 0"
       id="path2"
       fill="#fff"
       style="fill:#9370db" />
    <path
       d="m459.46875 253.621094c0-112.46875-91.148438-203.621094-203.617188-203.621094s-203.621093 91.152344-203.621093 203.621094c0 36.273437 9.507812 71.578125 27.871093 102.867187l8.605469 14.667969-20.699219 73.867188 75.921876-20.519532 14.128906 7.753906c30.050781 16.5 63.515625 24.980469 97.792968 24.980469 112.46875 0 203.617188-91.148437 203.617188-203.617187zm-261.710938-10.386719c9.160157 15.867187 25.152344 33.699219 39.933594 45.144531 17.855469 13.824219 45.863282 31.988282 54.96875 23.933594 4.296875-3.800781 16.121094-20.933594 17.695313-22.15625 1.578125-1.226562 6.824219-9.988281 19.210937-3.984375 12.382813 6.007813 43.28125 21.335937 43.28125 21.335937s6.695313 2.703126 6.410156 13.195313c-.28125 10.488281-.738281 13.175781-.738281 13.175781s-4.488281 35.972656-53.589843 37.40625c-22.226563.648438-47.964844-8.414062-70.769532-20.046875-38.925781-19.847656-63.238281-41.785156-89.238281-75.90625-17.65625-23.167969-35.292969-53.609375-32.175781-80.667969 5.410156-46.949218 35.265625-51.277343 35.265625-51.277343s2.703125-.324219 13.199219-.109375c10.492187.214844 12.871093 7.03125 12.871093 7.03125s14.496094 33.105468 19.90625 45.761718c5.410157 12.65625-.433593 18.171876-1.730469 19.6875-1.296874 1.515626-9.085937 10.710938-13.089843 14.820313-4.003907 4.109375-3.050781 9.808594-1.410157 12.65625zm0 0"
       id="path4"
       style="fill:#4b0082"
       fill="#2bb140" />
    <path
       d="m213.984375 196.066406c-5.40625-12.65625-19.902344-45.757812-19.902344-45.757812s-2.378906-6.816406-12.875-7.03125c-10.492187-.214844-13.199219.109375-13.199219.109375s-29.855468 4.328125-35.265624 51.277343c-3.117188 27.058594 14.519531 57.496094 32.175781 80.667969 26.003906 34.121094 50.316406 56.058594 89.238281 75.90625 22.808594 11.628907 48.546875 20.695313 70.773438 20.046875 49.101562-1.433594 53.589843-37.40625 53.589843-37.40625s.453125-2.6875.738281-13.179687c.285157-10.488281-6.410156-13.191407-6.410156-13.191407s-30.898437-15.328124-43.285156-21.335937c-12.382812-6.007813-17.632812 2.757813-19.207031 3.980469-1.574219 1.226562-13.402344 18.359375-17.699219 22.160156-9.101562 8.054688-37.113281-10.109375-54.96875-23.933594-14.777344-11.445312-30.769531-29.277344-39.929688-45.144531-1.644531-2.847656-2.597656-8.546875 1.40625-12.660156 4.003907-4.109375 11.792969-13.304688 13.089844-14.816407 1.300782-1.515624 7.140625-7.03125 1.730469-19.691406zm0 0"
       id="path6"
       style="fill:#00ffff"
       fill="#fff" />
  </g>
  <path
     d="M 432.8086,70.52735 C 384.90625,22.62891 321.21485,-3.7538999 253.47266,-3.7538999 200.19141,-3.7538999 149.19532,12.58985 106,43.51563 c -4.49218,3.21484 -5.52734,9.46094 -2.3125,13.95312 3.21875,4.49219 9.46485,5.52344 13.95313,2.3086 39.78125,-28.47656 86.75,-43.53125 135.83203,-43.53125 128.81641,0 233.61719,104.80078 233.61719,233.62109 0,128.81641 -104.80078,233.61719 -233.61719,233.61719 -39.24219,0 -78.05078,-9.91797 -112.23047,-28.68359 -2.26953,-1.24219 -4.92969,-1.5586 -7.42187,-0.88672 L 22.5,484 52.85157,375.67969 c 0.73437,-2.61719 0.37109,-5.41797 -1.00391,-7.75781 C 30.91407,332.25 19.85157,291.42969 19.85157,249.86719 c 0,-49.08594 15.05468,-96.05469 43.53125,-135.83203 3.21484,-4.48828 2.17968,-10.73437 -2.3086,-13.94922 -4.49219,-3.21484 -10.73828,-2.18359 -13.95312,2.3086 -30.92578,43.1914 -47.26953004,94.1875 -47.26953004,147.47265 0,43.6836 11.26171004,86.61719 32.60937004,124.46094 L -1.50781,495.54688 c -0.97266,3.46484 -0.004,7.18359 2.5234399,9.73828 1.90625,1.91797 4.47265,2.96094 7.10547,2.96094 0.87109,0 1.74609,-0.11328 2.6093701,-0.34766 l 124.46485,-33.63672 c 36.23828,19.12891 77.04296,29.22266 118.27343,29.22266 67.7461,0 131.4375,-26.37891 179.33594,-74.28516 47.90234,-47.89843 74.28516,-111.58984 74.28516,-179.33593 0,-67.74219 -26.37891,-131.42969 -74.28125,-179.33594 z m 0,0"
     id="path10"
     inkscape:connector-curvature="0" />
  <path
     d="m 416.55079,370.13672 c 4.5937,3.06641 10.8047,1.82813 13.8711,-2.76562 23.4375,-35.11719 35.8281,-76.07813 35.8281,-118.45703 0,-57.0625 -22.2187,-110.71094 -62.5625,-151.054694 -40.3437,-40.34375 -93.98827,-62.5625 -151.05467,-62.5625 -57.06641,0 -110.71485,22.21875 -151.0586,62.5625 -40.343752,40.343754 -62.562502,93.992194 -62.562502,151.058594 0,38.00782 10.11328,75.32813 29.2461,107.92969 l 6.45312,11 -19.55078,69.77344 c -0.97266,3.46094 -0.008,7.17969 2.52344,9.73438 2.53125,2.55468 6.24218,3.55468 9.71484,2.61718 l 72.031252,-19.46875 10.59375,5.81641 c 31.24219,17.15234 66.72266,26.21484 102.60547,26.21484 42.38281,0 83.34375,-12.39062 118.45708,-35.83203 4.5937,-3.0625 5.832,-9.27343 2.7656,-13.86718 -3.0664,-4.59375 -9.2735,-5.83204 -13.8672,-2.76563 -31.81642,21.23828 -68.93751,32.46484 -107.35548,32.46484 -32.52734,0 -64.67969,-8.21093 -92.98047,-23.74609 l -14.125,-7.75781 c -2.26562,-1.24219 -4.92578,-1.5586 -7.42187,-0.88672 l -58.937502,15.92969 15.95312,-56.92579 c 0.730472,-2.61719 0.37109,-5.41797 -1.00391,-7.75781 l -8.60937,-14.66797 c -17.33203,-29.53516 -26.49219,-63.35547 -26.49219,-97.80859 0,-106.76172 86.859382,-193.617194 193.621102,-193.617194 106.76167,0 193.61717,86.855474 193.61717,193.621094 0,38.41016 -11.2265,75.53125 -32.4648,107.35157 -3.0664,4.59375 -1.8282,10.80078 2.7656,13.86718 z m 0,0"
     id="path12"
     inkscape:connector-curvature="0"
     style="fill:#fffff0" />
  <path
     d="m 212.10546,226.33989 0.66016,-0.76954 c 8.95703,-10.05468 6.69531,-21.86328 3.21875,-29.99609 -5.13672,-12.01172 -18.57422,-42.71484 -19.84766,-45.62109 -1.98437,-5.01563 -8.60547,-12.96094 -21.92187,-13.23828 -10.38282,-0.21094 -13.79688,0.082 -14.59375,0.17968 -0.082,0.008 -0.16407,0.0195 -0.24219,0.0312 -1.53125,0.22266 -37.54688,6.05078 -43.76563,60.03125 -2.85937,24.81641 8.63282,54.37891 34.15625,87.87501 28.25782,37.08203 54.23438,59.16406 92.64844,78.75 19.12891,9.7539 47.07031,21.17187 73.08203,21.17187 0.84375,0 1.6875,-0.0117 2.52344,-0.0391 29.21484,-0.85156 44.81641,-12.99219 52.75782,-23.02735 8.42968,-10.65234 10.1914,-21.14843 10.44531,-22.96875 0.16797,-1.15625 0.57422,-4.80468 0.83203,-14.30859 0.35937,-13.31641 -7.26563,-20.3086 -12.17969,-22.53125 -2.77734,-1.37891 -31.41016,-15.57422 -43.14844,-21.26562 -7.92578,-3.84766 -19.57812,-6.04297 -30.0664,5.33594 -0.0547,0.0586 -0.10547,0.11718 -0.15625,0.16796 -1.41797,1.23829 -2.82032,3.08594 -7.08204,8.78906 -2.625,3.51173 -7.86328,10.51954 -10.08984,12.85938 -4.70312,0.33203 -20.42969,-6.59375 -42.72266,-23.85547 -14.05078,-10.88281 -29.05468,-27.82422 -37.35546,-42.17578 -0.082,-0.20312 -0.13282,-0.57422 -0.10938,-0.76172 3.44141,-3.53906 9.04297,-10.04297 12.95703,-14.63281 z m 12.26172,73.38281 c 6.66406,5.16016 19.73047,14.77344 32.36328,21.1836 5.97266,3.02734 24.14844,12.25 35.35547,2.33203 3.09375,-2.73828 7.48828,-8.50781 13.35547,-16.35938 1.69141,-2.26172 3.76953,-5.03906 4.57422,-6 0.52344,-0.47656 0.95703,-0.94531 1.35156,-1.375 1.80078,-1.95312 2.62109,-2.84375 6.63281,-0.89843 12.04688,5.84375 42.10157,20.75 43.17969,21.28125 0.3711,0.37109 0.94922,1.57812 0.88282,3.98046 -0.22266,8.28907 -0.54688,11.28516 -0.61329,11.84766 -0.043,0.20703 -0.0234,0.082 -0.0469,0.30859 -0.11719,0.67969 -1.375,7.38282 -6.88672,13.96485 -7.77344,9.28906 -20.2461,14.24609 -37.07422,14.73437 -22.5,0.66797 -48.26953,-9.94531 -65.94141,-18.95703 -35.95312,-18.33594 -59.21484,-38.13672 -85.82812,-73.05859 -21.96875,-28.82813 -32.41016,-54.23438 -30.19531,-73.46485 4.17187,-36.20703 24.01562,-41.89453 26.67578,-42.49609 0.9375,-0.0586 4.10937,-0.19141 11.64843,-0.0352 2.40235,0.0508 3.57813,0.6875 3.9336,1.07421 0.49609,1.13282 14.59375,33.33594 19.85547,45.64844 2.6289,6.15235 1.01562,7.96485 0.23828,8.83594 -0.14063,0.15625 -0.26172,0.29687 -0.36719,0.41406 l -0.57422,0.67578 c -5.77734,6.76953 -9.84375,11.375 -12.08594,13.67578 -7.38281,7.58594 -6.68359,18.08594 -2.90234,24.63282 9.61719,16.66406 26.28906,35.52343 42.46875,48.05468 z m 0,0"
     id="path14"
     inkscape:connector-curvature="0" />
  <path
     d="m 88.085938,97.351562 c 2.402343,0 4.8125,-0.859374 6.726562,-2.601562 4.085938,-3.714844 4.390625,-10.039062 0.675781,-14.125 -3.71875,-4.085938 -10.039062,-4.386719 -14.128906,-0.671875 l -0.0039,0.0039 c -4.085938,3.714844 -4.382813,10.035157 -0.667969,14.125 1.972656,2.167969 4.679688,3.269531 7.398438,3.269531 z m 0,0"
     id="path16"
     style="fill:#fffff0"
     inkscape:connector-curvature="0" />
  <path
     d="m392.433594 390.871094-.003906.007812c-3.714844 4.085938-3.410157 10.40625.675781 14.121094 1.914062 1.742188 4.320312 2.601562 6.722656 2.601562 2.71875 0 5.429687-1.105468 7.402344-3.277343 3.71875-4.085938 3.414062-10.410157-.671875-14.125-4.085938-3.714844-10.410156-3.414063-14.125.671875zm0 0"
     id="path18"
     style="fill:#fffff0" />
</svg>
