<?xml version="1.0" encoding="UTF-8" standalone="no"?>
<!-- Generator: Adobe Illustrator 19.0.0, SVG Export Plug-In . SVG Version: 6.00 Build 0)  -->

<svg
   xmlns:dc="http://purl.org/dc/elements/1.1/"
   xmlns:cc="http://creativecommons.org/ns#"
   xmlns:rdf="http://www.w3.org/1999/02/22-rdf-syntax-ns#"
   xmlns:svg="http://www.w3.org/2000/svg"
   xmlns="http://www.w3.org/2000/svg"
   xmlns:sodipodi="http://sodipodi.sourceforge.net/DTD/sodipodi-0.dtd"
   xmlns:inkscape="http://www.inkscape.org/namespaces/inkscape"
   version="1.1"
   id="Capa_1"
   x="0px"
   y="0px"
   viewBox="0 0 512 512"
   style="enable-background:new 0 0 512 512;"
   xml:space="preserve"
   sodipodi:docname="coppia-seguranca.svg"
   inkscape:version="0.92.3 (2405546, 2018-03-11)"><metadata
   id="metadata61"><rdf:RDF><cc:Work
       rdf:about=""><dc:format>image/svg+xml</dc:format><dc:type
         rdf:resource="http://purl.org/dc/dcmitype/StillImage" /><dc:title /></cc:Work></rdf:RDF></metadata><defs
   id="defs59" /><sodipodi:namedview
   pagecolor="#ffffff"
   bordercolor="#666666"
   borderopacity="1"
   objecttolerance="10"
   gridtolerance="10"
   guidetolerance="10"
   inkscape:pageopacity="0"
   inkscape:pageshadow="2"
   inkscape:window-width="1440"
   inkscape:window-height="858"
   id="namedview57"
   showgrid="false"
   inkscape:zoom="0.4609375"
   inkscape:cx="-165.9661"
   inkscape:cy="256"
   inkscape:window-x="-11"
   inkscape:window-y="-11"
   inkscape:window-maximized="1"
   inkscape:current-layer="Capa_1" />
<path
   style="fill:#ECEFF1;"
   d="M496,432.011H272c-8.832,0-16-7.168-16-16s0-311.168,0-320s7.168-16,16-16h224  c8.832,0,16,7.168,16,16v320C512,424.843,504.832,432.011,496,432.011z"
   id="path2" />
<g
   id="g20"
   style="fill:#9400d3">
	<path
   style="fill:#9400d3"
   d="M336,176.011h-64c-8.832,0-16-7.168-16-16s7.168-16,16-16h64c8.832,0,16,7.168,16,16   S344.832,176.011,336,176.011z"
   id="path4" />
	<path
   style="fill:#9400d3"
   d="M336,240.011h-64c-8.832,0-16-7.168-16-16s7.168-16,16-16h64c8.832,0,16,7.168,16,16   S344.832,240.011,336,240.011z"
   id="path6" />
	<path
   style="fill:#9400d3"
   d="M336,304.011h-64c-8.832,0-16-7.168-16-16s7.168-16,16-16h64c8.832,0,16,7.168,16,16   S344.832,304.011,336,304.011z"
   id="path8" />
	<path
   style="fill:#9400d3"
   d="M336,368.011h-64c-8.832,0-16-7.168-16-16s7.168-16,16-16h64c8.832,0,16,7.168,16,16   S344.832,368.011,336,368.011z"
   id="path10" />
	<path
   style="fill:#9400d3"
   d="M432,176.011h-32c-8.832,0-16-7.168-16-16s7.168-16,16-16h32c8.832,0,16,7.168,16,16   S440.832,176.011,432,176.011z"
   id="path12" />
	<path
   style="fill:#9400d3"
   d="M432,240.011h-32c-8.832,0-16-7.168-16-16s7.168-16,16-16h32c8.832,0,16,7.168,16,16   S440.832,240.011,432,240.011z"
   id="path14" />
	<path
   style="fill:#9400d3"
   d="M432,304.011h-32c-8.832,0-16-7.168-16-16s7.168-16,16-16h32c8.832,0,16,7.168,16,16   S440.832,304.011,432,304.011z"
   id="path16" />
	<path
   style="fill:#9400d3"
   d="M432,368.011h-32c-8.832,0-16-7.168-16-16s7.168-16,16-16h32c8.832,0,16,7.168,16,16   S440.832,368.011,432,368.011z"
   id="path18" />
</g>
<path
   style="fill:#4b0082"
   d="M282.208,19.691c-3.648-3.04-8.544-4.352-13.152-3.392l-256,48C5.472,65.707,0,72.299,0,80.011v352  c0,7.68,5.472,14.304,13.056,15.712l256,48c0.96,0.192,1.952,0.288,2.944,0.288c3.712,0,7.328-1.28,10.208-3.68  c3.68-3.04,5.792-7.584,5.792-12.32v-448C288,27.243,285.888,22.731,282.208,19.691z"
   id="path22" />
<path
   style="fill:#00ffff"
   d="M220.032,309.483l-50.592-57.824l51.168-65.792c5.44-6.976,4.16-17.024-2.784-22.464  c-6.944-5.44-16.992-4.16-22.464,2.784l-47.392,60.928l-39.936-45.632c-5.856-6.72-15.968-7.328-22.56-1.504  c-6.656,5.824-7.328,15.936-1.504,22.56l44,50.304L83.36,310.187c-5.44,6.976-4.16,17.024,2.784,22.464  c2.944,2.272,6.432,3.36,9.856,3.36c4.768,0,9.472-2.112,12.64-6.176l40.8-52.48l46.528,53.152  c3.168,3.648,7.584,5.504,12.032,5.504c3.744,0,7.488-1.312,10.528-3.968C225.184,326.219,225.856,316.107,220.032,309.483z"
   id="path24" />
<g
   id="g26">
</g>
<g
   id="g28">
</g>
<g
   id="g30">
</g>
<g
   id="g32">
</g>
<g
   id="g34">
</g>
<g
   id="g36">
</g>
<g
   id="g38">
</g>
<g
   id="g40">
</g>
<g
   id="g42">
</g>
<g
   id="g44">
</g>
<g
   id="g46">
</g>
<g
   id="g48">
</g>
<g
   id="g50">
</g>
<g
   id="g52">
</g>
<g
   id="g54">
</g>
</svg>