<?xml version="1.0" encoding="UTF-8" standalone="no"?>
<svg
   xmlns:dc="http://purl.org/dc/elements/1.1/"
   xmlns:cc="http://creativecommons.org/ns#"
   xmlns:rdf="http://www.w3.org/1999/02/22-rdf-syntax-ns#"
   xmlns:svg="http://www.w3.org/2000/svg"
   xmlns="http://www.w3.org/2000/svg"
   xmlns:sodipodi="http://sodipodi.sourceforge.net/DTD/sodipodi-0.dtd"
   xmlns:inkscape="http://www.inkscape.org/namespaces/inkscape"
   height="464pt"
   viewBox="0 0 464 464"
   width="464pt"
   version="1.1"
   id="svg52"
   sodipodi:docname="birthday-cake.svg"
   inkscape:version="0.92.3 (2405546, 2018-03-11)">
  <metadata
     id="metadata58">
    <rdf:RDF>
      <cc:Work
         rdf:about="">
        <dc:format>image/svg+xml</dc:format>
        <dc:type
           rdf:resource="http://purl.org/dc/dcmitype/StillImage" />
      </cc:Work>
    </rdf:RDF>
  </metadata>
  <defs
     id="defs56" />
  <sodipodi:namedview
     pagecolor="#ffffff"
     bordercolor="#666666"
     borderopacity="1"
     objecttolerance="10"
     gridtolerance="10"
     guidetolerance="10"
     inkscape:pageopacity="0"
     inkscape:pageshadow="2"
     inkscape:window-width="1440"
     inkscape:window-height="858"
     id="namedview54"
     showgrid="false"
     inkscape:zoom="0.38146552"
     inkscape:cx="309.33333"
     inkscape:cy="309.33333"
     inkscape:window-x="-11"
     inkscape:window-y="-11"
     inkscape:window-maximized="1"
     inkscape:current-layer="svg52" />
  <path
     d="m432 344c-22.089844 0-40-17.910156-40-40 0 22.089844-17.910156 40-40 40s-40-17.910156-40-40c0 22.089844-17.910156 40-40 40s-40-17.910156-40-40c0 22.089844-17.910156 40-40 40s-40-17.910156-40-40c0 22.089844-17.910156 40-40 40s-40-17.910156-40-40c0 17.21875-11.015625 32.503906-27.351562 37.949219-16.332032 5.441406-34.316407-.175781-44.648438-13.949219v120c0 8.835938 7.164062 16 16 16h432c8.835938 0 16-7.164062 16-16v-120c-7.5625 10.0625-19.414062 15.988281-32 16zm0 0"
     fill="#a25bcd"
     id="path2" />
  <path
     d="m464 432v16c-.027344 8.824219-7.175781 15.972656-16 16h-432c-8.824219-.027344-15.9726562-7.175781-16-16v-16c.0273438 8.824219 7.175781 15.972656 16 16h432c8.824219-.027344 15.972656-7.175781 16-16zm0 0"
     fill="#8249a4"
     id="path4" />
  <g
     fill="#e3cef0"
     id="g18">
    <path
       d="m272 344c22.089844 0 40-17.910156 40-40h-80c0 22.089844 17.910156 40 40 40zm0 0"
       id="path6" />
    <path
       d="m352 344c22.089844 0 40-17.910156 40-40h-80c0 22.089844 17.910156 40 40 40zm0 0"
       id="path8" />
    <path
       d="m448 304h-56c0 17.21875 11.015625 32.503906 27.351562 37.949219 16.332032 5.441406 34.316407-.175781 44.648438-13.949219v-8c0-8.835938-7.164062-16-16-16zm0 0"
       id="path10" />
    <path
       d="m32 344c22.089844 0 40-17.910156 40-40h-56c-8.835938 0-16 7.164062-16 16v8c7.5625 10.0625 19.414062 15.988281 32 16zm0 0"
       id="path12" />
    <path
       d="m112 344c22.089844 0 40-17.910156 40-40h-80c0 22.089844 17.910156 40 40 40zm0 0"
       id="path14" />
    <path
       d="m192 344c22.089844 0 40-17.910156 40-40h-80c0 22.089844 17.910156 40 40 40zm0 0"
       id="path16" />
  </g>
  <path
     d="m152 304h264v-96c-6.90625 5.222656-15.339844 8.035156-24 8-22.089844 0-40-17.910156-40-40 0 22.089844-17.910156 40-40 40s-40-17.910156-40-40c0 22.089844-17.910156 40-40 40s-40-17.910156-40-40c0 22.089844-17.910156 40-40 40s-40-17.910156-40-40c0 22.089844-17.910156 40-40 40-8.660156.035156-17.09375-2.777344-24-8v96zm0 0"
     fill="#f072ae"
     id="path20"
     style="fill:#48d1cc" />
  <path
     d="m232 216c22.089844 0 40-17.910156 40-40h-80c0 22.089844 17.910156 40 40 40zm0 0"
     fill="#ff3051"
     id="path22"
     style="fill:#4682b4" />
  <path
     d="m312 216c22.089844 0 40-17.910156 40-40h-80c0 22.089844 17.910156 40 40 40zm0 0"
     fill="#ff3051"
     id="path24"
     style="fill:#4682b4" />
  <path
     d="m392 216c8.660156.035156 17.09375-2.777344 24-8v-16c0-8.835938-7.164062-16-16-16h-48c0 22.089844 17.910156 40 40 40zm0 0"
     fill="#ff3051"
     id="path26"
     style="fill:#4682b4" />
  <path
     d="m152 216c22.089844 0 40-17.910156 40-40h-80c0 22.089844 17.910156 40 40 40zm0 0"
     fill="#ff3051"
     id="path28"
     style="fill:#4682b4" />
  <path
     d="m112 176h-48c-8.835938 0-16 7.164062-16 16v16c6.90625 5.222656 15.339844 8.035156 24 8 22.089844 0 40-17.910156 40-40zm0 0"
     fill="#ff3051"
     id="path30"
     style="fill:#4682b4" />
  <path
     d="m216 96h32v80h-32zm0 0"
     fill="#ffcd00"
     id="path32" />
  <path
     d="m232 72c13.253906 0 24-10.746094 24-24 0-13.257812-24-48-24-48s-24 34.742188-24 48c0 13.253906 10.746094 24 24 24zm0 0"
     fill="#ff5023"
     id="path34" />
  <path
     d="m304 96h32v80h-32zm0 0"
     fill="#ffcd00"
     id="path36" />
  <path
     d="m320 72c13.253906 0 24-10.746094 24-24 0-13.257812-24-48-24-48s-24 34.742188-24 48c0 13.253906 10.746094 24 24 24zm0 0"
     fill="#ff5023"
     id="path38" />
  <path
     d="m128 96h32v80h-32zm0 0"
     fill="#ffcd00"
     id="path40" />
  <path
     d="m120 48c0 13.253906 10.746094 24 24 24s24-10.746094 24-24c0-13.257812-24-48-24-48s-24 34.742188-24 48zm0 0"
     fill="#ff5023"
     id="path42" />
  <path
     d="m48 288h368v16h-368zm0 0"
     fill="#d8679d"
     id="path44"
     style="fill:#2f4f4f" />
  <path
     d="m128 96h32v8h-32zm0 0"
     fill="#e5b800"
     id="path46" />
  <path
     d="m216 96h32v8h-32zm0 0"
     fill="#e5b800"
     id="path48" />
  <path
     d="m304 96h32v8h-32zm0 0"
     fill="#e5b800"
     id="path50" />
</svg>
