<?xml version="1.0" encoding="UTF-8" standalone="no"?>
<svg
   xmlns:dc="http://purl.org/dc/elements/1.1/"
   xmlns:cc="http://creativecommons.org/ns#"
   xmlns:rdf="http://www.w3.org/1999/02/22-rdf-syntax-ns#"
   xmlns:svg="http://www.w3.org/2000/svg"
   xmlns="http://www.w3.org/2000/svg"
   xmlns:sodipodi="http://sodipodi.sourceforge.net/DTD/sodipodi-0.dtd"
   xmlns:inkscape="http://www.inkscape.org/namespaces/inkscape"
   height="512"
   viewBox="0 0 64 64"
   width="512"
   version="1.1"
   id="svg35"
   sodipodi:docname="calendar-welcome.svg"
   inkscape:version="0.92.3 (2405546, 2018-03-11)">
  <metadata
     id="metadata41">
    <rdf:RDF>
      <cc:Work
         rdf:about="">
        <dc:format>image/svg+xml</dc:format>
        <dc:type
           rdf:resource="http://purl.org/dc/dcmitype/StillImage" />
      </cc:Work>
    </rdf:RDF>
  </metadata>
  <defs
     id="defs39" />
  <sodipodi:namedview
     pagecolor="#ffffff"
     bordercolor="#666666"
     borderopacity="1"
     objecttolerance="10"
     gridtolerance="10"
     guidetolerance="10"
     inkscape:pageopacity="0"
     inkscape:pageshadow="2"
     inkscape:window-width="1440"
     inkscape:window-height="858"
     id="namedview37"
     showgrid="false"
     inkscape:zoom="0.921875"
     inkscape:cx="124.60113"
     inkscape:cy="309.97314"
     inkscape:window-x="-11"
     inkscape:window-y="-11"
     inkscape:window-maximized="1"
     inkscape:current-layer="Calendar" />
  <g
     id="Calendar">
    <path
       d="m59 17v42a2.006 2.006 0 0 1 -2 2h-50a2.006 2.006 0 0 1 -2-2v-42z"
       fill="#57a4ff"
       id="path2" />
    <path
       d="m57 17v24a20.059 20.059 0 0 1 -20 20h20a2.006 2.006 0 0 0 2-2v-42z"
       fill="#2488ff"
       id="path4" />
    <path
       d="m59 9v8h-54v-8a2.006 2.006 0 0 1 2-2h50a2.006 2.006 0 0 1 2 2z"
       fill="#ed1c24"
       id="path6"
       style="fill:#9400d3" />
    <path
       d="m57 7h-2a2.006 2.006 0 0 1 2 2v8h2v-8a2.006 2.006 0 0 0 -2-2z"
       fill="#d80027"
       id="path8"
       style="fill:#4b0082" />
    <path
       d="m52 5v4a2 2 0 0 1 -4 0v-4a2 2 0 0 1 4 0z"
       fill="#ff9811"
       id="path10"
       style="fill:#00ffff" />
    <path
       d="m50.819 3.181a1.974 1.974 0 0 1 .181.819v4a2.006 2.006 0 0 1 -2 2 1.974 1.974 0 0 1 -.819-.181 2 2 0 0 0 3.819-.819v-4a2 2 0 0 0 -1.181-1.819z"
       fill="#ee8700"
       id="path12"
       style="fill:#00ffff" />
    <g
       fill="#ff9811"
       id="g20"
       style="fill:#00ffff">
      <path
         d="m40 5v4a2 2 0 0 1 -4 0v-4a2 2 0 0 1 4 0z"
         id="path14"
         style="fill:#00ffff" />
      <path
         d="m16 5v4a2 2 0 0 1 -4 0v-4a2 2 0 0 1 4 0z"
         id="path16"
         style="fill:#00ffff" />
      <path
         d="m28 5v4a2 2 0 0 1 -4 0v-4a2 2 0 0 1 4 0z"
         id="path18"
         style="fill:#00ffff" />
    </g>
    <path
       d="m29 29v20h-4v4h14v-4h-4v-24h-7l-5 4 2 3z"
       fill="#ffcd00"
       id="path22" />
    <path
       d="m38.819 3.181a1.974 1.974 0 0 1 .181.819v4a2.006 2.006 0 0 1 -2 2 1.974 1.974 0 0 1 -.819-.181 2 2 0 0 0 3.819-.819v-4a2 2 0 0 0 -1.181-1.819z"
       fill="#ee8700"
       id="path24"
       style="fill:#008b8b" />
    <path
       d="m26.819 3.181a1.974 1.974 0 0 1 .181.819v4a2.006 2.006 0 0 1 -2 2 1.974 1.974 0 0 1 -.819-.181 2 2 0 0 0 3.819-.819v-4a2 2 0 0 0 -1.181-1.819z"
       fill="#ee8700"
       id="path26"
       style="fill:#008b8b" />
    <path
       d="m14.819 3.181a1.974 1.974 0 0 1 .181.819v4a2.006 2.006 0 0 1 -2 2 1.974 1.974 0 0 1 -.819-.181 2 2 0 0 0 3.819-.819v-4a2 2 0 0 0 -1.181-1.819z"
       fill="#ee8700"
       id="path28"
       style="fill:#00ced1" />
    <path
       d="m57 6h-4v-1a3 3 0 0 0 -6 0v1h-6v-1a3 3 0 0 0 -6 0v1h-6v-1a3 3 0 0 0 -6 0v1h-6v-1a3 3 0 0 0 -6 0v1h-4a3.009 3.009 0 0 0 -3 3v50a3.009 3.009 0 0 0 3 3h50a3.009 3.009 0 0 0 3-3v-50a3.009 3.009 0 0 0 -3-3zm-8-1a1 1 0 0 1 2 0v4a1 1 0 0 1 -2 0zm-12 0a1 1 0 0 1 2 0v4a1 1 0 0 1 -2 0zm-12 0a1 1 0 0 1 2 0v4a1 1 0 0 1 -2 0zm-12 0a1 1 0 0 1 2 0v4a1 1 0 0 1 -2 0zm45 54a1 1 0 0 1 -1 1h-50a1 1 0 0 1 -1-1v-41h52zm0-43h-52v-7a1 1 0 0 1 1-1h4v1a3 3 0 0 0 6 0v-1h6v1a3 3 0 0 0 6 0v-1h6v1a3 3 0 0 0 6 0v-1h6v1a3 3 0 0 0 6 0v-1h4a1 1 0 0 1 1 1z"
       id="path30"
       fill="#231f20" />
    <path
       d="m24.168 32.555a1 1 0 0 0 1.432.245l2.4-1.8v17h-3a1 1 0 0 0 -1 1v4a1 1 0 0 0 1 1h14a1 1 0 0 0 1-1v-4a1 1 0 0 0 -1-1h-3v-23a1 1 0 0 0 -1-1h-7a1 1 0 0 0 -.625.219l-5 4a1 1 0 0 0 -.207 1.336zm4.183-6.555h5.649v23a1 1 0 0 0 1 1h3v2h-12v-2h3a1 1 0 0 0 1-1v-20a1 1 0 0 0 -1.6-.8l-3.154 2.366-.9-1.358z"
       fill="#231f20"
       id="path32" />
  </g>
</svg>
