<?xml version="1.0" encoding="UTF-8" standalone="no"?>
<svg
   xmlns:dc="http://purl.org/dc/elements/1.1/"
   xmlns:cc="http://creativecommons.org/ns#"
   xmlns:rdf="http://www.w3.org/1999/02/22-rdf-syntax-ns#"
   xmlns:svg="http://www.w3.org/2000/svg"
   xmlns="http://www.w3.org/2000/svg"
   xmlns:sodipodi="http://sodipodi.sourceforge.net/DTD/sodipodi-0.dtd"
   xmlns:inkscape="http://www.inkscape.org/namespaces/inkscape"
   height="511pt"
   version="1.1"
   viewBox="-5 0 511 511.99898"
   width="511pt"
   id="svg35"
   sodipodi:docname="paint.svg"
   inkscape:version="0.92.3 (2405546, 2018-03-11)">
  <metadata
     id="metadata41">
    <rdf:RDF>
      <cc:Work
         rdf:about="">
        <dc:format>image/svg+xml</dc:format>
        <dc:type
           rdf:resource="http://purl.org/dc/dcmitype/StillImage" />
      </cc:Work>
    </rdf:RDF>
  </metadata>
  <defs
     id="defs39" />
  <sodipodi:namedview
     pagecolor="#ffffff"
     bordercolor="#666666"
     borderopacity="1"
     objecttolerance="10"
     gridtolerance="10"
     guidetolerance="10"
     inkscape:pageopacity="0"
     inkscape:pageshadow="2"
     inkscape:window-width="1440"
     inkscape:window-height="858"
     id="namedview37"
     showgrid="false"
     inkscape:zoom="0.34637965"
     inkscape:cx="340.66667"
     inkscape:cy="340.66667"
     inkscape:window-x="-11"
     inkscape:window-y="-11"
     inkscape:window-maximized="1"
     inkscape:current-layer="svg35" />
  <g
     id="surface1">
    <path
       d="M 404.984375 205.066406 C 395.234375 209.824219 384.613281 213.804688 373.308594 216.796875 C 372.46875 217.019531 371.628906 217.230469 370.785156 217.4375 C 346.597656 223.484375 322.972656 224.046875 302.621094 220.039062 C 271.867188 213.96875 248.617188 197.449219 242.296875 173.578125 C 233.957031 142.078125 257.558594 107.132812 297.84375 85.613281 C 302.96875 82.882812 307.207031 78.953125 310.292969 74.242188 C 313.371094 69.554688 315.292969 64.085938 315.765625 58.308594 C 317.320312 39.210938 303.65625 22.207031 284.648438 19.6875 C 258.59375 16.214844 220.78125 14.460938 183.449219 24.34375 C 58.03125 57.546875 -16.148438 189.488281 15.347656 315.34375 C 48.15625 446.425781 181.765625 524.933594 311.964844 490.285156 C 418.902344 461.835938 490.46875 364.601562 491.460938 258.550781 C 491.464844 257.703125 491.445312 256.757812 491.390625 255.722656 C 489.050781 213.046875 443.40625 186.308594 404.984375 205.066406 Z M 394.71875 352.4375 C 376.011719 357.386719 356.847656 346.25 351.898438 327.550781 C 346.945312 308.84375 358.085938 289.679688 376.792969 284.726562 C 395.492188 279.777344 414.652344 290.917969 419.609375 309.628906 C 424.558594 328.324219 413.417969 347.484375 394.71875 352.4375 Z M 394.71875 352.4375 "
       style=" stroke:none;fill-rule:nonzero;fill:rgb(89.803922%,91.372549%,91.764706%);fill-opacity:1;"
       id="path2" />
    <path
       d="M 332.035156 405.726562 C 332.035156 429.351562 312.882812 448.507812 289.253906 448.507812 C 265.625 448.507812 246.472656 429.351562 246.472656 405.726562 C 246.472656 382.097656 265.625 362.941406 289.253906 362.941406 C 312.882812 362.941406 332.035156 382.097656 332.035156 405.726562 Z M 332.035156 405.726562 "
       style=" stroke:none;fill-rule:nonzero;fill:rgb(34.509804%,76.470588%,90.980392%);fill-opacity:1;"
       id="path4" />
    <path
       d="M 211.835938 375.953125 C 211.835938 399.578125 192.679688 418.734375 169.050781 418.734375 C 145.421875 418.734375 126.269531 399.578125 126.269531 375.953125 C 126.269531 352.324219 145.421875 333.167969 169.050781 333.167969 C 192.679688 333.167969 211.835938 352.324219 211.835938 375.953125 Z M 211.835938 375.953125 "
       style=" stroke:none;fill-rule:nonzero;fill:rgb(28.627451%,74.117647%,56.470588%);fill-opacity:1;"
       id="path6" />
    <path
       d="M 140.726562 271.585938 C 140.726562 295.214844 121.570312 314.371094 97.945312 314.371094 C 74.316406 314.371094 55.160156 295.214844 55.160156 271.585938 C 55.160156 247.960938 74.316406 228.804688 97.945312 228.804688 C 121.570312 228.804688 140.726562 247.960938 140.726562 271.585938 Z M 140.726562 271.585938 "
       style=" stroke:none;fill-rule:nonzero;fill:rgb(98.039216%,43.921569%,69.803922%);fill-opacity:1;"
       id="path8" />
    <path
       d="M 176.441406 151.019531 C 176.441406 174.648438 157.285156 193.804688 133.65625 193.804688 C 110.03125 193.804688 90.875 174.648438 90.875 151.019531 C 90.875 127.394531 110.03125 108.238281 133.65625 108.238281 C 157.285156 108.238281 176.441406 127.394531 176.441406 151.019531 Z M 176.441406 151.019531 "
       style=" stroke:none;fill-rule:nonzero;fill:rgb(100%,81.568627%,38.039216%);fill-opacity:1;"
       id="path10" />
    <path
       d="m 467.29199,203.82715 -7.19922,92.26953 -15.26953,195.78906 c -0.30469,3.95313 -2.95313,7.46875 -7.01953,9.99609 -4.05469,2.52344 -9.55469,4.05079 -15.5625,4.02344 -12.02344,-0.0508 -21.90625,-6.30469 -22.45313,-14.20703 l -13.625,-195.91016 -6.42187,-92.32812 z m 0,0"
       style="fill:#7c43bd;fill-opacity:1;fill-rule:nonzero;stroke:none"
       id="path12"
       inkscape:connector-curvature="0" />
    <path
       d="m 432.1416,501.1084 c -7.91797,-2.13282 -13.60938,-7.15235 -14.02735,-13.09766 l -14.6328,-287.45312 -24.69142,-0.10547 6.42579,92.32422 13.62109,195.91406 c 0.54687,7.90234 10.43359,14.15234 22.44922,14.20312 3.92578,0.0195 7.63672,-0.625 10.85547,-1.78515 z m 0,0"
       style="fill:#4a148c;fill-opacity:1;fill-rule:nonzero;stroke:none"
       id="path14"
       inkscape:connector-curvature="0" />
    <path
       d="M 458.589844 294.59375 L 465.789062 202.320312 L 402.925781 202.0625 L 378.238281 201.953125 L 384.660156 294.28125 L 407.628906 294.375 Z M 458.589844 294.59375 "
       style=" stroke:none;fill-rule:nonzero;fill:rgb(24.313725%,29.411765%,36.078431%);fill-opacity:1;"
       id="path16" />
    <path
       d="M 378.238281 201.957031 C 338.171875 183.949219 333.964844 123.71875 369.796875 88.191406 C 405.625 52.664062 421.320312 31.601562 421.421875 7.601562 C 421.421875 7.601562 550.550781 139.847656 465.785156 202.324219 Z M 378.238281 201.957031 "
       style="stroke:none;fill-rule:nonzero;fill:#00e5ff;fill-opacity:1"
       id="path18" />
    <path
       d="M 414.484375 202.105469 L 378.238281 201.953125 C 338.179688 183.945312 333.964844 123.71875 369.796875 88.199219 C 405.625 52.667969 421.324219 31.597656 421.425781 7.601562 C 434.390625 79.054688 362.472656 121.375 414.484375 202.105469 Z M 414.484375 202.105469 "
       style="stroke:none;fill-rule:nonzero;fill:#00b2cc;fill-opacity:1"
       id="path20" />
    <path
       d="M 407.628906 294.375 L 402.925781 202.0625 L 378.238281 201.953125 L 384.660156 294.28125 Z M 407.628906 294.375 "
       style=" stroke:none;fill-rule:nonzero;fill:rgb(14.117647%,19.215686%,25.882353%);fill-opacity:1;"
       id="path22" />
    <path
       d="M 328.523438 424.328125 C 332.570312 425.4375 336.753906 423.054688 337.863281 419.007812 C 340.203125 410.476562 340.234375 401.421875 337.960938 392.832031 C 334.515625 379.820312 326.210938 368.933594 314.578125 362.167969 C 302.945312 355.40625 289.371094 353.574219 276.363281 357.019531 C 263.351562 360.464844 252.460938 368.769531 245.699219 380.402344 C 238.933594 392.035156 237.105469 405.609375 240.550781 418.617188 C 246.523438 441.171875 266.960938 456.113281 289.265625 456.113281 C 293.519531 456.113281 297.847656 455.570312 302.148438 454.429688 C 309.644531 452.445312 316.394531 448.882812 322.214844 443.84375 C 325.390625 441.097656 325.734375 436.296875 322.988281 433.121094 C 320.238281 429.949219 315.4375 429.605469 312.265625 432.351562 C 308.210938 435.863281 303.496094 438.347656 298.261719 439.734375 C 279.496094 444.699219 260.210938 433.480469 255.246094 414.730469 C 252.839844 405.644531 254.117188 396.167969 258.839844 388.042969 C 263.5625 379.917969 271.167969 374.121094 280.253906 371.714844 C 289.335938 369.308594 298.8125 370.585938 306.9375 375.308594 C 315.0625 380.03125 320.863281 387.636719 323.265625 396.722656 C 324.855469 402.722656 324.835938 409.042969 323.203125 414.988281 C 322.09375 419.039062 324.476562 423.21875 328.523438 424.328125 Z M 328.523438 424.328125 "
       style=" stroke:none;fill-rule:nonzero;fill:rgb(0%,0%,0%);fill-opacity:1;"
       id="path24" />
    <path
       d="M 143.730469 419.507812 C 151.523438 424.042969 160.1875 426.355469 168.96875 426.355469 C 173.296875 426.355469 177.652344 425.792969 181.945312 424.65625 C 194.957031 421.214844 205.847656 412.910156 212.609375 401.273438 C 219.375 389.640625 221.203125 376.066406 217.757812 363.058594 C 214.3125 350.050781 206.007812 339.160156 194.375 332.394531 C 182.742188 325.628906 169.167969 323.804688 156.160156 327.246094 C 143.148438 330.691406 132.257812 338.996094 125.496094 350.628906 C 118.730469 362.265625 116.902344 375.835938 120.347656 388.847656 C 123.792969 401.855469 132.09375 412.746094 143.730469 419.507812 Z M 138.636719 358.269531 C 143.359375 350.144531 150.964844 344.347656 160.050781 341.941406 C 163.046875 341.148438 166.089844 340.753906 169.109375 340.753906 C 175.242188 340.753906 181.292969 342.371094 186.734375 345.535156 C 194.859375 350.257812 200.65625 357.863281 203.0625 366.949219 C 205.46875 376.03125 204.191406 385.511719 199.46875 393.632812 C 194.746094 401.757812 187.140625 407.558594 178.054688 409.960938 C 168.972656 412.367188 159.496094 411.089844 151.371094 406.367188 C 143.246094 401.644531 137.445312 394.039062 135.042969 384.957031 C 132.636719 375.871094 133.914062 366.394531 138.636719 358.269531 Z M 138.636719 358.269531 "
       style=" stroke:none;fill-rule:nonzero;fill:rgb(0%,0%,0%);fill-opacity:1;"
       id="path26" />
    <path
       d="M 141.5 296.910156 C 148.265625 285.277344 150.09375 271.703125 146.648438 258.691406 C 139.535156 231.835938 111.902344 215.765625 85.050781 222.882812 C 58.195312 229.992188 42.128906 257.625 49.238281 284.480469 C 52.683594 297.492188 60.988281 308.378906 72.621094 315.144531 C 80.414062 319.675781 89.078125 321.992188 97.859375 321.992188 C 102.1875 321.992188 106.542969 321.429688 110.835938 320.292969 C 123.847656 316.847656 134.738281 308.542969 141.5 296.910156 Z M 128.359375 289.269531 C 123.636719 297.394531 116.03125 303.191406 106.945312 305.597656 C 97.863281 308 88.386719 306.726562 80.261719 302.003906 C 72.136719 297.28125 66.339844 289.675781 63.933594 280.589844 C 58.96875 261.835938 70.1875 242.542969 88.941406 237.578125 C 91.945312 236.78125 94.964844 236.402344 97.9375 236.402344 C 113.511719 236.402344 127.785156 246.835938 131.957031 262.582031 C 134.359375 271.667969 133.082031 281.144531 128.359375 289.269531 Z M 128.359375 289.269531 "
       style=" stroke:none;fill-rule:nonzero;fill:rgb(0%,0%,0%);fill-opacity:1;"
       id="path28" />
    <path
       d="M 158.980469 107.464844 C 147.347656 100.699219 133.773438 98.871094 120.765625 102.316406 C 107.753906 105.757812 96.863281 114.0625 90.097656 125.699219 C 83.335938 137.332031 81.507812 150.90625 84.953125 163.914062 C 88.394531 176.921875 96.699219 187.8125 108.335938 194.578125 C 116.128906 199.109375 124.792969 201.425781 133.574219 201.425781 C 137.902344 201.425781 142.253906 200.863281 146.550781 199.726562 C 159.5625 196.28125 170.449219 187.976562 177.214844 176.34375 C 183.980469 164.707031 185.808594 151.136719 182.363281 138.125 C 178.917969 125.117188 170.613281 114.226562 158.980469 107.464844 Z M 164.074219 168.703125 C 159.351562 176.828125 151.746094 182.625 142.660156 185.03125 C 133.578125 187.4375 124.101562 186.160156 115.976562 181.4375 C 107.851562 176.710938 102.050781 169.109375 99.648438 160.023438 C 97.242188 150.9375 98.519531 141.460938 103.242188 133.339844 C 107.964844 125.214844 115.570312 119.414062 124.652344 117.007812 C 127.652344 116.214844 130.695312 115.824219 133.714844 115.824219 C 139.847656 115.824219 145.898438 117.441406 151.339844 120.605469 C 159.464844 125.328125 165.265625 132.933594 167.667969 142.015625 C 170.074219 151.101562 168.796875 160.578125 164.074219 168.703125 Z M 164.074219 168.703125 "
       style=" stroke:none;fill-rule:nonzero;fill:rgb(0%,0%,0%);fill-opacity:1;"
       id="path30" />
    <path
       d="M 500.79002,159.39355 C 506.28612,91.74512 429.00487,11.75684 425.7119,8.38184 c -2.15234,-2.20313 -5.42578,-2.89063 -8.28906,-1.73438 -2.85938,1.15625 -4.73438,3.92969 -4.75,7.01172 -0.0938,22.29297 -16.69922,42.82422 -49.37891,75.22656 -20.66015,20.48828 -30.39453,50.32031 -25.40234,77.85156 3.71484,20.49219 15.25391,37.05469 31.91797,46.15235 l 0.1875,2.6914 c -1.01563,0.26563 -2.04688,0.53907 -2.20703,0.58204 -22.39063,5.59765 -44.8125,6.46875 -64.84375,2.51953 -28.8125,-5.6875 -49.16797,-20.9961 -54.45313,-40.95313 -7.16797,-27.07031 13.64453,-58.94531 51.78906,-79.3164 6.14844,-3.28516 11.41407,-8.09375 15.21875,-13.90625 3.82032,-5.82813 6.13282,-12.57032 6.69141,-19.49219 1.88281,-23.17188 -14.67187,-43.72266 -37.6875,-46.77735 -26.07422,-3.45703 -65.30859,-5.42187 -104.15234,4.85938 -23.75391,6.28906 -46.26953,16.16016 -66.92578,29.33984 -3.53907,2.25782 -4.57813,6.95703 -2.32032,10.4961 2.26172,3.53906 6.95703,4.57422 10.4961,2.32031 19.32812,-12.33594 40.40625,-21.57422 62.64062,-27.46094 36.4375,-9.64453 73.54688,-7.76562 98.26172,-4.48828 14.98438,1.99219 25.76563,15.38281 24.53906,30.48828 -0.35547,4.39453 -1.82812,8.67969 -4.2539,12.38672 -2.41797,3.6875 -5.76172,6.74219 -9.66797,8.83203 -21.17969,11.3086 -38.06641,26.11719 -48.82422,42.82422 -11.46875,17.80859 -15.09766,36.41016 -10.49609,53.78906 6.91015,26.08985 31.03906,45.03125 66.20312,51.97266 9.19922,1.81641 18.82422,2.71875 28.69531,2.71875 13.82813,0 28.12891,-1.78125 42.3711,-5.30859 l 3.63281,52.21093 c -0.33594,0.082 -0.66797,0.16016 -1.00781,0.25 -22.71485,6.01563 -36.3086,29.39844 -30.29688,52.11719 4.64063,17.53516 19.50781,29.89453 37.13672,31.53516 l 5.89844,84.80859 c -23.35547,17.12891 -49.42969,29.61328 -77.57031,37.10938 -61.06641,16.25 -124.67188,7.52343 -179.10547,-24.57032 -54.41797,-32.08593 -92.83985,-83.53515 -108.1875,-144.87109 -11.08985,-44.30859 -9,-90.70313 6.04297,-134.16406 14.75,-42.625 40.88671,-79.65235 75.57812,-107.07813 3.29297,-2.60156 3.85156,-7.38281 1.25,-10.67578 C 101.8369,64.38574 97.05956,63.82715 93.76659,66.43262 56.79393,95.65918 28.95018,135.08887 13.24706,180.45996 -2.76075,226.71777 -4.98341,276.1084 6.82518,323.28418 23.16893,388.60059 64.083,443.38965 122.03612,477.55762 c 38.91016,22.94531 82.21484,34.67187 126.15625,34.67187 21.51953,0 43.20313,-2.8125 64.58203,-8.5039 26.90235,-7.16797 52.03125,-18.61719 74.89063,-34.07422 l 1.89062,27.15625 c 0.83203,12.0664 13.73047,21.21484 30,21.28515 0.0625,0 0.1211,0 0.17969,0 7.17578,0 14.07422,-1.83593 19.42578,-5.17187 6.33984,-3.9336 10.10156,-9.56641 10.58984,-15.85938 l 7.69141,-98.64843 c 26.02735,-40.11329 40.01955,-86.29297 40.46485,-133.67579 0.016,-1.0664 -0.016,-2.19531 -0.082,-3.33593 -1.0782,-19.52735 -10.3711,-37.19922 -25.668,-49.19141 17.2695,-13.81641 26.9062,-31.56641 28.6328,-52.81641 z m -147.93749,4.63282 c -4.11328,-22.67578 3.98828,-47.33203 21.14843,-64.34375 28.1211,-27.88672 45.33204,-48.08985 51.40235,-68.9375 20.65234,24.07812 64.03511,80.6875 60.23831,127.41797 -1.4102,17.35546 -9.1211,31.32812 -23.543,42.63671 l -83.30859,-0.34765 c -13.69922,-6.71875 -22.88672,-19.58985 -25.9375,-36.42578 z m 32.39062,51.66015 71.17969,0.29688 -6.00781,77.07031 -59.8086,-0.25391 z m -27.15234,116.01172 c -3.70313,-14.00781 4.17187,-28.39453 17.6875,-32.98437 l 3.67969,52.89843 c -10.21875,-1.92578 -18.60547,-9.48437 -21.36719,-19.91406 z m 76.5039,164.1875 c -0.10156,1.30469 -1.39062,2.84375 -3.45703,4.12891 -2.9414,1.83203 -7.09375,2.875 -11.40234,2.875 -0.0391,0 -0.0781,0 -0.11328,0 -8.80078,-0.0352 -14.70313,-4.2461 -14.90235,-7.13281 l -13.05859,-187.75 57.57031,0.24218 z m 48.05471,-233.62109 c 0.047,0.80859 0.066,1.58203 0.059,2.3125 -0.3164,33.875 -8.0039,67.09375 -22.44143,97.64844 L 470.4584,231.56152 c 7.23442,8.53907 11.55472,19.19922 12.19142,30.70313 z m 0,0"
       style="fill:#000000;fill-opacity:1;fill-rule:nonzero;stroke:none"
       id="path32"
       inkscape:connector-curvature="0" />
  </g>
</svg>
