<?xml version="1.0" encoding="UTF-8" standalone="no"?>
<svg
   xmlns:dc="http://purl.org/dc/elements/1.1/"
   xmlns:cc="http://creativecommons.org/ns#"
   xmlns:rdf="http://www.w3.org/1999/02/22-rdf-syntax-ns#"
   xmlns:svg="http://www.w3.org/2000/svg"
   xmlns="http://www.w3.org/2000/svg"
   xmlns:sodipodi="http://sodipodi.sourceforge.net/DTD/sodipodi-0.dtd"
   xmlns:inkscape="http://www.inkscape.org/namespaces/inkscape"
   id="Capa_1"
   enable-background="new 0 0 512 512"
   height="512"
   viewBox="0 0 512 512"
   width="512"
   version="1.1"
   sodipodi:docname="crown.svg"
   inkscape:version="0.92.3 (2405546, 2018-03-11)">
  <metadata
     id="metadata41">
    <rdf:RDF>
      <cc:Work
         rdf:about="">
        <dc:format>image/svg+xml</dc:format>
        <dc:type
           rdf:resource="http://purl.org/dc/dcmitype/StillImage" />
      </cc:Work>
    </rdf:RDF>
  </metadata>
  <defs
     id="defs39" />
  <sodipodi:namedview
     pagecolor="#ffffff"
     bordercolor="#666666"
     borderopacity="1"
     objecttolerance="10"
     gridtolerance="10"
     guidetolerance="10"
     inkscape:pageopacity="0"
     inkscape:pageshadow="2"
     inkscape:window-width="1440"
     inkscape:window-height="858"
     id="namedview37"
     showgrid="false"
     inkscape:zoom="0.4609375"
     inkscape:cx="256"
     inkscape:cy="256"
     inkscape:window-x="-11"
     inkscape:window-y="-11"
     inkscape:window-maximized="1"
     inkscape:current-layer="Capa_1" />
  <g
     id="g34">
    <path
       d="m452.952 130.741v.015c-.015-.015.015.015-.029.073-11.558 31.157-53.222 111.284-106.513 110.171-31.465-.864-58.301-52.295-71.777-137.578h-18.633-18.633c-13.476 85.283-40.312 136.714-71.777 137.578-.483.015-.952.029-1.421.029-51.826 0-93.651-79.321-105.092-110.2-.029-.059-.029-.088-.029-.073v-.015l-28.154 10.371c2.417 6.68 60.106 165.498 60.106 324.888h165 165c0-159.39 57.689-318.208 60.106-324.888z"
       fill="#ffdf40"
       id="path2" />
    <path
       d="m481.106 141.112-28.154-10.371v.015c-.015-.015.015.015-.029.073-11.558 31.157-53.222 111.284-106.513 110.171-31.465-.864-58.301-52.295-71.777-137.578h-18.633v362.578h165c0-159.39 57.689-318.208 60.106-324.888z"
       fill="#ffbe40"
       id="path4" />
    <g
       id="g8">
      <path
         d="m136 391h-60c-8.291 0-15-6.709-15-15s6.709-15 15-15h60c8.291 0 15 6.709 15 15s-6.709 15-15 15z"
         fill="#ffbe40"
         id="path6"
         style="fill:#ffbe40;fill-opacity:1" />
    </g>
    <g
       id="g12">
      <path
         d="m436 391h-60c-8.291 0-15-6.709-15-15s6.709-15 15-15h60c8.291 0 15 6.709 15 15s-6.709 15-15 15z"
         fill="#ff9f40"
         id="path10"
         style="fill:#ffdf40;fill-opacity:1" />
    </g>
    <g
       id="g16">
      <path
         d="m467 181c-24.814 0-45-20.186-45-45s20.186-45 45-45 45 20.186 45 45-20.186 45-45 45z"
         fill="#ff9f40"
         id="path14" />
    </g>
    <g
       id="g20">
      <path
         d="m45 181c-24.814 0-45-20.186-45-45s20.186-45 45-45 45 20.186 45 45-20.186 45-45 45z"
         fill="#ffbe40"
         id="path18" />
    </g>
    <path
       d="m436 451h-180-180c-8.291 0-15 6.709-15 15s6.709 15 15 15h180 180c8.291 0 15-6.709 15-15s-6.709-15-15-15z"
       fill="#ffbe40"
       id="path26"
       style="fill:#483d8b" />
    <path
       d="m451 466c0-8.291-6.709-15-15-15h-180v30h180c8.291 0 15-6.709 15-15z"
       fill="#ff9f40"
       id="path28"
       style="fill:#4b0082" />
    <circle
       cx="256"
       cy="76"
       fill="#ffbe40"
       r="45"
       id="circle30" />
    <path
       d="m301 76c0-24.814-20.186-45-45-45v90c24.814 0 45-20.186 45-45z"
       fill="#ff9f40"
       id="path32" />
  </g>
</svg>
