<?xml version="1.0" encoding="UTF-8" standalone="no"?>
<svg
   xmlns:dc="http://purl.org/dc/elements/1.1/"
   xmlns:cc="http://creativecommons.org/ns#"
   xmlns:rdf="http://www.w3.org/1999/02/22-rdf-syntax-ns#"
   xmlns:svg="http://www.w3.org/2000/svg"
   xmlns="http://www.w3.org/2000/svg"
   xmlns:sodipodi="http://sodipodi.sourceforge.net/DTD/sodipodi-0.dtd"
   xmlns:inkscape="http://www.inkscape.org/namespaces/inkscape"
   height="512"
   viewBox="0 0 64 64"
   width="512"
   version="1.1"
   id="svg35"
   sodipodi:docname="official-gift-bag.svg"
   inkscape:version="0.92.3 (2405546, 2018-03-11)">
  <metadata
     id="metadata41">
    <rdf:RDF>
      <cc:Work
         rdf:about="">
        <dc:format>image/svg+xml</dc:format>
        <dc:type
           rdf:resource="http://purl.org/dc/dcmitype/StillImage" />
        <dc:title></dc:title>
      </cc:Work>
    </rdf:RDF>
  </metadata>
  <defs
     id="defs39" />
  <sodipodi:namedview
     pagecolor="#ffffff"
     bordercolor="#666666"
     borderopacity="1"
     objecttolerance="10"
     gridtolerance="10"
     guidetolerance="10"
     inkscape:pageopacity="0"
     inkscape:pageshadow="2"
     inkscape:window-width="1440"
     inkscape:window-height="858"
     id="namedview37"
     showgrid="false"
     inkscape:zoom="1.28"
     inkscape:cx="256"
     inkscape:cy="251.77008"
     inkscape:window-x="-11"
     inkscape:window-y="-11"
     inkscape:window-maximized="1"
     inkscape:current-layer="Shopping" />
  <g
     id="Shopping">
    <path
       d="m53 53v-36h-30v40h34a4 4 0 0 1 -4-4z"
       fill="#2488ff"
       id="path2"
       style="fill:#00bef0;fill-opacity:1" />
    <path
       d="m57 57a4 4 0 0 1 -4-4v-21c0 13.548-13.33 24.554-30 24.98v.02z"
       fill="#006df0"
       id="path4"
       style="fill:#00a9f0;fill-opacity:1" />
    <path
       d="m55 17h-2v36a4 4 0 0 0 8 0v-36z"
       fill="#ffcd00"
       id="path6" />
    <path
       d="m35 41h-12v20h12v-4-6z"
       fill="#ff3051"
       id="path8"
       style="fill:#00e9f0;fill-opacity:1" />
    <path
       d="m5 41h12v20h-12z"
       fill="#ff3051"
       id="path10"
       style="fill:#00e9f0;fill-opacity:1" />
    <path
       d="m23 41h12 2v-6h-13-1z"
       fill="#d80027"
       id="path12"
       style="fill:#00e9f0;fill-opacity:1" />
    <path
       d="m17 35h-1-13v6h2 12z"
       fill="#d80027"
       id="path14"
       style="fill:#00e9f0;fill-opacity:1" />
    <path
       d="m17 41h6v20h-6z"
       fill="#ffcd00"
       id="path16" />
    <path
       d="m20 35h-3v6h6v-6z"
       fill="#ddb200"
       id="path18" />
    <path
       d="m23 35h1a4 4 0 1 0 -4-4v4z"
       fill="#ff3051"
       id="path20"
       style="fill:#00ccf0;fill-opacity:1" />
    <path
       d="m20 35v-4a4 4 0 1 0 -4 4z"
       fill="#ea2c4a"
       id="path22"
       style="fill:#00a9f0;fill-opacity:1" />
    <path
       d="m5 41h12v3h-12z"
       fill="#e52b49"
       id="path24"
       style="fill:#00ccf0;fill-opacity:1" />
    <path
       d="m23 41h12v3h-12z"
       fill="#e52b49"
       id="path26"
       style="fill:#00ccf0;fill-opacity:1" />
    <path
       d="m57 53a1 1 0 0 0 1-1v-31a1 1 0 0 0 -2 0v31a1 1 0 0 0 1 1z"
       fill="#f1f2f2"
       id="path28" />
    <path
       d="m31 17v-6a7 7 0 0 1 9.731-6.445 8.969 8.969 0 0 0 -2.731 6.445v6h2v-6a6.986 6.986 0 0 1 2.5-5.354 6.986 6.986 0 0 1 2.5 5.354v6h2v-6a8.969 8.969 0 0 0 -2.731-6.445 7 7 0 0 1 9.731 6.445v6h2v-6a8.983 8.983 0 0 0 -13.5-7.782 8.983 8.983 0 0 0 -13.5 7.782v6z"
       fill="#d80027"
       id="path30"
       style="fill:#00bef0;fill-opacity:1" />
    <path
       d="m35 50h14a1 1 0 0 1 1 1 1 1 0 0 1 -1 1h-14a0 0 0 0 1 0 0v-2a0 0 0 0 1 0 0z"
       fill="#f1f2f2"
       id="path32" />
  </g>
</svg>
