<?xml version="1.0" encoding="UTF-8" standalone="no"?>
<svg
   xmlns:dc="http://purl.org/dc/elements/1.1/"
   xmlns:cc="http://creativecommons.org/ns#"
   xmlns:rdf="http://www.w3.org/1999/02/22-rdf-syntax-ns#"
   xmlns:svg="http://www.w3.org/2000/svg"
   xmlns="http://www.w3.org/2000/svg"
   xmlns:sodipodi="http://sodipodi.sourceforge.net/DTD/sodipodi-0.dtd"
   xmlns:inkscape="http://www.inkscape.org/namespaces/inkscape"
   height="440.00226"
   viewBox="0 0 38 55.000282"
   width="304"
   version="1.1"
   id="svg35"
   sodipodi:docname="purchase-bag.svg"
   inkscape:version="0.92.3 (2405546, 2018-03-11)">
  <metadata
     id="metadata41">
    <rdf:RDF>
      <cc:Work
         rdf:about="">
        <dc:format>image/svg+xml</dc:format>
        <dc:type
           rdf:resource="http://purl.org/dc/dcmitype/StillImage" />
        <dc:title></dc:title>
      </cc:Work>
    </rdf:RDF>
  </metadata>
  <defs
     id="defs39" />
  <sodipodi:namedview
     pagecolor="#ffffff"
     bordercolor="#666666"
     borderopacity="1"
     objecttolerance="10"
     gridtolerance="10"
     guidetolerance="10"
     inkscape:pageopacity="0"
     inkscape:pageshadow="2"
     inkscape:window-width="1440"
     inkscape:window-height="858"
     id="namedview37"
     showgrid="false"
     inkscape:zoom="1.28"
     inkscape:cx="-58.46875"
     inkscape:cy="215.4541"
     inkscape:window-x="-11"
     inkscape:window-y="-11"
     inkscape:window-maximized="1"
     inkscape:current-layer="Shopping" />
  <g
     id="Shopping"
     transform="translate(-23,-1.9997183)">
    <path
       d="M 53,53 V 17 H 23 v 40 h 34 a 4,4 0 0 1 -4,-4 z"
       id="path2"
       style="fill:#a824ff;fill-opacity:1"
       inkscape:connector-curvature="0" />
    <path
       d="M 57,57 A 4,4 0 0 1 53,53 V 32 C 53,45.548 39.67,56.554 23,56.98 V 57 Z"
       id="path4"
       style="fill:#8a00f0;fill-opacity:1"
       inkscape:connector-curvature="0" />
    <path
       d="m 55,17 h -2 v 36 a 4,4 0 0 0 8,0 V 17 Z"
       id="path6"
       inkscape:connector-curvature="0"
       style="fill:#ffcd00" />
    <path
       d="m 57,53 a 1,1 0 0 0 1,-1 V 21 a 1,1 0 0 0 -2,0 v 31 a 1,1 0 0 0 1,1 z"
       id="path28"
       inkscape:connector-curvature="0"
       style="fill:#f1f2f2" />
    <path
       d="M 31,17 V 11 A 7,7 0 0 1 40.731,4.555 8.969,8.969 0 0 0 38,11 v 6 h 2 V 11 A 6.986,6.986 0 0 1 42.5,5.646 6.986,6.986 0 0 1 45,11 v 6 h 2 V 11 A 8.969,8.969 0 0 0 44.269,4.555 7,7 0 0 1 54,11 v 6 h 2 V 11 A 8.983,8.983 0 0 0 42.5,3.218 8.983,8.983 0 0 0 29,11 v 6 z"
       id="path30"
       style="fill:#a824ff;fill-opacity:1"
       inkscape:connector-curvature="0" />
    <path
       d="m 35,50 h 14 a 1,1 0 0 1 1,1 1,1 0 0 1 -1,1 H 35 Z"
       id="path32"
       inkscape:connector-curvature="0"
       style="fill:#f1f2f2" />
  </g>
</svg>
